<?xml version="1.0" encoding="UTF-8"?>
<svg id="Capa_1" data-name="Capa 1" xmlns="http://www.w3.org/2000/svg" viewBox="0 0 480.66 391.67">
  <defs>
    <style>
      .cls-1 {
        fill: #614e4c;
      }
    </style>
  </defs>
  <path class="cls-1" d="M468.37,234.25c-6.66-.84-13.23-.77-18.57,4.76-6.72-6.57-14.83-7.82-23.39-7.99-11.89-.23-22.83,2.73-32.93,8.95-.84.52-1.7,1-2.49,1.57-6.74,4.83-14.19,13.1-14.32,13.28-.58.79-1.23,1.52-1.82,2.31-9.07,12.04-14.81,25.41-16.16,40.52-.29,3.28-.31,6.5-.06,9.68-11.18,15.61-22.35,31.23-33.65,46.75-3.96,5.44-8.45,10.48-12.79,15.64-.89,1.06-1.65,2.67-3.77,2.22-.19-.49-.56-1.04-.6-1.61-.42-6.08-.39-12.15.66-18.19,2.16-12.52,6.15-24.45,11.93-35.71,8.34-16.23,16.96-32.32,25.37-48.51,3.71-7.13,7.29-14.32,10.76-21.57,1.88-3.93,3.08-8.1,3.55-12.48.73-6.87-1.96-11.85-8.04-14.99-9.45-4.88-19.14-5.38-28.9-1.1-5.2,2.28-9.98,5.38-14.1,9.28-4.72,4.48-9.18,9.25-13.73,13.9-1.32,1.35-2.61,2.74-4.36,4.59-.61-2.51-1.01-4.39-1.52-6.24-1.09-3.96-3.36-7.03-7.01-8.99-6.7-3.6-13.71-3.76-20.85-1.62-3.26.98-4.84,3.12-4.81,6.78.07,8.2-2.39,15.76-6.18,23.02-9.68,18.58-21.5,35.74-34.49,52.11-4.45,5.61-9.14,11.08-14.87,15.48-.73.56-1.73.78-3.23,1.42.23-1.99.23-3.29.56-4.49.99-3.55,1.97-7.12,3.22-10.58,5.89-16.35,11.93-32.64,17.79-49,1.09-3.04,1.81-6.25,2.36-9.44,1.36-7.89-2.11-13.41-8.83-17.25-3.27-1.86-6.79-3.01-10.49-3.28-2.11-.16-4.31.26-6.42.66-2.6.5-4.06,2.04-4.45,4.86-.36,2.54-1.08,5.1-2.08,7.47-2.01,4.8-4.05,9.63-6.55,14.2-7.41,13.52-14.88,27.02-22.65,40.34-11.51,19.71-23.65,39.03-36.95,57.59-3.15,4.4-6.88,8.39-10.4,12.52-.66.77-1.45,1.7-3.02.82-.54-5.07.36-10.18,1.52-15.21,5.24-22.74,13.12-44.55,23.14-65.62,14.1-29.62,28.3-59.19,42.11-88.94,7.95-17.14,15.34-34.55,20.73-52.72.36-1.21.93-2.36,1.41-3.58,2.56-.53,4.88-1.07,7.23-1.48,17.56-3.06,35.21-5.39,52.97-6.94,18.42-1.61,36.84-2.68,55.34-2.39,7.18.12,14.33.34,21.44,1.48,9.27,1.48,18.26,3.89,26.79,7.86,5.13,2.4,7.22,4.03,10.17,7.81-.6.83-1.39,1.62-1.83,2.57-1.5,3.23-.28,6.46,2.98,8.23,2.39,1.3,5.41.31,7.24-2.5,1.47-2.26,2.05-4.74,1.53-7.46-.96-5.04-3.26-9.43-6.54-13.3-4.09-4.84-8.77-9.02-14.1-12.49-10.95-7.13-23-11.06-35.86-12.93-10.39-1.51-20.82-1.6-31.23-1.19-13.24.52-26.47,1.49-39.68,2.53-16.03,1.26-32.01,3.02-47.85,5.87-1.46.26-2.96.33-4.75.52-.26-1.95-.48-3.63-.7-5.32-1.04-7.93-4.64-14.43-11.04-19.25-6.03-4.53-13.01-5.79-20.35-5.29-3.03.21-4,1.66-3.93,4.79.08,3.47.3,6.95.14,10.42-.35,7.66-2.48,14.9-5.23,21.92-1.16.28-1.99.54-2.83.67-15.02,2.37-30.03,4.77-45.05,7.07-17.22,2.63-34.52,4.1-51.96,3.5-14.76-.51-28.8-3.82-42.07-10.32-1.1-.54-2.03-1.4-3.01-2.08.85-1.67,1.68-2.97,2.19-4.38,1.24-3.43.34-6.49-2.27-8.9-2.7-2.5-5.79-3.77-9.53-2.2C2.45,114.68.11,118.33,0,123.33c-.14,6.55,2.06,12.38,6.19,17.44,3.89,4.77,8.5,8.68,13.96,11.57,7.12,3.77,14.52,6.85,22.26,9.12,11.17,3.27,22.61,4.06,34.17,4.12,18.57.09,36.78-2.94,54.97-6.15,5.56-.98,11.07-2.24,16.63-3.23,1.34-.24,2.96-1.06,4.41,1.03-1.25,3.38-2.44,7.08-3.98,10.64-6.63,15.35-13.01,30.83-20.16,45.95-10.86,22.98-21.53,46.05-31.43,69.46-1.48,3.49-10.34,20.62-15.15,36.52-2.59,8.59-3.49,17.44-4.35,26.31-.59,6.12-.33,12.17.71,18.19,1.25,7.23,4.37,13.62,9.36,19.04,3.63,3.94,8.11,6.42,13.29,7.8,4.04,1.08,7.79.48,11.31-1.51,2.06-1.17,4.16-2.48,5.8-4.17,3.33-3.42,6.6-6.94,9.45-10.75,9.75-13.07,19.07-26.44,27.53-40.39,2.93-4.83,5.96-9.6,8.99-14.37.65-1.02,1.51-1.91,2.64-3.32.57,2.07.91,3.54,1.37,4.96.86,2.69,1.57,5.44,2.71,8.01,4.86,10.96,15,14.5,24.57,12.33,2.71-.62,5.36-1.75,7.84-3.05,4.66-2.43,8.72-5.73,12.19-9.68,4.01-4.57,7.88-9.27,11.87-13.86.78-.9,1.11-2.51,3.11-2.21.08,1.83.06,3.72.26,5.58.68,6.31,3.95,10.93,9.5,13.92,3.73,2.01,7.76,2.68,11.97,2.52,3.67-.14,6.16-1.77,7.34-5.33.89-2.68,1.78-5.37,2.85-7.97,11.26-27.3,25.69-52.72,44.96-75.22,4.23-4.94,9-9.4,13.57-14.04.54-.55,1.26-1.32,2.44-.25-.63,1.25-1.27,2.57-1.96,3.87-8.88,16.93-17.68,33.9-26.68,50.77-5.97,11.19-10.07,23.08-13.86,35.1-2.16,6.86-3.28,13.95-3.83,21.12-.74,9.65.42,19.09,3.36,28.3,2.61,8.16,8.08,13.73,15.79,17.23,8.39,3.81,16.07,2.8,22.94-3.42,1.77-1.6,3.51-3.27,5.06-5.07,2.83-3.29,5.67-6.6,8.23-10.11,10.82-14.86,21.35-29.91,31.47-45.26.1.18.17.37.27.55,7.67,13.9,31.14,19.21,41.64,3.97,1.67-2.42,3.75-4.57,5.35-7.03,4.16-6.37,8.15-12.85,12.23-19.28.88-1.38,1.86-2.69,3.39-4.88-.22,5.46-.54,9.79-.54,14.12,0,6.17.84,12.28,2.87,18.12,4.67,13.41,15.69,19.83,29.42,17.33,2-.37,3.84-.94,4.15-3.78-4.35-4.2-4.56-9.84-4.18-15.57.47-7.13,1.73-14.16,3.96-20.94,3.67-11.19,7.6-22.3,11.47-33.42,1.45-4.17,3.31-8.22,4.48-12.47,1.17-4.23,2.16-8.61,2.43-12.98.52-8.63-3.57-13.29-12.25-14.39M435.68,261.49c-8.25,13.35-16.47,26.71-24.79,40.01-2.86,4.57-5.98,8.97-9.05,13.41-.8,1.16-1.85,2.15-2.77,3.21-1.75-1.03-1.07-2.33-.87-3.33,4.06-19.86,11.19-38.56,21.56-55.98,2.9-4.88,6.47-9.26,11.39-12.31,5.11-3.17,7.21-2.72,12.07,2.66-2.46,4.04-4.98,8.2-7.54,12.34"/>
  <path class="cls-1" d="M221.26,200.59c.44-.58.92-1.14,1.31-1.76,1.12-1.77,2.22-3.56,3.31-5.35,1.29-2.14,2.85-4.05,4.6-5.83.67-.68,1.32-1.38,1.99-2.06,2.18-2.16,4.85-3.47,7.84-3.89,5.23-.74,10.26,3.54,10.72,8.78.22,2.48-.34,4.73-1.36,6.92-.73,1.56-1.31,3.23-2.3,4.61-2.38,3.3-4.5,6.8-7.33,9.77-2.24,2.34-4.34,4.82-6.58,7.16-1.58,1.65-3.28,3.18-4.93,4.76-1.8,1.71-3.65,3.38-5.4,5.13-1.06,1.06-2.15,1.31-3.63,1.04-3.02-.57-5.55-1.93-7.73-4.07-1.5-1.47-3.16-2.75-4.51-4.4-1.72-2.11-2.89-4.5-4.18-6.85-2.11-3.81-3.42-7.91-4.06-12.19-.42-2.8-.69-5.63-.22-8.5.26-1.59.28-3.21.77-4.78,1.18-3.81,3.8-6.35,7.18-8.18,2.42-1.32,4.84-.79,7.14.4,1.56.81,2.77,2.06,3.58,3.63,1.01,1.96,1.86,3.97,2.01,6.23.14,2.1.39,4.19.64,6.28.12,1.02.36,2.03.55,3.04l.62.1Z"/>
  <path class="cls-1" d="M42.24,81.81c-.89,0-1.64-.69-1.7-1.59-.07-.94.64-1.76,1.58-1.83,2.22-.16,223.27-15.65,311.95-3.93.94.12,1.59.98,1.47,1.92-.12.94-.99,1.6-1.92,1.47-88.34-11.67-309.04,3.8-311.26,3.95-.04,0-.08,0-.12,0"/>
  <path class="cls-1" d="M344.21,86.76c-.06,0-.12,0-.18,0-21.73-2.21-51.25-3.27-87.81-3.27h0c-.94,0-1.71-.77-1.71-1.71,0-.94.76-1.71,1.71-1.71,36.65.02,66.32,1.06,88.16,3.29.94.1,1.62.93,1.53,1.87-.09.88-.83,1.54-1.7,1.54"/>
  <path class="cls-1" d="M67.27,5.77c.88.11,1.32.21,1.32.29l-.43.86v.12s.24-.01.24-.01l6.03-.44c6.87-.37,11.54,1.12,14.02,4.47,1.94,2.27,3,3.6,3.18,3.99l.48.09c.79-.04,5.13-2.41,13.04-7.11,1.08-.61,1.97-.94,2.68-.97,3.23-.17,6.65.87,10.26,3.13,6.99,4.93,10.59,9.25,10.79,12.96.79,1.46,2.45,9.49,4.97,24.08l.17,3.2c.04.71.26,1.13.66,1.27l.47-.03c.63-.04,1.88-.42,3.74-1.15,1.26-.07,2.02,2.23,2.27,6.88.29,2.36.46,4.13.52,5.31l-1.66.09c-3.29.73-6.19,1.16-8.72,1.3l-3.82-.27-6.86.6-1.18.06c-.16,0-.25-.3-.29-.93l-1.62-1.46v-.12s.29-1.2.29-1.2v-.24s-.78-3.16-.78-3.16l-.08-1.54c-.06-1.03.7-1.58,2.29-1.67,2.86.16,3.99-.97,3.38-3.39-.41-6.15-.42-10.78-.03-13.89v-.24s-.63-7.09-.63-7.09c-.07-1.26-1.21-2.67-3.43-4.21l-.96-.19-.83.04-.92.53c-.16,0-.26-.34-.29-1.05-1.95-2.27-4.93-3.3-8.95-3.08-5.11.75-8.1,2.45-8.99,5.11-.12.72-.18,2.58-.17,5.59l.38,2.71.46,8.52.07,3.44c.19,3.55,1.29,5.55,3.29,6,.88.11,1.33.37,1.35.76-.66,4-1.09,6.19-1.31,6.6l-2.93.75-10.11-.29-1.17.3c-1.34.07-2.12-1.91-2.34-5.93l-.03-.47c-.02-.47,1.13-1.13,3.46-1.97.63-.04.93-.37.9-1-.5-1.95-.82-4.15-.95-6.6l-.46-13.04c-.57-1.71-.88-3.08-.93-4.11-.03-1.98.2-2.98.67-3.01l1.1.54h.12s-.01-.25-.01-.25c-.09-1.73-2.91-4.08-8.45-7.03-1.45-.48-2.89-.68-4.31-.6-2.21.12-4.64,1.24-7.3,3.36l-.09.6.51,9.59,1.68,24.73.5.45.47-.03c.24-.01.38-.3.43-.86h.24c2.13-.13,3.46.36,4,1.44l.05.95.27,2.84c.33,3.23-.41,4.89-2.23,4.99-.46.18-2.59.46-6.37.82l-15.45-.12c-.79.04-1.67-2.32-2.64-7.1v-.12c-.05-.71,1.53-1.63,4.71-2.75-.03-.55,1.52-1.15,4.65-1.79.55-.11.8-.52.77-1.23l-.66-27.75-.11-6.52c-.04-.71-.81-1.03-2.31-.94-1.5.08-3.35.38-5.53.89-1.38-.64-2.09-1.35-2.13-2.14.61-.43.89-1.08.85-1.95l-.05-.95c-.51-2.03-1.04-3.03-1.59-3l-.12-.11v-.24c.44-.34.96-1.12,1.52-2.34,5.25-1,10.9-1.85,16.96-2.58M51.74,15.16c.04.79.77,1.15,2.2,1.07,1.82-.1,3.64-.79,5.47-2.08l-.02-.36-.47.02c-4.82.26-7.21.7-7.17,1.34M54.16,11.58l-2.24.36.02.35.37.22c3.24-.17,4.85-.42,4.83-.74l-.37-.33-2.61.14ZM53.59,58.52l-.35.02c.04.71-.24,1.4-.84,2.06.7,2.66,1.36,3.96,1.99,3.93l.36-.02-1.03-5.88-.12-.11ZM55.34,57.84l.21,1.77h.24c.51-.83,1.27-1.46,2.27-1.92l-.02-.36-1.08-.18-1.18.06c-.32.02-.46.22-.44.62M56.37,61.7h-.24s.04.84.04.84l.26.34.36-.02-.04-.83-.38-.34ZM56.51,8.85l.38.45c1.57-.24,2.35-.52,2.33-.84l-.6-.09c-1.42.15-2.12.31-2.11.47M57.98,60.66l-.34.38c.05,1.03,1.45,1.15,4.18.37.35.54.79.79,1.35.76,1.97-.18,4.01-.49,6.13-.92l-.02-.47-3.09.05c-1.97.27-4.34.31-7.12.15l-.61-.32-.47.02ZM61.77,58.32l-.93.29.02.36.95.07.95-.05.7-.16-.02-.35-.72-.2-.95.05ZM61.81,12.6l-.22.37v.24s.25-.01.25-.01l.45-.38v-.24s-.49.03-.49.03ZM64.7,53.06l-2.49.13c.14,1.26.34,1.88.58,1.87l.35-.02c1.03-.06,1.55-.72,1.56-1.98M62.75,16.82l.32,5.92c.06,1.18-.11,2.38-.52,3.59l.89,1.14-.14,1.91.06,1.18.25.22h.12c.63-.04.75-4.36.37-12.97v-.12c-.06-.95-.37-1.56-.94-1.85-.31.1-.45.42-.42.97M63.78,31.49h-.12s.02.48.02.48l.38.33h.12s-.03-.6-.03-.6l-.37-.22ZM65.56,9.43l-.22.37v.23s.26.23.26.23h.24s.46-.28.46-.28l-.27-.58-.47.03ZM65.68,7.17l-.22.37.02.36.37.34c.55-.03.81-.32.79-.87l-.13-.23-.83.05ZM66.43,21.14h-.24c-.09,1.29-.1,2.63-.02,4.05l.08,1.54.27.58c.55-.03.77-1.11.66-3.24l-.05-.95c-.07-1.34-.31-2-.7-1.98M68.98,55.32l-2.48-1.89v.24c.1,1.58.61,2.34,1.56,2.29l.71-.04c.16,0,.23-.21.21-.61M66.93,30.38l-.23.25.04.71.5.45h.24s.22-.26.22-.26l-.03-.59-.62-.56h-.12ZM68.36,12.84l-.49-.21-.21.49.25.22h.12s.34-.26.34-.26v-.24ZM67.83,9.55v.12s.49.21.49.21l7.62-1.83v-.24s-3.57.19-3.57.19c-3.08.17-4.59.68-4.55,1.55M68.07,16.3v.24s.49-.02.49-.02c1.02-.13,1.52-.36,1.51-.67l-.02-.36-.95.05c-.7.2-1.05.45-1.03.77M68.52,60.1h.24s0-.13,0-.13c-.08,0-.16.05-.23.13M72.15,59.07l-3.07.4.03.47,2.25-.12,1.76-.33-.03-.47-.95.05ZM70.26,63.69v.24s.38.22.38.22c.69-.35,1.22-.78,1.59-1.28v-.23c-.72.04-1.38.39-1.98,1.05M71.02,60.2l-.46.38c.04.71.81,1.07,2.31,1.06l.57-.5-.03-.47c-.02-.39-.82-.55-2.4-.47M71.32,12.68v.12s6.12-1.04,6.12-1.04c1.74-.09,3.55.6,5.46,2.08l.36-.02-.02-.47c-.56-1.63-1.44-2.42-2.62-2.35l-1.07.06c-5.45.29-8.19.84-8.23,1.63M74.04,56.83l-.83.04.04.71.84.07.33-.49-.38-.34ZM74.37,14.3c.01.24,1.14.57,3.38,1,1.54.71,2.86,1.04,3.97.97h.12s.22-.37.22-.37c-1.9-1.48-3.96-2.16-6.17-2.05l-.71.04c-.55.11-.82.24-.81.4M80.5,8.87l-.71.04.02.36c1.84.3,2.99.43,3.46.41h.24s-.01-.25-.01-.25c-.03-.47-1.03-.66-3-.55M84.19,13.54l-.23.25c.04.79.42,1.17,1.13,1.13v-.24c-.04-.55-.34-.93-.9-1.14M85.82,12.85h-.24s.02.49.02.49c.77,1.07,1.44,1.74,2.01,2.03l.36-.02v-.12c-.45-.93-1.17-1.72-2.15-2.38M86.32,15.68h-.12s0,.12,0,.12c.04.79.79,1.46,2.24,2.02l-.07-1.3c0-.16-.7-.44-2.06-.84M90.08,21.53h-.24c.03.65.36.94,1,.91h.24s-.03-.49-.03-.49c-.1-.31-.42-.45-.97-.42M90.49,35.76l-.18,1.08.23,4.38.35,2.12.36-.02c.28-.73.38-1.72.32-2.99-.33-3.07-.68-4.6-1.08-4.57M92.53,58.21l-.33.49v.24s.73.08.73.08l.7-.16v-.23s-.39-.46-.39-.46l-.71.04ZM93.16,16.97l.06,1.06.49.33c.95-.05,2.13-.83,3.56-2.33l-2.96.16c-.55.03-.93.29-1.15.78M93.64,23.72l-.1.36c.19.62.36.93.52.92h.12s.68-.64.68-.64l-.02-.35c-.09-.23-.49-.33-1.2-.29M94.86,52.98l-.44.62.38.34.83-.04.45-.5v-.12s-.38-.34-.38-.34l-.83.04ZM95.2,50.47l-.22.37.02.36.48.09.09-.48-.14-.35h-.24ZM97.9,14.46l.13.23.71-.04c1.02-.13,1.52-.51,1.48-1.15l-.36-.1c-1.17.3-1.83.65-1.96,1.06M101.14,12.86v.24s.13,0,.13,0c.47-.03,1.77-1,3.88-2.94l-.02-.47c-2.72,1.02-4.04,2.08-3.98,3.18M108.1,14.27v.24c.27.38.52.57.76.55,3.24-.17,4.96-.46,5.18-.87-.28-.7-1.56-.99-3.85-.86h-.24c-1.18.08-1.8.39-1.85.94M110.26,10.36l-.71.04.02.35c.01.24.41.33,1.2.29l.47-.03.22-.25c-.1-.31-.5-.45-1.21-.41M109.96,9.18c0,.16.69.4,2.06.72.77.99,1.66,1.45,2.69,1.4l2.25-.12-.02-.36c-.04-.79-2.1-1.55-6.18-2.28h-.12c-.46.27-.69.48-.68.64M113.54,18.25l-.34.37c1.84,1.8,3.51,2.66,5.01,2.58l.34-.26-.03-.59c-.59-.68-1.5-1.42-2.73-2.23l-2.25.12ZM119.69,15.55l-.36.02.04.71c.36.93,1.17,1.84,2.4,2.72l.02.36.83-.05v-.24c-.06-.87-1.03-2.04-2.93-3.52M121.99,58.53v.24s3.09-.17,3.09-.17c.79-.04,1.25-.26,1.39-.67-.1-.31-.42-.45-.97-.42l-1.78.09c-.4.02-.97.33-1.73.92M122.42,22.29h-.24s.01.25.01.25c.74,2.1,1.39,3.13,1.95,3.1v-.24c-.07-1.1-.64-2.14-1.72-3.12M125.26,35.32l-.71.04-.21.49.6,4.48.02.36.38.46h.24s.56-.64.56-.64l-.25-4.62-.62-.56ZM124.48,27.41l1.54,2.06.47-.03-.04-.83-.05-.95c-.02-.47-.16-.78-.4-.93l-1.07.06c-.16,0-.31.22-.44.62M125.57,45.52l-.33.37.02.47.25.22.36-.02-.06-1.07h-.24ZM126.21,48.69l-.44.62v.12s.51.45.51.45l.33-.49v-.24s-.39-.46-.39-.46ZM126.63,56.5l.02.35,1.54-.08c2.29-.12,3.42-.42,3.4-.89l-.49-.21h-.24c-2.84.17-4.25.44-4.23.83M129.85,52.17v.24s.39.34.39.34l.36-.02.44-.62-.03-.59-.26-.46-.47.03c-.3.25-.44.62-.42,1.09M133.26,56.03l.12.11.48-.03c.39-.02.66-.15.81-.4v-.12c-.04-.63-.17-.94-.41-.93-.32.02-.65.47-1,1.36M137.03,53.33l-.45.38.08,1.42.5.45c.24-.01.32-.65.25-1.91l-.14-.35h-.24Z"/>
  <path class="cls-1" d="M173.6,1.65c3.32-.11,7.4,1.17,12.23,3.86,4.13,2.87,6.21,4.85,6.25,5.96,3.38,6.53,5.1,10.47,5.14,11.81l.15.94c-1.09,2.81-1.62,4.72-1.59,5.75l-.71.14-10.07.34c-.95.03-2.09.19-3.42.47-11.41-.57-19.41-.77-23.99-.62l-2.49.08c-.9,1.45-1.34,2.5-1.32,3.13.58.85.9,2.22.97,4.12.1,3,.63,4.76,1.6,5.28l.14.59v.12s-.72-.33-.72-.33v.36s1.12,1.15,1.12,1.15c.03,1.03.79,2.31,2.27,3.84,2.76,4.5,5.7,7.24,8.82,8.25,2.64.78,5.61,1.12,8.93,1,.55-.02,1.68-.57,3.39-1.66,1.41-.36,4.33-3.03,8.75-8.01v-.35c-.02-.16-.58-.3-1.69-.42l-.26-.58c1.7-3.54,3.8-5.9,6.29-7.09.73.69,2.23,1.75,4.5,3.17,1.83,2.63,4.26,5.71,7.31,9.25l.02.47c-2.42,3.4-4.18,5.12-5.28,5.16l-.47.02c-.06-1.74-1.16-2.69-3.3-2.86-.4.01-2.09,1.38-5.08,4.09-1.77,1.48-4.85,2.93-9.23,4.34-5.1,1.2-8.72,1.83-10.85,1.91l-6.83-2.14c-3.79.13-7.34-1.81-10.64-5.81-1.39-1.38-2.55-3.04-3.49-4.98-.02-.63-1-3.88-2.94-9.75-.63-2.27-.98-4.48-1.05-6.61v-.12c-.36-10.51,2.49-19.82,8.55-27.93.72-2,2.49-3.53,5.3-4.57,1.88-.61,4.15-1.13,6.83-1.53.7-.34,2.99-.42,6.87-.23M149.25,21.93c-.61.65-1.11,2.25-1.5,4.8h.24c.47-.02,1.14-1.43,1.99-4.23-.17-.39-.42-.58-.73-.57M148.39,28.25l-.59.02.02.71c.02.47.14.71.38.7.39-.01.62-.42.67-1.21l-.48-.22ZM147.95,32.77v.35s.02.12.02.12c-.07.24-.09.79-.06,1.66l.02.47c.05,1.42.48,2.67,1.31,3.75h.12c-.13-3.8-.6-5.92-1.4-6.36M150.43,43.01h-.36s0,.25,0,.25l.36.23h.24s0-.25,0-.25l-.25-.23ZM151.33,45l-.11.12v.24c.37,1.25.86,1.87,1.49,1.85v-.12s-.01-.24-.01-.24c-.02-.63-.48-1.25-1.37-1.85M154.1,14.53l-.23.36v.12s.24,0,.24,0l.46-.37v-.12s-.48.02-.48.02ZM154.13,22.48l.02.47.24.23h.24c.54-.26,1-.71,1.38-1.36v-.36s-.61.02-.61.02c-.47.01-.9.35-1.27.99M154.24,29.24v.12s.12,0,.12,0l2.01-.3v-.24s-.38-.46-.38-.46h-.35c-.71.04-1.18.33-1.4.89M155.21,19.36v.35c.04.87,7.26,1.62,21.68,2.24l1.2.32,1.54-.17c3.19.92,5.34,1.36,6.45,1.33,0,.24.25.43.73.57.45-.73.66-1.41.64-2.04l-.07-2.25c-.04-1.03-2.09-3.25-6.16-6.67-1.88-1.76-3.97-2.71-6.27-2.88l-4.05-.58c-6.51,1.57-10.77,3.33-12.76,5.29-.82,1.69-1.79,3.18-2.93,4.49M155.27,17.57c.47-.09.7-.42.68-.97v-.12c-.47.18-.7.54-.68,1.09M156.28,12.2v.24s.24,0,.24,0c1.02-.27,1.52-.56,1.51-.88v-.12s-.6.02-.6.02c-.4.01-.78.26-1.16.75M157.35,58.08h-.36s.02.49.02.49c.17.39.86.8,2.06,1.23l.48.34c-.91-1.31-1.65-2-2.2-2.06M158,28.16l-.59.14.02.71.59-.02-.02-.47v-.24s-.01-.12-.01-.12ZM158.11,6.68v.12s.37.23.37.23h.12c1.57-.45,2.34-.87,2.33-1.27l-.02-.71-.49-.46h-.24c-1.41.53-2.1,1.23-2.07,2.09M160.34,27.02v.24c1.6.34,5.8.6,12.61.76v.12s0,.12,0,.12l-2.48.44c0,.24,1.04.32,3.09.25,3.32-.11,4.97-.33,4.96-.64-.03-.79-6.09-1.22-18.2-1.29M161.23,11.32c.77-.66,2.33-1.38,4.67-2.17v-.24s-.14-.23-.14-.23l-1.18.04c-2.27.71-3.39,1.58-3.35,2.61M161.39,22.95v.35c1.55.98,4.29,1.4,8.24,1.27l1.07-.04,1.54-.17-.02-.47c-3.26-.6-6.87-.92-10.83-.94M162.78,4.51v.12s.24,0,.24,0c1.26-.04,3.62-.56,7.07-1.54.71-.1,1.06-.31,1.05-.63l-.37-.34h-.12c-2.29.08-4.84.8-7.64,2.16l-.23.25ZM165.66,58.28h-.12s0,.12,0,.12c.01.32.85.64,2.52.98l.12-.12v-.24c-1.05-.52-1.89-.77-2.53-.75M167.97,6.94v.12c.01.32,1.65.66,4.9,1.02l.23-.13-.02-.47c-.66-.85-1.74-1.25-3.24-1.2h-.35c-1.03.12-1.53.34-1.52.66M172.7,59.35h-.36s.01.37.01.37h.35s-.01-.37-.01-.37ZM176.82,62.17l-2.5-.15-.47.02c-.71.02-1.1.2-1.17.51v.24s.49.34.49.34l2.13-.07c2.45-.08,5.32-.61,8.61-1.59-.18-.47-.66-.69-1.45-.66l-.59.02c-1.9.06-3.58.51-5.06,1.35M176.32,4.88l-3.55.12v.24c.02.32,1.64.5,4.89.55h.12s-.02-.48-.02-.48c0-.16-.49-.3-1.44-.43M175.22,7.41v.12c4.59,2.46,7.05,3.68,7.36,3.67h.12s1.17-.52,1.17-.52l.72.21.11-.24v-.12c-.33-.23-1.01-.44-2.04-.64l-2.41-.99c-.68-1.32-1.96-1.95-3.86-1.89h-.36c-.55.11-.82.24-.82.39M183.18,25.3h-.36s.01.37.01.37h.35s-.01-.37-.01-.37ZM183.05,28.5c.01.32.73.45,2.15.4l1.06-.15v-.24c-.02-.32-.78-.45-2.28-.4-.63.18-.94.31-.94.39M183.96,55.53h.24c.62-.27.96-.67,1.03-1.23l-.12-.11c-.77.5-1.15.95-1.14,1.34M184.66,12.91c.18.63.54.93,1.1.91h.24s.23-.37.23-.37l-.02-.71-.49-.58c-.71.03-1.06.28-1.04.75M185.08,60.71c.79-.02,1.4-.64,1.84-1.84h-.36c-1.01.6-1.5,1.21-1.48,1.84M187.68,14.35h-.47c.96,2.59,1.64,3.99,2.04,4.22l.47-.02.35-.25c-.72-2.51-1.43-3.75-2.14-3.72l-.24-.23ZM187.51,51.73l.24.11h.12c.87-.03,1.4-.56,1.61-1.6v-.24c-.88.03-1.53.61-1.97,1.73M190,44.76l.25.35.59-.02c.47-.02.75-.18.81-.5l-.49-.46h-.12c-.56.02-.9.23-1.05.63M190.97,55.88l.47-.02c.77-.74,1.14-1.26,1.13-1.58h-.12c-1.02.36-1.51.89-1.49,1.6M191.88,19.55l-.35.25.03.83.37.46c.31-.09.46-.37.45-.84l-.02-.47-.13-.23h-.36ZM193.11,52.61l.36.22c1.17-.43,1.75-.96,1.73-1.6v-.24s-.13,0-.13,0c-1.11.04-1.76.58-1.96,1.61M195.8,51.21l.12.11h.36c.46-.34.69-.79.67-1.34h-.36c-.54.35-.81.75-.79,1.22M199.9,49.89h-.12s0,.24,0,.24c.27.94.64,1.4,1.11,1.39h.12s.23-.25.23-.25v-.12c-.19-.86-.64-1.28-1.35-1.26"/>
  <path class="cls-1" d="M206.81.24l.23-.24c1.82.3,3.72.44,5.7.42l9.72-.09.36.35c-.46,1.43-.69,2.54-.68,3.32l.02,2.02c.34,2.21.98,3.31,1.93,3.3.47-.87,2.04-1.72,4.72-2.53,6.38-2.83,11.58-4.26,15.61-4.3,2.69-.02,5.58,1.13,8.69,3.48,2.3.85,4.53,2.69,6.69,5.51,3.29,5.11,4.97,11.14,5.03,18.09v.95s-.74,8.54-.74,8.54l.89,6.16-1.13,5.58v.24s.01.95.01.95l4.51.19,2.02-.02c1.34-.01,2.14.1,2.38.33-.26,5.78-.83,8.67-1.7,8.67-1.57.96-3.27,1.45-5.09,1.47l-2.49.02c-3.79.04-7.78.59-11.96,1.65-2.77-.37-4.17-1.74-4.19-4.11l-.16-4.27c-.02-2.61.63-4.51,1.96-5.71.68-3.88,1.47-7.41,2.39-10.58l.61-10.56c.24,0,.35-.87.33-2.61-.02-2.13-1.75-5.16-5.18-9.08-2.62-1.08-4.13-1.62-4.52-1.62-4.59.04-8.68,2.02-12.28,5.93-.32,0-2.23,1.96-5.76,5.87-1.1.88-1.63,3.53-1.59,7.96.23,7.98.55,11.97.94,11.97,3.17.52,4.75,1.1,4.76,1.73v.47s-2.6-.09-2.6-.09l-1.9.14v.48c0,.32,1.51.7,4.52,1.14.56.55.84,1.46.86,2.72v.24c.02,1.9-.36,3.92-1.13,6.06l-13.75.25c-1.34.01-2.34-.65-2.98-1.99-.33-1.5-.71-4.42-1.15-8.77,0-.39,1.18-.84,3.55-1.34l.59-.83v-.12c0-.48-.33-1.14-.97-2.01l-.04-3.67-.06-6.76.37-10.91c-.07-7.43-.42-11.14-1.05-11.13h-.59s-5.57.77-5.57.77c-.55,0-1.31-.46-2.27-1.4v-.48c.39-.63.58-1.31.57-2.02l-.28-4.39,1.85-5.35ZM206.64,8.07v.12c0,.24.2.43.6.59.63,0,1.34-.37,2.12-1.09v-.12s-1.9.02-1.9.02c-.55.08-.83.24-.83.48M217.14,2.28l-9.71,1.63v.24c0,.24.6.39,1.79.46,5.14-.05,7.7-.43,7.7-1.14l.47-.72v-.24s-.24,0-.24,0v-.24ZM207.63,11.74v.24s1.19-.01,1.19-.01l.47-.48v-.12s-.6-.23-.6-.23c-.71.24-1.06.45-1.06.6M209.83,6.85l.36.35h.24c1.03-.09,1.54-.33,1.53-.73l-.59-.11c-1.03,0-1.54.17-1.54.49M210.92,9.21v.24s2.25-.14,2.25-.14h.36c.79-.01,1.27.18,1.43.58v.36c-.39.4-.58.79-.58,1.19.4.31.87.47,1.43.46.24,0,.35-.16.35-.48l.08-3.92-.12-.35h-.36c-.47.32-2.05.97-4.73,1.94l-.12.12ZM212.61,50.35l-.23.48v.12c.17,1.42.69,2.13,1.56,2.12h.71s.35-.37.35-.37v-.24c-.72-.86-1.08-1.57-1.09-2.12h-1.3ZM215.24,14.27l.24.35h.24s.34-1.55.34-1.55h-.36c-.24,0-.39.4-.46,1.19M217.64,55.87c0,.4,1.03.58,3.09.56,3.95-.04,5.93-.25,5.92-.65,0-.47-1.35-.7-4.04-.67-3.01.03-4.66.28-4.97.76M219.47,9.73h-.59s-.23.72-.23.72l.02,2.13c0,.95-.14,1.58-.46,1.9v.59s.5,1.66.5,1.66v.95c.02.64.21,1.07.61,1.3.08,0,.31-.91.69-2.73,1.1-.88,1.65-1.56,1.64-2.03,0-.39-.45-1.26-1.33-2.59-.25-1.26-.53-1.89-.85-1.89M220.48,17.19l.24.71c0,.63-.34,1.27-1.05,1.91.4.39.6.79.6,1.18.04,3.95.33,5.93.89,5.92h.12c.62-1.43.92-3.29.9-5.58-.11-2.92-.48-4.46-1.11-4.62h-.24c-.24,0-.35.16-.35.48M223.63,10.75v.47c1.11-.01,2.29-.73,3.54-2.17v-.12s-.12-.12-.12-.12h-.12c-.95,0-2.05.65-3.3,1.93M223.81,17.4v.35c2.06-.26,4.89-1.98,8.49-5.18v-.12s-.71,0-.71,0c-.32,0-1.26.57-2.83,1.69-3.31,1.06-4.96,2.14-4.95,3.25M224.9,20.35l-.24.24.24.35h.47s0-.36,0-.36l-.24-.24h-.24ZM228.21,19.13l-.7.96v.24s.12.24.12.24h.59s.34-1.43.34-1.43h-.36ZM229.63,18.29v.24s.36,0,.36,0c1.25-1.04,1.88-1.92,1.87-2.63h-.24s0-.24,0-.24c-.63,0-1.29.88-1.99,2.63M230.59,7.73l.12.12v.12c.71-.24,1.06-.44,1.06-.6v-.24s-.24,0-.24,0c-.63.17-.95.37-.94.6M232.72,6.52v.12s.24.35.24.35c3.71-.99,5.56-1.71,5.55-2.19h-.24c-1.74.02-3.59.59-5.56,1.72M233.41,16.83c1.73-.33,2.6-.78,2.6-1.33l-.36-.23h-.36c-1.19.01-1.82.53-1.88,1.56M238.92,10.14v.24s.59,0,.59,0c1.18-.17,1.78-.41,1.77-.73v-.24s-.83,0-.83,0c-1.03.09-1.54.33-1.53.73M240.76,4.31v.12c.55,0,1.51.46,2.86,1.4l1.31.34,3.79-.15.12-.24v-.12c-.09-.47-.52-.71-1.31-.7h-.47s-1.18.25-1.18.25c-1.75-1.01-3.02-1.51-3.81-1.51-.71,0-1.14.21-1.3.61M240.96,12.61l.24.24h.12c1.74-.02,2.61-.18,2.6-.5l-.95-.23c-1.34.17-2.01.33-2.01.49M245.13,14.82v.36s2.97-.03,2.97-.03l.47-.36v-.47s-.6-.35-.6-.35h-.59c-1.5.26-2.25.54-2.24.86M247.57,9.58c0,.32.72.55,2.14.69.31-.24.47-.56.47-.95,0-.4-.64-.71-1.91-.93-.47.32-.71.72-.7,1.19M249.48,61.27l-.47.48v.24c0,.55,1.08.82,3.21.8h.59s.95-.25.95-.25v-.12c-.8-.78-2.07-1.17-3.81-1.15h-.48ZM250.08,11.69l-.72-.35-.23.24v.12s.6.35.6.35h.12s.23-.36.23-.36ZM249.78,55.93h-.36s0,.72,0,.72l.36.35h.36s.11-.36.11-.36v-.12s-.48-.59-.48-.59ZM252.07,8.83l-.35.48c.16.39.48.59.95.58h.59s.59-.49.59-.49v-.12c-.08-.31-.48-.47-1.19-.46h-.59ZM252.1,12.5h-.12v.36c0,.24.53,1.34,1.58,3.3,0,.63.17.95.48.95l.47-.48v-.47c-.02-1.26-.82-2.48-2.41-3.65M252.42,58.99c.24.63.64.94,1.19.94,4.27-.12,6.4-.42,6.4-.89-.56-.71-1.55-1.05-2.98-1.04-3.08.11-4.62.44-4.62.99M253.47,44.51c.48.55.72,1.3.73,2.25h.24s.34-1.43.34-1.43l-.02-2.02c-.87,0-1.3.41-1.29,1.2M253.94,18.42v.36c.99,3.55,1.6,5.4,1.83,5.56l.23-.83v-1.07c-.59-2.68-1.27-4.02-2.06-4.01M254.16,42.61l.12.12h.12c.24,0,.35-.4.35-1.19v-1.42c-.33,0-.52.83-.58,2.5M258.75,51.58h-.47s0,.48,0,.48l.48.47.35-.24v-.24s-.36-.47-.36-.47ZM258.38,49.45v.24s.12,0,.12,0l.46-1.31v-.24s-.24,0-.24,0c-.24,0-.35.44-.34,1.31M258.68,43.39h-.24s0,.59,0,.59h.24s0-.59,0-.59ZM258.59,34.03v.12s.37,1.42.37,1.42h.59c-.09-1.03-.41-1.54-.96-1.54M259.28,18.6h-.12c.2,4.19.61,6.28,1.24,6.27h.24c-.43-4.19-.89-6.28-1.36-6.27M261.41,43.96l-.21,2.37.03,2.96h.12c1.01-1.27,1.52-2.47,1.51-3.57v-.12c-.01-1.11-.49-1.66-1.44-1.65M265.18,54.24v.36c3.56-.03,5.34-.33,5.33-.88v-.24s-1.66.01-1.66.01c-2.45.1-3.67.35-3.67.75M266.27,56.72v.36c.16.4.52.59,1.08.58,1.26-.01,2.01-.29,2.24-.85v-.36c-.17-.47-.6-.71-1.31-.7h-.59c-.79.01-1.26.33-1.41.97"/>
  <path class="cls-1" d="M286.75.76l7.95,3.05c.03,1.19.45,2.47,1.27,3.85l.18,1.31c-.91,5.03-1.54,15.53-1.86,31.49-.09,2.29.8,3.83,2.66,4.62l.75,1.93c-.02.47,2.57,1.01,7.77,1.62l.47.02c1.66.07,3.78-1.63,6.38-5.08,1.97-1.82,3.29-3.27,3.97-4.35l.59.02.03-.71-.21-.6c.5-.69.9-1.75,1.2-3.16h.12s.04-1.06.04-1.06l3.04-22.43.09-2.13-.19-1.2v-.12c.9-.6,1.37-1.57,1.43-2.91.03-.87.33-1.33.89-1.39l2.67,1.53,2.61.1c3.16.13,5.38.89,6.67,2.29l-.02.48c-.87-.04-1.31.11-1.32.42l1.07,2.77h.36c.2-1.17.39-1.75.55-1.74.3.41.47,1.09.51,2.04l-1.9,14.64.23.25v.12c-.63,1.64-1.37,6.39-2.24,14.27l-.14,3.44c-.21,5.14-.07,7.71.4,7.73l.47.02c1.42.06,3.72-.16,6.91-.67.31.09,1,.6,2.08,1.51-.6,7.1-1.22,10.63-1.85,10.6l-1.26-1.12-3.56.09-13.14-.77c-.71-.03-1.36-1.67-1.94-4.94-.46-.41-.68-.9-.65-1.45l.28-1.06h-.36c-.63-.04-3.01.93-7.12,2.9-.26.54-3.07,1.58-8.43,3.1-1.21.58-2.82,1.15-4.82,1.71-1.16-.76-3.02-1.55-5.6-2.36-4.78-5.1-7.65-9.53-8.6-13.28-1.94-3.01-2.71-9.29-2.33-18.85l1.86-13.81v-.35c.02-.16-2.65-.78-7.98-1.87-.45-.73-.6-2.71-.47-5.95.09-2.13.48-3.18,1.2-3.16.03-.87,3.14-1.34,9.31-1.41M278.22,9.2l-.49.46.23.25.95.04.36-.23-.46-.49-.59-.02ZM279.41,6.16l-1.54-.06v.36s.22.13.22.13h.36s.95-.07.95-.07v-.36ZM279.36,7.35l-.95-.04v.24c.05.48.47.73,1.27.76l.13-.23v-.24s-.45-.49-.45-.49ZM280.86,8.48l-.6.21-.02.35.11.12v.12c.71-.13,1.08-.31,1.09-.55v-.24s-.58-.02-.58-.02ZM282.39,8.89c-.02.47,1.22,1.2,3.71,2.17l1.18.05c.32.01.48-.26.51-.81-.84-.9-1.88-1.5-3.13-1.79l-.95-.04c-.79-.03-1.23.11-1.32.42M284.68,2.1l-.48.22v.24s.82.03.82.03v-.24s-.34-.25-.34-.25ZM285.47,35.48l-.37.34-.02.47c-.12,3.08,1.34,7.97,4.39,14.65.61.42,1.04.64,1.28.65l.03-.59-3.05-9.74c-.88-3.67-1.59-5.6-2.14-5.78h-.12ZM285.8,15.32l-.04.95,1.8-.52.1-2.49-.22-.36c-.4-.02-.94.79-1.64,2.43M287.4,28.68l-.35-.13-.49.45v.24s.45.25.45.25l.37-.34.02-.48ZM287.6,3.17l-.6.21v.12c0,.08.57.46,1.73,1.14-.04,1.03.02,1.54.17,1.55l.71.03c1.9.08,3.05-.19,3.48-.81v-.24c.03-.55-1.14-1.04-3.49-1.45,0-.16-.46-.33-1.4-.53l-.59-.02ZM289.61,32.8l-.03.83c-.04,1.03.44,1.84,1.45,2.43h.35c.12-2.91-.06-4.38-.53-4.4l-.47-.02c-.48.22-.74.6-.76,1.15M291.23,10.2l-.09,2.25.35.25c.48-.22.74-.68.77-1.39l.05-1.3c.02-.47-.09-.79-.32-.96h-.24c-.32.06-.49.45-.52,1.16M291.55,40.71v.12c.21.48.52.73.91.75v-.12c.02-.47-.28-.72-.91-.75M293.81,49.35l-.35-.02-.02.48c.07.32.34.49.81.51l.02-.47-.46-.49ZM299.89,57.43l-.95-.04-4.72-.66h-.24s-.49.44-.49.44v.12c-.03.71,2.15,1.59,6.54,2.64,1.34.06,4.03-.83,8.06-2.64l.12-.11v-.35s-.82-.03-.82-.03c-2.39.54-4.9.75-7.5.65M294.74,46.89h-.12s-.02.35-.02.35l.22.37h.12s.02-.35.02-.35l-.22-.36ZM296.74,50.3h-.35s0,.1,0,.1c-.04.87,1.29,2.19,3.99,3.96,3.21-1.14,4.82-1.86,4.83-2.18v-.12c-2.05-.08-4.88-.67-8.47-1.77M302.25,54.91v.24s1.41.06,1.41.06c3.11-.59,5.21-1.57,6.29-2.95l.02-.47-.59-.02c-.47-.02-2.85,1.03-7.13,3.15M312.59,45.71l.11.24h.12c2-2.45,3-3.87,3.02-4.26v-.24s-.35-.01-.35-.01c-.67.76-1.63,2.19-2.9,4.27M319.1,43.25l-.45-.61c-.5.61-.76,1.08-.77,1.39l.58.38h.12s.49-.33.49-.33l.03-.83ZM319.3,50.02v.12s.23,0,.23,0l.86-.68.02-.47c-.71-.03-1.08.31-1.11,1.02M322.86,49.93l-.37.34-.06,1.42c-.22,5.53-.06,8.3.49,8.33h.36c.56-.04.84-.27.86-.67-.59-1.13-.83-4.03-.72-8.69l-.56-.73ZM323.2,35.7l-.37.34-.04,1.07.34.49c.48-.22.85-.56,1.11-1.02l.02-.47-.34-.37-.71-.03ZM323.08,44.59h-.24s-.03.82-.03.82h.24s.37-.33.37-.33l.02-.35-.35-.13ZM323.55,6.28h-.24c-.03.78.58,1.2,1.85,1.25l.71.03.36-.22v-.12c.02-.39-.88-.71-2.69-.94M323.49,34.41l.57.62c.4-.14.67-.92.81-2.34l-.11-.24h-.24c-.65.44-.99,1.1-1.03,1.97M324.47,10.12l-.37.34v.24c-.02.32.25.48.8.51h.12c.55.03.88-.12.97-.43v-.24c-.06-.24-.45-.38-1.16-.4h-.36ZM325.54,42.32h-.24s-.03.7-.03.7c-.05,1.26.08,2.89.4,4.88h.35c.36-1.16.57-2.3.61-3.4l.03-.83c.03-.87-.34-1.32-1.13-1.35M325.86,40.43l-.49.46v.12s.45.37.45.37l.37-.34-.09-.6h-.24ZM325.6,23.22l-.02.48h.12c.79.04,1.22-.86,1.3-2.67-.05-.79-.15-1.19-.31-1.2-.24,0-.6,1.12-1.09,3.4M327.55,57.36l-.36.22v.36c.13.4.59.62,1.38.65l1.19.05.36-.22v-.24c.03-.39-.48-.65-1.5-.77l-1.07-.04ZM330.4,48.45l-1.26,1.73v.36s1.17.05,1.17.05l.49-.34.02-.59c.03-.71-.11-1.11-.43-1.2M330.19,27.08h-.35s-.26.45-.26.45c.14.4.29.6.45.61h.12s.04-1.06.04-1.06ZM337.3,53.83l-3.69.33-.02.47.71.15.47.02c1.74,0,2.62-.25,2.64-.72v-.24s-.11,0-.11,0ZM337.22,55.85l-.47-.02-.03.71.48.02.36-.22v-.24c.02-.16-.1-.24-.34-.25"/>
</svg>