<?xml version="1.0" encoding="UTF-8"?>
<svg id="Capa_1" data-name="Capa 1" xmlns="http://www.w3.org/2000/svg" viewBox="0 0 216.28 382.47">
  <defs>
    <style>
      .cls-1 {
        fill: #a4d5cc;
      }
    </style>
  </defs>
  <path class="cls-1" d="M40.84,119.35l.17-1.38c-.14.04-.23.39-.17,1.38"/>
  <path class="cls-1" d="M158.14,199.36c0,.17-.02.37-.02.53.04-.36.03-.48.02-.53"/>
  <path class="cls-1" d="M45.73,65.68s0,.05,0,.07c.04.11.08.24.12.34l-.12-.41Z"/>
  <path class="cls-1" d="M52.27,134.74c-1.56-18.14-.62-23.1-3.23-41.8-.84-8.96-2.2-18.48-3.31-27.19-.4-1.01-.67-2.23-.89-3.57-.05-.34-.1-.68-.15-1.02-.03-.25-.06-.51-.1-.77-.02-.22,0-.82.04-1.6l.04-.92c0-.34.01-.68,0-1.03-.02-.68-.07-1.36-.19-2.02-.21-1.34-.81-2.55-1.61-3.59l-.31-.39-.16-.19-.08-.11-.09-.12c-.19.07-.13.08-.21.12l-.27.2c-.36.26-.73.52-1.11.76-.36.24-.83.51-.96.61-.21.14-.43.27-.66.38-.22.12-.5.23-.59.29-.24.15-.68.22-.76.27-.08.02-.19.02-.25,0-.02,0-.04,0-.07,0-.06-.02.01,0,.04.03.04.03.03.04.08.1.17.17.23.32.31.56.16.31.26.64.32.97l.03.25.09.35c.06.23.1.47.14.71.08.47.12.94.13,1.4l.08.83h0s0,0,0,0h.01s.03,0,.03,0h.06s.11-.04.11-.04c.31-.07.6-.14.89-.22l1.86.51c1.59-.42,3.49-.74,5.15-.42l-.1.19c2.42-.56,5.2-.24,6.43-.47l-.11.19c1-.01,2-.03,3-.02l-.53.25c4.33-.4,8.84-.18,12.82.3l-.28-.8c8.52,1.4,11.78.04,19.65,1.36l-.11.19c2.54-.44,4.78-.58,6.83-.54,2.07.04,4.04.24,6.02.44,3.96.39,8.05.78,13.26-.48-1.29.31.58.38.49.56,4.85-.47,10.12-1.39,9.94-2.95,3.52-.6,3-.07,3.52.45-.16-.65,2.47-1.49,4.98-1.78l-1.11.4c2.35-.38,4.77-.64,7.22-.83l-1.51-1.2c3.96.18,1.05,1.48,4.81,1.06l-.07-1.05c5.52.1,8.74,1.8,14.28,2.49,1.49,0,2.81-.03,3.88.02,1.08.05,1.89.21,2.37.39.46.18.76.38,1.09.76.32.39.67,1.05.93,1.95.54,1.81.67,4.33.58,6.96-.11,2.86-.21,5.72-.32,8.58-.48,11.4-1.28,22.6-3.25,32.85l-.88.83c-1.19.28,1.11,5.88-.04,6.56l.27,2.46c-.28.65-.66,2.05-.79.83-.29,2.22-.11,2.29.06,3.93l-.98,2.3c-1.57,8.7-1.09,16.32-2.59,25.49-2.89,10.87-4.64,31.81-5.9,43.89l-.07.89c-.02.18,0,.21,0,.28v.2c0,.27,0,.54-.02.83-.03.57-.09,1.16-.18,1.74-.87.02-1.81,0-2.7-.06-.9-.04-1.8-.08-2.71-.12-.98-.05-1.97-.1-2.96-.16-3.96-.27-7.97-.55-11.97-.82-8-.54-15.97-.89-23.49-.02-.57-.16-2.04.21-2.03.34l-16-.12s-5.27-.02-12.01.13c-3.37.07-7.11.18-10.75.35-1.81.09-3.63.19-5.3.31-.77.11-1.49.21-2.2-.02-.99-.37-1.46-1.24-1.96-1.89-.06-.09-.12-.17-.18-.26-.07-.12-.13-.24-.19-.35-.13-.23-.25-.43-.38-.61-.24-.35-.48-.6-.71-.68-.46-.17-.9.3-1.26,1.59-.17.65-.32,1.48-.26,2.68.09,1.15.36,2.78,1.68,4.08.71.7,1.69,1.26,2.89,1.65.6.19,1.26.34,1.97.47l.54.09.44.08c.28.05.57.11.87.17,2.37.44,5.09.91,8.19,1.41l-.39.25c8.76.59,14.27.71,20.31-.57.96,1.55,7.19.14,9.25.64l-.19.13c5.34-1.21,11,.97,16.15-.12-.2.12-.31.55-1.49.58,3.75-.21,8.88-.56,9.16.34,4.48-.13,9.85-.1,14.81-.21,2.48-.06,4.86-.16,6.98-.33,1.06-.09,2.05-.19,2.96-.32,1.4-.13,2.76-.29,3.81-.47l-.55.25c2.76-.56,4.34-.54,6.37-.5.27-1.45.59-3.12.8-5.64.16-.24.28-.61.32-.52,0-.74.04-1.51.11-2.33.06-.64.12-1.32.19-2.03.14-1.19.34-2.45.56-3.69.43-2.48.93-4.87.95-6.33l.62-.09.96-7.06-.54,2.61c-1.49-1.16,1.85-5.16,1.55-10.43.9-4.75-1.99-10.17-.53-15.02-.44-2.47.96,2.25.86-1.36.87,0,.31,1.72,1.12.91.08-3.53,1.63-5.59,1.62-9.96l.69-.09c-.51-5.76,2.2-10.47,1.47-14.35.13-5.85,2.43-3.66,1.8-9.84l1.16-2.25c.42-2.57-.91-1.97-.17-4.79.55.23.83-3.58,1.2-1.84,1.56-6.41.05-13.3,2.31-21.72-.95-1.96.09-6.21-.65-7.66.5-.19.76-8.63,1.43-3.71.05.42-.02,1.16-.21,1.09l.61.63c1.64-4.81,0-8.89.54-13.8-.32,1.5-.4,3.35-.76,2.06.14-1.45.3-3.09.34-4.79l.53,1.07c.17-2.52.25-5.22-.38-8.3-.11.48-.26.93-.41,1.37-.23-2.14-.41-3.84-1.1-5.62-.17-.45-.37-.89-.66-1.34-.27-.46-.58-.91-1-1.37-.77-.92-1.93-1.81-3.42-2.5-1.41-.52-.31.35.31,1.06.32.35.55.64.42.63-.14,0-.61-.34-1.83-1.02-1.49-1.01-3.33-1.7-5.1-2.08-1.77-.39-3.49-.53-5.02-.63-2.86-.19-5.78-.41-8.59-.52.52.78-.97.74-2.54.91l-.18-.67c-6.04,1-2.2-1.5-8.33-.56l.53-.49-1.57,1.48c-2.75.83-3.53.57-4.4.36-.86-.19-1.84-.37-4.87,1.03,2.48-.49,1.39,1.24-1.67,1.51l.65-.78c-1.73.47-2.02.8-3.04.86.79-.52.3-.98-1.82-.54l1.29-1.03c-1.26.62-2.55,1.21-3.88,1.77-3.24-.29-8.37.83-9.77-.06,0,0-1.77-.05-3.76-.02-1.99.04-4.2.16-5.03.66,1.46-.61-2.53-.88-1.38-1.6-.94.34-2.8.64-4.72.75-1.94.11-3.89.04-4.95-.37l.41-.08c-8.02-.96-13.95.39-21.37-.99.29.8-3.64.14-2.72,1.19-7.77.52-14.27-2.61-17.14.53-3.58.22-4.28-.64-6.17-.7l.86-.21c-1.7.13-3.1.27-4.32.41-.67.07-1.29.14-1.88.21l-.44.07c-.14.03-.27.04-.53.12-.22.06-.44.13-.66.21-.13.05-.16.05-.37.15-.18.09-.36.19-.53.29-.17.11-.34.22-.5.34l-.24.19c-.12.1-.23.22-.35.33-.45.48-.82,1.01-1.06,1.63-.25.6-.39,1.42-.37,1.92,0,.47.07.94.18,1.39.15.52.42,1.12.55,1.34.19.34.32.53.45.72l.16.19c.11.13.23.27.28.44.04.18.05.36.05.56-.02.29-.03.59-.05.91.05.63.17,1.22.35,1.83.09.31.2.62.32.96.12.26.23.43.35.67.45.9.85,2.06.91,4.25-.72-1.34-.42.42-.25,2.04-.2-1.03-.44-1.33-.59.84.21.28.36.74.5,1.16-.04.02-.07.11-.13.07.49,2.69.62,2.2.56.93.09.05.19-.06.31-.47-.43,2.89.89,7.84-.05,8.28,1.1,8.12,2.73,13.84,3.83,20.58-.42.82-1.03-.72-1.44-2.67l.7,4.79c-.72.04-.71-2.72-1.01-4.18-.55,5.85,2.43,11.68,2.08,18.51l.72,1.33-.05.41c.3-.05.87,1.41,1.07,2.4-.52,1.02-1.45.09-1.06,3.41-.32,2.69,1.1,7.44,1.81,10.84-.09-1.87.32-1.31.62-.53.2,1.66-.32,2.68.08,3.94l-.83.25c.73-.74,1.33,4.25,1.74,4.83-.53,1.01-.82-2.52-1.33-2.88.79,6.66.4,3.33,1.19,9.98,1.02,3.49.73-.73,1.65.89.5,3.12,1.42,6.13,1.37,9.81l.6-1.24c1.31,5.83,1.8,9.37,1.74,13.42,1.58,5.17,2.24,9.56,3.08,12.77.79,3.24,1.59,5.39,2.31,6.71,1.45,2.71,2.29,2.42,2.72.73.21-.87.38-1.84.5-3.03.14-1.18.24-2.48.33-3.72.19-2.48.24-4.73.24-4.73.11-2.23.15-4.42.02-6.6-.1-2.14-.49-4.54-.74-6.07-.56-3.42-1.16-6.67-1.79-10.04-1.24-6.72-2.67-14.12-4.08-24.37"/>
  <path class="cls-1" d="M40.51,35.3l.57-.09c-.1-.1-.28-.11-.57.09"/>
  <path class="cls-1" d="M150.85,31.39s.09,0,.13,0c-.08-.01-.12,0-.13,0"/>
  <path class="cls-1" d="M61.41,31.7h-.02c-.01.06-.04.1-.05.15l.07-.15Z"/>
  <path class="cls-1" d="M43.01,46.33c4.74-4,6.9-4,11.36-8.56,2.42-1.84,4.73-4.12,7.01-6.05.45-1.77,3.12-2.34,3.95-4.08l.9.16c.28-.6.71-1.18,1.39-1.21l.08.18c.44-.89,1.41-1.19,1.63-1.63l.07.18.82-.66v.32c.97-1.26,2.27-2.12,3.54-2.66l-.51-.6c2.96-.78,3.02-2.76,5.85-3.18l.06.18c.93-1.74,2.26-2.09,3.61-2.4.67-.16,1.35-.32,1.99-.65.32-.16.64-.36.94-.62.21-.16.18-.22.19-.32.01-.11.03-.24.04-.37-.02.29.18.36.23.55.1-.15.23-.3.35-.54.19-.18.44-.53.56-1.46.55.2.33.61.24,1.21.04-.16.1-.3.17-.4.08-.1.13-.19.37-.2.4-.04.89.04,1.33.16l-.48.12,2.57.62-.08-1.37c1.21.8-.16,1.59,1.21,1.72l.32-1c1.77.82,2.32,2.71,3.81,4.06,7.12,3,15.9,3.55,21.84,8.12l-.02.86c-.33,1.12,2.5-.79,2.33.3l.98-.15c.13.28.5.69.01.76.69.36.78.19,1.44.1l.47,1c2.57,1.75,5.5,1.58,8.3,3.21,2.88,2.96,9.96,4.99,14.05,6.26,3.02.6,5.51,2.77,7.98,4.93,1.22,1.08,2.49,2.17,3.76,3.05,1.26.87,2.49,1.53,3.84,1.87.04.23.62.18.69.08,1.24.98,2.29,1.99,3.03,3.02,0,0,.18.24.47.62.25.39.6.92.91,1.54l4.94-6.75c-6.7-.06-17.85.87-2.96,8.9l-.15.24c.94.25,1.77.44,2.53.56l7.14,1.09-2.43-7.53c-.74-2.29-2.04-3.82-3.86-4.64.47-.67-.04-1.3-.7-1.83-.66-.53-1.45-.93-1.61-1.4l.14-.04c-1.23-.25-1.94-1.11-2.68-1.94-.73-.82-1.48-1.64-2.58-1.68.13-.07.39-.41.78-.2-1.33-.6-3.11-1.21-2.75-2.04-2.88-1.37-6.58-3.88-9.06-3.57l.24-.16c-1.48.31-1.39-.58-2.77-.74,0-.14-.06-.23-.02-.27-1.56.26-3.33-1.58-4.43-1.67l.21-.57-2.3-1.02.78.54c-1.03,1.33-1.22-1.79-3.34-1.63-1.44-.95-4.6,1.56-5.83.08-1.09.34,1.21-.82-.18-.82.33-.8.76-.24.77-1-1.29-.16-1.45-1.68-3.08-1.79l.23-.63c-2.32.28-3.04-2.39-4.75-1.86-2.1-.33-.45-2.38-2.94-2.05l-.4-1.17c-.79-.5-1.05.76-1.81-.04.28-.5-1-.93-.24-1.19-1.77-1.75-4.8-.65-7.04-3.21-1.03.79-2.2-.39-2.97.2.1-.48-2.82-1.21-.83-1.55.17-.03.4.09.32.26l.43-.54c-1.15-1.82-3.19-.51-4.72-1.31.4.39,1.05.58.46.84l-1.46-.66.51-.4-2.11-1.14.07.76c-.96-.73-.95-1.97-2.51-1.51-.74.3.71,1.25-.51,1.03-1.29-.99-3.25-2.41-5.06-3.28-.08.79-.57.58-1.14.56l.16-.65c-2.3.21-.25-1.65-2.48-1.62l.32-.38-.97,1.15c-2.21.66-.52-1.66-3.09-.58.41.07.39.46.15.75-.12.15-.29.27-.48.32-.1.02-.2.03-.31.01-.15-.03-.33-.1-.5-.19l.57-.49c-.92-.16-1.25.02-1.8-.3.57-.18.45-.85-.93-1.18.32-.18.66-.35,1.02-.52-.96.1-1.84.24-2.64.4-.13-.09-.26-.17-.4-.25-.92.21-2.02.84-2.98,1.35-.48.25-.93.48-1.33.62-.19.07-.4.12-.55.13-.11-.01-.22-.05-.32-.12,0,0-.64.2-1.28.56-.64.37-1.29.88-1.31,1.46.17-.8-1.23-.31-1.21-1.15-.27.94-1.75,2.43-2.82,2.19l.09-.15c-3.01.83-3.88,3.51-6.66,4.12.52.59-.9,1-.07,1.65-1.79,2.3-5.36,1.07-4.46,4.19-.94.84-1.64.23-2.26.48l.15-.31c-1.78,1.57-2.33,1.98-3.78,2.95-.52.76.22,2-1.24,2.65.06-.76-.38-.29-.85.06.24-.29.21-.53-.63-.38.02.21-.05.39-.12.56-.03-.03-.08-.04-.1-.1-.65.76-.4.79,0,.58.04.08.13.15.34.19-1.24.04-2.19,1.77-2.89,1.07-2.16,2-3.15,4.09-4.73,5.97-.53-.21-.39-.92.02-1.52l-1.19,1.26c-.46-.56.49-.96.8-1.42-2.34.45-2.46,3.64-4.96,4.46v.76s-.16.03-.16.03c.21.22.08.88-.11,1.2-.68-.23-.97-1.09-1.81-.24-1.1.21-1.77,2.05-2.4,3.17.55-.39.64.01.59.37-.41.43-1.09.22-1.23.74l-.64-.57c.73.41-.5,1.71-.41,2.11-.69-.21.28-1.03.05-1.47-1.65,1.74-.83.87-2.44,2.64-.43,1.36.74.39.85,1.35-.66.92-.99,2.1-2.23,2.7l.83.22c-.67,1.3-1.29,2.11-2.09,2.66l-.67.46.76.91c.34.41.64.85.98,1.33,2.37.47,4.07-.12,5.13-.74,1.07-.65,1.54-1.41,1.73-2.02.13-.6.29-1.17.16-1.59-.1-.42-.38-.73-.75-.95-.52-.65-1.4-1.75-1.4-1.75-.31-.53-.34-.78-.41-.8l.75,10.83c2.29-2.55,3.38-5.61,6.71-9.43"/>
  <path class="cls-1" d="M67.66,180.63l.28.31c0-.15-.08-.27-.28-.31"/>
  <path class="cls-1" d="M138.57,181.87s.05-.03.07-.06c-.05.02-.06.04-.07.06"/>
  <path class="cls-1" d="M79.04,190.61h-.02s-.05.05-.07.09l.08-.09Z"/>
  <path class="cls-1" d="M64.29,190.37c3.94.39,5.07,1.81,9.05,1.01,1.91,0,3.89-.47,5.68-.77.77-1.2,2.36-.19,3.29-1.21l.43.62c.32-.35.71-.6,1.08-.27v.19c.47-.52,1.06-.27,1.3-.53v.19s.6-.12.6-.12l-.09.27c.85-.57,1.76-.65,2.57-.46l-.1-.78c1.73.81,2.31-.86,3.85.17l-.02.19c1.88-2.1,3.1,1.39,5.12-.56-.26.24.11.4.08.59.94-.22,1.95-.32,1.99-1.86.69.03.55.49.63,1.09,0-.68.61-.95,1.15-.98l-.25.26,1.54-.2-.28-1.28c.81.38.17,1.56.96,1.27l.02-1.06c1.13.23,1.75,1.85,2.81,2.67,4.49.59,9.52-1.83,13.62.32l.13.8c0,1.16,1.28-1.63,1.37-.54l.53-.49c.12.22.4.46.13.7.45.08.47-.11.83-.43l.43.75c1.73.7,3.37-.55,5.22-.09,2.12,1.67,6.43.78,9.04.3,1.89-.66,3.77.25,5.88,1,2.07.75,4.55,1.3,6.66-.09.18.13.49-.3.45-.43,1.36-.22,2.78-.58,4.18-1.15,0,0,.31-.14.83-.39.51-.28,1.22-.68,1.95-1.26.75-.57,1.48-1.32,2.11-2.13.63-.84.94-1.56,1.08-2.11.13-.56.09-1-.05-1.46-.16-.45-.35-.97-.82-1.44-.45-.47-1.19-.91-2.4-.97-1.18-.12-2.84.37-4.34.05l-.13-.22c-1.25.27-1.7.37-2.01,1.9-.7-1.39-1.01.22-1.5-.19v-.13c-.22.69-.73.54-1.19.36-.46-.17-.92-.42-1.28.17.02-.12,0-.55.18-.6-.57.26-1.43.66-1.52-.25-1.49.31-3.73-.24-4.97,1.09l.1-.24c-.72.92-.83.07-1.59.49-.03-.12-.07-.19-.06-.24-.8.89-2.09-.09-2.74.25l.03-.6-1.48-.03.53.19c-.37,1.62-.99-1.15-2.17-.2-.98-.32-2.36,3.21-3.3,2.3-.56.72.55-1.21-.24-.69.06-.86.39-.5.27-1.21-.76.33-1.1-.99-2.04-.49l.02-.67c-1.27,1.11-2.12-1.08-2.99.03-1.24.45-.64-2.06-2-.84l-.42-.94c-.53-.19-.47,1.08-1.03.6.08-.57-.72-.51-.33-1.03-1.29-.99-2.82,1.07-4.5-.54-.45,1.09-1.31.37-1.64,1.19-.02-.49-1.79-.17-.73-1.17.09-.08.24-.06.22.13l.16-.65c-.95-1.3-1.88.58-2.88.35.29.23.69.19.4.63l-.93-.13.22-.55-1.38-.39.16.69c-.66-.38-.86-1.56-1.66-.61-.37.53.61.95-.12,1.14-.89-.51-2.23-1.25-3.39-1.5.09.78-.22.74-.55.89l-.02-.67c-1.26.91-.42-1.49-1.66-.78l.12-.47-.35,1.4c-1.13,1.3-.57-1.41-1.83.39.49-.11.2,1.49-.39,1.18l.16-.65c-.33.13-.45.4-.66.26.2-.35.12-.94-.37-.84l.34-.8-.93,1.18c-.7-.7-1.83.16-2.12-.76,0,0-1.52-.45-1.88.55.31-.62-.53-.86-.29-1.59-.39.7-1.57,1.29-2.08.54l.09-.08c-1.83-.75-3.03,1.12-4.65.26.11.78-.74.4-.49,1.38-1.56,1.06-3.07-1.85-3.45,1.26-.71.21-.91-.67-1.29-.8l.16-.17c-1.33.35-1.73.41-2.73.41-.48.33-.45,1.77-1.37,1.49.25-.59-.11-.46-.44-.43.21-.1.26-.32-.21-.67-.05.18-.14.3-.22.39,0-.04-.03-.08-.02-.14-.54.24-.43.41-.17.47,0,.09.02.2.11.35-.62-.69-1.6.16-1.73-.81-1.64.33-2.76,1.42-4.11,1.86-.18-.5.12-.96.5-1.17l-.96.23c-.03-.72.54-.44.82-.6-1.2-1.11-2.32,1.28-3.7.25l-.26.58-.08-.09c.01.3-.28.72-.48.83-.2-.63-.02-1.45-.67-1.41-.52-.61-1.47.33-2.16.65.36.11.25.46.08.68-.33.01-.51-.62-.77-.35l-.02-.85c.12.8-.88.85-1.01,1.2-.17-.63.53-.53.62-1.01-1.31.05-.66.03-1.96.05-.73.6.09.81-.29,1.54-.63.13-1.29.7-1.97.12l.17.77c-1.23.47-1.97.34-2.66-.54-2.38,1.27-3.9,2.24-4.73,3.19-.83.94-.95,1.78-.77,2.5.43,1.43,2.34,2.35,2.34,2.35,3.78,2.24,6.14.21,10.63-.28"/>
  <path class="cls-1" d="M158.87,224.12l-.2.51c.14-.04.23-.18.2-.51"/>
  <path class="cls-1" d="M183.85,335.82s.05.07.09.09c-.04-.07-.07-.09-.09-.09"/>
  <path class="cls-1" d="M152.54,243.62v-.02s-.07-.07-.11-.1l.11.12Z"/>
  <path class="cls-1" d="M148.14,221.01c1.01,5.97-.04,7.86,1.95,13.82.56,2.94,1.61,5.96,2.44,8.77,1.42,1.09.88,3.73,2.18,5.11l-.49.77c.45.48.81,1.07.6,1.71h-.19c.66.72.59,1.71.93,2.07h-.19s.31.99.31.99l-.3-.11c.83,1.32,1.21,2.79,1.27,4.15l.74-.28c-.22,2.98,1.59,3.64,1.15,6.39h-.19c2.74,2.73-.23,5.34,2.41,8.19-.33-.36-.35.26-.55.27.56,1.46,1.03,3.05,2.54,2.74.23,1.11-.27,1-.82,1.28.66-.16,1.14.74,1.38,1.59l-.34-.34.77,2.41,1.13-.76c-.07,1.39-1.44.67-.86,1.86l1.03-.25c.2,1.85-1.13,3.26-1.5,5.18,1.17,7.36,5.51,14.61,5.17,21.78l-.71.47c-1.1.38,2.08,1.5,1.09,1.99l.69.67c-.15.27-.27.78-.61.44.11.74.3.71.76,1.17l-.54.93c.07,2.99,1.96,5.14,2.33,8.23-.66,3.94,2.11,10.5,3.72,14.29,2.86,5.19-.3,12.59,2.81,17.86-.12.22.34.62.47.59l.44,2.55c.12.76.2,1.51.26,2.24,0,0,.03.33.08.87.04.54.1,1.28.12,2.06.04.79,0,1.58-.05,2.25-.04.57-.08,1.13-.12,1.64-.04.43-.07.94-.15,1.45-.03.52-.07,1.13.32,1.67.35.5,1.15,1.14,2.79,1.01.4-.05.83-.16,1.34-.33.45-.2,1.01-.46,1.52-.83,1.08-.74,2.1-1.88,3.03-3.34l.21.22c.7-1.85.96-3.36.89-4.66-.07-1.3-.43-2.42-1.21-3.46,1.53-.56-.25-2.72.09-3.46l.14.04c-1.53-1.5.23-3.78-1.17-5.24.13.04.56-.01.66.37-.44-1.18-1.13-2.78-.26-3.06-.84-2.87-1.28-7.02-3.09-8.6l.27.08c-1.18-.86-.43-1.35-1.16-2.44.1-.09.14-.18.2-.18-1.19-.96-.86-3.35-1.46-4.2l.58-.19-.63-2.28.06.89c-1.68.04.64-1.96-.76-3.41-.13-1.61-4.04-2.46-3.59-4.25-.92-.61,1.38.42.55-.61.84-.22.64.43,1.25-.01-.64-1.05.46-2.05-.41-3.33l.64-.2c-1.59-1.57.12-3.64-1.29-4.61-.95-1.77,1.68-1.69-.03-3.38l.72-.96c-.04-.87-1.22-.37-.99-1.39.57-.06.19-1.28.84-.84.42-2.3-2.17-4.02-1.3-7.12-1.22-.37-.88-1.91-1.79-2.18.46-.18-.54-2.82.84-1.48.11.12.15.36-.04.38l.69.05c.87-1.85-1.3-2.73-1.46-4.34-.11.51.08,1.12-.45.8l-.23-1.48.61.19-.16-2.24-.61.45c.11-1.14,1.17-1.77-.05-2.75-.65-.43-.68,1.21-1.14.13.15-1.52.36-3.8.16-5.66-.72.34-.8-.16-1.06-.62l.64-.2c-1.34-1.72,1.29-1.03.14-2.78l.49.07-1.48-.2c-1.68-1.43,1.15-1.23-1.05-2.75.28.73-1.37.68-1.29-.31l.69.09c-.25-.49-.55-.6-.5-.97.41.23.96-.04.68-.78l.91.33-1.49-1.17c.43-1.26-.81-2.82-.02-3.47,0,0-.1-2.48-1.2-2.8.71.34.65-1.02,1.45-.81-.83-.46-1.8-2.15-1.23-3.05l.11.12c.14-2.86-2.06-4.37-1.71-6.99-.74.28-.61-1.09-1.51-.55-1.53-2.28.94-5.01-2.27-5.22-.42-1.1.4-1.51.42-2.13l.22.24c-.74-2.07-.91-2.68-1.2-4.28-.48-.72-1.9-.52-1.89-2.01.66.33.42-.23.3-.76.17.32.39.38.61-.4-.19-.06-.34-.19-.46-.31.04-.02.07-.05.13-.05-.4-.84-.54-.64-.52-.22-.09,0-.19.06-.32.22.51-1.08-.64-2.54.29-2.87-.84-2.6-2.26-4.27-3.15-6.39.43-.36.99.05,1.33.65l-.54-1.53c.71-.15.62.8.87,1.25.71-2.13-2.03-3.58-1.5-6.01l-.66-.32.06-.15c-.29.08-.81-.32-.98-.62.54-.45,1.42-.31,1.13-1.38.39-.99-.87-2.36-1.46-3.4.04.63-.35.51-.62.3-.15-.54.39-.99.03-1.35l.82-.25c-.73.4-1.18-1.21-1.56-1.33.54-.45.73.71,1.22.74-.59-2.15-.29-1.07-.89-3.23-.9-1.01-.73.4-1.59.01-.4-.98-1.22-1.84-1-3.13l-.65.54c-1.02-1.78-1.22-2.95-.78-4.42-9.39-12.85-8.89-1.06-8.89-1.06-.28,6,2.54,8.39,4.7,14.94"/>
  <path class="cls-1" d="M52.7,244.48l-.42.81c.15,0,.3-.2.42-.81"/>
  <path class="cls-1" d="M119.86,374.18c.07-.03.14-.04.2-.07-.14.03-.19.05-.2.07"/>
  <path class="cls-1" d="M38.06,276.08s0-.03,0-.04c-.02-.07-.03-.16-.05-.23l.05.27Z"/>
  <path class="cls-1" d="M44.67,232.56c-.35,1.46-.67,2.82-.95,4.11-.26,1.25-.5,2.39-.73,3.47-.46,2.03-.86,3.82-1.26,5.62-.79,3.6-1.47,7.26-1.92,13.17-.82,5.59-1.24,11.62-1.75,17.12.81,2.74-.89,7.2-.33,10.39l-.79,1.11c.19,1.1.26,2.37-.23,3.4l-.18-.09c.29,1.65-.23,3.4-.08,4.21l-.18-.09-.16,1.94-.22-.37c.17,2.83-.16,5.68-.71,8.16l.8-.11c-1.54,5.25-.18,7.42-1.82,12.13l-.18-.09c.64,3.19-.01,5.56-.68,7.96-.33,1.2-.67,2.41-.86,3.71-.18,1.27-.21,2.64.04,4.25-.13-.8-.45.27-.63.18-.21,2.86-.61,5.95.9,6.25-.37,2.1-.76,1.63-1.39,1.81.67.1.64,1.97.41,3.64l-.13-.8-.54,4.8,1.4-.74c-.75,2.47-1.64.4-1.69,2.89l1.05.12c-.7,3.48-2.55,5.36-3.64,8.84-.22,2.07-.35,4.18-.34,6.33l.02,1.62c0,.13,0,.32.03.56l.05.64.11,1.29c.1.84.08,1.74.29,2.53.21.78.53,1.54,1.01,2.22,1.24,1.71,3.24,2.77,5.21,3.66.5.21,1,.44,1.51.61.42.15.78.26,1.17.37.77.23,1.53.4,2.29.55,3.01.59,5.91.7,8.52.77,5.11.16,10.09.5,14.79,1.4l.54.82c.2,1.17,3.71-1.55,4.16-.46l1.55-.46c.42.22,1.32.49.54.71,1.41.1,1.46-.08,2.49-.39l1.49.78c5.57.77,10.37-.47,16.24-.05,7.04,1.66,20.39.43,28.04-.46,10.72-1.81,23.4,2.46,34.38-.1.37.14,1.28-.28,1.26-.41,3.37-.14,6.74-.26,10.1-.45,0,0,3.06-.16,7.06-.59,1-.12,2.06-.24,3.14-.36.54-.07,1.09-.14,1.64-.21.55-.08,1.06-.14,1.81-.27,2.74-.5,5.3-1.45,7.5-3.09,1.08-.81,2.09-1.89,2.73-3.13.66-1.22.87-2.59.72-3.55-.11-.99-.51-1.55-.8-1.84-.31-.26-.61-.17-.9.03-.32.27-.52.79-.98,1.42-.42.62-1.07,1.28-2.02,1.65-.95.38-2.12.6-3.62.61-.73.01-1.55-.04-2.41-.15-.89-.1-1.62-.32-2.89-.52l.22-.27c-5.49-.16-8.92-.04-12.6,1.47-.69-1.5-4.49.13-5.8-.31l.11-.13c-3.26,1.4-6.9-.62-10.06.59.12-.13.17-.56.9-.62-2.33.32-5.51.79-5.72-.12-5.58.45-13.37.24-16.94,1.72l.24-.25c-2.03,1.01-2.64.18-4.92.72-.13-.12-.29-.17-.26-.23-2.22.98-6.5.19-8.3.61l-.12-.6-4.44.12,1.66.13c-.58,1.64-3.35-1.03-6.57,0-3-.25-6.16,3.37-9.29,2.49-1.51.74,1.34-1.23-.9-.68-.05-.86,1.05-.52.49-1.22-2.2.36-3.57-.94-6.29-.44l-.09-.67c-3.56,1.13-6.62-1.07-9,0-3.65.42-2.36-2.07-6.19-.92l-1.43-.97c-1.61-.22-1.21,1.06-2.98.54.13-.57-2.24-.56-1.17-1.05-4.01-1.09-8.3.88-13.55-.95-1.2,1.04-3.93.23-4.72,1.01-.05-.25-1.28-.37-2.1-.57-.81-.21-1.25-.43.1-.77.23-.06.63,0,.58.19l.39-.62c-1.25-.75-2.33-.76-3.43-.7-.55.03-1.09.07-1.62.04-.26-.02-.53-.05-.77-.11-.12-.01-.18-.03-.25-.08.02.07.05.12.08.17.03.04.06.09.19.17.18.14.22.27-.13.37-.2-.09-.2-.09-.28-.13l-.18-.11c-.12-.07-.23-.14-.33-.23.18-.12.34-.24.49-.37-.13-.16-.24-.3-.29-.48-.02-.08,0-.18.03-.26-.22.13-.44.28-.65.44.12-.36.52-.63.73-.77.11-.08.17-.13.15-.18-.02-.28-.12-.79-.36-1.31-.53-.98-.94,1.8-1.14-.22.5-2.57,1.47-6.37,2.08-9.68-.8.22-.69-.67-.71-1.62l.68-.02c-.45-3.69,1.64-1.1,1.42-4.75l.41.39-1.24-1.16c-.81-3.45,1.65-1.51.45-5.43-.13,1.46-1.58.44-.99-1.29l.57.56c.03-1-.18-1.38.06-2.01.25.64.88.47,1.01-1l.64,1.11-.72-2.95c1.04-2.02.69-5.58,1.72-6.35,0,0,.27-1.17.43-2.47.15-1.27.19-2.69-.25-3.28.5.99,1.06-1.49,1.69-.69-.55-1.27-.68-4.83.24-6.14l.05.28c1.41-5.08.07-8.97,1.58-13.5-.8.11-.07-2.28-1.14-1.8-.37-4.92,3.11-8.5.27-10.62.11-2.2,1.04-2.5,1.34-3.61l.1.54c.26-4.12.38-5.31.84-8.34-.11-1.55-1.5-1.97-.81-4.65.45.95.49-.17.62-1.19,0,.66.19.89.74-.4-.15-.21-.22-.51-.28-.8.05,0,.09-.05.14-.02.01-1.72-.2-1.45-.38-.67-.08-.05-.2,0-.39.23.95-1.67.57-4.92,1.57-5.01.42-5.13-.13-8.91.03-13.2.56-.42.88.63.92,1.89l.2-3.04c.71.12.19,1.78.22,2.73,1.61-3.44-.23-7.54,1.36-11.61l-.46-.94.13-.24c-.3-.03-.59-1.02-.61-1.66.7-.51,1.44.22,1.66-1.86.41-.79.47-1.98.44-3.11-.02-1.17-.1-2.45-.06-3.51-.32,1.08-.59.66-.72.14.18-1,.92-1.45.82-2.28l.85.09c-.88.23-.25-2.82-.5-3.29.75-.44.17,1.71.57,2.06.85-4.17.43-2.08,1.28-6.25-.16-2.4-.87.25-1.38-.99.25-2.01-.02-4.1.79-6.28l-.85.62c-.07-3.79.25-5.99,1.25-8.43-.89-7.1-2.13-10.94-3.14-12.8-1.03-1.86-1.89-1.75-2.58-.76-.69.96-1.22,2.76-1.6,4.3-.38,1.55-.61,2.85-.61,2.85-1.17,5.19-1.47,9.13-1.63,13.38-.04,1.03-.08,2.07-.12,3.15-.05,1.05-.14,2.17-.26,3.37-.24,2.4-.67,5.16-1.23,8.53"/>
  <path class="cls-1" d="M39.2,129.24s.06.03.1.04c-.05-.04-.07-.04-.1-.04"/>
  <path class="cls-1" d="M18.07,54.65c-3.97,2.06-5.79,1.5-9.29,4.62-.47.29-.93.62-1.39.96-.56.44-1.12.88-1.69,1.32-.86.66-1.67,1.33-2.36,2.04-.36.35-.72.69-1.07,1.03l-.52.5c-.14.18-.28.36-.4.54.01.94-.58,1.83-.95,3-.38,1.15-.46,2.41.16,3.36-.19.23-.37.47-.55.72.47.67.94,1.39.85,2.12h-.21c.9.91,1.21,2.07,1.68,2.49l-.2.03.67,1.17-.35-.09c.08.09.18.21.24.27l.16.14c.1.1.2.2.29.3.18.21.34.42.48.65.27.45.46.93.56,1.42l.67-.42c.13,2.23,1.92,2.18,1.82,4.3l-.18.06c2.9,1.18.39,3.95,3.22,5.23-.35-.16-.3.3-.48.36.7.9,1.33,1.91,2.72,1.24.34.74-.14.8-.62,1.17.6-.3,1.17.2,1.49.75l-.36-.15,1.01,1.52.98-.89c.1,1.02-1.28.91-.6,1.6l.94-.48c.41,1.28-.68,2.69-.8,4.19,1.98,4.99,6.95,8.95,7.51,14.23l-.61.55c-.99.6,2.15.47,1.27,1.11l.73.28c-.11.24-.16.64-.52.5.2.5.37.43.86.62l-.39.83c.44,2.14,2.49,3.13,3.22,5.25-.12,3.05,3.32,6.95,5.32,9.19,3.36,2.88,1.34,9.17,4.97,12.03-.09.19.4.34.52.28l1.55,3.49s7.85,16.77,10.17-.09l.27-.03c-.38-2.14-.85-3.38-2.63-4.1,1.29-.9-.62-1.61-.39-2.27h.13c-1.64-.62-.28-2.81-1.78-3.43.13-.01.53-.18.67.06-.57-.71-1.43-1.65-.65-2.12-1.17-1.81-2.12-4.67-4.02-5.25l.27-.03c-1.22-.26-.58-.84-1.41-1.4.08-.09.11-.18.16-.19-1.24-.33-1.24-2.16-1.91-2.59l.52-.31-.88-1.45.17.62c-1.58.54.36-1.61-1.15-2.23-.33-1.12-4.11-.56-3.92-1.99-.95-.17,1.35-.11.44-.61.76-.41.66.11,1.18-.39-.74-.56.18-1.62-.8-2.28l.58-.34c-1.7-.66-.34-2.66-1.78-2.94-1.11-.99,1.37-1.72-.45-2.43l.56-.91c-.14-.62-1.19.1-1.11-.71.53-.22.02-.98.69-.86.11-1.79-2.54-2.25-2.09-4.75-1.19.1-1.06-1.12-1.96-1.04.41-.26-.85-1.88.61-1.32.12.05.18.22.01.29l.65-.17c.6-1.6-1.56-1.59-1.9-2.71-.04.4.21.78-.33.71l-.4-1,.6-.05-.42-1.57-.52.5c-.03-.86.9-1.62-.37-1.98-.66-.11-.5,1.07-1.06.43-.04-1.14-.11-2.86-.52-4.14-.64.46-.77.12-1.08-.14l.58-.34c-1.46-.85,1.09-1.12-.2-2.05l.47-.1-1.42.29c-1.76-.54.95-1.23-1.31-1.68.35.45-1.21.9-1.25.15l.66-.13c-.29-.28-.59-.27-.58-.56.41.05.9-.31.55-.76l.89-.03-1.54-.41c.26-1.04-1.09-1.8-.42-2.51,0,0-.38-1.76-1.45-1.67.71.04.5-.93,1.27-1.01-.83-.09-1.94-1.03-1.51-1.85l.12.05c-.19-2.11-2.45-2.57-2.41-4.57-.66.42-.7-.61-1.49.04-.43-.3-.62-.7-.72-1.11-.05-.21-.07-.42-.09-.62-.02-.21-.04-.42.01-.45.13-.3.09-.34-1.53-.13-.36-.35.55-.53.65-.66l.21.05c-.5-.46-.64-.72-.43-1.1-.26-.27-1.81-.95-.98-1.18.44.4.5.2.65.09-.02.13.18.24.71.33-.14-.12-.2-.21-.24-.29.04.03.08.04.13.08.05-.29-.12-.38-.31-.34-.07-.06-.18-.12-.36-.18.9.26.78-.63,1.48.07.06-.08.11-.17.16-.27.14-.17.27-.34.4-.51.27-.35.51-.71.73-1.07.45-.72.87-1.42,1.42-2.04.43.31.38.9.1,1.32l.83-.79c.4.6-.3.71-.51,1.03,1.76.21,1.65-2.53,3.56-2.51l-.04-.66.13.03c-.17-.25-.1-.79.05-1,.53.41.78,1.23,1.41.77.85.18,1.31-1.2,1.82-1.92-.43.14-.49-.23-.45-.52.32-.23.85.19.96-.2l.48.7c-.56-.6.42-1.27.36-1.64.52.42-.24.78-.07,1.23,1.3-.88.65-.44,1.95-1.32.39-.98-.55-.61-.59-1.46.55-.53.88-1.41,1.88-1.4l-.62-.51c.92-1.22,1.7-1.57,2.9-1.37,3.07-5.25,2.67-7.35,1.34-8.17-1.31-.81-3.47-.27-3.47-.27-4.57.63-5.42,3.67-9.41,6.83"/>
  <path class="cls-1" d="M184.84,47.32l.28.38c.02-.14-.03-.28-.28-.38"/>
  <path class="cls-1" d="M210.08,124.29s.04.05.07.07c-.03-.05-.05-.07-.07-.07"/>
  <path class="cls-1" d="M188.51,59.84h0s-.06,0-.09,0h.09Z"/>
  <path class="cls-1" d="M179.52,56.3c1.81.4,2.85,1.1,3.89,1.68.52.3,1.03.57,1.64.82.58.23,1.39.47,2.14.6.37.18.7.34.79.36.05-.02.11-.04.19-.06.05,0,.1,0,.15,0,.06.03.07-.04.19.12.6-.06.77.33.94.88.17.54.35,1.28.97,1.65l-.49.61c.43.27.77.64.55,1.11l-.19.03c.64.41.55,1.12.88,1.32l-.19.03.29.65-.29-.04c.78.82,1.08,1.83,1.1,2.77l.74-.28c-.31,2.12,1.44,2.41.85,4.4l-.19.02c2.56,1.71-.53,3.76,1.86,5.61-.3-.23-.37.21-.56.22.44,1,.8,2.09,2.31,1.81.13.78-.35.73-.92.94.66-.14,1.06.48,1.22,1.08l-.31-.23.55,1.69,1.19-.57c-.18.99-1.48.52-1.01,1.34l1.03-.2c.04,1.31-1.43,2.35-1.99,3.7.41,5.14,3.81,10.37,2.47,15.42l-.77.3c-1.14.21,1.85,1.15.8,1.45l.59.51c-.19.18-.38.53-.66.28,0,.52.19.52.58.86l-.66.63c-.37,2.1,1.19,3.72,1.07,5.92-1.24,2.72.45,7.52,1.4,10.32,1.99,3.9-2.38,8.81-.2,12.81-.16.14.23.47.36.46l.02,3.77s.01.29.04.76c.03.46.08,1.15.17,1.84.18,1.4.38,2.71.71,3.57.17.45.38.84.68,1.25.3.38.68.81,1.29,1.04.6.23,1.49.33,2.66-.25,1.16-.56,2.54-1.93,3.75-4l.25.11c.62-2.5.62-3.65-.7-5.05,1.54-.3.08-1.71.56-2.21l.13.04c-1.26-1.2.86-2.65-.27-3.81.13.04.55.05.59.32-.24-.88-.65-2.07.25-2.18-.35-2.11-.09-5.1-1.62-6.37l.26.08c-1.02-.72-.21-1-.75-1.83.12-.05.17-.12.22-.11-1.02-.78-.3-2.45-.76-3.11l.6-.08-.26-1.67-.08.64c-1.67-.11.95-1.34-.21-2.49.13-1.16-3.6-2.06-2.89-3.3-.82-.5,1.29.4.63-.4.86-.1.57.35,1.24.08-.47-.8.77-1.43.11-2.41l.67-.1c-1.33-1.23.65-2.6-.6-3.39-.68-1.33,1.9-1.12.46-2.43l.85-.65c.08-.63-1.16-.33-.79-1.06.57-.02.36-.91.94-.57.72-1.65-1.58-3-.35-5.22-1.16-.31-.63-1.42-1.5-1.64.47-.12-.18-2.06,1.01-1.05.1.09.1.27-.09.28l.67.05c1.1-1.33-.96-2.03-.94-3.21-.17.37-.04.82-.54.58l-.07-1.08.58.14.09-1.64-.65.32c.23-.83,1.36-1.29.25-2.02-.6-.31-.79.88-1.14.09.29-1.11.73-2.79.71-4.16-.74.26-.77-.11-.99-.45l.66-.16c-1.17-1.25,1.36-.78.37-2.05l.48.04-1.45-.12c-1.55-1.01,1.24-.94-.81-2,.22.53-1.4.54-1.25-.19l.67.05c-.21-.35-.5-.42-.41-.7.38.15.95-.07.73-.6l.87.21-1.39-.81c.51-.95-.62-2.04.2-2.57,0,0,.06-1.84-1-2.01.69.21.69-.8,1.47-.69-.8-.29-1.68-1.48-1.08-2.19l.11.08c.27-2.16-1.84-3.1-1.44-5.09-.73.29-.58-.75-1.47-.26-1.42-1.52,1.01-3.86-2.15-3.62-.41-.76.39-1.17.41-1.64l.22.15c-.73-1.47-.85-1.83-1.2-3.08-.52-.55-1.86-.12-2.06-1.42.69.15.39-.29.14-.77.22.24.49.3.47-.58-.21-.01-.39-.11-.55-.2.04-.03.05-.07.11-.09-.7-.74-.76-.47-.57-.06-.09.03-.16.12-.22.32.07-.75-.58-1.43-.97-1.92-.26-.33-.41-.62-.19-.94-1.2-.94-2.59-1.34-3.58-1.44-1.05-.12-1.95-.08-2.82-.16-.02-.54.5-.84,1.06-.85l-1.25-.22c.23-.68.82-.17,1.23-.18-1.09-1.61-3.28.17-4.69-1.27l-.48.48-.08-.12c-.06.3-.53.62-.79.66-.11-.66.31-1.44-.55-1.55-.57-.73-1.99-.03-2.9.21.46.16.26.5.04.68-.42-.02-.6-.67-.95-.44l.04-.85c.09.81-1.2.76-1.37,1.1-.2-.65.7-.5.85-.96-1.74-.03-.87-.04-2.6-.03-.93.61.14.81-.31,1.54-.79.16-1.54.74-2.45.27l.31.74c-1.42.63-2.24.61-3.3-.04-2.52,1.83-3.57,3.45-3.97,4.63-.4,1.19-.17,2.03.36,2.58.96,1.14,2.71,1.39,2.71,1.39,1.8.55,2.99.33,4.34-.13,1.34-.45,2.84-1.14,4.96-1.2"/>
  <path class="cls-1" d="M192.16,148.86l.2-.42c-.14.05-.23.16-.2.42"/>
  <path class="cls-1" d="M179.28,85.57s-.05-.03-.08-.04c.03.04.06.05.08.04"/>
  <path class="cls-1" d="M200.43,136.73h0s.06.05.09.06l-.09-.06Z"/>
  <path class="cls-1" d="M201.79,146.53c-.15-.46.36-.52.5-1.23.09-.33.14-.81.07-1.46-.07-.63-.23-1.33-.54-2.16-.21-1.67-.9-3.36-1.39-4.93-1.27-.54-.44-2.11-1.56-2.82l.56-.48c-.38-.25-.67-.57-.39-.95l.19-.02c-.57-.37-.39-.95-.68-1.13l.19-.02-.2-.55.28.04c-.67-.71-.87-1.54-.79-2.32l-.76.21c.54-1.75-1.16-2-.43-3.63l.19-.02c-2.39-1.39.81-3.12-1.48-4.58.29.18.38-.18.57-.2-.39-.81-.69-1.7-2.2-1.41-.1-.63.37-.6.94-.8-.66.13-1.04-.35-1.18-.83l.3.17-.5-1.34-1.19.52c.21-.81,1.49-.49,1.04-1.14l-1.03.22c0-1.06,1.45-1.97,2.01-3.11-.38-4.19-3.9-8.07-2.84-12.25l.74-.32c1.12-.3-1.89-.72-.87-1.07l-.61-.34c.18-.16.34-.47.64-.3-.04-.42-.23-.39-.63-.62l.62-.58c.22-1.73-1.42-2.83-1.48-4.59,1.03-2.34-1.06-5.92-2.28-7.99-1.19-1.38-.66-3.16-.86-5.76-.1-1.3-.58-2.95-1.44-4.17-.86-1.25-2.14-2.2-3.59-2.48-.08-.23-.67-.13-.73,0-1.49-.83-2.97-1.29-4.32-1.56,0,0-1.28-.25-2.78-.16-1.51.07-3.22.45-4.37,1.15-1.16.7-1.8,1.67-1.41,2.92.2.63.66,1.33,1.42,2.14.75.81,1.84,1.72,3.04,2.87l-.05.25c1.39.56,1.93.74,2.89-.39-.18,1.54.78.34.8.9l-.06.11c.19-.24.33-.28.42-.23.08.08.12.24.14.39.03.34-.04.63.45.35-.1.08-.4.39-.46.37.29-.03.8.06.06.59.23.12.27.29.57.87.27.51.68,1.16,1.49,1.5h-.26c1.07.34.29.7.91,1.27-.11.06-.16.12-.21.12,1.07.46.53,1.87,1.04,2.32l-.58.15.4,1.27.03-.51c1.66-.16-.82,1.18.42,1.92-.03.92,3.73,1.11,3.12,2.18.85.28-1.31-.14-.6.4-.84.19-.59-.2-1.23.1.53.56-.65,1.22.07,1.9l-.65.16c1.41.79-.48,2.12.81,2.57.76.95-1.81,1.1-.3,1.95l-.81.61c-.05.5,1.16.12.83.73-.57.08-.32.75-.91.55-.64,1.36,1.73,2.16.56,4.02,1.16.12.67,1.04,1.54,1.13-.47.14.24,1.59-.97.92-.1-.06-.11-.2.08-.22l-.67.02c-1.04,1.14,1,1.49.98,2.41.16-.3.03-.64.53-.5l.08.84-.58-.06-.07,1.29.64-.3c-.23.67-1.33,1.11-.24,1.59.6.2.79-.75,1.13-.16-.3.89-.75,2.23-.75,3.29.74-.25.77.03.98.28l-.65.16c1.13.9-1.37.69-.43,1.61h-.48s1.43,0,1.43,0c1.5.71-1.26.8.74,1.52-.2-.4,1.41-.49,1.23.09h-.66c.19.26.48.3.39.52-.38-.11-.94.09-.75.5l-.85-.13,1.33.57c-.56.76.5,1.58-.35,2.01,0,0-.17,1.43.87,1.54-.66-.15-.75.64-1.51.57.76.21,1.53,1.12.88,1.68l-.1-.06c-.45,1.67,1.55,2.39.91,3.93.75-.21.48.59,1.42.21,1.25,1.22-1.47,2.97,1.65,2.87.29.61-.56.9-.65,1.26l-.19-.12c.49,1.15.59,1.49.7,2.4.38.39,1.8.17,1.62,1.04-.61-.15-.44.16-.38.46-.13-.17-.34-.19-.64.28.18.02.31.08.41.15-.04.01-.07.03-.14.04.3.46.45.34.48.09.09,0,.19-.05.33-.15-.62.66.34,1.43-.61,1.68.52,1.45,1.73,2.33,2.35,3.5-.47.24-.96.04-1.22-.29l.36.85c-.71.13-.51-.43-.71-.67-.92,1.33,1.52,1.8.86,3.61l.64.18-.06.12c.29-.08.79.15.96.34-.51.44-1.41.44-1,1.33-.24,1.02,1.31,1.87,2.26,2.28-.27-.45.13-.53.44-.52.3.3.02.91.5.93l-.57.63c.21-.34.61-.3.98-.21.39.07.78.17.95.08-.17.63-.94.08-1.36.35.84.48,1.03.62,1.26.69.23.07.43.23,1.36.49,1.24-.3.2-.78.97-1.33.85.05,1.71-.48,2.47.02-.05-.25-.09-.5-.12-.75,1.42-.66,1.95-.79,2.98-.37,1.06-1.25,1.17-2.64,1.31-3.31.06-.8-.11-1.33-.32-1.71-.37-.74-.74-1.08-1.28-1.04-.38-.14-.65-.25-.82-.36-.17-.11-.23-.19-.23-.19-.35-.48-.07-.51-.18-.14-.06.33-.56.96-1.14.88"/>
  <path class="cls-1" d="M69.3,70.79l-.3.37c.15-.01.26-.11.3-.37"/>
  <path class="cls-1" d="M73.66,161.08s.04.06.07.08c-.03-.06-.05-.08-.07-.08"/>
  <path class="cls-1" d="M59.38,85.16s0-.02,0-.02c-.03-.03-.05-.06-.08-.09l.08.11Z"/>
  <path class="cls-1" d="M59.37,66.92c-.16,4.79-1.56,6.13-.73,11.05,0,2.37.45,4.87.73,7.17,1.19,1.04.16,3.03,1.18,4.28l-.62.53c.35.43.59.95.27,1.41l-.19-.02c.52.64.26,1.41.53,1.73l-.19-.02.12.81-.28-.13c.57,1.14.66,2.33.48,3.4l.78-.12c-.77,2.3.89,3.05-.05,5.14l-.19-.02c2.19,2.48-1.21,4.14.87,6.7-.26-.32-.4.16-.59.14.28,1.21.46,2.51,2,2.46.02.89-.45.75-1.04.89.67-.04.99.73,1.07,1.42l-.28-.31.32,1.98,1.25-.45c-.32,1.07-1.54.34-1.18,1.34l1.05-.06c-.14,1.47-1.69,2.41-2.41,3.86-.17,5.91,2.81,12.11,1.21,17.67l-.78.28c-1.15.16,1.78,1.43.72,1.69l.56.61c-.2.19-.4.58-.68.27-.02.59.17.6.54,1l-.69.67c-.45,2.35,1.03,4.26.87,6.72-1.33,3,.28,8.47,1.22,11.62,1.94,4.4-2.42,9.82-.23,14.31-.16.16.23.53.36.52.02,1.43-.01,2.69.09,4.46,0,0,.03.39.13,1.09.12.7.31,1.74.83,3,.26.63.6,1.31,1.06,1.97.48.72,1.14,1.45,1.82,1.99,1.38,1.1,3.02,1.74,4.64,1.8,1.61.09,3.11-.52,3.76-1.25.34-.35.49-.73.5-1.03,0-.31-.17-.55-.38-.81-.48-.48-1.47-.85-2.17-1.75-.35-.44-.6-1-.71-1.62-.1-.6-.08-1.33.3-1.84l.21-.15c.3-.61.2-1.35-1.16-2.55.77-.17.78-.55.66-1.02-.12-.46-.36-1.02-.12-1.29l.13.04c-1.26-1.34.86-2.93-.28-4.23.13.05.55.06.59.37-.24-.97-.65-2.3.25-2.42-.35-2.34-.08-5.64-1.6-7.08l.25.09c-1.01-.81-.2-1.1-.74-2.04.12-.06.17-.13.22-.12-1.01-.89-.28-2.72-.72-3.46l.6-.08-.23-1.86-.1.7c-1.66-.16.97-1.46-.16-2.76.15-1.27-3.55-2.4-2.81-3.75-.8-.59,1.28.49.64-.42.86-.07.56.41,1.24.14-.45-.9.81-1.55.17-2.65l.67-.08c-1.3-1.42.75-2.83-.46-3.76-.63-1.5,1.94-1.11.56-2.64l.88-.66c.11-.68-1.14-.43-.73-1.21.57.02.41-.97.97-.56.81-1.75-1.43-3.4-.03-5.72-1.14-.44-.53-1.6-1.38-1.92.48-.08-.03-2.27,1.08-1.05.09.11.08.3-.1.29l.67.12c1.18-1.34-.8-2.29-.66-3.57-.2.39-.12.88-.59.57l.03-1.18.57.22.24-1.77-.68.27c.31-.88,1.47-1.23.45-2.15-.57-.41-.89.85-1.15-.04.42-1.17,1.04-2.92,1.18-4.39-.77.17-.76-.22-.93-.62l.67-.08c-1.01-1.51,1.45-.64.64-2.15l.47.11-1.42-.34c-1.4-1.33,1.36-.82-.53-2.28.14.6-1.47.36-1.21-.41l.66.16c-.16-.41-.43-.54-.31-.82.36.23.95.09.81-.52l.83.37-1.25-1.1c.65-.93-.29-2.3.61-2.71,0,0,.36-1.94-.67-2.34.64.36.83-.71,1.57-.45-.73-.46-1.37-1.91-.65-2.53l.09.11c.66-2.21-1.22-3.67-.39-5.67-.78.12-.4-.92-1.38-.62-1.08-1.97,1.85-3.78-1.26-4.37-.21-.91.67-1.12.81-1.61l.17.21c-.33-1.71-.39-2.21-.38-3.49-.33-.62-1.76-.66-1.47-1.82.59.34.46-.12.44-.55.1.27.31.34.67-.24-.18-.07-.29-.19-.39-.3.04,0,.08-.03.14-.02-.23-.71-.4-.57-.47-.24-.09-.01-.2.02-.35.13.7-.78-.15-2.07.82-2.2-.33-2.14-1.41-3.63-1.87-5.4.49-.22.96.17,1.18.68l-.24-1.26c.72-.02.45.71.61,1.09,1.1-1.56-1.31-3.06-.32-4.88l-.59-.34.09-.11c-.3.02-.73-.36-.84-.62.62-.28,1.45-.05,1.37-.93.57-.72-.4-1.96-.78-2.85-.08.5-.44.35-.67.15-.04-.44.58-.72.29-1.05l.85-.08c-.79.21-.92-1.11-1.27-1.25.62-.28.57.65,1.05.74-.16-1.75-.08-.88-.24-2.63-.68-.91-.79.21-1.56-.21-.21-.82-.84-1.6-.37-2.57l-.74.34c-.33-.76-.48-1.38-.47-1.94.02-.56.19-1.13.62-1.36-.33-.52-.48-1.21-.55-1.84-.06-.64-.04-1.25.14-1.85.18-.57.57-1.25,1.47-1.52.88-.26,1.76,0,2.29.17.26.09.5.17.73.25.24.11.31,0,.46,0,.26-.06.47-.14.66-.25.37-.22.62-.53.78-.89-.11-.44-.35-.97-.71-1.51-.28-.33-.62-.68-1.02-.99-.36-.3-.91-.61-1.53-.84-.62-.24-1.25-.38-1.89-.41-.65-.04-1.35,0-1.81.11-.26.05-.52.11-.78.18-.27.08-.51.16-.67.23-.37.15-.74.32-1.09.51-1.14.64-1.83,1.28-2.25,1.7-.42.42-.64.7-.64.7-.93,1.04-1.52,2.03-1.97,3.16-.43,1.1-.71,2.47-.66,3.92.03.95.2,1.83.45,2.74.5,1.82,1.29,3.73,1.71,6.43"/>
  <path class="cls-1" d="M99.65,71.63l-.27.37c.14-.02.26-.12.27-.37"/>
  <path class="cls-1" d="M105.71,155.99s.04.06.07.08c-.03-.05-.05-.07-.07-.08"/>
  <path class="cls-1" d="M90.56,85.63s0-.02,0-.02c-.03-.02-.05-.05-.09-.08l.09.09Z"/>
  <path class="cls-1" d="M89.51,68.79c.16,4.44-1.17,5.77-.05,10.25.11,2.18.7,4.47,1.1,6.57,1.25.89.29,2.79,1.37,3.89l-.6.53c.37.38.63.84.33,1.29h-.19c.55.56.32,1.28.6,1.57h-.19s.16.73.16.73l-.28-.1c.63,1.02.75,2.13.6,3.12l.77-.15c-.69,2.16,1,2.79.13,4.76h-.19c2.27,2.2-1.1,3.87,1.06,6.17-.27-.29-.39.16-.58.15.31,1.11.52,2.31,2.06,2.21.04.83-.43.71-1.01.86.67-.05,1,.64,1.09,1.28l-.28-.28.36,1.83,1.24-.45c-.3,1.01-1.53.36-1.16,1.28l1.05-.09c-.11,1.37-1.65,2.28-2.33,3.64-.09,5.46,2.93,11.18,1.32,16.35l-.78.26c-1.15.15,1.77,1.32.71,1.56l.55.57c-.2.18-.41.54-.68.25-.02.55.17.55.54.93l-.69.62c-.47,2.17,1.01,3.95.8,6.23-1.37,2.77.14,7.85.99,10.79,1.85,4.13-2.71,9.03-.69,13.25-.16.14.21.49.34.49l-.14,3.89s-.1,4.72.97,7.65c1.08,2.92,3.36,4.12,8.18-3.1l.25.1c.62-2.15.76-3.51-.53-4.99,1.55-.24.15-1.77.65-2.27l.13.05c-1.21-1.3.98-2.71-.1-3.97.12.05.55.07.58.36-.21-.92-.57-2.18.33-2.26-.27-2.2.11-5.29-1.37-6.67l.25.09c-1-.78-.17-1.04-.69-1.92.12-.05.18-.12.23-.11-.99-.85-.21-2.55-.64-3.25l.6-.06-.18-1.74-.11.66c-1.66-.18,1.01-1.35-.11-2.58.17-1.19-3.51-2.29-2.75-3.54-.79-.56,1.27.47.65-.38.86-.06.55.39,1.23.14-.44-.84.83-1.44.22-2.48l.67-.07c-1.28-1.34.77-2.64-.43-3.52-.62-1.4,1.95-1.04.57-2.47l.88-.62c.12-.64-1.13-.41-.72-1.13.57.02.42-.91.98-.52.82-1.64-1.44-3.18-.03-5.36-1.14-.4-.53-1.49-1.38-1.79.48-.08-.03-2.12,1.08-1,.09.1.09.28-.1.28l.67.1c1.18-1.27-.81-2.14-.69-3.34-.2.37-.11.83-.58.54l.02-1.11.57.2.22-1.66-.67.27c.3-.83,1.46-1.18.42-2.03-.57-.38-.88.82-1.15-.01.41-1.1,1-2.76,1.11-4.15-.76.18-.76-.19-.94-.56l.67-.09c-1.03-1.39,1.44-.64.6-2.03l.48.09-1.43-.28c-1.42-1.21,1.34-.81-.57-2.12.15.56-1.46.38-1.22-.35l.66.13c-.16-.38-.45-.49-.33-.76.37.21.95.05.79-.51l.84.32-1.28-.99c.63-.89-.35-2.15.54-2.56,0,0,.3-1.83-.73-2.17.65.31.81-.7,1.56-.48-.74-.41-1.42-1.74-.73-2.35l.09.1c.58-2.1-1.35-3.39-.59-5.3-.77.15-.43-.85-1.4-.52-1.14-1.8,1.69-3.63-1.44-4.02-.25-.84.62-1.09.73-1.54l.18.19c-.41-1.58-.48-2.05-.53-3.25-.36-.56-1.79-.51-1.56-1.61.6.29.45-.14.41-.54.12.25.33.3.66-.26-.18-.05-.3-.16-.4-.26.04,0,.08-.03.14-.03-.27-.64-.43-.51-.48-.19-.09,0-.2.03-.34.14.66-.77-.26-1.92.71-2.11-.44-1.98-1.59-3.3-2.16-4.92.48-.24.97.09,1.22.56l-.32-1.16c.72-.07.49.63.68.98,1-1.54-1.5-2.77-.62-4.54l-.61-.28.08-.11c-.3.04-.75-.28-.88-.51.6-.31,1.45-.16,1.31-.97.53-.72-.52-1.8-.96-2.6-.05.47-.41.36-.66.19-.07-.4.52-.72.21-1l.84-.14c-.78.26-.99-.96-1.36-1.07.6-.31.62.57,1.1.61l-.43-2.44c-.75-.79-.78.26-1.57-.06-.26-.75-.94-1.42-.55-2.37l-.71.38c-.77-1.37-.8-2.24-.18-3.31-3.77-4.95-5.93-5.21-7.14-4.25-1.21.96-1.49,3.13-1.49,3.13-1.08,4.4,1.38,6.27,2.58,11.2"/>
  <path class="cls-1" d="M129.38,167.92l.32-.34c-.15,0-.27.09-.32.34"/>
  <path class="cls-1" d="M128.06,80.31s-.04-.06-.07-.08c.03.06.05.07.07.08"/>
  <path class="cls-1" d="M140.18,154.57v.02s.05.06.08.09l-.08-.11Z"/>
  <path class="cls-1" d="M139.01,172.36c.49-4.66,1.98-5.87,1.47-10.73.16-2.31-.15-4.78-.3-7.04-1.12-1.08,0-2.96-.94-4.24l.65-.49c-.32-.44-.54-.95-.19-1.39l.19.03c-.49-.66-.19-1.39-.43-1.72l.19.03-.08-.79.27.14c-.52-1.14-.55-2.31-.31-3.35l-.78.08c.88-2.21-.74-3.01.29-5.01l.19.03c-2.08-2.51,1.4-3.99-.59-6.58.25.32.4-.14.59-.12-.24-1.2-.37-2.47-1.9-2.47.01-.87.48-.71,1.07-.83-.68.01-.96-.74-1.01-1.42l.26.31-.25-1.95-1.27.4c.35-1.04,1.55-.28,1.23-1.27l-1.05.03c.19-1.43,1.77-2.29,2.53-3.69.35-5.77-2.48-11.88-.79-17.28l.79-.26c1.15-.14-1.76-1.42-.7-1.66l-.55-.61c.2-.18.41-.56.68-.26.03-.58-.16-.58-.53-.99l.7-.64c.48-2.29-.99-4.17-.79-6.57,1.35-2.93-.23-8.28-1.17-11.35-.97-2.14-.36-4.53.17-7,.53-2.46.98-5.04-.3-7.29.15-.17-.27-.53-.4-.5-.14-1.44-.29-2.89-.52-4.35,0,0-.21-1.33-.73-3.03-.51-1.7-1.38-3.78-2.49-5.17-1.1-1.41-2.34-2.11-3.42-1.33-1.13.77-1.98,2.98-3.34,6.95l-.26-.02c-.04,2.12.08,3.36,1.59,4.55-1.48.49.13,1.72-.29,2.29l-.13-.03c1.37,1.12-.63,2.74.55,3.87-.13-.04-.56-.02-.61-.3.29.88.74,2.11-.16,2.25.42,2.16.18,5.31,1.69,6.7l-.26-.09c1.02.78.2,1.07.74,1.97-.12.06-.17.12-.22.12,1.01.86.28,2.64.72,3.35l-.6.07.23,1.8.1-.68c1.67.16-.98,1.41.15,2.67-.16,1.23,3.54,2.34,2.78,3.65.8.58-1.28-.49-.65.4-.86.06-.56-.4-1.24-.14.45.88-.82,1.5-.2,2.57l-.67.07c1.28,1.39-.78,2.74.42,3.65.61,1.46-1.96,1.06-.59,2.55l-.89.63c-.13.66,1.13.43.71,1.18-.57-.03-.43.94-.98.53-.84,1.68,1.38,3.32-.08,5.53,1.12.44.49,1.56,1.34,1.89-.48.07-.02,2.2-1.11.99-.09-.1-.08-.29.11-.28l-.66-.13c-1.21,1.27.75,2.23.58,3.47.21-.37.14-.85.6-.54l-.07,1.14-.56-.22-.29,1.71.68-.25c-.34.84-1.5,1.15-.51,2.07.55.41.91-.81,1.14.07-.44,1.12-1.13,2.8-1.31,4.22.77-.15.75.24.91.63l-.67.06c.96,1.49-1.47.57-.71,2.05l-.47-.13,1.41.38c1.35,1.33-1.39.74.45,2.22-.12-.59,1.48-.3,1.19.44l-.65-.18c.14.4.41.53.28.8-.35-.24-.94-.12-.83.48l-.82-.39,1.2,1.11c-.69.87.2,2.24-.71,2.6,0,0-.44,1.87.57,2.29-.62-.37-.86.66-1.59.37.71.48,1.29,1.9.54,2.47l-.08-.11c-.76,2.11,1.06,3.61.12,5.5.78-.08.35.92,1.35.67.99,1.97-2.03,3.56,1.04,4.29.16.89-.73,1.05-.89,1.51l-.16-.21c.24,1.67.27,2.16.19,3.4.3.62,1.73.73,1.37,1.84-.56-.37-.46.09-.47.5-.09-.27-.29-.35-.68.19.18.08.28.2.37.31-.04,0-.08.03-.14.01.19.7.37.58.45.26.09.02.2,0,.36-.1-.74.71.03,2.01-.95,2.08.2,2.09,1.19,3.59,1.53,5.34-.51.19-.95-.23-1.13-.74l.16,1.24c-.72-.03-.4-.71-.54-1.1-1.2,1.44,1.12,3.04,0,4.74l.56.37-.1.1c.3,0,.71.39.8.65-.64.23-1.45-.05-1.43.8-.62.66.26,1.92.58,2.81.12-.47.47-.31.68-.1.01.43-.62.66-.36.99l-.85.02c.81-.15.84,1.13,1.18,1.3-.64.23-.52-.67-1-.79.03,1.71.01.85.05,2.56.62.93.81-.14,1.54.31.14.81.71,1.61.17,2.52l.76-.27c.54,1.53.43,2.43-.37,3.43,2.88,5.74,4.96,6.42,6.32,5.65,1.36-.77,2-2.99,2-2.99,1.83-4.41-.31-6.79-.76-12.12"/>
  <path class="cls-1" d="M66.54,45.64h.33c-.14-.05-.26-.06-.33,0"/>
  <path class="cls-1" d="M76.09,17.01s-.03-.03-.06-.05c.02.03.04.04.06.05"/>
  <path class="cls-1" d="M78.13,45.11h0s.04.04.06.06l-.06-.06Z"/>
  <path class="cls-1" d="M75,50.67c.98-1.39,2.5-1.26,2.59-3.08.41-.72.41-1.67.54-2.48-.93-.76.36-.99-.38-1.75l.67.07c-.25-.26-.39-.51-.01-.53l.17.07c-.38-.39-.01-.53-.2-.72l.17.08.02-.29.24.14c-.34-.56-.24-.96.11-1.22l-.75-.24c1.09-.44-.34-1.26.88-1.57l.17.07c-1.64-1.53,1.8-.86.25-2.38.19.19.4.09.57.16-.07-.47-.03-.94-1.49-1.45.12-.28.54-.08,1.11.08-.64-.22-.82-.56-.78-.8l.21.19v-.72s-1.25-.28-1.25-.28c.46-.23,1.5.41,1.32-.02l-1-.33c.36-.41,1.97-.18,2.86-.4,1.08-1.8-.83-4.7,1.5-5.95l.78.15c1.12.3-1.49-1-.44-.76l-.44-.37c.21,0,.47-.06.68.12.1-.18-.08-.24-.37-.48h.75c.77-.61-.36-1.66.14-2.4,1.7-.57.93-2.79.46-4.05-1.25-1.93,3.66-2.49,2.14-4.53.17,0-.15-.23-.28-.26l.51-1.37s.53-1.69-.27-3c-.8-1.32-2.94-2.2-8.21-.81l-.24-.09c-.77.6-1.02,1.03.08,1.85-1.53-.3-.31.57-.84.62l-.12-.05c1.04.75-1.2.69-.27,1.39-.11-.05-.52-.16-.52-.27.11.37.33.89-.55.68.03.82-.65,1.76.61,2.62l-.23-.1c.87.53.04.4.43.83-.12-.01-.18,0-.23-.02.85.56-.1.92.23,1.27l-.58-.14-.03.64.19-.19c1.57.53-1.12.17-.22.9-.32.35,3.06,1.78,2.16,1.98.68.42-1.16-.53-.67-.06-.83-.23-.48-.29-1.16-.41.31.41-.99.24-.53.77l-.65-.17c1.04.82-1.11.64-.09,1.29.38.65-2.01-.25-.9.64l-.93-.07c-.21.17,1.02.48.53.59-.54-.18-.53.17-1.01-.13-1.02.28.87,1.48-.8,1.74,1.01.49.27.65,1.03,1.02-.47-.13-.3.7-1.18-.03-.07-.06-.04-.12.14-.06l-.61-.25c-1.31.03.42.94.1,1.29.25-.05.24-.23.64.02l-.21.34-.5-.25-.49.45.68.14c-.42.16-1.57-.11-.74.5.47.31.96.03,1.08.39-.56.22-1.42.54-1.76.93.75.2.68.32.79.5l-.64-.2c.72.79-1.46-.29-.92.43l-.43-.19,1.29.58c1.11.87-1.4-.21.16.86-.04-.23,1.43.39,1.08.53l-.59-.27c.09.18.33.31.17.35-.3-.19-.88-.35-.84-.12l-.72-.39,1,.75c-.76.05-.09.78-.99.6,0,0-.63.45.26.92-.54-.33-.88-.08-1.54-.41.61.39.99,1.05.22.98l-.07-.06c-.97.42.57,1.52-.53,1.81.74.24.23.42,1.19.68.7.98-2.33.44.48,1.75.05.34-.81.09-1.01.18l-.13-.13c.03.63,0,.79-.21,1.17.21.31,1.53.85,1.07,1.08-.49-.32-.44-.13-.5,0-.05-.12-.24-.22-.66-.18.15.09.24.17.31.23-.04-.01-.08-.02-.13-.05.1.29.28.32.4.24.08.04.19.07.35.09-.78-.03-.2.66-1.13.34-.05.75.71,1.6.84,2.3-.49-.12-.86-.42-.97-.65v.46c-.66-.27-.28-.38-.37-.55-1.27.04.7,1.4-.52,1.55l.49.33h-.1c.28.11.61.39.67.5-.62-.16-1.35-.55-1.42-.26-.65-.01.04.72.23,1.13.16-.11.46.07.64.22-.04.15-.65-.02-.44.19l-.79-.31c.76.25.65.68.95.87-.62-.16-.41-.42-.84-.63-.15.57-.08.29-.23.86.47.54.76.26,1.4.68.05.32.49.8-.1.9l.73.2c.34.71.13.97-.71,1,2.06,3.01,3.9,4.05,5.23,4.32,1.34.26,2.17-.25,2.17-.25,2.16-.81.46-2.43.63-4.39"/>
  <path class="cls-1" d="M90.72,16.42l-.3.16c.14-.01.26-.06.3-.16"/>
  <path class="cls-1" d="M94.88,48.93s.04.02.07.02c-.03-.02-.05-.02-.07-.02"/>
  <path class="cls-1" d="M80.63,22.45h0s-.05-.02-.08-.03l.08.03Z"/>
  <path class="cls-1" d="M80.89,15.62c-.23,1.8-1.66,2.4-.9,4.19-.04.89.38,1.79.64,2.63,1.18.3.13,1.12,1.13,1.51l-.63.25c.34.13.58.31.25.51h-.19c.51.21.25.52.51.61h-.19s.12.3.12.3l-.27-.02c.56.38.64.82.45,1.23l.78-.11c-.78.93.86,1.06-.08,1.92h-.19c2.16.73-1.23,1.68.83,2.43-.26-.09-.39.1-.59.11.28.42.45.89,1.98.72.02.33-.45.33-1.03.44.67-.08.98.17,1.05.42l-.27-.09.32.71,1.25-.3c-.32.43-1.53.29-1.18.62l1.05-.13c-.14.56-1.68,1.08-2.39,1.7-.17,2.24,2.81,4.19,1.26,6.46l-.77.2c-1.14.21,1.78.31.73.54l.56.16c-.19.1-.39.27-.67.19-.01.22.18.2.55.3l-.68.34c-.42.94,1.06,1.46.92,2.4-1.28,1.3.37,3.13,1.34,4.16,1.97,1.34-2.24,4.03.01,5.37-.15.08.24.16.37.13l.11,1.56s0,.05.07.37c.08.32.18.83.58,1.67.21.42.5.95,1.02,1.53.51.58,1.33,1.22,2.27,1.56l.35.11c.08.03.28.08.51.13.42.09.85.13,1.26.11.42-.02.82-.08,1.16-.19.37-.11.68-.24.94-.39,1.08-.61,1.57-1.33,1.91-2.04.32-.72.49-1.5.39-2.46-.03-.27-.09-.52-.16-.75-.08-.26-.2-.54-.33-.77-.27-.46-.69-.89-1.04-1.08-.79-.45-1.24-.29-1.53-.13-.26.19-.26.51-.37.82,0,.35.05.74-.07,1.17-.06.2-.2.39-.4.46-.16.05-.17.03-.32.02-.27-.05-.4-.23-.22-.03.07.09.12.26.11.28,0,.01,0-.01,0-.01h0s.15-.45.15-.45h0s0,0,0,0h0s0,0,.05-.05v.02c.16-.26.93-.74,2.34-1.13.32-.09.64-.17,1-.27-.04,0-.11,0-.19,0-.16,0-.43-.18-.76-.24,1.51-.37.04-.7.5-.99h.13c-1.27-.29.79-1.21-.35-1.5.12,0,.55-.07.59.04-.26-.32-.68-.74.21-.92-.38-.8-.17-2.04-1.68-2.33h.25c-1.01-.15-.21-.38-.75-.64.11-.04.17-.07.22-.08-1.01-.18-.31-.95-.76-1.16l.59-.11-.25-.64-.09.27c-1.65.18.94-.67-.19-.98.13-.48-3.54-.38-2.82-.99-.8-.11,1.27,0,.63-.24.85-.14.56.07,1.23-.12-.46-.27.78-.68.15-.99l.66-.12c-1.29-.35.72-1.13-.49-1.31-.63-.47,1.92-.66.53-1.04l.87-.35c.11-.26-1.13-.01-.73-.35.57-.07.4-.41.96-.33.8-.74-1.43-1.06-.05-2.08-1.13-.02-.53-.52-1.37-.53.48-.09-.03-.82,1.07-.51.09.03.09.1-.1.12l.66-.04c1.17-.62-.79-.74-.66-1.22-.2.16-.12.33-.58.27l.03-.43h.56s.24-.66.24-.66l-.67.18c.31-.35,1.46-.61.44-.83-.56-.09-.88.41-1.14.11.41-.47,1.04-1.18,1.17-1.73-.76.14-.75,0-.93-.12l.66-.1c-1-.44,1.44-.39.63-.85h.47s-1.41.02-1.41.02c-1.38-.34,1.35-.44-.52-.77.14.21-1.46.28-1.2-.02h.65c-.15-.14-.43-.16-.31-.28.36.05.94-.07.81-.27l.82.05-1.24-.27c.65-.4-.28-.81.62-1.05,0,0,.37-.74-.65-.79.63.07.83-.34,1.57-.31-.72-.1-1.35-.56-.63-.86l.09.03c.67-.86-1.19-1.22-.34-2.02-.77.11-.39-.3-1.37-.11-1.06-.63,1.88-1.53-1.22-1.48-.2-.32.68-.47.82-.65l.17.06c-.31-.6-.36-.77-.33-1.24-.32-.2-1.75-.1-1.45-.55.58.08.46-.08.44-.23.1.09.31.1.67-.14-.18-.01-.29-.05-.38-.08.04,0,.08-.02.14-.02-.22-.24-.4-.18-.46-.05-.09,0-.2.02-.35.07.71-.34-.12-.74.85-.87-.3-.76-1.35-1.22-1.79-1.84.49-.12.95,0,1.16.17l-.23-.44c.72-.06.44.23.6.36,1.11-.65-1.26-1.03-.25-1.76l-.58-.08.09-.05c-.3.03-.72-.08-.83-.17.62-.14,1.45-.11,1.38-.43.59-.3-.36-.69-.73-.99-.09.19-.45.16-.67.1-.03-.16.59-.3.31-.4l.85-.08c-.79.13-.89-.35-1.24-.38.62-.14.56.21,1.04.21-.13-.63-.06-.32-.19-.95-.66-.29-.8.12-1.55.02-.19-.29-.8-.54-.32-.92l-.74.16c-.63-.52-.56-.87.17-1.31-3.21-1.9-5.33-2-6.63-1.61s-1.81,1.29-1.81,1.29c-1.55,1.82.71,2.54,1.45,4.51"/>
  <path class="cls-1" d="M109.29,46.6l.22-.26c-.13.07-.23.15-.22.26"/>
  <path class="cls-1" d="M92.02,16.39s-.05,0-.08.01c.03,0,.06,0,.08-.01"/>
  <path class="cls-1" d="M116.37,37.01h0s.05,0,.09,0h-.09Z"/>
  <path class="cls-1" d="M118.81,43.94c-.47-1.89.61-2.98-.79-4.52-.32-.9-1.07-1.66-1.65-2.41-1.21.12-.57-1.07-1.66-1.1l.48-.48c-.37,0-.67-.09-.44-.41l.17-.08c-.56-.01-.44-.41-.72-.42l.17-.08-.22-.25.26-.08c-.67-.17-.93-.58-.92-1.06l-.68.4c.35-1.21-1.24-.73-.71-1.94l.17-.08c-2.3.08.45-2.1-1.78-2.09.28,0,.33-.24.5-.33-.43-.32-.79-.72-2.13.02-.15-.32.28-.49.78-.82-.59.33-.98.2-1.16-.02l.29-.02-.59-.58-1.03.76c.11-.54,1.3-.86.83-1.06l-.91.52c-.1-.6,1.12-1.69,1.51-2.57-.79-2.28-4.39-3.06-3.93-5.88l.63-.5c.97-.64-1.78.38-.91-.25l-.59.06c.14-.17.25-.41.54-.44-.09-.22-.25-.13-.64-.09l.48-.59c-.02-1.08-1.61-1.02-1.9-1.99.61-1.78-1.73-2.92-3.08-3.54-2.41-.53.24-4.82-2.44-5.22.1-.14-.29-.06-.4.02l-.82-1.47s-1.08-1.73-2.7-2.11c-1.62-.4-3.72.61-5.88,5.83l-.23.11c.02,1.07.22,1.6,1.61,1.38-1.22.97.28.69-.01,1.15l-.12.06c1.29-.24-.18,1.48.99,1.3-.11.05-.47.28-.56.2.38.2.95.44.22.97.7.61,1.06,1.89,2.58,1.57l-.23.11c.99-.27.36.28.97.31-.09.08-.12.14-.17.16,1-.23.7.8,1.21.82l-.49.34.51.52-.04-.29c1.44-.82-.57,1.02.61.88.09.52,3.43-1.02,3.02-.15.78-.21-1.18.49-.48.48-.72.47-.55.15-1.08.6.54.08-.43.96.3,1.02l-.56.37c1.34-.17-.18,1.38,1.01,1.08.78.21-1.49,1.39-.05,1.21l-.65.68c.01.3,1.05-.42.82.05-.5.28-.2.55-.75.69-.42,1.02,1.77.48.92,2,1.05-.41.71.3,1.5,0-.4.27.38.79-.78.91-.1,0-.12-.06.05-.16l-.6.29c-.82,1.05,1.04.42,1.12.93.12-.23-.03-.37.43-.49l.15.43-.53.2.06.74.55-.43c-.14.46-1.09,1.15-.06.98.56-.13.64-.74,1.01-.54-.18.62-.47,1.54-.37,2.13.65-.43.7-.29.91-.23l-.58.35c1.11.05-1.18.92-.24,1.06l-.43.19,1.3-.56c1.42-.19-1.07.93.8.56-.22-.15,1.24-.82,1.13-.43l-.6.25c.2.07.46-.01.4.14-.35.09-.85.42-.64.57l-.78.26,1.26-.19c-.44.64.58.69-.15,1.26,0,0-.04.86.92.53-.62.17-.63.64-1.33.89.71-.17,1.49.05.93.61h-.09c-.29,1.1,1.6.76,1.13,1.86.67-.4.48.15,1.32-.4,1.24.23-1.14,2.19,1.72,1.02.31.24-.45.71-.51.94h-.18c.53.47.64.63.81,1.1.38.08,1.68-.53,1.57.02-.57.13-.4.24-.32.39-.13-.05-.33.01-.57.38.17-.05.29-.06.39-.06-.04.02-.07.05-.12.07.3.16.44.03.45-.12.08-.03.17-.09.3-.2-.53.59.4.69-.46,1.16.57.64,1.75.72,2.39,1.17-.42.29-.89.34-1.15.25l.38.36c-.65.31-.5-.07-.69-.14-.8,1.04,1.57.57.91,1.65l.58-.12-.07.08c.27-.13.71-.17.84-.12-.53.36-1.31.62-1.13.91-.43.5.6.55,1.06.73.02-.22.36-.31.59-.33.09.15-.44.5-.14.5l-.76.38c.7-.4.97.03,1.31-.06-.53.36-.6,0-1.05.16.36.58.18.29.54.87.74.06.7-.4,1.45-.56.29.22.96.26.65.81l.63-.42c.79.31.86.68.33,1.36,3.74.79,5.76.18,6.84-.67,1.08-.84,1.21-1.92,1.21-1.92.77-2.37-1.63-2.32-3.09-4.03"/>
  <path class="cls-1" d="M75.24,226.85l-.31.46c.15-.01.27-.13.31-.46"/>
  <path class="cls-1" d="M75.2,342.78s.04.08.07.11c-.02-.08-.04-.1-.07-.11"/>
  <path class="cls-1" d="M64.9,244.77v-.02s-.05-.08-.08-.12l.08.14Z"/>
  <path class="cls-1" d="M65.41,221.47c-.27,6.12-1.72,7.76-1.02,14.08-.08,3.02.3,6.24.51,9.19,1.16,1.39.06,3.88,1.03,5.53l-.64.65c.33.57.56,1.24.21,1.82l-.19-.04c.5.85.21,1.82.46,2.24l-.19-.04.09,1.04-.27-.18c.53,1.48.57,3.02.34,4.37l.78-.12c-.86,2.9.77,3.95-.26,6.56l-.19-.04c2.09,3.29-1.39,5.22.58,8.62-.24-.42-.4.18-.59.15.23,1.56.35,3.24,1.89,3.26-.02,1.14-.48.93-1.07,1.08.68,0,.95.99.99,1.88l-.26-.41.23,2.55,1.27-.5c-.37,1.36-1.55.34-1.25,1.64l1.06-.02c-.21,1.87-1.81,2.97-2.59,4.78-.47,7.53,2.16,15.65.24,22.65l-.8.3c-1.16.12,1.69,1.95.62,2.21l.52.82c-.21.23-.44.71-.69.3-.05.75.13.77.48,1.32l-.73.8c-.6,2.97.77,5.51.44,8.64-1.52,3.74-.28,10.83.42,14.93,1.63,5.77-3.13,12.34-1.3,18.25-.17.19.19.69.32.69l-.3,5.37s-.29,6.51.68,10.58c.97,4.07,3.21,5.72,8.29-4.06l.25.14c.7-2.93.89-4.79-.33-6.85,1.56-.28.22-2.42.74-3.09l.12.07c-1.15-1.83,1.09-3.68.06-5.44.12.07.55.12.56.52-.17-1.27-.48-3,.43-3.08-.17-3.02.34-7.23-1.06-9.19l.25.14c-.95-1.12-.12-1.43-.59-2.67.12-.06.18-.15.23-.13-.94-1.22-.08-3.5-.48-4.48l.6-.05-.1-2.39-.15.89c-1.65-.34,1.07-1.79.03-3.54.23-1.62-3.39-3.34-2.55-5.01-.76-.82,1.25.72.67-.48.86-.03.53.57,1.22.27-.39-1.19.91-1.92.35-3.38l.67-.05c-1.2-1.91.93-3.57-.23-4.84-.53-1.96,2.01-1.29.72-3.34l.92-.78c.16-.87-1.11-.64-.65-1.6.57.06.47-1.22,1.01-.65.92-2.18-1.23-4.46.3-7.33-1.11-.63-.43-2.08-1.27-2.55.49-.08.1-2.91,1.14-1.27.08.14.07.39-.12.37l.66.2c1.26-1.64-.67-2.99-.47-4.62-.22.48-.17,1.12-.62.69l.1-1.51.55.32.34-2.25-.69.31c.36-1.1,1.53-1.48.56-2.73-.54-.56-.93,1.04-1.14-.12.48-1.47,1.19-3.68,1.4-5.56-.78.17-.75-.33-.9-.85l.67-.06c-.93-2,1.48-.73.74-2.71l.47.18-1.4-.53c-1.33-1.79,1.4-.96-.42-2.95.11.78-1.48.37-1.19-.6l.65.25c-.14-.54-.41-.71-.27-1.07.35.32.94.17.83-.62l.81.53-1.2-1.49c.69-1.15-.18-2.97.73-3.44,0,0,.44-2.47-.56-3.03.62.49.86-.87,1.59-.48-.71-.64-1.29-2.53-.54-3.28l.09.14c.75-2.8-1.08-4.78-.16-7.29-.78.12-.36-1.21-1.36-.88-1-2.59,1.99-4.75-1.1-5.66-.18-1.18.71-1.4.86-2.02l.17.28c-.27-2.21-.31-2.85-.25-4.5-.31-.82-1.74-.93-1.41-2.4.57.47.46-.13.45-.68.09.35.3.46.68-.27-.18-.1-.29-.25-.38-.4.04,0,.08-.04.14-.02-.21-.92-.39-.75-.46-.33-.09-.02-.2.02-.35.15.72-.96-.08-2.65.89-2.78-.26-2.76-1.29-4.71-1.71-7,.5-.26.95.26,1.16.93l-.21-1.63c.72,0,.43.93.58,1.43,1.14-1.96-1.23-3.98-.19-6.27l-.58-.46.09-.14c-.3.01-.72-.49-.82-.83.62-.33,1.45,0,1.4-1.13.59-.9-.35-2.53-.71-3.68-.09.63-.45.43-.68.17-.03-.56.59-.9.31-1.33l.85-.07c-.8.24-.89-1.45-1.25-1.66.62-.33.56.86,1.04,1-.12-2.25-.06-1.13-.18-3.38-.66-1.19-.8.24-1.56-.33-.19-1.06-.8-2.08-.31-3.31l-.75.4c-.63-1.98-.57-3.18.16-4.54-6.49-14.71-8.47-2.94-8.47-2.94-1.53,5.88.73,8.84,1.45,15.78"/>
  <path class="cls-1" d="M106.31,224.67l-.28.48c.14-.02.26-.14.28-.48"/>
  <path class="cls-1" d="M114.69,340.69s.04.07.08.1c-.03-.08-.05-.1-.08-.1"/>
  <path class="cls-1" d="M97.02,243.24v-.02s-.06-.08-.09-.11l.09.14Z"/>
  <path class="cls-1" d="M96.21,219.8c.06,6.16-1.29,7.9-.24,14.21.1,3.04.67,6.25,1.05,9.21,1.24,1.33.29,3.89,1.37,5.49l-.6.69c.37.55.64,1.21.33,1.81l-.19-.02c.55.82.33,1.81.6,2.22l-.19-.02.16,1.03-.28-.16c.62,1.46.77,3,.63,4.37l.77-.17c-.67,2.97,1.03,3.91.18,6.61l-.19-.02c2.3,3.16-1.03,5.33,1.17,8.61-.27-.41-.39.21-.58.19.34,1.56.57,3.23,2.11,3.14.06,1.15-.41.97-1,1.16.67-.05,1.02.92,1.13,1.81l-.29-.39.41,2.55,1.23-.59c-.27,1.38-1.52.46-1.12,1.73l1.05-.09c-.07,1.9-1.59,3.11-2.24,4.99.09,7.59,3.35,15.53,2,22.7l-.77.37c-1.15.22,1.85,1.82.8,2.16l.59.78c-.19.24-.38.75-.67.36,0,.76.2.76.59,1.29l-.66.86c-.35,3.03,1.22,5.47,1.17,8.63-1.2,3.88.66,10.89,1.73,14.93,2.14,5.63-1.99,12.65.41,18.4-.15.2.25.67.38.66l.22,5.4s.09,1.63.35,3.77c.13,1.05.31,2.29.53,3.39.05.16.09.29.12.35,0,.01.02.04.03.04.04,0-.08,0,.23.04.44.06.81.13,1.14.22,1.33.33,1.55.87,1.37.57v-.02s-.01,0-.01,0h0s.33.73.33.73h0s.02.04.02.06c.01.05.01.07.01.05,0,.02,0-.08.04-.16.07-.19.3-.44.36-.47.1-.07-.04.04-.29.11-.26.06-.56.1-.72.03-.04,0-.12-.06-.09-.04h0s.04.05.05.08c.01.05.09.29.07.39v.08s0,.02,0,.02h0s0,1.13,0,1.13h0s.01-.06.01-.06c.02-.07.03-.14.03-.22.01-.15,0-.31-.05-.47,0-.17,0-.35,0-.54,0-.07-.02-.17-.05-.25,0-.04-.03-.12-.07-.15,0,0,.03,0-.09-.04-.44-.03-.88.81-.48,1.78.11.25.3.53.65.77.35.23.92.38,1.47.29.5-.06.85-.15,1.3-.39.43-.23.83-.56,1.15-.93.66-.75,1.05-1.58,1.36-2.38.16-.4.29-.8.4-1.19.12-.3.25-.62.38-.94l.26.12c.4-3,.4-4.86-1.01-6.81,1.53-.43-.01-2.44.44-3.16l.13.06c-1.32-1.72.73-3.78-.46-5.44.13.06.56.07.61.46-.29-1.25-.75-2.95.14-3.11-.45-3-.33-7.25-1.91-9.08l.26.12c-1.05-1.03-.25-1.42-.83-2.62.11-.08.17-.17.22-.16-1.05-1.13-.4-3.5-.88-4.44l.6-.11-.31-2.38-.06.9c-1.67-.19.91-1.88-.29-3.54.09-1.64-3.66-3.05-2.97-4.79-.83-.75,1.3.62.62-.54.86-.1.58.52,1.24.16-.49-1.15.74-2,.06-3.41l.67-.11c-1.36-1.81.63-3.65-.63-4.83-.69-1.92,1.9-1.46.44-3.4l.85-.86c.08-.88-1.15-.55-.79-1.54.57.02.37-1.25.95-.73.74-2.25-1.59-4.35-.28-7.35-1.15-.55-.6-2.05-1.46-2.45.48-.11-.13-2.92,1.04-1.36.1.13.1.38-.09.38l.67.15c1.13-1.73-.9-2.94-.82-4.58-.18.5-.08,1.14-.56.74l-.02-1.52.58.27.16-2.27-.66.36c.27-1.13,1.41-1.6.35-2.77-.58-.53-.85,1.11-1.15-.04.36-1.51.91-3.77.98-5.66-.76.23-.77-.28-.96-.79l.67-.11c-1.07-1.93,1.42-.84.54-2.77l.48.14-1.44-.42c-1.46-1.69,1.32-1.06-.63-2.92.17.78-1.45.48-1.23-.51l.67.2c-.18-.53-.46-.69-.35-1.05.37.29.95.1.79-.68l.85.47-1.3-1.4c.61-1.2-.39-2.96.49-3.49,0,0,.27-2.5-.77-3,.66.45.8-.93,1.55-.59-.75-.59-1.46-2.44-.76-3.25l.09.14c.57-2.85-1.39-4.71-.64-7.29-.77.17-.44-1.19-1.41-.79-1.17-2.53,1.68-4.88-1.46-5.6-.25-1.17.62-1.45.74-2.07l.18.27c-.41-2.2-.48-2.84-.53-4.49-.36-.8-1.8-.83-1.56-2.32.6.44.45-.16.41-.71.12.35.33.44.66-.31-.18-.09-.3-.24-.4-.38.04,0,.08-.04.14-.03-.27-.9-.43-.73-.48-.3-.09-.02-.2.03-.34.17.67-1-.24-2.65.73-2.84-.42-2.75-1.57-4.65-2.11-6.92.48-.29.97.21,1.21.87l-.3-1.62c.72-.04.48.91.66,1.4,1.03-2.02-1.45-3.92-.54-6.27l-.6-.43.08-.14c-.3.03-.75-.45-.87-.78.61-.37,1.45-.08,1.33-1.21.54-.93-.49-2.51-.91-3.65-.06.64-.43.46-.67.2-.06-.56.54-.93.24-1.35l.85-.12c-.78.28-.97-1.41-1.33-1.59.6-.37.6.84,1.09.94-.24-2.25-.12-1.13-.36-3.38-.72-1.16-.79.28-1.57-.25-.24-1.05-.91-2.05-.48-3.31l-.72.44c-.73-1.96-.73-3.16-.06-4.56-7.2-14.46-8.61-2.54-8.61-2.54-1.25,5.98,1.16,8.85,2.25,15.79"/>
  <path class="cls-1" d="M109.03,377.75l.19-.25c-.09.12-.16.22-.19.25"/>
  <path class="cls-1" d="M108.53,377.53s-.02.03-.04.06c.01-.02.03-.04.04-.06"/>
  <path class="cls-1" d="M115.28,369.21h0s.03-.04.05-.06l-.05.06Z"/>
  <path class="cls-1" d="M114.86,369.96c.2-.32,1.07-1.5.7-1.04.06-.1-.15.16-.27.29-.69.91-.02,0-.6.77l.38-.52c-.2.26-.33.44-.13.15l.11-.15c-.3.39-.12.15-.27.35l.11-.15-.05.07.16-.21c-.32.41-.34.43-.21.24l-.47.63c.51-.71-.46.59.15-.25l.11-.15c-1.25,1.65.82-1.15-.36.42.15-.2.24-.32.35-.48-.14.18-.22.27-1.14,1.5,0-.02.29-.39.64-.86-.4.54-.57.76-.6.79l.16-.21-.15.18-.76,1.02c.21-.3.93-1.25.74-1l-.63.85c.12-.17,1.07-1.46,1.53-2.08.24-.38-1.4,1.75-.31.24l.47-.64c.69-.93-1.03,1.37-.39.51l-.32.42c.12-.17.25-.35.41-.55.02-.04-.09.11-.3.39l.43-.58c.32-.46-.52.65-.36.42.86-1.19.03-.12-.45.49-1.06,1.37,1.68-2.34.47-.77.1-.13-.12.16-.2.27l.08-.15s.17-.43-5.49,7.32l-.15.2c-.36.5-.43.61.34-.4-.93,1.25-.09.14-.38.54l-.08.1c.72-.96-.58.81.07-.05-.07.1-.33.44-.35.46.12-.15.34-.43-.21.3.15-.18-.08.17.79-.99l-.15.2c.59-.78.09-.11.39-.51-.07.1-.11.14-.14.18.58-.77.1-.11.35-.44l-.36.48.09-.11.07-.11c.99-1.33-.61.84.03-.02-.12.17,2.07-2.75,1.59-2.09.46-.62-.75,1.01-.39.53-.51.69-.32.43-.74.99.25-.33-.52.71-.17.25l-.4.54c.74-.98-.51.72.19-.22.34-.44-1.19,1.6-.39.56l-.54.73c-.08.12.67-.89.41-.54-.34.46-.27.37-.6.8-.53.72.77-1.01-.12.21.67-.89.28-.36.78-1.03-.29.39-.04.07-.67.91-.05.07-.04.06.07-.09l-.4.53c-.74,1,.42-.54.31-.38.13-.18.09-.13.37-.49l-.05.08-.33.45-.19.27.41-.55c-.21.29-.9,1.23-.32.45.33-.44.55-.75.68-.92-.27.38-.69.95-.8,1.12.46-.62.45-.6.54-.72l-.4.54c.57-.74-.88,1.19-.43.6l-.28.38.84-1.12c.8-1.06-.83,1.12.26-.33-.07.09.88-1.19.71-.95l-.39.52c.08-.11.25-.33.17-.22-.21.28-.56.76-.5.67l-.49.65.72-.95c-.41.56.12-.13-.43.6,0,0-.26.37.34-.43-.37.5-.51.69-.95,1.28.42-.56.77-1.02.33-.42l-.05.07c-.45.62.64-.83.1-.08.47-.63.22-.28.81-1.08.6-.78-1.19,1.64.65-.83.1-.13-.43.58-.52.71l-.1.13c.16-.2.18-.22.14-.16.18-.24,1.04-1.39.84-1.11-.34.46-.28.37-.27.37-.06.07-.18.24-.4.55.1-.14.17-.23.22-.3-.03.04-.05.06-.08.11.12-.16.23-.3.27-.37.05-.07.12-.16.21-.29-.44.59.04-.03-.54.75.15-.17.76-.98.99-1.28-.3.4-.57.76-.69.92l.12-.14c-.43.58-.25.33-.34.45-.69.95.71-.92.08-.06l.34-.46-.06.08c.18-.24.43-.57.49-.65-.38.51-.87,1.17-.84,1.14-.36.49.19-.24.4-.5.06-.09.27-.37.4-.54.01-.02-.36.49-.2.27l-.51.68c.48-.64.52-.69.73-.97-.38.51-.33.43-.61.81.06-.06.03-.03.08-.09.39-.51.48-.64.93-1.24.1-.13.46-.6.16-.19l.45-.61c.36-.46.31-.39-.14.23,3.73-4.89,5.03-6.73,5.03-6.73.98-1.36-.35.4-.73.85"/>
  <path class="cls-1" d="M134.11,226.89l-.25.5c.14-.03.25-.16.25-.5"/>
  <path class="cls-1" d="M149.29,343.62s.05.07.08.1c-.04-.08-.06-.1-.08-.1"/>
  <path class="cls-1" d="M125.92,246.17v-.02s-.06-.08-.1-.11l.1.13Z"/>
  <path class="cls-1" d="M123.74,222.54c.42,6.22-.82,8.05.59,14.37.28,3.07,1.03,6.28,1.59,9.24,1.32,1.27.52,3.92,1.69,5.47l-.56.73c.4.54.71,1.18.43,1.81h-.19c.6.79.43,1.8.73,2.19h-.19s.22,1.03.22,1.03l-.29-.15c.71,1.44.94,2.98.88,4.38l.76-.21c-.49,3.03,1.26,3.89.57,6.66h-.19c2.48,3.06-.72,5.44,1.67,8.62-.3-.4-.38.24-.57.22.43,1.55.76,3.23,2.29,3.06.13,1.16-.36,1-.93,1.23.67-.09,1.07.87,1.23,1.77l-.31-.38.56,2.55,1.2-.67c-.19,1.41-1.5.55-1.02,1.82l1.04-.15c.04,1.92-1.4,3.23-1.94,5.16.54,7.67,4.26,15.5,3.33,22.82l-.75.41c-1.13.28,1.95,1.73.93,2.14l.63.76c-.18.26-.33.78-.64.4.05.77.24.76.66,1.26l-.61.91c-.17,3.08,1.54,5.45,1.67,8.65-.97,3.99,1.3,10.96,2.61,14.98,2.46,5.57-1.24,12.89,1.49,18.57-.14.21.29.67.42.64l.54,5.45s.18,1.65.57,3.79c.19,1.07.44,2.26.73,3.44.17.61.33,1.22.5,1.81.27.88.51,1.95,1.66,3.33.56.67,1.51,1.35,2.49,1.61.32.1,1.36.33,2.17.14.86-.14,1.53-.55,1.98-.93.89-.81,1.12-1.52,1.29-2.17.14-.66.15-1.26-.04-2.05-.18-.76-.81-1.79-1.78-2.21-.43-.19-.79-.22-1.12-.22-.27.03-.43.1-.59.17-.36.16-.25.3-.27.45,0,.15.05.3.11.46.19.16.37.28.67.56.29.25.46.78.28,1.05-.14.28-.39.44-.65.53-.13.04-.27.05-.38.01-.04,0-.13-.09-.1-.06.04.08.06.09.06.14,0,.01,0,.02,0-.05l.15-.55s-.01.04,0,.02c-.01.03.03-.08.21-.23.26-.22.31-.22.41-.33.1-.1.19-.21.29-.36.1-.15.21-.3.32-.51.1-.27.2-.54.31-.83.21-.57.42-1.19.64-1.85l.27.1c.23-3.05.12-4.93-1.41-6.82,1.5-.52-.16-2.46.25-3.22l.13.05c-1.42-1.66.5-3.86-.78-5.47.13.05.56.04.64.43-.36-1.25-.93-2.94-.04-3.15-.63-3.01-.76-7.3-2.44-9.07l.27.1c-1.11-.99-.33-1.42-.98-2.6.11-.08.16-.18.21-.17-1.11-1.08-.6-3.51-1.14-4.43l.59-.14-.45-2.39v.92c-1.69-.1.78-1.95-.51-3.56,0-1.66-3.84-2.87-3.25-4.67-.87-.71,1.34.55.59-.58.85-.15.61.5,1.25.1-.56-1.13.62-2.06-.15-3.45l.66-.14c-1.46-1.75.41-3.72-.91-4.84-.8-1.9,1.81-1.58.24-3.46l.8-.91c.03-.9-1.18-.49-.87-1.52.57-.01.29-1.29.91-.79.6-2.32-1.84-4.31-.71-7.4-1.19-.49-.72-2.03-1.61-2.4.47-.14-.3-2.94.96-1.43.1.13.12.38-.07.39l.68.11c1.02-1.81-1.07-2.92-1.09-4.58-.15.51-.01,1.15-.52.78l-.11-1.53.59.25.03-2.31-.64.4c.21-1.16,1.32-1.7.19-2.82-.61-.5-.78,1.17-1.15.03.27-1.54.69-3.86.65-5.77-.75.28-.78-.24-1.01-.74l.66-.15c-1.19-1.89,1.37-.92.38-2.82l.49.12-1.46-.35c-1.55-1.63,1.26-1.15-.8-2.91.22.78-1.42.56-1.26-.45l.67.16c-.2-.52-.5-.67-.41-1.04.39.27.96.05.75-.73l.87.43-1.38-1.34c.54-1.25-.56-2.96.29-3.55,0,0,.12-2.54-.94-2.98.68.42.74-.98,1.52-.68-.78-.55-1.6-2.38-.95-3.24l.1.13c.4-2.91-1.66-4.68-1.07-7.32-.76.21-.51-1.17-1.46-.72-1.32-2.49,1.4-5.02-1.78-5.57-.32-1.17.54-1.5.61-2.14l.2.26c-.54-2.2-.65-2.84-.79-4.5-.4-.79-1.84-.73-1.69-2.26.63.41.44-.18.37-.74.13.34.36.43.64-.35-.19-.08-.32-.22-.43-.36.04-.01.07-.05.14-.04-.32-.9-.47-.72-.5-.28-.09,0-.19.04-.34.19.61-1.05-.39-2.67.56-2.91-.58-2.75-1.84-4.61-2.52-6.87.46-.32.98.16,1.26.81l-.39-1.62c.72-.08.54.89.74,1.38.91-2.1-1.68-3.88-.91-6.3l-.63-.4.08-.15c-.3.05-.77-.42-.92-.74.58-.4,1.44-.16,1.26-1.29.49-.97-.63-2.51-1.12-3.64-.02.65-.4.49-.65.24-.09-.56.49-.97.16-1.37l.84-.16c-.77.33-1.05-1.37-1.42-1.54.58-.4.65.81,1.14.89-.37-2.26-.19-1.13-.56-3.39-.79-1.13-.77.32-1.58-.16-.3-1.05-1.03-2.02-.68-3.31l-.7.49c-.84-1.94-.91-3.15-.33-4.6-8.04-14.2-8.74-2.08-8.74-2.08-.89,6.11,1.68,8.88,3.17,15.82"/>
  <path class="cls-1" d="M105.51,208.16l-.31.13c.14,0,.27-.04.31-.13"/>
  <path class="cls-1" d="M107.07,240.19s.04.02.07.02c-.03-.02-.05-.02-.07-.02"/>
  <path class="cls-1" d="M95.02,213.35h0s-.05-.03-.08-.04l.08.04Z"/>
  <path class="cls-1" d="M95.76,206.74c-.36,1.73-1.81,2.22-1.19,4-.1.86.26,1.77.45,2.6,1.15.37.04,1.1,1.01,1.54l-.64.2c.33.15.56.34.21.51h-.19c.5.22.21.5.46.62h-.19s.09.29.09.29l-.27-.04c.53.41.58.84.35,1.23l.78-.06c-.85.85.79,1.09-.23,1.86h-.19c2.1.85-1.35,1.52.65,2.41-.25-.11-.4.07-.59.06.24.43.38.9,1.91.84,0,.32-.47.28-1.06.35.67-.03.97.24,1.02.49l-.27-.11.26.71,1.27-.2c-.35.4-1.55.17-1.22.52l1.05-.05c-.18.53-1.77.92-2.52,1.46-.35,2.15,2.46,4.28.72,6.36l-.79.13c-1.15.11,1.74.44.68.58l.54.2c-.2.08-.42.23-.68.13-.03.22.16.21.52.34l-.71.27c-.5.88.92,1.5.7,2.4-1.4,1.16.09,3.06.96,4.15,1.84,1.48-2.6,3.71-.49,5.21-.16.07.22.17.35.16l-.03,1.53s.05,1.84,1.24,2.87c1.19,1.04,3.5,1.23,8.03-1.94h.25c.54-.85.63-1.37-.69-1.82,1.54-.22.1-.68.59-.92h.13c-1.24-.39.9-1.1-.2-1.48.12,0,.55-.02.58.09-.22-.33-.61-.78.29-.88-.3-.81.02-2-1.46-2.42l.25.02c-.99-.23-.17-.38-.69-.68.12-.03.18-.06.23-.06-.99-.26-.22-.96-.65-1.19l.6-.06-.19-.65-.11.26c-1.66.03,1-.57-.1-.98.18-.46-3.49-.67-2.72-1.2-.79-.17,1.27.11.65-.18.86-.07.55.12,1.23-.01-.43-.3.84-.59.23-.96l.67-.06c-1.26-.44.82-1.05-.37-1.32-.59-.51,1.97-.49.62-.97l.89-.27c.13-.25-1.12-.1-.7-.4.57-.02.43-.36.99-.24.86-.66-1.34-1.15.13-2.03-1.12-.11-.48-.54-1.32-.63.48-.05.03-.8,1.11-.41.09.04.08.1-.11.11l.66.02c1.22-.52-.73-.78-.56-1.24-.21.15-.15.32-.6.22l.07-.42.56.06.29-.64-.68.12c.34-.32,1.5-.48.51-.78-.55-.13-.91.33-1.14.02.45-.43,1.12-1.07,1.31-1.6-.77.08-.75-.06-.91-.19l.67-.05c-.96-.51,1.47-.27.7-.78l.47.03-1.41-.08c-1.35-.43,1.38-.33-.46-.79.12.21-1.48.17-1.2-.11l.65.04c-.14-.14-.42-.18-.29-.28.35.07.95,0,.83-.21l.82.11-1.21-.36c.68-.35-.21-.81.7-.98,0,0,.42-.7-.59-.81.63.11.85-.27,1.58-.19-.71-.15-1.31-.65-.56-.88l.09.04c.74-.8-1.09-1.28-.19-2-.78.06-.37-.32-1.36-.2-1.01-.69,1.99-1.37-1.1-1.54-.18-.32.71-.41.86-.58l.17.07c-.27-.61-.3-.78-.25-1.24-.31-.22-1.74-.22-1.4-.63.57.12.46-.04.46-.2.09.1.3.12.68-.09-.18-.02-.29-.06-.38-.1.04,0,.08-.01.14-.01-.21-.25-.38-.2-.46-.08-.09,0-.2.01-.36.05.73-.28-.07-.73.91-.79-.24-.76-1.27-1.28-1.66-1.91.5-.08.95.06,1.15.24l-.19-.45c.72,0,.42.25.57.39,1.16-.56-1.18-1.09-.12-1.73l-.57-.12.09-.04c-.3,0-.72-.13-.82-.22.63-.1,1.45-.02,1.41-.33.6-.26-.32-.7-.66-1.01-.1.17-.46.12-.68.05-.02-.16.61-.25.33-.37l.85-.03c-.8.07-.87-.4-1.22-.45.63-.09.54.24,1.02.27-.09-.62-.04-.31-.13-.94-.64-.33-.8.07-1.55-.08-.17-.29-.77-.58-.26-.92l-.75.12c-.59-.55-.5-.89.26-1.27-3.09-2.05-5.19-2.28-6.52-1.97s-1.89,1.14-1.89,1.14c-1.66,1.66.54,2.51,1.15,4.46"/>
  <path class="cls-1" d="M74.54,208.5l-.31.13c.14,0,.27-.04.31-.13"/>
  <path class="cls-1" d="M75.53,238.43s.04.02.07.03c-.03-.02-.05-.02-.07-.03"/>
  <path class="cls-1" d="M64.09,213.41h0s-.05-.03-.08-.03l.08.03Z"/>
  <path class="cls-1" d="M64.77,207.35c-.33,1.6-1.79,2.06-1.14,3.68-.1.79.27,1.61.47,2.37,1.15.33.05,1,1.02,1.4l-.64.19c.33.14.56.3.21.46h-.19c.5.2.21.46.46.56h-.19s.09.26.09.26l-.27-.04c.53.37.58.77.35,1.12l.78-.05c-.85.77.78,1-.24,1.71h-.19c2.09.79-1.37,1.39.62,2.21-.25-.1-.4.06-.59.05.24.4.36.83,1.9.79-.01.29-.47.25-1.07.31.68-.02.96.23,1.01.46l-.26-.1.25.65,1.27-.17c-.36.36-1.55.13-1.23.46l1.05-.04c-.19.49-1.78.82-2.55,1.31-.39,1.96,2.36,3.98.56,5.85l-.79.1c-1.16.07,1.73.45.66.55l.54.19c-.21.07-.42.2-.69.1-.04.2.15.19.5.33l-.71.23c-.54.79.87,1.4.62,2.22-1.44,1.02-.04,2.81.78,3.84,1.77,1.43-2.78,3.3-.76,4.76-.16.05.21.17.34.17l-.12,1.39s-.24,6.76,9.19,1.35l.25.03c.59-.78.71-1.26-.57-1.75,1.55-.13.14-.63.64-.82h.13c-1.21-.42.97-.97-.12-1.39.12.01.55.01.58.11-.21-.32-.56-.76.34-.81-.26-.77.13-1.87-1.33-2.33l.25.03c-.98-.26-.16-.36-.66-.67.12-.02.18-.04.23-.04-.97-.28-.18-.9-.6-1.14l.6-.04-.16-.61-.12.24c-1.65-.03,1.02-.5-.06-.91.2-.42-3.46-.75-2.66-1.21-.78-.18,1.26.15.66-.15.86-.04.54.13,1.23.03-.42-.29.87-.52.27-.88l.67-.04c-1.24-.45.86-.95-.32-1.24-.57-.49,1.98-.4.65-.88l.9-.23c.14-.23-1.12-.13-.69-.39.57,0,.45-.33,1-.2.88-.59-1.31-1.11.19-1.9-1.12-.13-.47-.52-1.31-.62.48-.03.06-.75,1.12-.36.09.03.07.1-.12.1l.66.03c1.23-.46-.71-.75-.53-1.18-.21.13-.15.29-.61.2l.08-.39.56.06.31-.59-.69.1c.35-.29,1.51-.43.53-.72-.55-.13-.92.3-1.14,0,.46-.39,1.15-.98,1.34-1.47-.77.07-.75-.06-.91-.19l.67-.04c-.95-.49,1.47-.23.71-.72l.47.03-1.41-.09c-1.35-.42,1.39-.29-.45-.75.12.2-1.48.14-1.19-.12l.65.04c-.14-.13-.41-.17-.28-.27.35.07.94.02.83-.18l.82.11-1.21-.35c.69-.32-.2-.76.71-.91,0,0,.43-.65-.58-.76.63.11.85-.25,1.59-.17-.71-.14-1.3-.62-.55-.83l.09.03c.74-.74-1.09-1.2-.18-1.88-.78.05-.36-.3-1.36-.19-1-.64,1.99-1.28-1.1-1.43-.18-.3.71-.38.86-.54l.17.07c-.27-.56-.3-.73-.25-1.15-.31-.2-1.74-.19-1.4-.58.57.1.46-.05.46-.19.09.09.3.11.68-.09-.18-.02-.29-.06-.38-.09.04,0,.08-.01.14,0-.21-.23-.38-.19-.46-.07-.09,0-.2,0-.35.05.73-.27-.07-.68.91-.74-.25-.71-1.27-1.18-1.67-1.77.5-.08.95.04,1.15.21l-.2-.42c.72-.02.42.23.57.35,1.15-.54-1.2-1-.14-1.62l-.57-.11.09-.04c-.3.01-.72-.11-.82-.19.63-.1,1.45-.04,1.41-.33.6-.25-.32-.64-.67-.94-.1.17-.45.12-.68.06-.03-.15.6-.25.33-.35l.85-.04c-.8.08-.88-.35-1.23-.4.63-.1.55.21,1.03.23-.1-.58-.05-.29-.14-.87-.65-.29-.8.08-1.55-.05-.18-.27-.78-.52-.27-.85l-.75.12c-.6-.5-.52-.81.23-1.18-6.26-3.66-8.42-.56-8.42-.56-1.62,1.56.6,2.28,1.24,4.06"/>
  <path class="cls-1" d="M130.77,209.95l-.3.16c.14-.02.26-.06.3-.16"/>
  <path class="cls-1" d="M134.27,241.13s.04.02.07.02c-.03-.02-.05-.02-.07-.02"/>
  <path class="cls-1" d="M120.77,215.88s0,0,0,0c-.03,0-.05-.02-.08-.02l.08.03Z"/>
  <path class="cls-1" d="M120.94,209.5c-.2,1.69-1.61,2.29-.83,3.93-.03.83.4,1.66.66,2.44,1.18.26.13,1.05,1.13,1.39l-.62.24c.34.12.58.28.25.47h-.19c.51.19.25.48.51.57h-.19s.11.28.11.28l-.27-.02c.56.34.64.76.44,1.15l.78-.11c-.79.88.86.98-.1,1.8h-.19c2.15.68-1.25,1.57.8,2.27-.26-.09-.4.09-.59.11.27.4.43.84,1.96.68.01.31-.45.3-1.04.41.67-.08.98.16,1.05.4l-.27-.08.3.66,1.25-.27c-.32.4-1.53.26-1.19.58l1.05-.12c-.15.53-1.71,1-2.43,1.57-.23,2.08,2.68,3.97,1.04,6.07l-.78.17c-1.15.16,1.76.34.7.53l.55.16c-.2.08-.4.24-.67.16-.02.21.17.19.53.3l-.69.3c-.47.86.99,1.4.8,2.27-1.35,1.17.2,2.94,1.1,3.95,1.89,1.36-2.5,3.66-.36,5.03-.16.07.22.16.36.15v1.47s.32,7.08,9.28.7h.25c.52-.85.6-1.36-.72-1.77,1.54-.25.09-.67.57-.91h.13c-1.24-.35.88-1.1-.24-1.45.12,0,.55-.03.59.07-.23-.32-.63-.75.27-.87-.32-.79-.03-1.96-1.52-2.33h.25c-1-.18-.18-.36-.71-.64.12-.03.17-.06.22-.06-.99-.22-.25-.92-.69-1.14l.6-.08-.21-.63-.1.25c-1.65.1.98-.6-.14-.95.16-.46-3.51-.51-2.76-1.05-.79-.13,1.27.05.64-.21.86-.1.55.09,1.23-.06-.44-.27.82-.62.2-.94l.67-.09c-1.27-.38.77-1.06-.43-1.27-.61-.47,1.94-.57.58-.97l.88-.31c.12-.25-1.12-.05-.72-.35.57-.05.42-.38.97-.28.83-.69-1.39-1.06.03-2-1.12-.05-.51-.51-1.35-.55.48-.07,0-.79,1.09-.46.09.03.08.09-.11.11l.66-.02c1.19-.58-.77-.73-.62-1.19-.2.15-.13.32-.59.25l.05-.42.56.02.26-.64-.68.16c.32-.33,1.47-.57.46-.79-.56-.09-.89.38-1.14.09.42-.45,1.06-1.12,1.21-1.65-.77.13-.75,0-.92-.13l.67-.09c-.99-.43,1.45-.36.65-.81h.47s-1.41,0-1.41,0c-1.38-.34,1.36-.41-.51-.75.14.2-1.46.26-1.2-.03h.65c-.15-.13-.43-.15-.3-.26.36.05.94-.06.81-.26l.82.05-1.23-.27c.66-.38-.26-.78.63-1,0,0,.37-.71-.64-.76.63.07.83-.33,1.57-.3-.72-.09-1.35-.54-.62-.83l.09.03c.68-.83-1.18-1.17-.33-1.95-.77.12-.39-.29-1.37-.09-1.06-.59,1.88-1.49-1.21-1.41-.2-.3.68-.45.82-.63l.17.06c-.32-.57-.36-.74-.34-1.19-.32-.19-1.75-.07-1.45-.5.58.07.46-.08.44-.23.1.08.31.09.67-.14-.18,0-.29-.04-.38-.07.04,0,.08-.02.14-.02-.23-.23-.4-.16-.46-.04-.09,0-.2.02-.35.08.7-.34-.13-.71.84-.85-.31-.72-1.37-1.14-1.81-1.71.49-.12.95-.03,1.16.13l-.23-.42c.72-.07.44.21.6.33,1.11-.65-1.28-.95-.28-1.68l-.58-.07.09-.05c-.3.04-.73-.06-.83-.14.62-.15,1.44-.15,1.37-.45.58-.31-.38-.65-.75-.92-.09.18-.44.16-.67.11-.04-.15.58-.3.3-.39l.85-.11c-.79.15-.9-.3-1.25-.32.62-.16.57.18,1.04.16-.15-.6-.07-.3-.22-.9-.67-.25-.79.15-1.55.07-.2-.27-.82-.48-.34-.87l-.74.18c-.64-.47-.59-.8.13-1.25-6.55-3.34-8.45.06-8.45.06-1.49,1.76.79,2.33,1.58,4.15"/>
  <path class="cls-1" d="M13.21,74.82c1.14.03,1.85,1.35,2.72.45.54-.04.98-.53,1.42-.85-.1-1.17.64-.21.65-1.21l.29.59c0-.34.05-.59.25-.28l.05.18c0-.51.25-.28.25-.54l.05.18.15-.13.05.27c.1-.57.35-.68.65-.52l-.24-.75c.73.7.46-.91,1.19-.04l.05.19c0-2.15,1.26,1.11,1.31-.94,0,.26.14.38.18.57.21-.29.46-.48.06-1.97.2-.03.29.42.47.99-.18-.65-.08-.97.06-1.05v.27s.38-.34.38-.34l-.42-1.21c.33.29.46,1.48.6,1.13l-.27-1.02c.38.12.97,1.61,1.48,2.28,1.38.1,2.12-2.86,3.76-1.34l.24.76c.29,1.12-.07-1.75.23-.71l.02-.55c.09.19.22.39.21.66.14.01.1-.17.11-.53l.31.67c.64.42.75-1.03,1.35-.88.97,1.28,1.88-.3,2.42-1.22.63-1.91,2.73,2.37,3.33.22.06.15.08-.22.05-.35l.96-.03s1.14-.11,1.64-1.31c.49-1.2.39-3.51-2.28-7.89l-.02-.25c-.65-.5-1.01-.57-1.13.75-.36-1.52-.47-.07-.69-.54v-.13c-.1,1.24-.88-.84-.97.27-.01-.12-.09-.54-.02-.58-.19.24-.43.64-.63-.24-.49.35-1.34.09-1.39,1.58l-.03-.25c0,1-.22.2-.34.73-.04-.11-.07-.17-.07-.22,0,.99-.59.28-.68.72l-.14-.58-.4.23.19.09c.3,1.63-.55-.94-.62.17-.34-.14.17,3.48-.3,2.76.03.79-.16-1.25-.24-.62-.2-.84-.02-.55-.23-1.21-.12.45-.54-.78-.67-.15l-.16-.65c-.06,1.27-.84-.71-.8.48-.22.62-.69-1.88-.75-.52l-.35-.85c-.19-.1.15,1.11-.13.72-.12-.56-.33-.39-.35-.95-.6-.77-.49,1.43-1.37.09.15,1.11-.26.53-.14,1.36-.13-.47-.54.05-.5-1.04,0-.09.05-.08.1.1l-.13-.65c-.6-1.14-.37.8-.7.69.14.19.24.11.28.57l-.29-.02-.08-.55-.48-.21.23.65c-.28-.29-.65-1.41-.62-.4.04.55.42.85.26,1.11-.38-.39-.95-.97-1.34-1.08.23.74.13.74.08.92l-.18-.65c-.11,1-.51-1.39-.67-.58l-.09-.46.27,1.38c.03,1.37-.53-1.3-.41.55.11-.15.45,1.41.21,1.18l-.13-.64c-.06.16-.02.43-.12.32-.04-.35-.22-.92-.33-.77l-.12-.81.05,1.22c-.39-.62-.48.32-.8-.54,0,0-.56-.31-.39.68-.08-.62-.38-.79-.51-1.51.07.71-.1,1.36-.44.67v-.09c-.7-.6-.56,1.25-1.26.48.24.74-.12.4.22,1.34-.18,1.08-1.4-1.7-.7,1.3-.16.22-.45-.62-.6-.74v-.17c-.31.36-.42.42-.73.43-.06.33.33,1.71-.02,1.46-.08-.57-.16-.44-.25-.41.04-.1,0-.31-.24-.64.03.17.04.29.04.38-.01-.04-.02-.08-.04-.13-.1.24-.02.4.07.46.02.08.06.19.13.33-.38-.65-.45.19-.75-.74-.42.37-.47,1.43-.75,1.92-.19-.46-.23-.92-.18-1.14l-.23.26c-.21-.69.04-.45.08-.62-.69-1.01-.35,1.33-1.06.44l.09.57-.05-.08c.09.29.13.71.1.82-.25-.58-.44-1.39-.62-1.29-.34-.53-.35.43-.45.82.14.06.21.41.24.64-.09.05-.34-.53-.33-.25l-.27-.81c.28.75.01.91.08,1.25-.25-.58-.02-.57-.14-1.03-.37.2-.18.1-.55.3,0,.68.29.75.42,1.49-.13.22-.12.84-.49.42l.3.69c-.16.67-.39.66-.86,0-.29,3.34.27,5.37.87,6.57.61,1.2,1.27,1.57,1.27,1.57,1.49,1.26,1.29-.99,2.27-1.93"/>
  <path class="cls-1" d="M188.64,54.68h-.32c.14.03.27.04.32,0"/>
  <path class="cls-1" d="M183.43,72.83s.03.02.06.04c-.02-.02-.04-.03-.06-.04"/>
  <path class="cls-1" d="M177.7,55.01h0s-.04-.02-.07-.04l.07.04Z"/>
  <path class="cls-1" d="M179.32,51.77c-.57.83-2.05.75-1.68,1.8-.22.41,0,.96.07,1.44,1.06.48-.12.57.74,1.04l-.65-.06c.3.16.49.32.13.31l-.18-.05c.44.25.12.32.35.44l-.18-.05.04.17-.25-.09c.45.35.42.58.14.72l.76.18c-.96.2.57.78-.54.89l-.18-.05c1.87,1.03-1.57.39.18,1.41-.22-.13-.4-.08-.58-.14.15.29.2.57,1.67.99-.07.16-.5,0-1.08-.14.65.19.88.41.88.55l-.23-.13.11.44,1.24.28c-.41.1-1.51-.39-1.26-.11l1.01.29c-.28.22-1.86-.07-2.69-.03-.76.95,1.43,2.96-.67,3.41l-.77-.2c-1.1-.34,1.53.82.5.52l.46.29c-.21-.03-.44-.03-.67-.17-.08.09.1.16.4.35l-.72-.11c-.68.25.52,1.06.09,1.42-1.57.06-.66,1.51-.14,2.38,1.32,1.45-3.36.75-1.84,2.29-.16-.03.15.17.28.22l-.46.7s-.47.87.29,1.87c.77.98,2.76,2.15,7.81,2.5l.22.12c.75-.21.99-.45-.06-1.23,1.46.53.29-.31.8-.23l.11.06c-1-.71,1.15-.2.26-.85.11.05.51.22.51.29-.11-.27-.33-.66.52-.34-.04-.55.6-1.05-.65-1.85l.23.11c-.85-.51-.06-.27-.45-.63.12.03.18.04.22.06-.84-.52.06-.59-.28-.88l.57.2v-.41s-.17.09-.17.09c-1.54-.61,1.08.08.16-.55.29-.18-3.06-1.65-2.21-1.63-.69-.38,1.15.52.65.15.82.28.48.26,1.15.44-.32-.31.94,0,.46-.42l.64.21c-1.06-.69,1.02-.27-.02-.84-.42-.48,1.96.44.82-.3l.9.16c.19-.09-1.02-.45-.56-.46.54.19.5-.04.98.21.96-.06-.98-1.09.6-1.08-1.03-.44-.32-.46-1.1-.79.47.14.22-.43,1.14.14.07.05.05.08-.13.02l.62.23c1.27.12-.51-.68-.24-.88-.23,0-.21.13-.62-.07l.16-.21.52.21.42-.26-.67-.15c.39-.07,1.53.21.65-.27-.49-.25-.94-.11-1.09-.35.52-.09,1.3-.24,1.59-.48-.75-.19-.7-.27-.83-.39l.65.18c-.8-.58,1.45.3.83-.22l.44.16-1.32-.48c-1.2-.66,1.38.23-.27-.58.07.15-1.44-.35-1.12-.42l.61.22c-.11-.12-.36-.23-.21-.24.32.15.9.29.83.13l.76.31-1.08-.56c.72,0-.04-.52.86-.34,0,0,.54-.27-.4-.63.58.24.87.09,1.55.35-.65-.29-1.12-.74-.37-.67l.07.04c.86-.25-.81-1.04.2-1.2-.76-.18-.29-.28-1.27-.48-.84-.65,2.16-.25-.79-1.16-.11-.23.76-.04.93-.1l.15.08c-.16-.41-.16-.52-.02-.77-.26-.2-1.64-.56-1.25-.71.54.21.46.09.48,0,.07.08.27.14.67.12-.17-.06-.27-.11-.35-.15.04,0,.08.02.14.03-.16-.19-.34-.21-.43-.16-.08-.02-.19-.04-.35-.06.75.02.05-.43,1.01-.22-.12-.49-1.02-1.03-1.32-1.48.5.07.92.25,1.08.4l-.12-.3c.71.16.37.24.5.35,1.21-.05-1-.89.13-1.02l-.54-.2h.1c-.3-.07-.68-.23-.76-.31.63.08,1.42.32,1.42.13.63-.01-.21-.47-.5-.72-.12.08-.46-.03-.67-.12,0-.09.62-.01.37-.14l.84.17c-.79-.13-.8-.41-1.13-.52.63.08.5.25.96.37,0-.38,0-.19,0-.56-.59-.32-.79-.13-1.51-.37-.13-.2-.68-.48-.13-.57l-.75-.09c-.51-.43-.39-.6.4-.66-2.79-1.75-4.84-2.24-6.18-2.33-1.34-.08-1.98.24-1.98.24-1.8.54.26,1.4.62,2.56"/>
</svg>