<?xml version="1.0" encoding="UTF-8"?>
<svg id="Capa_1" data-name="Capa 1" xmlns="http://www.w3.org/2000/svg" viewBox="0 0 199.05 290.74">
  <defs>
    <style>
      .cls-1 {
        fill: #a4d5cc;
      }
    </style>
  </defs>
  <path class="cls-1" d="M33.29,227.87l-.22.81c.11-.02.2-.22.22-.81"/>
  <path class="cls-1" d="M190.61,250.81c-.01-.06-.02-.14-.03-.2,0,.14.02.18.03.2"/>
  <path class="cls-1" d="M37.38,261.3s-.02-.03-.03-.04c-.07-.05-.14-.1-.2-.14l.23.18Z"/>
  <path class="cls-1" d="M26.75,217.13c-.92,5.88-1.22,9.73-1.31,13.68.03.99.06,1.99.09,3.02.03,1.04.22,2.11.37,3.26.09.57.16,1.17.28,1.79.15.61.31,1.24.47,1.9.17.66.36,1.34.54,2.06.22.71.51,1.43.79,2.2,1.87,5.95,5.43,11.75,9.37,16.21,1.25.8,2.48,2.3,3.91,3.7,1.36,1.47,2.92,2.81,4.36,3.65l.68,1.16c1.05.51,2.14,1.25,2.93,2.08l-.14.07c1.58.69,2.99,1.96,3.81,2.23l-.13.08,1.74,1.04-.4-.02c1.32.64,2.68,1.23,3.94,1.93,1.27.66,2.51,1.31,3.64,2l.06-.62c2.37,1.5,4.18,2.16,5.92,2.72,1.74.6,3.42,1.09,5.66,2.28l-.11.11c3.25.3,5.54,1.16,7.9,2.1,1.17.49,2.37.88,3.69,1.2,1.32.3,2.75.56,4.4.49-.83.03.28.35.19.48,2.96.38,6.11.85,6.32-.31,2.12.31,1.68.59,1.9,1.07.06-.5,1.93-.43,3.6-.27-.26.04-.53.08-.79.1,1.6.13,3.2.21,4.8.31l-.85-1.03c2.49.51.54,1.23,2.98,1.2l.03-.78c3.48.37,5.47,1.72,8.87,2.37,7.1.38,14.44-.21,21.58-.91,7.15-.72,14.12-1.56,20.67-1.6l.64.52c.35.82,3.43-1.66,4.01-.94l1.45-.57c.44.1,1.35.15.63.44,1.39-.14,1.41-.28,2.38-.66l1.55.34c1.38-.07,2.7-.23,3.99-.43,1.28-.21,2.55-.43,4.01-.78,1.44-.36,3.03-.85,4.66-1.71,1.65-.88,3.11-2.08,4.36-3.37,1.67-1.43,3.2-3.44,4.35-5.6.6-1.1,1.24-2.24,1.81-3.45.51-1.24,1-2.51,1.48-3.79,1.76-5.19,2.51-10.65,2.73-14.58.07-5.56.73-11.41.86-17.39.14-5.96-.21-11.99-1.94-17.29.07-.38-.39-1.24-.48-1.21-.59-3.31-1.25-6.6-1.95-9.87,0,0-.17-.74-.46-1.96-.28-1.23-.71-2.92-1.22-4.84-.95-3.77-2.57-9.24-6.12-12.59-1.75-1.68-3.92-2.55-5.33-2.56-.7-.04-1.21.1-1.49.24-.28.16-.31.39-.19.64.26.57,1.56,1.17,2.82,2.88,1.26,1.68,2.26,4.46,2.66,8.72l-.24-.16c.28,1.22.46,2.3.67,3.43.21,1.12.43,2.14.69,3.1.5,1.93,1.1,3.6,1.98,5.31-1,.82.83,4.34.71,5.65l-.11-.1c1.52,3.04.55,6.72,1.81,9.68-.11-.11-.43-.12-.55-.83.46,2.22,1.18,5.27.49,5.52.18,1.33.37,2.8.52,4.31.12,1.5.24,3.04.36,4.52.07,1.48.16,2.89.32,4.15.11,1.26.24,2.37.48,3.23l-.18-.24c.69,1.99-.02,2.52.15,4.72-.1.11-.16.26-.19.23.3,1.1.06,2.64-.2,4.11-.21,1.49-.64,2.86-.69,3.73h-.46s-.43,2.06-.43,2.06c-.17.67-.39,1.33-.58,2l.57-1.46c.51.42.07,1.14-.5,2.11-.29.49-.6,1.04-.86,1.67-.32.6-.57,1.28-.68,2.05-.31.64-.45,1.35-.53,2.11-.12.74-.2,1.51-.28,2.3-.17,1.57-.42,3.23-1.53,4.3-.34,1.49-.05-1.54-.9.42-.55-.33.23-1.01-.49-.88-.44.89-1.08,1.39-1.73,1.84-.67.45-1.32.83-2.08,1.48l-.3-.41c-.91.97-2.41,1.14-3.79,1.18-1.4.04-2.82.03-3.9.61-3.51.86-2.58-1.15-6.16.27l-1.52-.49c-1.6.08-1.04.97-2.84.84.06-.43-2.26-.08-1.28-.6-4.04-.21-7.98,1.85-13.31,1.18-1.07.93-3.74.66-4.54,1.32-.17-.35-5.28.31-2.38-.67.25-.08.7-.1.68.04l.32-.51c-3.03-.69-5.37.83-8.33.83.88.12,2.04.02,1.28.39-.91.02-1.83.06-2.74.05l.55-.43-4.08-.14.57.5c-2-.2-2.7-1.07-4.94-.35-1.02.4,1.89.69-.22.85-2.67-.32-6.63-.96-9.99-1.27.29.59-.62.51-1.56.57l-.08-.5c-3.62.44-1.24-1.11-4.8-.91l.34-.31-1.03.94c-1.64.33-2.05.03-2.5-.22-.45-.26-.94-.46-2.79-.05,1.4.11.52,1.18-1.18.73l.5-.42c-.96-.03-1.31.12-1.93-.06.61-.18.4-.65-1.01-.76l1.02-.47c-.92.18-1.84.34-2.76.46-1.93-.88-5.26-.8-5.93-1.7,0,0-1.05-.33-2.25-.59-1.2-.25-2.53-.47-3.11-.26.96-.21-1.32-1.03-.51-1.37-1.21.2-4.6-.27-5.67-1.25l.26.02c-1.13-.5-2.19-.89-3.21-1.24-1.04-.32-2.02-.62-3-.92-1.95-.58-3.82-1.26-5.64-2.52-.08.61-2-.73-1.83.19-.55-.18-1.07-.4-1.56-.64-.48-.26-.93-.54-1.35-.82-.85-.57-1.61-1.15-2.27-1.7-1.35-1.07-2.46-1.77-3.78-1.34-.89-.56-1.31-1.02-1.61-1.44-.29-.43-.45-.81-.83-1.19l.46.21c-.78-.57-1.42-1.03-1.98-1.44-.54-.43-.98-.82-1.41-1.18-.42-.37-.81-.72-1.24-1.09-.4-.4-.81-.84-1.3-1.35-.57-.43-1.1-.5-1.68-.72-.55-.24-1.17-.65-1.91-1.71.88.35.1-.37-.48-1.13.42.45.65.5.13-.67-.21-.06-.43-.23-.64-.39.02-.03.01-.08.06-.09-1.07-1.18-1.01-.89-.62-.26-.07,0-.1.11-.06.36-.14-.42-.38-.85-.66-1.28-.25-.45-.53-.9-.79-1.31-.51-.82-.91-1.51-.65-1.77-2.52-3.99-4.35-6.97-5.66-10.83.26-.53.8.31,1.21,1.38l-.81-2.71c.53-.09.69,1.5,1,2.31.04-1.74-.66-3.31-1.1-5.07-.57-1.72-.9-3.62-.68-5.61l-.43-.81.07-.24c-.22.02-.54-.88-.62-1.48.48-.57,1.03.04,1.07-1.93.26-.77.26-1.88.17-3.06-.05-1.19-.1-2.45-.14-3.48-.19,1.1-.42.72-.53.21.07-1.01.67-1.51.58-2.31h.64c-.64.3-.25-2.7-.39-3.11.56-.48.09,1.61.43,1.92.29-1.99.44-2.48.51-2.98.11-.49.14-1,.6-2.97.05-2.22-.67.25-.97-.89.31-1.91.4-3.85,1.36-5.89l-.73.53c.59-3.64,1.35-5.72,2.66-7.87,1.12-6.83,1.63-10.71,1.52-12.71-.1-2-.74-2.09-1.55-1.34-.81.76-1.8,2.37-2.58,3.81-.77,1.44-1.34,2.69-1.34,2.69-2.44,4.95-3.67,9.01-4.63,13.41-.94,4.42-1.64,9.2-2.38,15.9"/>
  <path class="cls-1" d="M43.41,178.97l-.15.19c.08-.07.14-.14.15-.19"/>
  <path class="cls-1" d="M61.14,182.08s.01-.03.03-.05c-.02.02-.02.03-.03.05"/>
  <path class="cls-1" d="M42.4,187.25h0s-.03.03-.05.05l.06-.05Z"/>
  <path class="cls-1" d="M37.15,182.41c.33.92.47,1.62.75,2.28.28.65.7,1.25,1.78,1.67.86.63,1.92.79,2.71.89.61-.69.98.26,1.52-.35l.05.5c.18-.21.35-.34.43-.06l-.03.13c.26-.32.41-.08.53-.24l-.03.14.22-.03-.07.19c.36-.33.65-.32.87-.11l.06-.58c.42.71.76-.45,1.11.37l-.02.14c.78-1.44.76,1.16,1.54-.2-.1.17-.01.3-.04.44.29-.13.59-.17.76-1.3.19.04.11.38.08.82.07-.5.27-.68.43-.69l-.1.18.46-.11.04-.95c.2.3-.1,1.15.16.95l.1-.77c.3.2.33,1.4.56,2.01,1.25.51,2.93-1.27,3.95.26l-.03.59c-.1.85.51-1.21.45-.42l.19-.37c.02.16.08.33-.02.51.12.05.15-.09.28-.33l.07.55c.46.48,1.03-.48,1.55-.2.5,1.17,1.86.35,2.64-.13,1.17-1.13,1.85,2.41,3.06,1.1.02.12.14-.13.15-.23l.91.25s4.45.95,2.01-6.56l.05-.18c-.44-.52-.75-.66-1.23.22.1-1.15-.4-.18-.47-.56l.03-.09c-.43.83-.54-.82-.95-.07.02-.09.07-.4.15-.41-.24.11-.57.33-.49-.34-.54.1-1.23-.31-1.71.71l.05-.18c-.29.69-.26.07-.52.41,0-.09,0-.14,0-.17-.3.68-.62.03-.83.3l.05-.44-.43.04.14.12c-.22,1.21-.21-.8-.61-.06-.26-.19-.92,2.44-1.12,1.81-.22.55.25-.91-.02-.5.08-.63.15-.38.17-.9-.24.27-.24-.69-.55-.3l.06-.49c-.45.85-.53-.73-.86.09-.39.36-.02-1.49-.51-.58l-.04-.69c-.13-.13-.22.8-.34.46.07-.42-.16-.36-.01-.75-.29-.71-.89.83-1.24-.35-.22.8-.4.28-.57.88.04-.36-.49-.13-.1-.86.03-.06.07-.04.05.1l.1-.48c-.16-.95-.58.43-.85.25.06.17.18.14.06.47l-.25-.1.11-.4-.35-.29-.02.51c-.15-.29-.1-1.15-.41-.47-.15.39.08.7-.14.83-.21-.38-.51-.95-.82-1.15-.05.57-.13.54-.24.64l.06-.49c-.44.64.02-1.1-.39-.6l.08-.34-.23,1.02c-.44.94-.02-1.05-.55.24.15-.07-.09,1.1-.22.86l.11-.47c-.11.09-.17.28-.21.17.09-.25.12-.69-.02-.63l.17-.58-.38.84c-.13-.54-.53.06-.52-.62,0,0-.38-.39-.58.33.15-.45-.06-.65.08-1.18-.18.5-.57.88-.62.31l.03-.06c-.4-.63-.94.66-1.26-.09-.06.58-.23.23-.28.97-.54.66-.47-1.59-.99.64-.19.09-.1-.56-.16-.69l.06-.11c-.32.13-.41.13-.59.03-.14.19-.46,1.21-.56.91.18-.39.09-.33.02-.35.06-.05.12-.2.13-.49-.05.12-.09.19-.13.25,0-.03.02-.06.03-.1-.14.11-.17.24-.14.31-.02.06-.05.14-.07.25.08-.55-.29-.07-.03-.74-.28.06-.79.64-1.16.73.19-.32.43-.56.55-.65l-.18.04c.32-.43.24-.21.33-.28.19-.39.04-.24-.18-.12-.2.12-.44.22-.22-.13l-.33.26.04-.06c-.16.16-.41.32-.49.34.33-.33.8-.71.73-.76.31-.33-.27-.01-.52.01-.04.09-.26.22-.4.28-.04-.05.34-.32.15-.25l.52-.32c-.49.32-.58.19-.8.28.39-.24.36-.1.66-.26-.1-.15-.06-.07-.15-.24-.43.06-.51.24-1,.38-.12-.07-.52-.09-.19-.35l-.49.2c-.38-.18-.27-.43.25-.67-.43-.17-.66-.38-1.11-.55-.41-.18-.78-.33-1.16-.46-.77-.25-1.51-.27-2.03-.26-.58.09-1.05.34-1.35.61-.3.26-.44.51-.44.51-.77,1-.59,1.89-.15,2.59.46.73,1.16,1.33,1.84,2.17"/>
  <path class="cls-1" d="M87.12,185.38l.26.27c0-.11-.05-.21-.26-.27"/>
  <path class="cls-1" d="M159.7,193.56s.05-.03.07-.05c-.05.02-.06.04-.07.05"/>
  <path class="cls-1" d="M97.28,194.64s-.02,0-.02,0c-.03.02-.06.03-.08.05l.1-.05Z"/>
  <path class="cls-1" d="M82.68,192.07c3.81.79,4.69,2,8.74,2.09,1.89.34,3.96.36,5.84.48.99-.72,2.45.31,3.58-.25l.34.53c.39-.19.84-.3,1.16,0l-.04.14c.59-.29,1.17,0,1.46-.14l-.04.14.66.02-.14.18c.99-.26,1.96-.15,2.79.13v-.58c1.74.88,2.57-.22,4.11.76l-.04.14c2.28-1.24,3.15,1.47,5.48.31-.29.14.07.31.04.45,1.01-.03,2.07.02,2.24-1.11.72.11.54.43.57.88.06-.5.71-.62,1.28-.58l-.28.16,1.63.04-.19-.98c.82.38.07,1.17.91,1.05l.09-.78c1.16.31,1.7,1.57,2.76,2.3,4.7.96,10.07-.33,14.38,1.55l.13.61c0,.86,1.38-1.13,1.46-.32l.56-.33c.13.17.42.37.14.53.48.08.51-.05.88-.28l.47.58c1.88.6,3.6-.27,5.61.08,2.36,1.28,7.07.5,9.73-.1,1.87-.63,3.89-.15,5.97.27,1.04.2,2.09.37,3.12.39,1.03,0,2.04-.16,2.96-.64.14.1.43-.21.42-.31l1.78-.18.46-.05.59-.09c.39-.06.76-.16,1.14-.24,0,0,.33-.11.87-.28.53-.21,1.26-.5,2.06-.99.79-.48,1.66-1.11,2.44-2.03.77-.9,1.49-2.18,1.6-3.58.13-1.4-.42-2.57-.96-2.98-.27-.23-.52-.34-.75-.35-.22,0-.42.11-.61.27-.38.35-.62,1.1-1.26,1.71-.68.61-1.59.62-2.83.52l-.08-.17c-.53.15-1.04.27-1.45.49-.41.23-.73.57-1.07,1.14-.22-.54-.47-.5-.72-.39-.28.12-.75.34-.96.18l.03-.1c-.97,1.03-2.31-.44-3.28.44.03-.1.02-.41.26-.46-.74.23-1.77.58-1.88-.1-1.81.32-4.37.12-5.54,1.19l.08-.19c-.67.73-.88.12-1.63.5-.04-.09-.1-.13-.09-.17-.74.71-2.17.09-2.77.39l-.03-.45-1.48.06.55.11c-.23,1.21-1.09-.79-2.2-.06-.99-.21-2.19,2.45-3.22,1.77-.54.54.51-.9-.28-.51.02-.64.38-.38.22-.9-.76.25-1.16-.73-2.1-.37v-.5c-1.26.8-2.16-.84-3.03-.06-1.26.29-.67-1.55-2.04-.71l-.42-.72c-.53-.17-.48.78-1.04.39.08-.42-.72-.42-.33-.78-1.28-.81-2.87.62-4.54-.72-.49.77-1.34.17-1.71.75,0-.36-1.81-.29-.69-.94.1-.05.25-.02.22.12l.18-.47c-.91-1.05-1.93.26-2.93-.01.28.2.69.21.38.51l-.94-.19.25-.38-1.38-.42.13.53c-.66-.35-.79-1.24-1.66-.63-.41.35.57.77-.19.83-.88-.47-2.2-1.17-3.36-1.48.03.58-.28.52-.62.59l.03-.5c-1.35.52-.32-1.15-1.63-.77l.16-.33-.47.99c-1.25.83-.47-1.1-1.89.07.5-.02.09,1.12-.49.82l.22-.46c-.35.06-.49.24-.7.11.23-.23.2-.68-.31-.66l.41-.55-1.05.75c-.65-.61-1.88-.12-2.09-.83,0,0-1.51-.53-1.96.15.37-.42-.46-.7-.14-1.21-.47.46-1.71.73-2.11.12l.1-.05c-1.68-.8-3.11.37-4.59-.52,0,.58-.8.16-.69.92-1.73.51-2.78-1.88-3.66.3-.76.02-.81-.65-1.18-.81l.19-.1c-1.41,0-1.82-.03-2.85-.22-.54.15-.76,1.19-1.65.82.35-.38-.03-.35-.38-.4.23-.04.32-.18-.1-.52-.08.12-.19.19-.29.24,0-.03-.01-.06,0-.1-.6.07-.51.21-.25.31-.02.06-.01.15.06.27-.53-.62-1.67-.18-1.65-.91-1.76-.06-3.09.51-4.57.6-.11-.39.27-.67.71-.76h-1.04c.08-.53.63-.23.96-.29-1.11-1.02-2.63.52-3.95-.45l-.35.38-.08-.08c-.02.22-.38.48-.61.53-.14-.49.16-1.07-.56-1.13-.5-.52-1.62.01-2.38.17.38.13.22.37.03.51-.36-.03-.5-.52-.8-.36l.05-.63c.06.61-1.01.51-1.17.75-.14-.49.6-.33.74-.66-1.43-.13-.71-.06-2.14-.19-.82.37.06.61-.38,1.11-.68.03-1.39.38-2.11-.09l.17.59c-1.31.26-2.06.1-2.83-.57-9.95,3.28-2.79,5.91-2.79,5.91,3.52,1.71,5.63.35,10.07.5"/>
  <path class="cls-1" d="M172.24,181.84c.04-.09-.22-.1-.37-.13.02.05.06.09.14.11.06.02.27,0,.22.02"/>
  <path class="cls-1" d="M70.71,182.62s-.07.02-.1.04c.07-.01.09-.03.1-.04"/>
  <path class="cls-1" d="M155.86,175.81h.02s.07-.04.1-.06l-.12.06Z"/>
  <path class="cls-1" d="M179.46,166.19c-.1-.48-.2-.95-.27-1.32-.77.97-1.52,1.91-2.23,2.81-.66.81-1.29,1.58-1.89,2.33-.54.64-1.05,1.26-1.55,1.86-.12.14-.26.32-.36.43l-.31.31c-.21.21-.41.41-.61.62-.2.19-.4.44-.6.58-.2.07-.39.15-.58.22-.4.14-.73.3-1.18.42-.31.02-.62.04-.93.06-1.28.07-2.64.13-5.13.52-2.61.08-5.37.52-7.92.8-1.16.91-3.35.19-4.74.97l-.58-.45c-.48.27-1.05.47-1.56.23l.03-.14c-.72.39-1.56.21-1.92.41l.02-.14-.89.1.15-.21c-1.27.44-2.6.52-3.77.39l.12.58c-2.52-.56-3.4.66-5.68-.05l.03-.14c-2.82,1.62-4.53-.95-7.45.56.37-.19-.16-.3-.13-.44-1.35.19-2.8.29-2.81,1.43-.99-.01-.81-.35-.94-.79.01.5-.85.71-1.62.75l.35-.19-2.21.18.44.94c-1.18-.27-.3-1.15-1.43-.92v.78c-1.61-.14-2.56-1.35-4.13-1.93-6.51-.35-13.58,1.43-19.61-.16l-.24-.6c-.08-.86-1.72,1.19-1.92.39l-.72.36c-.19-.16-.6-.34-.24-.52-.65-.06-.67.08-1.15.31l-.67-.56c-2.55-.52-4.79.35-7.49,0-3.18-1.28-9.35-.7-12.93-.43-5.08.88-10.5-3.07-15.69-2.16-.15-.14-.61.09-.61.19-1.54-.19-3.07-.43-4.61-.65,0,0-1.4-.19-3.24-.32-.5-.03-1.02-.06-1.56-.1-.64-.02-1.39-.03-2.28.13-.88.15-1.97.51-2.9,1.27-.24.19-.42.38-.65.62-.28.32-.52.66-.69,1-.35.69-.46,1.34-.47,1.91,0,1.14.33,2.02.88,2.77.53.74,1.44,1.35,2.33,1.44.43.06.8-.02,1.08-.11.26-.11.43-.25.54-.37.12-.13.08-.23.07-.34-.02-.11-.07-.22-.14-.32-.2-.2-.59-.37-.87-.74-.28-.38-.29-.87-.09-1.3.1-.21.24-.42.43-.53.09-.06.19-.09.29-.07.08.04-.19-.11-.16-.1v-.02s-.02,0-.02,0h0c.76.79.21.22.39.4h.02s.07.05.07.05c.05.03.09.06.13.09.08.07.15.15.23.23.17.17.39.35.71.58l-.07.19c.36.11.78.26,1.35.39.53.12,1.02.21,1.5.24.95.08,1.82-.03,2.75-.4.15,1.18,2.09.37,2.64.81l-.07.09c1.66-.71,3.14,1.07,4.73.44-.07.08-.13.4-.48.38,1.11-.03,2.64-.12,2.66.55,2.64.08,6.29.73,8.06-.18l-.13.17c1.02-.64,1.25,0,2.35-.28.05.09.12.14.11.18,1.1-.63,3.06.14,3.93-.1l.02.45,2.09.05-.77-.15c.36-1.2,1.52.87,3.09.19,1.41.25,3.03-2.34,4.45-1.65.73-.53-.67.9.4.51,0,.64-.51.37-.27.9,1.04-.24,1.64.75,2.94.39l.02.5c1.7-.81,3.09.83,4.23.02,1.73-.33,1.07,1.53,2.9.63l.66.7c.76.14.58-.8,1.41-.44-.07.42,1.05.39.54.77,1.89.76,3.92-.8,6.4.4.57-.81,1.83-.27,2.25-.88.06.37,2.54.11,1.1.86-.12.06-.34.04-.32-.09l-.18.48c1.42.95,2.63-.46,4.04-.28-.42-.17-.98-.14-.6-.47l1.32.09-.28.41,1.97.28-.26-.52c.96.28,1.29,1.15,2.38.44.5-.4-.9-.69.12-.85,1.28.36,3.21.9,4.85,1.06-.15-.58.29-.55.75-.66l.05.5c1.75-.69.64,1.09,2.37.54l-.15.35.46-1.04c1.56-.99.85,1.03,2.58-.33-.68.09-.33-1.1.51-.88l-.21.48c.47-.1.62-.31.93-.21-.28.26-.14.7.55.61l-.46.6,1.29-.89c1.01.5,2.59-.17,3.01.5,0,0,2.17.3,2.65-.45-.42.47.77.62.44,1.17.55-.53,2.19-1,2.87-.46l-.12.07c2.46.49,4.16-.89,6.38-.28-.12-.57,1.05-.31.74-1.03,2.23-.82,4.2,1.33,4.92-.98,1.03-.16,1.25.48,1.78.57l-.24.13c1.92-.29,2.48-.34,3.92-.36.7-.26.76-1.33,2.05-1.14-.39.44.13.34.61.31-.3.08-.39.24.26.49.08-.14.21-.22.34-.3,0,.03.03.06.02.1.79-.2.64-.32.27-.36.02-.07-.02-.15-.14-.25.86.49,2.31-.19,2.46.53,2.41-.34,4.02-1.15,6.08-1.62.27.35-.19.73-.78.92l1.47-.28c.04.54-.83.4-1.28.54.92.35,1.84.05,2.79-.32.96-.37,1.91-.79,3.11-.69l.34-.54.15.03c-.04-.11.05-.27.17-.42-.03-.11.11-.26.17-.32.24.4.22,1.08.59.89.15.16.3.05.52-.19.21-.25.49-.65.75-.99.04-.06.08-.12.12-.17-.04.02-.06.01-.07,0-.04-.06.04-.25.15-.45.03-.05.06-.11.09-.17.24-.23.11.34.35-.11l-.36.92c.14-.41.36-.75.55-1.1.1-.17.2-.35.29-.5.05-.11.07-.06.1-.08.03-.01.05-.03.08-.07-.16.47-.25.47-.35.56-.14.25-.28.48-.41.78.07-.1.14-.19.18-.26.02.04.03.12.04.16.02.09.03.14.05.2.03.11.05.21.15.64.23-.04.36-.21.47-.47.12-.25.24-.58.49-.75.2.45.7.8.5,1.87.15-.21.31-.42.46-.65.31.56.51,1.15.56,1.71.03.28.03.55-.01.8-.03.29-.09.59-.18.9,6.61,12.01,6.59,1.67,6.59,1.67.1-1.31.04-2.43-.12-3.48-.09-.49-.17-.97-.25-1.45-.1-.51-.2-1.01-.3-1.51-.21-.99-.43-1.96-.67-2.9-.47-1.9-.98-3.72-1.5-5.65-.25-.95-.51-1.95-.78-3.01l-.05-.2-.02-.1s-.01-.02-.02-.03l-.08-.1-.17-.19c-.07-.14-.15-.34-.23-.52l-.12-.27c-.04-.06-.11-.33-.16-.49"/>
  <path class="cls-1" d="M43.29,176.23l-.1-.04s.08.03.1.04"/>
  <path class="cls-1" d="M42.25,177.9s.02-.01.04-.02l-.04.02Z"/>
  <path class="cls-1" d="M35.83,174.61h0s-.04-.02-.06-.02l.06.02Z"/>
  <path class="cls-1" d="M37.69,173.5c-.65.15-1.96-.19-1.78.41-.24.17-.11.47-.08.7.9.31-.14.26.6.53l-.57-.06c.25.09.41.16.1.15l-.16-.03c.38.12.1.15.29.2l-.16-.03.03.08-.22-.04c.38.16.37.25.13.32l.65.06c-.82.11.5.29-.43.39h-.15c1.6.25-1.28.32.25.56-.19-.03-.33.02-.48.02.15.11.21.22,1.45.17-.04.06-.41.07-.88.1.54-.03.75.02.76.07h-.2s.14.13.14.13l1.02-.11c-.32.09-1.24.12-1.02.17l.84-.08c-.2.11-1.47.31-2.1.53-.21.3.21.52.48.71.29.21.43.39-.22.86l-.58.21c-.84.29,1.26-.27.49,0l.39-.08c-.15.07-.3.16-.49.2-.02.07.11.02.37-.03l-.51.25c-.34.38.66.17.53.46-.94.75.19.83.8.76.63-.16.26.29-.04.79-.3.49-.54,1.02.17.72-.08.09.15-.06.22-.12.04.13.1.26.16.39.02.02.22.39,1.09.07.42-.17.88-.6,1.46-1.38.58-.78,1.3-1.88,2.51-3.19l.13-.13c.28-.36.35-.43-.37.17.85-.78.06-.11.33-.37l.07-.06c-.69.54.53-.52-.09-.04.07-.05.31-.24.33-.26-.12.08-.33.21.19-.2-.16.07.08-.14-.8.41l.15-.1c-.6.37-.1.03-.4.2.07-.05.11-.07.14-.09-.6.34-.11-.01-.37.12l.37-.21h-.1s-.07.06-.07.06c-1.02.56.63-.39-.04-.06.13-.08-2.16,1-1.66.68-.49.2.79-.35.41-.21.54-.25.34-.14.77-.35-.26.09.55-.3.18-.17l.42-.19c-.77.29.55-.3-.18-.02-.35.09,1.25-.5.43-.23l.57-.22c.09-.04-.7.23-.42.12.36-.12.29-.11.63-.22.56-.19-.78.19.16-.11-.69.18-.27.05-.79.17.3-.08.06-.05.7-.18.05-.01.04,0-.07.02l.4-.1c.77-.18-.41.08-.29.03-.13.03-.1.03-.38.08l.06-.03.33-.06.2-.05-.41.08c.22-.05.91-.17.34-.08-.32.04-.56.1-.68.11.29-.07.71-.14.84-.16-.45.05-.43.05-.52.05l.39-.04c-.53.04.85-.09.43-.05l.26-.02-.79.06c-.74.04.79-.06-.22,0,.06,0-.83.05-.65.03l.36-.02c-.07,0-.22,0-.14,0,.19,0,.52-.02.46-.02h.44s-.64,0-.64,0c.39-.02-.07-.03.42-.04,0,0,.25-.01-.26-.03.32,0,.44,0,.82.02-.36,0-.64-.04-.26-.02h.04c.38.02-.48-.06-.02-.03-.36-.04-.16-.02-.62-.08-.4-.09.95.1-.38-.12-.05-.02.33.04.41.05l.06.02c-.08-.03-.08-.04-.02-.05-.11-.03-.67-.16-.5-.14.21.06.18.04.19.04.03.01.11.03.26.06-.06-.02-.1-.03-.14-.04.02,0,.03,0,.05.01-.06-.02-.13-.04-.17-.05-.03,0-.08-.02-.14-.03.3.06.04-.03.4.07-.04-.03-.34-.16-.4-.21.17.05.3.11.35.13l-.02-.03c.23.08.12.05.15.07.4.13-.29-.15.09-.03l-.16-.07h.03c-.09-.02-.19-.07-.21-.09.18.07.41.17.42.16.18.07-.04-.04-.1-.08-.04-.01-.13-.05-.18-.08.01,0,.18.07.12.04l.21.1c-.2-.1-.18-.1-.26-.15.16.08.11.06.22.12.03-.01.01,0,.04-.01-.11-.07-.18-.1-.33-.18,0-.02-.09-.09.05-.02l-.17-.09c-.05-.06.03-.04.21.06.22.11-1.12-.89-1.77-1.46-.75-.62-1.42-1.1-1.9-1.47-1.05-.72-1.71-.86-1.71-.86-.86-.28-.92-.05-.76.27.17.33.57.76.62,1.05"/>
  <path class="cls-1" d="M43.13,180.32v-.23c0,.11,0,.2,0,.23"/>
  <path class="cls-1" d="M44.47,179.05s.03,0,.05.01h-.05Z"/>
  <path class="cls-1" d="M42.98,172.47h0s0-.03,0-.06v.06Z"/>
  <path class="cls-1" d="M43.52,173.12c-.14-.29-.14-1.37-.31-.94-.07-.09-.16.16-.23.28-.06.84-.09,0-.16.72v-.48c-.02.24-.04.41-.05.15v-.14c-.03.36-.04.15-.06.33v-.14s-.02.06-.02.06v-.2c-.04.38-.08.41-.1.23l-.02.58c-.05-.65-.11.55-.15-.22v-.14c-.13,1.53-.08-1.05-.22.4.02-.18,0-.3.01-.44-.04.16-.09.25-.13,1.39-.03-.02,0-.36,0-.8-.02.5-.05.71-.07.74l.02-.19-.07.17-.02.94c-.02-.27.03-1.15,0-.92l-.03.78c-.04-.16-.02-1.34-.05-1.92,0-.01-.01-.02-.02-.03l-4.12,3.43c-.19.15,1.56.6.23.57l-.58-.08c-.85-.12,1.25.24.46.12l.38.08c-.15-.02-.32-.03-.51-.07-.04.01.1.03.36.09l-.53-.06c-.42.01.59.22.37.27-1.09-.07-.13.25.43.43,1.25.33-2.15-.02-.72.34-.12-.01.15.04.24.05l-.14.11s-.42.58,6.68,1.15l.18.03c.46,0,.57-.03-.36-.22,1.14.16.13-.04.5,0l.09.02c-.87-.17.74.02-.04-.14.09.02.4.06.42.08-.14-.05-.39-.13.28-.03-.16-.1.16-.15-.89-.36l.18.03c-.71-.13-.1-.05-.46-.13.09.01.13.02.17.02-.7-.13-.1-.1-.4-.17l.44.06-.09-.07h-.1c-1.21-.18.77.08-.01-.08.16-.02-2.51-.46-1.91-.41-.56-.1.92.16.49.06.63.1.4.06.9.14-.29-.07.65.05.23-.05l.49.07c-.89-.18.66.01-.19-.15-.4-.11,1.47.19.51,0l.67.08c.11,0-.81-.14-.49-.11.42.06.34.02.74.09.66.05-.91-.25.2-.15-.81-.14-.32-.1-.93-.2.35.05.07-.06.83.09.06.01.05.02-.09,0l.48.08c.92.1-.49-.15-.35-.16-.16-.01-.12,0-.45-.05l.07-.03.41.07.25-.02-.51-.07c.26.01,1.12.13.41,0-.4-.07-.68-.08-.84-.13.16,0,.35.01.53.02l-4.22,3.51c.02.22.04.41.06.49.02-.57.03-.55.04-.67l-.02.5c.07-.69-.02,1.1.05.55l-.02.35.05-1.04c.08-.98-.01,1.03.08-.31-.02.08.03-1.1.04-.88l-.02.48c.02-.1.03-.3.03-.2-.02.26-.03.7,0,.62l-.03.6.07-.88c0,.52.08-.13.06.55,0,0,.05.33.09-.41-.03.46,0,.64-.03,1.18.03-.52.1-.95.09-.39v.06c.04.57.14-.77.17-.08.02-.58.04-.26.06-1,.09-.73.06,1.51.16-.78.03-.12.01.54.03.65v.12c.05-.19.07-.21.1-.15.03-.22.07-1.28.1-1.02-.03.42,0,.34,0,.34-.01.07-.02.22-.01.5,0-.13.01-.21.02-.28,0,.03,0,.06,0,.1.03-.15.03-.28.02-.34,0-.06,0-.15,0-.26,0,.55.07-.03.04.69.07-.17.15-.91.21-1.19,0,.37-.03.7-.05.85l.04-.13c-.02.54-.03.31-.05.41.02.87.13-.86.15-.06l.03-.42v.07c0-.23.03-.53.04-.6,0,.47-.04,1.08,0,1.05,0,.45.07-.22.11-.47-.01-.08,0-.34.01-.5.01-.02,0,.45.02.25l-.02.63c.02-.59.06-.64.07-.9,0,.47-.04.4-.05.75.06-.06.03-.03.08-.08.05-.47.02-.6.05-1.15.03-.12.07-.56.09-.18v-.56c.07-.43.1-.37.11.2.52-4.54.3-6.22.3-6.22-.1-1.24-.23.38-.41.81"/>
  <path class="cls-1" d="M57.15,156.28l.5.24c0-.11-.13-.2-.5-.24"/>
  <path class="cls-1" d="M184.5,159.51c.08-.02.16-.03.24-.05-.15.02-.21.03-.24.05"/>
  <path class="cls-1" d="M76.06,164.59s-.02,0-.03,0c-.04.02-.09.03-.13.06l.15-.06Z"/>
  <path class="cls-1" d="M51.84,163.78c2.72-.24,4.68.18,6.69.46,2.06.3,4.22.52,7.62.39,3.24.17,6.71.01,9.88-.04,1.53-.81,4.16.1,5.96-.56l.68.5c.62-.23,1.34-.37,1.95-.1l-.04.14c.93-.34,1.95-.1,2.41-.27l-.04.14,1.11-.03-.2.19c1.61-.34,3.26-.33,4.7-.11l-.1-.58c3.09.73,4.25-.44,7.03.4l-.04.14c3.58-1.44,5.57,1.19,9.26-.17-.46.17.19.3.15.44,1.68-.12,3.48-.16,3.54-1.3,1.22.05.99.38,1.14.83,0-.5,1.08-.68,2.03-.69l-.45.18,2.75-.1-.51-.96c1.45.31.34,1.16,1.74.97v-.78c2.01.21,3.16,1.42,5.09,2.05,8.08.55,16.82-1.17,24.3.42l.32.6c.12.86,2.11-1.21,2.38-.41l.89-.37c.24.16.75.34.31.52.81.06.83-.08,1.42-.33l.85.56c3.18.51,5.92-.45,9.28-.13,2,.6,4.91.72,7.86.62.74-.02,1.48-.06,2.21-.11.36-.02.73-.05,1.09-.07l.27-.02.09-.03.18-.05c.48-.14,1.06-.3,1.64-.44.99-.34,1.97-.36,2.48-.22.54.14.59.46.39.76-.08.13-.19.25-.28.36-.04.06-.08.1-.1.15-.02.05.01.06-.11.19-.31.39-.04.58,1.07,1-.42.05.47.22.8.24-.15.3-.42.59-.79.67-.36.07-.73.01-1.08,0,0,0-.57-.02-1.15,0-.3.02-.62.02-.95.18-.33.16-.63.51-.94.92-.02.03-.03.05-.06.08l-.14.13c-.09.08-.18.17-.26.25-.16.15-.31.31-.44.44-.26.28-.45.52-.59.75-.14.23-.24.44-.27.67-.04.22-.03.44.13.65.26.42,1.03.85,2.53.81.37-.01.77-.03,1.23-.09.53-.07,1.05-.27,1.91-.28.86,0,2.01.04,3.58.15.78.05,1.7.13,2.55.15.84.02,1.59-.02,2.28-.05.07.08.14.15.2.23,1.38-.25,2.16-.43,2.79-.59.54-.13.89-.23,1.18-.38.57-.28.74-.62.71-.97.49.08.84.09,1.1.06.25-.03.38-.07.51-.16.25-.14.52-.6.92-.89l.06.07c.07-.84.6-1.98.91-3.12.28-1.14.63-2.36.49-3.4.08.07.4.07.31.58.1-.81.22-1.75.4-2.5.03-.1.05-.19.07-.27.01-.07-.02-.08-.02-.13-.01-.07-.01-.14,0-.2.04-.12.15-.23.37-.3-.21-.5-.4-1.08-.58-1.73-3.18-.45-6.45-.93-9.63-.36l.48-.16c-1.39.29-1.92.29-2.48.25-.55-.03-1.09-.12-2.3.06,0-.09-.1-.14-.04-.17-1.37.35-2.77.39-4.12.37-1.35-.02-2.66-.12-3.45,0l-.02-.45h-3.04s.95.14.95.14c-.37,1.21-1.91-.83-3.79-.09-1.73-.21-3.6,2.44-5.38,1.78-.88.55.79-.91-.51-.51-.02-.64.61-.38.3-.9-1.27.26-2.05-.71-3.62-.33l-.05-.5c-2.06.85-3.81-.77-5.19.06-2.11.35-1.36-1.52-3.57-.61l-.83-.7c-.93-.14-.69.8-1.72.45.08-.42-1.3-.38-.68-.76-2.32-.73-4.78.8-7.83-.41-.69.81-2.23.27-2.75.87-.07-.36-3.11-.15-1.34-.88.15-.06.42-.04.39.1l.22-.48c-1.73-.97-3.21.42-4.95.22.51.18,1.2.15.73.48l-1.62-.11.35-.4-2.4-.31.32.52c-1.17-.3-1.56-1.17-2.91-.49-.61.39,1.1.72-.15.84-1.57-.39-3.91-.97-5.92-1.18.17.58-.37.54-.93.65l-.05-.5c-2.15.64-.75-1.12-2.89-.62l.2-.34-.59,1.03c-1.94.94-1-1.06-3.17.23.84-.06.37,1.11-.66.86l.28-.47c-.58.09-.77.28-1.15.17.35-.25.2-.69-.64-.63l.58-.59-1.61.84c-1.21-.55-3.18.05-3.66-.64,0,0-2.63-.4-3.26.32.54-.45-.91-.66-.48-1.19-.7.5-2.73.88-3.53.3l.16-.06c-2.98-.65-5.14.64-7.81-.12.11.58-1.3.23-.97.98-2.8.66-5.03-1.63-6.09.62-1.27.09-1.48-.57-2.13-.71l.31-.11c-2.37.12-3.06.13-4.82.03-.88.2-1.05,1.26-2.62.96.52-.41-.12-.35-.71-.36.38-.06.5-.21-.27-.51-.11.13-.28.2-.44.27,0-.03-.04-.06-.02-.1-.99.12-.82.26-.36.33-.03.06.01.15.15.27-1.01-.57-2.84-.04-2.95-.76-2.96.09-5.09.78-7.55,1-.27-.38.32-.69,1.03-.82l-1.75.09c.03-.54,1.01-.28,1.55-.38-2.06-.92-4.28.75-6.74-.1l-.52.42-.15-.07c0,.22-.56.53-.93.6-.36-.46.03-1.08-1.24-1.04-1.02-.44-2.92.34-4.24.78.75-.02.53.27.25.47-.64.1-1.1-.3-1.57,0l-.18-.61c.37.51-1.61,1.01-1.77,1.35-.51-.34.91-.68,1-1.04-1.35.35-1.68.5-2.01.62-.33.13-.68.22-1.97.86-1.15,1.1.51.41.12,1.22-.53.35-1,.79-1.51,1.26-.49.46-.99.91-1.63,1.32.25.02.49.04.72.06-.68.96-1.11,1.76-1.57,2.42-.44.68-.9,1.25-1.43,1.91-.23,2.28.45,3.96,1.15,4.9.16.25.38.43.55.6.17.17.36.29.54.39.34.21.66.3.94.32.49.03,1,.04,1.25-.15.27-.18.38-.48.38-.86.25-.53.37-.92.55-1.21.16-.3.25-.54.25-.54.59-1.01,1.05-2.17,1.69-3.27.45-.94,1.89-2.43,4.86-3.11"/>
  <path class="cls-1" d="M24.95,186.76l-.27-.2c.02.11.09.19.27.2"/>
  <path class="cls-1" d="M17.68,230.66s.04.02.07.02c-.04-.02-.06-.02-.07-.02"/>
  <path class="cls-1" d="M13.69,180.78s.01,0,.01,0c.02-.03.04-.05.05-.07l-.07.08Z"/>
  <path class="cls-1" d="M27.41,179.29c-3.61.01-4.73-.95-8.4.09-1.8.21-3.63.86-5.31,1.39-.61,1.01-2.23.57-3,1.52l-.52-.35c-.29.34-.68.63-1.17.53l-.02-.14c-.47.55-1.28.66-1.54,1l-.04-.14c-.26.15-.53.32-.79.5l.04-.26c-.6.59-1.16,1.13-1.7,1.66-.47.49-.92.96-1.36,1.42l.53.26c-1.02.87-1.22,1.67-1.39,2.33-.17.68-.27,1.25-.89,1.9l-.12-.07c.36,1.23-.08,1.92-.58,2.66-.45.73-.96,1.52-.42,2.71-.13-.3-.31.06-.45.01-.03,1.01-.05,2.07,1.08,2.21-.1.69-.42.52-.87.57.49.05.65.67.64,1.22l-.17-.26c.02.52.03,1.05.08,1.57l.95-.27c-.29.8-1.15.17-.94.96h.78c-.16,1.11-1.33,1.8-1.83,2.98,0,2.39.83,4.78,1.74,7,.92,2.23,1.9,4.29,2.28,6.56l-.43.44c-.72.49,1.68.46,1.06.97l.58.23c-.07.2-.07.52-.35.41.19.4.32.34.7.48l-.22.67c.5,1.67,2.1,2.31,2.63,3.81-.07,1.05.44,2.28,1.24,3.69.79,1.38,1.91,2.84,2.86,3.84,1.51,1.27,2.27,3.11,3.4,4.92,1.1,1.79,2.56,3.48,4.56,3.84.04.17.45.1.5.01.96.6,1.93,1.18,2.93,1.68,0,0,.91.46,2.16.87,1.25.4,2.82.77,4.08.72,1.27-.04,2.21-.44,2.27-1.43.08-1-.79-2.54-2.65-5.07l.13-.15c-1.28-.95-2.05-1.4-3.39-.99.35-1.1-1.04-.66-1.17-1.15l.07-.07c-1.23.32-1.19-1.54-2.29-1.35.08-.06.27-.31.44-.21-.58-.21-1.39-.52-1-1.07-1.24-.73-2.26-2.28-3.62-2.35l.18-.06c-.89.02-.49-.46-1.1-.75.06-.07.07-.13.11-.15-.94-.08-.94-1.39-1.42-1.69l.39-.22c-.21-.35-.41-.7-.61-1.08l.11.47c-1.19.35.32-1.17-.79-1.74-.22-.9-3.07-.71-2.93-1.81-.72-.17,1.02-.03.32-.47.56-.3.5.12.88-.26-.58-.49.06-1.34-.73-1.9l.42-.27c-1.33-.54-.47-2.14-1.58-2.32-.91-.73.9-1.38-.49-1.84l.38-.7c-.13-.45-.88.12-.84-.48.39-.18,0-.71.5-.64.03-.63-.39-1-.8-1.45-.42-.44-.75-1-.49-1.84-.87,0-.64-.84-1.31-.86.32-.15-.35-1.4.62-.85.08.05.1.17-.03.2l.49-.05c.33-.51.12-.8-.2-1.09-.3-.28-.69-.56-.72-.96-.1.26.01.56-.37.43l-.1-.74.44.06.04-1.11-.48.24c.15-.58.99-.88.2-1.37-.43-.22-.61.6-.85.05.12-.38.28-.86.45-1.34.15-.49.29-.99.36-1.44-.57.1-.56-.14-.68-.4l.5-.04c-.71-.97,1.1-.35.56-1.29l.35.09-1.04-.28c-.95-.93,1.06-.39-.22-1.45.06.39-1.11.09-.85-.38l.47.17c-.08-.27-.26-.38-.14-.55.24.19.68.16.65-.23l.57.33-.79-.83c.59-.48.12-1.46.82-1.56,0,0,.59-1.07-.06-1.53.38.34.73-.24,1.2.08-.42-.42-.59-1.43.08-1.59l.04.08c.48-.52.49-1.15.5-1.61,0-.46.05-.87.46-.85-.47-.34-.1-.3-.69-.74-.03-.11-.01-.2.03-.25.15-.17.5,0,.74-.02.24-.02.36-.22.15-1.2.43-.3.75.3,1.05.33l-.09.15c.93-.48,1.36-.6,2.19-.77.37-.33.18-1.37,1.01-1.31-.15.47.15.32.43.25-.17.11-.19.27.25.46.02-.14.09-.24.15-.32.01.03.03.05.03.1.45-.25.34-.36.1-.37,0-.07-.04-.14-.14-.24.62.42,1.39-.35,1.6.35,1.41-.46,2.33-1.39,3.52-1.86.2.35-.04.72-.37.92l.85-.27c.07.53-.45.38-.7.53,1.15.69,2-1.18,3.33-.54l.2-.45.08.06c-.03-.22.21-.56.39-.65.22.45.1,1.07.7.98.52.41,1.33-.36,1.94-.65-.35-.06-.26-.32-.12-.5.3-.04.51.42.73.2l.07.63c-.16-.59.75-.7.85-.95.2.46-.45.42-.5.78,1.21-.12.61-.06,1.82-.18.63-.49-.14-.59.15-1.15.58-.14,1.14-.61,1.82-.23l-.22-.56c1.1-.45,1.77-.38,2.5.2,2.07-1.1,3.29-1.98,3.91-2.74.62-.76.61-1.4.34-1.91-.56-1.02-2.29-1.52-2.29-1.52-3.46-1.33-5.32.28-9.36.99"/>
  <path class="cls-1" d="M28.27,193.28l-.23-.2c.02.1.08.19.23.2"/>
  <path class="cls-1" d="M20.73,226.86s.04,0,.06,0c-.03-.01-.05-.01-.06,0"/>
  <path class="cls-1" d="M18.71,187.46h.01s.03-.05.04-.08l-.05.08Z"/>
  <path class="cls-1" d="M29.5,185.8c-2.8.12-3.57-.79-6.05.04-1.66.17-3.3.89-4.72,1.62-.19.54-.65.75-1.14.96-.48.24-1,.45-1.2.99l-.54-.23c-.14.37-.36.68-.76.65l-.06-.13c-.18.57-.73.68-.8.98l-.07-.12-.41.41-.05-.22c-.21.4-.45.75-.72,1.06-.28.3-.59.55-.91.77l.46.35c-.79.35-1.03.9-1.25,1.39-.22.5-.4.97-1.11,1.42l-.11-.09c.19,1.2-.3,1.71-.84,2.34-.49.62-1.03,1.37-.47,2.45-.14-.27-.31.05-.45,0,0,.92.05,1.84,1.18,1.9-.04.57-.37.46-.82.52.5.01.7.52.74.95l-.2-.2c.06.42.14.84.23,1.24l.92-.31c-.22.64-1.14.25-.85.84l.78-.09c-.06.86-1.15,1.53-1.58,2.46.15,1.77.93,3.24,1.54,4.75.62,1.51,1.11,3.02.75,4.59l-.55.25c-.83.24,1.41.52.66.8l.46.25c-.13.13-.25.36-.47.23.04.31.17.29.48.46l-.45.44c-.14,1.3,1.09,2.12,1.17,3.44-.18.44-.22.94-.15,1.46.02.13.04.26.07.4.03.15.08.34.13.51.1.35.23.71.4,1.06.64,1.43,1.72,2.61,2.46,3.27.62.42,1,.95,1.24,1.55.25.6.33,1.22.53,2.01.2.76.5,1.63,1.11,2.43.6.8,1.59,1.51,2.65,1.67.06.17.48.1.52,0,1.04.57,2.13.92,3.16,1.13,0,0,.96.19,2.1.12,1.14-.05,2.41-.35,3.26-.86.86-.51,1.34-1.22,1.06-2.16-.14-.47-.48-.99-1.05-1.6-.56-.6-1.39-1.27-2.3-2.12l.04-.19c-1.04-.42-1.45-.55-2.17.28.14-1.15-.59-.25-.62-.68l.04-.08c-.34.35-.48.09-.51-.17-.06-.26-.02-.49-.39-.28.07-.06.28-.29.34-.27-.22.02-.7-.13-.2-.58-.29-.2-.58-.67-.99-1.17-.42-.52-.97-1.02-1.62-1.04l.19-.05c-.85.01-.4-.43-.97-.64.06-.07.08-.12.12-.13-.86-.03-.74-1.04-1.13-1.18l.39-.21c-.14-.22-.27-.43-.4-.65l.02.3c-.58.19-.47-.03-.31-.31.16-.28.37-.6-.09-.75,0-.28-.67-.36-1.32-.58-.64-.21-1.23-.44-1.01-.85-.63-.2.97.09.44-.31.62-.15.44.14.91-.09-.4-.42.46-.93-.09-1.43l.48-.13c-1.06-.58.32-1.6-.64-1.93-.57-.71,1.33-.85.19-1.47l.59-.47c.03-.38-.86-.08-.63-.54.42-.07.22-.57.67-.42.45-1.03-1.32-1.61-.48-3.02-.86-.08-.51-.77-1.16-.83.34-.11-.2-1.2.71-.7.08.04.09.15-.05.17l.49-.02c.76-.87-.76-1.11-.77-1.8-.12.23-.02.48-.38.38l-.07-.63.43.04.04-.96-.47.23c.16-.5.98-.83.17-1.16-.44-.13-.59.54-.84.13.22-.65.58-1.56.64-2.22-.56.14-.56-.03-.7-.2l.49-.09c-.76-.59,1.05-.38.45-.94l.35.02-1.05-.08c-1.02-.52,1.01-.34-.35-.91.09.24-1.1.12-.88-.2l.48.08c-.1-.17-.3-.23-.19-.34.26.11.69.07.63-.15l.59.18c-.28-.15-.57-.31-.85-.48.54-.26-.01-.85.69-.83-.01-.02.48-.46-.18-.84.39.26.67.03,1.15.31-.44-.29-.64-.93-.05-.82l.04.06c.38-.15.39-.46.4-.81.03-.33.1-.69.59-.69-.44-.37.03-.43-.55-.88.04-.53.56-.52.91-.55.34-.05.5-.18-.02-1.2.26-.33.68.17.91.17v.15c.49-.53.69-.64,1.18-.85.15-.31-.24-1.29.34-1.27,0,.46.17.3.35.24-.09.1-.07.26.27.44-.01-.13,0-.23.03-.31.01.03.03.05.04.1.24-.25.15-.36,0-.36-.01-.06-.05-.14-.14-.23.49.38.89-.32,1.13.35.43-.2.76-.53,1.11-.84.17-.15.34-.31.52-.46.22-.15.43-.28.66-.39.17.35,0,.71-.27.9l.67-.24c.08.53-.35.37-.54.51.97.73,1.54-1.13,2.6-.51l.12-.45.07.06c-.04-.22.12-.56.24-.65.21.44.17,1.06.62.96.43.39.96-.38,1.38-.69-.25-.05-.21-.31-.13-.49.22-.04.4.4.55.18l.1.62c-.16-.58.48-.7.54-.97.17.45-.29.44-.3.79.84-.15.42-.08,1.26-.21.42-.5-.12-.59.06-1.16.4-.14.8-.6,1.28-.22l-.15-.56c.8-.44,1.31-.34,1.78.27,1.57-1,2.68-1.7,3.29-2.39.62-.68.71-1.3.62-1.83-.14-.54-.56-.99-.95-1.3-.4-.3-.76-.47-.76-.47-1.43-.85-2.7-.82-3.93-.52-1.24.31-2.47.91-4.02,1.34"/>
  <path class="cls-1" d="M176.02,217.9l.04.23c0-.11-.01-.2-.04-.23"/>
  <path class="cls-1" d="M186.28,217.69s0-.03,0-.05c0,.02,0,.04,0,.05"/>
  <path class="cls-1" d="M177.69,225.72h0s0,.04-.01.06v-.06Z"/>
  <path class="cls-1" d="M175.62,225.11c.55.28.7,1.36,1.26.91.27.08.55-.17.81-.3.11-.85.35-.02.48-.73l.06.48c.05-.24.11-.41.16-.15v.14c.07-.36.16-.15.19-.33v.14s.09-.06.09-.06v.2c.11-.39.25-.41.37-.24l-.02-.58c.26.65.34-.56.58.21v.14c.27-1.54.48,1.04.76-.42-.04.18.02.3.02.44.14-.17.29-.26.27-1.4.1.01.09.36.11.79,0-.5.08-.71.16-.74l-.03.19.22-.17-.06-.94c.12.27.05,1.15.16.92v-.78c.16.15.27,1.33.44,1.91.67.33,1.37-1.68,2.01-.31l.03.59c.02.86.16-1.27.19-.48l.07-.39c.02.15.07.32.03.51.07.03.07-.11.11-.37l.08.53c.27.41.48-.62.76-.42.35,1.08.96.08,1.32-.51.49-1.29,1.13,2.12,1.63.65.02.12.06-.15.06-.25l.48.12s2.32.3.47-6.78v-.19c-.26-.45-.42-.55-.59.39-.04-1.15-.22-.12-.28-.49v-.09c-.14.89-.33-.73-.48.06,0-.09,0-.41.04-.43-.11.15-.26.4-.28-.27-.27.18-.64-.13-.8.95v-.19c-.08.72-.11.11-.22.48,0-.09-.01-.13-.01-.17-.1.72-.31.12-.39.42v-.44s-.22.11-.22.11l.08.09c-.01,1.23-.17-.77-.31.03-.15-.15-.26,2.55-.42,1.95-.06.57.05-.93-.05-.49-.01-.64.04-.4.01-.91-.1.3-.18-.65-.3-.22v-.5c-.17.91-.34-.65-.44.22-.17.41-.13-1.48-.3-.5l-.08-.67c-.08-.11-.04.83-.14.5,0-.42-.11-.34-.07-.74-.2-.66-.38.95-.65-.17-.05.82-.18.34-.21.96-.01-.36-.26-.06-.12-.84.01-.06.03-.05.03.09v-.49c-.15-.92-.25.51-.39.37.05.16.1.12.07.45l-.13-.06.02-.41-.2-.24.03.51c-.1-.26-.15-1.13-.25-.4-.05.4.1.68,0,.85-.14-.35-.34-.87-.51-1.02.02.57-.02.55-.07.67v-.5c-.18.69-.09-1.09-.26-.54v-.35s-.02,1.04-.02,1.04c-.15.99-.1-1.03-.26.32.07-.09.05,1.1-.04.88l.02-.48c-.05.1-.06.3-.09.2.02-.26,0-.7-.06-.62l.04-.6-.12.89c-.11-.51-.26.13-.31-.54,0,0-.22-.33-.26.41.04-.46-.08-.64-.06-1.18-.05.52-.21.95-.29.4v-.06c-.24-.56-.4.78-.63.1.02.58-.1.26-.07,1-.22.73-.44-1.5-.49.79-.1.12-.13-.53-.19-.65l.02-.12c-.19.19-.25.21-.4.16-.07.22-.07,1.29-.2,1.03.04-.42-.02-.34-.06-.34.03-.07.04-.22-.03-.5,0,.13-.02.21-.03.28,0-.03,0-.06,0-.1-.08.15-.06.28-.02.34,0,.06,0,.15.02.26-.09-.54-.23.04-.25-.69-.24.17-.41.92-.61,1.21-.03-.37.02-.7.07-.85l-.14.14c0-.54.08-.31.12-.42-.18-.87-.34.87-.56.08l-.04.42v-.07c-.01.22-.05.53-.08.6-.03-.47-.01-1.08-.11-1.05-.08-.45-.22.23-.32.48.06.08.04.34.02.5-.05.02-.08-.45-.12-.25v-.63c.01.59-.14.64-.15.9-.03-.47.07-.4.08-.75-.2.06-.1.03-.3.09-.1.48.03.6-.02,1.15-.09.12-.18.56-.29.19l.04.56c-.17.44-.28.37-.4-.19-1.26,4.57-.2,6.23-.2,6.23.53,1.23.78-.4,1.39-.85"/>
  <path class="cls-1" d="M179.3,244.27l.07.23c-.01-.11-.04-.2-.07-.23"/>
  <path class="cls-1" d="M189.65,242.85s0-.03,0-.05c0,.02,0,.04,0,.05"/>
  <path class="cls-1" d="M181.89,251.84h0s0,.04,0,.06v-.06Z"/>
  <path class="cls-1" d="M179.72,251.48c.58.21.87,1.27,1.38.76.28.05.54-.23.79-.4.02-.85.35-.06.4-.78l.12.47c.02-.25.06-.42.14-.17v.14c.04-.37.16-.17.17-.35v.14s.1-.07.1-.07v.2c.09-.4.23-.44.37-.28l-.08-.57c.34.61.28-.6.62.14v.14c.11-1.56.62.98.73-.51-.01.19.05.29.07.44.12-.18.26-.29.12-1.42.1,0,.13.34.2.78-.07-.5,0-.71.07-.75v.2s.2-.2.2-.2l-.17-.93c.16.25.18,1.14.26.9l-.1-.77c.19.13.44,1.29.67,1.84.72.24,1.19-1.83,1.99-.54l.1.58c.12.85.01-1.28.14-.5l.02-.4c.04.15.1.31.09.5.07.02.06-.11.07-.38l.14.52c.32.38.42-.67.72-.5.48,1.04.98-.04,1.27-.66.35-1.34,1.38,1.97,1.72.45.03.12.04-.16.03-.26l.5.06s2.38.03-.3-6.79v-.18c-.33-.42-.51-.5-.57.46-.18-1.14-.23-.09-.34-.45v-.09c-.05.9-.43-.69-.48.12,0-.09-.04-.41,0-.43-.1.16-.22.43-.31-.23-.25.21-.66-.05-.7,1.03v-.19c-.02.73-.13.12-.19.5-.02-.09-.03-.13-.04-.17-.02.72-.3.15-.35.46l-.06-.44-.2.13.09.08c.13,1.22-.26-.74-.31.07-.16-.14.03,2.56-.2,1.99,0,.58-.06-.93-.11-.48-.08-.63,0-.4-.09-.91-.07.31-.26-.62-.33-.18l-.07-.49c-.05.92-.4-.61-.4.27-.12.43-.31-1.45-.36-.46l-.16-.66c-.09-.1.05.83-.08.51-.05-.42-.15-.32-.15-.73-.28-.63-.28.98-.68-.09.05.82-.14.35-.11.97-.05-.36-.27-.02-.22-.82,0-.06.03-.06.04.08l-.04-.49c-.26-.9-.2.54-.37.42.06.15.12.1.12.44l-.14-.05-.02-.41-.23-.21.09.5c-.13-.25-.28-1.1-.3-.37,0,.41.18.67.1.84-.18-.33-.44-.82-.63-.95.09.57.04.55,0,.67l-.07-.49c-.09.71-.2-1.08-.31-.51l-.03-.35.09,1.04c-.03,1-.22-1.01-.22.35.06-.09.17,1.08.06.88l-.04-.48c-.04.11-.03.31-.07.21,0-.26-.07-.69-.13-.6l-.03-.6-.02.89c-.17-.5-.25.16-.38-.5,0,0-.26-.3-.22.44-.02-.46-.16-.62-.19-1.16,0,.52-.1.97-.24.43v-.06c-.32-.53-.32.83-.64.17.08.57-.07.28.05,1-.14.75-.61-1.44-.41.84-.09.14-.19-.52-.26-.62v-.12c-.16.21-.22.24-.37.21-.05.23.08,1.28-.08,1.05-.01-.42-.06-.34-.11-.33.02-.07.01-.22-.09-.5,0,.13,0,.21,0,.28,0-.03-.01-.06-.01-.1-.06.16-.03.29.01.34,0,.06.02.15.05.26-.15-.53-.23.07-.34-.65-.23.2-.31.96-.48,1.27-.07-.37-.07-.7-.02-.85l-.13.15c-.07-.53.04-.32.08-.43-.28-.84-.25.9-.55.14v.43s-.01-.07-.01-.07c.03.22.02.53,0,.61-.09-.46-.14-1.07-.23-1.03-.14-.44-.2.25-.27.52.07.07.08.33.08.5-.05.02-.14-.44-.15-.23l-.08-.62c.1.59-.05.65-.04.91-.09-.46.03-.41,0-.76-.2.08-.1.04-.29.13-.05.48.1.59.11,1.14-.08.13-.12.58-.27.22l.11.55c-.12.45-.24.4-.43-.14-.75,4.69.51,6.21.51,6.21.68,1.16.74-.49,1.31-1"/>
  <path class="cls-1" d="M84.71,246.58l.71.33c0-.11-.17-.22-.71-.33"/>
  <path class="cls-1" d="M85.91,274.65c-.06.01-.13.01-.19.03.13,0,.17-.01.19-.03"/>
  <path class="cls-1" d="M113.21,256.9s-.03,0-.04,0c-.06.02-.14.03-.2.05l.24-.05Z"/>
  <path class="cls-1" d="M74.57,252.36c5.08,1,8.18,1.72,11.42,2.4,3.22.64,6.51,1.21,11.81,1.45,5.03.53,10.43.63,15.37.69,2.37-.73,6.48.2,9.26-.48l1.07.49c.96-.24,2.07-.4,3.03-.14l-.06.14c1.43-.35,3.03-.17,3.74-.35l-.06.14,1.73-.08-.29.2c2.48-.44,5.03-.53,7.29-.45l-.21-.57c2.42.24,4.05,0,5.64-.2,1.63-.22,3.18-.45,5.52-.37l-.04.15c2.79-1.16,5.1-1.41,7.56-1.95.61-.15,1.23-.31,1.85-.5.62-.23,1.26-.45,1.89-.79.3-.16.74-.41.65-.38.06-.04.11-.11.16-.19.11-.15.22-.38.39-.74-.15.35.07.3.04.5.12-.18.27-.37.4-.61.17-.29.32-.66.53-1.17.16-.23.36-.52.61-1.22.26.91-.03,1.23-.3,1.95.33-.75.69-.3.9.38-.08-.05-.16-.09-.24-.12.2.54.4,1.13.57,1.76.28-.2.56-.45.82-.74,0,.75-.28.85-.47,1.04-.2.16-.34.29-.1,1.24l.77-.12c.1,1.44-.19,2.59-.6,3.64-.42,1.07-.94,1.97-1.47,3.06-.59,2.37-1.68,4.61-3.18,6.2-.76.8-1.6,1.39-2.59,1.84-1.01.44-2.25.72-3.64.87-1.38.16-2.93.19-4.5.24-1.56.04-3.11.07-4.64.06-3.06-.01-6.06-.15-8.94-.5l-.51-.59c-.22-.86-3.18,1.27-3.62.47l-1.34.39c-.38-.15-1.17-.32-.5-.51-1.24-.03-1.27.11-2.16.37l-1.33-.53c-4.9-.42-9.06.61-14.21.4-3.1-.55-7.53-.55-11.97-.48-4.44.08-8.91.17-12.17.07-4.62.1-9.43-1.34-13.85-3.33-4.45-2-8.45-4.45-12.45-6.35-.17-.26-.92-.48-.97-.4-2.15-1.63-4.11-3.46-5.81-5.49,0,0-.38-.46-1-1.23-.62-.77-1.43-1.9-2.28-3.23-1.72-2.65-3.34-6.22-4.36-9.09-1.07-2.85-1.7-5-2.67-4.41-.45.3-.99,1.31-1.33,3.38-.32,2.06-.47,5.22.53,9.62l-.27-.14c.87,2.5,1.85,4.46,2.97,6.06,1.12,1.6,2.38,2.87,3.94,3.89-.24.59.46,1.44,1.35,2.19.86.79,1.92,1.45,2.25,2.01h-.15c.75.35,1.42.79,2.05,1.31.64.48,1.23,1.06,1.85,1.59,1.22,1.07,2.5,2.11,4.03,2.5-.15.02-.36.27-.99-.06,2.01,1.01,4.85,2.05,4.73,2.71,2.46,1.02,5.42,2.16,8.24,2.9,2.82.75,5.47,1.11,7.19.89l-.26.14c1.98-.38,2.41.33,4.53.26.1.1.24.17.21.2,2.1-.41,5.88.54,7.53.34l.08.45c1.34.05,2.67.09,4,.11l-1.49-.16c.57-1.2,2.99.91,5.89.17,2.7.21,5.46-2.48,8.21-1.88,1.32-.57-1.16.93.81.49.06.64-.92.4-.41.91,1.94-.3,3.17.66,5.56.23l.1.5c3.11-.91,5.87.66,7.95-.21,3.21-.41,2.15,1.48,5.49.51l1.3.67c1.43.11,1.03-.82,2.61-.5-.1.42,2,.34,1.08.74,3.59.67,7.29-.94,12.01.19,1.03-.82,3.41-.33,4.17-.95.06.18,1.26.2,2.16.25.9.05,1.46.15,0,.58-.25.07-.68.06-.65-.08l-.33.49c1.41.46,2.83.3,4.29-.09,1.46-.39,2.94-.99,4.66-1.55-1.07.24-2.37.58-1.58.03,1.03-.25,2.08-.64,3.09-1.14l-.46.68c1.59-.64,3.07-1.56,4.35-2.65-.28.03-.58.05-.86.07.99-.69,1.74-1.1,2.42-1.65.67-.55,1.24-1.28,1.61-2.59.24-1.19-1.7,1.47-.61-.64.89-1.2,1.84-2.81,2.54-4.64.36-.91.65-1.88.87-2.86.22-.99.35-1.98.41-2.89-.59.33-.53-.65-.68-1.63l.49-.13c-.43-1.88-.24-2.22.02-2.6.13-.19.26-.38.28-.74.01-.18,0-.41-.04-.71-.03-.15-.06-.31-.11-.49l-.04-.14c-.02-.08-.04-.16-.06-.25-.04-.17-.09-.35-.14-.53l.44.47c-.43-.49-.89-.92-1.32-1.3-1-2.32-.96-2.99-.98-3.91,0-.45-.04-.9-.24-1.53-.19-.62-.56-1.41-1.19-2.33.34.99.2,1.5-.08,1.45-.29-.06-.7-.59-.96-1.87.16-.01.33-.01.5,0-.47-1.22-.72-1.36-.93-2.39.39.41.55-.59-.13-2.57.25.13.51.28.77.47-.3-.46-.58-.91-.86-1.32-.07-.14-.13-.12-.19-.12-.06,0-.12,0-.18.02-.12.02-.24.06-.37.11-.02-.09-.05-.19-.07-.29-.04-.13-.08-.26-.13-.39-.11-.32-.23-.65-.36-.97-1.37,2.05-2.85,4.28-4.12,6.19-.3.43-.59.85-.86,1.23-.27.37-.53.78-.74.91-.44.38-.81.63-1.08.72,0,0-.09.09-.25.24-.16.14-.39.42-.69.63-.15.09-.32.2-.49.31-.15.08-.32.17-.49.26-.17.09-.36.19-.55.29-.79.4-1.7.85-1.95,1.34.49-.65-1.34-.23-1-.92-.32.39-1.11.85-1.99,1.16-.88.31-1.86.44-2.45.26l.2-.1c-2.07.05-3.85.4-5.65.69-1.82.28-3.66.55-5.69.27.21.57-1.95.33-1.39,1.05-4.2.88-7.69-1.33-9.19.97-1.92.12-2.27-.54-3.26-.66l.46-.12c-3.59.16-4.63.17-7.3.04-1.33.18-1.58,1.25-3.96.9.79-.39-.19-.35-1.08-.39.57-.04.76-.19-.4-.52-.17.12-.43.19-.67.25,0-.03-.05-.06-.03-.11-1.5.07-1.24.22-.55.31-.04.06.02.15.22.28-1.52-.63-4.32-.19-4.46-.93-4.48-.11-7.74.35-11.49.28-.38-.41.52-.66,1.61-.7l-2.65-.12c.08-.53,1.54-.15,2.37-.19-3.04-1.15-6.56.2-10.14-1.05l-.81.32-.21-.1c-.02.22-.88.42-1.44.42-.46-.54.18-1.05-1.63-1.28-1.37-.65-4.1-.35-5.99-.43.99.25.62.45.16.54-.9-.14-1.34-.68-2.06-.61l.03-.64c.24.65-2.44.2-2.82.37-.41-.56,1.45-.11,1.74-.42-3.55-.66-1.79-.3-5.29-1.06-1.97-.02.19.67-.83.97-1.68-.3-3.42-.34-5.16-1.33l.41.73c-3.19-.63-5.01-1.46-6.68-2.93-5.82-1.68-9.05-3.42-10.82-4.03-1.79-.61-2.1-.06-1.84.91.36,1.02,1.49,2.58,2.64,3.75.55.62,1.14,1.08,1.54,1.46.42.36.68.58.68.58,4.26,3.52,8.19,5.05,12.25,6.09,4.09,1.04,8.44,1.58,14.27,2.37"/>
  <path class="cls-1" d="M148.23,236.86l-.29-.28c-.01.11.05.21.29.28"/>
  <path class="cls-1" d="M66.33,226.81s-.05.03-.08.05c.05-.02.07-.03.08-.05"/>
  <path class="cls-1" d="M136.87,227.15h.02s.06-.02.09-.04l-.11.04Z"/>
  <path class="cls-1" d="M153.33,230.4c-4.29-.99-5.28-2.25-9.85-2.53-2.14-.43-4.47-.52-6.59-.72-1.12.69-2.76-.4-4.05.13l-.39-.54c-.44.18-.94.27-1.32-.04l.05-.13c-.66.27-1.32-.04-1.65.1l.05-.14-.75-.04.15-.18c-1.12.23-2.21.1-3.15-.21v.59c-1.97-.93-2.89.16-4.65-.86l.04-.14c-2.56,1.2-3.58-1.53-6.2-.42.33-.14-.09-.31-.05-.45-1.14.02-2.35-.05-2.51,1.08-.81-.12-.62-.44-.67-.89-.06.5-.79.61-1.43.56l.32-.15-1.84-.06.24.98c-.93-.39-.1-1.17-1.06-1.06l-.08.78c-1.32-.32-1.95-1.59-3.18-2.32-5.35-.98-11.35.34-16.21-1.56l-.16-.61c0-.87-1.52,1.12-1.62.31l-.62.33c-.15-.17-.48-.37-.17-.53-.54-.09-.56.05-.98.27l-.52-.59c-2.09-.64-4,.22-6.22-.21-2.6-1.33-7.71-.85-10.81-.46-2.17.51-4.46-.09-6.98-.41-2.5-.31-5.28-.33-7.48,1.26-.2-.06-.5.34-.46.44-1.44.52-2.83,1.18-4.15,2.01,0,0-.3.2-.78.54-.47.35-1.12.87-1.79,1.55-1.36,1.31-2.7,3.4-3.13,5.23-.22.91-.24,1.71-.07,2.27.16.56.5.85,1,.85.52,0,1.17-.31,2.1-.79.91-.48,2.11-1.13,3.69-1.61l.1.17c1.4-.94,2.21-1.4,2.72-2.85.76.87,1.29-.63,1.86-.46v.1c.29-.63.9-.69,1.47-.68.58,0,1.11.06,1.53-.46-.02.1.04.41-.19.49.68-.34,1.69-.79,1.86-.13,1.77-.52,4.46-.28,5.78-1.31l-.09.18c.76-.7.96-.08,1.82-.41.04.09.1.14.09.17.86-.67,2.43.05,3.13-.2v.45s1.7.04,1.7.04l-.62-.15c.33-1.2,1.21.88,2.51.21,1.13.26,2.57-2.31,3.72-1.61.63-.51-.59.88.3.52-.03.64-.44.36-.27.89.87-.22,1.31.79,2.38.46v.5c1.43-.77,2.47.9,3.45.13,1.43-.26.78,1.57,2.32.75l.49.73c.61.17.53-.77,1.18-.38-.09.42.83.43.39.78,1.48.82,3.25-.6,5.16.74.53-.77,1.51-.17,1.91-.75.01.36,2.05.29.81.94-.11.05-.28.02-.25-.12l-.19.47c1.06,1.05,2.17-.27,3.3,0-.32-.2-.78-.21-.44-.51l1.06.19-.27.38,1.56.43-.16-.53c.75.35.92,1.25,1.88.63.44-.35-.66-.77.18-.83,1,.47,2.5,1.17,3.81,1.49-.05-.58.3-.52.68-.59l-.02.5c1.49-.51.38,1.15,1.85.78l-.17.33.5-.99c1.39-.82.55,1.11,2.12-.05-.57.01-.12-1.12.53-.82l-.23.45c.39-.05.54-.24.78-.1-.26.23-.21.68.36.67l-.45.55,1.16-.74c.74.61,2.11.14,2.36.86,0,0,1.7.56,2.19-.12-.41.41.53.71.18,1.21.52-.46,1.91-.7,2.37-.08l-.11.05c1.89.83,3.48-.3,5.15.62,0-.58.89-.14.76-.9,1.93-.46,3.12,1.97,4.11-.2.85,0,.91.67,1.32.85l-.22.09c1.59.05,2.04.09,3.19.32.61-.13.86-1.17,1.86-.76-.4.37.04.35.42.41-.26.03-.36.17.11.53.09-.12.21-.18.33-.23,0,.03.02.06,0,.1.67-.05.58-.19.29-.3.02-.06.01-.15-.06-.28.59.64,1.88.25,1.85.98,1.97.13,3.48-.39,5.14-.41.12.4-.31.66-.8.73l1.17.05c-.09.53-.71.2-1.08.25,1.23,1.07,2.95-.41,4.43.63l.4-.36.08.08c.03-.22.44-.46.69-.5.15.5-.19,1.06.61,1.16.55.55,1.82.07,2.68-.05-.43-.15-.24-.38-.03-.51.4.05.55.55.89.4l-.07.63c-.06-.61,1.14-.46,1.33-.69.15.5-.68.29-.84.62,1.6.21.8.1,2.39.31.93-.33-.05-.61.44-1.09.78.01,1.59-.32,2.25.23l-.12-.6c1.4-.12,2.24.3,2.72,1.19,1.28.04,2.41.33,3.21.89.79.53,1.3,1.1,1.66,1.47.38.43.81.42,1.13.42.33-.03.6-.18.81-.4.2-.36.46-.9.48-1.48.07-.59-.02-1.23-.16-1.82-.15-.58-.38-1.09-.57-1.45-.08-.18-.21-.34-.27-.45-.08-.11-.12-.17-.12-.17-1.33-1.94-2.66-2.73-3.85-3.33-1.21-.56-2.33-.81-3.49-.94-.29-.03-.58-.05-.88-.06h-.44s-.34,0-.34,0c-.46.02-.93.04-1.42.06-.99.03-2.08.03-3.33-.07"/>
  <path class="cls-1" d="M81.4,16.62s0,.03,0,.06c0-.03,0-.04,0-.06"/>
  <path class="cls-1" d="M106.8,1.98c-.32-.17-.56-.37-.77-.57-.21-.2-.37-.41-.65-.61-.52-.37-1.07-.75-2.11-.66-.92-.26-1.97-.08-2.88,0-.43.84-1.2.03-1.66.75l-.22-.46c-.15.26-.33.44-.53.2v-.14c-.22.39-.53.2-.63.4v-.14s-.31.1-.31.1l.02-.2c-.38.45-.8.56-1.22.46l.15.56c-.96-.47-.93.8-1.84.23l-.03-.14c-.22.87-.62.73-1.05.58-.43-.15-.88-.28-1.04.57.04-.21-.15-.26-.2-.4-.33.31-.72.55-.27,1.61-.27.1-.36-.23-.57-.62.2.46.05.75-.14.87l.02-.22-.52.42.51.8c-.42-.11-.57-1-.76-.66l.34.7c-.48.06-1.25-.88-1.93-1.18-1.88.59-2.55,3.31-4.66,2.97l-.37-.47c-.47-.72.27,1.32-.19.67l.04.43c-.12-.1-.31-.19-.32-.4-.17.06-.1.19-.07.47l-.44-.36c-.81,0-.79,1.2-1.54,1.41-1.33-.46-2.27,1.3-2.76,2.34-.22.92-1.14.89-2.06.92-.92.02-1.86.12-2,1.15-.11-.07-.04.23.02.3-.38.25-.76.49-1.13.76,0,0-.34.24-.69.67-.36.42-.74,1.01-.83,1.65-.09.65.1,1.33.85,1.96.74.64,2.02,1.19,3.99,1.81l.1.16c.77-.08,1.12-.24.85-1.24.78.84.48-.24.83-.04l.05.08c-.25-.94,1.08.1.89-.76.04.08.23.34.17.41.12-.28.28-.71.69-.18.41-.53,1.34-.79,1.09-1.91l.08.17c-.2-.73.2-.27.22-.72.06.06.1.09.12.12-.18-.75.59-.52.61-.9l.25.37.4-.38-.22.03c-.6-1.07.75.43.66-.45.39-.06-.71-2.56-.06-2.25-.14-.59.35.88.35.36.34.54.1.41.43.8.07-.4.72.33.78-.22l.27.42c-.1-1,1.04.14.84-.76.17-.58,1.02,1.11.92.03l.5.48c.23-.01-.3-.78.06-.62.21.37.42.14.51.56.77.31.39-1.33,1.52-.7-.3-.78.23-.52,0-1.11.2.3.59-.28.67.58,0,.07-.05.09-.12-.04l.21.44c.78.61.31-.77.69-.82-.17-.09-.27.02-.36-.32l.32-.1.14.39.54-.03-.3-.41c.34.11.82.84.71.08-.08-.41-.52-.5-.38-.76.45.16,1.1.4,1.51.37-.29-.5-.18-.52-.14-.68l.23.44c.07-.8.61.92.73.25l.12.33-.35-.98c-.08-1.04.6.86.41-.53-.11.14-.51-.97-.24-.86l.15.46c.06-.14.01-.34.12-.28.04.27.24.66.36.52l.14.6-.07-.93c.4.4.5-.33.83.26,0,0,.14.03.26-.02.12-.05.22-.19.15-.56.06.46.36.55.46,1.09-.06-.53.15-1.05.44-.56v.07c.61.43.62-.99,1.21-.39-.14-.56.15-.29-.04-1.01.17-.4.45-.08.65.08.2.16.32.14.28-1.01.21-.15.32.51.43.61l-.04.12c.38-.24.5-.23.79-.19.14-.23.17-1.29.45-1.04-.1.42.02.34.12.35-.07.06-.09.22.03.51.02-.13.06-.21.09-.27,0,.03,0,.06,0,.1.18-.14.15-.27.08-.33,0-.06,0-.15-.02-.27.15.56.51,0,.47.72.51-.14.99-.78,1.51-1-.02.37-.19.68-.34.8.11-.03.22-.07.33-.08-.11.52-.23.26-.35.36.16.9.92-.67,1.15.2l.21-.39v.07c.06-.22.26-.48.36-.53-.06.47-.31,1.03-.06,1.08.07.49.63-.05.96-.21-.12-.12,0-.35.11-.49.13.02.07.49.22.33l-.17.61c.12-.58.51-.52.63-.75-.06.47-.31.33-.44.65.52.09.26.05.78.14.4-.38.12-.59.41-1.08.27-.05.63-.4.79.04l.07-.56c.57-.28.82-.14.95.49,4.61-3.38,2.48-5.76,2.48-5.76-.95-1.57-2.09-.21-3.76-.26"/>
  <path class="cls-1" d="M67.23,33.32l-.32.22c.1.03.21-.02.32-.22"/>
  <path class="cls-1" d="M115.26,25.63s-.02-.06-.04-.08c0,.05.02.07.04.08"/>
  <path class="cls-1" d="M59.44,47.05s0-.02,0-.02c-.04-.03-.07-.07-.1-.09l.11.12Z"/>
  <path class="cls-1" d="M62.07,26.84c-1.09,2.13-1.96,3.49-2.71,4.99-.71,1.52-1.42,3.15-1.5,6.16-.4,2.82.21,6.26,1.56,9.04.67.49,1.12,1.29,1.57,2.16.52.81,1.08,1.67,1.85,2.06l.04.76c.56.25,1.09.6,1.3,1.17l-.12.08c.85.27,1.39,1.01,1.8,1.12l-.11.09c.26.2.54.34.81.51l-.25.07c.68.23,1.29.56,1.88.86.59.3,1.13.64,1.63,1.01l.18-.57c.99.82,1.84,1.07,2.65,1.22.82.14,1.56.34,2.53.97l-.07.13c1.55-.35,2.52.06,3.58.53,1.05.4,2.17.85,3.63.15-.36.17.14.3.11.44,1.33-.1,2.74-.28,2.69-1.4.93-.04.78.29.94.73-.04-.5.75-.77,1.46-.89-.1.08-.21.16-.31.23.69-.14,1.38-.33,2.06-.5l-.58-.86c1.12.08.5,1.09,1.5.62l-.2-.76c.75-.1,1.43.07,2.1.25.69.2,1.39.41,2.2.41,3-.96,5.64-2.89,8-4.83,2.37-1.96,4.49-3.94,6.95-5.29l.58.27c.67.54.21-1.96.9-1.53l.17-.72c.23-.02.61-.16.53.19.44-.39.35-.5.45-.98l.82-.09c1.92-1.43,2.48-3.63,4.12-5.58,1.34-.94,2.61-2.92,3.39-5.2.81-2.34.96-4.65,1.01-6.32-.18-2.39.63-4.71,1.07-7.41.2-1.34.3-2.77.06-4.24-.07-.37-.15-.74-.25-1.1-.11-.37-.26-.73-.42-1.08-.33-.69-.8-1.44-1.31-1.9.01-.22-.46-.48-.54-.42-.86-1.43-1.91-2.69-3.04-3.8,0,0-1.03-1.03-2.54-2.01-1.5-1-3.45-1.92-5.03-2.29-1.59-.37-2.8-.24-2.99.74-.1.49.07,1.2.54,2.19.46.99,1.24,2.25,2.18,3.88l-.17.11c1.41,1.44,2.15,2.17,3.72,2.35-.67.95.94,1.13.88,1.71l-.1.03c.67.13.84.7.91,1.23.09.56.02.91.55,1.22-.1,0-.4.08-.49-.09.37.47.8,1.41.15,1.58.24.78.31,1.85.37,2.88.07,1.03.18,2.02.63,2.72l-.18-.11c.64.81,0,.95.22,1.81-.1.03-.15.08-.18.06.58.93-.37,2.33-.26,3.01l-.44-.08c-.11.51-.23,1.03-.38,1.51.1-.17.19-.33.28-.51,1.09.62-1.08.82-.82,2.11-.29.44.04,1.2.26,1.98.23.78.36,1.58-.22,1.92.17.79-.51-.93-.6.02-.54-.33-.12-.55-.66-.65-.2.84-1.27.71-1.53,1.75l-.42-.27c-.09,1.6-2.05,1.46-1.99,2.67-.64,1.29-1.69-.35-1.98,1.35l-.87-.08c-.51.35.27.9-.44,1.13-.27-.33-.85.34-.84-.22-1.53.54-1.63,2.79-3.88,3.15.18.92-.9,1.12-.79,1.81-.25-.25-1.64,1.09-1.19-.18.04-.11.18-.19.25-.07l-.18-.47c-1.4-.13-1.32,1.54-2.33,1.98.35-.03.69-.29.63.15l-.89.46-.03-.46c-.47.17-.93.35-1.39.5l.42.36c-.77.09-1.36-.54-1.76.43-.16.52.91.33.29.8-1.02.11-2.52.15-3.68.35.28.51-.03.59-.31.8l-.18-.47c-.97.95-.68-.95-1.65-.16l.03-.36-.1,1.07c-.45.57-.65.34-.83.16-.19-.18-.37-.32-.91.4.48-.13.35,1.07-.3.91l.11-.49c-.33.13-.43.34-.66.27.18-.29.06-.69-.43-.6l.3-.61c-.29.3-.59.6-.9.9-.72-.46-1.9.08-2.15-.59,0,0-.1-.02-.24-.05-.15-.04-.35-.08-.56-.1-.43-.04-.91.01-1.14.36.37-.41-.43-.72-.11-1.22-.45.44-1.72.66-2.02-.02l.1-.04c-.37-.25-.75-.35-1.1-.43-.35-.09-.71-.11-1.07-.14-.71-.05-1.39-.21-1.9-.82-.2.55-.73-.11-.92.63-.89-.04-1.27-.79-1.63-1.25-.38-.46-.63-.75-1.62-.07-.65-.37-.23-.97-.39-1.29l.19.04c-1.01-.77-1.17-1.11-1.66-1.89-.39-.28-1.37.13-1.56-.78.5.08.28-.2.18-.49.13.16.29.15.42-.31-.14,0-.25-.06-.34-.11.03-.01.05-.04.1-.04-.28-.44-.38-.33-.37-.07-.07,0-.14.05-.23.16.35-.67-.4-1.5.31-1.68-.36-1.48-1.04-2.77-1.08-4.34.39-.1.67.3.75.73.01-.35,0-.69.03-1.05.51.11.2.64.26.97.51-.53.41-1.17.35-1.88-.06-.7-.09-1.48.53-2.08l-.3-.44.1-.06c-.22-.07-.39-.5-.38-.74.52-.05,1,.38,1.24-.35.64-.4.42-1.7.53-2.56-.25.38-.43.14-.5-.1.14-.38.66-.39.61-.76l.59.23c-.61-.1-.15-1.21-.32-1.45.52,0,.1.73.38.96.62-1.44.3-.73.95-2.13-.03-.95-.6-.15-.9-.76.25-.7.23-1.58,1.02-2.07l-.61-.08c.4-1.42,1.03-2.09,2.06-2.4.88-2.64,1.97-4.25,2.41-5.32.44-1.08.08-1.6-.46-1.91-.68-.24-1.78-.1-2.67.19-.44.15-.83.32-1.11.46-.28.13-.44.24-.44.24-1.4.69-2.42,1.56-3.19,2.45-.78.9-1.33,1.83-1.78,2.8-.9,1.95-1.39,4.04-2.29,6.6"/>
  <path class="cls-1" d="M67.89,34.67l.28.06c-.07-.08-.16-.12-.28-.06"/>
  <path class="cls-1" d="M77.54,37.06h0s0,.05,0,.08v-.08Z"/>
  <path class="cls-1" d="M71.31,41.29c1.63-1.13,2.72-.61,4.01-2.22.82-.52,1.5-1.35,2.21-2.01-.12-.96,1.04-.73,1.09-1.63l.44.28c.02-.31.12-.56.42-.45l.07.12c.04-.46.43-.45.45-.68l.07.12.26-.24.06.2c.2-.6.64-.88,1.12-.98l-.34-.47c1.16.04.85-1.17,2.01-.97l.06.13c.19-1.9,2.05,0,2.34-1.83-.04.23.2.23.26.36.39-.41.84-.77.29-1.77.35-.18.46.15.71.51-.25-.44-.05-.78.21-.96l-.03.24.69-.58-.61-.74c.54,0,.66.95.94.53l-.38-.68c.65-.18,1.55.67,2.38.88,2.45-.96,3.98-4.05,6.75-3.9l.36.48c.42.75.02-1.43.45-.76l.07-.47c.14.1.36.18.32.41.24-.08.19-.21.24-.52l.48.36c1.07-.05,1.41-1.35,2.45-1.58,1.58.48,3.32-1.31,4.41-2.29.68-.92,1.85-.74,2.95-.51,1.12.21,2.17.46,2.92-.45.08.11.18-.19.16-.29.57-.08,1.14-.13,1.7-.18,0,0,.13-.02.34-.05.18-.04.55-.08,1.19-.26.6-.18,1.65-.51,2.63-1.53.23-.25.43-.49.71-.98.24-.43.37-.85.43-1.25.13-.78.02-1.44-.2-2.03-.23-.58-.59-1.11-1.1-1.52-.49-.41-1.17-.64-1.65-.62-.51,0-.81.21-.95.4-.13.2-.05.42-.03.67.09.24.25.5.32.83.08.32-.02.68-.28.9-.11.1-.33.2-.42.22-.08.02-.09,0-.02.01.07,0,.22.05.3.11l.03.02-.48-.4-.04-.04s-.1-.12-.17-.24l.03.05c-.09-.14-.19-.33-.31-.62-.05-.12-.12-.3-.17-.47l-.09-.29-.06-.21c-.02-.05-.11-.06-.22-.03-.23.07-.67.35-.95.87-.3-1.12-.92.02-1.24-.29v-.1c-.48,1.01-1.52-.46-1.99.48,0-.1-.05-.41.09-.46-.43.26-1,.66-1.2.02-1.06.44-2.69.61-3.04,1.85v-.19c-.17.81-.48.25-.79.76-.05-.07-.1-.11-.1-.14-.18.82-1.18.53-1.4.94l-.18-.41-.78.41.34-.03c.34,1.19-.9-.48-1.19.49-.61.09-.12,2.79-.89,2.48-.03.64-.14-.96-.36-.38-.27-.58.02-.45-.28-.87-.26.45-.9-.32-1.2.29l-.22-.44c-.24,1.11-1.45-.05-1.49.93-.45.67-1.06-1.13-1.3.07l-.55-.48c-.33.04.16.84-.29.7-.17-.39-.54-.1-.54-.56-1.01-.24-1,1.56-2.42,1.04.18.83-.5.64-.36,1.27-.19-.31-.94.43-.79-.53.01-.08.1-.11.16.02l-.17-.46c-.95-.54-.7.95-1.27,1.1.23.06.41-.08.43.28l-.5.19-.1-.42-.82.17.34.4c-.47-.04-1-.74-1.04.1.02.45.65.43.37.76-.62-.06-1.55-.15-2.21.04.33.47.16.54.06.73l-.26-.43c-.28.94-.75-.84-1.1-.01l-.11-.33.34,1c-.07,1.17-.8-.74-.76.78.2-.21.65.9.25.87l-.16-.46c-.12.18-.07.39-.23.36-.03-.28-.29-.64-.49-.43l-.13-.62-.03,1.03c-.61-.25-.85.63-1.33.13,0,0-.93.16-.73.9-.08-.49-.59-.4-.74-.93.06.57-.3,1.27-.82.94v-.08c-1.15.03-1.07,1.55-2.2,1.44.34.47-.23.46.26,1.02-.4,1.1-2.26-.34-1.3,1.76-.29.33-.72-.17-.97-.15l.02-.16c-.57.6-.74.76-1.27,1.05-.12.35.45,1.24-.13,1.34-.1-.44-.24-.25-.4-.14.07-.13,0-.28-.37-.35.05.13.05.23.04.31-.02-.02-.04-.04-.07-.08-.18.32-.06.39.1.35.03.06.09.12.2.18-.6-.24-.76.59-1.22.03-.71.75-.83,1.77-1.29,2.51-.3-.23-.36-.61-.26-.88l-.38.48c-.33-.42.07-.46.15-.66-1.1-.21-.6,1.59-1.73,1.53l.15.44-.08-.02c.15.17.21.52.16.66-.4-.27-.7-.81-1-.52-.55-.12-.55.79-.68,1.27.22-.1.34.14.38.33-.14.15-.54-.1-.52.15l-.45-.44c.47.37.05.83.18,1.07-.41-.25-.05-.51-.26-.8-.56.62-.29.3-.83.94.03.65.48.36.73.9-.18.36-.12.93-.7.99l.5.28c-.17.81-.48,1.09-1.23,1.07-.01,1.75.34,2.9.75,3.64.43.75.94,1.12,1.45,1.27,1,.33,1.88-.1,1.88-.1,2.08-.55,1.45-2.29,2.77-4.16"/>
  <path class="cls-1" d="M135.73,41.45l-.25.16c.11,0,.2-.03.25-.16"/>
  <path class="cls-1" d="M155.23,82.75s.03-.02.05-.04c-.03.01-.04.02-.05.04"/>
  <path class="cls-1" d="M128.45,50.02s0-.01,0-.01c-.03-.02-.04-.04-.07-.05l.07.06Z"/>
  <path class="cls-1" d="M128.95,37.9c-.44,1.63-.88,2.65-1.18,3.7-.3,1.04-.49,2.15-.16,3.78.01,1.58.46,3.2.84,4.63.94.53.37,1.92,1.23,2.51l-.4.4c.29.21.53.48.33.8l-.14.02c.44.31.34.8.56.95l-.14.02.18.46-.21-.03c.54.59.74,1.28.74,1.94l.55-.2c-.28,1.48,1.02,1.63.62,3.01l-.14.02c1.91,1.03-.28,2.66,1.61,3.72-.24-.13-.26.18-.39.21.39.64.74,1.35,1.82.98.16.5-.19.53-.58.74.47-.17.82.19.99.57l-.25-.11.57,1.05.8-.55c-.03.68-1.02.56-.59,1.04l.73-.29c.17.86-.75,1.77-.95,2.77.51,1.69,1.65,3.25,2.75,4.77,1.1,1.54,2.15,3.02,2.6,4.87l-.39.47c-.66.57,1.61.06,1.05.63l.57.09c-.05.19-.02.48-.3.44.21.33.33.25.71.3l-.14.67c.35.73.98,1.17,1.63,1.57.67.39,1.35.75,1.93,1.35.43,1.06,1.66,1.98,3.08,2.55,1.43.59,3.03.8,4.18.84,1.67-.16,3.14.65,4.99,1.15,1.83.51,3.97.59,5.38-.72.15.07.33-.29.29-.38.99-.35,1.96-.8,2.87-1.37,0,0,.85-.5,1.75-1.45.91-.92,1.81-2.35,2.04-3.62.13-.63.09-1.2-.1-1.62-.18-.42-.51-.67-.99-.76-.49-.09-1.14,0-1.94.15-.83.14-1.82.34-3,.34l-.11-.15c-.94.37-1.35.55-1.41,1.71-.69-.91-.74.31-1.14.07l-.02-.09c-.07.53-.45.49-.79.4-.35-.08-.67-.2-.84.25,0-.1-.07-.4.05-.45-.33.24-.84.6-.97-.07-.87.35-2.07-.06-2.92.86l.08-.17c-.51.65-.51,0-1.02.26,0-.09-.02-.14,0-.18-.62.57-1.26-.27-1.69-.14l.15-.42c-.28-.08-.56-.17-.84-.27l.26.23c-.65,1.05-.26-.97-1.19-.6-.22-.23-.82.16-1.43.45-.61.3-1.21.5-1.33.04-.62.25.8-.56.13-.51.38-.51.43-.18.64-.66-.56-.06-.19-.98-.89-1.03l.32-.39c-1.18.16-.53-1.41-1.48-1.17-.83-.32.78-1.35-.48-1.33l.34-.66c-.12-.33-.81.31-.77-.19.35-.23,0-.58.45-.64.07-1.04-1.77-.92-1.39-2.49-.84.2-.7-.56-1.33-.44.3-.2-.51-1.08.5-.85.08.02.12.11,0,.17l.47-.16c.51-1-1-.84-1.17-1.52-.06.25.1.47-.29.46l-.21-.6.43-.06-.17-.95-.41.33c.05-.53.78-1.02-.1-1.22-.46-.06-.45.68-.8.29.07-.72.19-1.79.03-2.6-.51.28-.57.07-.76-.09l.45-.21c-.96-.55.9-.69.09-1.28l.35-.05-1.05.16c-1.2-.38.82-.75-.74-1.08.2.29-.98.53-.92.06l.49-.06c-.17-.18-.39-.19-.35-.37.29.04.68-.17.49-.46h.64s-1.05-.3-1.05-.3c.33-.64-.54-1.17.04-1.58,0,0-.02-1.11-.79-1.12.5.06.49-.55,1.06-.55-.58-.1-1.23-.76-.79-1.23l.08.04c.21-1.3-1.32-1.76-.93-2.98-.55.2-.39-.44-1.07-.11-.99-.92.96-2.34-1.35-2.21-.24-.48.39-.71.44-1l.14.09c-.39-.89-.48-1.18-.55-1.85-.28-.29-1.35-.15-1.2-.81.45.13.33-.11.29-.34.09.14.25.15.48-.19-.14-.02-.23-.07-.3-.12.03,0,.05-.02.1-.02-.21-.35-.33-.27-.36-.08-.07,0-.14.03-.25.1.47-.48-.19-1.1.52-1.24-.31-1.1-1.11-1.85-1.44-2.82.37-.12.71.09.87.36-.06-.22-.12-.44-.16-.66.53,0,.31.37.44.57.83-.79-.9-1.61-.06-2.5l-.42-.21.07-.05c-.22-.01-.51-.24-.57-.38.48-.09,1.07.1,1.09-.33.46-.29-.09-.97-.27-1.48-.12.23-.36.1-.5-.03.01-.23.51-.25.35-.46l.62.12c-.6-.04-.49-.69-.73-.84.48,0,.31.43.64.57.13-.84.08-.41.26-1.22-.31-.59-.59-.12-1.04-.51.02-.43-.19-1,.34-1.29l-.57-.1c-.01-.93.32-1.4,1.11-1.51-.02-.48-.03-.93,0-1.33.01-.43.02-.81.03-1.16.05-.69.05-1.28-.01-1.76-.12-.95-.56-1.39-1.05-1.64-.55-.18-1.25-.02-1.83.19-.29.1-.52.24-.69.35l-.27.18c-1.79,1.02-2.49,2.47-2.89,3.92-.34,1.49-.38,3.08-.56,5.01"/>
  <path class="cls-1" d="M170.44,69.5l.3-.08c-.1-.04-.2-.04-.3.08"/>
  <path class="cls-1" d="M147.48,31.13s-.04.01-.06.03c.04,0,.05-.01.06-.03"/>
  <path class="cls-1" d="M180.71,63.57s0,.01,0,.01c.02.03.03.05.05.08l-.04-.09Z"/>
  <path class="cls-1" d="M175.5,75.31c.91-1.33,1.7-2.09,2.38-2.96.69-.85,1.29-1.83,1.72-3.58.66-1.59.92-3.47,1.11-5.18-.68-.93.34-2.25-.3-3.28l.5-.34c-.23-.35-.37-.73-.1-1.06l.14.02c-.37-.5-.16-1.05-.34-1.3l.14.02c-.02-.2-.04-.4-.08-.6l.21.09c-.44-.84-.52-1.7-.46-2.49l-.57.14c.41-1.73-.9-2.07-.5-3.66l.14-.02c-.98-.7-.94-1.44-.94-2.23,0-.78-.02-1.62-1.08-2.19.26.14.23-.22.37-.26-.52-.74-1.05-1.53-2.05-1-.28-.55.06-.61.41-.9-.43.25-.89-.12-1.16-.51l.28.09c-.27-.38-.6-.72-.9-1.08l-.63.75c-.17-.75.85-.8.27-1.25l-.63.46c-.46-.88.12-2.08-.14-3.24-1.3-1.75-3.26-2.94-5.07-3.91-1.82-1-3.52-1.88-4.68-3.37l.17-.58c.38-.77-1.48.6-1.19-.15l-.54.13c-.02-.19-.14-.45.13-.52-.3-.21-.38-.1-.74,0l-.08-.66c-1.07-1.08-2.66-.8-3.89-1.74-.54-.93-1.69-1.61-2.95-2.11-.63-.25-1.3-.46-1.92-.63-.64-.17-1.34-.34-1.89-.44-1.67-.09-2.96-1.19-4.61-2.16-.82-.48-1.73-.91-2.73-1.1-.49-.11-1.03-.11-1.54-.08-.52.05-1.06.21-1.55.43-.15-.11-.47.23-.45.33-1.26.13-2.59.61-3.81,1.27,0,0-.27.17-.69.49-.21.16-.47.35-.71.59-.24.25-.5.53-.76.83-.28.3-.48.65-.69,1.01-.21.36-.43.73-.57,1.11-.29.74-.37,1.28-.36,1.67.01.39.13.65.3.95.19.29.36.67.74.97.36.31.96.58,1.89.41.46-.08.98-.27,1.54-.51.56-.23,1.14-.51,1.72-.54l.13.13c.22-.1.4-.2.53-.3.15-.07.26-.13.33-.24.06-.12.12-.2.14-.37.02-.15,0-.4.02-.64.33.48.45.46.55.32.11-.12.24-.32.37-.18v.1c.09-.51.45-.36.71-.21.31.19.53.34.84-.02-.02.09-.04.41-.17.42.2-.06.43-.17.64-.14.21.03.35.15.32.49,1.04-.06,2.5.72,3.64.05l-.12.15c.7-.51.6.14,1.23,0,0,.09,0,.15-.01.18.79-.42,1.41.56,1.95.52l-.19.41,1.05.48-.33-.3c.72-1,.39,1.1,1.49.82.6.52,2.62-1.44,3.03-.52.62-.31-.75.64-.03.54-.3.57-.43.22-.55.73.64.02.49,1.03,1.31,1l-.22.45c1.24-.34,1.17,1.42,2.13.96,1.02.11-.19,1.58,1.15,1.23v.77c.29.3.67-.56.89-.05-.24.35.33.58-.11.79.53,1.09,2.28.26,2.75,1.91.69-.54.95.23,1.47-.16-.17.31,1,.79-.03,1.01-.09.02-.17-.06-.08-.17l-.35.35c.02,1.15,1.32.33,1.77.88-.06-.25-.29-.39.06-.54l.45.46-.36.23c.19.26.37.52.54.78l.25-.46c.17.5-.32,1.22.52,1.05.44-.12.19-.79.63-.56.19.67.38,1.67.71,2.33.41-.41.51-.24.73-.14l-.38.32c1.03.23-.7.86.17,1.17l-.32.14.98-.41c1.23.07-.66.85.89.84-.23-.23.87-.69.89-.23l-.47.15c.2.14.42.11.4.28-.3.01-.64.27-.43.52l-.62.1,1.05.12c-.23.64.64,1.05.1,1.5,0,0,.03.25.13.51.1.25.31.5.7.49-.5-.03-.48.54-1.04.57.57.05,1.2.67.76,1.11l-.08-.04c-.28,1.18,1.21,1.68.65,2.79.57-.12.32.45,1.04.23.44.5.07,1.03-.08,1.43-.17.41-.16.7.99.9.14.51-.55.58-.67.83l-.11-.12c.15.92.13,1.19,0,1.85.19.36,1.21.58.85,1.18-.38-.28-.35,0-.39.23-.04-.16-.18-.23-.51.01.12.07.18.15.23.22-.03,0-.06,0-.1-.01.06.41.2.38.3.21.06.02.14.02.27,0-.62.29-.22,1.14-.95,1.01-.14,1.18.28,2.24.15,3.33-.39-.03-.61-.38-.64-.7l-.13.72c-.5-.21-.14-.5-.16-.74-1.09.46.13,1.98-1.04,2.58l.29.38-.09.03c.2.1.38.44.37.61-.48-.08-.96-.49-1.16-.03-.57.15-.34,1.11-.38,1.71.21-.21.39,0,.47.18-.11.24-.6.13-.52.41l-.56-.3c.57.21.21.91.38,1.13-.48-.11-.14-.56-.41-.79-.48.93-.24.46-.74,1.38.11.73.56.23.88.75-.16.49-.07,1.14-.7,1.42l.57.15c-.17,1.04-.55,1.49-1.38,1.69-.19,4.25.8,5.48,1.92,5.63,1.11.15,2.3-.8,2.3-.8,2.7-1.71,2.28-3.93,3.74-7.27"/>
  <path class="cls-1" d="M147.26,34.65l-.06.28c.08-.08.11-.17.06-.28"/>
  <path class="cls-1" d="M166.45,68.87s.04.01.06.01c-.03-.02-.04-.02-.06-.01"/>
  <path class="cls-1" d="M145.05,44.12h0s-.04,0-.07,0h.07Z"/>
  <path class="cls-1" d="M140.84,38.41c1.14,1.54.68,2.63,2.25,3.76.52.74,1.31,1.33,1.95,1.95.93-.17.69.92,1.56.92l-.28.43c.3,0,.55.08.43.37l-.12.07c.45.01.43.38.65.39l-.12.07.22.23-.2.06c.57.17.84.57.91,1.01l.48-.33c-.1,1.1,1.11.78.85,1.88l-.13.06c1.85.17-.13,1.93,1.65,2.21-.22-.04-.24.19-.37.24.38.37.7.8,1.72.3.15.34-.19.43-.56.67.45-.22.78-.03.93.22l-.23-.03.52.67.78-.56c-.05.52-.99.6-.6.88l.7-.34c.13.62-.79,1.45-1.06,2.23.74,2.36,3.66,4,3.38,6.69l-.49.34c-.76.4,1.42.06.74.47l.47.08c-.11.13-.19.35-.42.3.07.24.2.19.52.25l-.37.47c.04,1.07,1.32,1.41,1.56,2.45-.47,1.59,1.42,3.32,2.51,4.31.98.6.92,1.76.84,2.85-.08,1.11-.21,2.11.75,2.65-.1.09.2.14.3.1.13.5.21.98.29,1.46,0,0,.08.42.25.94.17.53.41,1.14.79,1.65.4.5.98.95,1.96.95.94-.03,2.43-.49,4.01-2.66l.19.03c.33-1.24.26-2.06-.84-2.59,1.09-.4-.12-.93.17-1.27h.1c-1.04-.39.27-1.57-.7-1.91.09,0,.4-.11.46.03-.3-.39-.76-.88-.16-1.16-.57-.96-.89-2.43-2.13-2.58l.19-.04c-.81-.04-.3-.39-.8-.61.07-.06.1-.1.14-.11-.82-.06-.58-1.01-.99-1.18l.4-.2-.42-.68.04.31c-1.16.42.45-.86-.51-1.06-.08-.55-2.77.06-2.46-.69-.63,0,.95-.17.38-.35.58-.28.44,0,.86-.3-.44-.23.33-.85-.27-1.12l.45-.22c-1.09-.19.1-1.35-.86-1.37-.64-.42,1.16-1.01,0-1.22l.5-.52c-.02-.31-.84.15-.67-.27.39-.16.14-.51.58-.5.3-.94-1.47-.95-.85-2.29-.84.15-.59-.49-1.22-.37.32-.17-.35-.9.59-.73.08.02.1.1-.03.15l.47-.14c.61-.88-.88-.69-.97-1.24-.08.21.05.39-.32.4l-.15-.49.42-.08-.1-.79-.42.31c.09-.44.82-.93-.02-1-.45,0-.48.61-.79.32.11-.59.27-1.49.13-2.14-.49.3-.55.13-.73.03l.44-.23c-.92-.32.88-.7.09-1.07l.34-.1-1.02.29c-1.15-.12.79-.75-.73-.77.2.2-.93.6-.88.21l.47-.14c-.17-.12-.38-.08-.34-.24.28-.02.65-.26.46-.47l.62-.11-1.02-.06c.28-.59-.58-.85-.06-1.31,0,0-.11-.92-.86-.74.49-.06.42-.57.96-.71-.57.05-1.26-.32-.9-.83h.08c0-1.13-1.51-1.07-1.38-2.18-.47.33-.45-.23-1.02.25-1.08-.38.36-2.24-1.73-1.26-.33-.27.17-.71.15-.95l.16.02c-.59-.55-.76-.71-1.05-1.22-.35-.11-1.23.49-1.33-.08.44-.12.25-.24.13-.4.13.06.28,0,.34-.38-.13.05-.22.06-.31.06.02-.02.04-.05.08-.07-.32-.17-.39-.04-.34.11-.06.03-.11.09-.18.2.23-.6-.6-.71-.06-1.19-.74-.66-1.76-.7-2.49-1.1.22-.31.59-.39.85-.31l-.48-.34c.4-.35.45.04.64.1.2-1.1-1.57-.47-1.53-1.58l-.42.17.02-.08c-.16.16-.5.24-.64.21.26-.4.78-.74.49-1,.11-.54-.78-.47-1.24-.58.1.21-.13.34-.32.4-.15-.13.1-.54-.15-.5l.43-.46c-.36.48-.81.11-1.04.24.24-.41.49-.08.77-.3-.61-.5-.3-.25-.91-.74-.63.06-.35.49-.87.76-.35-.16-.9-.07-.96-.63l-.28.5c-.79-.13-1.04-.44-1.01-1.16-3.38.11-4.53,1.22-4.89,2.19-.36.98.07,1.88.07,1.88.57,2.11,2.32,1.48,4.19,2.68"/>
  <path class="cls-1" d="M91.4,74.49l-.15-.2c.03.1.08.18.15.2"/>
  <path class="cls-1" d="M74.74,100.19s.02.03.04.04c-.01-.03-.02-.04-.04-.04"/>
  <path class="cls-1" d="M82.78,70.8h0s0-.05,0-.08v.08Z"/>
  <path class="cls-1" d="M91.78,67.12c-1.36,0-2.27-.1-3.22-.05-.94.06-1.96.33-2.99,1.21-1.17.61-2.05,1.65-2.78,2.52.2.97-1.03,1.04-.9,1.96l-.51-.15c.05.31.03.59-.3.58l-.1-.1c.09.46-.28.57-.23.8l-.1-.1-.17.31-.12-.17c-.01.63-.28,1.04-.68,1.29l.49.32c-1.07.36-.27,1.32-1.36,1.54l-.11-.09c.69,1.7-1.78.75-1.15,2.44-.08-.21-.28-.12-.39-.2-.13.49-.33.98.63,1.6-.2.28-.45.05-.85-.15.42.27.44.63.32.88l-.1-.21-.26.75.88.36c-.44.21-1.04-.51-1.05-.06l.67.4c-.43.4-1.61.09-2.39.28-1.48,1.87-.86,4.98-3.02,6.3l-.57-.17c-.79-.33.89,1.08.14.82l.25.39c-.17,0-.38.06-.5-.13-.13.2,0,.26.16.52h-.59c-.76.68-.13,1.81-.7,2.61-1.46.66-1.34,3.05-1.21,4.48.3,1.08-.5,1.87-1.24,2.9-.73,1-1.37,2.33-.58,3.59-.12.09.17.29.27.28.01.76.09,1.52.26,2.29,0,0,.15.7.61,1.56.45.86,1.3,1.84,2.25,2.24.95.42,1.81.22,2.26-.64.51-.83.64-2.4,1.8-3.98l.17-.08c.18-.59.24-.78-.78-.9,1.1-.32.03-.45.38-.65h.09c-.46-.1-.29-.31-.1-.47.19-.17.4-.32,0-.5.09.02.4.04.42.11-.14-.23-.36-.61.31-.55-.12-.6.41-1.42-.47-2.2l.17.09c-.61-.48,0-.38-.24-.8.09.01.14,0,.17.02-.58-.53.21-.93.02-1.29l.42.14.14-.67-.18.2c-1.11-.52.9-.2.34-.95.31-.36-2.01-1.82-1.27-2.05-.44-.43.78.55.51.06.59.24.31.3.81.42-.15-.43.82-.25.58-.81l.46.18c-.62-.86,1.01-.67.36-1.34-.15-.68,1.5.27.85-.65l.7.08c.2-.17-.67-.51-.26-.62.38.2.45-.16.75.15.86-.26-.3-1.54,1.06-1.75-.66-.53-.03-.67-.52-1.07.33.15.43-.7.91.07.04.06,0,.12-.13.05l.41.27c1.03.03-.07-.97.28-1.31-.21.04-.26.22-.49-.05l.26-.34.32.27.51-.43-.49-.17c.38-.14,1.19.19.73-.47-.27-.34-.74-.08-.72-.45.5-.19,1.27-.46,1.66-.83-.52-.25-.43-.36-.46-.55l.44.24c-.31-.83,1.04.39.86-.36l.27.22-.81-.67c-.58-.94,1.01.31.17-.87-.04.23-.99-.49-.66-.61l.37.31c0-.18-.15-.33-.01-.36.17.21.57.41.61.18l.43.45-.52-.83c.6,0,.35-.77.98-.51,0,0,.65-.39.13-.93.3.37.66.16,1.05.55-.33-.44-.39-1.12.19-.97l.03.07c.91-.3.13-1.55,1.09-1.68-.48-.32-.02-.42-.66-.79-.15-1.02,1.93-.04.32-1.67.1-.32.65.07.83.03l.05.13c.22-.54.32-.67.63-.92-.02-.29-.75-1.07-.3-1.15.2.39.26.23.36.14-.02.11.07.24.39.33-.07-.11-.1-.2-.12-.27.02.02.05.04.07.07.06-.25-.05-.33-.17-.3-.04-.05-.1-.11-.2-.17.53.26.47-.45.94.11.37-.51.33-1.37.68-1.89.23.3.28.64.23.85.08-.1.16-.19.25-.29.25.48-.03.36-.07.51.38.29.46-.01.54-.29.07-.29.21-.59.55-.29l-.04-.43.05.06c-.07-.21-.05-.54,0-.63.19.43.28,1.03.48.96.25.4.41-.32.63-.59-.13-.07-.13-.33-.09-.5.13-.03.23.43.31.22l.05.63c-.09-.6.26-.65.31-.91.07.46-.18.41-.19.76.43-.07.21-.03.64-.08.28-.44,0-.6.18-1.13.24-.1.58-.49.79-.06l.03-.56c.59-.31.94-.11,1.01.53,1.29-.67,2.52-.87,3.35-1.17.83-.3,1.23-.79,1.49-1.24.16-.52.01-1.17-.23-1.64-.24-.47-.53-.79-.53-.79-1.07-1.43-2.42-1.79-3.67-1.77-1.28.04-2.51.44-4.02.79"/>
  <path class="cls-1" d="M81.17,111.99l.09.28c.03-.1.02-.2-.09-.28"/>
  <path class="cls-1" d="M103.94,79.37s-.04-.02-.06-.03c.03.02.04.03.06.03"/>
  <path class="cls-1" d="M88.68,120.94s-.02,0-.02,0c-.02.03-.05.04-.07.06l.08-.07Z"/>
  <path class="cls-1" d="M75.7,117.38c1.48.94,2.39,1.67,3.39,2.3,1.01.61,2.13,1.13,4.04,1.25,1.78.39,3.76.27,5.53.01.76-.88,2.34-.25,3.18-1.16l.48.38c.29-.31.62-.58,1.03-.42l.02.14c.4-.48,1-.48,1.18-.73l.03.14.56-.28-.03.22c.71-.67,1.49-1.08,2.29-1.31l-.33-.48c.9-.11,1.34-.54,1.73-.96.4-.41.76-.8,1.6-.98l.07.12c.28-1.2.97-1.51,1.72-1.88.73-.37,1.51-.84,1.53-2.09,0,.31.3.09.41.19.43-.86.86-1.81-.13-2.37.32-.55.57-.29,1-.16-.44-.23-.37-.82-.19-1.28l.08.29c.15-.45.29-.91.4-1.36l-.97-.1c.51-.56,1.15.25,1.17-.48l-.74-.26c.47-.85,1.77-1.05,2.58-1.83.69-1.89.64-3.86.74-5.64.09-1.75.39-3.49,1.47-4.96h.61c.85.14-1.01-1.22-.21-1.16l-.29-.48c.17-.08.39-.27.53-.03.12-.36-.02-.4-.21-.72l.61-.28c.73-1.4-.04-2.89.36-4.5.66-.92.79-2.49.54-4.04-.23-1.56-.87-3.09-1.42-4.15-.99-1.42-1.07-3.19-1.64-5.13-.3-.96-.67-1.9-1.35-2.76-.66-.82-1.51-1.48-2.52-1.71-.04-.17-.45-.13-.51-.04-.95-.65-1.99-1.18-3.1-1.58,0,0-1.01-.39-2.46-.47-1.43-.11-3.32.22-4.51,1.05-.6.41-1.01.87-1.18,1.33-.17.45-.08.86.23,1.24.32.39.89.71,1.61,1.14.71.43,1.58,1.01,2.33,1.87l-.03.19c.85.44,1.21.64,2.15-.05-.29,1.11.68.4.74.85l-.06.07c.45-.26.66.06.77.39.14.32.19.65.66.52-.08.05-.29.28-.4.22.38.12.92.34.42.79.74.55,1.07,1.87,2.29,2.17l-.19.02c.82.14.27.46.76.8-.08.05-.11.09-.15.1.82.27.41,1.31.76,1.64l-.44.09c.07.31.15.62.2.94l.06-.37c1.24.03-.7.78.11,1.44-.15.62,2.53,1.47,1.86,2.23.53.42-.89-.4-.51.18-.64-.04-.37-.29-.89-.2.25.55-.73.76-.4,1.44l-.5-.05c.78.97-.9,1.42-.16,2.13.22.95-1.56.26-.82,1.36l-.74.19c-.2.36.74.47.32.82-.4-.13-.47.47-.79.12-.88.82.4,2.23-1.02,3.32.73.49.08,1.07.64,1.44-.36-.04-.37,1.39-.96.43-.05-.08,0-.2.13-.16l-.45-.2c-1.08.6.18,1.56-.12,2.28.21-.19.23-.5.51-.23l-.21.68-.37-.23-.45.96.53-.03c-.36.44-1.25.41-.66,1.1.33.33.77-.29.81.24-.49.56-1.23,1.34-1.59,1.99.57.1.49.29.53.52l-.48-.13c.4.95-1.12-.09-.86.76l-.3-.18.9.56c.64,1-1.06-.1-.15,1.1.05-.29,1.05.36.69.6l-.38-.3c0,.22.14.37,0,.44-.17-.23-.58-.39-.64-.11l-.44-.45c.18.29.34.58.5.88-.63.06-.48.94-1.13.65,0,0-.19.12-.33.29-.15.18-.23.44-.04.77-.21-.44-.67-.23-.96-.71.24.51.03,1.28-.53,1.02v-.08c-.54.08-.73.46-.97.83-.23.37-.49.72-1.04.62.31.49-.26.43.18,1.03-.27.54-.85.39-1.24.34-.4-.03-.64.04-.47,1.2-.41.25-.67-.37-.92-.42l.07-.15c-.75.38-1,.44-1.62.47-.28.26-.22,1.33-.85,1.11.16-.44-.07-.34-.29-.32.14-.08.17-.23-.13-.5-.03.13-.09.21-.15.28,0-.03-.01-.06-.01-.1-.36.16-.3.29-.12.34,0,.06,0,.15.07.26-.39-.52-1.09.03-1.1-.7-1.08.11-1.99.74-3.01.81-.03-.39.27-.66.56-.75-.23,0-.45,0-.68,0,.13-.52.44-.21.66-.28-.29-.49-.71-.38-1.17-.27-.46.11-.97.19-1.27-.33l-.32.33-.03-.09c-.07.21-.38.42-.54.44.05-.48.4-.99-.02-1.15-.15-.55-1.01-.2-1.56-.22.19.19,0,.38-.18.48-.22-.1-.12-.57-.37-.48l.29-.56c-.21.57-.83.26-1.04.43.14-.46.51-.15.74-.43-.78-.42-.4-.2-1.14-.65-.67.1-.28.53-.8.84-.42-.17-1.07-.12-1.17-.76l-.26.52c-.93-.29-1.27-.8-1.14-1.58-1.82-.6-3.05-1.5-3.94-1.92-.9-.42-1.49-.21-1.95.1-.42.47-.59,1.32-.57,2.05.01.36.05.69.09.92.04.23.08.37.08.37.46,2.38,1.73,3.67,3.08,4.54,1.39.88,2.95,1.4,4.84,2.18"/>
  <path class="cls-1" d="M97.6,77.7l-.26.04c.1.03.2.03.26-.04"/>
  <path class="cls-1" d="M88.06,106.34s.02.03.04.04c-.01-.02-.02-.04-.04-.04"/>
  <path class="cls-1" d="M88.7,79.59h0s-.03-.04-.05-.05l.04.05Z"/>
  <path class="cls-1" d="M91.23,74.03c-.78,1.42-1.94,1.48-2.05,3.19-.33.72-.37,1.6-.49,2.37.68.62-.31.96.22,1.6h-.51c.18.23.28.44-.01.5l-.13-.05c.27.33-.01.5.12.66l-.13-.05-.03.28-.17-.11c.24.49.14.88-.14,1.16l.56.16c-.86.51.2,1.15-.75,1.56l-.13-.05c1.18,1.31-1.42.96-.33,2.26-.14-.16-.3-.05-.43-.1.03.44-.03.88,1.05,1.25-.11.28-.42.12-.85.01.47.16.59.47.54.7l-.15-.16-.05.69.93.18c-.37.25-1.12-.28-1.01.11l.74.25c-.3.41-1.52.31-2.21.57-.94,1.76.27,4.4-1.62,5.69l-.58-.11c-.82-.24,1.04.88.27.7l.3.33c-.16,0-.36.08-.51-.09-.09.18.04.23.24.44l-.57.03c-.64.6.12,1.56-.33,2.27-1.35.58-.99,2.65-.77,3.85.74,1.83-3.05,2.39-2.15,4.31-.13,0,.09.22.18.25l-.56,1.29s-2.48,6.34,5.9,3.71l.16.09c.68-.58.92-1.01.2-1.81,1.12.29.31-.56.73-.61l.08.05c-.69-.73,1.01-.68.4-1.36.08.05.38.16.36.26-.03-.36-.13-.87.51-.68.08-.8.73-1.74-.13-2.56l.16.09c-.59-.5.02-.39-.23-.81.09.01.14,0,.17.02-.58-.52.18-.9-.02-1.24l.43.13.1-.62-.16.19c-1.14-.47.88-.2.27-.88.28-.35-2.14-1.62-1.43-1.85-.48-.38.82.47.51.03.61.19.33.27.84.35-.19-.39.78-.27.49-.77l.48.14c-.7-.76.92-.68.2-1.26-.23-.61,1.51.15.76-.67l.7.02c.18-.18-.73-.42-.34-.55.4.15.42-.19.76.07.81-.33-.52-1.4.78-1.75-.73-.42-.14-.62-.69-.93.35.09.3-.7.9-.05.05.05.02.11-.11.06l.45.2c1.01-.11-.23-.9.04-1.25-.19.07-.21.24-.49.03l.19-.35.36.21.42-.48-.51-.09c.34-.19,1.19,0,.61-.54-.34-.27-.74.04-.79-.3.45-.25,1.13-.63,1.43-1.05-.56-.14-.5-.26-.56-.42l.48.14c-.49-.71,1.1.17.74-.5l.31.15-.94-.46c-.79-.76,1.06.09-.05-.83.01.22-1.07-.26-.79-.43l.44.21c-.05-.16-.23-.27-.1-.33.22.16.65.26.64.04l.53.32-.71-.65c.58-.12.12-.77.8-.67,0,0,.52-.5-.14-.88.4.27.68-.01,1.16.26-.44-.32-.69-.93-.1-.94l.05.06c.77-.51-.34-1.43.52-1.83-.56-.16-.15-.38-.88-.54-.48-.87,1.82-.69-.27-1.65-.02-.33.62-.17.79-.29l.09.11c0-.61.04-.77.23-1.16-.14-.27-1.14-.64-.77-.92.36.25.34.08.38-.06.03.11.17.18.5.1-.12-.07-.18-.13-.23-.19.03,0,.06.01.1.03-.07-.27-.2-.28-.29-.19-.06-.02-.14-.04-.26-.05.6-.06.19-.67.88-.46.07-.73-.48-1.46-.55-2.12.38.06.64.29.73.5v-.44c.51.17.22.33.28.49.98-.2-.49-1.26.46-1.57l-.36-.25h.08c-.21-.08-.46-.3-.5-.41.47.07,1.02.35,1.09.06.5-.08,0-.7-.15-1.06-.13.13-.36,0-.49-.12.03-.14.5-.07.35-.25l.6.19c-.59-.12-.48-.58-.7-.74.48.05.3.38.62.53.16-.68.08-.33.23-1.06-.36-.5-.59-.08-1.08-.4-.04-.35-.41-.73.02-1.05l-.57.04c-.35-.65-.28-.93.26-1.38-.62-.55-1.29-.8-1.87-.9-.58-.1-1.09-.05-1.49.03-.8.14-1.32.32-1.69.65-.76.43-1.16.56-1.16.56-.29.08-.43.08-.44.07,0,0,.01-.02.06-.04.04,0,.11,0,.18.05.15.07.32.25.46.49.13.25.25.5.19,1.02"/>
  <path class="cls-1" d="M108.46,71.18v.31c.07-.08.09-.19,0-.31"/>
  <path class="cls-1" d="M102.95,113.6s0,.04,0,.07c.01-.04,0-.05,0-.07"/>
  <path class="cls-1" d="M105.81,80.53h0s-.04,0-.06-.01h.07Z"/>
  <path class="cls-1" d="M102.7,75.89c.56.52.71,1.09.87,1.57.15.5.34.89.92,1.31.3.55.91,1.13,1.31,1.76.92.02.37.92,1.16,1.15l-.41.3c.28.08.47.23.26.44l-.14.02c.41.14.25.46.45.54l-.14.02.12.27-.21-.02c.45.35.53.8.39,1.2l.57-.09c-.58.89.64,1.17-.14,1.98h-.14c.76.5.48.92.17,1.29-.3.39-.62.73.03,1.36-.16-.16-.3.02-.44-.02.1.51.08,1.04,1.21,1.26-.09.37-.41.24-.85.2.49.09.63.46.6.75l-.16-.17-.03.87.96.05c-.38.39-1.15-.16-1.03.32l.76.19c-.31.59-1.55.64-2.28,1.05-.52,1.15-.57,2.53-.78,3.89-.11.68-.25,1.35-.51,1.96-.26.6-.64,1.2-1.18,1.55l-.58-.15c-.8-.32.91,1.09.15.83l.24.4c-.17,0-.39.06-.5-.14-.14.2-.01.26.14.54l-.59-.02c-.79.6-.3,1.81-1.04,2.51-.38.09-.7.29-.98.55-.27.27-.48.62-.7.98-.39.75-.72,1.61-1,2.26-.25,1.07-1.39,1.29-2.44,1.33-.53.03-1.04.05-1.48.15-.22.06-.41.15-.58.29-.18.12-.33.3-.46.55-.1-.09-.13.22-.09.31-.5.19-1.04.26-1.54.4,0,0-.12.03-.31.08-.19.05-.46.13-.76.24-.3.13-.65.21-.99.38-.34.17-.68.36-.98.57-.59.45-1.04,1.11-.89,2.07.08.48.31,1.03.8,1.67.49.64,1.24,1.37,2.41,2.06l-.02.19c.65.14,1.18.17,1.63.02.44-.15.8-.43,1.08-1.01.46,1.06,1.01-.2,1.4.07v.1c.4-1.08,1.77.1,2.13-.94.01.1.13.39-.01.48.43-.38.97-.94,1.32-.37.56-.37,1.23-.79,1.81-1.23.56-.48.98-1.03.99-1.69l.07.18c-.08-.85.4-.46.56-1.08.08.05.13.06.15.09-.07-.84,1-1.05,1.07-1.56l.33.3c.21-.26.43-.51.61-.78l-.32.21c-.81-.93,1.06-.03.95-1.1.57-.43-1.18-2.61-.32-2.73-.29-.59.6.77.5.13.53.36.2.41.68.61.01-.56.97-.27.94-.99l.43.25c-.36-1.12,1.31-.91.83-1.78,0-.88,1.55.22,1.07-.96h.75c.26-.27-.63-.58-.17-.8.38.2.51-.32.78.06.48-.27.48-.82.48-1.3,0-.48.07-.97.8-1.26-.68-.53-.02-.85-.53-1.24.34.1.45-1,.96-.15.04.07,0,.16-.13.1l.43.25c1.09-.26-.06-1.25.28-1.79-.22.12-.26.37-.52.1l.26-.52.35.25.52-.75-.52-.05c.39-.31,1.26-.19.73-.88-.31-.33-.78.17-.79-.31.51-.43,1.27-1.12,1.62-1.81-.57-.09-.5-.28-.55-.51l.49.11c-.46-.95,1.14-.01.8-.94l.32.15-.96-.45c-.8-.93,1.1-.16-.05-1.25.02.33-1.1-.08-.82-.41l.45.19c-.06-.23-.24-.34-.11-.46.23.17.68.2.65-.14l.55.32-.76-.76c.6-.38.05-1.22.75-1.33,0,0,.45-1.02-.28-1.32.44.25.66-.32,1.19-.11-.49-.32-.89-1.14-.32-1.45l.06.06c.59-1.24-.79-2.06-.19-3.2-.57.1-.32-.5-1.04-.28-.41-.51-.13-1.05-.01-1.5.1-.45.02-.79-1.13-.74-.23-.45.38-.7.44-.99l.15.09c-.43-.89-.54-1.14-.72-1.84-.33-.27-1.35.06-1.33-.6.46.03.3-.18.2-.4.12.11.29.1.41-.31-.14.01-.24-.02-.33-.05.03-.02.05-.04.09-.05-.3-.3-.39-.18-.37.01-.06.02-.13.07-.21.17.34-.61-.54-.99.08-1.38-.74-.99-1.87-1.3-2.68-1.86.22-.32.62-.35.91-.21-.19-.16-.36-.33-.56-.47.42-.35.51.12.72.23.08-.62-.41-.83-.88-1.02-.49-.19-.97-.35-1.09-.98l-.44.18v-.09c-.14.17-.51.26-.66.22.19-.45.7-.82.28-1.11-.04-.62-1.06-.5-1.62-.56.19.22-.03.39-.21.46-.21-.11-.1-.58-.36-.5l.29-.56c-.21.56-.88.23-1.08.43.09-.48.53-.19.75-.46-.93-.41-.46-.23-1.4-.58-.68.23-.15.58-.59,1-.46-.07-.99.23-1.35-.29v.58c-.89.19-1.28.05-1.73-.59-1.65.92-2.22,2.02-2.43,2.82-.21.82-.15,1.46.12,1.92.18.49.4.82.57,1.03.17.23.29.34.29.34.48.64.78.61,1.31.44.51-.17,1.23-.44,2.07-.19"/>
  <path class="cls-1" d="M133,42.73l-.29.1c.1.04.2.02.29-.1"/>
  <path class="cls-1" d="M149.94,83.63s.04-.02.06-.03c-.04,0-.05.02-.06.03"/>
  <path class="cls-1" d="M123.14,48.65h0s-.03-.06-.05-.08l.04.08Z"/>
  <path class="cls-1" d="M127.4,37.5c-.74,1.35-1.46,2.11-2.03,2.97-.29.43-.57.87-.82,1.41-.23.55-.41,1.2-.56,2.01-.53,1.49-.71,3.2-.86,4.75.67.86-.31,2.03.28,2.98l-.52.28c.19.32.35.69.07.97l-.14-.03c.33.48.09.97.26,1.21l-.14-.02.03.55-.19-.1c.35.8.41,1.61.24,2.33l.58-.08c-.33.77-.11,1.29.05,1.78.17.49.31.95.02,1.69h-.14c.9.76.76,1.45.62,2.2-.12.73-.19,1.51.74,2.19-.23-.17-.26.18-.4.2.36.77.8,1.56,1.86,1.19.18.56-.18.57-.56.8.47-.18.83.23,1.02.65l-.25-.13c.21.39.45.79.68,1.17l.75-.63c.04.73-.97.64-.47,1.15l.7-.35c.28.91-.49,1.97-.48,3.1.9,1.81,2.45,3.19,3.87,4.47,1.44,1.29,2.74,2.49,3.39,4.2l-.33.51c-.58.64,1.57-.19,1.09.45l.56.02c-.03.19.02.47-.26.46.23.29.35.2.72.2l-.09.66c.77,1.35,2.41,1.46,3.5,2.63.38,1.04,1.54,1.93,2.86,2.6,1.36.64,2.88,1.04,4.03,1.2,1.68.03,3.04,1.06,4.79,1.84,1.69.76,3.81,1.24,5.41.22.13.1.37-.22.35-.31,1.02-.15,2-.37,2.93-.64,0,0,.86-.26,1.85-.75,1-.49,2.11-1.22,2.8-2.01.69-.79.98-1.64.41-2.43-.56-.81-2.08-1.48-4.79-2.19l-.02-.19c-1.34.1-2.01.25-2.49,1.39-.47-1.05-.94.16-1.3-.14v-.1c-.22.51-.61.4-.97.26-.36-.14-.68-.31-.94.1.02-.09,0-.41.14-.44-.4.2-1.01.41-1.02-.24-1.01.18-2.28-.42-3.29.37l.1-.16c-.62.54-.54-.09-1.11.1,0-.09,0-.14.01-.18-.71.47-1.3-.46-1.78-.39l.19-.4c-.3-.11-.59-.24-.88-.39l.26.27c-.74.97-.23-1.02-1.24-.76-.44-.48-2.64,1.25-2.89.29-.64.22.82-.53.13-.52.39-.51.44-.16.65-.64-.59-.1-.24-1.02-.99-1.11l.31-.39c-1.23.14-.7-1.52-1.69-1.26-.9-.31.63-1.45-.69-1.39l.24-.72c-.19-.35-.78.38-.84-.16.32-.27-.12-.62.34-.72-.16-1.14-2.05-.82-2.06-2.52-.8.34-.85-.47-1.45-.22.25-.26-.77-1,.28-.96.09,0,.15.09.04.18l.43-.25c.26-1.13-1.2-.65-1.51-1.28,0,.26.2.44-.18.51l-.34-.54.41-.15c-.12-.3-.25-.59-.36-.89l-.34.4c-.06-.53.56-1.14-.31-1.14-.46.04-.33.74-.73.43-.05-.7-.08-1.72-.28-2.41-.47.34-.55.16-.74.03l.43-.25c-.97-.36.85-.74.04-1.14l.34-.09-1.03.26c-1.16-.24.8-.69-.71-.92.18.26-.97.54-.9.09l.48-.08c-.17-.17-.38-.17-.33-.34.29.03.68-.17.5-.44h.64s-1.03-.27-1.03-.27c.31-.58-.45-1.11.14-1.46,0,0,.07-1-.7-1.06.48.09.57-.47,1.12-.42-.55-.13-1.1-.8-.6-1.17l.07.05c.16-.57-.02-1-.26-1.43-.21-.43-.45-.87-.09-1.38-.58.06-.27-.47-1.01-.33-.77-1.09,1.53-1.85-.73-2.37-.09-.51.57-.55.7-.79l.11.13c-.09-.93-.06-1.2.08-1.87-.18-.37-1.21-.6-.84-1.18.38.28.35,0,.39-.22.04.16.18.23.52-.01-.12-.07-.19-.15-.24-.22.03,0,.06,0,.1.01-.07-.41-.21-.38-.3-.21-.06-.02-.14-.02-.27,0,.6-.29.19-1.13.92-1.01.07-.59-.03-1.14-.14-1.68-.1-.54-.19-1.06-.18-1.58.39,0,.63.33.68.65l.08-.72c.51.17.17.48.21.72.54-.27.45-.74.39-1.24-.05-.5-.11-1.03.44-1.35l-.32-.35.09-.03c-.21-.08-.41-.4-.43-.57.49.04,1,.41,1.16-.05.57-.18.23-1.1.2-1.68-.18.22-.38.03-.48-.14.08-.24.58-.17.48-.43l.58.24c-.58-.16-.3-.86-.49-1.05.48.08.19.52.49.73.38-.92.19-.46.57-1.38-.17-.69-.58-.18-.95-.66.11-.48-.05-1.1.54-1.41l-.57-.11c.04-1.02.39-1.46,1.19-1.71-.14-2.05-.39-3.37-.82-4.2-.42-.83-.97-1.14-1.52-1.2-1.11-.1-2.24.93-2.24.93-1.28.93-1.78,1.96-2.06,3.15-.3,1.19-.4,2.54-.95,4.21"/>
  <path class="cls-1" d="M107.33,20.39l-.18-.2c.02.1.08.19.18.2"/>
  <path class="cls-1" d="M78.27,37.8s-.01.04-.01.06c.01-.03.01-.04.01-.06"/>
  <path class="cls-1" d="M107.44,13c-1.8.11-2.5-.89-4.48.04-1.02.16-2.11.73-3.06,1.24-.17.98-1.33.48-1.57,1.39l-.4-.34c-.09.31-.23.55-.52.4l-.05-.13c-.12.45-.52.4-.57.63l-.05-.13c-.1.07-.2.14-.3.21l-.04-.21c-.28.59-.72.86-1.21.93l.32.49c-1.2-.1-.85,1.14-1.99.94l-.06-.12c-.1,1.85-2.01.09-2.11,1.91,0-.23-.22-.21-.29-.33-.32.43-.69.82-.02,1.74-.3.2-.45-.11-.75-.44.3.4.17.75-.03.94v-.23s-.55.62-.55.62l.7.65c-.49.04-.78-.85-.96-.42l.48.62c-.55.23-1.54-.5-2.35-.6-2.03,1.18-2.67,4.27-5.13,4.43l-.43-.41c-.55-.66.32,1.35-.22.76l.05.46c-.14-.08-.35-.13-.38-.35-.19.1-.11.22-.08.52l-.5-.29c-.92.13-.9,1.43-1.75,1.71-.74-.18-1.35.23-1.9.73-.27.26-.52.58-.75.89-.23.29-.44.58-.62.84-.41.95-1.43.76-2.35.59-.91-.18-1.93-.4-2.62.62-.1-.09-.16.22-.13.31-.58.16-1.19.34-1.83.58,0,0-.58.22-1.32.73-.74.49-1.64,1.38-1.99,2.34-.37.96-.13,1.82.74,2.24.86.47,2.4.55,4.15,1.53l.09.17c.68.09,1,.05,1.08-1.01.51,1.03.59-.11.91.17l.02.09c.15-1,1.18.37,1.41-.54,0,.09.1.4,0,.45.3-.25.74-.66.98-.04.85-.44,2.39-.78,2.55-1.98l.03.19c.05-.8.39-.3.6-.81.06.07.1.1.12.13.04-.82.99-.61,1.13-1.02l.23.38.63-.48-.3.06c-.51-1.12.89.38.99-.6.56-.13-.44-2.71.31-2.48-.1-.62.32.9.39.33.36.53.07.43.43.81.14-.46.88.21,1.02-.4l.3.4c-.03-1.09,1.3-.12,1.13-1.06.26-.69,1.22.96,1.15-.21l.6.39c.28-.08-.34-.78.1-.7.24.35.51.04.61.47.97.11.52-1.59,1.92-1.26-.36-.77.3-.66.02-1.23.24.27.72-.5.83.41,0,.08-.06.11-.14,0l.26.42c.97.41.39-.96.86-1.16-.21-.04-.34.12-.45-.22l.4-.23.18.38.68-.23-.39-.34c.42,0,1.05.61.89-.19-.12-.42-.67-.34-.5-.69.56,0,1.4,0,1.92-.21-.39-.42-.26-.49-.22-.68l.32.38c.03-.9.84.74.95-.05l.17.31-.51-.92c-.19-1.1.84.66.48-.75-.13.2-.74-.82-.39-.81l.23.43c.06-.17-.02-.36.13-.35.08.26.38.59.51.39l.24.57-.18-.96c.56.22.61-.59,1.1-.11,0,0,.75-.11.46-.82.15.46.55.39.76.9-.15-.54.05-1.17.52-.81v.07c.92.1.68-1.36,1.6-1.06-.31-.49.15-.38-.28-.99.13-.49.59-.31.9-.27.31.05.48-.04.1-1.12.24-.25.57.33.76.37l-.02.14c.45-.41.6-.52,1.02-.61.11-.28-.23-1.28.24-1.18.02.44.15.31.29.26-.07.09-.04.25.23.45-.02-.13,0-.22,0-.3.01.03.03.05.04.1.18-.23.1-.34-.03-.35-.01-.06-.05-.14-.12-.24.41.42.67-.27.91.42.64-.37.99-1.23,1.58-1.65.16.35.08.7-.07.89l.42-.24c.12.52-.19.36-.3.5.72.72.92-1.1,1.75-.46l.05-.44.05.06c-.05-.22.04-.55.12-.64.19.44.22,1.06.54.96.35.39.71-.38,1.01-.7-.21-.04-.2-.3-.15-.48.17-.05.37.38.46.16l.15.61c-.2-.56.31-.73.31-.99.2.43-.18.45-.14.81.69-.22.34-.11,1.03-.34.26-.56-.21-.56-.17-1.14.3-.21.49-.71.97-.45l-.27-.5c.48-.59.83-.64,1.42-.24.74-1.47.84-2.61.72-3.43-.11-.83-.4-1.4-.77-1.76-.33-.39-.68-.62-.93-.75-.26-.14-.44-.17-.44-.17-1.57-.71-1.71,1.02-3.56,1.89"/>
  <path class="cls-1" d="M96.13,83.78l-.24.05c.11.01.2,0,.24-.05"/>
  <path class="cls-1" d="M90.64,102.95s.02.02.04.04c-.01-.02-.02-.03-.04-.04"/>
  <path class="cls-1" d="M87.93,85.38h0s-.03-.02-.05-.03l.05.03Z"/>
  <path class="cls-1" d="M89.11,81.93c-.4.91-1.52.99-1.22,2.01-.17.44,0,.97.05,1.44.8.37-.1.59.54.98h-.49c.22.14.36.27.09.31l-.13-.03c.33.2.09.31.25.41l-.14-.04.03.17-.19-.07c.33.31.3.54.08.71l.57.11c-.74.29.4.73-.44.95l-.13-.04c1.37.87-1.21.53.06,1.4-.16-.11-.3-.05-.43-.09.1.28.12.55,1.21.86-.06.17-.38.05-.81-.05.48.13.64.34.63.48l-.17-.11.05.43.93.18c-.32.13-1.12-.27-.96,0l.75.22c-.23.25-1.42.08-2.05.18-.66,1,.82,2.86-.85,3.44l-.57-.16c-.81-.28,1.08.72.32.49l.32.26c-.16-.02-.34,0-.49-.14-.07.1.06.15.27.32l-.54-.07c-.55.28.27,1.03-.11,1.4-1.23.13-.73,1.52-.47,2.35.79,1.39-2.75.85-1.84,2.3-.12-.03.09.16.17.21l-.49.69s-.55.85-.16,1.8c.4.93,1.71,2.08,5.64,2.31l.15.11c.65-.23.89-.47.22-1.22,1.05.48.3-.32.68-.25l.08.05c-.65-.68.95-.24.38-.87.08.05.36.2.34.27-.03-.26-.13-.65.48-.37.07-.55.68-1.09-.16-1.84l.16.1c-.58-.48,0-.27-.24-.62.09.03.13.03.17.05-.57-.48.14-.6-.06-.87l.41.17.07-.42-.15.1c-1.1-.54.83.02.22-.57.25-.2-2.13-1.51-1.47-1.53-.48-.34.82.46.49.11.59.24.33.24.83.39-.2-.3.73-.06.43-.45l.46.18c-.72-.64.83-.34.1-.86-.26-.46,1.46.31.68-.36l.68.11c.16-.1-.73-.39-.37-.43.39.16.39-.08.74.15.76-.14-.63-1.05.6-1.15-.74-.38-.19-.45-.75-.73.35.1.22-.46.87.06.05.04.03.08-.1.03l.45.19c.97.02-.32-.66-.09-.89-.18.03-.17.15-.47-.03l.14-.23.38.18.35-.3-.5-.1c.31-.1,1.16.09.53-.33-.36-.21-.71-.03-.8-.27.41-.14,1.02-.36,1.26-.63-.56-.13-.51-.21-.6-.33l.48.13c-.56-.53,1.09.18.66-.31l.32.13-.97-.38c-.86-.57,1.04.12-.16-.58.04.15-1.07-.23-.82-.34l.45.17c-.07-.12-.26-.2-.15-.23.24.12.67.21.62.06l.56.25-.79-.49c.55-.06,0-.53.68-.44,0,0,.43-.34-.26-.62.42.2.66,0,1.16.21-.48-.24-.81-.66-.24-.66l.05.04c.67-.35-.56-1,.21-1.28-.57-.11-.21-.26-.94-.37-.61-.59,1.64-.5-.56-1.12-.08-.22.57-.13.71-.21l.11.07c-.11-.42-.11-.53,0-.8-.19-.18-1.23-.4-.93-.6.4.16.34.04.36-.05.05.07.2.12.5.05-.13-.04-.2-.08-.26-.12.03,0,.06,0,.1.02-.12-.18-.25-.18-.32-.12-.06-.02-.15-.02-.26-.02.56-.06.04-.46.76-.35-.09-.5-.76-.96-.98-1.39.38.01.69.16.81.29l-.09-.3c.53.08.28.21.37.31.91-.2-.76-.81.09-1.08l-.41-.14h.07c-.22-.04-.51-.17-.57-.24.47.01,1.07.15,1.07-.04.47-.09-.16-.46-.39-.69-.09.1-.34.03-.5-.04,0-.1.46-.09.27-.19l.63.07c-.59-.04-.61-.33-.86-.4.47,0,.38.2.73.26-.01-.39,0-.2-.02-.59-.45-.26-.6-.03-1.13-.19-.1-.19-.52-.41-.12-.58h-.56c-.4-.37-.32-.56.27-.73-2.16-1.44-3.7-1.65-4.7-1.56-1,.09-1.46.5-1.46.5-1.3.77.27,1.37.57,2.51"/>
</svg>