<?xml version="1.0" encoding="UTF-8"?>
<svg id="Capa_1" data-name="Capa 1" xmlns="http://www.w3.org/2000/svg" viewBox="0 0 26.24 38.33">
  <path d="M13.2,17.6c.44-.27.86-.54,1.26-.81,4.81-3.67,6.16-6.98,6.38-9.13.03-.29-.26-.51-.53-.4-2.04.88-5.92,2.26-8.11,1.17-2.19-1.09-4.97-.62-6.37-.27-.21.05-.33.26-.28.47.5,2.11,2.07,4.98,6.2,8.14.4.28.83.55,1.3.83h.15Z" style="fill: #614e4c;"/>
  <path d="M13.11,19.6c.62,0,1.12.5,1.12,1.12s-.5,1.12-1.12,1.12-1.12-.5-1.12-1.12.5-1.12,1.12-1.12" style="fill: #614e4c;"/>
  <path d="M13.12,24.08c.99,0,1.79.8,1.79,1.79s-.8,1.79-1.79,1.79-1.79-.8-1.79-1.79.8-1.79,1.79-1.79" style="fill: #614e4c;"/>
  <path d="M24.2,33.59c.57-2.75.45-8.38-7.15-14.58,8.35-6.81,7.67-12.93,6.96-15.31,1.4-.38,2.22-.83,2.22-1.32,0-1.31-5.87-2.37-13.12-2.37S0,1.06,0,2.37c0,.49.82.94,2.22,1.32-.71,2.38-1.39,8.5,6.96,15.31-7.6,6.2-7.72,11.83-7.15,14.58-1.29.37-2.04.8-2.04,1.27v1.1c0,1.31,5.87,2.37,13.12,2.37s13.12-1.06,13.12-2.37v-1.1c0-.47-.75-.9-2.04-1.27M11.55,20c.31-.23.49-.61.49-.99,0-.39-.19-.76-.49-.99C3.07,11.59,3.82,6.08,4.38,4.29h1.03c2.17.29,4.83.45,7.72.45s5.55-.17,7.71-.45h1.03c.54,1.78,1.27,7.33-7.17,13.72-.31.23-.49.6-.49.99s.18.76.49.99c7.68,5.82,7.79,10.89,7.33,13.12-.57-.1-1.19-.18-1.84-.26-.59-.72-2.12-1.81-5.71-3.93-.4-.21-2.31-.19-2.71.02-3.57,2.1-5.1,3.19-5.69,3.91-.66.08-1.27.16-1.84.26-.46-2.24-.35-7.31,7.33-13.12" style="fill: #614e4c;"/>
</svg>