<?xml version="1.0" encoding="UTF-8"?>
<svg id="Capa_1" data-name="Capa 1" xmlns="http://www.w3.org/2000/svg" viewBox="0 0 315.37 387.45">
  <defs>
    <style>
      .cls-1 {
        fill: #a4d5cc;
      }
    </style>
  </defs>
  <path class="cls-1" d="M195.06,164.88l1.08.29c-.03-.18-.31-.3-1.08-.29"/>
  <path class="cls-1" d="M73.33,140.87s-.03.09-.03.14c.04-.07.04-.11.03-.14"/>
  <path class="cls-1" d="M238.85,169.73s-.04.01-.06.02c-.08.07-.18.12-.25.18l.31-.2Z"/>
  <path class="cls-1" d="M182.7,177.63c3.69-.03,6.72.04,9.42.05,2.7.06,5.09.07,7.49.05,4.8-.06,9.7-.39,17.3-2.11,7.35-1.15,15-3.49,21.88-5.88,1.45-1.18,3.69-1.86,6.11-2.74,2.41-.85,4.99-1.88,6.75-3.43.64-.02,1.28-.05,1.94-.11.61-.55,1.27-1.14,1.99-1.65l.54-.38.78-.49c.54-.35,1.1-.67,1.68-.95l.03.26c2.56-2.59,5.65-5.2,6.11-6.7l.16.19c.77-1.1,1.25-2.2,1.58-3.4l.14.67c.64-2.6.28-5.73-.93-8.09-.58-1.22-1.33-2.33-2.18-3.36-.8-1.09-2.02-1.79-3-2.66l-.43.86c-.98-.88-1.94-1.68-2.86-2.41-.47-.36-.92-.71-1.35-1.04-.2-.15-.47-.36-.62-.45l-.44-.27c-1.16-.69-2.23-1.22-3.28-1.75-2.12-1.03-4.15-1.97-6.68-4.06l.19-.17c-4.18-.77-6.84-2.5-9.6-4.25-2.76-1.72-5.63-3.42-9.95-3.75,1.08.07-.24-.62-.08-.81-3.69-1.08-7.63-2.18-8.26-.39-2.61-.88-1.97-1.23-2.1-2.05-.23.81-2.62.44-4.7-.09l1.04-.04c-2.01-.46-4.02-.89-6.03-1.31l.78,1.82c-3.03-1.23-.33-2.06-3.46-2.42l-.26,1.28c-4.29-1.28-6.47-3.72-10.62-5.47-8.94-1.88-18.37-2.44-27.78-2.45-9.42,0-18.64.69-27.49,1.2l-.95-.81c-.66-1.36-4.3,3.08-5.21,1.97-.61.37-1.2.75-1.79,1.13-.61-.1-1.84-.06-.95-.62-1.82.43-1.79.69-2.95,1.47l-2.15-.27c-7.18,1.51-12.27,5.29-19.26,7.47-1.11.16-2.31.42-3.58.74-1.16.3-2.4.62-3.7.95-2.57.67-5.56,1.43-8.72,2.32-3.15.9-6.47,1.96-9.6,3.3-3.13,1.32-6.05,2.94-8.36,4.62-.5.42-.85.72-1.51,1.23-.61.46-1.17,1.06-1.77,1.57-1.22,1.01-2.29,2.16-3.19,3.42-.91,1.25-1.62,2.63-2.04,4.13-.4,1.5-.45,3.14-.07,4.65.44,1.77,1.36,3.42,2.54,5.08l.88,1.25.45.63.3.45,1.04,1.63c.68,1.05,1.44,2.3,2.63,3.69.6.69,1.28,1.4,2.14,2.09.86.71,1.84,1.28,2.66,1.73,3.46,1.78,6.46,2.3,8.5,2.8.84.2,1.67.4,2.49.6.17.01.93.31,1.55.51.64.21,1.29.4,1.96.57.38.39,1.77.46,1.82.3,2.2.9,4.52,1.66,6.82,2.23,1.15.29,2.29.54,3.43.76l3.17.59s3.85.69,8.92,1.26c5.07.58,11.35,1.02,16.19.83,4.84-.18,8.23-.94,7.57-2.62-.64-1.71-5.4-4.22-16.46-8.54l.34-.27c-6.68-1.6-10.85-2.41-15.74-1.64-.17-1.01-1.64-1.3-2.98-1.44-1.37-.15-2.85-.24-3.45-.74l.17-.11c-1.98.22-3.71-.73-5.35-1.81l-1.24-.82c-.44-.28-.74-.49-1.53-.86-1.36-.64-2.7-.96-3.93-.93.22-.1.43-.6,1.59-.3-1.88-.44-3.79-.64-5.05-.93-1.31-.28-1.96-.67-1.89-1.23-.89-.2-1.74-.56-1.95-.72-.4-.25-1.13-.99-2.06-2.11-.5-.59-1-1.17-1.49-1.75l-.69-.79-.24-.22c-.33-.29-.74-.55-1.12-.9-.45-.42-.72-.94-1-1.44l.3.19c-.49-.63-.25-1.03.03-1.3.31-.3.66-.5.99-1.12.16.06.29.06.32.11.03-.21.09-.4.25-.6.14-.19.5-.5.78-.73.66-.45,1.39-.91,2.2-1.25,1.56-.74,3.25-1.19,4.15-1.78l.37.66c1.59-.6,3.25-1.14,4.97-1.64l-1.96.37c.13-2.18,4.19.21,7.85-1.99,3.84-.64,6.65-5.94,10.64-6.37,1.46-1.54-1.04,2.02,1.37.38.45.97-1.02,1.07-.04,1.62,2.45-1.42,4.66-.54,7.61-2.39l.42.73c3.65-2.95,8.18-1.8,10.45-4.07,4.07-2.03,3.58,1.4,7.52-1.44l2,.62c1.91-.31,1.01-1.68,3.23-1.65.03.72,2.75-.03,1.67.89,2.45.05,4.71-.74,7.26-1.37,2.55-.61,5.38-1.06,8.59-.25,1.33-1.45,4.58-.64,5.63-1.66.17.56,6.52.29,2.83,1.46-.32.1-.86.07-.82-.17l-.45.8c3.56,1.63,6.66-.56,10.32,0-1.06-.38-2.51-.42-1.5-.9l3.4.43-.78.61c1.67.3,3.35.62,5.02.96l-.6-.93c2.44.74,3.11,2.29,6.07,1.5,1.37-.48-2.19-1.47.48-1.35,3.26,1.05,8.05,2.76,12.15,3.88-.2-1.02.92-.75,2.12-.69l-.04.84c4.66-.15,1.2,2.14,5.75,2.27l-.52.47,1.56-1.4c4.32-.52,1.66,2.16,6.56,1.27-1.74-.37-.3-1.99,1.72-1.02l-.77.61c1.21.19,1.71-.04,2.42.38-.82.19-.71.99,1.02,1.41l-1.43.59,3.64-.36c2.17,1.64,6.39,2.04,6.96,3.51,0,0,1.24.63,2.67,1.19,1.42.6,3.04,1.11,3.88.8-1.33.26,1.34,1.74.17,2.22,1.63-.19,5.78.97,6.83,2.61l-.33-.05c2.55,1.81,4.98,2.86,7.36,3.89,1.17.54,2.33,1.08,3.45,1.73l.37.21.12.09c.08.06.15.13.22.21.13.15.23.33.27.52.37-.33.64-.28.96-.24.29.02.59.03,1.13-.36.73.16,1.15.62,1.15,1.1.01.49-.43.94-.84,1.16-.85.47-.97.57.22,2.11-.98,1-1.65.09-2.9.63.13-.15.26-.3.38-.46-1.79,1.26-3.1,1.97-4.31,2.55-1.22.58-2.36,1.03-4.06,1.6-1.57.95-1.29,2.74-4.64,3.33.83-.99-.44-.46-1.64-.09.73-.34.89-.66-.81-.63-.16.28-.46.51-.75.72-.03-.05-.1-.07-.09-.15-1.93.83-1.54.91-.57.76-.02.11.1.23.44.33-2.34-.29-5.85,1.64-6.4.54-6.03,1.72-10.21,3.87-15.38,5.14-.68-.52.45-1.26,1.92-1.73l-3.65.81c-.1-.89,2.04-.84,3.14-1.2-4.57-.72-8.85,2.82-14.21,1.98l-1.01.81-.32-.09c.05.37-1.08.99-1.84,1.19-.8-.72-.1-1.79-2.67-1.57-1.05-.3-2.48-.11-4,.23-1.52.3-3.11.76-4.45,1.02,1.45.07,1.01.52.39.82-1.3.08-2.07-.65-3.07-.31l-.15-1.05c.54.98-3.37,1.13-3.85,1.57-.75-.76,2.01-.71,2.32-1.3-5.2.19-2.6.12-7.81.21-2.79.78.5.99-.84,1.91-2.47.21-4.91.84-7.73.16l.87.95c-4.68.57-7.49.35-10.58-.78-8.79,1.4-13.76,2.52-16.2,3.66-2.45,1.12-2.36,2.19-1.18,3.12,1.2.92,3.52,1.71,5.55,2.26,2.03.55,3.77.83,3.77.83,6.9,1.54,12.26,1.62,17.94,1.29,5.69-.36,11.71-1.13,20.08-1.75"/>
  <path class="cls-1" d="M247.2,215.65l.65-1.84c-.18,0-.4.46-.65,1.84"/>
  <path class="cls-1" d="M90.39,331.89c.09.1.17.22.26.3-.16-.22-.22-.29-.26-.3"/>
  <path class="cls-1" d="M262.42,137.6s.07.08.09.11c.17.15.37.33.53.47l-.62-.58Z"/>
  <path class="cls-1" d="M255.48,240.75c2.47-12.76,4.03-20.84,5.62-29.03,1.57-8.2,3-16.54,4.5-29.93.37-2.67.98-5.79,1.55-9.07.57-3.29,1.11-6.76,1.42-10.42.29-3.67.41-7.54-.26-11.8-.37-2.13-.87-4.35-1.88-6.62l-.77-1.68c-.32-.56-.67-1.12-1.02-1.67-.73-1.17-1.4-2-2.13-2.82-3.21-2.76-7.52-5.82-11.7-7.99-2.09-1.13-4.06-2.04-6.03-2.87-1.96-.83-3.87-1.55-5.64-2.02l-2.24-1.89c-2.48-.54-5.3-1.35-7.49-2.67l.23-.16c-3.66-.87-7.54-2.48-9.4-2.78l.22-.17-4.33-1.33.84-.07c-3.16-.79-6.43-1.37-9.54-2.21-1.56-.4-3.09-.82-4.59-1.26-1.51-.39-2.98-.77-4.41-1.14l.26,1.05c-3.01-.93-5.58-1.58-7.91-2.06-2.35-.37-4.45-.61-6.51-.85-2.05-.26-4.07-.51-6.27-.78-2.2-.26-4.58-.64-7.37-1.28l.18-.22c-3.62.16-6.84.29-9.85.08-3.02-.19-5.84-.61-8.7-.8-2.86-.24-5.74-.52-8.83-.53-3.09.11-6.39.44-10.04,1.21,1.82-.38-.82-.46-.69-.7-6.78.86-14.01,1.7-13.84,3.7-4.87.7-4.05,0-4.8-.63.08.41-.93.86-2.43,1.28-.75.21-1.62.42-2.54.61-.92.21-1.88.44-2.82.65l1.68-.67-10.75,2.48,2.46,1.1c-2.9.33-3.35.05-3.77-.25-.41-.28-.78-.47-3.44.42l.39,1.24c-3.92.88-7.17,1.09-10.36,1.5-1.61.17-3.22.34-4.92.52-1.7.21-3.51.41-5.42.92-1.93.7-3.86,1.41-5.8,2.12-1.98.75-3.77,1.37-5.96,2.38-2.16,1-4.74,2.42-6.94,4.67-2.18,2.2-3.68,4.77-4.67,7.32-1.95,5.16-2.23,10.27-1.46,15.3.81,5.08,2.85,9.32,4.21,12.78.71,1.78,1.24,3.34,1.67,5.07.44,1.72.75,3.53,1.02,5.4.53,3.7.79,7.8,1.28,11.75.9,7.84,1.59,15.53,1.89,22.97l-.82,1.42c-1.35.74,3.06,7.89,1.88,9.18l1.05,3.35c-.14,1-.17,3.07-.69,1.4.32,3.18.56,3.23,1.26,5.46l-.42,3.52c1.03,12.61,4.32,22.97,6.1,36.12.39,8.01,2.29,19.37,4.73,30.78,1.22,5.71,2.57,11.43,3.9,16.77,1.31,5.34,2.79,10.67,4.75,15.08,1.49,3.07,3.05,6.17,5.63,9.29,1.26,1.52,2.96,3.07,4.81,4.17,1.82,1.11,3.64,1.84,5.27,2.46,6.36,2.37,13,4.36,19.89,5.68,6.86,1.3,14.01,1.9,20.92,1.53,6.89-.35,13.45-1.5,19.5-3.14.84.06,2.83-.74,2.78-.9l22.39-3.67s6.78-1.14,15.63-2.8c4.42-.83,9.37-1.8,14.24-2.82,2.37-.51,4.99-1.01,7.67-1.88,2.66-.86,5.41-2.13,7.68-4,2.28-1.85,3.9-4.27,4.73-6.24.86-2,1.21-3.67,1.39-4.96.32-2.58-.04-3.78-1.01-3.36-.5.22-1.16.88-2.06,2.01-.91,1.11-2.04,2.77-3.76,4.42-1.73,1.64-4.1,2.91-7.4,3.41-1.66.26-3.52.37-5.7.41-2.25.06-4.69.12-7.31.18l.5-.4c-12.36,1.37-20.09,2.54-28.26,5.54-1.66-1.66-10.08,1.54-13.05,1.43l.24-.2c-7.24,2.73-15.55,1.54-22.33,3.71.25-.19.34-.73,1.94-.97-5.07,1.01-11.93,1.85-12.33.7-5.9.4-13.01-.09-19.48-1.16-3.24-.52-6.34-1.14-9.1-1.73-1.39-.29-2.69-.55-3.88-.8-1.18-.23-2.11-.38-2.88-.5l.51-.11c-1.85-.16-2.53-.64-3.25-1.37-.71-.77-1.38-1.7-2.69-3.45.01-.28-.06-.59.02-.57-1.54-1.62-2.82-4.74-3.64-7.98-.84-3.24-1.37-6.57-2.02-8.51l.67-.4-2.09-9.8.55,3.71c-2.25-.89-.19-7.68-2.8-14.59-.97-6.73-6.61-12.86-6.8-20.02-1.5-3.17,2.02,2.68.46-2.18,1.02-.34,1.05,2.21,1.67.79-1.31-4.8-.25-8.18-1.91-14.1l.78-.37c-2.73-7.64-1.17-15.01-3.35-20.04-1.79-8.04,1.61-5.78-1.01-14.04l.72-3.44c-.25-3.65-1.67-2.43-1.6-6.52.73.16-.04-5.15.9-2.88.04-9.2-3.78-18.36-3.25-30.44-.8-1.21-1.12-3.37-1.43-5.53-.3-2.16-.64-4.32-1.32-5.3.28-.21-.22-3.54-.78-5.98-.27-1.23-.5-2.18-.41-2.39.08-.2.49.27,1.34,2.15.28.65.54,1.83.29,1.8l1,.76c-.02-2.01-.44-4.09-1.04-5.84-.59-1.76-1.33-3.28-2.04-4.64-1.43-2.71-2.71-4.86-2.87-7.33-.14,1.45.5,3.52-.39,2.27-.32-1.62-.45-3.14-.37-4.75.23.34.44.66.69.97.07-2.28.57-4.56,1.41-6.23-.37.12-.71.3-1.08.48.71-1.39,1.59-1.93,2.24-2.36.74-.47.86-.65,1.98-2,1.04-1.37-3.07.47-.36-1.4,1.06-.38,2.55-.86,4.36-1.34,1.75-.49,3.61-1.01,5.53-1.54,3.78-1.18,7.86-2.08,11.53-3.12-.96-.7,1.01-1.29,2.98-2.11l.46.73c7.56-3.14,3.35,1.02,10.88-1.87l-.55.74c.55-.76,1.12-1.43,1.68-2.14,3.39-1.53,4.45-1.3,5.58-1.17.56.06,1.15.11,2.06-.1.91-.22,2.15-.69,4.06-1.51-3.15.61-1.81-1.58,2.19-1.81l-.87.94c2.14-.49,2.82-.93,4.28-.98-1.23.62-.52,1.26,2.63.65l-1.99,1.31c1.92-.82,3.87-1.51,5.84-2.18,2.38.21,5.38-.16,8.06-.4,2.68-.13,5.02-.22,6,.3,0,0,2.52,0,5.31-.08,2.8,0,5.88-.14,7.05-.75-2.03.75,3.5,1.09,1.9,1.98,1.31-.48,3.88-.67,6.52-.69,2.63,0,5.33.17,6.81.79l-.59.04c5.59,1.16,10.45,1.18,15.14,1.77,2.35.24,4.67.46,7.01.83,2.32.48,4.67,1.07,7.1,1.89-.24-1.04,4.92.62,3.91-.85,2.64.4,5.09,1.09,7.35,1.83,1.13.37,2.21.76,3.24,1.14,1.03.41,1.99.85,2.91,1.23,3.69,1.56,6.67,2.47,9.13,1.36,4.6,1.58,5.04,2.93,7.3,4.02l-1.15-.23c4.31,1.42,6.93,2.73,9.37,3.74,2.37,1.06,4.66,2.01,7.4,3.54,1.46.58,2.46.56,3.67.84,1.17.29,2.67.85,4.25,2.83-1.68-.68.05.69.85,2.04-.25-.37-.59-.61-.65-.48-.05.06.02.23.05.48.03.24.1.58.24.99.33.1.58.49.86.81-.05.04-.05.12-.14.11.55,1.21.81,1.8.91,1.85.12.04.08-.43-.07-1.09.12.03.22-.11.3-.59.07,1.54.39,3.79.42,5.86.02,1.03-.01,1.98-.15,2.71-.12.72-.31,1.2-.63,1.29-.27,5.31-.88,10.17-1.32,14.95-.1,1.22-.21,2.42-.31,3.61-.07,1.21-.14,2.41-.21,3.61-.13,2.31-.29,4.64-.51,7.04-.77.99-1-1.31-.85-4.11l-.72,6.79c-.88-.17.03-3.95.15-6.06-2.56,7.86-.89,16.8-3.52,26.06l.42,2.06-.2.55c.37.02.58,2.22.5,3.64-.96,1.22-1.76-.36-2.36,4.32-1.21,3.59-1.18,10.54-1.63,15.42.57-2.57.86-1.66.93-.5-.37,2.33-1.38,3.53-1.37,5.38l-1.07.04c1.15-.74-.05,6.25.2,7.18-1.01,1.17.01-3.72-.46-4.4-1.64,9.3-.8,4.66-2.54,13.93-.23,5.1,1.15-.7,1.58,1.85-.69,4.41-.89,8.82-2.62,13.68l1.26-1.38c-1.14,8.34-2.45,13.21-4.75,18.46-2.08,15.59-3.19,24.35-3.18,28.75,0,4.41,1.1,4.42,2.58,2.51,1.47-1.94,3.32-5.86,4.72-9.31,1.43-3.45,2.44-6.43,2.44-6.43,4.37-11.79,6.48-21.09,8.19-31.02,1.69-9.95,3.01-20.54,5.22-35.18"/>
  <path class="cls-1" d="M101.23,141.94l.57.18c-.07-.16-.24-.26-.57-.18"/>
  <path class="cls-1" d="M212.96,138.79s.09-.03.13-.06c-.08.01-.11.03-.13.06"/>
  <path class="cls-1" d="M121.09,149.47s-.02,0-.02,0c-.03.05-.06.07-.08.12l.11-.12Z"/>
  <path class="cls-1" d="M101.51,155.01c2.4-.96,4.16-1.05,5.86-1.28,1.72-.2,3.36-.54,5.9-1.69,2.57-.62,5.23-1.75,7.81-2.55.94-1.65,3.45-.77,4.7-2.25l.73.67c.44-.49.99-.87,1.59-.54v.23c.67-.73,1.6-.54,1.93-.91v.23s.93-.27.93-.27l-.1.36c1.23-.9,2.63-1.12,3.9-1.01l-.24-.94c2.78.68,3.48-1.46,6.04-.44v.24c1.36-1.43,2.61-1.15,3.86-.82,1.25.36,2.49.73,3.97-.6-.37.33.2.48.19.72,1.41-.41,2.94-.62,2.87-2.51,1.06-.02.89.56,1.07,1.28-.05-.83.86-1.21,1.68-1.3l-.37.34,2.36-.39-.51-1.55c1.28.4.37,1.9,1.57,1.5l-.04-1.3c1.76.24,2.81,2.2,4.47,3.14,3.46.32,7.07-.31,10.65-.54,1.79-.15,3.57-.2,5.28,0,1.72.19,3.38.53,4.92,1.32l.17,1.01c-.05,1.43,2.03-1.88,2.11-.53l.83-.55c.18.28.58.61.17.88.68.14.73-.09,1.29-.45l.61,1c2.58,1.14,5.18-.26,7.95.68,3.06,2.39,9.7,2.21,13.62,2.32,2.87-.39,5.38,1.39,7.87,3.02,2.48,1.69,4.72,3.36,7.49,3.23.07.25.63,0,.7-.14,1.38.68,2.69,1.42,3.92,2.21,0,0,1.12.67,2.6,1.54,1.47.86,3.19,1.95,4.77,2.66,1.58.68,3.09,1.04,4.22-.18,1-1.18,1.93-4.16-.35-9.97l.31-.15c-2.06-2.63-3.83-3.92-6.46-3.61.64-1.86-2.16-1.4-2.52-2.24l.13-.11c-2.3.51-3.04-2.74-5.21-2.16.12-.12.35-.6.74-.48-1.31-.26-3.09-.45-2.8-1.53-2.99-.77-6.79-2.41-9.11-1.27l.21-.26c-1.37.84-1.38-.24-2.71.04-.02-.16-.09-.25-.06-.31-1.45.84-3.35-.71-4.39-.46l.12-.73c-.76-.16-1.54-.26-2.31-.38l.81.35c-.77,1.92-1.42-1.64-3.37-.74-1.5-.63-4.01,3.43-5.38,2.16-.94.79.97-1.39-.3-.89.17-1.05.66-.55.53-1.44-1.22.28-1.64-1.43-3.16-1l.09-.83c-2.08,1.17-3.27-1.64-4.72-.42-1.98.39-.9-2.67-3.11-1.32l-.62-1.21c-.83-.29-.79,1.28-1.66.63.15-.69-1.12-.71-.49-1.3-2.03-1.4-4.51,1.06-7.16-1.05-.73,1.32-2.08.35-2.62,1.37-.03-.6-2.84-.26-1.16-1.47.15-.1.39-.06.35.17l.25-.8c-1.53-1.63-3.01.67-4.59.34.46.3,1.1.26.65.8l-1.48-.2.34-.67-2.21-.47.28.86c-1.07-.46-1.42-1.92-2.68-.74-.57.66,1,1.17-.14,1.41-1.43-.64-3.61-1.5-5.47-1.73.18.96-.32.92-.83,1.12l-.07-.83c-1.95,1.17-.76-1.83-2.71-.87l.16-.58-.47,1.75c-1.7,1.72-1.02-1.68-2.89.65.77-.17.44,1.81-.52,1.49l.2-.81c-.52.19-.67.53-1.03.38.29-.45.11-1.17-.66-1l.47-1.02-1.38,1.54c-1.18-.78-2.89.44-3.44-.65,0,0-2.48-.36-2.92.91.42-.81-.95-.98-.65-1.91-.55.94-2.33,1.85-3.17,1.01l.13-.12c-2.88-.66-4.53,1.84-7.14,1.08.25.93-1.12.61-.61,1.78-2.32,1.53-5.02-1.67-5.25,2.21-1.1.41-1.51-.63-2.14-.71l.23-.25c-2.08.69-2.67.91-4.27,1.15-.71.53-.45,2.29-1.93,2.17.29-.78-.25-.53-.77-.42.31-.18.36-.46-.44-.76-.05.23-.17.4-.28.54-.02-.05-.06-.09-.06-.16-.82.46-.61.63-.19.62,0,.11.07.23.24.39-1.12-.66-2.51.68-2.92-.45-2.58.95-4.11,2.72-6.11,3.84-.43-.51-.1-1.2.46-1.62-.49.24-.99.46-1.48.71-.27-.86.73-.79,1.15-1.1-2.33-.79-3.33,2.63-5.92,2.21l-.18.84-.17-.06c.15.34-.14,1.01-.4,1.25-.6-.59-.67-1.66-1.71-1.18-1.14-.3-2.23,1.4-3.08,2.33.63-.17.64.31.52.68-.49.28-1.14-.26-1.38.24l-.54-.91c.65.76-.82,1.66-.79,2.14-.67-.52.45-1.02.3-1.61-1.98,1.25-1.01.57-2.95,1.88-.63,1.33.71.73.7,1.82-.81.73-1.23,1.92-2.59,2.1l.85.54c-1.17,1.73-2.11,2.33-3.73,2.49-1.56,3.84-1.51,6.36-1.11,7.88.42,1.52,1.26,2.19,2.22,2.32.92.21,1.89.01,2.61-.23.73-.23,1.26-.48,1.26-.48,2.29-.82,3.44-1.93,4.64-3.42,1.17-1.49,2.45-3.28,4.89-4.95"/>
  <path class="cls-1" d="M128.09,234.95l-.52.08c.15.09.33.1.52-.08"/>
  <path class="cls-1" d="M181.35,226.81s-.06-.04-.1-.06c.04.04.07.06.1.06"/>
  <path class="cls-1" d="M113.55,254.39s0-.03-.01-.04c-.05-.05-.09-.12-.14-.16l.16.2Z"/>
  <path class="cls-1" d="M125.87,221.56c-4.84,2.2-7.86,5.06-9.93,7.9-2.06,2.89-3.46,6.22-3.7,10.97-.71,4.44-.14,9.42,1.29,13.92.97.9,1.42,2.34,2.04,3.84.62,1.49,1.42,3.06,2.67,3.87-.04.44-.03.88-.04,1.34.89.57,1.81,1.18,2.11,2.19l-.21.12c1.4.61,2.25,1.88,2.96,2.06l-.19.14c.43.34.86.61,1.29.91l-.42.1c2.17.88,3.96,1.97,5.34,3.11l.36-.91c2.66,2.79,4.75,1.56,6.59,4.1l-.15.18c2.16-.22,3.06.89,3.77,1.97.68,1.09,1.12,2.08,3.34,2.59-.55-.12-.21.5-.4.64,1.43,1.06,3.26,2.59,4.56,1.18,1.14,1.04.59,1.29.28,2,.52-.65,1.83,0,3.04.69l-.71-.08c1.18.67,2.3,1.21,3.76,1.69-.09-.59-.16-1.21-.16-1.78.86.64.89,1.12.89,1.53,0,.4.05.72,1.22.85l.26-1.28c2.39.8,4.21,2.28,7.12,2.55.51.02,1.07.03,1.65-.07,1.78-.68,3.42-1.79,4.78-3.18,1.51-1.55,2.26-2.78,2.99-4.05.69-1.26,1.22-2.47,1.67-3.6.42-1.07.84-2.14,1.26-3.2,1.68-4.22,3.53-8.28,6.46-11.4l1.04.13c1.34.53-.81-3.01.51-2.68l-.13-1.17c.35-.13.86-.52.92.06.47-.78.27-.91.18-1.69l1.24-.48c2.26-2.97,2.06-6.57,3.81-10.17,1.7-1.94,2.91-5.41,3.29-9.21.22-1.88.19-3.84.04-5.65-.18-1.82-.44-3.44-.85-5.01-.6-1.72-1.2-3.99-2.24-6.02-.93-1.9-2.47-3.82-3.9-5.22-1.45-1.43-2.99-2.65-4.74-3.65-3.46-1.99-7.69-2.8-11.3-1.48-.33-.19-1.05.37-1.02.53-2.78.3-5.57,1.12-8.13,2.42,0,0-.59.29-1.49.87-.91.57-2.1,1.48-3.29,2.65-2.42,2.31-4.57,5.95-5.08,9.04-.57,3.11.25,5.28,1.89,5.09.85-.05,1.91-.64,3.38-1.52,1.47-.86,3.4-2.03,5.89-2.79l.17.28c2.18-1.46,3.27-1.95,4.05-4.15.56.79.98.63,1.43.35.43-.29.91-.72,1.27-.49v.17c.51-.91,1.39-.75,2.16-.48.79.26,1.46.61,2.22.01-.07.15-.14.67-.45.68.99-.22,2.48-.31,2.26.8,1.13.13,2.36.71,3.41,1.24,1.07.58,1.39.54,2.47.57l-.3.1c.07,0,.14-.02.2-.02.52-.01.61.18.64.37.04.23,0,.34.37.69-.13.07-.2.15-.26.15.67.31.8,1.09.78,1.91-.04.85-.17,1.68.05,2.18l-.75.02c0,.8,0,1.6-.06,2.42l.28-.88c.99.26.61.71.12,1.3-.49.59-1.13,1.3-.67,2.31-.31.79.53,1.88,1.19,3.03.7,1.15,1.21,2.35.44,3.1.59,1.18-1.2-1.26-.96.26-1.02-.32-.42-.81-1.34-.77.04,1.41-1.74,1.61-1.69,3.36l-.79-.26c.58,2.55-2.61,3.17-1.92,5.07-.37,2.3-2.85.23-2.46,3.04l-1.41.29c-.62.8.89,1.27-.12,2.02-.59-.39-1.16,1-1.44.1-2.17,1.76-1.04,5.34-4.27,7.47.87,1.29-.64,2.42.02,3.38-.57-.2-1.67,2.97-1.93.68-.02-.2.14-.44.33-.32l-.61-.58c-2.25.98-.9,3.53-1.97,5.05.47-.32.78-1.06,1.04-.34l-.87,1.4-.45-.61c-.49.62-.95,1.16-1.4,1.6l.86.23c-.44.3-1,.27-1.37.33-.19.04-.33.08-.39.21-.03.06-.04.15-.03.25.02.09.14.12.22.26.39.58,1.01.58.99,1.01-.61.04-1.32-.19-1.73-.49-.12-.09-.25-.18-.36-.26.14.97,0,.95-.17,1.13v-.84c-.63,1.08.14-1.83-.24-.99l.22-.54c-.21.54-.44,1.08-.71,1.58-.8.54-.79.04-.73-.34.02-.41.09-.66-1.13-.17.52.2-.81,1.7-1.31.84l.67-.49c-.46-.15-.81-.01-.96-.36.5-.14.89-.76.25-1.16l1.03-.42c-.65.08-1.34.11-2.06.1-.23-1.42-2.57-2.25-2.27-3.51,0,0-.49-.67-1.26-1.32-.77-.67-1.79-1.21-2.48-.97,1.04-.18-.37-1.6.61-1.99-1.3.1-3.83-.69-4.21-1.97h.22c-2.71-2.7-5.88-1.75-7.57-4.09-.39.89-1.29-.26-1.64.96-1.45-.19-2.1-1.37-2.56-2.15-.5-.78-.94-1.14-2.56-.09-.93-.62-.16-1.51-.34-1.99l.3.04c-1.32-1.15-1.58-1.67-2.07-2.94-.59-.49-2.33,0-2.32-1.51.81.24.5-.26.4-.77.18.3.45.32.76-.42-.23-.04-.4-.15-.53-.27.05-.02.09-.05.17-.05-.39-.8-.59-.62-.61-.2-.11,0-.24.06-.41.22.69-1.04-.41-2.59.79-2.79-.43-2.58-1.48-4.75-1.49-7.19.66-.13,1.08.51,1.21,1.19.02-.54.04-1.08.09-1.6.86.22.3.97.4,1.49.87-.79.71-1.71.64-2.71-.08-.97-.03-2.07,1-2.52l-.4-.69.16-.03c-.31-.19-.5-.85-.41-1.15.78.27,1.4,1.08,1.89.47.91.11,1.01-1.44,1.73-2.3-.51.14-.59-.31-.52-.67.44-.26,1.02.31,1.23-.14l.45.95c-.59-.86.78-1.44.87-1.89.49.67-.56.87-.45,1.47,1.78-.66.87-.38,2.77-.81,1-.9-.32-.96.12-1.94,1.02-.31,2.14-1.05,3.37-.3l-.33-.96c2.25-.53,3.67-.05,4.8,1.27,4.51-.55,7.55-.57,9.25-1.19,1.71-.57,2.12-1.54,1.99-2.57-.2-1.06-1.11-2.22-2.03-3.09-.91-.88-1.82-1.45-1.82-1.45-3.48-2.62-7.17-3.47-11.09-3.31-1.99.09-4.1.43-6.3,1.08-2.21.66-4.58,1.56-7.21,3.07"/>
  <path class="cls-1" d="M17.31,339.68l-.97.56c.15.1.43-.01.97-.56"/>
  <path class="cls-1" d="M291.08,349.34c.04-.08.1-.16.12-.24-.1.15-.13.21-.12.24"/>
  <path class="cls-1" d="M34.43,374.11s-.05-.02-.07-.02c-.11,0-.24-.02-.35-.01l.41.03Z"/>
  <path class="cls-1" d="M21.05,320.79c-1.99,1.15-3.67,2.46-5.31,3.54-1.55,1.21-3.01,2.29-4.33,3.41-1.29,1.17-2.5,2.17-3.69,3.33-1.19,1.18-2.33,2.45-3.41,3.93-1.08,1.48-2.1,3.16-2.94,5.24-.81,2.09-1.45,4.62-1.37,7.54.09,2.87.9,6.01,2.52,8.77,1.6,2.77,3.83,5.04,6.25,6.79,2.24,1.79,4.56,3.13,6.83,4.2,1.14.54,2.27,1.03,3.39,1.46,1.1.43,2.08.76,3.13,1.13,2.07.72,4.12,1.46,6.17,2.12,2.06.62,4.09,1.24,6.08,1.84,4.15-.13,10.4,3.17,15.2,3.11l1.54,1.22c1.64.02,3.52.16,4.98.92l-.15.21c2.45-.08,4.99.86,6.21.79l-.14.21,2.85.43-.55.24c2.09.07,4.18.29,6.21.61,2.03.27,3.99.65,5.82,1.08l-.16-1c7.75,2.26,10.89.62,17.88,2.66l-.12.22c9.24-1.64,14.15,3.04,23.62,1.13-1.17.24.47.52.36.75,4.3-.02,8.87-.03,9.01-1.91,3.11.14,2.51.69,2.89,1.44.01-.82,2.72-1.09,5.14-1.08l-1.12.29,6.95-.11-1.33-1.59c3.66.52.9,1.93,4.42,1.61l-.02-1.3c5.08.36,8.03,2.33,12.95,3.35,10.23.35,20.89-.37,31.38-1.17,10.49-.8,20.77-1.69,30.49-1.57l.95.89c.54,1.42,5.07-2.74,5.95-1.51l2.15-.92c.66.16,2.02.23.95.72,2.07-.25,2.09-.49,3.51-1.14l2.35.55c8.29-.67,14.85-3.77,23.34-5.64,2.65-.25,5.81-.86,9.18-1.87,3.35-.91,7.13-2.32,10.73-4.02,3.62-1.71,7.17-3.74,10.31-5.98,3.15-2.24,5.88-4.67,8.04-6.89,3.1-3.54,6.3-7.35,8.84-11.96.63-1.15,1.26-2.32,1.74-3.58.25-.62.53-1.24.77-1.88l.6-1.95c.42-1.21.88-3.31.91-5.1.06-1.85-.23-3.74-.97-5.46-.64-1.48-1.59-2.82-2.76-3.97-.58-.58-1.22-1.12-1.89-1.61-.34-.25-.68-.49-1.03-.72l-.92-.59c-1.74-1.11-3.41-2.16-5.17-3.11-3.49-1.92-7.1-3.49-10.79-4.51-.4-.41-1.86-.53-1.91-.38-4.56-2.05-9.21-3.9-13.92-5.58,0,0-4.28-1.56-10.05-3.05-5.76-1.53-13.02-2.88-18.66-3.21-5.65-.34-9.61.24-8.89,1.94.66,1.82,6.14,4.43,18.13,10.35l-.41.22c7.33,2.59,11.83,4.22,17.39,4.48.17,2.05,5.91,2.36,7.36,3.63l-.22.08c4.96.39,8.43,4.88,13.05,5.68-.23.06-.55.49-1.5.07,3.08,1.19,7.27,2.94,6.95,4.05,2.93,1.49,2.85,1.32,3.43,2.1.21.38.25.83.23,1.26-.01.13.01.17-.03.38l-.13.77c-.11.56-.12,1.14-.3,1.66-.14.53-.25,1.05-.35,1.57-.11.51-.3.98-.4,1.46-.19.96-.48,1.81-.6,2.61l-.11-.41c-.07,1.38-.6,2.05-1.11,2.72-.49.7-1.23,1.26-1.94,2.56-.2.02-.42.11-.43.04-.3.7-.82,1.43-1.46,2.16-.7.68-1.48,1.38-2.32,2-1.68,1.24-3.46,2.24-4.34,3.11l-.52-.55-2.53,1.57-2.63,1.46,2.07-.9c.12,1.06-1.03,1.38-2.67,1.67-1.63.33-3.68.69-5.5,2.12-3.86,1.27-6.78,6.83-11.42,7.18-1.81,1.49,1.39-1.99-1.49-.44-.39-1,1.26-1.04.23-1.64-2.89,1.31-5.2.34-8.77,1.9l-.34-.77c-2.25,1.35-4.65,1.55-6.81,1.71-2.16.18-4.12.24-5.64,1.23-5,1.58-3.81-1.82-8.88.58l-2.22-.81c-2.3.1-1.46,1.56-4.07,1.34.07-.72-3.27-.16-1.86-1.01-5.83-.48-11.54,2.77-19.31,1.33-1.57,1.5-5.48.84-6.67,1.93-.23-.56-7.75.19-3.45-1.26.37-.12,1.03-.12.99.12l.49-.84c-4.41-1.39-7.9,1.11-12.26.94,1.29.24,3,.14,1.87.72l-4.03-.03.83-.7-6.02-.34.83.84c-2.95-.4-3.99-1.86-7.31-.64-1.51.67,2.8,1.14-.32,1.41-3.95-.57-9.87-1.48-14.9-1.8.46.96-.9.91-2.3,1.09l-.15-.83c-5.36,1.06-1.93-1.86-7.24-1.03l.48-.57-1.43,1.71c-4.82,1.52-2.53-1.79-7.9.32,2.1-.09.93,1.86-1.64,1.42l.68-.77c-1.43.11-1.92.43-2.87.23.87-.4.49-1.15-1.61-1.09l1.44-.95-4.02,1.32c-3.02-.98-7.91-.19-9.1-1.37,0,0-1.63-.24-3.45-.35-1.82-.11-3.85-.08-4.64.49,1.37-.67-2.21-1.22-1.11-2.05-1.75.71-6.81,1-8.71-.12l.39-.06c-7.23-1.71-12.72-.11-19.09-2.26.15,1-3.22-.07-2.56,1.28-7.02.1-11.79-4.68-14.98-1.51-3.1-.48-3.42-1.65-4.94-2.22l.77-.02c-5.71-1.15-7.4-1.44-11.5-2.78-2.16-.27-3.03,1.39-6.61-.21,1.41-.27-.14-.65-1.51-1.11.91.19,1.26.04-.39-1.02-.32.12-.76.12-1.16.1,0-.06-.05-.12,0-.18-2.37-.54-2.05-.2-1.01.25-.09.08-.04.24.22.54-2.11-1.59-6.61-2.35-6.47-3.57-1.68-.58-3.42-1.05-4.81-1.49-1.44-.44-2.76-.88-4-1.36-2.45-.96-4.68-2.11-6.1-3.89.29-.73,1.21-.18,2.23.54-.76-.69-1.34-1.42-1.73-2.16.78-.33,1.05,1.01,1.84,1.59-.56-1.76-1.2-2.46-1.64-3.89-.42-1.34.03-3.65,2.02-5.27,0-.41.02-.83.06-1.26l.29-.17c-.31-.22.05-1.47.55-2.17,1.13-.05,1.29,1.25,3.17-.74.97-.55,2.14-1.53,3.18-2.82,1.13-1.19,2.27-2.56,3.36-3.55-1.38.77-1.2.15-.8-.48,1.19-.8,2.3-.59,3.04-1.47l.66.83c-1.02-.58,2.69-2.75,2.97-3.38,1.07.29-1.64,1.67-1.64,2.35,2.43-1.46,3.11-1.72,3.73-2.06.65-.31,1.24-.7,3.88-1.85,2.54-1.94-.9-.69.11-2.13,2.48-1.24,4.85-2.85,8.12-3.23l-1.25-.57c4.86-2.28,8.05-2.96,11.76-2.84,9.3-4.03,14.62-6.38,17.02-8.18,2.43-1.76,2.05-2.76.49-3.34-1.58-.56-4.36-.7-6.78-.64-2.41.03-4.45.26-4.45.26-8.18.52-14.38,2.14-20.75,4.69-1.59.67-3.2,1.3-4.85,2.12-.82.39-1.66.79-2.52,1.2-.85.45-1.71.9-2.6,1.37-1.78.89-3.6,2.03-5.57,3.13-1.92,1.24-3.99,2.47-6.11,4.03"/>
  <path class="cls-1" d="M227.18,359.73l.33.35c-.03-.18-.12-.32-.33-.35"/>
  <path class="cls-1" d="M273.73,334.16s-.05.02-.08.05c.04-.01.07-.03.08-.05"/>
  <path class="cls-1" d="M240.48,370.99h-.02s-.04.07-.06.11l.08-.11Z"/>
  <path class="cls-1" d="M224.96,372.07c4.07.01,5.38,1.69,9.49.37,2.03-.14,4.1-.89,6.02-1.44.68-1.53,2.56-.48,3.43-1.84l.57.71c.3-.46.69-.83,1.15-.48l.02.23c.44-.71,1.15-.48,1.36-.83l.02.23.66-.24-.05.35c.85-.83,1.84-1.1,2.79-1.01l-.29-.93c2.13.63,2.35-1.5,4.35-.66l.03.23c1.49-3.02,3.85.8,5.4-2.16-.19.37.26.45.3.68.94-.54,1.97-1.03,1.44-2.84.73-.19.76.39,1.07,1.06-.25-.8.28-1.31.83-1.54l-.17.39,1.56-.8-.81-1.38c1,.14.82,1.75,1.54,1.11l-.43-1.23c1.27-.17,2.65,1.44,4.24,1.84,2.67-.76,5.14-2.71,7.38-4.83,1.13-1.09,2.24-2.16,3.32-3.21.57-.52,1.11-1.03,1.73-1.54.62-.53,1.27-1.05,1.94-1.55l.98.3c.64.34.44-.35.21-1.02-.23-.68-.49-1.33.14-1.13l-.26-.95c.32-.07.76-.35.89.12.36-.59.12-.72-.08-1.33l1.1-.36c.79-1.19.91-2.54.83-3.88-.05-1.34-.31-2.68-.16-4.17.85-1.82.45-4.88-1.26-7.43-.82-1.26-1.92-2.41-3.01-3.19-1.1-.8-2.19-1.33-3.09-1.69-2.71-.64-4.51-2.34-6.57-3.9-1.01-.77-2.02-1.47-3.03-1.88-1.01-.42-1.99-.49-3.09-.1-.08-.22-.5.15-.53.32l-3.44-.92s-4.21-1.02-7.06-.24c-2.89.77-4.19,3.38.84,10.47l-.14.29c1.67,1.12,2.76,1.52,4.34.24-.21,1.92,1.45.5,1.74,1.2l-.08.14c1.44-1.21,2,1.67,3.36.6-.08.14-.22.65-.47.63.85-.09,1.94-.24,1.71.85.88.07,1.8.4,2.62.54.82.15,1.53.12,2.32-.49l-.19.25c.98-.85.64.12,1.38-.14-.05.14-.07.22-.1.27.53-.37.88-.18,1.1.06.24.25.35.55.67.5l-.53.52c.22.16.41.33.6.5l-.04-.32c.84-.58.69-.22.48.17-.24.43-.56.82.14.82,0,.29,1.08.18,2.12.32,1.04.12,2,.5,1.56,1.04.99.34-1.58-.21-.79.35-1.06.11-.69-.21-1.52.02.56.52-1.03.86-.35,1.5l-.83-.03c.74.45.39.85.06,1.14-.36.3-.7.5-.09.97.36,1.1-2.48-.3-1.29,1.08-.39-.05-.78-.12-1.16-.2-.31.2,1.12.86.44.94-.61-.37-.72.12-1.19-.42-.67.03-.54.54-.58,1.04-.02.5-.34,1.11-1.39.83.72,1.2-.31,1.01.15,1.94-.39-.44-1.18.74-1.31-.76,0-.12.09-.17.22.02l-.42-.71c-1.44-.85-.58,1.45-1.42,1.66.34.12.58-.11.68.48l-.71.28-.2-.68-1.16.17.52.68c-.72-.13-1.49-1.35-1.57,0,0,.74.99.81.53,1.31-.97-.19-2.41-.54-3.49-.42.42.86.14.93-.07,1.21l-.31-.77c-.71,1.47-.98-1.58-1.77-.35l-.09-.58.25,1.74c-.53,1.89-1.05-1.46-1.54,1.04.42-.28.76,1.68.08,1.51l-.09-.81c-.27.26-.28.61-.54.51.06-.47-.24-1.14-.66-.87l.02-1.05-.45,1.67c-.92-.61-1.7.71-2.29-.29,0,0-1.6-.12-1.62,1.16.1-.82-.79-.89-.79-1.82-.15.94-1.1,1.92-1.78,1.14l.06-.12c-1.89-.51-2.55,1.97-4.32,1.18.28.92-.63.59-.17,1.75-1.33,1.55-3.38-1.84-3.2,2-.69.35-1.03-.7-1.44-.81l.13-.23c-1.3.56-1.69.67-2.71.77-.44.46-.21,2.21-1.2,1.95.18-.74-.17-.55-.51-.49.2-.14.22-.41-.3-.8-.03.23-.1.37-.17.5-.01-.05-.04-.09-.04-.17-.53.34-.39.54-.11.59,0,.11.05.24.16.42-.74-.79-1.64.34-1.9-.85-1.66.54-2.71,1.96-4.09,2.62-.25-.59.02-1.19.4-1.48l-.99.37c-.11-.89.51-.59.8-.81-1.4-1.26-2.3,1.77-3.9.63l-.21.74-.1-.1c.05.37-.21.91-.41,1.06-.29-.75-.2-1.78-.9-1.65-.64-.68-1.54.55-2.23,1.05.41.09.33.53.19.82-.35.07-.64-.69-.88-.33l-.14-1.04c.24.97-.82,1.15-.91,1.59-.28-.75.48-.72.51-1.31-1.41.24-.71.12-2.11.36-.69.85.23.98-.05,1.92-.66.26-1.25,1.05-2.08.49l.33.91c-1.21.84-1.99.78-2.92-.09-4.47,4.13-4.87,6.73-4.06,8.33.8,1.59,2.79,2.15,2.79,2.15,4.02,1.77,5.82-1.09,10.31-2.28"/>
  <path class="cls-1" d="M115.03,149.22l.2.34c-.06-.17-.14-.31-.2-.34"/>
  <path class="cls-1" d="M131.88,144.97s0-.05,0-.09c0,.03,0,.06,0,.09"/>
  <path class="cls-1" d="M121.69,160.7h0s.01.06.02.1v-.1Z"/>
  <path class="cls-1" d="M118.61,160.7c.89.16,1.7,1.79,2.17.83.4.02.63-.5.91-.83-.28-1.4.45-.17.28-1.36l.32.74c-.05-.41-.06-.69.14-.3l.07.22c-.08-.61.14-.3.1-.61l.07.23.09-.14.08.32c-.01-.67.16-.76.41-.53l-.29-.92c.66.93.23-1.03.9.11l.06.23c-.28-2.58,1.09,1.5.87-.95.03.31.15.47.21.7.12-.32.29-.51-.18-2.35.15-.01.26.55.46,1.25-.21-.81-.17-1.17-.07-1.25l.03.33.25-.35-.44-1.51c.28.4.5,1.85.58,1.44l-.31-1.26c.3.19.9,2.07,1.34,2.95,1.02.33,1.39-3.13,2.72-1.05l.21.96c.27,1.4-.14-2.12.13-.83v-.66c.06.25.17.51.18.83.1.04.07-.19.06-.63l.25.86c.48.62.52-1.13.97-.84.74,1.72,1.37-.05,1.79-1.07.52-2.22,1.94,3.36,2.44.87.04.2.07-.26.05-.42l.7.15s.82.08,1.28-1.28c.43-1.37.66-4.21-1.12-10.04v-.31c-.48-.74-.79-.88-.98.71-.18-1.91-.38-.17-.53-.78v-.16c-.15,1.49-.66-1.18-.82.16,0-.15-.04-.68.01-.72-.17.26-.39.71-.51-.4-.43.34-1.14-.11-1.23,1.69v-.31c-.04,1.22-.21.2-.32.83-.03-.14-.05-.22-.05-.28-.04,1.2-.5.25-.58.77l-.1-.73-.33.22.15.14c.22,2.03-.44-1.23-.52.11-.28-.22.12,4.27-.26,3.31.03.96-.13-1.55-.19-.8-.16-1.05-.02-.67-.19-1.5-.09.52-.45-1.03-.55-.29l-.14-.82c-.04,1.54-.71-.99-.66.47-.17.72-.61-2.39-.64-.74l-.31-1.08c-.16-.16.15,1.37-.09.86-.12-.7-.28-.52-.32-1.2-.54-1.02-.38,1.67-1.17-.08.17,1.37-.21.61-.07,1.63-.13-.58-.46,0-.47-1.33,0-.11.04-.1.09.13l-.13-.8c-.57-1.46-.28.93-.58.75.13.25.21.16.26.72l-.25-.06-.1-.68-.43-.32.23.82c-.26-.39-.63-1.79-.56-.57.06.67.41,1.08.29,1.38-.35-.52-.88-1.29-1.22-1.46.25.92.16.91.13,1.12l-.2-.81c-.03,1.19-.54-1.75-.63-.78l-.11-.57.34,1.7c.13,1.66-.56-1.63-.32.62.08-.17.5,1.76.27,1.44l-.16-.78c-.04.18.02.51-.07.37-.06-.43-.27-1.14-.35-.97l-.17-.99.15,1.49c-.39-.79-.38.33-.74-.74,0,0-.52-.43-.27.78-.13-.76-.41-.99-.59-1.87.13.86.04,1.62-.32.77v-.11c-.69-.79-.36,1.45-1.06.46.29.92-.05.47.35,1.63-.02,1.27-1.43-2.17-.44,1.5-.11.25-.47-.79-.62-.94l-.02-.2c-.23.4-.31.46-.57.45,0,.39.53,2.07.19,1.74-.16-.69-.2-.54-.28-.51.01-.12-.05-.37-.3-.78.05.21.08.35.09.46-.02-.05-.03-.09-.06-.16-.05.28.04.48.13.55.03.1.08.23.16.41-.43-.81-.35.19-.76-.95-.3.4-.17,1.67-.33,2.23-.25-.57-.36-1.12-.35-1.38l-.15.3c-.3-.84-.04-.53-.03-.73-.77-1.26-.07,1.56-.85.44l.18.69-.06-.1c.13.35.24.85.24.98-.32-.71-.63-1.68-.77-1.58-.39-.66-.22.49-.23.94.14.09.26.5.32.77-.07.05-.39-.65-.33-.32l-.39-.97c.39.91.19,1.07.32,1.48-.33-.71-.13-.67-.32-1.22-.28.21-.14.11-.42.32.13.8.4.91.66,1.79-.07.25.07.98-.33.46l.41.84c0,.78-.18.75-.73-.05.5,3.91,1.5,6.3,2.28,7.75.79,1.45,1.39,1.95,1.39,1.95,1.45,1.62.73-1.02,1.29-2.02"/>
  <path class="cls-1" d="M274.79,173.96l.6.34c-.02-.18-.18-.32-.6-.34"/>
  <path class="cls-1" d="M277.89,272.23s-.04.09-.04.14c.05-.08.05-.12.04-.14"/>
  <path class="cls-1" d="M291.03,188.39h-.01s-.07.03-.1.06l.11-.06Z"/>
  <path class="cls-1" d="M272.29,186.8c1.06-.29,1.86-.29,2.6-.2.75.09,1.45.27,2.2.45,1.52.36,3.09.69,6.42.61,3.13.39,5.78.31,7.51.71.64-.54,1.18-.27,1.74.04.3.13.51.35.81.45.3.1.6.16.97.1-.06.29-.12.58-.2.86.54-.12,1,.04.96.56l-.18.14c.79-.02.92.67,1.31.71l-.2.12.47.5-.34.09c.56.18.92.62,1.24,1.01.25.48.46.94.49,1.49l.87-.44c-.09,1.24.33,1.91.74,2.63.38.72.74,1.47.28,2.69h-.24c1.47,1.23,1.14,2.53.75,3.72-.41,1.23-.85,2.38.29,4.02-.28-.41-.51.15-.74.11.23,1.46.2,3.06,2.09,3.28-.15,1.11-.69.84-1.44.9.83.08,1.07,1.09.98,1.97l-.26-.44c-.02.84-.05,1.68-.11,2.53l1.63-.23c-.68,1.27-1.93.01-1.8,1.35l1.28.23c-.61,1.82-2.77,2.47-4.13,3.95-1.15,3.48-1.66,7.32-2.64,10.91-.45,1.76-1.18,3.51-2.03,5.16-.8,1.67-2,3.08-3.32,4.3l-.99-.24c-1.25-.62.79,2.71-.48,2.24l.11,1.03c-.34.05-.82.3-.88-.21-.45.59-.26.73-.19,1.42l-1.17.16c-1.14.97-1.72,2.2-2.28,3.49-.59,1.26-1.23,2.54-2.33,3.63-.91.45-1.88,1.08-2.75,1.93-.88.85-1.72,1.88-2.59,2.9-1.64,2.13-3.29,4.37-4.51,6.07-.77,1.29-1.94,2.22-3.24,2.98-1.33.74-2.87,1.18-4.34,1.68-1.49.47-3.03.8-4.36,1.41-1.35.59-2.61,1.24-3.6,2.43-.25-.1-.48.52-.41.67-1.62.58-3.22,1.19-4.85,1.7,0,0-1.49.43-3.39,1.17-.95.36-2.04.67-3.1,1.11-.53.21-1.05.45-1.56.69-.51.2-1.01.42-1.46.65-1.82.94-3.1,2.19-2.59,3.75.26.78.97,1.63,2.38,2.55,1.41.92,3.53,1.96,6.6,2.7l-.08.33c.86,0,1.65-.03,2.37-.1.71-.09,1.35-.27,1.93-.48,1.17-.43,2.13-1.11,2.96-2.19,1,1.68,2.62-.83,3.57-.54v.17c1.31-2.05,4.35-.62,5.57-2.67,0,.17.2.66-.19.89,1.22-.81,2.69-2.18,3.33-1.27,1.42-.99,3.27-1.95,4.76-3.16,1.52-1.17,2.8-2.39,3.1-3.79l.07.34c.26-1.71,1.16-1.11,1.88-2.43.15.07.27.07.3.13.33-1.71,2.84-2.67,3.34-3.74l.55.51c.65-.61,1.24-1.27,1.83-1.93l-.82.58c-1.16-1.72,2.32-.47,2.78-2.77,1.5-1.11-.64-5.54,1.31-6.16-.14-1.26.66,1.58.97.15.83.67.09.89.96,1.2.47-1.29,2.18-.93,2.65-2.62l.69.47c.16-2.52,3.28-2.49,2.95-4.47.7-2.13,2.9.24,2.8-2.58l1.42-.13c.69-.73-.78-1.33.27-1.94.56.43,1.22-.85,1.45.03,1.11-.77,1.39-2.08,1.8-3.39.44-1.31.91-2.67,2.47-3.71-.91-1.25.56-2.33-.14-3.25.6.17,1.46-3.05,1.89-.79.03.19-.11.46-.32.34l.65.54c2.22-1.2.61-3.59,1.46-5.23-.44.43-.63,1.14-.98.48l.69-1.58.53.57,1.21-2.31-.91.07c.79-1.05,2.32-1.06,1.56-2.77-.47-.8-1.43.81-1.32-.52,1.03-1.42,2.51-3.62,3.21-5.68-.98-.01-.82-.56-.88-1.18l.83.1c-.7-2.46,1.97-.47,1.47-2.9l.54.3-1.61-.89c-1.29-2.26,1.88-.85-.02-3.42.01.91-1.85.18-1.38-.85l.76.37c-.1-.63-.41-.86-.2-1.25.39.41,1.14.32,1.1-.6l.93.71c-.42-.62-.87-1.25-1.31-1.85.98-1.26-.02-3.43,1.11-3.96,0,0,.15-.73.14-1.55-.03-.82-.23-1.74-.86-2.04.79.57,1.02-1.09,1.93-.67-.9-.76-1.81-2.96-1.04-4.03l.12.16c.24-1.82-.39-3.32-1.04-4.71-.67-1.41-1.36-2.71-1.45-4.52-.81.5-1.06-1.36-2.01-.45-1.24-1.3-1.45-2.95-1.98-4.25-.48-1.3-1.27-2.18-3.11-1.41-1.16-1.03-.66-1.96-1.13-2.72l.42.13c-2.53-1.83-3.32-2.24-5.25-3.42-1.2-.17-2.03,1.29-3.62.24.82-.44.04-.61-.63-.82.46.04.7-.16-.07-.91-.19.17-.43.24-.64.29,0-.05-.02-.11.02-.17-1.21-.07-1.05.2-.56.43-.05.1-.05.24.06.47-.94-1.22-3.17-.64-3.09-1.84-3.36-.24-5.46.92-7.96,1.17-.23-.64.39-1.15,1.13-1.33l-1.79.09c.08-.89,1.07-.44,1.62-.57-.99-.8-2.14-.53-3.36-.2-1.23.33-2.48.7-3.91.12l-.54.74-.17-.1c.03.37-.54.93-.93,1.1-.48-.72-.17-1.81-1.62-1.53-1.32-.56-3.27,1.12-4.44,2.04.79-.16.69.34.48.71-.63.26-1.3-.29-1.66.23l-.49-.93c.64.78-1.2,1.74-1.18,2.25-.71-.51.61-1.08.53-1.68-2.43,1.38-1.25.67-3.52,2.16-.74,1.43.75.69.7,1.83-.9.83-1.38,2.08-2.81,2.38l.9.49c-1.27,1.87-2.29,2.58-3.99,2.76-.93,1.97-1.55,3.7-1.69,5.05-.15,1.36.1,2.32.48,2.98.42.6.78,1.19,1.24,1.45.45.29.94.38,1.43.32.83.21,1.46.3,2.03.23.55-.06,1.03-.27,1.03-.27,1.03-.27,2.19-.92,3.19-1.71.97-.76,1.71-1.57,2.41-2.42,1.38-1.67,2.65-3.63,4.82-4.94"/>
  <path class="cls-1" d="M264.35,198.25l.6-.02c-.12-.13-.32-.17-.6.02"/>
  <path class="cls-1" d="M278.27,261s-.03.09-.03.14c.04-.08.04-.11.03-.14"/>
  <path class="cls-1" d="M284.36,201.16h-.02c-.01.05-.04.08-.05.13l.06-.13Z"/>
  <path class="cls-1" d="M269.1,210.38c1.9-1.69,3.46-2.33,4.88-2.98,1.44-.65,2.75-1.36,4.55-2.92,1.98-1.05,3.89-2.43,5.82-3.31.55-1.67,2.61-.78,3.53-2.11l.57.72c.33-.47.79-.76,1.22-.38v.23c.51-.66,1.11-.3,1.37-.6l-.02.23c.21-.02.42-.07.63-.08l-.12.32c.9-.6,1.84-.48,2.37-.02l.21-.94c.58.73.98.68,1.42.69.42,0,.87.11.65.81l-.18.15c1.24-.54,1.23.28.94.85-.26.65-.61,1.14.66,2.1-.32-.24-.49.13-.73.12.32.9.36,2.14,2.24,2.34-.11.9-.67.67-1.41.69.83.09,1.07.93.99,1.68l-.26-.39c0,.71-.1,1.47-.16,2.21l1.64-.13c-.7,1.1-1.94-.07-1.81,1.12l1.27.26c-.62,1.59-2.67,2.09-4.08,3.31-1.11,3.03-1.59,6.38-2.46,9.66-.5,1.6-.99,3.22-1.75,4.66-.81,1.42-1.77,2.71-2.99,3.76l-.98-.27c-1.28-.65.9,2.5-.35,2.01l.17.95c-.32.03-.78.23-.86-.24-.4.52-.21.66-.11,1.3l-1.11.09c-1,.86-1.53,1.93-2,3.09-.46,1.16-.94,2.35-1.99,3.26-1.75.67-3.25,2.41-4.74,4.28-1.38,1.96-2.79,4-3.81,5.57-.56,1.28-1.62,2.08-2.79,2.76-1.18.66-2.49,1.2-3.88,1.57-1.37.4-2.7.82-3.89,1.41-1.23.52-2.29,1.25-3.09,2.42-.24-.09-.39.52-.31.66-1.39.7-2.84,1.25-4.25,1.88,0,0-.32.16-.84.41-.53.24-1.26.58-2.1.96-.83.4-1.75.88-2.64,1.43-.9.51-1.8,1.01-2.54,1.6-1.48,1.17-2.41,2.55-1.7,4.01.72,1.42,3.1,3.11,8.77,4.24l-.02.34c2.99-.39,4.9-.87,6.02-3.23,1.11,1.6,2.26-.87,3.15-.61v.17c.95-2.05,3.85-.73,4.72-2.72.02.17.26.64-.08.86.99-.84,2.24-2.08,2.9-1.22,1.19-.97,2.73-1.95,4.05-3,1.29-1.09,2.3-2.33,2.51-3.61l.09.32c.11-1.62,1.01-1,1.57-2.24.14.07.26.07.29.12.11-1.69,2.45-2.44,2.83-3.46l.55.5c.56-.56,1.09-1.14,1.59-1.75l-.73.52c-1.21-1.68,2.15-.36,2.41-2.53.65-.49.45-1.79.29-3.02-.19-1.26-.34-2.44.56-2.72-.23-1.21.74,1.53.92.17.83.66.16.85.99,1.17.35-1.2,2.07-.74,2.43-2.29l.68.47c-.08-2.42,2.99-2.19,2.57-4.05.59-1.92,2.77.32,2.55-2.27l1.37-.06c.63-.64-.82-1.26.16-1.79.57.42,1.14-.74,1.41.09,1.1-.63,1.25-1.86,1.59-3.05.32-1.21.78-2.41,2.28-3.3-.96-1.19.39-2.16-.35-3.02.58.18,1.31-2.61,1.81-.59.04.17-.09.39-.29.28l.66.51c1.05-.45,1.18-1.24,1.16-2.08-.05-.85-.3-1.77.11-2.49-.42.36-.59.99-.96.38l.64-1.39.53.54,1.19-2.01h-.91c.8-.88,2.34-.8,1.54-2.4-.48-.75-1.39.66-1.31-.55.95-1.25,2.5-3.15,3.19-4.98-.97-.05-.82-.55-.9-1.11l.82.13c-.69-2.25,1.94-.34,1.48-2.55l.53.29-1.59-.86c-1.24-2.08,1.93-.64.04-3.14.01.86-1.86.13-1.37-.84l.76.37c-.1-.61-.4-.83-.2-1.2.39.4,1.14.31,1.09-.6l.94.7c-.43-.62-.88-1.24-1.34-1.84.96-1.32-.23-3.58.78-4.33,0,0,.05-.85-.17-1.82-.2-.97-.71-2.03-1.44-2.22.99.48.53-1.61,1.58-1.38-.6-.34-1.36-1.13-2.05-1.96-.67-.84-1.27-1.74-1.33-2.53l.24.12c-1.18-2.21-3.12-3.3-4.82-3.97-1.75-.68-3.32-1.03-4.86-2.07-.12.95-1.72,0-1.57,1.32-1.73.23-3.03-.52-4.24-.89-1.17-.35-2.16-.3-2.59,1.63-1.31.28-1.61-.75-2.33-.88l.29-.23c-2.43.63-3.1.82-4.88,1.16-.79.58-.43,2.32-2.01,2.37.26-.83-.31-.5-.86-.31.31-.23.35-.51-.55-.7-.03.24-.14.42-.25.58-.03-.05-.07-.08-.08-.16-.83.58-.58.73-.13.65.02.11.1.22.3.35-1.27-.49-2.53,1.12-3.14.08-2.57,1.51-3.69,3.65-5.33,5.31-.57-.37-.43-1.13.03-1.71-.43.36-.86.74-1.27,1.13-.5-.74.5-.99.85-1.41-1.25-.05-1.93.86-2.56,1.82-.65.95-1.26,1.93-2.57,2.2l.09.85h-.18c.25.28.2,1,.04,1.31-.76-.36-1.19-1.35-2.01-.53-1.18.09-1.6,2.07-2.08,3.21.53-.37.7.08.71.46-.36.42-1.16.13-1.2.67l-.81-.67c.88.5-.19,1.8.01,2.24-.8-.27.06-1.09-.28-1.58-1.41,1.76-.72.87-2.08,2.66-.14,1.42.91.46,1.26,1.47-.49.93-.52,2.16-1.72,2.71l.97.26c-.56,1.95-1.29,2.79-2.79,3.3-.44,3.98-.08,6.44.54,7.92.63,1.48,1.56,2,2.52,2.01,1.91.04,3.92-1.75,3.92-1.75,2.28-1.58,3.22-3.2,4.01-5.11.79-1.88,1.42-4.09,3.12-6.46"/>
  <path class="cls-1" d="M97.83,82.8l.22-.35c-.14.11-.24.23-.22.35"/>
  <path class="cls-1" d="M97.35,41.71s.08,0,.13-.02c-.07-.01-.11,0-.13.02"/>
  <path class="cls-1" d="M102.17,68.67h0s.06-.02.1-.03l-.11.03Z"/>
  <path class="cls-1" d="M109.1,78.11c-.67-1.59-.84-2.76-1.18-3.87-.34-1.09-.87-2.14-2.31-3.06-.97-1.17-2.36-1.85-3.43-2.5-1.38.66-1.21-1.02-2.47-.55l.34-.76c-.42.17-.8.2-.67-.26l.16-.17c-.63.25-.65-.25-.96-.12l.17-.17-.34-.17.27-.2c-.81.13-1.21-.2-1.31-.7l-.66.71c.14-1.4-1.57-.28-1.08-1.7l.19-.14c-1.28.46-1.18-.14-1-.67.16-.54.41-1.04-.87-.82.32-.05.41-.29.62-.4-.44-.21-.77-.54-2.48.27-.13-.33.42-.5,1.07-.85-.76.35-1.2.22-1.34-.01h.34c-.18-.21-.38-.4-.55-.62l-1.42.7c.28-.58,1.76-.76,1.27-1.01l-1.23.42c.04-.68,1.83-1.57,2.66-2.26.04-1.03-.78-1.95-1.27-3.05-.49-1.07-.61-2.32.72-3.01l.97.13c1.39.31-1.95-.98-.64-.72l-.57-.37c.26.02.55,0,.83.18.1-.13-.12-.21-.49-.46.3.05.59.1.89.16.41-.1.23-.32.03-.57-.21-.24-.41-.54-.26-.43.03.02.11.11.08.08l-.72-.76h.01s.02.03.02.03l.08.09.06.08s-.12-.21-.2-.54c-.09-.33-.12-.74-.08-1.01.02-.13.04-.22.06-.28,0,0,0-.03,0-.03h0s0-.02,0-.02h0s0,0,0,0c.15-.34-.2.46-.16.38h0s0,0,0,0l.02-.06s0,.02-.14.19c-.07.1-.43.42-.59.55-.14.13-.45.46-.76.83-.61.75-1.22,1.67.21,2.55-.19.08.32.27.48.24.15.99.36,2,.71,3.07,0,0,.29.96,1.22,2.23.85,1.23,2.79,2.97,4.99,3.21,1.04.13,1.98-.11,2.51-.59.57-.47.71-1.13.7-1.94-.03-.83-.32-1.79-.28-2.97.01-1.18.61-2.41,1.73-3.39.08-.07.18-.16.12-.1.24-.22.25-.19.31-.26.05-.05.09-.09.13-.13.06-.1.08-.13.02-.19-.11-.07-.49-.07-1.31,0,1.78-.71.01-.58.56-.95l.15-.03c-.77-.05-.51-.27-.27-.7.24-.43.5-.9-.24-1.15.15,0,.67-.1.74.07-.36-.51-.99-1.26.06-1.62-.36-.75-.63-1.82-1.27-2.86-.61-1.03-1.67-2.01-2.88-2.02l.31-.12c-.77.04-.99-.12-1.2-.37-.22-.23-.41-.55-1.03-.62.04-.15.01-.26.06-.3-.78.18-1.39-.11-2.08-.42-.68-.31-1.37-.56-1.81-.37l.04-.74c-.73-.03-1.42.03-2.07.15.26.03.5.06.75.11-.11,1.02-.43.71-.97.36-.53-.35-1.34-.68-1.78.15-.64.08-.81,1.32-.76,2.39.02,1.1.23,2.01-.39,1.88.29,1-.69-1.44-.73-.45-.72-.78-.17-.73-.87-1.25-.14.45-.54.46-.95.53-.4.07-.82.22-.82.8l-.68-.47c.22.96-.27,1.23-.77,1.54-.49.29-.96.59-.45,1.23.21,1.25-2.6-.18-1.46,1.46l-1.2.09c-.31.43,1.22.71.57,1.06-.68-.21-.7.5-1.28.05-.66.46-.43,1.15-.23,1.83.18.69.3,1.35-.7,2.05,1.32.44.49,1.15,1.51,1.43-.62.02-.11,1.5-1.41.64-.11-.07-.09-.21.15-.2l-.81-.12c-1.54.92.84,1.64.68,2.48.25-.28.16-.61.73-.42l-.06.8-.7-.11c-.11.41-.19.83-.27,1.25l.82-.27c-.36.62-1.77,1.07-.46,1.54.71.17,1.03-.73,1.4-.18-.45.83-1.05,2.18-1,3.25.89-.36.93-.09,1.2.12l-.78.27c1.42.66-1.61.95-.38,1.7l-.58.11,1.72-.33c1.87.27-1.4,1.14,1.08,1.26-.29-.33,1.6-.9,1.47-.32l-.78.22c.27.18.61.12.54.35-.46.04-1.09.42-.79.74l-1.03.18c.56.03,1.11.05,1.67.06-.47.94.93,1.25.1,2.04,0,0,.25,1.46,1.46.99-.79.21-.6.99-1.45,1.34.92-.18,2.08.16,1.62,1.06h-.13c.25,1.81,2.6,1.02,2.62,2.67.64-.72.72.09,1.47-.9,1.67-.07-.12,3.31,2.71.74.51.18-.15,1.06-.09,1.37l-.22.07c.9.37,1.11.51,1.55,1,.48-.07,1.69-1.37,1.83-.68-.6.41-.34.46-.18.6-.17,0-.38.16-.48.7.17-.14.3-.2.42-.25-.04.04-.05.08-.11.14.42.04.52-.16.47-.34.08-.08.16-.19.25-.37-.33.92.78.62,0,1.54.91.46,2.29.04,3.17.29-.39.49-.92.73-1.24.75l.53.23c-.66.6-.58.13-.82.14-.65,1.4,1.94-.02,1.38,1.39l.65-.32-.07.11c.29-.23.8-.41.96-.39-.57.55-1.44,1.06-1.21,1.3-.46.64.72.38,1.26.48.02-.23.42-.4.69-.47.11.14-.51.62-.15.56l-.91.53c.84-.54,1.13-.14,1.55-.27-.65.43-.72.07-1.25.32.37.51.2.25.53.77.87,0,.89-.45,1.8-.65.3.22,1.14.32.64.89l.85-.4c.9.45.9.99.03,1.57,2.07.94,3.56,2.12,4.81,2.79,1.26.68,2.31.73,3.15.66.85-.23,1.52-.88,1.93-1.51.4-.62.57-1.18.57-1.18.97-2.24.41-3.99-.54-5.35-.98-1.39-2.38-2.49-3.67-3.99"/>
  <path class="cls-1" d="M121.71,1.9l.2.55c.08-.16.05-.35-.2-.55"/>
  <path class="cls-1" d="M129.53,79.92s.05.05.09.06c-.03-.04-.06-.06-.09-.06"/>
  <path class="cls-1" d="M120.32,18.64h0s-.07-.01-.11-.02l.12.02Z"/>
  <path class="cls-1" d="M114.7,12.12c.97.43,1.27,1.23,1.4,1.78.3.69.59,1.19,1.64,1.77.63.9,1.74,1.77,2.57,2.96,1.58,0,.83,1.71,2.22,2.13l-.64.59c.47.16.86.42.53.85l-.23.05c.72.26.52.88.86,1.03l-.23.04.25.53-.35-.02c.82.67,1.07,1.55.91,2.37l.94-.24c-.77,1.84,1.3,2.19.18,3.87h-.23c1.35.85.98,1.69.55,2.48-.42.8-.89,1.54.3,2.57-.3-.26-.5.09-.73.07.25.92.32,1.91,2.21,2.07-.08.7-.64.52-1.38.54.83.07,1.12.71,1.1,1.26l-.29-.29c.04.52.07,1.05.08,1.58l1.6-.08c-.57.78-1.92-.07-1.67.78l1.29.2c-.45,1.14-2.53,1.44-3.7,2.31-1.53,4.36-.11,10.51-3.52,14.9h-1c-1.42-.22,1.74,1.87.42,1.77l.52.72c-.28.11-.63.41-.88.05-.17.54.06.6.4,1.07l-.98.43c-1.07,2.09.35,4.21-.21,6.45-2.12,2.63-.62,8.1.54,10.99,1.18,2.03.45,4.3-.07,6.71-.56,2.38-.9,4.9.75,6.78-.16.18.36.44.52.4.23,1.31.5,2.61.8,3.9,0,0,.31,1.17.91,2.64.8,1.96,2.24,4.66,5.6,6.14,1.67.75,3.86.6,4.78-.15.47-.34.71-.74.77-1.1.05-.36-.11-.7-.28-1.07-.41-.69-1.46-1.45-1.54-2.71-.03-1.21.71-2.36,1.64-3.74l.29-.11c.07-.26.12-.48.18-.69.03-.22-.07-.7-.19-.98-.26-.63-.78-1.09-1.7-1.51,1.8-.71-.23-1.52.29-2.1h.16c-1.71-.76.66-2.51-.83-3.29.16.01.68-.07.76.17-.41-.71-1-1.71.09-1.95-.64-1.79-.38-4.4-2.26-5.46l.32.06c-1.25-.6-.24-.88-.9-1.62.14-.05.21-.11.28-.1-1.24-.7-.27-2.21-.8-2.81l.74-.05-.17-1.51-.16.56c-2.04-.21,1.27-1.13,0-2.25.28-.99-4.12-2.35-3.05-3.42-.91-.61,1.51.59.84-.26,1.06.07.64.42,1.5.29-.43-.81,1.21-1.12.59-2.12l.83.06c-1.34-1.4,1.36-2.08.09-3.08-.45-1.35,2.54-.38,1.2-1.92l1.2-.26c.29-.48-1.26-.66-.61-1.14.68.19.72-.62,1.29-.12,1.37-1.03-.86-3.09,1.45-4.42-1.21-.76-.16-1.47-1.07-2.06.59.12.64-1.86,1.58-.44.08.12.01.28-.21.2l.75.35c1.78-.64-.25-2.18.29-3.21-.35.25-.4.7-.86.26l.39-.98.6.4.81-1.43h-.88c.62-.65,2.1-.56,1.15-1.75-.55-.56-1.29.46-1.35-.43.83-.88,2.05-2.28,2.58-3.66-.96-.05-.85-.42-.97-.85l.82.11c-.87-1.72,1.91-.24,1.24-1.95l.55.22-1.66-.66c-1.44-1.58,1.81-.55-.24-2.34.08.62-1.84.09-1.42-.59l.78.26c-.13-.42-.45-.58-.26-.84.41.28,1.15.23,1.06-.39l.97.49-1.39-1.25c.91-.84-.13-2.28,1-2.62,0,0,.55-1.94-.71-2.34.78.36,1.04-.71,1.95-.44-.88-.48-1.68-1.89-.81-2.55l.11.1c.75-2.32-1.69-3.56-.91-5.67-.93.26-.6-.85-1.77-.35-.79-.85-.38-1.85-.27-2.66.1-.81-.08-1.42-2.02-1.22-.45-.8.54-1.29.57-1.81l.26.15c-.85-1.56-1.08-2.01-1.51-3.27-.62-.46-2.24.18-2.36-1.02.8.02.47-.34.27-.73.22.19.5.16.65-.58-.23.03-.4-.02-.56-.07.05-.03.07-.07.14-.1-.58-.53-.71-.31-.62.04-.1.04-.21.13-.33.31.43-1.12-1.13-1.78-.17-2.51-1.52-1.79-3.57-2.26-5.21-3.17.27-.6.96-.7,1.54-.46-.38-.28-.76-.55-1.17-.79.6-.66.96.16,1.38.34-.09-1.12-1.05-1.48-2-1.74-.98-.29-1.91-.46-2.5-1.56l-.73.41-.05-.16c-.17.34-.8.55-1.12.56.07-.82.79-1.62-.22-2-.53-1.04-2.41-.43-3.47-.21.52.25.24.63-.03.85-.47-.08-.62-.87-1.05-.6l.1-1.05c.05.98-1.43.9-1.62,1.34-.24-.8.8-.62.99-1.19-2.05-.04-1.03-.06-3.08.07-1.02.89.25.97-.18,1.94-.87.28-1.53,1.12-2.62.74l.52.83c-1.3,1.1-2.01,1.26-3.41.95-.84,1.56-1.03,2.91-.91,3.96.1,1.04.52,1.8.94,2.34.85,1.1,1.73,1.73,2.63,1.81.8.35,1.29.57,1.64.8.31.2.46.32.46.32.76.72.63.57.98-.07.29-.6,1.01-1.56,2.25-1.73"/>
  <path class="cls-1" d="M146.67,77.27l.4-.17c-.18,0-.33.03-.4.17"/>
  <path class="cls-1" d="M161.49,36.75s-.05-.03-.08-.05c.03.03.05.04.08.05"/>
  <path class="cls-1" d="M160.52,73.73h0s.05.04.08.06l-.08-.06Z"/>
  <path class="cls-1" d="M158.58,79.79c.52-1.94,2.36-2.19,1.87-3.87.28-.7.06-1.49.06-2.19-1.21-.79.28-.78-.63-1.6l.77.22c-.3-.29-.47-.56-.03-.47l.2.12c-.43-.47,0-.49-.2-.74l.19.13.06-.28.26.22c-.35-.66-.12-1.06.35-1.22l-.81-.53c1.4-.09,0-1.57,1.6-1.52l.18.15c-1.27-2.51,2.57-.44,1.53-3.06.13.33.44.24.62.39.18-.7.51-1.4-1.03-2.5.31-.38.72.01,1.36.38-.68-.48-.72-1.02-.54-1.39l.16.33c.13-.38.27-.74.38-1.12l-1.44-.64c.68-.26,1.71.88,1.68.18l-1.12-.66c.64-.55,2.58-.02,3.84-.36,1.05-1.47,1.12-3.44,1.21-5.19.09-1.76.24-3.34,1.7-4.54l.98.09c1.41.24-1.89-1.26-.58-1.09l-.57-.47c.27-.04.58-.19.86.04.11-.3-.11-.35-.5-.66l.94-.17c.91-1.12-.62-2.43-.09-3.62,2.02-1.27.69-4.28-.11-5.9-.94-1.22.09-2.37.97-3.93.44-.78.83-1.67.88-2.63.05-.95-.24-1.96-1.11-2.72.16-.18-.38-.36-.53-.3-.33-1.25-.86-2.44-1.55-3.53,0,0-.61-1.02-1.91-2.02-1.24-1.01-3.39-1.89-5.22-1.58-.89.13-1.63.52-2.03,1.07-.43.54-.49,1.22-.37,2.02.13.81.5,1.73.68,2.89.19,1.15.09,2.52-.68,3.81l-.16.24c-.43.68-.67.62.76-.08-1.6,1.07-.05.29-.57.66l-.15.06c.71-.24.45-.04.18.18-.28.22-.6.38.08.4-.15.01-.67.09-.71.05.27.11.73.42-.38.53.35.49-.22,1.6,1.48,2.42l-.3-.07c1.16.48.13.5.69,1-.15,0-.23.03-.29.02,1.14.57.04,1.32.51,1.74l-.74-.06.07.9.2-.31c2.01.35-1.34.52-.11,1.3-.33.55,4.06,1.74,2.98,2.24.9.43-1.5-.47-.83.07-1.05-.13-.63-.3-1.49-.3.44.5-1.18.54-.54,1.16l-.82-.1c1.4.91-1.28,1.07.07,1.75.54.8-2.5,0-1.04.99l-1.15.04c-.24.25,1.3.48.7.69-.69-.17-.64.28-1.25-.05-1.22.43,1.19,1.8-.86,2.19,1.27.57.35.78,1.29,1.22-.58-.15-.37.85-1.45-.04-.09-.07-.05-.14.17-.06l-.76-.3c-1.6-.01.52,1.1.13,1.49.3-.04.3-.25.78.07l-.26.39-.6-.33-.62.45.82.24c-.53.14-1.88-.34-.93.46.54.43,1.17.19,1.27.61-.71.17-1.77.34-2.23.65.86.42.77.53.86.75l-.73-.4c.72,1.04-1.68-.76-1.14.14l-.47-.34,1.4,1.03c1.11,1.32-1.57-.74-.02.98.02-.27,1.58.93,1.1.99l-.61-.52c.04.23.29.47.09.46-.3-.33-.91-.72-.95-.44l-.72-.72.92,1.24c-.9-.22-.42.92-1.42.36,0,0-.96.34-.12,1.27-.49-.62-1.03-.41-1.65-1.08.54.72.65,1.73-.27,1.4l-.05-.11c-1.45.31-.19,2.35-1.78,2.6.82.52.04.71,1.13,1.29.37,1.59-3.36.58-.3,2.9-.09.57-1.1.16-1.42.33l-.11-.22c-.23,1.13-.31,1.43-.72,2.15.19.52,1.82,1.21,1.18,1.69-.58-.44-.56-.14-.64.11-.05-.19-.28-.33-.83-.15.19.12.3.23.38.33-.05-.02-.1-.02-.17-.04.1.49.34.48.49.32.1.04.23.07.44.07-1.01.15-.29,1.17-1.46.91-.08,1.34,1,2.45,1.31,3.48-.63.02-1.14-.29-1.33-.63l.11.75c-.88-.13-.44-.49-.58-.74-1.58.69,1.17,1.95-.22,2.78l.69.26-.12.05c.37.02.86.27.97.42-.79.09-1.79-.12-1.77.36-.77.35.32,1.11.74,1.59.14-.26.57-.16.84-.05.02.23-.76.35-.42.54h-1.05c.99-.07,1.07.62,1.5.7-.78.14-.67-.35-1.26-.41.11.93.05.46.16,1.39.8.47.99-.11,1.92.1.22.42.96.79.35,1.29l.92-.19c.76.74.67,1.19-.24,1.76,3.97,2.58,6.59,2.64,8.19,2.13,1.61-.52,2.23-1.64,2.23-1.64,1.93-2.2-.86-3.03-1.57-5.31"/>
</svg>