<?xml version="1.0" encoding="UTF-8"?>
<svg id="Capa_1" data-name="Capa 1" xmlns="http://www.w3.org/2000/svg" viewBox="0 0 196.58 246.05">
  <defs>
    <style>
      .cls-1 {
        fill: #a4d5cc;
      }
    </style>
  </defs>
  <g id="Objeto_generativo_0_0_" data-name="Objeto generativo (0, 0)">
    <path class="cls-1" d="M29.19,170.89l-.51,1.01c.17,0,.35-.24.51-1.01"/>
    <path class="cls-1" d="M180.71,191.72c-.05-.08-.08-.17-.13-.23.06.17.1.22.13.23"/>
    <path class="cls-1" d="M11.97,211.1s0-.04,0-.06c-.03-.09-.04-.2-.07-.29l.06.35Z"/>
    <path class="cls-1" d="M19.72,156.29c-2.56,14.29-4.8,17.9-5.91,32.95-.97,7.13-1.4,14.8-1.84,21.81.51,1.72.3,4.02.07,6.39-.11,1.18-.24,2.39-.29,3.55-.02.45-.03.89-.05,1.33,0,.49-.01.97-.02,1.44,0,.94.04,1.82.12,2.63l-.98,2.9c.11,1.13.18,2.33.14,3.58l-.04.94c.02.14-.1.37.04.43l.45.16c.59.22,1.14.46,1.63.73l-.35.12c2.03.35,3.9.9,5.54,1.41,1.64.5,3.04.99,3.94,1.08l-.22.17,1.75.44,1.25.3-.51.19c3.72.41,7.4,1.22,10.6,2.15l-.08-.96c6.77,2.39,9.62.88,15.73,2.87l-.11.21c2.06-.35,3.85-.38,5.53-.21,1.67.18,3.23.52,4.8.85,3.13.68,6.32,1.32,10.45.35-1.03.24.41.49.32.72,3.77-.08,7.77-.14,7.87-1.94,2.71.08,2.2.61,2.53,1.32,0-.8,2.37-1.06,4.48-1.1l-.98.29,6.06-.2-1.17-1.51c3.2.45.8,1.84,3.87,1.5l-.03-1.24c4.42.27,7.01,2.16,11.28,3.1,17.77.6,36.88-2.49,53.41-.24l.73.94c.32,1.37,4.53-2,5.26-.75l2.03-.65c.58.23,1.83.44.8.78,1.93-.02,1.99-.27,3.35-.78.73.21,1.46.44,2.23.62,4.02-.19,8.04-1.33,11.84-3.76,3.81-2.36,7.19-6.3,9.11-11.08,1.52-2.75,2.25-6.4,2.23-9.94.01-3.56-.61-7.1-1.28-10.26-1.33-6.41-3.1-12.83-4.42-17.5-4.43-12.96-2.36-29.59-7.87-42.67.08-.49-.61-1.53-.76-1.48-.92-4.15-1.88-8.3-2.87-12.43,0,0-.91-3.76-2.34-8.62-1.41-4.87-3.38-10.82-5.3-15.25-1.95-4.42-3.84-7.32-5.09-6.11-1.27,1.21-1.82,6.52-1.47,18.46l-.37-.22c1.12,6.84,2.04,11.07,4.67,15.31-1.58,1.17,1.18,5.54,1,7.25l-.18-.11c2.37,3.76.88,8.69,3.01,12.35-.18-.12-.69-.09-.93-.99.9,2.82,2.15,6.68,1.17,7.12,1.8,6.82,3.28,16.54,5.8,20.65l-.35-.25c1.62,2.31.79,3.24,1.9,5.96-.11.18-.14.39-.21.37,1.63,2.55,1.65,8.03,2.5,10.18l-.67.27,1.1,5.48-.19-2.09c2.05.38-.51,4.39,1.38,8.15.16,1.84,1.4,3.47,2.43,5.24,1.03,1.73,1.86,3.73,1.09,5.52.61,1.86-1.2-1.72-.96.89-.99-.14-.42-1.23-1.32-.77.02,1.15-.51,1.96-1.06,2.69-.59.73-1.2,1.35-1.71,2.5l-.66-.45c-.45,1.61-2,2.36-3.41,2.72-1.43.4-2.82.51-3.9,1.46-1.87.75-2.7.23-3.44-.15-.77-.39-1.47-.66-3.62.24l-1.76-1.01c-1.92-.14-1.34,1.34-3.57.82.14-.67-2.87-.55-1.54-1.18-5.14-1.08-10.45,1.46-17.22-.35-1.48,1.31-4.89.51-5.99,1.49-.18-.57-6.84-.12-3-1.35.33-.1.91-.08.87.14l.46-.78c-3.86-1.48-7.03.78-10.85.54,1.13.26,2.64.2,1.63.73l-3.55-.12.74-.65-5.29-.4.73.81c-2.59-.43-3.49-1.81-6.42-.67-1.32.64,2.45,1.1-.29,1.35-3.46-.57-8.65-1.42-13.06-1.68.41.92-.78.88-2,1.06l-.14-.79c-4.69,1.08-1.71-1.75-6.34-.91l.41-.55-1.24,1.65c-4.19,1.52-2.23-1.66-6.88.41,1.83-.1.83,1.76-1.42,1.37l.59-.75c-1.25.14-1.67.45-2.5.27.75-.4.42-1.1-1.41-1.02l1.25-.92-3.48,1.31c-2.64-.88-6.87-.07-7.91-1.2,0,0-5.63-.85-7.01.2,1.19-.64-1.9-1.16-.94-1.95-1.52.74-5.89.98-7.5-.09l.33-.06c-6.18-1.59-10.93-.22-16.28-2.4.07.95-2.75-.14-2.28,1.15-2.99-.09-5.48-1.27-7.5-2.18-.26-.1-.51-.21-.75-.3l-.34-.13-.11-.05c-.16-.05-.3-.06-.47,0-.35.1-.83.43-1.73,1.1-.72-.13-.93-.42-.93-.7-.06-.1.18-.39.31-.58.14-.21.25-.39.31-.56l.18.15c-.08-.9-.1-1.59-.09-2.21-.01-.13.07-1.04.13-1.77.08-.76.16-1.57.26-2.52-.18-1.94-1.85-2.4-1.11-5.79.56,1.17.57-.24.7-1.52.03.83.25,1.1.86-.53-.18-.26-.28-.63-.35-.99.05,0,.1-.07.17-.03-.03-2.16-.27-1.81-.46-.83-.1-.06-.23,0-.45.3,1.07-2.13.58-6.19,1.74-6.34.41-6.45-.24-11.17-.04-16.57.66-.53,1.03.78,1.08,2.36l.24-3.81c.84.14.22,2.23.25,3.42,1.91-4.33-.22-9.46,1.75-14.58l-.52-1.19.15-.3c-.35-.03-.68-1.28-.68-2.08.84-.64,1.69.29,2.02-2.33.99-1.96.48-5.91.5-8.67-.34,1.44-.68.91-.84.24.17-1.31,1.02-1.95.85-3l1.01.03c-1.02.37-.47-3.56-.8-4.1.85-.63.31,2.12.82,2.53.74-5.23.37-2.62,1.11-7.85-.29-2.91-1.02.35-1.67-1.12.21-2.49-.08-5.01,1.01-7.73l-1.03.74c.11-4.74.72-7.49,2.17-10.44-.36-17.85-2.29-20.18-4.37-17.99-2.03,2.19-4.01,8.9-4.01,8.9-4.49,13.3-3.21,20.85-5.04,37.26"/>
    <path class="cls-1" d="M39.59,71.25l1,.29c-.03-.17-.29-.29-1-.29"/>
    <path class="cls-1" d="M100.81,123.2c-.07.03-.16.05-.23.08.16-.03.21-.05.23-.08"/>
    <path class="cls-1" d="M76.42,83.18s-.04,0-.05,0c-.08.03-.17.05-.24.08l.29-.08Z"/>
    <path class="cls-1" d="M30.11,83.95c1.36-.1,2.6-.2,3.75-.29,1.27-.07,2.44-.13,3.55-.19,2.22,0,4.18.09,6.14.12,1.96.02,3.93.03,6.2.05,2.28.02,4.83-.21,8.02-.36,6.07.08,12.59-.17,18.62-.1,2.93-1.2,7.91.36,11.39-.51l1.27.85c1.2-.31,2.59-.48,3.74,0l-.09.22c1.8-.45,3.76.04,4.66-.19l-.09.22,2.15.06-.39.29c3.11-.39,6.3-.2,9.08.28l-.17-.94c5.91,1.48,8.27-.33,13.62,1.26l-.09.22c3.53-1.04,6.22-.49,8.97.08,2.74.54,5.56,1.04,9.16,0-.9.26.37.49.3.71,3.32-.21,6.87-.39,6.9-2.2,2.4.02,1.96.57,2.29,1.27-.02-.78,2.06-1.13,3.94-1.27l-.86.34,5.39-.48-1.12-1.46c2.86.32.81,1.8,3.53,1.33l-.11-1.24c1.97-.02,3.57.37,5.18.86.81.24,1.62.49,2.46.75.43.12.86.23,1.32.34.01.14.17.25.29.36.43.01.87-.01,1.28.19.4.2.67.59.84,1,.09.21.16.43.22.67.02.12.06.24.08.37l.03.2v.42c.03,1.22-.09,2.47-.35,3.71-.54,2.47-1.68,4.86-3.32,6.74-.42.49-.98,1.04-1.6,1.66l-.98,1c-.36.38-.65.69-1.11,1.24-1.69,1.98-2.91,4.36-3.2,6.92-.05.45-.08.91-.09,1.37v.68c-.01.26-.02.26-.03.39-.01.08-.02.16-.03.19,0,.03-.01.04-.02.04h0s-.02.02,0,.02l.21.02c.28.02.56.06.83.1.19.02.38.05.57.09l.43.1.32.09c.7.25.46.34.04-.25-.21-.29-.49-.75-.8-1.46l-.24-.58-.12-.32c-.05-.13-.02-.04-.03-.08,0-.02-.04-.03-.08-.04-.15-.28-.29-.57-.47-.85-.11-.32-.22-.34-.59-.17-.35.17-.79.51-1.23.85-.89.68-1.82,1.39-2.19.81l-1.52.87c-.49-.17-1.49-.28-.73-.71-1.5.18-1.5.4-2.53.96l-1.72-.63c-5.97.1-10.91,2.15-17.3,2.15-7.67-1.26-22.1.39-30.59,1.23-11.89,1.97-25.68-3.56-37.86-1.3-.39-.2-1.42.23-1.42.39l-11.13-.26s-3.38-.05-7.8.04c-1.11.03-2.28.07-3.48.11-1.16.06-2.36.12-3.55.18-1.05.06-1.88.08-2.44.05-.23-.01-.46-.02-.68-.03h-.13s-.06-.01-.06-.01h-.03s-.02,0-.02,0h0c-.42.66-.12.18-.21.33v-.02c.06-.09.12-.17.17-.23.01-.02-.02.01-.03.02-.17.08-.45-.02-.68-.07-.1-.02-.23-.04-.34-.03-.24,0-.49-.02-.63-.06-.12-.03-.19-.06-.19-.06-.06-.03-.22-.14-.33-.25-.23-.25-.38-.61-.82-.68-.33-.16-.87-.26-1.48.18-.6.42-1.22,1.49-1.14,3.08.04.79.26,1.69.79,2.64.26.47.64.97,1.08,1.41.41.43.89.83,1.43,1.2,2.15,1.51,5.04,2.21,7.52,2.91l-.28.29c6.09.76,9.93.95,14.14-.52.65,1.84,5.01.22,6.43.82l-.14.15c3.73-1.39,7.65,1.22,11.24-.02-.14.15-.22.65-1.04.67,2.61-.22,6.19-.6,6.37.47,6.24-.24,14.94.31,18.95-1.37l-.28.29c2.28-1.14,2.95-.15,5.5-.72.14.14.32.21.29.27,2.49-1.12,7.25-.13,9.27-.62l.13.71,4.97-.17-1.86-.15c.63-1.95,3.77,1.22,7.37-.1,3.4.2,6.76-4.19,10.27-3.37,1.63-.98-1.41,1.54,1.06.74.13,1.01-1.14.69-.46,1.47,2.44-.6,4.1.85,7.1-.04l.18.78c3.86-1.72,7.62.44,10.14-1.24,4.02-1.11,3.06,2.01,7.14-.11l1.83.8c1.87-.12,1.11-1.49,3.23-1.34,0,.69,2.67.07,1.59.91.39.01.7.02,1.15-.02.46-.05.99-.14,1.63-.31,1.23-.36,3.1-1.02,4.91-3,.88-.98,1.56-2.23,1.91-3.39.36-1.16.43-2.16.43-2.92,0-.39-.02-.71-.04-1-.02-.28-.05-.58-.07-.56-.04-.1-.09-.2-.11-.31-.06-.27,0-.58.22-.79.11-.1.25-.19.41-.23.1.04.49-.22.92-.4-.12-.82.51-1.6,1.29-2.5.8-.92,1.66-2,1.63-2.76.3.12,1.47-1.39,2.27-2.48.76-1.1,1.35-1.73.78.48-.12.38-.51.93-.66.77l.35.88c1.91-1.47,2.76-3.51,3.2-5.55.45-2.06.53-4.11,1.02-6.25-.47,1.25-.85,2.9-1.08,1.67.34-1.28.6-2.59.77-3.93l.56.91c.09-.5.19-1.01.25-1.52.06-.53.14-.94.17-1.72.07-1.38.03-2.81-.1-4.21-.21.45-.41.89-.66,1.31.01-1.99.06-3.46-.22-4.92-.3-1.42-.97-2.9-2.84-4.14-.9-.49-.44.37-.21,1,.21.66.34,1-1-.33-1.45-1.97-4.13-3.73-7.49-4.12-.84-.11-1.73-.15-2.63-.15l-1.42.03c-.67.02-.78,0-1.05,0-.99-.04-1.97-.06-2.91-.04.43.88-.58.93-1.61,1.2l-.18-.78c-3.9,1.41-1.55-1.56-5.45-.53l.32-.56-.97,1.69c-3.53,1.71-1.98-1.57-5.9.73,1.57-.21.79,1.76-1.18,1.4l.48-.76c-1.08.16-1.44.48-2.16.32.64-.41.33-1.11-1.26-.98l1.06-.96-3,1.41c-2.31-.78-6.02.14-6.95-.97,0,0-4.98-.66-6.18.47,1.04-.68-1.72-1.1-.89-1.92-1.33.76-5.22,1.25-6.71.29l.3-.08c-5.65-1.24-9.84.64-14.93-.84.17.93-2.52.24-1.93,1.46-5.41.77-9.6-3.09-11.78.39-2.45.02-2.84-1.04-4.09-1.32l.6-.15c-4.62,0-5.93-.08-9.36-.33-1.73.27-2.08,1.94-5.12,1.38,1.02-.62-.23-.56-1.38-.62.74-.07.97-.3-.51-.83-.22.2-.55.3-.86.4-.01-.05-.07-.1-.04-.17-1.93.18-1.6.4-.72.52-.05.1.02.23.29.43-1.96-.92-5.55-.1-5.76-1.26-2.89.02-5.39.41-7.74.8-2.36.41-4.58.75-6.98,1.11-.56-.57.55-1.14,1.95-1.42l-3.42.35c0-.85,1.96-.57,3.01-.78-4.16-1.18-8.36,1.58-13.23.81l-.94.75-.29-.09c.04.35-.98.93-1.68,1.1-.75-.68-.12-1.71-2.49-1.46-1.96-.46-5.3,1.08-7.68,1.81,1.34-.06.97.41.45.75-1.22.19-2.57-.38-3.68.2l-.56-.91c.99.76-3.88,1.83-4.11,2.29-1.52-.44,2.03-1.06,2.17-1.66-6.79,1.48-3.4.74-10.19,2.22-.54.05,0,.59.13.83.19.28.34.45.45.56.23.22.34.16.44.07.19-.2.35-.53,1.22.51.64,1.4,1.42,2.8,2.08,4.14.66,1.35,1.2,2.62,1.48,4.1.19-.32.39-.61.6-.88,2.59,4.46,3.42,6.42,3.82,9.4,4.98,6.22,8.44,9.1,10.53,10.24,2.1,1.13,2.92.51,3.04-.85.15-1.33-.35-3.34-.85-5.03-.5-1.69-1.02-3.05-1.02-3.05-.89-2.8-1.82-5.17-2.81-7.35-.26-.54-.51-1.08-.75-1.61l-.39-.78-.19-.39c-.06-.11-.02-.02-.04-.04-.05.05-.16.06-.3.04-.14-.03-.33-.1-.56-.25-.11-.07-.23-.16-.36-.27l-.2-.18c-.06-.06-.04-.08-.06-.12-.05-.3.22-.68,1.02-.99"/>
    <path class="cls-1" d="M38.38,104.26l.16.39c.01-.17-.03-.32-.16-.39"/>
    <path class="cls-1" d="M87.11,101.52s.02-.05.03-.09c-.03.04-.03.06-.03.09"/>
    <path class="cls-1" d="M45.16,117.32h-.01s-.04.06-.06.09l.07-.09Z"/>
    <path class="cls-1" d="M34.95,115.47c2.63.69,3.19,2.47,6.06,2,1.33.25,2.8-.04,4.13-.15.71-1.3,1.74.09,2.55-.98l.24.78c.28-.37.6-.62.83-.19l-.03.22c.42-.56.83-.19,1.04-.47l-.03.22.47-.07-.1.31c.7-.57,1.4-.59,2-.29v-.93c1.25,1.09,1.79-.82,2.94.44l-.02.22c1.53-2.4,2.36,1.7,3.93-.61-.19.29.08.47.07.7.72-.27,1.48-.41,1.46-2.23.52.02.43.56.51,1.26-.02-.8.43-1.14.83-1.2l-.18.31,1.15-.3-.27-1.49c.62.41.22,1.82.79,1.44l-.05-1.24c.85.21,1.43,2.06,2.32,2.94,3.57.34,6.92-3.21,10.4-1.57l.29.9c.29,1.34.55-2.14.88-.92l.26-.68c.15.22.41.44.28.78.35,0,.32-.23.49-.68l.51.77c1.46.4,2.27-1.43,3.7-1.38,2.01,1.36,4.7-.84,6.22-2.1,2.05-2.5,5.78,2.31,7.73-.34.11.18.24-.28.22-.44l2.18-.1s.65-.03,1.48-.25c.83-.2,1.85-.58,2.62-1.24.77-.67,1.33-1.69,1.16-3.22-.18-1.52-1.08-3.64-3.61-6.28l.04-.3c-1.44-.62-2.35-.67-3.11.92-.37-1.8-1.13-.05-1.53-.59v-.15c-.61,1.51-1.85-.91-2.45.46,0-.15-.06-.65.12-.71-.54.32-1.24.86-1.47-.19-1.32.5-3.28.39-3.79,2.23v-.3c-.26,1.22-.59.29-1.01.97-.06-.13-.11-.19-.11-.25-.29,1.22-1.48.48-1.79,1.05l-.17-.69-.99.38.41.07c.27,1.94-1.03-1.03-1.5.36-.74-.1-.57,4.26-1.48,3.47-.16.96,0-1.51-.37-.72-.22-.99.11-.67-.18-1.44-.4.57-1.02-.85-1.49-.06l-.18-.77c-.51,1.58-1.69-.73-1.95.72-.7.79-.97-2.21-1.53-.53l-.51-1c-.38-.11-.03,1.34-.51.89-.09-.67-.59-.45-.46-1.12-1.04-.9-1.57,1.77-2.97.15-.08,1.33-.76.63-.83,1.63-.1-.56-1.19.05-.67-1.26.04-.11.14-.1.16.12v-.78c-.82-1.38-1.11.92-1.79.77.22.24.47.14.35.69l-.62-.04.07-.67-.94-.3.19.8c-.48-.38-.74-1.75-1.15-.56-.18.66.5,1.06.05,1.35-.64-.5-1.59-1.29-2.36-1.49.11.91-.09.88-.3,1.08l-.06-.79c-.77,1.14-.37-1.73-1.14-.83l.05-.55-.16,1.66c-.69,1.59-.44-1.63-1.2.53.32-.14.19,1.74-.22,1.41l.09-.77c-.22.17-.29.49-.44.33.13-.41.05-1.11-.27-.98l.2-.96-.59,1.41c-.48-.82-1.23.22-1.43-.86,0,0-1.02-.54-1.26.64.21-.73-.35-1.02-.18-1.88-.27.83-1.07,1.5-1.36.6l.06-.1c-1.13-.93-2.02,1.19-3.04.05.01.92-.52.4-.43,1.58-1.15,1.12-1.87-2.48-2.46,1.13-.51.17-.55-.88-.79-1.08l.13-.19c-.96.24-1.23.26-1.92.13-.37.33-.54,2.02-1.14,1.56.25-.65-.02-.55-.25-.57.16-.1.22-.34-.06-.81-.06.21-.13.33-.2.43,0-.05,0-.09,0-.17-.41.21-.36.42-.18.53-.02.1-.01.23.03.42-.35-.89-1.14-.02-1.11-1.18-1.2.18-2.14,1.29-3.17,1.66-.06-.6.21-1.1.52-1.31l-.72.16c.08-.85.44-.45.67-.61-.72-1.45-1.83,1.23-2.71-.12l-.26.66-.05-.12c-.03.36-.29.82-.45.92-.07-.75.16-1.71-.33-1.7-.32-.75-1.12.26-1.66.61.26.15.14.55,0,.8-.25,0-.32-.75-.54-.45l.07-1c.01.95-.73.96-.85,1.36-.07-.75.44-.6.55-1.15-.96,0-.48,0-1.44,0-.49.71-.02.95-.32,1.81-.41.15-.85.8-1.11.1l-.09.9c-.88.49-1.37.08-1.29-1.05-.85.33-1.29.13-1.81.41-.48.2-.84.61-1.18,1.16-.27.57-.94,1.06-1.29,1.56-.4.49-.7.96-.94,1.39-.78.67-1.25,1.24-1.26,1.88-.03.62.23,1.11.23,1.11.37,1.1,1.17,1.9,2.08,2.42.92.52,1.94.72,2.98.74.49,0,1.12-.02,1.63-.1.51-.08.95-.19,1.33-.31.68-.25,1.31-.49,2.1-.59"/>
    <path class="cls-1" d="M100.5,95.68l-.21-.38c0,.17.05.32.21.38"/>
    <path class="cls-1" d="M137.52,108.33c-.02.05-.05.1-.06.16.06-.09.07-.13.06-.16"/>
    <path class="cls-1" d="M90.22,101.52s-.01-.02-.01-.02c-.05,0-.09-.04-.15-.04l.16.06Z"/>
    <path class="cls-1" d="M105.33,84.73c-2.26-.64-3.73-1.27-5.29-1.71-.39-.11-.79-.21-1.2-.27-.45-.06-.77-.13-1.42-.12-.63.02-1.47.07-2.67.4-1.17.34-2.94,1-4.69,2.73-.85.79-1.53,1.64-2.1,2.73-.56,1.06-.91,2.21-1.07,3.29-.29,2.16.09,3.75.49,4.95.86,2.38,1.9,3.61,2.84,4.77.87.04,1.22.5,1.65,1.1.43.58.88,1.21,1.73,1.32l-.24.88c.61.09,1.15.29,1.22.93l-.18.14c.92.11,1.29.9,1.9,1.01l-.17.15c.32.21.63.43.96.62l-.34.15c1.69.49,3.09,1.2,4.4,1.96l.18-.92c1.46,1.17,2.72.92,3.83.81.83-.11,1.62-.16,2.81.17v.23c1.53-1.48,2.71-1.5,4.18-1.66,1.29-.11,2.42-.23,2.86-1.84-.11.4.35.34.45.55.79-.79,1.52-1.41.59-2.97.6-.34.78.19,1.22.73-.42-.67-.08-1.27.35-1.6l-.05.39,1.17-1.05-1.05-1.12c.92-.06,1.14,1.45,1.62.72l-.66-1.05c1.09-.39,2.65.86,4.07,1.06,2.08-.98,3.75-2.79,5.49-4.4.86-.79,1.84-1.63,2.51-1.97.35-.18.67-.26.9-.21.11.02.2.08.26.17.02.05.05.09.06.15-.03-.14-.05-.38-.07-.48v-.18c-.02-.12-.02-.11-.02-.17,0-.05,0-.13,0-.22v-.04s.03-.29.03-.29h0s0,.04,0,.04c0,.02,0,.02-.01.06l-.05.17s-.08.19-.03.07c-.09.23-.1.24-.21.41-.05.09-.11.19-.18.27-.18.25-.38.46-.54.59-.08.07-.15.12-.2.16.04-.03.11-.07.17-.09.27-.1.62-.17.51.2-.81.42-.83.88-.79,2.02.02.54.04,1.26.16,1.61.06.19.13.33.22.43.02.02.05.05.07.07.02.02.03.03.17.12.21.16.37.29.49.41.17.16.28.28.35.36v.02s.02,0,.02,0h0c.2.25-.27-.34-.22-.28h0s0,0,0,0l.02.02.04.06s.06.1.08.13c.02.01-.02,0-.11-.41-.02-.1-.02-.17-.03-.28l-.03-.12c0-.06-.05-.16-.07-.24-.07-.19-.16-.41-.28-.65-.24-.49-.55-1.05-1.01-1.46-.23-.2-.5-.38-.83-.48-.16-.05-.35-.1-.54-.11-.21-.03-.48-.07-.74-.06,0-.23-.48-.02-.56.11l-2.63-1.94s-12.96-9.04-9.06,6.98l-.23.2c1.1,1.58,1.96,2.32,3.8,1.74-.84,1.64,1.12.96,1.15,1.68l-.11.1c1.7-.59,1.16,2.17,3.01,1.82-.12.1-.4.52-.67.39.92.3,2.31.56,1.93,1.55,1.19.42,2.7,1.11,4.54,1.33,1.82.25,4.07-.24,5.04-1.46l-.09.34c.56-.76.92-.96,1.38-1.16.45-.17.94-.37,1.4-1.06.15.06.28.04.31.1.26-.93.91-1.69,1.43-2.42.53-.72.95-1.37.9-1.85l.67.23c.23-.69.39-1.33.5-1.9l-.35.6c-1.78-.82,1.6-.91.66-2.59.25-.6-.64-1.44-1.5-2.13-.86-.71-1.68-1.25-1.23-1.84-.94-.52,1.51.44.76-.4,1.01-.11.66.4,1.46.1-.55-.9.88-1.83-.21-3.02l.73-.3c-1-.7-1.12-1.52-1.34-2.38-.21-.84-.53-1.67-1.5-1.67-.94-.48-.85-1.11-.89-1.74-.04-.59-.24-1.24-1.76-1.09-.15-.47-.35-.93-.6-1.39-1.18-.52-1.15,1-2.35.29.16-.69-1.64-.62-.83-1.23-1.61-.56-3.16.13-4.29.83-1.17.71-2.07,1.39-3.5,1.19.22,1.39-.98,1.21-.68,2.19-.34-.46-1.54.85-1.36-.73.02-.13.16-.19.27,0l-.31-.72c-1.62-.73-1.11,1.64-2.07,1.96.38.07.68-.2.74.4l-.83.39-.18-.66-1.36.39.59.59c-.79,0-1.71-1.05-1.74.32.05.72,1.11.6.65,1.18-1.05,0-2.62,0-3.72.38.57.72.29.85.12,1.18l-.45-.65c-.45,1.57-1.29-1.25-1.85.13l-.2-.53.6,1.57c-.09,1.9-1.36-1.09-1.25,1.36.33-.36,1.11,1.37.43,1.38l-.28-.73c-.19.31-.11.64-.38.61-.05-.45-.5-1-.83-.64l-.23-.98-.02,1.67c-1.03-.32-1.31,1.05-2.03.21-.04.03-1.18.05-.78,1.15-.25-.69-.51-.88-.79-1.7.33.77.19,1.55-.04.68v-.1c-.17-.39-.17-.16-.3.1-.11.3-.41.63-.36,0-.28.89-.28.34-.68,1.47-.49.42-.47-.29-.42-.62.02-.19.02-.26-.18-.17-.22.07-.61.33-1.3.93-.52-.23.16-1.03.11-1.36l.22-.04c-.89-.52-1.13-.77-1.59-1.48-.54-.13-1.93.84-2.11-.08.7-.19.38-.4.29-.54.17.05.37-.08.61-.53-.19.09-.33.11-.44.13.04-.03.07-.06.14-.09-.35-.12-.51.02-.51.19-.09.05-.2.12-.33.26.54-.75-.42-.69.67-1.07l-.36.1c-.22.07-.43.12-.65.16-.39.09-.78.12-1.04.14-.56.03-.91-.09-.93-.1-.04-.02.01,0,.01,0l.08.06.06.05.03.03h0s0,0,0,0c.14.13-.18-.18-.15-.14h0s0,0,0,0l.06.07c.06.08.15.2.26.43.11.19.26.67.21.45.31,1.03,0-.09-.24-.52.09.18.22.47.33.81.12.31.27,1.06.23.8.02.1.04.19.05.26.01.07.03.16,0,0-.05-.22-.09-.41-.17-.67-.12-.46-.27-.85-.38-1.06.19.41.42,1.06.62,2.15.02.1.08.42.06.33,0,0,0-.02,0-.03,0-.03.01-.06.04-.1.03-.08.1-.17.18-.27.42-.37,1.02-.77,1.55-.11l.26-.67.06.11c0-.36.3-.83.48-.93.12.75-.12,1.71.43,1.7.35.75,1.25-.22,1.92-.51-.29-.17-.13-.56.06-.8.3.03.32.79.6.52l-.18.99c.08-.96.94-.84,1.15-1.21-.02.76-.59.52-.78,1.04,1.12.18.56.07,1.67.3.81-.54.17-.95.72-1.69.6-.01,1.4-.47,1.81.34l.13-.9c1.32-.22,1.96.21,2.21,1.35,2.7-.62,4.69-1.03,5.98-1.66,1.29-.62,1.84-1.47,2.07-2.28.15-.86-.14-1.79-.51-2.46-.37-.68-.78-1.14-.78-1.14-1.49-2.07-3.29-2.76-5.21-3-1.95-.24-4.05-.07-6.73-.23"/>
    <path class="cls-1" d="M140.41,92.93l.2.33c-.05-.16-.11-.3-.2-.33"/>
    <path class="cls-1" d="M166.5,89.26s.01-.05.03-.08c-.02.03-.02.06-.03.08"/>
    <path class="cls-1" d="M147.26,104.02h0v.1-.1Z"/>
    <path class="cls-1" d="M142.54,104.26c1.3.07,2.07,1.67,3.07.65.61,0,1.12-.55,1.64-.89-.05-1.38.74-.19.81-1.36l.29.72c.03-.4.1-.69.3-.31l.04.22c.04-.6.3-.31.32-.61l.04.22.18-.14.03.32c.16-.67.46-.76.78-.54l-.2-.9c.77.91.62-1.02,1.36.09l.03.22c.23-2.53,1.31,1.46,1.6-.93-.04.3.11.46.14.69.27-.31.58-.5.31-2.3.24-.01.27.53.41,1.22-.12-.79.03-1.14.21-1.21l-.04.31.48-.34-.31-1.47c.34.39.32,1.8.54,1.41l-.17-1.23c.42.19.89,2.03,1.36,2.89,1.53.35,2.9-2.96,4.49-.88l.12.93c.11,1.36.26-2.04.39-.78l.13-.63c.06.24.17.5.11.81.15.05.15-.18.23-.6l.21.84c.62.63,1.06-1.04,1.71-.72.8,1.71,2.16.09,3.02-.81,1.24-2.04,2.4,3.45,3.66,1.18.03.2.15-.23.16-.39l1.07.26s1.28.23,2.23-.96c.91-1.2,1.69-3.84-.02-9.68l.06-.29c-.61-.79-1.04-.98-1.61.49.05-1.83-.54-.23-.66-.83l.03-.15c-.49,1.38-.79-1.23-1.25.01.02-.14.06-.65.15-.67-.3.22-.72.61-.7-.46-.71.26-1.68-.28-2.16,1.42l.04-.3c-.27,1.15-.33.17-.62.75-.01-.14-.03-.21-.03-.27-.29,1.13-.8.17-1.02.65v-.71s-.56.16-.56.16l.2.15c-.06,1.95-.42-1.23-.8.05-.38-.24-.67,4.07-1.05,3.12-.16.92.12-1.48-.13-.78-.03-1.02.11-.64.02-1.45-.25.49-.47-1.03-.77-.33l-.04-.79c-.38,1.46-.86-1-1.09.39-.41.67-.42-2.33-.8-.76l-.24-1.06c-.21-.16-.07,1.32-.32.81-.03-.67-.32-.52-.22-1.17-.59-1.02-.92,1.57-1.72-.16-.04,1.32-.44.57-.46,1.56-.07-.57-.68-.04-.41-1.3.02-.1.08-.09.1.13l-.02-.78c-.52-1.44-.62.88-1.02.69.14.24.28.16.23.7l-.36-.07v-.66s-.56-.32-.56-.32l.16.8c-.3-.39-.55-1.75-.71-.57-.06.65.36,1.06.13,1.34-.4-.52-1.01-1.28-1.48-1.46.16.9.04.88-.06,1.08l-.12-.78c-.32,1.15-.4-1.7-.75-.77l-.04-.55.11,1.66c-.19,1.61-.46-1.6-.61.59.16-.16.34,1.72.07,1.41l-.06-.77c-.1.18-.09.5-.2.36.01-.42-.13-1.11-.29-.95l-.02-.97-.13,1.45c-.39-.77-.64.32-.92-.73,0,0-.66-.43-.59.76,0-.74-.37-.97-.43-1.83,0,.84-.32,1.58-.65.75l.02-.1c-.82-.76-.87,1.43-1.66.46.21.9-.2.46.11,1.6-.35,1.24-1.57-2.11-1.02,1.49-.22.25-.49-.76-.67-.91l.02-.2c-.43.4-.57.47-.96.47-.1.39.26,2.03-.16,1.72-.05-.68-.16-.52-.28-.49.05-.12.02-.37-.25-.76.03.21.02.34.02.45-.01-.05-.02-.09-.04-.16-.15.28-.06.48.05.54.02.1.06.23.13.4-.42-.79-.57.2-.88-.91-.55.42-.68,1.67-1.06,2.24-.21-.56-.23-1.1-.15-1.36l-.3.31c-.22-.82.08-.53.14-.73-.79-1.21-.51,1.57-1.35.5l.08.68-.06-.1c.1.34.12.84.08.97-.28-.69-.47-1.65-.71-1.53-.4-.64-.46.5-.59.97.17.08.25.49.27.75-.11.06-.4-.62-.4-.29l-.31-.96c.33.89-.02,1.07.06,1.48-.29-.69,0-.67-.14-1.21-.46.24-.23.12-.69.36-.03.8.34.89.48,1.76-.17.26-.17.99-.61.5l.36.82c-.2.79-.47.78-1.04.03-.36,3.96.39,6.33,1.12,7.73.74,1.4,1.5,1.84,1.5,1.84,1.71,1.48,1.42-1.15,2.56-2.23"/>
    <path class="cls-1" d="M17.81,45.95l-.05-.8c-.14.1-.17.33.05.8"/>
    <path class="cls-1" d="M147.86,21.56c.02.08.02.18.05.25,0-.18-.02-.24-.05-.25"/>
    <polygon class="cls-1" points="16.28 19.2 16.28 19.21 16.39 19.21 16.28 19.2"/>
    <path class="cls-1" d="M32.08,47.42c-4.52-8.37-4.34-11.42-10.03-19.5-1.15-2.05-2.46-4.1-3.8-6.11l-1.01-1.5-.51-.75c-.12-.18-.07-.09-.1-.12l-.04-.02c-.1-.05-.22-.12-.32-.22-.79-.05-.93-.38-.91-.63,0-.13.04-.25.01-.41.06-.08.03-.22-.1-.48.32.16.61.32.87.5-.23-.34-.14-.65.25-.33l.11.2c-.03-.6.09-.29.95-.8v.23s1.38-.45,1.38-.45l-.16.37c.91-.58,1.93-.93,2.94-1.17,1.01-.26,2.02-.39,3-.36l-.29-.89c2.12.2,3.49-.16,4.86-.47,1.35-.35,2.7-.55,4.62-.04l-.04.23c2.38-1.28,4.34-.9,6.28-.42,1.95.45,3.89,1,6.5-.02-.66.24.24.49.18.71,2.36-.12,4.9-.05,5.1-1.84,1.74.18,1.36.69,1.53,1.41.06-.8,1.6-.98,2.97-.89l-.66.24,3.93.13-.61-1.58c2.04.66.33,1.88,2.36,1.73l.11-1.24c2.86.56,4.33,2.63,7.04,3.86,11.7,1.88,24.61-.18,35.42,2.66l.43.96c.13,1.37,3.15-1.83,3.49-.56l1.31-.55c.35.26,1.09.56.44.84,1.18.12,1.22-.11,2.09-.47l1.23.91c4.64.89,8.67-.62,13.57-.14,1.07.35,2.33.58,3.7.74.69.07,1.4.12,2.14.15.37.01.74.02,1.12.04h.57c.17.01.1,0,.18,0,.7-.05,1.63-.36,3.02-.72.22.4.43.98.6,1.58.21.37.27.88.25,1.42v.2s-.05.32-.05.32l-.13.87c-.09.58-.21,1.16-.33,1.74-.51,2.32-1.25,4.66-1.99,7-1.47,4.69-2.91,9.41-2.38,14.09-.23.27.09,1.09.25,1.1l-1.34,8.25s-.38,2.5-.71,5.8c-.16,1.65-.32,3.5-.4,5.34-.04.92-.07,1.83-.07,2.72.02.94-.02,1.49.08,3.16.08.76.21,1.66.7,2.74.45,1.07,1.54,2.33,2.75,2.87.81.46,2.22.72,3.21.46,1.06-.23,1.67-.68,2.15-1.1.87-.85,1.17-1.6,1.38-2.46.05-.23.08-.45.1-.68.02-.27.02-.52,0-.77-.03-.32-.1-.63-.18-.91-.11-.35-.29-.7-.48-.98-.96-1.34-2.23-1.4-2.58-1.3-.6.08-.47.28-.53.45-.02.17,0,.36.05.56.21.22.55.42.9.96.17.29.22.63.15.89-.07.25-.21.44-.37.56-.31.25-.72.4-1.07.32-.08-.01-.15-.06-.2-.11-.04-.06-.04-.14-.04-.1,0,.02.01-.06.03-.08v-.02s.02,0,.02,0c.1-.18.03-.05.05-.1h0s0-.07,0-.07c0-.07.03-.14.06-.2.16-.23.38-.41.65-.75.15-.18.31-.37.47-.56.18-.2.38-.58.58-.88.8-1.3,1.68-2.83,2.65-4.64l.26.25c1.35-4.43,1.9-7.26.85-10.59,1.89-.24.7-3.69,1.44-4.67l.13.12c-1.02-2.96,1.95-5.53,1.07-8.36.13.12.62.25.57.87.04-1.97,0-4.68,1.08-4.68.36-4.67,1.75-11.07.47-14.27l.27.24c-.45-.93-.42-1.46-.31-2.07.15-.87.38-1.82.28-3.23.16-.17.27-.39.32-.36-.39-1.35-.17-3.25.14-5.21.3-1.94.7-3.94.58-4.82l.83-.81c.02-.24.06-.49.07-.71l-5.12.12,1.99.16c-1.28.97-1.93.66-3.11.26-1.13-.39-2.97-.89-5.25-.28-.94-.07-1.97.15-2.92.49-.23.09-.47.18-.71.27-.23.1-.34.2-.52.31-.32.22-.65.45-.97.67-1.3.9-2.61,1.72-3.91,1.2-1.26.88,1.13-1.46-.74-.8-.03-1.02.88-.62.42-1.44-1.83.44-2.95-1.11-5.21-.5l-.07-.79c-2.97,1.36-5.47-1.24-7.46.06-3.04.51-1.91-2.43-5.11-1.05l-1.16-1.13c-1.33-.25-1.03,1.26-2.48.66.13-.67-1.84-.65-.94-1.24-3.28-1.25-6.91,1.07-11.19-1.04-1.06,1.24-3.22.28-4.01,1.2-.07-.57-4.44-.47-1.85-1.49.22-.08.6-.03.55.19l.36-.75c-2.38-1.68-4.63.42-7.1-.05.71.33,1.7.35.99.82l-2.3-.32.54-.61-3.4-.72.39.86c-1.64-.59-2.09-2.01-4.1-1.07-.93.54,1.48,1.26-.33,1.32-2.19-.79-5.46-2-8.34-2.57.17.94-.61.82-1.44.91v-.8c-3.21.74-.94-1.86-4.13-1.33l.33-.52-.99,1.56c-2.95,1.27-1.35-1.79-4.67.03,1.24,0,.42,1.79-1.07,1.31l.46-.73c-.86.09-1.17.38-1.71.17.54-.37.36-1.09-.89-1.06l.92-.88-2.47,1.2c-1.77-.95-4.73-.12-5.44-1.21,0,0-.99-.18-2.1-.21-1.11-.04-2.36.12-2.82.7.82-.72-1.39-1.04-.75-1.89-1.06.78-4.14,1.52-5.4.65l.23-.1c-2.33-.36-4.32,0-6.23.49-.96.23-1.89.46-2.86.58-.97.16-1.97.23-3.06.11.33.88-1.95.7-1.22,1.79-2.03,1-4.07.72-5.74.89-.86.07-1.51.17-2.19.54-.75.38-1.44,1.16-1.55,2.14-2.46,1.06-3.58.35-5.18.72l.53-.39c-.7.22-1.07.59-1.48.89-.4.3-.76.58-1.1.83-.69.5-1.27.92-1.83,1.33-.26.21-.6.35-.79.61-.08.35-.16.7-.24,1.06-.16.72-.33,1.47-.42,2.38.13.97.66,1.61,1.17,2.35.51.74.97,1.55,1.26,3.03-1.01-.95-.53.29-.03,1.44-.4-.7-.79-.96-.57.71.32.18.59.49.86.77-.05.03-.05.1-.14.09,1.26,1.88,1.28,1.41.88.53.12.01.2-.11.25-.43.04.54.26,1.15.56,1.76.15.31.32.61.49.92.13.22.25.44.37.65.43.75.74,1.39.3,1.76,2.44,3.53,5.03,5.53,7.25,8.35-.3.65-1.18.21-1.91-.56l1.49,2.05c-.74.42-1.17-.99-1.72-1.57.37,3.29,4.38,4.6,5.11,8.27l.95.28v.24c.31-.19,1.14.23,1.51.62-.38.81-1.49.85-.55,2.33.1,1.55,2.33,3.17,3.61,4.52-.4-.9.12-.84.56-.62.47.74.1,1.55.72,1.96l-.82.59c.63-.78,2.05,1.43,2.57,1.49-.38.81-1.25-.83-1.84-.73,1.89,2.95.94,1.48,2.83,4.42,1.61,1.21.64-.78,1.85-.47,1.02,1.31,2.45,2.33,2.91,4.26l.45-.97c2.19,2.3,3.06,3.94,3.36,6.19,18.12,16.02,10.99-.95,10.99-.95-3-8.8-7.64-11.47-13.81-20.38"/>
    <path class="cls-1" d="M167.15,60.72l.46-.11c-.16-.07-.32-.06-.46.11"/>
    <path class="cls-1" d="M166.45,21.61s-.04.05-.06.09c.04-.03.05-.06.06-.09"/>
    <path class="cls-1" d="M183.26,55.92h0c.02.05.03.09.05.12l-.04-.12Z"/>
    <path class="cls-1" d="M176.18,68.62c1.96-3.31,3.94-3.5,4.98-7.35.93-1.63,1.45-3.6,2.08-5.34-.81-1.38,1.06-2.17.53-3.6h.86c-.18-.5-.22-.99.31-1.12l.19.12c-.27-.74.32-1.11.19-1.48l.19.12.21-.62.23.25c-.11-1.11.31-1.97.95-2.58l-.85-.38c1.76-1.1.4-2.6,2.27-3.43l.18.13c-1.13-2.99,3.04-1.98,2.17-5.27.11.4.48.1.67.23.3-1.14.72-2.41-.94-3.15.36-.77.8-.44,1.49-.27-.74-.3-.75-1.12-.58-1.81l.18.41c.14-.67.26-1.36.34-2.06h-1.55c.68-.9,1.85.19,1.73-.93l-1.22-.23c.51-1.33,2.45-1.94,3.49-2.93.13-.55.2-1.02.24-1.4.05-.44,0-.49-.03-.72-.03-.2-.05-.42-.04-.65.02-.14-.02-.19.07-.4.24-.41.71-1.07,1.13-2.2.2-.55.38-1.26.41-1.92.06-.64.01-1.37-.13-2.07-.31-1.44-1.09-2.61-1.81-3.34-.74-.76-1.43-1.18-2.03-1.51-.62-.33-1.16-.55-1.69-.74-.52-.19-1.01-.33-1.51-.47-.44-.12-1.14-.26-1.33-.33-.59-.18-1.17-.43-1.74-.75l-.13-.95c.02-1.38-1.47,1.9-1.55.64l-.59.58c-.14-.25-.45-.54-.15-.82-.51-.09-.53.13-.92.52l-.5-.88c-2-.75-3.76.84-5.85.5-2.56-1.74-7.37.07-9.97,1.28-1.81,1.19-3.93.59-6.13.11-2.19-.5-4.47-.87-6.17.69-.17-.16-.4.33-.37.48-1.2.17-2.38.42-3.57.63,0,0-1.07.24-2.43.74-1.35.51-2.98,1.28-4.06,2.32-1.09,1.03-1.64,2.26-.92,3.65.71,1.41,2.68,2.89,6.37,4.76v.31c1.92.19,3.01.08,3.84-1.68.63,1.74,1.47-.16,2.01.33v.15c.76-1.61,2.42.68,3.18-.76-.01.15.06.65-.17.72.7-.36,1.65-.95,1.89.09,1.73-.6,4.27-.45,5.23-2.27l-.04.3c.53-1.23.84-.27,1.52-.93.05.14.11.2.11.26.62-1.21,2.1-.39,2.65-.9l.09.7,1.43-.27-.55-.11c.07-1.97,1.17,1.15,2.15-.15.97.19,1.9-4.12,2.99-3.18.49-.92-.43,1.49.32.78.03,1.02-.34.64-.14,1.45.72-.5,1.18,1.03,2.08.36l.03.79c1.19-1.45,2.14,1.09,2.95-.26,1.23-.61.67,2.37,1.98.9l.41,1.1c.51.21.47-1.29,1.01-.73-.09.66.69.6.3,1.21.6.59,1.29.27,2.03.06l.28-.07.14-.03v-.03s.06-.06.07-.04c0,0,.01.02,0,.05v.05s.07-.25.07-.25c.12-.36.3-.83.52-1.31.21-.42.56-1.12.97-1.61.43-.52.69-.72.85-.8.01,0,.08-.06.17-.09h.04s-.06,0-.08,0c-.08,0-.14,0-.18-.01h-.05s0-.01,0-.01h0s0,0,0,0l.22.04h0s0,0,0,0h0s0,0,0,0h.01s0,0,0,0h0l-.22-.04h0s0,0,0,0h.01s.1.03.23.02c.02,0,.07,0,.07,0,.03,0,0,0,0,0,.04,0-.05,0-.09,0-.06,0-.11,0-.16-.01h-.04s-.02-.01-.02-.01h0s0,0,0,0c.45.08.12.02.22.04h0s0,0,0,0h-.05c-.2-.07-.57-.17-1.6-.86-.34-.22-.59-.4-1.13-.79-.28-.21-1.44-1.06-1.97-1.5.11.02.01.29-.06.5-.15.44-.3.86-.61,1.21.52-.32.88-.92,1.04-.23-.34.43-.68.85-.97,1.32l-.4-.63c-.55.66-1.02,1.4-1.45,2.17l.88-.03c-.42.48-.96.75-1.34,1.11-.36.35-.56.89-.11,1.58.52.63,1.27-.72,1.3.37-.8,1.17-1.79,2.76-2.15,3.67.92.02.85.29,1,.56l-.79-.09c.95,1.01-1.76,0-1.03.78l-.52-.19c.52.18,1.04.38,1.56.58,1.3,1.14-1.64-.19.1,1.29-.01-.37,1.71.44,1.2.77l-.67-.39c.05.29.32.5.1.6-.32-.31-.99-.51-1.02-.12l-.78-.61c.35.39.67.8.99,1.23-.98.16-.53,1.51-1.61,1.25,0,0-.28.24-.46.6-.18.36-.27.85.16,1.29-.49-.63-1.15-.02-1.78-.66.53.76.52,2.17-.49,2.16l-.04-.13c-1.68,1.15-.42,3.32-2.16,4.23.85.37,0,.89,1.14,1.26.23,2.02-3.55,1.6-.61,3.82-.18.76-1.17.41-1.52.67l-.09-.25c-.39,1.41-.55,1.79-1.1,2.71.08.63,1.55,1.47.76,2.13-.46-.57-.52-.17-.68.15,0-.25-.18-.42-.79-.21.16.15.23.3.28.43-.05-.02-.09-.02-.15-.06-.05.64.18.64.39.43.09.06.21.1.42.1-1.05.17-.7,1.56-1.77,1.12-.54,1.72-.02,3.38-.24,4.91-.61-.1-.94-.64-.96-1.13l-.25,1.04c-.77-.37-.19-.75-.2-1.12-1.79.55.15,2.92-1.61,3.72l.49.56-.14.03c.33.14.63.64.65.89-.76-.12-1.55-.72-1.81-.04-.89.23-.35,1.64-.28,2.49.28-.32.6-.03.77.23-.12.34-.89.23-.71.62l-.93-.37c.92.25.55,1.28.88,1.56-.76-.11-.36-.77-.84-1.08-.49,1.37-.25.69-.74,2.06.39,1.01.93.25,1.59.93-.09.7.29,1.59-.56,2.07l.91.12c.15,1.44-.24,2.1-1.4,2.56,1.57,5.77,3.74,7.1,5.43,7.05,1.71-.05,3-1.49,3-1.49,3.18-2.61,1.5-5.31,2.61-9.58"/>
    <path class="cls-1" d="M120.26,224.68l-.79-.37c.01.17.21.32.79.37"/>
    <path class="cls-1" d="M135.79,177.82c.05-.05.11-.1.15-.15-.12.08-.15.12-.15.15"/>
    <path class="cls-1" d="M90.2,211.31h.04c.07-.03.15-.05.21-.08l-.25.08Z"/>
    <path class="cls-1" d="M129.59,213.11c-10.29-.29-12.97-2.03-23.62-1.63-2.54-.15-5.16-.19-7.78-.21-1.36,0-2.71,0-4.04,0-1.32.02-2.63.03-3.9.04-2.44,1.27-6.58-.21-9.43.79l-1.05-.81c-.98.34-2.13.55-3.08.09l.07-.22c-1.47.5-3.07.07-3.8.32l.07-.22h-1.75s.32-.3.32-.3c-2.54.46-5.12.32-7.35-.14l.11.94c-4.72-1.43-6.68.3-10.8-1.45l.09-.21c-2.83.86-4.89.1-6.79-.73l-.71-.31-.35-.16c-.09-.05-.07-.06-.11-.1-.11-.11-.22-.2-.35-.25-.26-.1-.58,0-1.49.23.44-.12.34-.4.57-.55-.28-.04-.59-.17-.75-.35-.16-.16-.36-.3-.73-.38-.27-.06-.63-.08-1.13,0,.27-.93.75-.75,1.48-.83-.2,0-.37-.05-.5-.13-.07-.02-.12-.12-.17-.22-.05-.04-.08-.31-.11-.58-.13-1.3-.35-2.01-.36-2.46.1.12.21.29.32.48l-.08-.64s0-.02-.01-.04c-.21-.04-.67-.06-1-.12-.68-.11-1.15-.23-1.5-.36-.71-.25-.83-.54-.69-.33.02.04.04.07.06.11l.02.05v.03s.01,0,.01,0h0c.09.24-.12-.32-.1-.26h0s0,0,0,0h0c.03.09.06.2.1.39.06.44.14.87.09,2.77.05-1.51,0-2.06-.04-2.48-.03-.21-.05-.35-.08-.46l-.04-.14-.02-.05v-.02s-.01,0-.01,0h0s0,0,0,0l.1.26h0s0-.01,0-.01h0s0,.01,0,.01c.02.06-.19-.5-.1-.26h0s0,0,0,0v.02s.02.05.02.05l.04.13c.02.09.05.23.07.36.04.29.07.68.08,1.23,0,.2.07.2.13.33.13.2.24.4.28.59.12.36.23.63,1.43.51l.03-1.24c3.33.4,5.33,2.24,8.7,2.98,6.91-.12,13.64-1.88,20.04-3.38,3.21-.75,6.36-1.45,9.45-1.86,3.1-.42,6.01-.52,9.14-.29l.63.87c.38,1.34,3.11-2.37,3.71-1.18l1.34-.79c.42.19,1.29.35.63.74,1.31-.11,1.32-.33,2.21-.87l1.52.65c5.3-.06,9.47-2.43,14.99-3.36,3.48.08,8.32-1.22,12.96-3.33,2.31-1.03,4.62-2.3,6.57-3.52,1.96-1.22,3.64-2.36,5.05-3.26,1.89-1.44,4.06-2.39,6.25-2.84,2.17-.44,4.43-.36,6.34.1,1.93.46,3.39,1.27,4.52,2.09,1.16.82,2.28,1.75,3.72,2.85-.04.29.64.55.77.48,1.06,1.93,1.77,4.22,2.03,6.54,0,0,.08.54.16,1.48.09.93.16,2.26.16,3.84.02,3.15-.4,7.37-.41,10.86,0,.41,0,.92.04,1.2.02.13.05.21.09.24.27.09.53.18.78.26.3.11.54.21.74.3.74.33.92.62.84.5-.13-.16-.35-.55-.59-1.3l-.08-.26v.05s0,.07,0,.11c-.02.07-.04.15-.08.23-.07.16-.16.33-.23.5-.13.34-.14.69.05,1.06.19.36.53.76,1.11,1.08.3.15.68.28,1.2.18.52-.1,1.08-.52,1.52-1.06.45-.55.8-1.08,1.2-1.64.4-.57.82-1.21,1.26-1.92.88-1.42,1.85-3.14,2.83-5.3l.26.28c1.38-5.25,1.49-9.25-.64-13.02.85-.47.68-1.74.2-3.01-.45-1.28-1.2-2.54-1.2-3.32l.19.07c-1.36-1.48-1.97-3.27-2.85-5.11-.86-1.81-2.06-3.65-4-4.46.21,0,.6-.34,1.32.27-1.15-.94-2.66-1.86-3.88-2.6-1.24-.72-2.16-1.29-2.06-1.83-3.45-1.39-7.7-1.98-11.28-1.58-3.6.36-6.59,1.53-8.1,2.93l.15-.36c-1.63,1.76-2.53,1.06-4.4,2.48-.17-.08-.34-.08-.34-.15-1.57,1.9-5.52,2.8-6.76,3.92l-.4-.59c-1.17.62-2.3,1.22-3.46,1.75l1.38-.43c.31,2-3.12.04-5.26,2.17-2.49.62-3.89,5.56-6.93,5.37-1.08,1.21.78-1.72-1-.56-.31-.97.75-.84.05-1.5-1.78.95-3.33-.25-5.53.91l-.25-.76c-2.8,2.06-5.98.04-7.83,1.72-3.14,1.12-2.48-2.01-5.65-.04l-1.44-.9c-1.47,0-.89,1.42-2.56,1.1.03-.68-2.1-.31-1.23-1.05-1.9-.32-3.66.23-5.75.75-2.1.51-4.31,1-6.93.49-.89,1.45-3.49,1.07-4.12,2.17-.23-.54-4.92.7-2.38-.97.22-.14.64-.19.65.04l.21-.82c-3.02-1-4.9,1.62-7.62,1.81.83.13,1.89-.1,1.26.54l-2.52.28.42-.73-3.74.15.62.73c-1.86-.18-2.65-1.45-4.51-.09-.84.74,1.81.9-.05,1.36-2.46-.29-6.04-.83-8.92-1.06.28.91-.5.89-1.31,1.06l-.09-.79c-1.55.55-1.81.07-2.06-.4-.13-.24-.25-.48-.53-.62-.14-.07-.32-.11-.55-.12-.12,0-.25,0-.4.03-.11.03-.39.03-1.02.07.3-.18.55-.35.73-.52-.55.53-1.68.98-3.07,1.88-1,.35-1.79.82-2.48,1.35-.72.55-1.26,1.15-1.7,1.73-.79,1.11-1.13,2.03-1.35,2.59-.43,1.2-.63,1.7-.86,2.22-.22.52-.38,1-.34,1.62.02.29.09.62.23.9.07.16.15.28.25.4l.08.07.04.04.02.02h0s0,0,0,0c1.59-.04.44-.01.79-.02h-.05c-.17,0-.36,0-.54,0,.15,0,.28,0,.4,0,.06,0,.12,0,.17,0h.02c-.26,0,.58-.02-.58.01h0s0,0,0,0h0s.01-.04.01-.04c.03-.06.1-.1.17-.14.15-.09.36-.08.57,0,.21.07.41.2.53.21.06.03.1.07.12.15-.03.22-.07.43-.19.77-.2-.24-.42-.46-.64-.65-.14,1.36.03,1.93-.29,2.85-.23-.84-1.17-.35-1.23,1.83-.3-.41-.59-.85-.84-1.34.11.59.26,1.14.43,1.66.27.74.59,1.42.98,2.03-.08.76.05,1.62.49,2.44.42.82,1.05,1.51,1.69,2.09,1.29,1.17,2.68,1.88,2.96,2.61,0,0,.37.23,1.01.53.63.31,1.53.68,2.54.97.99.31,2.08.54,3.03.65.68.04,1.15-.06,1.48-.29-1.07.53,1.39,1.32.51,2.02,1.37-.55,4.84-.68,6.06.37l-.27.06c4.88,1.58,8.55-.23,12.81,1.22-.12-.93,2.13-.25,1.65-1.47,4.55-.82,8.03,2.92,9.84-.62,2.04-.09,2.36.97,3.4,1.21l-.49.17c3.82-.12,4.91-.12,7.73.07,1.42-.3,1.7-1.98,4.19-1.49-.83.64.2.55,1.13.58-.6.09-.8.33.42.82.18-.2.45-.32.7-.42,0,.05.06.1.03.17,1.56-.18,1.29-.4.58-.52.04-.1-.02-.23-.23-.43.79.46,1.92.49,2.8.55.96.07,1.73.16,1.81.74,4.75-.03,8.19-1.11,12.14-1.44.43.6-.51,1.11-1.66,1.3l2.81-.15c-.04.85-1.62.45-2.49.6,3.31,1.47,6.91-1.21,10.81.07l.82-.67.23.11c-.01-.36.87-.84,1.45-.95.55.74-.04,1.71,1.9,1.66,1.54.72,4.36-.4,6.36-.84-1.09-.11-.74-.53-.28-.8.97-.04,1.54.68,2.28.34l.12,1c-.41-.94,2.51-1.08,2.85-1.51.58.73-1.48.69-1.71,1.25,3.89-.24,1.95-.12,5.83-.35,2.04-.86-.42-.93.53-1.86,1.82-.29,3.55-1.07,5.68-.61l-.72-.84c3.37-.9,5.4-.97,7.78-.26,6.2-2.36,9.46-4.33,10.97-5.79,1.51-1.46,1.26-2.46.25-3.12-.99-.67-2.71-1.03-4.19-1.22-1.47-.21-2.7-.25-2.7-.25-4.93-.49-8.56-.04-12.45.69-3.88.73-8.01,1.77-13.84,2.25"/>
    <path class="cls-1" d="M42.97,139.11v.37c.02-.17.02-.32,0-.37"/>
    <path class="cls-1" d="M51.91,139.67s0-.05.01-.08c0,.03-.01.06-.01.08"/>
    <path class="cls-1" d="M43.36,151.65h0s-.01.06-.02.09l.02-.09Z"/>
    <path class="cls-1" d="M41.64,150.51c.44.48.43,2.22.97,1.55.22.16.5-.22.75-.41.21-1.33.3,0,.52-1.11v.76c.06-.38.14-.64.15-.22l-.02.22c.11-.57.16-.22.22-.51l-.02.22.09-.09-.04.31c.16-.6.29-.63.37-.35l.06-.92c.14,1.05.38-.85.48.38l-.02.22c.45-2.41.27,1.69.72-.6-.06.29-.02.47-.04.7.14-.25.28-.38.43-2.19.09.03.03.57-.02,1.27.06-.79.16-1.12.24-1.16l-.06.3.22-.25.08-1.5c.07.44-.12,1.83.01,1.47l.1-1.24c.13.26.06,2.14.13,3.07.54.58,1.42-2.54,1.79-.31l-.05.94c-.1,1.36.31-2,.23-.74l.11-.62c0,.24.02.51-.04.81.05.06.07-.17.15-.57v.85c.17.67.5-.94.71-.59.15,1.75.83.21,1.21-.69.6-2,.69,3.46,1.33,1.17,0,.19.07-.24.08-.39l.4.23s1.97.68,1.33-10.71l.03-.29c-.17-.74-.3-.91-.58.57.12-1.83-.17-.2-.18-.8l.02-.15c-.25,1.4-.19-1.19-.43.06.02-.15.06-.65.09-.67-.11.22-.28.62-.2-.45-.26.26-.54-.26-.82,1.43l.03-.29c-.17,1.14-.12.16-.26.74,0-.14,0-.21,0-.27-.18,1.12-.28.16-.4.63l.05-.71-.2.15.06.16c-.18,1.94-.04-1.23-.28.02-.11-.26-.57,4.02-.63,3.06-.13.9.17-1.47.02-.78.08-1.01.09-.63.13-1.44-.13.47-.07-1.05-.23-.37l.06-.79c-.26,1.43-.19-1.06-.4.31-.2.64.08-2.35-.2-.82l.02-1.07c-.05-.18-.15,1.31-.18.78.06-.67-.05-.54.04-1.18-.09-1.06-.46,1.47-.54-.33-.15,1.31-.2.52-.32,1.5.04-.57-.22-.11,0-1.34.02-.1.04-.08.02.14l.08-.78c-.01-1.47-.29.79-.4.55.02.26.07.2,0,.73l-.11-.12.08-.65-.14-.4-.04.81c-.05-.42.03-1.8-.16-.66-.09.64,0,1.1-.11,1.34-.07-.56-.17-1.4-.3-1.66-.06.91-.09.88-.15,1.06l.06-.79c-.24,1.08.08-1.74-.14-.88l.06-.55-.17,1.65c-.26,1.56.05-1.65-.27.48.07-.13-.11,1.74-.16,1.39l.08-.76c-.05.16-.09.48-.11.31.06-.41.1-1.11.03-.98l.12-.95-.22,1.39c-.02-.82-.24.19-.2-.89,0,0-.15-.54-.28.63.1-.73.01-1.02.11-1.87-.11.82-.31,1.49-.3.6l.02-.1c-.14-.92-.46,1.2-.57.1-.06.92-.13.41-.19,1.58-.29,1.14-.18-2.41-.53,1.21-.11.19-.04-.86-.07-1.05l.04-.19c-.19.28-.25.31-.37.22-.09.35-.23,2.03-.32,1.62.09-.67.03-.55,0-.55.03-.1.06-.35.04-.8-.02.21-.05.33-.07.44,0-.05,0-.09.01-.16-.09.23-.09.44-.07.53-.01.1-.02.23-.02.42,0-.87-.21.04-.13-1.11-.23.25-.48,1.43-.69,1.86.03-.59.11-1.11.18-1.34l-.14.21c.07-.85.11-.48.16-.65-.04-1.39-.42,1.35-.49.07l-.09.67v-.11c-.03.36-.11.84-.14.95.03-.74.14-1.71.05-1.67-.01-.72-.22.34-.34.74.04.13-.01.54-.05.8-.05.02-.01-.72-.07-.4l.08-1c-.06.94-.19,1.01-.24,1.42.03-.74.12-.63.17-1.19-.18.08-.09.04-.27.12-.15.75-.06.95-.17,1.82-.1.19-.23.88-.28.27l-.04.89c-.21.68-.29.57-.33-.34-1.72,7.14-1.02,9.86-1.02,9.86.3,2,.73-.57,1.33-1.22"/>
    <path class="cls-1" d="M41.24,165.72l.02.37c0-.17,0-.32-.02-.37"/>
    <path class="cls-1" d="M51.81,166.25s0-.05.01-.08c0,.03-.01.05-.01.08"/>
    <path class="cls-1" d="M42.08,178.28h0s-.01.06-.02.09l.02-.09Z"/>
    <path class="cls-1" d="M40.02,177.14c.53.48.57,2.22,1.19,1.55.27.16.59-.22.87-.41.21-1.34.36,0,.58-1.11v.77c.09-.38.16-.64.19-.22l-.02.22c.11-.57.18-.22.24-.51l-.02.22.1-.09-.04.31c.17-.6.32-.63.42-.35l.05-.92c.2,1.05.42-.86.58.38l-.02.22c.45-2.41.37,1.69.83-.6-.06.29-.01.48-.03.7.16-.25.32-.38.44-2.19.1.03.05.57.02,1.27.05-.79.16-1.12.25-1.16l-.06.3.25-.25.05-1.5c.1.44-.08,1.83.06,1.47l.08-1.24c.16.26.14,2.14.25,3.07.66.57,1.59-2.55,2.1-.32l-.03.94c-.07,1.36.3-2.01.25-.74l.11-.62c0,.24.03.51-.02.81.07.06.08-.17.16-.57l.02.85c.23.67.56-.95.83-.6.24,1.75.98.2,1.41-.7.65-2,.92,3.46,1.6,1.16,0,.19.08-.24.09-.39l.48.22s2.35.67,1.24-10.73l.03-.29c-.22-.74-.38-.91-.66.58.09-1.83-.21-.2-.23-.8v-.15c-.24,1.4-.25-1.19-.49.06.02-.15.05-.65.09-.68-.13.22-.31.62-.26-.44-.29.26-.65-.25-.93,1.43l.03-.29c-.17,1.14-.14.16-.29.74,0-.14,0-.21,0-.27-.18,1.13-.33.16-.45.64l.04-.71-.23.15.07.16c-.15,1.94-.09-1.23-.33.02-.13-.25-.55,4.02-.65,3.06-.13.91.16-1.48,0-.78.06-1.02.09-.63.11-1.44-.14.47-.11-1.05-.29-.37l.04-.79c-.26,1.43-.26-1.06-.46.31-.22.64.03-2.35-.26-.82v-1.07c-.07-.18-.14,1.31-.2.78.05-.67-.08-.54.01-1.18-.13-1.07-.5,1.47-.65-.33-.14,1.31-.22.52-.33,1.5.03-.57-.26-.11-.03-1.34.02-.1.04-.08.02.14l.07-.77c-.06-1.48-.32.79-.46.55.03.26.09.19.02.73l-.13-.11.07-.65-.18-.39-.02.81c-.08-.42-.02-1.8-.21-.66-.09.64.03,1.1-.09,1.34-.1-.56-.25-1.41-.41-1.66-.04.91-.08.88-.14,1.06l.04-.79c-.25,1.09.04-1.74-.19-.88l.05-.55-.15,1.65c-.26,1.56.01-1.65-.3.48.08-.13-.08,1.74-.14,1.4l.07-.76c-.06.16-.1.48-.12.32.05-.41.09-1.11,0-.98l.11-.95-.22,1.4c-.05-.82-.28.19-.26-.89,0,0-.19-.54-.32.63.09-.73-.01-1.02.07-1.88-.11.83-.33,1.49-.34.61l.02-.1c-.2-.92-.51,1.21-.67.1-.05.92-.14.41-.18,1.59-.31,1.14-.28-2.41-.59,1.21-.12.19-.08-.86-.12-1.05l.04-.19c-.22.28-.28.32-.43.22-.1.35-.21,2.03-.32,1.62.09-.67.02-.55-.03-.55.04-.1.07-.35.03-.8-.02.21-.04.33-.07.44,0-.05,0-.09,0-.17-.1.23-.1.44-.06.53,0,.1-.01.23-.01.42-.03-.87-.25.04-.18-1.11-.27.25-.52,1.43-.76,1.86.01-.59.1-1.12.17-1.34l-.16.21c.05-.85.12-.48.17-.65-.09-1.39-.45,1.35-.58.08l-.09.67v-.11c-.03.36-.1.84-.14.95.02-.74.11-1.71,0-1.67-.04-.72-.25.34-.38.74.05.13,0,.54-.04.8-.05.02-.04-.72-.1-.4l.06-1c-.04.94-.2,1.01-.24,1.42.02-.74.12-.63.17-1.19-.21.08-.11.04-.32.12-.16.75-.04.95-.15,1.82-.11.19-.25.88-.32.27l-.02.89c-.22.68-.33.57-.39-.34-1.81,7.15-.9,9.87-.9,9.87.41,2,.85-.57,1.53-1.23"/>
  </g>
</svg>