<?xml version="1.0" encoding="UTF-8"?>
<svg id="Capa_1" data-name="Capa 1" xmlns="http://www.w3.org/2000/svg" viewBox="0 0 148.98 225.51">
  <defs>
    <style>
      .cls-1 {
        fill: #a4d5cc;
      }
    </style>
  </defs>
  <path class="cls-1" d="M29.78,93.38l.13.26c.02-.11-.01-.2-.13-.26"/>
  <path class="cls-1" d="M74.72,98.42s.03-.03.04-.05c-.03.02-.04.03-.04.05"/>
  <path class="cls-1" d="M35.33,102.34h-.01s-.04.03-.06.05l.07-.05Z"/>
  <path class="cls-1" d="M26.24,100.04c2.35.75,2.79,1.93,5.38,1.96,1.18.29,2.5.27,3.69.34.69-.73,1.54.24,2.31-.36l.18.51c.26-.2.56-.32.74-.03l-.04.13c.4-.3.74-.03.94-.18l-.04.14h.42s-.1.19-.1.19c.65-.28,1.26-.23,1.77.03l.04-.58c1.06.81,1.64-.33,2.57.58l-.03.14c1.51-1.33,1.94,1.31,3.48.04-.19.16.03.31,0,.44.64-.08,1.32-.08,1.47-1.22.45.07.32.4.33.84.06-.5.48-.66.83-.65l-.19.17,1.03-.05-.09-.96c.5.33,0,1.16.54.99l.08-.78c.72.24,1.03,1.46,1.69,2.12,2.98.65,6.38-1.04,9.05.56l.08.6c-.01.86.87-1.21.92-.41l.35-.37c.08.16.26.34.09.52.3.05.32-.09.55-.33l.29.55c1.16.49,2.24-.45,3.48-.18,1.44,1.18,4.33.33,5.98-.2,2.32-1.17,4.9,2.29,7.29.87.07.12.28-.15.28-.25l2.15.15s.65.03,1.51-.05c.85-.08,1.91-.27,2.71-.67,1.62-.81,2.18-2.51-1.71-6.05l.05-.18c-1.15-.45-1.87-.55-2.67.38-.11-1.15-.94-.13-1.21-.51l.03-.09c-.71.88-1.43-.75-2.12.03.03-.09.05-.41.2-.42-.49.13-1.17.37-1.19-.3-1.18.14-2.81-.2-3.6.84l.06-.18c-.46.7-.56.08-1.05.43-.02-.09-.05-.14-.05-.17-.5.69-1.37.05-1.76.34v-.45s-.94.07-.94.07l.34.11c-.18,1.22-.67-.79-1.38-.04-.62-.19-1.42,2.47-2.05,1.83-.35.56.33-.92-.17-.5.02-.64.24-.39.15-.9-.48.28-.72-.69-1.31-.29v-.5c-.79.86-1.34-.75-1.89.08-.79.35-.41-1.51-1.27-.59l-.26-.69c-.33-.13-.3.8-.65.45.05-.42-.45-.37-.2-.76-.8-.73-1.8.79-2.82-.42-.31.8-.83.26-1.07.87,0-.36-1.12-.15-.42-.88.06-.06.15-.04.13.1l.12-.48c-.55-.97-1.2.4-1.82.19.17.18.42.16.23.48l-.58-.12.16-.4-.85-.33.07.52c-.4-.3-.46-1.18-1.02-.51-.26.38.33.72-.13.84-.54-.4-1.33-1.01-2.04-1.25,0,.58-.19.54-.4.63l.03-.5c-.85.6-.16-1.12-.98-.66l.11-.34-.32,1.01c-.81.9-.25-1.07-1.18.18.31-.05.01,1.11-.34.85l.15-.47c-.22.08-.31.27-.44.15.15-.24.15-.68-.16-.64l.28-.57-.68.8c-.38-.57-1.16-.02-1.26-.71,0,0-.91-.45-1.22.26.25-.43-.25-.67-.03-1.19-.31.49-1.1.82-1.32.22l.06-.05c-.99-.72-1.95.51-2.81-.31-.04.58-.5.19-.49.94-1.11.58-1.59-1.77-2.3.44-.47.05-.46-.61-.67-.77l.13-.1c-.88.05-1.13.03-1.76-.12-.35.17-.57,1.21-1.1.86.25-.38,0-.35-.2-.38.15-.04.21-.19-.02-.51-.06.12-.13.19-.2.25,0-.03,0-.06,0-.1-.38.09-.34.23-.18.31-.02.06-.02.14.01.27-.28-.6-1.03-.14-.95-.86-1.09-.02-1.98.6-2.92.7-.03-.38.23-.67.51-.76l-.65.02c.1-.53.41-.23.63-.3-.59-.99-1.69.56-2.42-.38l-.26.38-.04-.08c-.04.22-.29.48-.44.53-.04-.48.21-1.06-.23-1.11-.26-.5-1.01.04-1.51.19.23.13.1.36-.04.5-.22-.03-.25-.51-.46-.35l.1-.62c-.03.6-.69.51-.82.75-.03-.48.41-.33.54-.66-.88-.12-.44-.06-1.31-.18-.56.37-.04.6-.37,1.1-.43.04-.92.39-1.32-.08l.03.58c-.86.26-1.31.09-1.7-.57-3.34,1.61-4.01,3.05-3.8,4.11.2,1.05,1.26,1.71,1.26,1.71,2.03,1.72,3.57.37,6.38.49"/>
  <path class="cls-1" d="M26.1,129.62l-.43.86c.11,0,.25-.2.43-.86"/>
  <path class="cls-1" d="M117.36,175.71c-.05-.06-.09-.14-.14-.19.08.14.11.19.14.19"/>
  <path class="cls-1" d="M9.1,164.67s0-.04.01-.05c0-.09,0-.18,0-.26l-.02.31Z"/>
  <path class="cls-1" d="M21.29,117.03c-.25,2.68-.98,5.13-1.66,7.34-.36,1.16-.7,2.24-1.03,3.29-.31,1.07-.61,2.11-.91,3.15-1.14,3.99-2.27,8.02-3.77,14.61-1.72,6.21-3.33,12.96-4.81,19.19.03,1.57-.49,3.63-1.02,5.71-.49,1.88-1.17,3.99-1.34,5.79l-.86,1.18c-.13,1.25-.39,2.68-.99,3.82l-.11-.11c-.18,1.89-.97,3.86-1.03,4.82l-.12-.11-.53,2.23-.09-.43c-.47,3.29-1.17,6.64-1.83,9.67l.61-.16c-.84,3.19-.88,5.54-.79,7.8.05,1.14.13,2.26.25,3.53.09,1.25.26,2.66.54,4.4l-.16-.05c.99,2.04,2.03,3.89,3.37,5.49.34.39.7.77,1.04,1.14.37.38.88.78,1.33,1.14.45.29.92.6,1.37.85.44.22.9.46,1.33.64,1.75.73,3.43,1.13,5.14,1.31,1.71.18,3.47.12,5.34-.23-.94.17.4.3.32.44,1.71-.07,3.4-.13,4.47-.23,1.27-.08,2.26-.29,2.32-.86,2.45.23,1.97.53,2.25,1,.03-.5,2.18-.52,4.1-.4l-.9.12,5.51.26-1.01-1.02c2.89.48.66,1.21,3.47,1.17l.02-.78c4.02.42,6.32,1.74,10.22,2.5,8.17.54,16.69.24,25.04-.33,8.36-.55,16.52-1.42,24.22-1.83l.76.48c.43.82,4-1.91,4.7-1.23l1.69-.7c.52.06,1.59.02.75.38,1.63-.27,1.65-.42,2.79-.92.63.04,1.27.09,1.91.11,3.37-.61,6.56-1.78,9.57-3.72,2.99-1.92,5.88-4.76,7.74-8.63,1.33-2.22,2.16-5.39,2.12-8.62-.04-3.24-.76-6.52-1.79-9.53-1.01-3.03-2.35-5.87-3.54-8.36-1.21-2.51-2.35-4.85-3.3-6.83-1.46-2.73-2.7-5.69-3.83-8.76-.56-1.54-1.1-3.1-1.63-4.68-.51-1.55-.96-3.09-1.42-4.69-.9-3.18-1.77-6.47-2.96-9.71-.6-1.62-1.27-3.22-2.06-4.77-.4-.78-.83-1.54-1.29-2.28-.22-.37-.48-.74-.72-1.1l-.38-.54-.34-.46c-.09-.4-.82-1.13-.9-1.08-1.75-3.21-3.25-6.57-4.54-10.05,0,0-.3-.79-.79-2.1-.47-1.31-1.13-3.16-1.83-5.27-1.4-4.23-2.96-9.58-4.29-13.69-1.35-4.1-2.56-6.92-3.36-6-.39.46-.69,1.85-.8,4.48-.1,2.63-.04,6.49.51,11.94l-.25-.23c1.27,6.32,2.5,10.3,5.03,14.12-.83,1.1,1.96,5,2.34,6.51l-.15-.09c1.27,1.61,2.09,3.5,2.96,5.39.78,1.7,1.39,3.35,2.48,4.81-.14-.09-.46-.03-.81-.74,1.22,2.21,2.76,5.49,2.19,5.92,1.21,2.9,2.42,6.57,3.82,9.99.71,1.74,1.44,3.29,2.12,4.66.69,1.37,1.37,2.54,2.01,3.4l-.28-.19c1.56,1.91,1.26,2.79,2.59,5.09-.03.17,0,.36-.04.34,1.63,2.11,2.94,6.91,4.01,8.71l-.36.29c.68,1.58,1.35,3.11,1.96,4.63l-.58-1.76c1.36.17.72,3.76,2.34,6.85.33,1.58,1.26,3.02,1.99,4.62.72,1.58,1.18,3.41.54,5.04.12.87-.03.46-.23.15-.22-.31-.38-.49-.48.68-.32-.05-.34-.33-.36-.54-.04-.22-.08-.36-.38-.14-.14,1.07-.59,1.86-1.15,2.59-.55.75-1.17,1.44-1.88,2.53l-.43-.27c-.82,1.49-2.34,2.33-3.77,2.86-1.45.55-2.81.88-3.87,1.67-1.8.78-2.57.56-3.3.43-.74-.13-1.44-.19-3.44.69l-1.76-.36c-1.81.23-1.15,1.04-3.21,1.06.06-.43-2.58.07-1.47-.51-4.6.04-9.13,2.21-15.28,1.57-1.25.94-4.33.64-5.28,1.3-.18-.33-6.13.21-2.73-.7.29-.08.81-.09.78.05l.39-.51c-3.48-.77-6.26.75-9.7.64,1.02.15,2.37.09,1.47.44l-3.19-.03.66-.42-4.75-.25.65.52c-2.33-.29-3.13-1.16-5.77-.5-1.2.38,2.19.74-.27.84-3.11-.43-7.76-1.13-11.73-1.52.34.59-.73.51-1.84.56l-.1-.5c-4.27.42-1.48-1.18-5.7-.93l.39-.32-1.18.96c-3.87.7-1.96-1.18-6.28-.18,1.67.05.7,1.16-1.34.77l.56-.43c-1.14,0-1.54.17-2.29,0,.7-.2.42-.66-1.26-.73l1.17-.5-1.62.3-1.72.3c-2.83-.66-6.52.05-7.43-.71,0,0-1.17-.12-2.48-.25-1.26-.12-2.45-.29-2.92-.08.43-.12.14-.36-.08-.61-.19-.27-.35-.51-.05-.69-.23.07-.41.07-.63.08-.07-.02-.13.05-.27-.04-.14-.1-.29-.21-.44-.31-.56-.5-.93-1.36-.87-1.94l.14.15c-.46-1.86-.86-3.91-1.03-6.06-.17-2.15-.12-4.39.62-6.81-.62.14.16-2.45-.68-1.93.29-5.42,3.73-9.15,2.07-11.67.58-2.44,1.35-2.69,1.84-3.9l-.06.61c1.18-4.59,1.61-5.87,2.59-9.46.21-1.74-.76-2.27.27-5.24.16,1.09.4-.17.7-1.31-.13.74-.04,1,.63-.41-.07-.24-.07-.59-.05-.91.04,0,.08-.06.11-.01.36-1.93.14-1.64-.15-.77-.05-.06-.15,0-.33.23,1.04-1.83,1.43-5.49,2.19-5.54,1.38-5.75,1.76-10.04,2.71-14.89.5-.45.53.76.31,2.18l.74-3.43c.51.16-.19,2.03-.36,3.1,1.89-3.84,1.28-8.57,3.1-13.2l-.2-1.09.13-.26c-.22-.03-.29-1.12-.19-1.83.62-.56,1.03.32,1.59-2.03.9-1.75,1.13-5.5,1.1-8.28-.23,1.46-.44.95-.54.31.12-1.28.6-2.06.38-3.12l.63-.15c-.29.29-.47-.63-.72-1.67-.24-1.03-.68-2.26-.87-2.4.1-.41.38-.02.63.69.29.69.47,1.53.67,1.69-.06-.37-.12-.7-.17-1-.08-.31-.15-.58-.21-.83-.12-.52-.25-.82-.35-1.12-.19-.57-.33-.88-.45-1.2-.29-.62-.44-1.29-1.85-3.65-1.98-2.21-.21.75-1.42-.11-.75-1-1.63-1.88-2.61-2.72-.99-.84-2.08-1.65-3.44-2.4.23.31.44.61.63.9-1.57-.65-3.04-.79-4.31-.71l.06,1.26c.17,0,.4-.12.49-.26.03-.04.05-.07.07-.11.05-.09.05-.12.06-.15.02-.07.03-.11.04-.16l.04-.24.04-.38c.02-.23.04-.45.06-.66.04-.43.08-.84.14-1.22s.12-.74.19-1.07c.09-.32.11-.66.38-.89.19-.43.62-.35.94-.41.36-.03.71-.07,1.05-.1.78-.06,1.51-.12,2.19-.17,1.54-.1,2.96-.21,4.15-.32,2.4-.23,4.07-.5,5.17-.78,2.2-.57,2.11-1.22,1.01-1.83-2.19-1.22-8.4-2.3-8.4-2.3-.29-.06-.58-.12-.87-.17-.53-.08-1.06-.16-1.58-.24-1.13-.16-2.23-.32-3.31-.47-1.09-.14-2.06-.01-2.85.23-.8.27-1.32.53-2.04,1.12-.69.58-1.05,1.05-1.43,1.73-.37.67-.65,1.5-.75,2.46-.08.96-.06,1.98-.1,2.95-.01.49-.03.97-.06,1.45l-.02.24c.14.05-.53-.06,1.16.18l1.53.23,1.28.24.55.14c.14.03.27.06.41.11.15.06.24.08.31.12.09.06.14.07.13.11l.29,5.53c.37-.05.7-.08,1.36.19.64.26,1.49.89,2.29,1.84.82.93,1.63,2.16,2.27,3.59.17.34.32.75.44,1.06.1.28.2.57.26.93.14.69.23,1.51.19,2.46"/>
  <path class="cls-1" d="M113.25,123.03l.25.23c0-.11-.07-.2-.25-.23"/>
  <path class="cls-1" d="M135.46,162.1s-.02.05-.02.08c.03-.05.03-.07.02-.08"/>
  <path class="cls-1" d="M122.77,130.83h-.01s-.04.03-.06.06l.08-.06Z"/>
  <path class="cls-1" d="M110.54,130.34c3.23.16,4.09,1.22,7.4.75,1.58.08,3.27-.16,4.82-.26.75-.83,2.03.04,2.93-.64l.32.49c.31-.23.67-.38.96-.11l-.02.14c.46-.34.92-.1,1.15-.27l-.03.14.52-.03-.1.19c.76-.34,1.51-.3,2.13-.05v-.58c.67.4,1.14.33,1.59.29.46-.05.9-.07,1.38.44l-.05.13c.88-.57,1.4-.14,1.8.3.42.46.73.88,1.62.56-.23.08-.09.29-.17.41.58.13,1.06.41,1.79-.46.34.3.05.5-.2.86.33-.38.74-.26,1.01-.04l-.25.02c.26.19.51.41.75.63.22-.23.44-.48.64-.72.12.63-.85.78-.38,1.07l.66-.42c.29.78-.6,1.69-.96,2.45.23,1.27.77,2.75.83,4.43.07,1.63-.37,3.45-1.67,4.69l-.6-.1c-.8-.31.77,1.37,0,1.15l.17.53c-.19.04-.44.17-.52-.09-.2.32-.08.39.03.75l-.66.11c-1.05,1.1-.84,2.81-1.83,4.09-.96.55-1.66,1.66-2.25,2.79-.59,1.13-1.09,2.29-1.55,3.09-.5,1.35-1.94,1.62-3.35,1.67-1.44.06-2.98,0-4.3,1.11-.13-.09-.31.24-.28.34-.94.21-1.93.44-2.95.73,0,0-.93.26-2.17.85-1.23.57-2.79,1.64-3.63,2.86-.44.58-.67,1.2-.69,1.69-.03.5.17.86.6,1.11.88.54,2.64.35,5.3,1l.04.19c1.29-.15,2.08-.3,2.75-1.5.49,1.06,1.19-.23,1.66.03v.1c.64-1.1,2.1.19,2.82-.85-.01.1.06.41-.15.49.65-.34,1.53-.88,1.81-.27.84-.38,1.92-.72,2.89-1.29.97-.54,1.8-1.28,2.03-2.08l.03.2c.18-1.01.71-.63,1.1-1.42.09.04.16.04.18.07.12-1.02,1.53-1.59,1.7-2.25l.36.27c.29-.39.58-.79.85-1.19l-.41.36c-.85-.9,1.29-.38,1.25-1.69.69-.72-1.08-2.95-.11-3.4-.26-.67.6.81.56.02.56.31.18.47.71.59.07-.72,1.11-.6,1.13-1.5l.45.22c-.28-1.34,1.53-1.38,1.11-2.42.15-1.15,1.65.05,1.32-1.44l.81-.11c.32-.41-.58-.69-.04-1.06.37.22.61-.51.84-.04.57-.46.63-1.19.73-1.94.1-.76.24-1.53,1.04-2.27-.68-.61.02-1.38-.53-1.81.38.03.39-1.87.98-.67.05.1,0,.27-.13.23l.46.22c1.12-.98-.19-2.11-.01-3.18-.17.33-.16.75-.48.45.05-.33.07-.67.1-1.01l.41.22c.09-.52.16-1.04.2-1.58l-.49.25c.21-.76,1.05-1.17.19-1.95-.46-.32-.55.83-.85.06.19-1.04.28-2.75-.2-4.15-.47.36-.6,0-.89-.29l.42-.27c-.65-.52-.51-.75-.33-1.04.18-.27.37-.58-.33-1.08l.37-.08c-.37.08-.73.17-1.09.27-.82-.23-.72-.51-.7-.81.04-.29,0-.6-1.02-.64.48.35-.59.96-.91.34l.45-.23c-.34-.2-.58-.11-.71-.35.34-.05.55-.46.04-.76l.68-.22c-.48-.01-.94-.02-1.41.03-.38-.93-1.83-.99-1.8-1.73,0,0-.35-.26-.79-.46-.44-.19-.96-.27-1.27,0,.48-.31-.32-.81.1-1.22-.6.34-1.89.38-2.22-.27l.11-.04c-1.67-1.01-3.11.13-4.5-.73,0,.58-.75.18-.63.94-1.55.57-2.63-1.7-3.27.55-.66.09-.74-.57-1.07-.7l.16-.12c-1.21.14-1.56.16-2.46.08-.45.21-.55,1.27-1.34,1,.27-.42-.06-.34-.36-.35.19-.06.26-.22-.13-.51-.06.13-.14.21-.23.27,0-.03-.02-.06,0-.1-.5.14-.42.27-.19.34-.01.06,0,.15.08.26-.51-.55-1.44.02-1.5-.71-1.51.16-2.58.91-3.81,1.2-.14-.37.14-.71.5-.85l-.88.15c0-.54.51-.32.78-.42-1.07-.86-2.16.89-3.41.13l-.25.43-.08-.07c0,.22-.26.54-.44.62-.19-.46-.02-1.08-.63-1.03-.5-.44-1.37.27-1.99.55.35.06.24.33.11.5-.3.03-.5-.43-.73-.22l-.06-.63c.15.59-.77.68-.87.94-.2-.46.45-.42.51-.78-1.22.12-.61.06-1.83.18-.63.51.15.59-.13,1.16-.57.16-1.1.63-1.78.3l.24.54c-1.04.5-1.69.49-2.45-.02-3.81,2.6-4.03,4.21-3.37,5.13.66.93,2.22,1.21,2.22,1.21,3.14.98,4.58-.76,8.23-1.36"/>
  <path class="cls-1" d="M73.94,131.26l.07.23c0-.11-.03-.2-.07-.23"/>
  <path class="cls-1" d="M87.59,130.19s0-.03,0-.05c0,.02,0,.04,0,.05"/>
  <path class="cls-1" d="M76.6,138.93h0s0,.04,0,.06v-.06Z"/>
  <path class="cls-1" d="M73.8,138.5c.74.23,1.01,1.3,1.73.8.36.06.73-.21,1.07-.37.1-.86.46-.04.6-.77l.11.47c.05-.25.12-.42.2-.16v.14c.08-.37.21-.16.25-.35v.14s.12-.07.12-.07v.2c.14-.4.32-.43.49-.27l-.05-.58c.39.62.43-.59.79.16v.14c.29-1.55.7,1,.99-.48-.04.18.04.3.05.44.17-.18.36-.28.29-1.42.14,0,.14.35.18.79-.04-.5.07-.71.17-.75l-.03.2.29-.19-.13-.93c.18.26.12,1.14.26.9l-.06-.78c.23.14.45,1.31.7,1.87.91.27,1.73-1.79,2.66-.47l.08.58c.08.86.14-1.28.22-.49l.07-.4c.04.15.11.31.07.51.09.03.08-.11.13-.38l.13.52c.38.39.61-.66.99-.48.52,1.05,1.29,0,1.73-.62.59-1.33,1.62,2.02,2.21.51.03.12.07-.16.06-.25l.64.08s3.1.1.25-6.81v-.18c-.38-.43-.6-.51-.77.44-.12-1.15-.29-.1-.4-.46v-.09c-.15.9-.49-.7-.64.1,0-.09-.02-.41.03-.43-.14.16-.32.43-.38-.24-.34.2-.86-.07-1.01,1.01v-.19c-.08.73-.16.12-.28.5-.01-.09-.03-.13-.03-.17-.09.72-.4.14-.5.45l-.04-.44-.27.12.11.09c.05,1.22-.27-.75-.41.06-.2-.14-.21,2.57-.45,1.98-.05.58.02-.93-.09-.48-.05-.64.04-.41-.04-.91-.12.31-.27-.63-.41-.19l-.04-.5c-.16.92-.47-.62-.56.25-.2.43-.26-1.46-.43-.47l-.14-.66c-.11-.1-.01.83-.15.51-.02-.42-.17-.33-.13-.73-.3-.64-.46.98-.88-.12-.01.83-.22.35-.23.97-.04-.36-.35-.03-.21-.82.01-.07.04-.06.05.08v-.49c-.27-.91-.33.53-.53.4.07.16.14.11.12.45l-.18-.05v-.41s-.28-.22-.28-.22l.07.5c-.15-.25-.26-1.11-.35-.38-.04.41.17.67.05.84-.2-.33-.5-.84-.73-.97.06.57,0,.55-.05.68l-.04-.5c-.18.71-.16-1.09-.36-.52v-.35s0,1.04,0,1.04c-.14,1-.19-1.02-.32.34.09-.09.12,1.09,0,.88v-.48c-.06.11-.07.31-.12.21.02-.26-.03-.7-.12-.61l.02-.6-.11.89c-.17-.5-.34.16-.44-.52,0,0-.32-.31-.33.44.03-.46-.15-.63-.14-1.17-.04.53-.23.97-.36.42v-.06c-.36-.54-.5.82-.84.15.05.57-.12.27-.03,1.01-.25.75-.67-1.46-.61.83-.13.13-.2-.52-.28-.63l.03-.12c-.25.21-.32.23-.52.19-.08.23-.02,1.29-.21,1.05.03-.42-.04-.34-.1-.34.04-.07.04-.22-.07-.5,0,.13-.02.21-.03.28,0-.03,0-.06-.01-.1-.1.16-.07.29-.01.34,0,.07.01.15.04.26-.15-.54-.31.06-.38-.66-.31.19-.49.95-.74,1.25-.06-.37-.02-.7.05-.85l-.18.15c-.04-.54.09-.32.14-.43-.29-.85-.41.9-.73.12l-.03.43-.02-.07c.02.22-.02.53-.06.61-.07-.46-.07-1.08-.21-1.04-.14-.44-.28.25-.4.51.08.07.07.33.05.5-.07.02-.14-.44-.17-.24l-.05-.63c.07.59-.13.65-.13.91-.07-.46.07-.41.07-.76-.26.08-.13.04-.39.12-.11.48.07.59.04,1.15-.12.13-.21.58-.38.21l.08.55c-.2.45-.35.39-.55-.16-1.43,4.67.08,6.23.08,6.23.78,1.18,1.02-.47,1.81-.96"/>
  <path class="cls-1" d="M82.5,155.21l.05.23c0-.11-.02-.2-.05-.23"/>
  <path class="cls-1" d="M92.68,154.48s0-.03,0-.05c0,.02,0,.04,0,.05"/>
  <path class="cls-1" d="M84.57,162.94h0s0,.04,0,.06v-.06Z"/>
  <path class="cls-1" d="M82.47,162.44c.56.25.77,1.32,1.3.84.27.07.54-.2.79-.34.07-.85.34-.03.44-.75l.09.48c.03-.25.08-.41.15-.16v.14c.06-.37.16-.16.18-.34v.14s.09-.07.09-.07v.2c.1-.39.24-.43.37-.26l-.05-.58c.3.63.31-.58.59.18v.14c.2-1.55.53,1.01.74-.46-.03.18.04.3.04.44.13-.17.27-.27.2-1.41.1,0,.11.35.15.79-.03-.5.04-.71.12-.75l-.02.2.21-.18-.1-.94c.14.26.1,1.14.2.91l-.05-.78c.18.14.35,1.32.55,1.88.68.29,1.27-1.74,1.98-.41l.07.58c.07.86.09-1.28.16-.49l.05-.4c.03.15.08.31.06.51.07.03.06-.11.09-.37l.11.53c.29.4.45-.64.74-.46.4,1.07.96.03,1.28-.58.42-1.31,1.23,2.06,1.65.56.02.12.05-.16.04-.25l.48.09s2.32.18.12-6.8v-.19c-.29-.44-.46-.53-.58.42-.1-1.15-.22-.1-.31-.47v-.09c-.1.89-.37-.71-.48.09,0-.09-.02-.41.02-.43-.1.15-.24.42-.29-.25-.25.19-.64-.09-.75.98v-.19c-.05.73-.12.12-.2.49-.01-.09-.02-.13-.02-.17-.06.72-.3.13-.37.44l-.03-.44-.2.12.09.09c.05,1.23-.21-.76-.31.05-.15-.14-.13,2.56-.31,1.97-.03.58,0-.93-.07-.49-.04-.64.02-.4-.04-.91-.08.31-.21-.64-.31-.2l-.04-.5c-.11.92-.36-.63-.41.24-.15.42-.21-1.46-.33-.48l-.11-.67c-.08-.1,0,.83-.11.51-.02-.42-.13-.33-.1-.74-.24-.65-.33.96-.65-.14,0,.83-.16.34-.16.97-.03-.36-.26-.04-.17-.83,0-.06.03-.05.04.09v-.49c-.22-.91-.24.53-.4.39.05.16.11.11.09.45l-.14-.06v-.41s-.21-.23-.21-.23l.06.51c-.11-.25-.2-1.12-.27-.39-.02.4.14.68.04.84-.15-.34-.38-.85-.55-.99.05.57,0,.55-.03.67l-.04-.5c-.13.7-.14-1.09-.27-.53v-.35s.01,1.04.01,1.04c-.09,1-.15-1.02-.24.33.06-.09.1,1.09,0,.88v-.48c-.05.1-.05.31-.09.21.01-.26-.03-.7-.09-.61v-.6s-.07.89-.07.89c-.13-.51-.25.15-.34-.53,0,0-.24-.32-.24.43.01-.46-.12-.63-.12-1.17-.02.52-.16.96-.26.41v-.06c-.27-.55-.36.8-.63.13.05.58-.09.27-.01,1-.18.74-.51-1.47-.45.81-.1.13-.16-.53-.22-.64l.02-.12c-.18.2-.24.23-.39.18-.06.23,0,1.29-.15,1.04.01-.42-.03-.34-.08-.34.03-.07.03-.22-.05-.5,0,.13,0,.21-.02.28,0-.03,0-.06,0-.1-.07.15-.05.28,0,.34,0,.06.01.15.03.26-.12-.54-.23.05-.29-.67-.23.18-.36.94-.54,1.24-.05-.37-.02-.7.03-.85l-.13.15c-.03-.54.06-.31.1-.42-.23-.86-.3.89-.55.1v.43s-.03-.07-.03-.07c.01.22-.01.53-.04.6-.06-.46-.07-1.07-.16-1.04-.11-.44-.21.24-.29.5.06.08.06.33.05.5-.05.02-.11-.44-.13-.24l-.05-.63c.06.59-.09.65-.09.91-.06-.46.05-.41.04-.76-.19.07-.1.04-.29.11-.08.48.06.59.04,1.15-.08.13-.15.57-.28.2l.07.55c-.15.45-.26.39-.41-.17-1.02,4.63.12,6.23.12,6.23.59,1.2.76-.44,1.34-.92"/>
  <path class="cls-1" d="M91.42,188.98l.07.22c-.02-.11-.04-.2-.07-.22"/>
  <path class="cls-1" d="M100.22,187.49s0-.03,0-.05c0,.02,0,.04,0,.05"/>
  <path class="cls-1" d="M94.01,196.5h0s0,.04,0,.06v-.06Z"/>
  <path class="cls-1" d="M92.14,196.16c.51.2.81,1.26,1.22.74.24.05.45-.23.66-.4-.03-.85.29-.06.31-.78l.12.46c0-.25.03-.42.11-.17l.02.14c0-.37.12-.17.12-.35l.02.14.07-.07.02.2c.05-.4.17-.44.3-.28l-.1-.57c.32.61.21-.59.53.13l.02.14c0-1.55.56.97.59-.51,0,.18.06.29.08.43.09-.18.21-.29.03-1.42.09,0,.13.34.21.77-.08-.49-.04-.71.03-.75v.2s.17-.2.17-.2l-.19-.93c.15.25.21,1.13.27.89l-.12-.77c.17.13.44,1.28.67,1.83.63.24.93-1.83,1.68-.56l.12.58c.15.84-.05-1.28.09-.5v-.4c.04.15.11.31.11.5.06.02.04-.12.04-.38l.15.52c.29.37.32-.67.59-.51.46,1.03.84-.04,1.06-.67.24-1.33,1.28,1.96,1.5.44.03.12.03-.16.01-.25l.43.05s2.04,0-.59-6.77l-.02-.19c-.3-.41-.45-.49-.46.47-.21-1.13-.2-.09-.31-.45v-.09c0,.9-.41-.68-.41.12,0-.09-.06-.4-.03-.43-.07.16-.16.43-.28-.23-.2.21-.57-.04-.55,1.04l-.02-.19c.03.73-.09.12-.13.5-.02-.09-.03-.13-.04-.17.02.72-.25.15-.27.46l-.07-.44-.17.13.08.08c.17,1.21-.26-.74-.27.07-.15-.13.15,2.55-.07,1.98.03.58-.09-.93-.12-.48-.1-.63-.02-.4-.12-.9-.04.31-.25-.62-.29-.18l-.08-.49c0,.92-.38-.6-.33.27-.08.43-.33-1.44-.33-.46l-.17-.66c-.08-.1.08.82-.04.51-.06-.42-.15-.32-.17-.72-.27-.63-.19.98-.59-.09.08.82-.1.35-.04.97-.06-.35-.23-.02-.23-.81,0-.07.02-.06.04.08l-.06-.49c-.27-.89-.15.54-.29.42.06.15.1.1.12.44l-.12-.05-.04-.41-.21-.21.1.5c-.12-.24-.29-1.1-.27-.37.02.4.19.67.12.84-.17-.33-.42-.82-.58-.94.1.57.06.55.04.67l-.08-.49c-.04.71-.23-1.07-.29-.5l-.04-.34.12,1.03c.02,1-.24-1.01-.18.35.05-.09.2,1.08.09.88l-.06-.48c-.02.11,0,.31-.05.21-.02-.26-.1-.69-.14-.6l-.05-.6.03.89c-.17-.49-.21.17-.35-.5,0,0-.24-.3-.17.44-.04-.46-.17-.62-.22-1.16.03.52-.04.97-.19.43v-.06c-.3-.53-.24.83-.54.18.1.57-.05.28.09,1-.08.75-.6-1.43-.31.84-.07.14-.19-.51-.26-.62v-.12c-.14.21-.18.24-.31.21-.03.23.13,1.28-.02,1.04-.03-.42-.06-.34-.11-.33.02-.07,0-.22-.1-.49.01.13.01.21.01.28,0-.03-.01-.06-.02-.1-.05.16-.01.29.03.34,0,.06.02.15.05.26-.16-.53-.2.07-.32-.64-.18.2-.22.96-.35,1.27-.08-.36-.09-.7-.06-.85l-.1.15c-.08-.53.02-.32.04-.43-.28-.83-.17.9-.47.15l.03.42-.02-.07c.04.22.05.53.03.61-.1-.46-.17-1.06-.25-1.02-.14-.43-.16.25-.21.52.06.07.09.33.09.49-.04.02-.14-.43-.14-.23l-.1-.62c.11.58,0,.65.01.91-.1-.46,0-.41-.04-.76-.16.09-.08.04-.24.13-.02.48.11.59.15,1.14-.06.13-.07.58-.22.22l.12.55c-.08.45-.19.4-.38-.14-.41,4.68.74,6.19.74,6.19.64,1.15.61-.5,1.08-1.01"/>
  <path class="cls-1" d="M17.01,84.72l.28.25c0-.11-.07-.2-.28-.25"/>
  <path class="cls-1" d="M92.57,87.79s.07-.02.11-.04c-.07,0-.1.02-.11.04"/>
  <path class="cls-1" d="M28.12,93.19s-.02,0-.02,0c-.03.02-.06.03-.08.06l.1-.05Z"/>
  <path class="cls-1" d="M12.98,91.7c3.96.52,4.96,1.67,9.11,1.46,1.96.2,4.08.06,6.01.04.96-.79,2.53.12,3.65-.53l.39.5c.39-.22.83-.36,1.19-.08l-.03.14c.57-.33,1.19-.09,1.48-.25l-.03.14.68-.03-.13.19c.99-.33,1.99-.31,2.86-.09l-.04-.58c1.85.74,2.6-.43,4.26.42l-.03.14c2.22-1.43,3.35,1.2,5.63-.16-.28.17.11.3.08.44,1.03-.12,2.12-.16,2.19-1.3.74.05.59.38.67.83.02-.5.67-.68,1.25-.69l-.28.18,1.67-.1-.29-.96c.87.31.18,1.16,1.03.97l.02-.78c1.21.21,1.88,1.41,3.04,2.04,4.9.53,10.24-1.27,14.77.25l.18.59c.06.86,1.3-1.23,1.45-.43l.54-.37c.14.16.45.33.18.52.49.05.51-.09.87-.34l.51.55c1.93.47,3.61-.51,5.64-.24,1.21.58,2.98.65,4.77.51.9-.07,1.81-.19,2.65-.33.42-.07.83-.15,1.22-.21.19-.04.38-.07.56-.1.09-.02.17-.04.26-.05l.1-.05c.41-.31.96-.33,1.33-.2.19.06.34.16.45.27.05.06.1.12.13.18.02.03.03.06.04.1,0,.05-.03.14-.04.2-.14.55-.42.97-.54,1.22-.12.27-.07.4.24.7-.15,0,.12.15.22.17-.21.35-.49.63-.8.83,0,0-.07.05-.18.13-.06.05-.1.08-.23.16-.14.09-.3.18-.49.28-.72.41-1.77.77-2.7,1.1-.91.35-1.79.71-1.89,1.7-.03.48.15,1.15.88,1.94.72.76,2,1.69,4.27,2.12l-.07.2c1.3-.05,2.38-.33,3.24-.82.4-.23.88-.58,1.23-.98.37-.39.65-.85.84-1.35.54.29,1.03-.15,1.4-.7.37-.57.6-1.22.94-1.45l.05.09c.05-.96.59-1.68,1.04-2.54.47-.83.83-1.8.47-2.58.09.05.42.04.4.44.01-1.28-.45-2.79.15-3.14-.16-.73-.41-1.5-.73-2.25-.17-.38-.33-.75-.52-1.13-.1-.18-.17-.4-.29-.54l-.63-.08c-1.67-.21-3.26-.31-4.34.03l.2-.14c-1.26.5-1.33-.1-2.52.09-.04-.09-.11-.15-.09-.18-.52.24-1.57.3-1.98.25-.55-.04-1.08-.12-1.4.02l-.03-.45-1.55.06.58.11c-.23,1.22-1.15-.79-2.29-.03-1.05-.18-2.2,2.49-3.28,1.86-.54.56.48-.92-.31-.5,0-.64.38-.39.19-.91-.77.28-1.23-.69-2.19-.28l-.02-.5c-1.26.87-2.3-.72-3.15.12-1.28.37-.8-1.5-2.15-.57l-.49-.69c-.56-.13-.43.81-1.05.47.05-.42-.78-.36-.4-.75-1.39-.71-2.91.85-4.74-.34-.43.81-1.36.29-1.68.9-.04-.36-1.88-.12-.8-.87.09-.06.25-.04.24.1l.14-.49c-1.03-.96-1.95.44-3,.26.31.17.72.15.43.47l-.98-.1.22-.4-1.45-.29.18.52c-.7-.29-.92-1.16-1.75-.47-.38.39.65.71-.11.84-.94-.39-2.35-.97-3.56-1.17.09.58-.24.54-.58.65l-.02-.5c-1.32.64-.43-1.11-1.73-.62l.13-.34-.38,1.03c-1.2.94-.58-1.06-1.92.23.51-.06.19,1.11-.42.86l.18-.47c-.35.09-.47.28-.7.17.22-.25.14-.69-.37-.63l.37-.59-1,.84c-.72-.55-1.93.05-2.2-.65,0,0-1.58-.4-1.98.32.34-.45-.53-.66-.26-1.19-.44.5-1.68.87-2.14.29l.1-.06c-1.78-.65-3.13.63-4.72-.13.05.58-.8.22-.62.97-1.72.65-2.99-1.65-3.71.6-.77.08-.88-.58-1.27-.72l.19-.11c-1.44.11-1.86.11-2.92,0-.54.2-.68,1.25-1.62.94.33-.4-.06-.35-.42-.37.23-.05.31-.2-.14-.51-.07.13-.18.2-.28.26,0-.03-.02-.06,0-.11-.6.12-.51.25-.23.33-.02.07,0,.15.08.27-.59-.58-1.72-.06-1.76-.78-1.79.07-3.11.75-4.62.94-.15-.38.22-.69.66-.81l-1.06.08c.04-.53.62-.27.95-.36-1.21-.94-2.64.72-4.06-.16l-.33.41-.08-.08c0,.22-.36.51-.58.57-.18-.48.08-1.07-.65-1.09-.55-.48-1.65.13-2.42.34.4.1.26.35.07.51-.18,0-.32-.13-.45-.22l-.44-.33-2.05,2.73c-.09.12-.15.22-.05.34l-.63.03c.6-.12.63.8.86.98-.24.14-.33-.11-.41-.24-.08-.16-.14-.34-.32-.39.02.52-.03,1.01-.05,1.25-.04.28-.04.55-.29,1.68.11.55.29.43.5.26.2-.18.43-.4.68-.23-.05.57.06,1.04-.04,1.59.04.12.05.25.05.39,0,.07-.01.14-.03.22-.02.08-.04.16.02.22.06-.15.28-.34.46-.52-.01.14.25.19.41.26.17.07.33.13.48.2.29.13.54.25.75.38.42.26.71.56,1.01,1,1.68.06,2.82-.32,3.55-.72.7-.41,1.14-.86,1.4-1.27.52-.82.49-1.46.1-1.93-.13-.25-.29-.44-.46-.63l-.25-.25c-.06-.08-.05-.14-.07-.2-.04-.23-.02-.34-.02-.34.05-.36.21-.45.2-.42.02.02-.17.17-.38.23-.15.05-.32.05-.47-.04-.04-.02-.07-.05-.11-.08l-.05-.05s-.02-.02-.02-.03c0-.02-.01-.12-.01-.17-.05-.53-.1-1.09-.15-1.68l-4.57,4.39s.08,0,.12,0"/>
  <path class="cls-1" d="M42.88,82.58l.23.07c-.08-.08-.17-.12-.23-.07"/>
  <path class="cls-1" d="M65.53,80.82s.03-.02.05-.04c-.03,0-.04.02-.05.04"/>
  <path class="cls-1" d="M49.5,88.36h0s.01.04.03.07l-.03-.07Z"/>
  <path class="cls-1" d="M48.73,88.28c.15-.03.46.16.67.35.22.17.34.35.18.11.04.05,0-.03-.03-.15-.02-.08-.04-.16-.05-.22-.34-.98.07,0-.12-.79l.16.55c-.06-.27-.07-.44.01-.15l.03.15c-.06-.39.02-.14,0-.34l.02.15.02-.06.02.21c0-.4.08-.4.12-.21v-.6c.1.7.26-.5.33.3l-.04.14c.99-1.36.96,1.25,1.93-.08-.12.17,0,.3-.03.44.36-.12.74-.17.85-1.3.23.04.16.37.15.81.04-.5.27-.69.45-.71l-.1.19.54-.14-.05-.95c.26.28.01,1.15.29.94l.03-.78c.37.16.57,1.36.98,1.93.83.16,1.69-.31,2.45-.69.76-.38,1.44-.65,2.16-.06l.14.57c.15.85.13-1.3.3-.53l.08-.41c.06.15.16.3.12.5.13.01.11-.12.16-.39l.2.51c.5.35.75-.71,1.18-.52.27.53.55.55.82.39.14-.08.28-.21.43-.35.07-.07.15-.14.22-.21.05-.07.1-.14.14-.2.37-.56.5.09.35.61-.1.55-.43.92.19.52-.09.08.14-.07.22-.13,0,.08,0,.15-.04.17.02,0-.07.02.08-.03.13-.04.21-.08.38-.12.24-.07.5-.04.43-.04,0,0,.01,0,0,0l.15.04c.12.04.26.1.41.16.31.13.66.33,1.12.48.45.16,1.01.31,1.73.23.71-.08,1.6-.41,2.44-1.38l.19.04c.36-1.13.15-1.96-.96-2.15,1-.6-.25-.74-.04-1.09l.09-.03c-.53.01-.52-.32-.55-.66-.02-.33-.06-.71-.53-.61.08-.05.32-.26.42-.18-.38-.19-.92-.34-.51-.86-.79-.49-1.82-1.44-2.79-.68l.11-.15c-.57.53-.43-.06-.88.16.01-.09,0-.14.02-.17-.54.57-1-.16-1.28.11l.06-.44c-.21,0-.4,0-.6.02l.21.12c-.22,1.21-.35-.83-.85-.06-.41-.18-.79,2.52-1.09,1.93-.14.58.12-.94-.11-.49-.03-.64.1-.4.02-.91-.24.31-.45-.63-.73-.18l-.05-.5c-.32.93-.82-.58-.98.31-.33.46-.47-1.43-.73-.41l-.25-.64c-.19-.08,0,.83-.23.54-.05-.42-.28-.3-.24-.71-.51-.59-.67,1.06-1.3.02.01.83-.28.38-.27,1-.07-.35-.45,0-.31-.8.01-.06.05-.06.07.08l-.03-.49c-.35-.89-.36.56-.61.44.08.15.17.1.14.44l-.22-.05v-.42s-.32-.22-.32-.22l.08.51c-.18-.25-.26-1.11-.4-.38-.06.41.18.68.02.85-.23-.34-.54-.86-.79-1.01.02.58-.05.55-.13.67v-.5c-.3.69-.06-1.09-.34-.56l.04-.35-.12,1.04c-.31.97-.06-1.04-.43.29.12-.08-.03,1.1-.16.87l.08-.47c-.09.09-.13.29-.18.19.07-.25.09-.69-.03-.62l.13-.59-.3.86c-.1-.53-.44.07-.42-.6,0,0-.28-.38-.49.34.15-.44,0-.65.14-1.17-.17.5-.52.87-.51.3l.03-.06c-.02-.15-.23-.22-.44-.24-.21-.01-.42.02-.62.05-.4.06-.74.13-1.14-.36.03.62-.38.15-.26.97-.36.28-.7-.19-1.01-.46-.29-.24-.53-.26-.43.94-.27.08-.46-.62-.65-.76l.04-.12c-.52.15-.66.18-1.08.15-.13.24.23,1.27-.19,1.05-.05-.42-.16-.33-.29-.3.05-.08.02-.23-.26-.46.03.13.02.21.01.28-.01-.03-.03-.05-.05-.1-.16.2-.06.31.06.33.02.06.07.13.14.24-.31-.32-.49-.07-.68-.12-.08-.02-.17-.09-.27-.27-.58.47-.53,1.45-.63,2.08-.27-.25-.41-.62-.39-.86-.06.14-.11.27-.15.41-.35-.44-.06-.43-.05-.61-.43-.17-.46.2-.44.59.01.39.07.79-.35.74l.28.42-.07-.02c.17.17.36.5.39.62-.4-.26-.85-.78-.94-.5-.46-.1-.06.79.08,1.23.12-.11.33.11.45.27-.02.14-.46-.06-.31.17l-.56-.35c.54.29.47.74.69.92-.44-.16-.31-.43-.61-.66-.09.63-.05.32-.14.95.36.52.56.21,1.04.59.05.31.42.68,0,.82l.55.1c.32.54.2.75-.4.85,3.81,3.67,5.92,1.99,5.92,1.99.36-.19.54-.38.61-.59.04-.1-.08-.04-.22-.12-.29-.1-.75-.39-.91-.66"/>
  <path class="cls-1" d="M35.59,76.34l.11-.28c-.09.05-.15.14-.11.28"/>
  <path class="cls-1" d="M10.5,34.76s-.04-.01-.07,0c.03.02.05.02.07,0"/>
  <path class="cls-1" d="M38.81,65.97h0s.05.02.08.02l-.08-.02Z"/>
  <path class="cls-1" d="M43.04,74.95c-.99-2.4-.37-3.55-2.07-5.69-.55-1.17-1.43-2.25-2.17-3.28-1.03-.1-.82-1.43-1.79-1.7l.28-.48c-.33-.09-.61-.26-.51-.6l.13-.06c-.5-.13-.51-.6-.76-.66l.13-.06-.27-.35.21-.03c-.65-.36-1-.91-1.13-1.5l-.48.33c-.05-1.39-1.32-1.17-1.22-2.52l.13-.06c-2.03-.44-.22-2.45-2.21-2.95.25.06.22-.22.35-.28-.48-.49-.92-1.06-1.9-.48-.23-.42.11-.52.45-.8-.43.26-.82,0-1.04-.31l.25.05-.7-.84-.7.67c-.06-.63.91-.72.43-1.07l-.67.41c-.28-.76.5-1.77.59-2.73-1.38-2.92-4.88-4.79-5.29-8.04l.43-.42c.7-.5-1.51-.02-.9-.54l-.52-.08c.08-.17.11-.43.36-.38-.14-.29-.27-.22-.61-.28l.27-.58c-.32-1.29-1.78-1.64-2.32-2.88.06-1.94-2.43-3.92-3.87-5.05-2.4-1.32-1.14-5.57-3.75-6.83.06-.13-.29-.15-.37-.1l-1.18-1.96s-1.49-2.33-3.14-3.28c-1.64-.96-3.39-.51-3.95,4.93l-.19.06c.33,1.27.68,1.97,1.94,2.14-.88.76.47.91.33,1.36l-.09.03c1.16.12.26,1.69,1.32,1.85-.09.03-.36.19-.47.06.42.36,1.03.81.5,1.22.85.95,1.57,2.59,2.9,2.67l-.19.06c.86-.01.42.44,1.01.67-.06.07-.08.13-.11.14.88.03.9,1.17,1.38,1.34l-.36.27.63.78-.12-.37c1.1-.56-.23,1.05.83,1.23.24.65,2.89-.22,2.77.7.66-.03-.94.25-.3.44-.53.36-.46.02-.82.4.52.25-.11,1.04.58,1.32l-.41.29c1.19.18.26,1.61,1.27,1.6.78.47-.95,1.25.32,1.46l-.39.64c.1.37.84-.22.78.3-.37.21-.01.61-.48.63-.07,1.12,1.79,1.08,1.47,2.69.84-.21.74.56,1.37.4-.29.22.59,1.06-.43.89-.08-.02-.13-.11,0-.18l-.46.19c-.42,1.07,1.09.79,1.32,1.45.03-.26-.14-.46.24-.49l.27.57-.42.1.29.93.37-.38c.02.53-.64,1.12.25,1.18.47,0,.36-.73.75-.4.03.71.05,1.77.33,2.52.45-.36.54-.17.76-.04l-.41.28c1.02.36-.78.83.12,1.25l-.33.12,1-.35c1.23.13-.68.87.9.9-.24-.24.86-.7.88-.24l-.47.16c.2.14.41.1.4.28-.29.02-.64.3-.4.54l-.63.12,1.08.08c-.2.68.75,1,.26,1.51,0,0,.24,1.05,1,.88-.5.05-.37.63-.92.77.58-.03,1.35.43,1.03.99l-.08-.02c.1,1.29,1.68,1.33,1.61,2.59.48-.33.48.31,1.05-.18,1.17.58-.32,2.46,1.86,1.67.35.37-.17.77-.15,1.05l-.16-.04c.62.71.77.94,1.06,1.56.36.19,1.31-.28,1.39.38-.47.03-.27.21-.16.42-.13-.1-.29-.06-.38.34.13-.03.24,0,.33.01-.03.02-.04.04-.09.06.32.26.4.14.36-.04.06-.02.12-.08.2-.18-.28.61.58.95-.03,1.35.71.93,1.76,1.29,2.48,1.99-.27.28-.67.24-.93.06l.45.53c-.47.25-.46-.19-.66-.32-.36,1.13,1.57,1.05,1.33,2.27l.47-.03-.04.08c.2-.11.57-.07.7.02-.35.34-.95.51-.7.91-.22.54.71.82,1.16,1.13-.06-.27.21-.32.41-.3.13.2-.21.55.05.62l-.54.32c.47-.37.87.25,1.14.21-.34.35-.54-.14-.88-.02.54.84.26.42.83,1.28.69.23.46-.39,1.07-.45.35.35.97.49.97,1.16l.36-.46c.86.48,1.11.89,1.1,1.73,2.03.51,3.24.03,3.9-.5.67-.53,1-1.08,1.02-1.63.13-.5.17-.88.18-1.15.01-.28-.02-.44-.02-.44.02-.8-.35-1.09-1.01-1.49-.65-.41-1.54-.89-2.42-2.04"/>
  <path class="cls-1" d="M17.43,8.33l.54.23c0-.11-.15-.2-.54-.23"/>
  <path class="cls-1" d="M95.25,52.57s-.03.09-.04.13c.04-.08.05-.11.04-.13"/>
  <path class="cls-1" d="M37.53,17.32s-.02,0-.03,0c-.04.02-.1.03-.14.05l.17-.05Z"/>
  <path class="cls-1" d="M11.42,15.79c3.31-.12,5.44.22,7.59.48,2.16.28,4.35.52,7.94.52,3.41.29,7.16.37,10.55.52,1.67-.71,4.45.36,6.41-.19l.7.54c.68-.19,1.46-.29,2.1.03l-.05.13c1.01-.28,2.1.03,2.6-.11l-.05.14,1.2.04-.22.18c1.74-.24,3.51-.12,5.04.18l-.08-.59c3.26.92,4.59-.18,7.51.84l-.05.14c3.94-1.21,5.88,1.53,9.93.41-.51.14.18.31.12.45,1.82-.05,3.72.14,3.88-1,1.3.17,1.02.48,1.14.94.05-.5,1.2-.57,2.22-.47l-.49.13,2.93.18-.46-1.01c1.51.46.26,1.19,1.76,1.14l.07-.78c2.12.41,3.23,1.74,5.22,2.56,2.07.33,4.15.53,6.34.69,1.35.11,2.37.09,3.47.11,1.06.01,2.12.02,3.17.04,1.04.03,2.07.07,3.06.15.5.04.99.09,1.47.16l.71.11.62.12c.5.1.85.22,1.2.42.32.2.6.47.58.85,0,.11-.04.22-.1.32-.24.11-.48.2-.72.27-.53.14-.14.11.19.24.34.11.59.37.15.35.1.1.18.23.25.37-.2.04-.45.11-.55-.08-.08.1-.09.16-.06.24,0,.1.13.1.05.45l-.92.37c-2.19,2.24-3.31,4.97-5.92,7.59-.24.17-.49.36-.74.58-.25.2-.58.55-.79.74-.47.45-.95.95-1.42,1.5-.96,1.08-1.92,2.32-2.85,3.59-1.86,2.55-3.6,5.28-4.86,7.28-3.19,5.93-10.85,9.55-14.09,15.71-.24.09-.4.71-.32.76l-4.09,4.71s-4.89,5.79-7.15,10c-1.14,2.1-1.63,3.77-.62,4.05,1.01.29,3.5-.85,8.45-4.16l.05.23c2.47-2.34,3.9-3.92,4.66-6.31,1.12.45,1.87-2.06,2.66-2.43l.02.12c.65-2.15,3.3-2.79,3.98-4.82.02.12.24.35-.05.72.83-1.2,1.92-2.89,2.5-2.54,2.11-2.76,5.49-6.27,6.11-8.67l.04.24c.26-1.45.97-1.34,1.6-2.68.12,0,.22-.05.23-.02.34-1.53,2.49-3.2,2.97-4.26l.39.23,1.68-2.2-.73.74c-.72-1.05,1.93-1.13,2.59-3.18,1.32-1.35.43-4.53,2.14-5.65.13-1.06.23,1.18.73-.11.52.37-.06.7.54.77.53-1.12,1.87-1.16,2.66-2.69l.42.28c.79-2.24,3.28-2.74,3.57-4.5.57-1.05,1.1-1.15,1.59-1.31.24-.08.48-.17.7-.42.12-.14.19-.25.33-.53.15-.31.31-.68.45-1.13.45-.32.93-.66,1.37-1.06.83-1.51-.27-1.22.56-2.79.22.05.42-.47.56-.9.13-.43.22-.76.4-.28.13-.52.18-1.05.12-1.58-.03-.53-.25-1.04-.43-1.55-.71-1.41-2-2.4-3.54-3.18-.79-.38-1.61-.74-2.52-1.08-.87-.35-1.94-.71-2.71-1.09-.96.63-2.66-.12-3.31.43-.06-.39-3.48-.45-1.45-1.02.18-.05.48,0,.44.14l.29-.46c-1.91-1.15-3.66.15-5.52-.14.54.2,1.3.22.77.52l-1.74-.2.39-.38c-.84-.14-1.71-.29-2.37-.44.07.18.15.36.23.54-.29-.09-.38-.21-.62-.35-.23-.14-.43-.27-.65-.38-.43-.21-.89-.31-1.66-.03-.7.32,1.11.83-.25.82-1.65-.55-4.12-1.38-6.27-1.79.13.59-.45.5-1.06.55v-.5c-2.39.41-.72-1.19-3.07-.92l.24-.32-.73.96c-2.17.73-.99-1.16-3.43-.1.91.03.3,1.14-.78.79l.33-.44c-.63.03-.85.2-1.25.05.39-.21.27-.67-.64-.7l.67-.52-1.81.67c-1.27-.67-3.43-.17-3.9-.9,0,0-2.81-.56-3.53.12.62-.41-.93-.72-.43-1.22-.79.46-3,.7-3.82.08l.17-.05c-3.17-.83-5.58.32-8.4-.61.08.59-1.42.15-1.11.91-3.05.48-5.32-1.95-6.59.24-1.37,0-1.56-.67-2.26-.84l.33-.09c-2.56-.02-3.3-.06-5.19-.27-.96.14-1.19,1.19-2.86.79.58-.38-.12-.36-.75-.41.41-.03.55-.18-.26-.53-.13.12-.31.19-.49.24,0-.03-.04-.06-.01-.1-1.07.06-.89.21-.41.31-.03.06,0,.15.15.28-1.06-.63-3.06-.22-3.14-.95-3.19-.09-5.52.51-8.2.64-.28-.39.36-.68,1.15-.79l-1.91.03c.04-.54,1.11-.25,1.7-.32-2.23-1-4.71.62-7.38-.2l-.56.42-.16-.07c0,.22-.59.53-.99.6-.38-.46.02-1.08-1.33-1.02-1.08-.44-3.03.34-4.39.7.76.02.53.3.23.49-.67.06-1.09-.36-1.59-.1l-.13-.62c.16.28-.26.49-.75.66-.25.08-.5.18-.72.25-.22.08-.5.17-.55.24-.32-.19.04-.34.47-.49.32-.13.71-.26.77-.44-.8.12-1.29.19-1.64.25-.43.07-.67.11-.91.16-.47.1-.95.2-2.84.59-.82.44-.59.54-.27.63.33.09.75.16.53.5-.72.23-1.33.5-2,.75-.34.12-.69.24-1.09.33-.2.04-.42.08-.65.12H0s0,.05,0,.07l.02.13.03.26c.17-.05.35-.09.53-.12,1.49,2.75,1.85,3.84,1.96,5.67.38.57.74,1.11,1.04,1.5.31.39.6.76.87,1.11.55.69,1.05,1.28,1.51,1.78.91,1.01,1.64,1.66,2.22,2.05,1.16.77,1.72.46,1.95-.29.47-1.52-.38-4.82-.38-4.82-.08-.42-.17-.83-.26-1.22-.09-.37-.18-.72-.27-1.07.07-.02.11-.01.13,0,.03.03-.07.05-.29-.09-.2-.13-.33-.31-.26-.53.03-.1.13-.22.24-.32l.02-.02s.02-.01.08-.03l.3-.07c.2-.05.42-.09.63-.13.43-.08.88-.15,1.34-.23"/>
  <path class="cls-1" d="M106.05,45.79l-.04.26c.07-.09.1-.18.04-.26"/>
  <path class="cls-1" d="M91.95,68.4s-.03.03-.04.05c.02-.02.03-.03.04-.05"/>
  <path class="cls-1" d="M102.91,53.77h0s-.04,0-.06.02l.06-.02Z"/>
  <path class="cls-1" d="M100.74,50.84c.84.94.38,1.94,1.3,2.26.23.36.6.49.88.67.4-.15.44-.05.47.04.05.09,0,.18.38.14l-.44.2c.26-.03.42,0,.17.1l-.14.03c.36-.01.18.11.37.12l-.14.02.06.08h-.2c.38.08.44.26.25.35l.58.02c-.34.12-.21.22-.11.35.11.12.18.27-.23.31l-.13-.04c.67.41.35.54.03.58-.32.06-.63.05-.15.64-.12-.15-.27-.13-.38-.21.02.28-.06.55.85,1.23-.14.16-.39-.08-.75-.32.4.3.45.58.36.73l-.1-.18c-.05.16-.12.32-.19.48l.77.56c-.39.03-.9-.72-.9-.38l.57.54c-.39.19-1.38-.51-2-.73-.64.31-.96,1.08-1.48,1.71-.25.32-.54.61-.89.75-.34.16-.74.18-1.19-.02l-.26-.53c-.31-.8.09,1.33-.23.59l-.03.42c-.09-.13-.23-.26-.22-.47-.15,0-.11.14-.14.43l-.3-.46c-.64-.26-.89.87-1.56.76-.45-.46-.95-.45-1.47-.22-.52.2-1.07.6-1.51.86-.31.32-.63.3-.93.14-.3-.14-.58-.46-.83-.77-.26-.3-.49-.61-.73-.79-.25-.16-.53-.17-.91.07,0-.13-.17.1-.21.19-.32-.14-.61-.32-.91-.5.03.07-1.16-.73-2.37-.5-.6.12-1.22.48-1.66,1.35-.43.87-.7,2.23-.38,4.46l-.12.15c.48.8.9,1.17,1.88.56-.38,1.09.62.42.67.83l-.05.08c.82-.66.82,1.1,1.59.49-.05.08-.15.38-.27.37.42-.03.99-.14.85.52.94.07,2.21.59,2.91-.42l-.06.18c.4-.68.43-.05.83-.39.01.09.04.13.03.17.4-.7,1.03-.05,1.32-.36v.45s.72-.12.72-.12l-.26-.09c.06-1.23.55.77,1.03-.06.51.1.69-2.61,1.18-2.07.13-.6-.06.95.2.46.1.63-.1.42.06.91.28-.35.65.56.99.06l.11.49c.35-.99,1.17.41,1.33-.52.43-.54.78,1.31,1.09.2l.43.57c.29.02-.08-.83.3-.62.12.41.46.18.44.62.9.37.91-1.36,2.19-.75-.19-.82.43-.58.26-1.21.19.31.81-.39.75.54,0,.08-.08.11-.15-.02l.18.46c.93.53.59-.91,1.08-1.08-.22-.05-.36.1-.43-.26l.43-.21.15.4.74-.21-.38-.36c.44.03,1.06.62.94-.2-.11-.43-.68-.34-.49-.69.57,0,1.46-.05,2.03-.39-.44-.38-.3-.48-.26-.68l.36.34c-.03-.96.96.59,1.03-.29l.22.28-.65-.84c-.36-1.09,1.01.42.4-.96-.1.26-.93-.59-.57-.7l.33.36c.03-.2-.1-.37.05-.4.15.24.53.47.62.2l.38.5c-.13-.32-.27-.62-.42-.93.66-.04.44-.92,1.1-.73,0,0,.18-.16.29-.39.11-.22.14-.54-.15-.78.34.36.72-.03,1.15.32-.36-.46-.5-1.26.11-1.37l.04.08c.45-.45.39-1.01.31-1.52-.08-.51-.19-.98.19-1.49-.58.01-.24-.52-.99-.41-.35-.51-.03-.94.13-1.36.16-.4.06-.73-1.09-.68-.2-.38.42-.61.48-.88l.14.07c-.43-.75-.51-.98-.72-1.55-.34-.19-1.3.24-1.29-.31.44-.06.28-.2.18-.36.12.07.27.03.39-.33-.13.04-.23.03-.31.02.03-.02.04-.04.09-.06-.29-.19-.37-.07-.35.08-.06.03-.12.08-.2.18.3-.57-.5-.71.06-1.15-.69-.66-1.67-.61-2.34-.88.21-.32.55-.45.8-.4l-.45-.25c.37-.38.42-.02.61.01.09-.52-.3-.59-.68-.64-.39-.04-.78-.06-.79-.59l-.37.24v-.08c-.12.18-.43.33-.55.33.21-.43.67-.85.38-1.03.06-.53-.74-.26-1.14-.23.1.17-.09.35-.25.44-.14-.07.05-.51-.17-.41l.33-.54c-.27.53-.69.31-.88.5.17-.44.42-.21.64-.49-.57-.28-.28-.14-.85-.42-.53.24-.25.54-.67.94-.31-.04-.76.21-.85-.28l-.18.54c-.66.13-.89-.06-.94-.73-2.73,1.18-3.5,2.56-3.69,3.55-.19,1,.22,1.66.22,1.66.58,1.68,1.88.51,3.33.94"/>
  <path class="cls-1" d="M28.86,35.95l.02.23c0-.11,0-.2-.02-.23"/>
  <path class="cls-1" d="M37.86,36.07s0-.03,0-.05c0,.02,0,.04,0,.05"/>
  <path class="cls-1" d="M29.87,43.86h0s0,.04-.01.06l.02-.06Z"/>
  <path class="cls-1" d="M27.99,43.12c.48.31.56,1.4,1.11.99.25.1.53-.14.77-.25.15-.84.32,0,.49-.7l.03.48c.06-.24.12-.4.16-.14v.14c.08-.36.15-.14.19-.32v.14s.08-.06.08-.06l-.02.2c.14-.38.26-.4.37-.22v-.58c.23.66.36-.54.54.23v.14c.31-1.52.39,1.06.71-.39-.04.18,0,.3,0,.44.13-.16.27-.25.31-1.38.09.02.07.36.07.8.01-.5.1-.7.17-.74l-.04.19.21-.17-.02-.94c.1.27,0,1.15.11.92l.02-.78c.15.16.21,1.34.35,1.92.62.35,1.3-1.64,1.86-.26l.02.59c0,.86.17-1.27.18-.48l.07-.39c.02.15.06.32.02.51.06.04.06-.11.11-.37l.06.53c.24.42.45-.61.71-.41.31,1.09.89.08,1.22-.5.45-1.28,1.05,2.12,1.5.64.02.12.05-.15.05-.25l.44.11s.54.07.84-.75c.31-.81.36-2.51-.52-6.04v-.19c-.24-.45-.38-.54-.51.4-.05-1.15-.19-.11-.25-.49v-.09c-.12.89-.3-.73-.42.07,0-.09,0-.41.03-.43-.09.15-.22.41-.24-.26-.23.18-.56-.12-.69.95v-.19c-.07.72-.1.11-.19.48,0-.09-.01-.13-.01-.17-.08.72-.27.11-.34.42v-.44s-.19.1-.19.1l.07.1c-.01,1.23-.15-.77-.28.03-.12-.15-.24,2.55-.38,1.95-.06.57.05-.93-.04-.49,0-.64.04-.4.02-.91-.09.3-.15-.65-.26-.22v-.5c-.15.91-.28-.66-.38.21-.15.41-.1-1.48-.26-.5l-.06-.67c-.07-.11-.05.82-.12.5,0-.42-.09-.34-.05-.74-.16-.66-.35.94-.56-.18-.06.82-.16.33-.21.95,0-.36-.22-.06-.09-.84.01-.06.03-.05.03.09l.02-.49c-.11-.92-.24.5-.36.36.03.16.08.12.05.46l-.11-.07.03-.41-.17-.24.02.51c-.08-.26-.1-1.13-.2-.41-.05.4.07.69-.03.85-.11-.35-.27-.88-.41-1.03,0,.58-.04.55-.08.67v-.5c-.16.69-.02-1.1-.19-.55l.02-.35-.06,1.04c-.16.98-.05-1.03-.24.31.06-.08,0,1.1-.07.88l.03-.48c-.04.1-.06.3-.09.2.03-.26.03-.7-.03-.62l.06-.6-.14.88c-.07-.52-.23.12-.25-.55,0,0-.18-.34-.25.4.05-.46-.05-.64,0-1.18-.07.52-.22.94-.26.39v-.06c-.18-.58-.38.76-.55.07-.01.58-.1.26-.11,1-.23.72-.3-1.52-.47.76-.1.12-.09-.54-.13-.66l.03-.12c-.18.18-.23.2-.35.14-.07.22-.13,1.28-.24,1.02.06-.42,0-.34-.04-.34.03-.07.05-.22,0-.5-.01.13-.03.21-.04.27,0-.03,0-.06,0-.1-.08.14-.07.28-.04.34,0,.06,0,.15,0,.26-.05-.55-.21.03-.18-.7-.22.16-.41.9-.61,1.17,0-.37.06-.7.12-.84l-.13.13c.03-.53.09-.3.13-.41-.1-.87-.36.85-.49.04l-.06.42v-.07c-.02.22-.08.53-.11.6,0-.47.06-1.07-.03-1.05-.04-.45-.21.21-.31.46.04.08.01.34-.02.5-.04.01-.04-.45-.09-.26l.03-.63c-.02.59-.15.63-.19.89,0-.47.09-.4.12-.75-.18.05-.09.02-.27.07-.12.47-.02.6-.1,1.14-.09.12-.2.55-.27.17v.56c-.19.42-.28.35-.35-.22-.74,2.23-.93,3.78-.91,4.77.02.99.23,1.42.23,1.42.4,1.27.76-.34,1.35-.74"/>
  <path class="cls-1" d="M37.71,55.75v.23c.02-.11.02-.2,0-.23"/>
  <path class="cls-1" d="M44.24,55.99s0-.03,0-.05c0,.02,0,.04,0,.05"/>
  <path class="cls-1" d="M38.33,63.63h0s0,.03,0,.06v-.06Z"/>
  <path class="cls-1" d="M37.04,62.93c.33.3.37,1.39.75.97.17.1.36-.15.53-.27.12-.84.22,0,.35-.71v.48c.06-.24.1-.4.12-.14v.14c.06-.36.1-.14.13-.32v.14s.05-.06.05-.06l-.02.2c.1-.38.19-.4.26-.22l.02-.58c.13.66.25-.54.36.23v.14c.25-1.52.23,1.06.5-.39-.03.18,0,.3-.01.44.1-.16.19-.24.25-1.38.06.02.04.36.02.8.02-.5.09-.7.14-.73l-.03.19.15-.16.02-.94c.06.28-.04,1.15.05.92l.04-.78c.1.16.1,1.34.18,1.92.41.35.96-1.61,1.29-.22v.59c-.05.86.16-1.26.14-.47l.07-.39c0,.15.03.32,0,.51.04.04.05-.1.09-.36l.02.53c.15.42.34-.6.51-.38.16,1.1.61.12.87-.45.39-1.26.59,2.16,1,.72,0,.12.05-.15.05-.25l.3.13s1.45.4.69-6.75l.02-.18c-.14-.46-.24-.57-.4.37.04-1.15-.13-.13-.15-.5v-.09c-.14.88-.16-.75-.3.04,0-.09.03-.41.05-.42-.08.14-.19.39-.16-.28-.18.17-.4-.15-.56.91l.02-.18c-.1.72-.08.1-.17.47,0-.09,0-.13,0-.17-.1.71-.2.1-.27.4l.02-.45-.14.1.05.1c-.08,1.22-.06-.77-.2.02-.08-.16-.31,2.53-.38,1.93-.07.57.09-.93,0-.49.03-.64.05-.4.06-.91-.08.3-.08-.66-.18-.23l.02-.5c-.15.9-.17-.66-.28.2-.13.4,0-1.48-.16-.51v-.68c-.06-.11-.09.82-.13.49.02-.42-.05-.34,0-.74-.09-.67-.3.93-.4-.2-.08.82-.13.33-.19.94.01-.36-.16-.07-.03-.84.01-.06.02-.05.02.09l.04-.49c-.05-.93-.19.5-.28.35.02.16.06.12.02.46l-.08-.07.04-.41-.12-.25v.51c-.06-.27-.04-1.13-.14-.41-.05.4.02.69-.05.84-.07-.35-.16-.88-.26-1.04-.02.57-.05.55-.08.67l.02-.5c-.15.69.01-1.1-.13-.55l.03-.35-.08,1.04c-.15.98,0-1.03-.18.3.05-.08-.03,1.1-.08.88l.04-.48c-.04.1-.06.3-.07.2.03-.26.04-.7,0-.62l.06-.6-.13.88c-.04-.52-.17.12-.17-.55,0,0-.12-.34-.19.4.05-.46-.02-.64.03-1.18-.06.52-.19.94-.2.38v-.06c-.12-.58-.3.76-.4.07-.02.58-.08.26-.1,1-.18.72-.19-1.51-.36.76-.07.12-.05-.54-.08-.66l.02-.12c-.13.18-.17.2-.26.14-.06.22-.12,1.28-.19,1.02.05-.42,0-.34-.02-.34.02-.07.04-.22.01-.5-.01.13-.03.21-.04.28,0-.03,0-.06,0-.1-.06.15-.06.28-.04.34,0,.07,0,.15,0,.26-.03-.55-.15.03-.12-.69-.16.16-.31.9-.45,1.18,0-.37.05-.7.1-.84l-.1.13c.03-.54.07-.31.1-.41-.07-.87-.27.85-.36.05l-.05.42v-.07c-.01.22-.06.53-.08.6,0-.47.06-1.08-.01-1.05-.03-.45-.15.22-.23.46.03.08,0,.34-.02.5-.03.01-.03-.45-.06-.25l.03-.63c-.02.59-.11.64-.14.89,0-.47.07-.4.1-.75-.13.05-.07.03-.19.08-.09.47-.02.6-.08,1.15-.07.12-.15.55-.2.17v.56c-.14.43-.2.36-.25-.21-1.06,4.51-.48,6.21-.48,6.21.27,1.25.52-.37.93-.78"/>
  <path class="cls-1" d="M14.3,2l.31.26c0-.11-.07-.21-.31-.26"/>
  <path class="cls-1" d="M98.09,1.48s.05-.03.08-.06c-.05.02-.07.04-.08.06"/>
  <path class="cls-1" d="M26.81,10.54h-.02s-.06.03-.09.06l.11-.06Z"/>
  <path class="cls-1" d="M12.71,9.11c.28.1.5.23.63.37.03.04.06.07.08.11l.03.05s.17.05.24.07c.37.09.72.19,1.08.28,1.43.35,2.88.62,5.23.51,2.22.21,4.61.09,6.79.03,1.06-.81,2.86.1,4.1-.57l.46.49c.43-.23.93-.38,1.34-.12l-.03.14c.64-.35,1.34-.11,1.65-.29l-.03.14.76-.04-.14.2c1.1-.36,2.23-.35,3.22-.17l-.07-.58c2.11.67,2.9-.52,4.81.27l-.03.14c2.43-1.51,3.82,1.05,6.32-.39-.31.18.13.3.11.44,1.15-.16,2.37-.27,2.38-1.4.83,0,.68.35.79.79,0-.5.71-.71,1.37-.75l-.3.2,1.87-.19-.38-.94c.99.26.26,1.15,1.21.91l-.02-.78c1.37.14,2.19,1.3,3.53,1.86,5.53.25,11.38-1.94,16.55-.74l.25.58c.13.86,1.37-1.32,1.59-.54l.58-.41c.17.15.53.3.24.5.55.01.56-.13.95-.4l.61.51c2.19.33,3.99-.78,6.29-.67,2.79.97,7.91-.27,10.85-1,1.03-.37,2.11-.45,3.23-.39.28.02.56.04.84.07l.42.05.18.07c.23.1.42.22.56.34.3.24.41.48.57.57.07.06.22.02.34.02.04.07.15.1.35.11-.15.12.15.04.27-.02-.13.46-.26.88-.4,1.27,0,0-.02.09-.06.24-.09.37-.22.9-.37,1.49-.34,1.42-.77,3.17-.92,4.61-.14,1.44.01,2.59,1,2.77.96.15,2.85-.61,5.76-3.61l.14.16c.58-1,.98-1.84,1.18-2.66.05-.2.08-.4.11-.61.03-.22.08-.58.09-.86.03-.59,0-1.17-.12-1.71.62-.17.83-.89.9-1.61.07-.73.04-1.43.3-1.89l.09.04c-.31-.82.04-1.85.43-3.03.19-.58.39-1.18.5-1.73.04-.49.39-1.25-.59-.81.09-.05.23-.15.42-.24.09-.05.19-.09.3-.13.06-.02.11-.03.17-.04h.09s0,.06,0,.06c.06-.13-.14-.04-.22-.05l-.33.04c-.22.02-.44.05-.67.07-.44.04-.86.08-1.21.09-.7.02-1.15-.07-.95-.4-1.91.14-4.1.16-6.15.3-.51.04-1,.07-1.49.13-.22.03-.53.07-.67.1-.13.04-.27.07-.39.1-.51.15-.96.35-1.29.64l.09-.19c-.76.76-1.03.16-1.9.57-.05-.08-.12-.13-.11-.16-.84.76-2.53.24-3.22.57l-.07-.44-1.73.19.65.06c-.17,1.24-1.35-.71-2.56.15-1.18-.1-2.27,2.65-3.52,2.11-.56.6.47-.95-.38-.47-.06-.63.39-.42.14-.92-.84.34-1.43-.59-2.46-.11l-.06-.5c-1.34.97-2.62-.54-3.5.36-1.4.46-1.01-1.44-2.45-.41l-.6-.65c-.63-.08-.42.84-1.13.54.03-.43-.9-.3-.5-.72-1.61-.6-3.18,1.05-5.3,0-.43.84-1.49.39-1.81,1.01-.07-.36-2.1,0-.95-.81.1-.07.28-.06.27.08l.13-.49c-1.21-.89-2.14.57-3.32.45.35.15.81.1.51.44l-1.09-.04.22-.42-1.63-.2.24.5c-.8-.24-1.1-1.1-1.98-.36-.4.41.77.67-.07.85-1.07-.33-2.67-.82-4.03-.95.14.57-.23.56-.6.68l-.05-.5c-1.43.71-.54-1.09-1.96-.52l.12-.35-.36,1.04c-1.28,1-.71-1.03-2.12.33.57-.09.28,1.09-.42.88l.17-.48c-.39.11-.51.31-.77.21.23-.26.12-.7-.45-.61l.38-.61-1.07.9c-.83-.51-2.14.13-2.48-.54,0,0-1.78-.33-2.19.41.36-.46-.62-.64-.34-1.18-.46.52-1.83.96-2.37.39l.1-.06c-2.01-.59-3.45.74-5.25.02.07.58-.88.25-.65.99-1.89.69-3.37-1.58-4.11.68-.86.1-1-.56-1.43-.69l.21-.12c-1.6.15-2.06.15-3.24.05-.6.2-.73,1.26-1.78.96.36-.41-.08-.35-.47-.36.26-.06.34-.21-.17-.51-.08.13-.19.2-.3.27,0-.03-.02-.06-.01-.1-.67.12-.56.26-.25.33-.02.06,0,.15.09.27-.66-.57-1.92-.03-1.97-.77-1.99.06-3.45.73-5.13.93-.16-.38.24-.69.73-.81l-1.18.07c.04-.54.69-.27,1.06-.36-1.34-.93-2.93.69-4.52-.22l-.37.4-.09-.08c-.01.22-.4.5-.65.56-.29-.49.11-1.07-1.18-1.13-.53-.26-1.28-.26-2-.18-.73.09-1.39.26-1.95.34.72.14.62.39.44.54-.54-.03-1.19-.55-1.51-.38l-.52-.68c.65.65-1.08.55-1.03.81-.78-.53.53-.36.4-.72-2.42-.14-1.21-.07-3.63-.22-.66.42.99.68,1.12,1.24-.42.02-.71.14-1.08.19-.09.01-.19.02-.3.02,0,.08.1.23.13.33.09.22.12.42.09.58.23.07.47.15.72.25,1.33,1.98,1.54,2.61,1.28,3.43,2.75,3.48,4.11,4.2,5.07,4.39.45.04.88.12,1.17,0,.3-.1.52-.32.67-.59.4-.32.69-.54.9-.63.21-.09.32-.1.32-.1.32-.03.51.07.53.09.03.02-.11-.02-.35-.2-.57-.39-.96-.91-.53-1.1"/>
  <path class="cls-1" d="M111.66,7.42l-.07.22c.06-.09.09-.18.07-.22"/>
  <path class="cls-1" d="M116.05,16.72s.02.01.04.02c-.01-.01-.03-.02-.04-.02"/>
  <path class="cls-1" d="M107.87,14.36h0s-.03.03-.05.04l.05-.04Z"/>
  <path class="cls-1" d="M107.74,13.63c.06.32-.56,1.25-.22.91-.02.09.19-.1.35-.18.69-.64.08.02.71-.5l-.39.36c.08-.06.15-.12.2-.16.08-.06.09-.06-.05.06l-.12.1c.33-.26.16-.1.33-.23l-.13.1.07-.04-.19.14c.38-.27.44-.27.29-.14l.57-.4c-.6.46.69-.33-.07.21l-.15.09c.88-.48.65-.29.36-.11-.28.18-.61.35.32-.07-.23.11-.36.18-.54.26.24-.09.38-.12,1.85-.77.03.03-.43.22-.99.47.65-.29.96-.39,1.04-.39l-.27.1.33-.06,1.26-.52c-.3.18-1.55.63-1.18.53l1.08-.42c-.11.13-1.73.77-2.54,1.08-.17.13.45.06.78.08.34.01.41.18-.61.43l-.8.12c-1.16.16,1.68-.17.6-.02l.51-.04c-.21.03-.44.07-.69.09-.06.03.13,0,.46-.01l-.72.09c-.59.12.68.1.34.23-1.42.12-.3.28.21.55.64.21-.06.28-.67.25-.62-.01-1.13-.12-.47.21-.12-.04.13.07.23.11l-.24.13s-.06.04-.03.15c.02.11.12.28.4.58.28.3.74.73,1.54,1.28.81.53,1.98,1.18,3.77,1.56l.15.11c.56-.09.78-.28.09-.9,1.01.46.25-.21.62-.13l.08.04c-.66-.53.88-.13.29-.62.08.04.35.15.34.2-.05-.2-.17-.46.44-.26.04-.4.6-.82-.27-1.28l.16.06c-.6-.28-.01-.18-.27-.38.09.01.13.01.17.02-.59-.26.11-.38-.11-.53l.42.06.05-.26-.15.08c-1.14-.19.84-.1.19-.37.25-.17-2.25-.51-1.58-.6-.51-.09.86.1.5-.02.62.02.36.07.87.06-.23-.12.75-.18.42-.33h.49c-.78-.19.87-.4.09-.5-.29-.17,1.56-.23.71-.39l.73-.14c.17-.11-.79,0-.4-.13.42-.04.42-.17.79-.15.82-.36-.68-.37.66-.9-.81.08-.21-.18-.83-.1.42-.09.13-.3.92-.32.07,0,.05.03-.09.06l.51-.09c.95-.38-.53-.19-.39-.4-.16.09-.11.15-.45.19l.06-.18.41-.07c.07-.11.13-.22.19-.34l-.49.18c.23-.2,1.04-.51.3-.47-.41.05-.61.33-.81.23.27-.28.65-.71.7-.94-.55.22-.56.17-.7.16l.48-.19c-.79.08,1.04-.48.39-.45l.35-.12-1.07.37c-1.16.27.92-.51-.61-.1.16.02-1.04.5-.93.34l.5-.19c-.15,0-.37.08-.31.01.29-.09.7-.3.54-.32l.64-.23-1.01.29c.38-.33-.43-.15.17-.52,0,0,.06-.37-.7-.02.49-.21.51-.41,1.06-.67-.56.22-1.15.32-.71-.06l.07-.02c.22-.58-1.21.08-.85-.55-.51.38-.36.08-.99.59-.9.33.83-1.4-1.25.16-.21.01.28-.43.36-.59v-.02s.05-.02.05-.02l.09-.05s-.03,0-.04,0c-.42.02-.51,0-.68-.12-.29.13-1.14.94-1.11.67.38-.31.25-.27.18-.3.09-.03.23-.15.35-.4-.11.1-.19.15-.26.2.02-.03.04-.05.07-.08-.23.07-.3.18-.29.25-.05.05-.11.12-.18.21.29-.47-.34-.09.16-.68-.48,0-1.21.51-1.64.65.2-.32.46-.58.64-.66l-.28.04c.32-.45.3-.21.43-.28.26-.83-1.01.54-.84-.25l-.28.34.02-.07c-.12.19-.34.44-.41.48.2-.42.56-.94.4-.97.11-.44-.44.07-.69.24.04.1-.1.32-.21.46-.07,0,.1-.45-.04-.29l.27-.57c-.23.55-.45.51-.58.74.15-.44.27-.33.44-.64-.3-.06-.15-.03-.46-.08-.32.38-.2.56-.47,1.05-.09.03-.19.14-.21.22-.02.03-.03.05-.03.04-.02.04-.09.17-.13.25l.03-.06h0s-.03.05-.03.05l-.06.12c-.14.21-.13.18-.26.32-.09.09-.16.11-.17.12,0,0,0,0,0,0h0s0,0,0,0h-.15s-.01,0-.02,0c-.01,0,0,0,.03.04.02.05-.01-.03-.02-.09,0-.06,0-.13,0-.2.02-.13.08-.25.16-.36.16-.2.44-.43.93-.24.13.07.25.16.35.26.11.12.2.28.26.44.13.28.15.59.17.81.03.18.04.37.04.53-.01.1.02.13.06.16l.1.09c.14.11.27.22.4.32.26.19.49.35.7.48.15-.1.31-.23.46-.4.08-.08.15-.17.22-.27l.11-.15c.04-.08.09-.17.13-.26.17-.38.29-.81.33-1.3.04-.55-.06-1.21-.26-1.73-.09-.25-.2-.5-.34-.73-.13-.23-.33-.5-.43-.62-.22-.29-.59-.63-.82-.8-.21-.17-.48-.34-.7-.47-.18-.11-.38-.2-.57-.28-.7-.29-1.28-.38-1.77-.39-.46-.02-.86.07-.84.06-.31.03-.78.16-1.15.32-.21.08-.46.22-.68.35-.23.14-.42.27-.67.49-.93.76-1.64,2.15-1.78,3.23-.02.14-.04.29-.05.43l-.02.24c0,.14-.01.29-.01.44,0,.29.04.59.09.88.11.58.3,1.1.54,1.55.48.88,1.02,1.37,1.44,1.67.43.31.79.45,1.11.54.31.08.58.1.81.1.05,0,.14,0,.15-.02l.04-.07.07-.13c.1-.17.21-.32.31-.4"/>
  <path class="cls-1" d="M111.88,129.2l.18.23c0-.11-.05-.2-.18-.23"/>
  <path class="cls-1" d="M128.23,159.65s-.02.04-.03.07c.03-.03.03-.05.03-.07"/>
  <path class="cls-1" d="M117.66,137.47h0s-.03.03-.05.05l.06-.05Z"/>
  <path class="cls-1" d="M110.15,136.46c1.93.19,2.38,1.29,4.43.98.96.15,2.06.04,3.07.03.59-.77,1.31.17,2-.44l.15.51c.24-.21.49-.34.65-.04l-.04.14c.36-.31.66-.04.84-.19l-.04.14h.37s-.1.19-.1.19c.59-.29,1.15-.22,1.57.04l.06-.58c.84.81,1.41-.3,1.98.63l-.04.13c.64-.62.93-.25,1.12.11.2.37.27.71.89.23-.15.12-.13.27-.21.39.31-.02.5.05,1.28-.79.15.16-.13.38-.42.7.36-.36.62-.37.75-.27l-.2.07c.14.07.26.16.39.26.26-.18.51-.37.76-.57-.07.41-.96.63-.64.75l.7-.34c.06.5-.99,1.12-1.48,1.57,0,.74.43,1.79.62,3.09.19,1.29.18,2.6-.69,3.64h-.6c-.85-.11,1.14.85.34.8l.33.34c-.16.05-.36.17-.52,0-.08.24.05.27.27.5l-.58.15c-.62.84.18,1.95-.31,2.71-.68.32-.94.85-1.02,1.3-.09.46-.01.92-.22,1.39-.19.85-1.25.65-2.24.32-1.01-.31-2.29-.61-3.2.3-.09-.11-.22.19-.2.29l-1.94.21s-9.39,1.28-1.1,7.06l-.02.19c1.13.27,1.81.25,2.38-.8.31,1.12.88-.03,1.19.29v.1c.49-.99,1.44.5,1.93-.39,0,.09.03.41-.11.45.43-.22,1-.58,1.15.08.54-.18,1.26-.28,1.97-.52.7-.24,1.38-.65,1.63-1.31v.2c.24-.86.62-.34,1.03-.95.07.07.13.09.14.12.11-.46.48-.69.85-.92.38-.22.77-.45.86-.74l.32.31c.31-.32.58-.66.82-1.01l-.38.29c-.4-.48-.11-.51.29-.6.39-.09.9-.28.79-.86.28-.31-.09-.97-.46-1.53-.37-.57-.73-1.06-.34-1.25-.42-.5.77.6.53,0,.6.21.29.36.81.42-.11-.56.9-.56.66-1.26l.48.12c-.66-.99,1.01-1.21.28-1.9-.23-.82,1.56-.17.77-1.16l.72-.17c.17-.32-.76-.4-.37-.71.41.1.42-.41.77-.12.81-.76-.64-1.87.6-2.87-.79-.34-.24-.86-.85-1.1.36,0,.15-1.14.88-.43.06.06.04.16-.1.14l.48.12c.97-.58-.41-1.24-.25-1.93-.17.2-.14.48-.47.28l.08-.64.41.14c.09-.33.17-.67.24-1.02l-.51.16c.25-.5,1.11-.76.33-1.32-.43-.23-.64.56-.85.02.28-.71.64-1.94.42-3.07-.51.27-.59-.01-.8-.25l.45-.21c-1.11-.83.86-.87-.25-1.79l.36-.07c-.36.07-.72.14-1.08.22-.71-.22-.59-.46-.51-.73.08-.26.07-.54-.84-.57.37.32-.68.86-.88.35l.45-.23c-.29-.16-.51-.08-.58-.29.31-.06.56-.45.14-.7.21-.08.43-.16.65-.24-.43.01-.85.04-1.26.1-.23-.84-1.44-.79-1.33-1.49,0,0-.26-.24-.6-.38-.34-.15-.73-.19-1,.1.4-.34-.18-.75.19-1.19-.5.37-1.47.5-1.65-.11l.08-.04c-1.13-.9-2.22.28-3.03-.57-.06.58-.5.18-.5.93-1.06.56-1.46-1.78-2.18.42-.45.05-.42-.61-.63-.76l.12-.1c-.85.06-1.08.04-1.69-.1-.34.17-.53,1.22-1.04.89.23-.39,0-.35-.21-.37.14-.05.2-.2-.03-.51-.05.12-.12.2-.19.25,0-.03,0-.06,0-.1-.36.1-.32.24-.17.32-.02.06-.01.15.02.27-.29-.58-.99-.09-.96-.81-1.07.05-1.89.74-2.77.96-.08-.38.15-.7.41-.82l-.63.1c.03-.53.38-.29.58-.38-.71-.91-1.58.77-2.45-.02l-.19.42-.05-.07c0,.22-.2.53-.32.6-.13-.46,0-1.08-.45-1.04-.37-.44-1,.24-1.44.53.25.06.19.33.09.5-.22.03-.38-.43-.53-.21l-.07-.63c.13.59-.53.68-.58.95-.17-.45.3-.44.33-.79-.9.14-.45.08-1.34.24-.41.53.16.58.01,1.16-.39.18-.71.69-1.24.39l.25.53c-.66.56-1.08.61-1.72.17-1.08,1.48-1.37,2.65-1.38,3.5-.01.86.24,1.45.61,1.83.34.4.72.63,1.02.77.3.13.52.17.52.17.94.36,1.45.13,2.04-.29.59-.41,1.24-1.05,2.3-1.33"/>
</svg>