<?xml version="1.0" encoding="UTF-8"?>
<svg id="Capa_1" data-name="Capa 1" xmlns="http://www.w3.org/2000/svg" viewBox="0 0 223.06 210.08">
  <defs>
    <style>
      .cls-1 {
        fill: #a4d5cc;
      }
    </style>
  </defs>
  <path class="cls-1" d="M88.21,59.89l1.34.22c-.02-.11-.36-.2-1.34-.22"/>
  <path class="cls-1" d="M48.13,8.81c-.11.02-.23.02-.32.04.22-.01.3-.02.32-.04"/>
  <path class="cls-1" d="M140.19,67.1s-.05,0-.07,0c-.11.02-.24.04-.34.06l.42-.06Z"/>
  <path class="cls-1" d="M72.09,67.3c17.87.07,22.62,1.09,41.14.43,8.84-.02,18.26-.38,26.89-.62,4.09-.9,11.34-.15,16.18-.92l1.89.46c1.67-.26,3.63-.45,5.32-.21l-.1.14c2.5-.4,5.33-.23,6.57-.43l-.1.14,3.05-.13-.52.21c4.37-.48,8.89-.65,12.89-.67l-.36-.56c8.58.2,11.61-1.22,19.39-1.27l-.09.15c2.32-.63,4.41-1.02,6.4-1.32.5-.07.99-.13,1.48-.19.73-.09,1.57-.21,2.32-.39,1.52-.37,2.93-1.06,3.98-2.18,1.13-1.2,1.78-2.77,1.97-4.49.1-.86.09-1.76.03-2.67-.03-.53-.06-1.07-.09-1.61-.15-2.11-.42-4.35-.96-6.87.26,1.21.26-.54.41-.45-.46-4.51-.72-9.33-1.86-9.36-.09-3.3.28-2.7.71-3.14-.5.03-.78-2.83-.81-5.4l.2,1.18c-.07-2.48-.12-4.86-.11-7.43l-.97,1.48c.19-1.96.43-2.36.66-2.59.11-.13.2-.26.23-.62.02-.37.02-.97-.26-2.16l-.75.21c-.29-1.75-1.01-3.45-2.15-4.61-.86-.9-1.92-1.53-3.06-1.97-.61-.23-1.11-.38-1.58-.51-.48-.13-.95-.24-1.4-.34-1.72-.38-3.33-.73-5.34-1.02-22-1.15-45.72-.03-66.15-2.17l-.88-.62c-.36-.87-5.7,1.06-6.45.24l-2.4.3c-.66-.18-2.07-.4-.88-.54-2.2-.12-2.26.02-3.86.22l-2.34-.62c-8.68-.73-16.1.02-25.24-.53-10.95-1.49-31.66-1.26-43.6-1.12-8.4.33-17.43-.54-26.52-1.38C20.42.92,15.86.5,11.37.24l-1.77-.09c-1-.04-1.99-.08-2.98-.12l-.74-.02-.67.1-1.33.2c-.4.11-.71.3-1.06.44-.33.14-.71.47-.97.79C.77,2.77.3,4.54.13,6.44.04,7.36,0,8.37,0,9.21c-.01.5,0,.67.02.99l.04.85c-.14.59.13,2.09.23,2.07-.03,5.38.2,10.65.47,15.92,0,0,.26,4.79.82,11.03.28,3.12.63,6.6,1.04,10.04.22,1.72.44,3.42.65,5.07.12.84.24,1.66.39,2.5.07.41.17.85.25,1.26.08.41.23.96.36,1.42.61,2.17,1.88,3.97,3.53,4.7,1.57.78,3.29.79,4.22.73,1.83-.19,2.57-.61,2.09-1.09-.25-.26-.82-.52-1.74-.89-.46-.18-1.02-.39-1.58-.67-.57-.27-1.18-.66-1.64-1.28-.47-.62-.68-1.49-.71-2.36-.04-.86-.02-2.03.03-3.32.13-2.59.27-5.74.41-9.35l.22.37c-.27-8.57-.55-13.94-1.83-19.77,1.08-1-.25-7,.08-9l.1.18c-.53-2.57-.39-5.24-.13-7.8l.1-.92c.03-.16.06-.33.09-.43l.15-.66c.05-.22.07-.44.13-.68.03-.11.08-.26.18-.28.09-.03.18-.07.27-.11-.01.05.02.15.01.24,0,.12-.07.12-.19.25.08-.14.25-.07.38-.11l.46-.04c.16,0,.32-.02.48-.02.08,0,.12,0,.41,0,.23,0,.46.01.68.02,1.75.07,3.07.22,3.2.56,8.79.15,21.05.91,26.72.05l-.39.17c3.24-.6,4.16.05,7.76-.19.19.1.44.15.4.19,3.52-.58,10.21.27,13.04.07l.17.45,6.97.15-2.6-.19c.95-1.19,5.24.96,10.31.36,4.72.33,9.68-2.19,14.56-1.41,2.36-.49-2.09.86,1.42.54.09.64-1.65.34-.77.88,3.45-.18,5.61.86,9.86.59l.15.5c5.56-.7,10.4,1.04,14.11.31,5.71-.2,3.77,1.62,9.74.87l2.28.76c2.54.2,1.85-.76,4.65-.33-.19.42,3.55.47,1.88.81,6.35.9,12.97-.46,21.32.97,1.85-.76,6.06-.11,7.44-.68.21.37,8.46.37,3.69.98-.41.05-1.13,0-1.07-.13l-.59.47c4.75,1.1,8.72-.18,13.45.13-1.4-.21-3.27-.24-2.01-.53l4.4.23-.93.38,6.55.48-.88-.54c3.2.38,4.29,1.29,7.94.7,1.65-.34-3.01-.8.38-.83,2.14.24,4.81.55,7.63.87,1.41.14,2.86.28,4.29.42.72.06,1.43.12,2.13.18.66.05,1.2.12,1.61.19-.12-.3.06-.43.35-.45.14-.05.34-.04.55.02-.07.15-.15.3-.24.45.07,0,.12.01.18.02.25.08.31.26.27.38-.04.12-.17.21-.29.27-.12.06-.22.25-.24.57-.01.17,0,.39.03.73.04.35.09.79.15,1.33l-.17-.25-.18-.16c.18.12.35.42.52.65l.51.74c.92,5.23-1.09,2.85.3,8.7-.11-2.32,1.07-1.1.92,1.74l-.5-.71c.13,1.58.35,2.1.28,3.15-.28-.93-.72-.48-.55,1.84l-.65-1.54,1.05,4.35c-.37,3.41.63,8.71.06,10.14,0,0,.05,1.82.22,3.83.02.25.05.51.07.76l.04.35s0,.05.02.08c.03.11.06.22.09.33.07.22.13.46.23.69-.13-.34-.37-.22-.6-.26-.23-.02-.41-.16-.55-.39.07.13.08.27,0,.4-.04.06-.09.12-.16.17,0,.02-.31.08-.51.13l-.67.14c-1.81.37-3.69.56-4.79.42l.4-.11c-7.97.37-13.55,2.1-20.82,1.77.36.56-3.48.41-2.5,1.11-7.48,1.03-13.73-1.12-16.41,1.2-3.43.17-4.08-.48-5.86-.57l.82-.13c-6.44.27-8.32.31-13.1.32-2.39.25-2.75,1.32-7.04,1.11,1.38-.44-.37-.34-1.97-.32,1.02-.08,1.34-.24-.77-.5-.29.13-.75.22-1.18.29-.02-.03-.1-.06-.06-.1-2.67.18-2.21.31-.96.35-.06.07.04.15.43.26-2.78-.51-7.74.13-8.08-.59-8.04.27-13.78,1.08-20.47,1.45-.76-.36.8-.71,2.74-.88l-4.75.19c.03-.54,2.72-.34,4.18-.47-5.66-.8-11.64,1.01-18.28.29l-1.37.44-.4-.07c.02.22-1.46.55-2.44.63-.94-.46.05-1.08-3.23-1.01-2.6-.42-7.37.32-10.76.61,1.83.06,1.24.32.46.5-1.64.04-2.59-.42-3.86-.2l-.16-.63c.65.59-4.28.69-4.88.96-.94-.45,2.54-.43,2.95-.79-6.58.14-3.29.07-9.87.21-3.51.52.65.59-1.03,1.16-3.1.16-6.12.64-9.68.3l1.13.54c-5.82.5-9.3.48-13.23-.04-10.85,1.25-16.78,2.35-19.75,3.08-2.94.77-2.72,1.37-1.17,1.92,1.6.5,4.65.88,7.15,1.05,2.54.2,4.68.28,4.68.28,17.12,1.03,25.92-.71,46.23-1.39"/>
  <path class="cls-1" d="M76.95,201.44l.93.27c-.01-.11-.24-.21-.93-.27"/>
  <path class="cls-1" d="M96.32,187.32c-.07.02-.16.03-.22.06.16-.02.21-.04.22-.06"/>
  <path class="cls-1" d="M113.38,209.79h-.05c-.08.02-.17.04-.24.06l.29-.06Z"/>
  <path class="cls-1" d="M65.23,208.15c12.61.87,15.94,2.06,29.07,1.85,3.13.09,6.36.09,9.57.02,3.21-.05,6.41-.14,9.46-.24,2.89-.86,8.02-.08,11.44-.86l1.34.46c1.18-.26,2.56-.44,3.75-.22l-.07.14c1.76-.41,3.75-.25,4.62-.45l-.07.14,2.14-.12-.36.21c3.07-.45,6.23-.62,9.03-.53l-.25-.57c5.99.44,8.12-.9,13.54-.36l-.07.14c6.72-1.88,10.81.48,17.73-1.42-.86.24.39.28.33.42,3.22-.37,6.65-.71,6.62-1.84,2.35-.14,1.94.22,2.27.64-.05-.5,1.98-.84,3.8-1.02l-.83.26,5.29-.57c-.48-.28-.77-.57-1.16-.86.35,0,.62.03.84.06.23.03.51.07.67.11.35.09.5.21.65.31.14.1.28.19.64.22.35.02.95.03,1.88-.21l-.44-.72c.64-.1,1.2-.19,1.73-.38.53-.18,1.02-.53,1.35-.95.33-.41.54-.84.73-1.29.18-.47.37-.94.5-1.49.16-.53.26-1.1.39-1.68.07-.3.13-.6.2-.91.06-.27.12-.41.18-.63.23-.81.44-1.7.59-2.71.02-1.05.01-2.13-.09-3.27-.03-.56-.13-1.17-.21-1.75l-.19-.94c-.05-.28-.19-.76-.31-1.15-.51-1.62-1.39-3.14-2.72-4.17-.35-.23-.68-.5-1.05-.71l-1.15-.54c-.37-.2-.77-.33-1.2-.43l-1.07-.27c-2.49-.46-4.65-.44-6.78-.36-2.11.09-4.16.28-6.16.48-1.99.2-3.97.43-5.81.58-1.67.13-3.74.1-5.63.11-3.83-.01-7.58-.15-11.19-.49l-.64-.59c-.28-.86-3.98,1.27-4.53.47l-1.68.39c-.47-.15-1.47-.32-.63-.51-1.55-.03-1.59.11-2.71.37l-1.67-.53c-6.13-.42-11.33.61-17.78.4-7.75-1.07-22.32.23-30.71.92-11.78,1.46-25.56-1.74-37.62-.08-.4-.12-1.41.17-1.4.27l-11.06.05s-3.35.03-7.74.18c-2.65.11-5.62.24-8.55.36-.91.11-1.82.23-2.72.34l-.33.04c-.05.09-.07.22-.1.33l-.18.69c-.11.45-.23.9-.34,1.34-.44,1.75-.7,3.51-.71,5.14,0,.2,0,.41,0,.59l.02.43c.03.29.05.57.08.84.06.54.15,1.05.25,1.53.2.94.48,1.73.75,2.34.57,1.21,1.13,1.63,1.5,1.16.4-.48.55-1.88,1.09-4.27.14-.58.3-1.26.53-1.93.21-.58.46-1.14.76-1.65.15-.25.3-.49.47-.72.08-.11.17-.22.26-.32.05-.04.08-.11.14-.14l.29.07c.77.2,1.47.4,2.08.61l-.1.19c.14.06,1.11.09,1.75.12.69.03,1.35.06,1.99.08,1.27.04,2.45.05,3.56.01,2.23-.07,4.21-.31,6.29-.81.68,1.14,4.97.04,6.39.39l-.13.1c3.67-.94,7.61.62,11.15-.23-.14.09-.21.41-1.02.44,2.59-.19,6.12-.5,6.33.17,6.18-.27,14.82-.1,18.76-1.23l-.27.19c2.25-.76,2.92-.15,5.44-.56.14.09.32.13.29.17,2.45-.75,7.18-.22,9.16-.56l.13.44,4.9-.18-1.83-.07c.62-1.24,3.71.71,7.26-.14,3.33.11,6.73-2.65,10.19-2.1,1.65-.57-1.45.93,1.01.49.08.64-1.15.4-.51.91,2.42-.3,3.97.65,6.95.22l.12.5c3.89-.91,7.34.66,9.93-.21,4.01-.41,2.69,1.48,6.87.5l1.62.67c1.79.11,1.28-.82,3.26-.5-.12.42,2.5.34,1.34.74,4.48.67,9.11-.94,15.01.18.32-.21.75-.33,1.22-.41.49-.08.95-.11,1.58-.15,1.2-.08,2.18-.18,2.66-.52.23.35,5.96-.37,2.71.65-.28.08-.79.11-.77-.03l-.37.52c3.44.68,5.99-.96,9.1-.82-.91-.17-2.16-.08-1.33-.44.98,0,1.94.03,2.86.08l-.59.39c1.36.12,2.71.3,3.72.6l-.36-.58c.2.07.41.13.54.22.06.05.13.09.19.13.05.04.04.06.06.09.04.11.06.25.08.34.03.21.04.22.45.24.22.01.35-.16.42-.34.06-.16.13-.33.37,0,.01.14,0,.28,0,.42,0,.09,0,.29.01.43,0,.16.02.32.01.51.01.7-.05,1.55-.11,2.42-.08.89-.18,1.82-.28,2.77l-.08.72-.04.36s-.01.15-.02.15v.03s-.1.22-.1.22c.57.12.54.35.64.72l-.48-.32c.15.34-.04.42-.15.37-.13-.04-.25-.18-.37-.32-.25-.27-.33-.58-.43-.29,0-.11,0-.23-.02-.35.01.09.02.17.02.26,0,.04.01.09-.01.13l-.12.14-.49.56c-3.57,1.26-2.04-.88-5.99.77,1.59-.21.84,1.05-1.15.96l.47-.51c-1.08.18-1.43.4-2.17.35.63-.3.29-.72-1.3-.53l1.03-.67-2.97,1.09c-2.38-.34-6.04.53-7.05-.09,0,0-5.05-.02-6.17.79.99-.51-1.8-.54-1.04-1.12-1.27.59-5.11,1.22-6.68.75l.29-.08c-5.73-.29-9.72,1.25-14.87.74.26.57-2.46.35-1.77,1.06-5.28.94-9.71-1.21-11.57,1.13-2.41.19-2.87-.46-4.12-.56l.57-.13c-4.52.26-5.83.31-9.19.31-1.67.24-1.93,1.3-4.94,1.06.97-.43-.26-.34-1.38-.33.72-.07.94-.23-.54-.5-.21.13-.53.21-.83.28-.01-.03-.07-.06-.04-.1-1.88.16-1.55.29-.68.34-.04.07.03.15.3.26-1.95-.53-5.43.02-5.66-.7-5.64.17-9.68.82-14.39,1.05-.52-.38.58-.7,1.95-.82l-3.33.08c.04-.53,1.92-.26,2.95-.36-3.94-.93-8.19.69-12.82-.25l-.98.39-.27-.08c0,.22-1.05.49-1.74.54-.64-.49.09-1.07-2.21-1.13-1.8-.5-5.17.01-7.57.14,1.28.14.85.38.29.52-1.15-.04-1.79-.54-2.69-.38l-.08-.63c.42.61-3.04.5-3.48.72-.63-.5,1.8-.29,2.11-.64-4.61-.21-2.3-.11-6.91-.32-2.49.32.41.62-.8,1.1-2.18,0-4.33.29-6.8-.28l.75.62c-2.06.06-3.7.03-5.16-.11-1.46-.14-2.76-.38-4.03-.85-2.31.06-4.26-.28-5.75-1.07-2.3-1.32-3.29-3.64-3.41-5.43-.06-.9.09-1.66.27-2.26.15-.6.45-1.09.38-1.35,0-.58-.19-.83-.51-.85-.35.03-.65.04-1.59.92-.8.79-1.53,2.07-1.82,3.58-.31,1.56-.15,3.23.25,4.56.4,1.36,1.04,2.5,1.63,3.27.29.39.56.69.75.9.2.2.31.31.31.31.16.16.33.32.46.45,1.9,1.69,3.97,2.54,5.7,3.03,1.75.49,3.27.67,4.59.8,2.54.21,4.84.27,7.28.3,2.42.04,4.92-.01,7.71-.04,2.79-.02,5.85,0,9.42.04"/>
  <path class="cls-1" d="M19.99,80.82l-.2.34c.11-.02.19-.11.2-.34"/>
  <path class="cls-1" d="M33.13,160.86s.04.05.07.07c-.03-.05-.05-.06-.07-.07"/>
  <path class="cls-1" d="M13.71,94.19s0-.02,0-.02c-.03-.02-.04-.05-.07-.08l.07.09Z"/>
  <path class="cls-1" d="M12.45,77.58c.1,4.41-.83,5.69.14,10.15.17,2.16.72,4.4,1.12,6.45.97.87.37,2.72,1.23,3.78l-.42.51c.29.37.52.81.32,1.25h-.14c.44.54.31,1.24.53,1.51h-.14s.16.71.16.71l-.21-.1c.52.99.68,2.05.62,3.01l.57-.15c-.39,2.09.88,2.68.33,4.57h-.14c1.77,2.11-.65,3.69.99,5.89-.21-.28-.29.15-.43.14.26,1.05.43,2.25,1.58,2.17.05.81-.3.68-.73.82.5-.04.76.64.84,1.27l-.22-.28.32,1.79.91-.43c-.19.98-1.13.34-.82,1.24l.78-.08c-.04,1.34-1.14,2.22-1.58,3.58.11,2.72.87,5.49,1.6,8.21.73,2.72,1.45,5.39,1.43,8.04l-.51.37c-.8.32,1.59,1.04.87,1.43l.53.47c-.1.2-.17.58-.43.35.11.53.25.51.61.81l-.35.71c.19,2.17,1.7,3.59,2.12,5.75-.28,2.84,1.91,7.15,2.98,9.78,1.01,1.79.83,4,.58,6.15-.12,1.08-.26,2.15-.27,3.19,0,.52.03,1.03.11,1.54.09.53.23,1.08.46,1.61-.11.15.19.5.29.49.08,1.34.21,2.73.46,4.17,0,0,.05.32.19.87.13.54.35,1.32.72,2.2.34.87.9,1.87,1.58,2.79.74.91,1.61,1.75,2.57,2.23.92.5,1.82.69,2.43.6.63-.07.93-.38.99-.88.15-1.01-1.2-2.86-.73-5.85l.19-.04c-.27-1.46-.37-2.46-1.55-3.5,1.08-.39-.13-1.51.19-2.02l.1.03c-1.03-1.08.51-2.45-.37-3.65.09.04.41.04.45.34-.2-.92-.57-2.15.09-2.28-.36-2.19-.49-5.31-1.79-6.53l.2.06c-.85-.67-.28-1.01-.8-1.82.08-.06.11-.13.15-.13-.86-.72-.61-2.47-1.06-3.09l.42-.14-.5-1.67.06.65c-1.24.07.44-1.46-.65-2.48-.15-1.18-3.07-1.59-2.82-2.89-.71-.39,1.03.22.38-.47.61-.21.49.27.92-.08-.52-.72.24-1.5-.46-2.36l.46-.18c-1.25-1.03-.09-2.6-1.17-3.2-.77-1.19,1.16-1.29-.16-2.37l.5-.7c-.05-.6-.91-.19-.77-.92.42-.07.12-.89.6-.62.27-1.59-1.65-2.69-.94-4.81-.89-.25-.59-1.3-1.26-1.5.34-.11-.28-1.95.67-1,.08.08.09.25-.05.26l.5.04c.72-1.24-.83-1.89-.85-3.01-.12.35,0,.77-.38.53l-.08-1.03.44.16.03-1.55-.48.27c.16-.78.99-1.14.17-1.9-.45-.34-.6.79-.85.01.23-1.05.59-2.6.62-3.91-.56.18-.57-.17-.72-.52l.49-.09c-.81-1.32,1.04-.6.38-1.92l.36.09-1.07-.27c-1.09-1.16.97-.75-.48-2.02.13.54-1.07.35-.91-.35l.49.13c-.13-.37-.34-.47-.26-.73.28.2.71.06.58-.48l.63.32-.96-.97c.45-.84-.31-2.1.34-2.49,0,0,.18-1.8-.61-2.13.49.31.57-.68,1.14-.46-.57-.41-1.13-1.7-.63-2.3l.07.09c.34-2.05-1.16-3.3-.7-5.15-.56.15-.37-.82-1.07-.5-.95-1.73,1.06-3.51-1.29-3.87-.23-.81.4-1.05.46-1.49l.15.18c-.39-1.52-.47-1.97-.57-3.12-.3-.54-1.36-.49-1.24-1.55.46.28.33-.13.28-.51.1.24.26.29.47-.25-.14-.05-.23-.15-.31-.25.03,0,.06-.03.1-.03-.23-.62-.35-.49-.36-.19-.07,0-.14.03-.25.13.45-.73-.28-1.84.43-2.01-.42-1.9-1.32-3.17-1.8-4.73.35-.22.72.11.92.56l-.27-1.11c.53-.05.38.61.53.95.71-1.44-1.19-2.67-.56-4.33l-.46-.28.06-.1c-.22.03-.56-.29-.66-.52.44-.27,1.07-.09.96-.87.38-.66-.38-1.72-.71-2.51-.04.44-.31.32-.49.15-.05-.39.4-.65.17-.94l.62-.09c-.58.2-.72-.97-.98-1.09.45-.26.44.57.8.64-.17-1.55-.08-.78-.25-2.33-.53-.8-.59.19-1.16-.18-.18-.73-.64-1.43-.3-2.3l-.55.29c-.51-1.37-.47-2.22.09-3.17-1.22-2.57-2.09-4.05-2.9-4.78-.79-.73-1.42-.68-1.92-.32-.99.76-1.43,2.93-1.43,2.93-1.19,4.34.54,6.53,1.37,11.48"/>
  <path class="cls-1" d="M199.72,111.43l-.23.23c.11,0,.2-.06.23-.23"/>
  <path class="cls-1" d="M198.33,168.11s.03.04.05.06c-.02-.04-.03-.05-.05-.06"/>
  <path class="cls-1" d="M191.89,120.11h0s-.04-.05-.06-.07l.06.07Z"/>
  <path class="cls-1" d="M192.49,108.77c-.25,2.98-1.34,3.77-.89,6.85-.09,1.47.16,3.04.29,4.47.85.69,0,1.89.7,2.7l-.48.31c.24.28.4.61.14.89l-.14-.02c.36.42.14.89.32,1.09l-.14-.02.06.5-.2-.09c.38.73.39,1.48.21,2.13l.58-.05c-.67,1.4.53,1.93-.26,3.19l-.14-.02c1.51,1.63-1.09,2.52.33,4.2-.18-.21-.3.08-.44.06.15.77.22,1.58,1.36,1.62-.03.56-.37.45-.81.51.5,0,.69.5.71.93l-.19-.2.14,1.25.95-.22c-.29.65-1.16.14-.94.78h.78c-.18.92-1.38,1.42-1.97,2.29-.44,3.65,1.41,7.67-.1,11.03l-.59.13c-.86.03,1.23.99.43,1.09l.37.41c-.16.1-.33.33-.52.13-.05.37.09.38.34.66l-.55.37c-.48,1.43.5,2.71.21,4.22-1.18,1.77-.35,5.26.11,7.28,1.13,2.87-2.49,5.9-1.22,8.84-.13.08.13.34.23.35l-.3,2.6s-.31,3.15.34,5.18c.66,2.02,2.29,2.93,6.19-1.64l.18.08c.56-1.4.73-2.31-.14-3.36,1.16-.08.2-1.17.6-1.48l.09.04c-.82-.94.86-1.76.13-2.66.09.04.4.08.41.27-.1-.63-.31-1.49.36-1.49-.08-1.49.36-3.53-.65-4.53l.18.08c-.69-.58-.07-.7-.4-1.33.09-.03.14-.07.17-.06-.68-.63-.01-1.72-.29-2.21h.45s-.04-1.18-.04-1.18l-.12.43c-1.21-.22.82-.84.07-1.73.19-.79-2.46-1.74-1.82-2.53-.55-.42.91.39.5-.22.64.01.39.29.9.17-.27-.59.7-.91.3-1.64h.5c-.86-.98.73-1.73-.1-2.38-.37-.97,1.5-.58.57-1.61l.69-.36c.13-.42-.81-.34-.46-.8.42.05.36-.58.75-.29.71-1.04-.86-2.21.32-3.58-.81-.34-.29-1.03-.9-1.28.36-.03.11-1.42.86-.6.06.07.05.19-.09.18l.48.11c.96-.77-.46-1.48-.29-2.27-.17.23-.14.55-.47.32l.09-.74.41.17.28-1.09-.51.14c.28-.53,1.15-.7.45-1.33-.39-.29-.7.49-.84-.08.37-.71.92-1.77,1.1-2.69-.58.07-.55-.18-.66-.44h.5c-.67-1.01,1.1-.34.58-1.33l.34.09-1.03-.28c-.96-.9,1.04-.45-.28-1.45.08.39-1.1.16-.87-.31l.48.13c-.09-.26-.29-.35-.19-.53.26.16.7.1.62-.29l.6.27-.87-.75c.53-.55-.1-1.45.58-1.67,0,0,.36-1.2-.38-1.49.46.25.65-.41,1.18-.21-.52-.32-.92-1.25-.37-1.61l.06.07c.59-1.36-.74-2.35-.04-3.57-.58.05-.26-.6-1-.45-.71-1.28,1.52-2.3-.75-2.78-.12-.58.54-.68.66-.98l.12.14c-.18-1.08-.2-1.4-.14-2.2-.22-.4-1.28-.47-1.02-1.19.42.23.34-.06.34-.33.07.17.22.23.5-.13-.13-.05-.21-.13-.28-.2.03,0,.06-.02.1,0-.15-.45-.28-.37-.34-.16-.07-.01-.15,0-.26.07.55-.46-.03-1.3.69-1.35-.17-1.35-.91-2.32-1.2-3.43.37-.13.7.13.85.46l-.14-.8c.54,0,.31.46.42.7.86-.95-.87-1.95-.08-3.07l-.42-.23.07-.07c-.22,0-.53-.24-.6-.41.47-.16,1.08,0,1.05-.55.45-.44-.23-1.24-.49-1.8-.07.31-.34.21-.5.08-.02-.27.45-.44.24-.65l.63-.03c-.59.12-.65-.71-.91-.81.47-.16.41.42.76.49l-.1-1.65c-.48-.58-.59.11-1.15-.16-.13-.52-.57-1.02-.2-1.62l-.56.2c-.45-.97-.39-1.55.16-2.22-2.34-3.59-3.9-3.93-4.88-3.39-.98.54-1.37,1.97-1.37,1.97-1.18,2.86.46,4.3.93,7.68"/>
  <path class="cls-1" d="M198.21,64.9l-.23.05c.11,0,.2-.02.23-.05"/>
  <path class="cls-1" d="M198.83,75.29s.03,0,.05,0c-.02,0-.03,0-.05,0"/>
  <path class="cls-1" d="M190.46,66.93h0s-.04,0-.06,0h.06Z"/>
  <path class="cls-1" d="M190.99,64.82c-.25.56-1.33.77-.86,1.31-.07.27.19.55.33.8.85.08.03.35.75.45l-.47.08c.24.04.41.09.15.15h-.14c.37.06.16.16.34.19h-.14s.07.09.07.09h-.2c.39.11.42.24.25.37l.58-.04c-.63.29.57.32-.18.6h-.14c1.54.22-1.02.53.45.75-.18-.03-.3.03-.44.04.17.13.27.27,1.41.22-.01.1-.35.1-.79.14.5-.03.71.05.75.13l-.2-.03.18.22.94-.09c-.26.13-1.15.09-.91.19l.78-.04c-.15.18-1.32.34-1.89.53-.3.69,1.73,1.31.39,2.01l-.59.06c-.86.05,1.28.11.49.17l.39.05c-.15.03-.31.08-.51.05-.03.07.11.06.37.1l-.53.1c-.4.29.64.46.45.75-1.07.39-.04.97.56,1.31,1.31.45-2.07,1.21-.58,1.66-.12.02.16.06.25.05l-.1.48s-.21,2.34,6.8.26h.19c.44-.28.53-.45-.42-.59,1.15-.08.11-.22.48-.3h.09c-.89-.12.72-.36-.08-.48.09,0,.41,0,.43.03-.15-.11-.42-.25.25-.29-.19-.26.1-.66-.98-.78h.19c-.73-.06-.11-.12-.49-.21.09,0,.13-.02.17-.02-.72-.08-.13-.31-.44-.38l.45-.03-.11-.21-.09.08c-1.23.03.76-.2-.04-.32.15-.15-2.56-.17-1.97-.35-.58-.04.93.02.49-.07.64-.03.4.03.91-.02-.31-.09.64-.21.21-.32l.5-.03c-.92-.13.64-.35-.24-.42-.42-.15,1.47-.19.49-.32l.67-.11c.1-.08-.83-.01-.51-.12.42-.01.33-.13.74-.09.65-.23-.96-.35.15-.67-.83-.01-.34-.17-.96-.18.36-.03.05-.26.83-.16.07,0,.05.03-.09.04h.49c.92-.2-.52-.25-.39-.4-.16.05-.11.11-.45.09l.06-.14h.41s.23-.21.23-.21l-.51.05c.26-.11,1.12-.19.39-.26-.4-.03-.68.13-.85.03.34-.15.85-.38,1-.55-.57.05-.55,0-.67-.04l.5-.03c-.7-.14,1.09-.12.53-.27h.35s-1.04,0-1.04,0c-.99-.11,1.03-.14-.33-.25.09.07-1.09.09-.88,0h.48c-.1-.05-.31-.05-.21-.09.26.01.7-.02.61-.09h.6s-.89-.07-.89-.07c.51-.13-.14-.26.53-.34,0,0,.32-.24-.42-.25.46.02.63-.11,1.17-.11-.52-.03-.96-.18-.41-.27h.06c.55-.27-.8-.38-.12-.64-.58.04-.27-.09-1.01-.02-.74-.19,1.48-.51-.81-.46-.13-.1.53-.16.64-.22l.12.02c-.2-.19-.22-.25-.18-.4-.23-.06-1.28-.01-1.04-.16.42.02.34-.03.34-.08.07.03.22.03.5-.05-.13,0-.21-.01-.28-.02.03,0,.06,0,.1,0-.15-.07-.28-.05-.34-.01-.07,0-.15.01-.26.03.54-.12-.05-.24.67-.29-.18-.24-.94-.37-1.23-.56.37-.04.7-.02.85.04l-.14-.14c.53-.03.31.07.42.11.86-.22-.88-.31-.1-.56l-.42-.02.07-.02c-.22.01-.53-.01-.6-.04.46-.06,1.08-.06,1.04-.16.45-.11-.24-.21-.49-.3-.08.06-.34.06-.5.04-.02-.05.45-.11.24-.13l.63-.04c-.59.06-.65-.09-.9-.1.46-.06.41.05.76.05-.07-.2-.03-.1-.1-.3-.48-.08-.59.05-1.15.04-.13-.09-.57-.16-.2-.29l-.56.07c-.44-.15-.38-.26.17-.42-4.62-1.06-6.23.1-6.23.1-1.21.59.43.76.9,1.36"/>
  <path class="cls-1" d="M23.86,37.43c0,.09.02.19.04.28.06-.1.06-.2-.04-.28"/>
  <path class="cls-1" d="M48.16,25.77s-.07.03-.09.05c.07-.02.09-.04.09-.05"/>
  <path class="cls-1" d="M36.69,46.11h-.02s-.07.03-.1.05l.12-.05Z"/>
  <path class="cls-1" d="M15.82,36.92c.19,4.62,2.56,7.07,5.32,8.15.71.28,1.47.47,2.29.6.41.07.84.12,1.26.16.23.03.47.06.72.09.97.11,2.06.17,3.42.13,2.57.24,5.33.1,7.84.06,1.22-.81,3.3.09,4.73-.6l.54.49c.49-.23,1.06-.39,1.55-.12l-.03.14c.73-.36,1.55-.13,1.91-.31l-.03.14.88-.06-.15.2c1.27-.37,2.57-.41,3.72-.24l-.1-.58c2.46.62,3.34-.58,5.57.13l-.03.14c2.75-1.59,4.47.92,7.3-.66-.35.2.17.29.14.43,1.32-.23,2.74-.39,2.7-1.53.97-.03.8.32.96.75-.03-.5.79-.76,1.54-.83l-.34.21,2.15-.3-.49-.91c1.16.19.37,1.13,1.45.82l-.07-.78c.1,0,.2.01.3.02.13.01.26.02.39.04.26.03.51.07.76.13.5.1,1.01.25,1.55.4,1.08.29,2.3.61,3.81.75l1-.07.5-.04c.15-.03.4.04.35-.19.05-.66.11-1.33.17-2,.1-1.34.17-2.69.19-4.05,0-.68,0-1.35-.01-2.03l-.02-.42-.02-.31-.05-.62c-.07-.83-.16-1.66-.25-2.48-.1-.82-.2-1.64-.3-2.45-.1-.85-.19-1.69-.29-2.52-.14-1.2-.24-2.41-.61-3.5-.35-1.09-.92-2.11-1.75-2.91-.19-.18-.38-.34-.58-.5,0-.23-.02-.46-.04-.69.16-.41-.66-.45-1.48-.32-.82.1-1.6.39-1.68,0l-1.18.28c-.27-.18-.93-.41-.35-.55-.58-.08-.63-.04-.81.01-.15.05-.28.15-.53.26l-.69-.57c-2.62-.53-4.84.51-7.51.36-3.28-1.03-9.17.28-12.49.91-2.35.69-4.89.13-7.39-.5-2.51-.63-4.96-1.32-7.4-.87-.14-.13-.57.08-.58.18-1.44-.22-2.87-.46-4.29-.74,0,0-1.3-.21-3.01-.48-1.71-.25-3.84-.53-5.53-.54-1.69,0-2.97.28-2.96,1.29.03.99,1.31,2.78,5.1,5.42l-.15.16c2.39.97,3.97,1.36,5.85.71.09,1.19,2.04.43,2.57.88l-.07.08c1.64-.67,3.09,1.14,4.66.49-.07.08-.13.4-.47.38,1.1-.04,2.61-.17,2.64.5,2.61.04,6.27.47,7.95-.61l-.11.19c.95-.71,1.23-.11,2.28-.48.06.09.13.13.12.17,1.01-.73,2.98-.17,3.79-.51l.07.44,2.01-.18-.75-.07c.21-1.23,1.55.71,2.97-.14,1.36.1,2.64-2.65,4.07-2.09.65-.59-.56.95.42.48.05.64-.45.41-.18.92.97-.33,1.61.61,2.8.17l.05.5c1.56-.93,2.91.65,3.94-.18,1.6-.36.99,1.51,2.67.62.16.24.16.46.22.69.19.12.4-.8.61-.45-.17.41.16.37-.17.74.02.17.07.22.17.24.16.03.43.03.56.2.07.08.1.19.06.32-.02.06-.05.13-.11.2-.03.03-.06.06-.1.1-.04.03-.08.05-.12.19.87.41.47,1.6,1.11,1.92-.35.08.05,2.3-.78,1.05-.07-.11-.07-.3.07-.29l-.5-.13c-.86,1.31.6,2.3.46,3.59.16-.38.12-.88.45-.55l-.07,1.19-.41-.25-.07.44c-.01.06-.02.17-.03.2l-.03.04c-.04.05-.08.1-.12.15.17.03.34.05.51.06-.13.1-.42.07-.58.06-.16,0-.2-.02.15.29.38.38.68.15.82.55-.09.05-.19.09-.3.12-.05.01-.1.02-.16.03-.08-.03-.19-.08-.27-.12-.36-.17-.6-.32-.75-.38.26.56.16.54.07.67l-.14-.49c-.04.17-.1.2-.14.14-.02-.03-.04-.08-.05-.14l-.13-.2c-.17-.28-.34-.58-1.13-.25l.12-.36-.36,1.07c-1.41,1.08-.86-.98-2.41.46.64-.12.37,1.08-.44.91l.18-.49c-.43.13-.57.34-.87.25.25-.27.1-.7-.54-.59l.4-.62-1.18.95c-.97-.46-2.44.25-2.86-.42,0,0-2.05-.24-2.49.51.39-.47-.73-.61-.43-1.17-.51.54-2.06,1.02-2.69.47l.12-.07c-2.31-.51-3.93.86-6.01.18.1.58-1,.27-.72,1-2.15.74-3.9-1.51-4.7.77-.98.12-1.15-.55-1.66-.68l.24-.12c-1.83.16-2.37.17-3.72.08-.68.2-.82,1.26-2.04.97.41-.41-.09-.35-.55-.36.29-.06.39-.21-.2-.51-.09.13-.22.2-.35.27,0-.03-.03-.06-.01-.1-.77.12-.64.26-.29.33-.02.06,0,.15.11.27-.77-.57-2.2-.05-2.27-.78-2.29.07-3.96.72-5.89.89-.19-.39.27-.68.83-.8l-1.36.05c.05-.54.79-.25,1.21-.34-.78-.48-1.61-.32-2.49-.15l-.33.06-.17.03-.09.03c-.12.04-.22.07-.34.08-.22.02-.46-.05-.57-.29-.12.12-.26.24-.4.35l-.02-.08c-.11.21-.53.41-.73.38.2-.49.71-.91.4-1.16.08-.29-.06-.41-.27-.56-.2-.14-.46-.33-.61-.56-.05.29-.31.3-.49.2-.02-.14.08-.28.16-.39.08-.13.14-.15.02-.36l.62-.1c-.58.24-.75-1.17-1.02-1.32.44-.31.46.69.83.78-.23-1.88-.11-.94-.34-2.81-.56-.96-.58.24-1.17-.2-.2-.88-.72-1.7-.43-2.75l-.53.37c-.58-1.63-.61-2.63-.14-3.8-5.65-12-6.43-2.06-6.43-2.06-.4,2.5-.13,4.34.35,6.28.24.97.54,1.96.83,3.08.15.56.3,1.14.43,1.77.07.31.13.64.2.97.03.17.06.34.1.51.04.3.09.62.13.93"/>
  <path class="cls-1" d="M107.69,25.91l-.26-.11c.06.09.14.15.26.11"/>
  <path class="cls-1" d="M124.18,34.49s-.03-.02-.06-.03c.02.02.04.03.06.03"/>
  <path class="cls-1" d="M96.44,28.14s0-.02,0-.02c-.01-.03-.01-.06-.03-.09l.03.11Z"/>
  <path class="cls-1" d="M107.27,18.26c-1.83.48-3.09.74-4.31,1.25-1.2.49-2.46,1.19-3.73,3-1.45,1.54-2.33,3.71-2.78,5.62.24.57.12,1.17-.05,1.79-.13.62-.26,1.29.04,1.84l-.5.37c.22.38.34.8.1,1.16l-.14-.02c.38.54.16,1.15.38,1.4h-.14s.13.63.13.63l-.21-.09c.23.45.41.9.53,1.34.11.45.17.89.21,1.32l.54-.22c-.09.94.28,1.48.6,1.97.35.49.66.93.72,1.83l-.13.05c1.17.52,1.39,1.26,1.7,2.09.17.4.35.81.65,1.16.32.33.77.59,1.4.67-.32-.04-.11.31-.21.4.87.51,1.76.97,2.38.02.53.35.25.58.1,1,.26-.43.84-.32,1.27-.13l-.29.07c.44.17.87.32,1.31.46l.17-.96c.51.54-.32,1.12.39,1.19l.3-.72c.81.51.88,1.81,1.6,2.67,1.84.81,4.1.96,6.34.8,2.28-.17,4.41-.59,6.79-.93l.43.44c.22.37.4-.07.54-.51.15-.43.24-.91.52-.61l.23-.61c.21.05.56,0,.45.31.42-.25.34-.39.46-.8l.75.09c.87-.48,1.4-1.25,1.81-2.04.41-.8.72-1.62,1.28-2.4,1.03-.74,1.76-2.34,1.96-4.04.22-1.7-.08-3.45-.47-4.64-.75-1.66-.63-3.39-.89-5.32-.24-1.88-.94-3.85-2.61-4.68.02-.16-.38-.2-.45-.13-.64-.8-1.35-1.53-2.1-2.22,0,0-.69-.62-1.73-1.23-1.03-.62-2.43-1.19-3.6-1.25-1.18-.08-2.07.29-2.22,1.26-.2.99.46,2.52,1.23,5.03l-.14.13c.74.96,1.15,1.42,2.36,1.21-.66.94.6.7.53,1.16l-.08.05c.56-.08.65.33.73.7.05.4.1.75.59.78-.09.03-.35.21-.44.1.37.27.92.66.35,1.03.7.81.86,2.12,2.01,2.54h-.19c.81.23.19.45.62.81-.08.03-.12.07-.16.07.39.16.41.49.41.79-.03.3-.12.59.03.78h-.45s0,.83,0,.83l.13-.3c.59.13.4.29.11.47-.3.18-.62.38-.33.78-.17.25.39.73.79,1.24.43.51.77,1.08.33,1.28.36.56-.71-.67-.53-.03-.58-.28-.26-.38-.77-.5.08.56-.91.31-.82.99l-.43-.26c.18.52-.14.72-.46.8-.31.11-.59.17-.44.61-.22.79-1.28-.83-1.15.33-.2-.13-.39-.28-.58-.43-.26.03.29.8-.12.67-.2-.38-.47-.15-.51-.58-.39-.16-.53.13-.76.41-.24.26-.62.48-1.1-.03-.08.84-.58.39-.71,1.01-.03-.35-.97-.07-.42-.84.05-.06.12-.05.12.09l.06-.49c-.44-.92-.93.47-1.51.25.14.18.37.17.18.49-.17-.05-.35-.09-.52-.15l.18-.38c-.24-.12-.49-.25-.73-.39v.52c-.35-.34-.25-1.21-.89-.64-.32.33.21.77-.27.8-.47-.49-1.12-1.26-1.76-1.67-.14.56-.32.47-.56.5l.16-.47c-.98.34.16-1.11-.71-.9l.2-.29-.61.87c-1.03.59.16-1.06-1.08-.21.28.06-.42,1.03-.63.65l.32-.37c-.22,0-.38.13-.43-.03.23-.16.42-.56.15-.63l.47-.41c-.29.17-.59.32-.89.47-.02-.62-.83-.5-.47-1.09-.02,0-.22-.7-.9-.35.44-.19.34-.59.83-.84-.49.2-1.2-.02-.81-.51h.07c.03-.46-.25-.67-.57-.91-.28-.25-.58-.53-.33-.99-.55.19-.36-.29-1.05-.02-.43-.35-.16-.83,0-1.16.13-.34.12-.56-1.02-.69-.14-.43.52-.5.66-.7l.11.1c-.15-.74-.12-.97.02-1.49-.15-.3-1.19-.62-.78-1.07.35.28.34.06.41-.12.02.14.16.21.51.08-.11-.08-.17-.15-.22-.22.03,0,.06,0,.1.03-.04-.35-.17-.35-.28-.23-.06-.03-.14-.05-.26-.05.63-.11.35-.88,1.02-.58.26-.85.1-1.83.52-2.68.33.2.41.57.37.84.08-.18.19-.34.31-.5.37.4-.04.43-.06.64.53.06.61-.29.73-.7.14-.38.31-.84.88-.7l-.08-.45.08.03c-.12-.19-.12-.56-.03-.68.33.35.52.95.85.74.46.25.7-.57,1.04-.95-.25,0-.27-.27-.22-.46.21-.08.46.33.56.08l.2.6c-.25-.56.35-.76.38-1.02.22.43-.23.46-.19.81.78-.22.38-.16,1.18-.32.38-.53-.16-.58-.02-1.16.4-.2.82-.63,1.33-.28l-.17-.56c.43-.21.79-.29,1.1-.25.31.07.57.26.81.58,1.74-.89,3.11-1.27,3.94-1.78.83-.5,1.04-1.09,1.05-1.64-.09-.58-.55-1.18-1.02-1.61-.47-.4-.93-.65-.93-.65-1.76-1.15-3.4-1.2-4.96-.9-1.57.35-3.1,1.04-5.08,1.9"/>
  <path class="cls-1" d="M155.91,33.26l-.22.1c.1-.03.19-.07.22-.1"/>
  <path class="cls-1" d="M158.32,30.79s-.01.03-.02.05c.01-.02.02-.03.02-.05"/>
  <path class="cls-1" d="M151.73,40.48h0s-.05,0-.07.01h.08Z"/>
  <path class="cls-1" d="M148.65,33.53c-.03.96-.21,1.64-.24,2.34-.03.7.08,1.45.87,2.3.5.97,1.5,1.73,2.44,2.3.47-.17.74.02,1.04.23.3.19.63.4,1.03.21v.52c.3-.14.56-.21.66.1l-.06.13c.4-.23.65.05.84-.09l-.05.13.36.03-.1.18c.58-.27,1.06-.21,1.48-.02v-.58c.43.36.76.22,1.03.08.29-.13.53-.26.97.07v.14c.39-.82.76-.65,1.23-.5.44.15.98.27,1.15-.61-.04.22.17.25.22.38.38-.34.78-.69.2-1.67.27-.14.4.17.68.52-.27-.42-.15-.75.03-.91l.02.22c.17-.17.31-.38.46-.58l-.71-.64c.43,0,.82.82.93.41l-.54-.57c.43-.21,1.51.38,2.34.23.91-.94,1.07-2.4.98-3.56-.07-1.21-.26-2.15.23-3.27l.56-.21c.83-.24-1.37-.28-.62-.54l-.45-.12c.13-.11.24-.29.46-.24-.04-.22-.17-.19-.47-.25.14-.13.28-.27.41-.41.02-.5-.31-.84-.67-1.12-.37-.28-.76-.52-.97-.95.1-.79-.55-1.5-1.38-1.89-.86-.41-1.84-.43-2.49-.37-.98.33-1.59-.34-2.5-.9-.86-.56-2-.92-2.68,0-.09-.1-.16.2-.13.29-.5.1-1.01.24-1.5.42,0,0-.45.18-.95.58-.5.39-1.01,1.05-1.13,1.74-.12.71.17,1.36.99,1.89.79.56,2.17.96,3.54,2.17l.11.16c.43.25.48.34.24-.59.48,1.05.21.04.4.37l.03.09c-.08-.44.06-.3.16-.11.11.18.19.36.19-.03.01.09.06.4.04.42.04-.15.14-.43.19.25.17-.18.25.12.58-.89l-.05.18c.24-.69.11-.08.29-.41-.02.08-.03.13-.04.16.32-.65.27-.02.45-.26l-.2.4c.05,0,.12-.03.18-.02,0-.04,0-.08,0-.11.32-.53.26-.33.16-.1-.1.24-.24.48.04.21-.01.1.45-.36.92-.71.46-.35.95-.61.81-.32.5-.29-.77.53-.33.37-.49.41-.34.21-.71.56.31-.09-.4.53.01.38l-.41.28c.42-.19.33-.02.21.11-.12.14-.25.25.16.12.45.01-1.32.63-.38.43-.21.09-.42.17-.62.25-.09.07.8-.19.5-.05-.41.1-.31.14-.71.21-.31.11-.09.09.11.12.18.02.31.11-.26.14.82.04.34.08.95.16-.36-.03-.07.12-.84-.06-.06-.01-.05-.02.09,0l-.48-.07c-.29-.04-.16-.02-.15-.02.02,0,.04,0,.08.01.14.02.52.14.42.12.16.05.12.01.44.12l-.08.02-.39-.14-.11-.03s.02,0,.02,0h0s.1.04.1.04l.24.1c-.07-.03-.16-.07-.26-.11-.07-.03-.06-.03-.05-.02h.01s.03.02.12.07c-.08-.04.15.08.27.14.13.07.23.11.29.16-.17-.07-.35-.17-.52-.27-.08-.05-.16-.11-.22-.16-.03-.02-.05-.04-.07-.06.18.16.26.23.31.28.06.06.07.08.11.12l-.36-.34c.24.25.04.06-.15-.15-.05-.05-.05-.05-.1-.11h0s-.01,0-.01,0l.33.4c.57.82-.61-.82.12.3-.02-.09.64.89.46.75l-.25-.41c.03.1.13.28.06.21-.12-.23-.36-.6-.34-.52l-.29-.52c.14.26.27.52.39.79-.27-.43-.09.18-.37-.43,0,.01-.18-.29,0,.43-.11-.45-.21-.6-.33-1.13.14.49.13.94.02.39v-.06c-.08-.29-.06-.07-.08.09-.01.18-.07.35-.06,0-.04.58-.05.26-.12,1-.11.35-.12-.03-.11-.21.01-.19.02-.17-.37.91-.12.09.11-.54.13-.65l.05-.11c-.15.16-.17.14-.2.08-.13.17-.75,1.04-.7.77.29-.32.2-.27.18-.3.06-.03.15-.16.31-.4-.09.1-.15.15-.19.2.02-.03.04-.04.07-.08-.13.08-.22.18-.24.24-.04.05-.1.11-.17.2.32-.44-.17-.11.35-.61-.22.02-.92.31-1.3.22.32-.2.64-.31.78-.34-.06-.01-.13-.03-.18-.05.48-.24.31-.08.42-.11.34-.26.14-.2-.1-.18-.24.03-.49,0-.15-.2l-.42.09.06-.03c-.22.07-.52.1-.6.08.44-.15,1.04-.28.99-.35.42-.15-.25-.13-.52-.22-.07.06-.33.08-.5.07-.03-.06.44-.13.24-.16l.63-.05c-.59.07-.65-.09-.91-.11.46-.04.41.08.76.07-.08-.18-.03-.09-.09-.28-.47-.14-.59-.02-1.14-.11-.11-.13-.53-.33-.13-.43l-.56-.04c-.37-.36-.25-.57.35-.58-.91-.84-1.5-1.69-2.07-2.27-.57-.59-1.14-.88-1.61-1.06-.51-.12-.98-.01-1.32.13-.34.15-.54.34-.54.34-1,.66-1.12,1.54-.97,2.37.18.86.61,1.7.93,2.76"/>
  <path class="cls-1" d="M187.65,30.24l-.12-.2c.05.1.09.17.12.2"/>
  <path class="cls-1" d="M189.38,32s-.03,0-.05,0c.02,0,.04,0,.05,0"/>
  <path class="cls-1" d="M180.19,26.75h0s-.02-.05-.03-.07l.02.07Z"/>
  <path class="cls-1" d="M186.35,23.11c-.91.08-1.58-.02-2.25.03-.66.05-1.35.23-2.04,1.07-.85.56-1.44,1.58-1.86,2.53.23.44.06.69-.09,1.01-.16.31-.35.62-.09,1.02l-.52.06c.17.27.27.52-.04.66l-.13-.05c.29.38.03.66.19.84l-.14-.03v.37s-.18-.08-.18-.08c.35.55.35,1.05.22,1.5l.58-.08c-.28.47-.11.79.08,1.04.19.26.34.49.1.97l-.14.03c.88.23.77.61.7,1.08-.09.46-.09.97.77.97-.22,0-.22.21-.34.28.41.27.77.59,1.64-.16.18.22-.11.41-.41.74.37-.34.69-.29.86-.16l-.21.06c.19.12.4.21.59.31l.52-.79c.05.4-.68.93-.29.96l.48-.62c.24.36-.22,1.51,0,2.28.92.7,2.29.7,3.47.48,1.22-.21,2.14-.58,3.35-.33l.32.5c.19.39.22.03.22-.33,0-.36-.03-.72.19-.39l.02-.46c.13.11.34.17.33.4.21-.09.14-.22.14-.52l.5.31c.49-.09.75-.49.92-.91.19-.42.31-.85.67-1.15.78-.1,1.31-.88,1.46-1.8.16-.92-.07-1.92-.35-2.55-.62-.91-.24-1.78-.16-2.93.1-1.09-.19-2.36-1.39-2.52.04-.13-.26-.04-.32.03-.37-.41-.79-.78-1.26-1.11,0,0-.43-.3-1.13-.48-.69-.18-1.64-.2-2.32.21-.68.4-.95,1.1-.71,2.03.11.48.32,1.03.49,1.69.17.66.29,1.46.09,2.33l-.04.14c-.03.12-.06.2-.1.29-.04.07.09-.18.36-.55-.62.98-.01.13-.21.46l-.06.07c.3-.33.22-.16.09,0-.12.15-.28.29.04.05-.07.05-.29.22-.34.26.05-.04.15-.1.15-.09,0,0-.02.02-.08.06-.03.02-.07.04-.11.07-.03.02,0,0-.01,0,.06-.04.16-.09.28-.13.06-.02.1-.04.16-.05.02,0,.04,0,.07-.02.06,0,.12-.02.19-.03l-.15.02c.28-.04.37-.04.34-.03-.02,0-.08,0,.1.01-.09,0-.13,0-.17,0,.72.02.11.09.4.16l-.44-.08s.06.05.09.09h.1c.59.16.39.14.15.09-.24-.04-.53-.14-.17.04-.07,0,.47.3.95.66.48.35.84.74.54.66.42.41-.72-.6-.43-.24-.52-.37-.3-.28-.73-.55.18.26-.59-.29-.33.05l-.37-.33c.3.35.13.29-.02.19-.15-.09-.27-.21-.04.15.13.42-.89-1.18-.43-.31-.12-.19-.24-.38-.36-.57-.06-.09.37.73.2.46-.19-.38-.17-.29-.33-.66-.04-.08-.05-.12-.04-.09l.02.04s.03.08.04.12c.06.23.02.08.05.23,0,.05,0,.07,0,.08,0,.08,0,.12.02.38,0-.13-.01-.18-.01-.26,0-.11,0-.12,0-.09,0,0,0,0,0,0h0s0-.1.02-.18c0,.04,0,.03-.02.11v-.06s.03-.09.03-.09h0s0,.02,0,.02c.01-.06.02-.12.04-.16l-.03.09s.02-.07.04-.11c0-.01.01-.03.01-.04.01-.04,0-.02.04-.11-.06.14-.1.26-.14.36-.05.13-.08.24-.13.3.09-.33.32-.82.4-.94-.31.48-.31.46-.39.54l.29-.41c-.21.27-.06.05.12-.18.09-.11.09-.12.19-.24h0s0,0,0,0c0,0,.01-.01,0,.01l-.09.1-.34.39c-.71.69.7-.74-.27.17.08-.04-.77.78-.66.58l.36-.32c-.09.05-.25.18-.19.1.21-.16.53-.46.45-.42l.47-.38c-.23.19-.46.36-.71.53.38-.34-.19-.02.38-.41,0-.01.26-.19-.4.13.34-.17.47-.23.87-.43.06-.03-.3.14-.36.15-.12.04-.01,0,.15-.06h0c-.21.07-.38.11-.55.12-.24,0-.12,0-.43.01-.35-.01.02-.04.18-.02-.01,0-.01,0-.03,0-.05,0-.14-.03-.27-.05-.16-.03-.37-.08-.65-.13-.12-.08.54.08.65.11l.11.04c-.18-.07-.19-.1-.13-.11-.2-.11-1.13-.63-.85-.59.35.24.3.17.31.15.04.05.18.13.42.27-.11-.08-.17-.13-.22-.17.03.02.05.03.09.06-.1-.12-.2-.19-.27-.21-.05-.04-.12-.08-.22-.15.48.28.08-.16.64.31-.06-.19-.45-.85-.43-1.22.23.29.38.59.44.73,0-.06,0-.12.01-.18.3.44.12.28.16.39.29.31.21.13.14-.1-.07-.23-.08-.47.15-.15l-.15-.4.04.06c-.09-.21-.18-.5-.17-.58.21.42.41,1,.47.95.2.4.06-.26.1-.53-.06-.06-.12-.32-.14-.48.05-.03.18.42.17.21l.13.62c-.14-.58-.02-.64-.03-.9.09.46,0,.41.05.75.13-.07.07-.05.2-.11.06-.48-.06-.59-.04-1.15.09-.13.23-.58.34-.18v-.56c.26-.43.47-.32.5.26.68-1.02,1.52-1.68,2.1-2.28.58-.59.85-1.17,1.03-1.63.09-.51-.06-.98-.26-1.32-.19-.35-.42-.52-.42-.52-.83-.95-1.79-1.01-2.62-.74-.86.26-1.63.83-2.58,1.27"/>
  <path class="cls-1" d="M87.14,95.97c.05.08.09.16.24.23,0-.11-.14-.2-.24-.23"/>
  <path class="cls-1" d="M106.66,82.19s-.06.03-.09.05c.06-.02.08-.03.09-.05"/>
  <path class="cls-1" d="M101.13,103.88h-.02s-.07.03-.09.06l.11-.06Z"/>
  <path class="cls-1" d="M79.84,100.56c.08.1.16.19.22.26,1.39,1.5,3,2.15,4.51,2.53.76.19,1.51.29,2.25.37.45.04.57.07.77.11l.58.1c1.54.25,3.12.41,5.61.21,2.41.1,4.98-.14,7.34-.25,1.12-.84,3.09,0,4.42-.7l.51.48c.46-.24.99-.4,1.45-.14l-.03.14c.68-.36,1.45-.14,1.79-.32l-.03.14.83-.06-.14.2c1.19-.38,2.41-.4,3.49-.22l-.09-.58c2.3.66,3.15-.54,5.23.24l-.03.14c2.62-1.52,4.21,1.09,7.06-.48-.35.2.17.29.14.43,1.33-.22,2.78-.45,2.68-1.59.97-.09.83.26,1.01.69-.03-.25.16-.45.45-.61.15-.08.32-.15.5-.21.2-.06.51-.14.76-.19l-.46.27c1.03-.24,2.06-.46,2.98-.83-.35-.22-.69-.45-1-.69,1.51-.17,1.01.98,2.22.2l-.52-.62c.76-.28,1.47-.55,2.09-.94.88-.58,1.66-1.2,2.15-2.53.08-.63.07-1.29.09-1.95v-.98s0-.57,0-.57c-.01-.76-.05-1.53-.11-2.3-.06-.77-.13-1.54-.19-2.31l-.11-1.16-.05-.58-.05-.93c-.07-1.24-.09-2.47-.18-3.63-.12-1.15-.45-2.08-.79-2.86-.17-.39-.51-.84-.93-1.12-.41-.28-.8-.42-1.19-.55-.43-.11-.88-.21-1.32-.34-.47-.1-1.05-.1-1.57-.18-.07-.2-.14-.41-.24-.59.03-.44-.8,0-1.55.44-.76.45-1.4.79-1.58.41-.26.14-.39.29-.6.42-.17-.15-.52-.31-.24-.5-.54-.02-.55.12-.94.38l-.59-.54c-2.13-.45-4.1.42-6.53-.05-2.76-1.41-8.73-1.06-12.05-.62-2.36.5-4.84-.12-7.38-.66-2.53-.54-5.13-1-7.5-.18-.16-.12-.55.17-.55.27-1.46.02-2.92.05-4.39.11,0,0-1.32.06-3.03.29-1.72.22-3.83.63-5.41,1.21l-1.7.63-.34.54c-.54.85-.7,1.71-.67,2.42.03.71.24,1.31.51,1.76.55.91,1.32,1.21,1.64,1.06.15-.1.29-.22.37-.44.07-.22.1-.51.19-.83.08-.32.23-.67.48-.95.24-.28.62-.49.92-.37l-.87.5c.91.43,2.06.86,3.5,1.36l-.09.19c2.33.22,3.76.23,5.28-.82.32,1.14,1.89,0,2.45.36l-.05.1c1.36-.95,2.9.62,4.23-.2-.05.09-.07.41-.38.43.98-.17,2.32-.44,2.4.23,2.34-.2,5.59.18,7.13-.82l-.11.18c.89-.68,1.12-.07,2.09-.38.05.09.11.14.1.18.98-.67,2.74.06,3.51-.19v.45s1.88.05,1.88.05l-.69-.15c.35-1.2,1.34.88,2.76.23,1.24.28,2.85-2.25,4.12-1.51.7-.5-.66.86.34.53-.04.64-.49.35-.3.88.97-.2,1.47.82,2.7.5v.5c1.61-.76,2.9.89,4.01.07,1.64-.37,1.08,1.52,2.84.53l.71.66c.79.07.53-.85.85-.54-.03.43.26.31.06.73.12.32.31.06.68-.17.17-.11.38-.24.5-.15.12.1-.02.41-.3.74.42-.28.5-.21.55-.12.06.09.09.18.4.12-.36.2-.06.79-.84.58-.06,0-.05-.05.09-.09l-.49.12c-.46.24-.34.16-.11.3.22.59.54,1.19.46,1.83.16-.38.12-.89.46-.55l-.08,1.2-.41-.25-.25,1.79.51-.24c-.27.87-1.14,1.18-.42,2.17.4.45.69-.82.84.1-.04.15-.09.3-.14.46-.02.08-.05.16-.07.25-.03.08-.05.19-.08.19-.1.1-.21.18-.3.25-.2.14-.35.2-.47.25.41.25.5.36.53.47.01.04.01.08.02.13l-.46-.37c.18.38-.11.16-.33-.09-.24-.24-.43-.52-.33-.26l-.18-.32c.19.32.36.64.5.97.06.5-.14.27-.23.07-.05-.1-.1-.19-.12-.17-.01.01-.03.05-.04.13-.08.09-.22.22-.36.41.53-.16.42,1.05-.31.93l.11-.5c-.37.15-.48.36-.74.29.2-.29.05-.7-.51-.57l.32-.63c-.32.33-.64.66-.98.98-.86-.44-2.19.25-2.57-.41,0,0-1.86-.29-2.3.45.38-.46-.67-.63-.37-1.18-.48.52-1.98.94-2.58.38l.11-.06c-2.22-.58-3.8.76-5.79.06.09.58-.96.26-.71,1-2.07.72-3.75-1.52-4.51.76-.94.12-1.11-.54-1.59-.66l.22-.12c-1.76.18-2.27.2-3.58.14-.65.22-.76,1.28-1.93,1.02.38-.42-.1-.34-.54-.35.28-.07.37-.22-.21-.51-.08.13-.21.21-.32.28,0-.03-.03-.06-.02-.1-.73.14-.6.28-.27.34-.02.06.01.15.11.26-.75-.55-2.11.03-2.2-.7-2.19.16-3.77.9-5.59,1.17-.2-.37.22-.7.76-.84l-1.3.13c.01-.54.74-.3,1.14-.41-1.54-.88-3.18.85-4.99.04l-.38.42-.11-.07c-.05.22-.3.53-.47.6-.09-.47.12-1.07-.27-1.06-.09-.24-.28-.2-.57-.13-.28.07-.67.15-.94.07.13.24-.1.41-.33.45-.04-.03-.06-.07-.07-.12-.06-.23.12-.53-.1-.55l.53-.44c-.48.5-.79-.17-1.04-.18.4-.33.47.2.81.04-.16-.39-.17-.5-.2-.6-.01-.05-.03-.1-.05-.2-.03-.14-.07-.34-.13-.67-.6-.85-.56.27-1.17-.08-.24-.81-.8-1.55-.56-2.56l-.51.39c-.66-1.5-.73-2.45-.33-3.58-3.13-5.52-4.74-6.02-5.61-5.04-.85.97-.92,3.4-.92,3.4-.27,2.44.09,4.23.68,6.08.29.93.64,1.87.99,2.93.12.42.24.86.36,1.3.15.5.31,1.01.52,1.5.41.99.98,1.95,1.81,2.8"/>
  <path class="cls-1" d="M95.35,106.86l-.18.24c.09-.08.16-.17.18-.24"/>
  <path class="cls-1" d="M121.5,108.1s-.01-.03-.02-.06c0,.02.01.04.02.06"/>
  <path class="cls-1" d="M98.5,115.17s-.02,0-.02,0c-.02.02-.05.04-.07.06l.09-.06Z"/>
  <path class="cls-1" d="M88.41,109.09c.23,1.75.43,2.81.96,3.83.27.5.65.97,1.15,1.35.51.38,1.15.68,2.11.82.85.27,1.87.29,2.83.33.92.11,2.04-.15,3.02-.26.42-.43,1.02-.47,1.68-.5.65-.02,1.35-.05,1.69-.38l.67.38c.12-.38.22-.78.56-.76l.08.12c.03-.59.41-.69.38-.98l.1.12c.06-.13.12-.27.17-.41l.12.22c0-.82.25-1.49.65-2.21l-.56-.31s.1-.06.06-.13c-.03-.06-.06-.12-.08-.18-.03-.06-.06-.12-.09-.18l-.02-.05h0c2.15,1.42-2.93-1.96-2.41-1.61h0s0,0-.01,0c-.05-.05-.01-.01,0,0,.05.06.17.25.27.61.1.37.21.81.33,2.02,0,0,.07.07.3.26v.14c1-1.56,1.68.99,2.72-.49-.13.19.07.3.06.44.49-.18,1.02-.28,1-1.42.36,0,.31.35.37.79-.02-.5.29-.72.58-.75l-.12.2.81-.19-.19-.94c.44.26.14,1.15.55.91l-.03-.78c.6.14.98,1.31,1.58,1.87.58.06,1.17,0,1.76-.14.3-.07.59-.14.89-.23.19-.08.22-.16.36-.23.23-.15.51-.27.75-.29.24-.02.45.06.4.44,0,.05-.02.1-.03.16l-.44.58c-.34.41-.07.12.22-.13.29-.26.59-.47.25-.13.12-.08.24-.16.35-.23-.13.15-.26.32-.43.43-.02.09.1-.01.33-.14-.15.15-.3.29-.46.43-.09.12-.1.18-.06.21.05.06.06-.08.4.41.51.75,1.33,1.45,2.18,1.83.83.37,1.48.46,1.93.58.8.66,2.33.63,3.68.5.69-.08,1.35-.2,1.92-.34.28-.07.55-.14.8-.21.25-.07.48-.12.62-.26.05-.06.1-.11.15-.16.39-.35,1-.68,1.48-1.1.49-.41.96-.77,1.4-1.28.94-.94,1.51-2.72.89-4.42.13-.08-.13-.4-.23-.41l.18-2.25s.02-.56-.08-1.3c-.1-.73-.33-1.63-.78-2.29-.45-.66-1.12-1.06-2.08-.85-.96.2-2.18,1.02-3.88,2.57l-.19-.03c-.42.89-.51,1.41.43,2.02-.58.05-.6.22-.54.41.03.1.09.2.11.29.03.09.02.1-.08.13h-.09c.44.15.25.3.05.36-.2.08-.41.09-.02.33-.09-.04-.4-.16-.42-.2.14.16.37.5-.28.16.12.39-.1.41.64,1.67l-.15-.2c.5.84-.06.23.05.64-.07-.09-.12-.14-.14-.18.04.1.07.17.07.23.03.37-.55-.12-.55.15l-.22-.47-.33.07.18.12c.21.63.04.42-.15.16-.19-.27-.37-.58-.43-.19-.14-.09-.18.54-.34,1.11-.15.57-.42,1.07-.63.75-.26.55.26-.91-.09-.5.07-.63.17-.39.15-.9-.16.14-.27-.04-.28-.19,0-.04,0-.07,0-.1-.02.08-.04.16-.05.23-.02.08-.04.15-.06.23-.08.29-.16.5-.24.65v.02c-.06.08-.1.14-.12.17.06-.07.02-.02.03-.04-.02.02.07-.06.1-.07l.03-.02,1.26-.68h.01s.02-.04.02-.04l.11-.11s.08-.06.1-.11c0-.06.02-.12.02-.17.01-.11.02-.22,0-.32-.03-.19-.13-.32-.36-.33-.29-.31,0-.67.22-1.01.22-.33.34-.65-.23-.71.14-.26.26-.52.37-.78-.13-.41-.75.35-.76-.23.33-.29-.17-.67.29-.77-.09-.32-.29-.53-.53-.69-.4-.21-.89-.24-1.35-.31-.46-.08-.87-.21-1.26-.71-.64.75-1.23.23-1.66.87.07-.37-1.53-.02-.49-.83.09-.07.23-.06.19.08l.22-.5c-.38-.45-.89-.31-1.35-.07-.46.24-.92.57-1.32.51.23.16.61.1.36.44-.32-.01-.46-.03-.61-.05l.09-.42-.72-.22.11.51c-.36-.25-.51-1.12-.88-.38-.17.41.35.67-.01.85-.48-.33-1.19-.84-1.79-.97.07.57-.09.55-.25.68l-.03-.5c-.61.71-.26-1.09-.88-.52l.05-.35-.14,1.04c-.54,1-.34-1.02-.93.34.25-.09.15,1.09-.16.89l.06-.48c-.17.11-.22.31-.33.21.09-.26.03-.7-.21-.61l.15-.61-.45.9c-.38-.5-.94.16-1.11-.52,0,0-.79-.31-.95.44.14-.46-.29-.63-.19-1.17-.19.53-.77.97-1.03.42l.04-.07c-.23-.13-.38-.16-.78-.1-.37.06-.85.2-1.45.45-.59.25-1.35.64-2.1,1.27-.38.32-.7.68-1.02,1.06-.03.04-.1.12-.1.12h-.02s-.05.03-.05.03c-.04.02-.09.03-.12,0,.48.32.19.23.8.67.27.38-.02.28-.17.21-.15-.05-.14-.02.76,1.14.05.31-.49-.34-.61-.42l-.07-.15c0,.05,0,.09-.01.13,0,.03.02.04.03.06.02.03.03.05.03.06,0,.02,0,.02-.02-.01.1.23.39,1.33.16,1.05-.04-.43-.07-.35-.11-.36.02-.07-.02-.22-.06-.51.01.13,0,.21,0,.28,0-.03,0-.06,0-.11-.03.15-.04.28,0,.34,0,.06,0,.15.02.27-.06-.28-.08-.27-.13-.29-.09-.02-.15-.07-.1-.42-.36.13-.97.82-1.62,1.03.17-.36.46-.66.64-.78-.11.03-.22.07-.33.1.34-.5.32-.27.45-.36.11-.43-.11-.23-.41-.07-.29.17-.64.23-.39-.24l-.4.27.05-.07c-.19.18-.49.32-.58.3.4-.39.95-.77.89-.9.38-.39-.26-.18-.54-.28-.06.14-.3.23-.47.25-.03-.11.4-.35.19-.35l.6-.24c-.56.27-.65-.01-.91.02.44-.18.41.04.76-.06-.06-.16-.07-.2-.09-.24,0-.02-.02-.04-.03-.08-.01-.04-.02-.05-.08-.25-.53-.3-.57.17-1.15.08-.18-.31-.67-.56-.36-1.01l-.53.22c-.54-.55-.54-.94-.05-1.45-5.3-3.87-6.3.09-6.3.09-.45,1.02-.23,1.7.2,2.39.22.34.48.69.75,1.08.03.03.07.12.11.23l.12.29c.08.2.16.4.24.6.16.41.3.84.45,1.3"/>
  <path class="cls-1" d="M214.52,80.65c0-.1-.02-.19-.04-.28-.07.12-.08.2.04.28"/>
  <path class="cls-1" d="M176.62,94.42s.08-.02.11-.04c-.08.01-.1.03-.11.04"/>
  <path class="cls-1" d="M198.91,73.69s.02,0,.02,0c.04-.02.08-.04.11-.06l-.14.07Z"/>
  <path class="cls-1" d="M222.2,82.64c-.01-.69-.05-1.33-.09-1.96-.04-.62-.05-1.24-.13-1.8-.07-.56-.1-1.13-.2-1.63-.15-.45-.3-.88-.44-1.3-.12-.46-.32-.77-.54-1.11-.22-.33-.52-.67-.83-.93-.62-.54-1.17-.84-1.92-1.12-.73-.27-1.62-.41-2.61-.38-.98.01-2.01.04-3.12.08-.36.01-.74.03-1.13.05-.3.02-.62.04-.95.06-.66.05-1.38.13-2.16.23-3.02.1-6.22.54-9.16.85-1.34.93-3.87.25-5.47,1.06l-.67-.44c-.55.28-1.21.48-1.8.26l.03-.14c-.83.42-1.8.26-2.21.46l.03-.14-1.03.12.17-.21c-1.46.47-2.99.59-4.35.5l.15.57c-2.92-.47-3.9.79-6.55.18l.03-.14c-3.18,1.71-5.27-.7-8.56,1.01.41-.21-.2-.28-.18-.43-1.55.29-3.21.5-3.15,1.64-1.14.07-.95-.29-1.13-.71.04.5-.93.78-1.81.88l.39-.22-2.53.36.57.9c-1.37-.17-.43-1.12-1.71-.79l.08.78c-1.88,0-3.06-1.11-4.91-1.54-.71.02-1.51.07-2.17.13-.04.02-.65,0-1.19,0l-1.33-.05c-.5-.01-.99-.02-1.48,0-.97.02-1.93.09-2.78.32-.87.21-1.53.62-2.26,1.08-.52.6-.93,1.23-1.23,1.91-.25.71-.43,1.47-.49,2.28-.05.4-.07.8-.07,1.22-.02.41,0,.82,0,1.23,0,.41.02.82.05,1.22l.03.6.03.41c.04.52.08,1.04.12,1.56l.05.82c.03.4.03.79.03,1.19,0,1.64.11,3.07.82,4.36.38.57.8,1.09,1.33,1.46.01.23.02.47.05.71-.18.4.76.52,1.73.43.98-.08,1.89-.28,2,.13.49-.06.97-.14,1.42-.22.16.09.43.2.58.29.07.05.09.09.08.14,0,.04-.06.09-.24.12.93.1.87-.04,1.49-.27l.82.58c1.55.27,2.96.14,4.33,0,.58-.06,1.16-.11,1.75-.17.73.02,1.48.08,2.25.22,3.62,1.5,10.8,1.29,14.92,1.16,5.82-.69,12.2,3.27,18.19,2.23.18.13.7-.1.7-.2l5.37.48s6.52.48,10.6-.15c4.09-.64,5.67-2.23-3.97-6.26l.14-.18c-2.89-.61-4.71-.82-6.78,0-.24-1.17-2.39-.27-3.04-.69l.07-.09c-1.84.77-3.6-.99-5.37-.33.07-.09.13-.4.53-.39-1.26.05-2.98.17-3.02-.5-2.99-.06-7.1-.73-9.11.15l.15-.17c-1.15.62-1.42-.03-2.66.22-.06-.09-.14-.15-.12-.18-1.25.58-3.46-.27-4.44-.07l-.02-.45-2.36-.16.87.19c-.44,1.18-1.7-.96-3.49-.36-1.58-.33-3.53,2.17-5.13,1.39-.86.48.81-.85-.43-.54.04-.64.6-.34.36-.88-1.2.17-1.83-.86-3.31-.59v-.5c-.71.15-1.17.21-1.64.19-.46-.02-.89-.11-1.3-.21-.81-.19-1.53-.38-2.16.04-1.91.34-1.22-1.51-3.17-.65-.28-.24-.33-.48-.39-.71-.19-.13-.41.79-.66.42.19-.4-.2-.39.18-.74-.03-.26-.19-.22-.39-.3-.17-.07-.31-.19-.36-.41-.03-.1-.03-.23.03-.35,0-.02.01-.02.02-.05l.02-.17c.02-.11.04-.22.05-.34.04-.23.1-.46.18-.69-.43-.27-.54-.77-.62-1.21-.07-.17-.1-.32-.41-.46.35,0,.08-.94.84-.14.06.06.05.1-.09.05.16.07.33.14.49.2.4.02.36.02.22-.16-.14-.16-.41-.53-.37-.71.01-.06.05-.08.12-.07-.12-.08-.21-.09-.29-.12-.07-.03-.15-.09-.23-.26v-.02c.15-.04.31-.02.47,0,.05.14.1.28.17.42.21.07.38.16.53.25-.05-.17-.12-.35-.19-.52.18.14.3.43.36.59.05.08.02.13.13.12.23,0,.51-.07.86-.23.65-.37-1.1-.75.18-.84.32.08.78.19,1.44.23,1.45.21,3.1.43,4.61.44-.22-.56.28-.58.79-.73l.1.49c1.92-.84.81,1.04,2.72.34l-.15.36.44-1.08c1.69-1.12,1.03.96,2.89-.54-.77.14-.45-1.07.52-.92l-.21.5c.52-.14.68-.36,1.04-.28-.3.28-.11.71.66.57l-.48.64,1.4-1c1.17.43,2.92-.36,3.44.28,0,0,2.46.14,2.97-.64-.46.5.9.57.55,1.14.6-.57,2.44-1.1,3.23-.6l-.14.07c2.81.4,4.69-1.07,7.22-.53-.15-.57,1.18-.34.81-1.05,2.53-.88,4.79,1.21,5.57-1.12,1.16-.19,1.42.45,2.03.53l-.27.14c2.18-.32,2.82-.38,4.45-.43.8-.27.86-1.34,2.33-1.17-.45.45.15.33.69.3-.34.09-.44.25.29.49.09-.14.24-.23.39-.3,0,.03.04.06.03.1.9-.21.73-.33.31-.36.02-.06-.02-.14-.16-.25.98.49,2.63-.2,2.79.52,2.73-.33,4.64-1.2,6.9-1.62.28.36-.24.72-.89.9l1.61-.23c.02.54-.91.36-1.4.5.49.19.98.21,1.48.15.25-.03.5-.08.75-.14.11-.03.29-.07.34-.09l.17-.09c.43-.25,1.16-.53,1.45-.15.16-.15.32-.3.51-.45l.02.07c.14-.24.69-.55.91-.45-.32.61-.87,1.04-.76,1.48-.19.37-.1.54.06.75.17.2.42.46.56.75.06-.33.32-.3.49-.16.02.19-.09.26-.17.48-.08.2-.13.38-.03.58l-.63.08c.59-.24.69,1.37.94,1.57-.46.31-.41-.83-.77-.95.09,2.13.06,1.06.08,3.19.44,1.16.6-.19,1.14.38.07,1.02.46,2.07-.04,3.21l.59-.32c.24,1.99,0,3.17-.79,4.36.12.95.23,1.79.32,2.54.1.72,0,1.46-.46,2.04-.44.57-1.01.91-1.45,1.18-.45.27-.82.47-1.11.67-1.1.76-.99,1.4-.5,1.91.3.26.78.49,1.51.63.73.12,1.76.16,3-.27,1.24-.4,2.46-1.42,3.03-2.23.3-.39.48-.7.59-.9.11-.2.16-.31.16-.31.45-.87.65-1.5.8-1.92.14-.38.25-.72.36-1.07.21-.69.37-1.36.48-2.02.23-1.31.29-2.58.26-3.87-.07-2.61-.44-5.28-.85-9.08"/>
  <path class="cls-1" d="M136,81.01v.23c.02-.11.02-.2,0-.23"/>
  <path class="cls-1" d="M142.08,81.24s0-.03,0-.05c0,.02,0,.04,0,.05"/>
  <path class="cls-1" d="M136.53,88.89h0s0,.03,0,.06v-.06Z"/>
  <path class="cls-1" d="M135.34,88.2c.31.3.34,1.39.69.96.15.1.34-.15.5-.27.12-.84.21,0,.33-.71v.48c.05-.24.1-.4.11-.14v.14c.05-.36.09-.14.13-.32v.14s.05-.06.05-.06l-.02.2c.1-.38.18-.4.24-.22l.02-.58c.12.66.24-.54.34.23v.14c.24-1.52.21,1.06.47-.39-.03.18,0,.3-.02.44.09-.16.18-.24.24-1.38.06.02.03.36.02.8.03-.5.09-.7.14-.73l-.03.19.14-.16.02-.94c.06.28-.04,1.15.04.92l.04-.78c.09.16.09,1.34.16,1.92.38.35.91-1.62,1.21-.22v.59c-.05.86.15-1.26.13-.47l.06-.39c0,.15.02.32,0,.51.04.04.05-.1.09-.36l.02.53c.13.42.32-.6.47-.38.14,1.1.57.12.81-.45.37-1.26.54,2.16.93.72,0,.12.04-.15.05-.25l.28.14s1.35.4.67-6.75l.02-.19c-.13-.46-.22-.57-.38.37.04-1.15-.12-.13-.14-.5v-.09c-.13.88-.15-.75-.28.04,0-.09.03-.41.05-.42-.07.14-.18.39-.15-.28-.17.17-.37-.15-.53.91l.02-.19c-.09.72-.08.1-.16.47,0-.09,0-.13,0-.17-.1.71-.19.1-.26.4l.02-.44-.13.1.04.1c-.08,1.22-.06-.77-.19.02-.08-.16-.3,2.53-.36,1.93-.07.57.08-.93,0-.49.03-.64.05-.4.06-.91-.08.3-.07-.66-.17-.23l.02-.5c-.15.9-.15-.66-.26.2-.12.4,0-1.48-.15-.51v-.67c-.05-.11-.08.82-.12.5.02-.42-.05-.34,0-.74-.08-.67-.28.93-.38-.2-.07.82-.13.33-.18.95.01-.36-.15-.07-.03-.84.01-.06.02-.05.02.09l.03-.49c-.04-.93-.18.5-.26.35.02.16.05.12.01.46l-.08-.07.04-.41-.11-.25v.51c-.05-.26-.03-1.13-.13-.41-.05.4.02.69-.05.84-.06-.35-.15-.88-.24-1.04-.02.58-.04.55-.08.67l.02-.5c-.14.69.02-1.09-.11-.55l.03-.35-.08,1.04c-.14.98,0-1.03-.17.31.05-.08-.03,1.1-.07.88l.04-.48c-.03.1-.05.3-.07.2.03-.26.04-.7,0-.62l.06-.6-.12.88c-.03-.52-.16.12-.15-.55,0,0-.11-.34-.18.4.05-.46-.01-.64.03-1.18-.06.52-.18.94-.19.38v-.06c-.11-.58-.28.76-.38.07-.02.58-.08.26-.1,1-.17.72-.17-1.51-.34.77-.07.12-.05-.54-.07-.66l.02-.12c-.12.18-.16.2-.24.15-.05.22-.11,1.28-.18,1.02.05-.42.01-.34-.02-.34.02-.07.04-.22.01-.5-.01.13-.02.21-.04.28,0-.03,0-.06,0-.1-.06.15-.05.28-.04.34,0,.07,0,.15,0,.26-.02-.55-.14.03-.11-.69-.15.16-.29.9-.43,1.18,0-.37.05-.7.09-.84l-.09.13c.03-.54.07-.31.1-.41-.06-.87-.25.85-.33.05l-.05.42v-.07c-.02.22-.06.53-.08.6,0-.47.05-1.08,0-1.05-.02-.45-.14.22-.22.47.03.08,0,.34-.02.5-.03.01-.02-.45-.06-.25l.03-.63c-.02.59-.11.64-.13.89,0-.47.07-.4.09-.75-.12.05-.06.03-.18.08-.09.47-.02.6-.08,1.15-.06.12-.14.55-.18.17v.56c-.13.43-.19.36-.24-.21-1.01,4.51-.48,6.21-.48,6.21.24,1.25.49-.37.87-.79"/>
  <path class="cls-1" d="M136.17,90.54l.05.23c-.01-.11-.03-.2-.05-.23"/>
  <path class="cls-1" d="M142.9,90.1s0-.03,0-.05c0,.02,0,.04,0,.05"/>
  <path class="cls-1" d="M138,98.23h0v.06-.06Z"/>
  <path class="cls-1" d="M136.78,97.73c.34.24.54,1.31.8.84.15.07.28-.19.41-.34-.02-.85.19-.03.2-.74l.08.47c0-.25.02-.41.07-.16v.14c.02-.37.09-.15.09-.34v.14s.06-.07.06-.07v.2c.05-.39.12-.42.2-.25l-.05-.58c.2.63.15-.57.34.19v.14c.06-1.54.34,1.02.41-.44,0,.18.03.3.04.44.07-.17.14-.26.08-1.4.06.01.07.35.1.79-.03-.5,0-.71.05-.74v.19s.11-.17.11-.17l-.08-.94c.09.27.08,1.15.14.92l-.04-.78c.11.15.22,1.33.34,1.9.38.32.73-1.69,1.13-.32l.03.59c.02.86.07-1.27.1-.48l.03-.39c.01.15.04.32.02.51.04.03.04-.11.06-.37l.05.53c.15.41.27-.62.43-.41.19,1.09.54.09.76-.49.33-1.28.57,2.15.9.69,0,.12.04-.15.04-.25l.27.13s.32.1.57-.7c.24-.79.47-2.48.1-6.06l.02-.18c-.15-.46-.26-.57-.42.37.03-1.15-.14-.12-.16-.5v-.09c-.13.88-.18-.75-.31.04,0-.09.02-.41.04-.43-.08.14-.19.4-.17-.27-.18.17-.43-.15-.57.92v-.19c-.07.72-.07.11-.15.47,0-.09,0-.13,0-.17-.08.71-.21.11-.27.41v-.44s-.14.1-.14.1l.05.1c-.03,1.23-.1-.77-.21.03-.1-.16-.2,2.54-.29,1.95-.04.57.04-.93-.03-.49,0-.64.03-.4.01-.91-.07.3-.11-.65-.2-.22v-.5c-.11.91-.22-.65-.29.22-.11.41-.1-1.48-.2-.5l-.06-.67c-.05-.11-.02.83-.09.5,0-.42-.08-.34-.05-.74-.15-.66-.24.95-.44-.17-.01.83-.11.34-.12.96-.02-.36-.17-.05-.1-.84,0-.06.02-.05.03.09v-.49c-.13-.92-.17.52-.27.38.03.16.07.12.06.45l-.09-.06v-.41s-.14-.24-.14-.24l.04.51c-.08-.26-.14-1.12-.18-.4-.02.4.09.68.03.84-.1-.34-.26-.86-.38-1,.04.57,0,.55-.02.67l-.03-.5c-.08.7-.1-1.09-.19-.54v-.35s.02,1.04.02,1.04c-.05.99-.12-1.03-.16.32.04-.09.09,1.09.02.88v-.48c-.04.1-.04.3-.06.21,0-.26-.03-.7-.08-.61v-.6s-.04.89-.04.89c-.1-.51-.17.14-.24-.53,0,0-.17-.32-.15.42,0-.46-.1-.63-.11-1.17,0,.52-.08.96-.17.41v-.06c-.21-.55-.22.8-.43.12.05.58-.05.27.03,1-.09.74-.41-1.47-.26.81-.06.13-.13-.52-.18-.64v-.12c-.11.2-.14.22-.24.18-.03.23.07,1.28-.04,1.04-.02-.42-.04-.34-.07-.34.01-.07,0-.22-.07-.5,0,.13,0,.21,0,.28,0-.03,0-.06-.01-.1-.04.16-.01.28.02.34,0,.07.02.15.04.26-.11-.54-.15.05-.23-.67-.14.18-.17.94-.27,1.23-.06-.37-.07-.7-.04-.85l-.08.15c-.06-.53.02-.31.03-.42-.21-.85-.13.89-.35.12l.03.42-.02-.07c.03.22.04.53.03.6-.08-.46-.13-1.07-.19-1.03-.11-.44-.12.24-.15.5.05.07.07.33.07.5-.03.02-.11-.44-.11-.24l-.09-.62c.09.59,0,.65.02.9-.08-.46,0-.41-.04-.75-.12.08-.06.04-.18.11,0,.48.09.59.14,1.14-.04.13-.04.57-.16.21l.1.55c-.05.45-.12.39-.28-.16-.07,2.31.14,3.86.35,4.82.21.97.41,1.36.41,1.36.46,1.18.36-.45.65-.93"/>
  <path class="cls-1" d="M76.57,75.18l-.16.24c.09-.07.16-.15.16-.24"/>
  <path class="cls-1" d="M133.85,75.83s.01-.03.02-.05c-.02.02-.02.04-.02.05"/>
  <path class="cls-1" d="M82.17,84.33s-.01,0-.01,0c-.02.02-.05.03-.07.06l.08-.06Z"/>
  <path class="cls-1" d="M69.04,74.87c.14,1.15.4,3.35.94,4.79.55,1.5,1.41,2.88,3.17,3.85.8.42,1.81.73,3.08.79.38.05.78.09,1.18.11.34.01.68.03,1.02.04.42,0,.84,0,1.26,0,.84-.04,1.67-.08,2.47-.11.79-.81,2.08.08,3-.6l.33.49c.32-.23.68-.38.98-.11l-.02.14c.47-.35.98-.11,1.21-.29l-.02.14.56-.04-.1.2c.81-.36,1.63-.37,2.36-.17l-.04-.58c1.54.69,2.13-.5,3.51.3l-.02.14c1.79-1.49,2.78,1.09,4.63-.34-.23.18.09.3.07.44.84-.15,1.74-.24,1.76-1.38.61.02.49.36.57.8,0-.5.53-.7,1.01-.73l-.22.19,1.37-.17-.27-.94c.72.27.18,1.15.88.92v-.78c.99.15,1.58,1.33,2.56,1.91,4.05.3,8.34-1.78,12.13-.53l.19.58c.1.86.99-1.3,1.16-.52l.42-.41c.13.15.39.3.18.5.41.02.41-.12.69-.39l.46.51c1.61.34,2.92-.73,4.61-.61,2.08.99,5.78-.22,7.99-.96,1.17-.4,2.34-.47,3.55-.66,1.2-.19,2.47-.47,3.56-1.23,1.09-.76,1.85-1.89,2.11-3.14.3-1.25.01-2.79-.53-4.1.1-.18-.23-.61-.33-.59l-.25-2.89s-1.45-13.78-7.15-2.43l-.19-.05c-.25,1.61-.22,2.6.85,3.55-1.12.32.05,1.29-.28,1.7l-.1-.02c.5.39.4,1.06.21,1.13-.17.21-.37.29.06.55-.1-.03-.43-.11-.45-.18.18.21.48.69-.24.37.1.25-.05.5-.21.67-.16.19-.26.39-.25.94l-.05-.18c.05.73-.27.13-.46.51-.03-.09-.06-.13-.07-.17-.04.18-.13.28-.23.34-.15.06-.42.08-.63.08-.45,0-.88-.04-1.13.13l-.06-.44-1.25.18.48.07c-.09,1.23-1-.71-1.86.13-.86-.1-1.6,2.64-2.52,2.08-.39.59.33-.95-.29-.48-.05-.64.28-.42.09-.92-.61.33-1.05-.6-1.8-.13l-.05-.5c-.96.95-1.91-.57-2.54.32-1.02.45-.75-1.44-1.78-.43l-.44-.66c-.46-.09-.3.84-.82.53.02-.42-.65-.32-.37-.73-1.17-.62-2.31,1.02-3.85-.06-.31.83-1.08.36-1.31.99-.05-.36-1.53-.03-.69-.82.07-.07.2-.06.2.08l.09-.49c-.88-.91-1.56.54-2.42.41.26.16.59.11.37.45l-.8-.05.16-.42-1.19-.23.17.51c-.58-.26-.8-1.12-1.44-.39-.29.41.56.68-.05.85-.78-.34-1.94-.85-2.93-1,.1.57-.17.55-.44.67l-.03-.5c-1.05.69-.39-1.09-1.42-.54l.09-.35-.27,1.04c-.94.98-.5-1.04-1.55.31.41-.08.19,1.1-.32.88l.13-.48c-.28.1-.38.3-.56.2.17-.26.09-.7-.32-.62l.28-.6-.79.88c-.6-.52-1.56.11-1.8-.57,0,0-1.29-.35-1.6.39.27-.46-.45-.64-.23-1.18-.34.52-1.34.93-1.73.36l.08-.06c-1.45-.6-2.53.73-3.83,0,.04.58-.64.25-.49.99-1.39.7-2.44-1.57-3.01.69-.63.1-.72-.56-1.03-.69l.15-.11c-1.17.15-1.51.16-2.37.06-.44.2-.55,1.26-1.32.97.27-.41-.05-.35-.34-.36.19-.06.25-.21-.11-.51-.06.13-.15.21-.23.27,0-.03-.01-.06,0-.1-.49.13-.41.26-.19.33-.01.06,0,.15.07.27-.48-.56-1.4-.03-1.43-.76-.36.02-.7.08-1.03.17-.32.08-.69.18-.8.3-.34.22-.75.48-1.2.54.08-.38.39-.66.61-.79-.15.03-.32.05-.48.06.27-.51.37-.24.53-.33-.04-.3-.14-.32-.33-.28-.18.04-.44.13-.65.09-.2-.03-.34-.21-.2-.54-.14.06-.27.11-.41.16l.05-.08c-.19.14-.52.17-.62.1.38-.33.95-.55.85-.78.18-.19.1-.28-.08-.38-.22-.27-.52-.55-.71-.8,0,.32-.28.28-.47.19-.08-.27.35-.53.11-.69l.61-.15c-.56.23-.77-.58-1.04-.64.43-.24.47.35.83.35-.25-1.07-.14-.53-.36-1.61-.55-.52-.58.19-1.16-.02-.19-.51-.69-1-.36-1.65l-.54.25c-.52-.99-.47-1.64.07-2.34-1.16-1.89-2.01-3.11-2.76-3.73-.74-.62-1.38-.63-1.9-.4-.52.27-.92.84-1.18,1.36-.26.51-.38.96-.38.96-.67,1.78-.51,3.19-.09,4.6.44,1.42,1.13,2.85,1.79,4.84"/>
  <path class="cls-1" d="M90.42,133.99l.17.25c0-.11-.03-.2-.17-.25"/>
  <path class="cls-1" d="M140,139.5s.04-.02.05-.05c-.04.02-.05.03-.05.05"/>
  <path class="cls-1" d="M97.26,142.53h-.01s-.04.03-.06.05l.07-.05Z"/>
  <path class="cls-1" d="M87.37,140.94c2.59.52,3.18,1.67,5.92,1.49,1.28.22,2.68.1,3.96.1.68-.78,1.66.16,2.44-.48l.23.5c.27-.22.57-.35.79-.07l-.03.14c.4-.32.79-.07.99-.23l-.03.14.45-.02-.1.19c.68-.32,1.33-.27,1.89-.04v-.58c1.18.78,1.76-.37,2.79.51l-.03.14c1.57-1.37,2.11,1.28,3.72,0-.2.16.04.31.02.44.69-.09,1.41-.1,1.55-1.23.49.07.36.4.37.84.05-.5.5-.66.88-.64l-.2.17,1.11-.05-.11-.96c.55.33.02,1.16.6,1l.08-.78c.78.24,1.12,1.47,1.83,2.13,3.17.7,6.86-.87,9.69.86l.06.6c-.05.86.98-1.16,1-.36l.4-.34c.08.16.27.35.07.52.32.07.34-.06.6-.29l.28.57c1.22.57,2.42-.32,3.73.05,1.47,1.28,4.61.67,6.42.33,2.61-.95,5,2.81,7.69,1.7.07.13.31-.11.32-.21l2.27.44s2.76.47,4.59-.09c1.83-.56,2.75-2.14-.98-6.25l.08-.18c-1.19-.63-1.97-.84-2.97-.02.02-1.16-1.02-.26-1.26-.67l.04-.09c-.89.77-1.48-.95-2.33-.26.04-.09.1-.4.27-.39-.56.07-1.33.23-1.28-.44-1.31,0-3.07-.55-4.03.41l.08-.18c-.57.66-.62.03-1.2.32-.02-.09-.05-.14-.04-.17-.61.64-1.51-.08-1.96.16l.03-.45-1.03-.03.37.15c-.29,1.2-.67-.86-1.51-.17-.67-.24-1.72,2.35-2.37,1.66-.41.52.42-.89-.15-.51.06-.64.29-.37.22-.89-.54.24-.74-.75-1.42-.4l.04-.5c-.92.8-1.45-.84-2.09-.05-.89.31-.38-1.53-1.37-.68l-.26-.71c-.36-.15-.37.79-.74.41.08-.42-.48-.4-.19-.77-.86-.77-2.01.71-3.11-.56-.36.79-.93.23-1.2.82,0-.36-1.24-.21-.45-.9.07-.05.17-.03.15.11l.14-.48c-.59-1-1.34.36-2.02.13.19.18.47.17.24.49l-.64-.14.18-.39-.93-.35.07.52c-.44-.32-.51-1.2-1.12-.54-.29.37.37.73-.15.83-.59-.42-1.48-1.05-2.26-1.29.01.58-.2.53-.44.62l.03-.5c-.93.59-.19-1.12-1.1-.67l.11-.34-.34,1.01c-.87.89-.3-1.07-1.3.17.35-.05.04,1.11-.35.85l.16-.47c-.24.08-.34.27-.48.15.16-.24.15-.69-.2-.64l.29-.57-.73.81c-.43-.57-1.28,0-1.41-.7,0,0-1.02-.45-1.34.26.26-.43-.3-.67-.08-1.19-.33.49-1.18.83-1.45.24l.07-.06c-1.14-.69-2.13.56-3.13-.24-.01.58-.55.21-.48.96-1.19.61-1.87-1.7-2.51.53-.52.07-.54-.59-.79-.74l.13-.11c-.97.09-1.24.08-1.94-.04-.37.19-.53,1.23-1.14.92.24-.4-.02-.35-.26-.37.16-.05.22-.2-.06-.51-.06.13-.13.2-.2.26,0-.03,0-.06,0-.11-.41.11-.35.25-.17.32-.02.06,0,.15.04.27-.35-.58-1.14-.08-1.12-.8-1.2.05-2.12.71-3.13.89-.07-.38.19-.69.49-.8l-.71.07c.06-.53.43-.27.66-.36-.75-.94-1.8.7-2.69-.19l-.24.4-.05-.07c-.02.22-.27.51-.42.56-.09-.48.11-1.07-.37-1.09-.34-.49-1.11.12-1.63.33.26.1.15.35.02.5-.24,0-.34-.48-.54-.3l.04-.63c.04.6-.69.58-.8.83-.09-.48.41-.37.5-.71-.97-.03-.49-.02-1.46-.05-.56.43.04.6-.26,1.13-.47.08-.95.48-1.44.05l.11.57c-.89.36-1.4.25-1.92-.37-6.76,3.97-1.89,6.08-1.89,6.08,2.39,1.45,3.82-.06,6.83-.21"/>
  <path class="cls-1" d="M76.72,146.79l-.24.2c.11,0,.2-.05.24-.2"/>
  <path class="cls-1" d="M106.79,176.68s.04-.03.05-.05c-.04.02-.05.03-.05.05"/>
  <path class="cls-1" d="M68.85,155.42s0-.01,0-.01c-.02-.02-.04-.04-.06-.06l.06.07Z"/>
  <path class="cls-1" d="M69.69,143.61c-.15.88-.3,1.49-.46,2.02-.17.54-.33,1.01-.48,1.49-.29.97-.49,1.95-.29,3.56-.11,1.53.17,3.2.38,4.73.89.68.14,2.03.95,2.83l-.44.39c.27.27.47.6.27.94h-.14c.43.4.29.94.5,1.14h-.14c.05.18.09.36.15.54l-.22-.06c.55.73.71,1.53.73,2.29l.55-.2c-.11.84.16,1.33.42,1.8.29.46.55.9.42,1.72l-.14.03c1.05.59,1.1,1.33,1.16,2.13.12.77.21,1.64,1.36,2.09-.29-.11-.2.25-.33.31.64.68,1.26,1.44,2.2.75.38.5.04.62-.25.96.39-.31.9-.01,1.24.35l-.29-.05c.33.35.74.62,1.11.92l.48-.86c.32.7-.68.95-.01,1.29l.53-.58c.29.42.4.9.47,1.47.07.57.13,1.17.4,1.71,1.71,1.43,3.95,2.09,5.99,2.54,2.06.46,3.97.78,5.62,1.8l.05.61c-.09.86,1.22-1.07,1.21-.27l.48-.32c.09.17.31.37.07.53.38.09.41-.04.72-.26l.33.59c1.44.62,2.82-.25,4.31.11,1.7,1.27,5.21.61,7.27.16,1.45-.55,2.93.08,4.51.61,1.56.53,3.22,1.01,4.71.17.11.11.34-.17.33-.27.93-.04,1.86-.08,2.81-.17,0,0,.21-.03.56-.07.35-.06.84-.16,1.39-.3.55-.14,1.16-.35,1.74-.59.58-.26,1.15-.56,1.6-.9.91-.72,1.37-1.53.88-2.39-.48-.88-1.91-1.71-4.4-2.96l.02-.19c-.67-.08-1.19-.12-1.65-.01-.45.12-.83.39-1.22.91-.28-1.12-1.07.02-1.42-.34l.02-.1c-.72.96-1.67-.62-2.39.21.03-.09.03-.41.21-.43-.55.16-1.32.44-1.37-.23-1.34.19-3.22-.18-4.16.84l.07-.18c-.54.7-.66.07-1.25.4-.03-.09-.06-.14-.05-.17-.6.68-1.64,0-2.11.26v-.45s-1.12,0-1.12,0l.41.13c-.25,1.21-.78-.84-1.66-.13-.75-.23-1.8,2.38-2.54,1.71-.44.53.43-.89-.18-.51.05-.64.3-.37.21-.89-.59.25-.84-.74-1.56-.39l.03-.5c-.99.8-1.57-.84-2.25-.06-.95.29-.39-1.54-1.44-.72l-.24-.72c-.36-.17-.41.77-.78.37.1-.41-.47-.43-.15-.78-.79-.82-2.11.54-2.99-.87-.48.72-.92.08-1.29.61.08-.35-1.13-.44-.23-.96.08-.04.17,0,.11.13l.23-.44c-.16-.54-.47-.51-.81-.41-.35.1-.75.3-1,.1.1.23.35.29.07.53l-.52-.31.28-.32c-.23-.19-.46-.38-.66-.59l-.13.51c-.25-.44.03-1.24-.71-.85-.39.24-.01.8-.47.7-.32-.59-.7-1.47-1.09-2.01-.32.49-.44.35-.66.32l.31-.39c-1,.05.55-.98-.31-1.05l.29-.21-.86.61c-1.18.21.51-.91-.95-.58.24.17-.75.82-.83.38l.43-.23c-.21-.09-.41-.02-.42-.19.28-.07.59-.38.34-.55l.6-.22c-.35.05-.7.08-1.04.09.2-.66-.75-.86-.24-1.38,0,0-.13-.96-.91-.82.49-.03.43-.57.99-.67-.56.01-1.24-.5-.84-.97l.08.03c.08-.6-.24-.97-.56-1.34-.3-.38-.57-.8-.37-1.36-.56.19-.37-.42-1.06-.12-.47-.46-.2-1.04-.1-1.47.12-.45.06-.76-1.1-.8-.2-.5.43-.68.52-.96l.13.11c-.28-.95-.35-1.22-.35-1.96-.24-.35-1.31-.33-1.09-1.02.43.19.34-.08.32-.32.08.16.23.2.5-.14-.13-.04-.21-.11-.28-.17.03,0,.06-.02.1-.01-.16-.41-.29-.33-.34-.14-.07,0-.15.01-.26.08.53-.46-.08-1.21.65-1.28-.18-1.25-.93-2.17-1.19-3.25.38-.11.7.15.84.46l-.12-.76c.54.02.3.44.4.67.88-.87-.82-1.88.02-2.91l-.41-.24.07-.06c-.22,0-.52-.26-.58-.42.47-.13,1.08.06,1.07-.47.47-.4-.17-1.19-.38-1.69-.1.26-.35.16-.51.02,0-.25.48-.33.3-.53l.63.05c-.6.02-.56-.65-.8-.77.48-.04.34.4.68.5.08-.82.03-.43.15-1.15-.33-.5-.59-.11-1.05-.46,0-.39-.22-.98.34-1.13-.18-.08-.36-.13-.54-.18.03-.88.63-1.26,1.32-1,.3-.83.85-1.5,1.5-1.94.65-.44,1.36-.65,1.89-.8.6-.12.79-.41,1-.66.19-.26.28-.54.3-.81-.24-.76-1.37-1.65-2.48-1.99-.55-.19-1.05-.25-1.43-.3-.36-.03-.59-.02-.59-.02-1.8-.05-3.19.48-4.26,1.2-1.07.74-1.91,1.73-2.48,2.92-.95,2.09-.9,4.25-.87,6.25"/>
  <path class="cls-1" d="M130.19,175.76l.16.21c-.02-.11-.06-.19-.16-.21"/>
  <path class="cls-1" d="M144.81,153.19s-.03-.02-.05-.04c.02.02.03.03.05.04"/>
  <path class="cls-1" d="M137.33,182.08h0s-.02.05-.02.07l.03-.07Z"/>
  <path class="cls-1" d="M129.43,183.11c1.98.05,2.72,1.06,4.8.16,1.06-.15,2.11-.69,3.09-1.19.19-.95,1.33-.52,1.61-1.41l.41.34c.09-.32.24-.57.55-.44l.05.13c.12-.47.54-.44.59-.67l.06.13.31-.25.04.21c.3-.63.77-.92,1.29-1.09l-.36-.45c1.28-.1.83-1.31,2.07-1.35l.09.11c-.06-.99.43-1.13.98-1.3.53-.17,1.08-.41.91-1.35.04.23.28.13.38.23.22-.57.5-1.14-.44-1.78.24-.32.48-.07.88.12-.42-.27-.42-.68-.29-.96l.09.22.3-.85-.91-.31c.46-.26,1.08.46,1.07-.04l-.69-.36c.4-.47,1.66-.29,2.43-.65.7-1.16.72-2.59.79-3.89.05-1.3.15-2.5,1.01-3.49h.6c.85.09-1.15-.82-.35-.78l-.35-.32c.16-.05.35-.18.52-.02.07-.23-.07-.26-.3-.47l.56-.18c.54-.89-.4-1.8-.1-2.73,1.2-1.07.35-3.3-.15-4.52-1.16-1.78,2.38-3.5,1.04-5.33.12-.05-.14-.21-.24-.22l.23-1.57s.86-7.64-6.63-2.31l-.18-.05c-.51.83-.65,1.37.25,2.03-1.16.02-.17.7-.55.88l-.09-.02c.85.59-.81,1.04-.05,1.6-.09-.03-.4-.06-.42-.18.12.38.34.91-.33.89.11.9-.28,2.11.75,2.75l-.18-.05c.7.37.08.43.42.81-.09.01-.14.04-.17.03.69.4.04,1.04.32,1.34h-.45s.05.69.05.69l.11-.25c1.22.18-.8.47-.05,1.03-.19.45,2.46,1.15,1.82,1.59.55.28-.91-.29-.5.1-.64-.05-.38-.2-.9-.15.27.36-.7.49-.31.94l-.5-.03c.85.63-.76.92.06,1.38.33.6-1.51.16-.63.85l-.7.12c-.14.22.79.29.43.5-.42-.08-.39.27-.76.05-.74.45.72,1.34-.53,1.85.77.34.2.59.77.86-.35-.07-.23.72-.89.11-.05-.05-.03-.11.11-.07l-.46-.17c-.98.17.29.83.04,1.19.19-.07.19-.23.49-.03l-.17.35-.37-.2c-.12.16-.27.29-.4.44l.51.1c-.34.17-1.18-.05-.6.48.33.27.73,0,.78.33-.47.21-1.13.5-1.46.79.54.21.47.31.52.47l-.45-.21c.41.71-1.04-.35-.75.27l-.29-.2.85.6c.65.84-.99-.35-.06.72.02-.2.98.5.67.59l-.38-.31c.02.16.16.3.03.31-.17-.2-.56-.42-.59-.23l-.43-.43c.19.25.37.5.54.76-.55-.09-.28.62-.88.26,0,0-.57.17-.11.76-.27-.38-.6-.31-.93-.74.3.43.31,1.03-.17.73l-.02-.07c-.77-.08-.23,1.23-1.08.97.35.46-.06.37.41.94-.05.47-.49.28-.76.24-.27-.04-.42.03,0,1.1-.2.24-.54-.33-.72-.37v-.14c-.37.4-.53.46-.91.57-.1.29.24,1.28-.21,1.17-.03-.44-.15-.31-.28-.27.06-.09.04-.25-.22-.46.02.13,0,.22,0,.3-.01-.03-.03-.05-.04-.1-.17.22-.09.33.03.35.02.06.05.14.12.24-.4-.44-.66.23-.89-.45-.62.36-.96,1.2-1.52,1.61-.14-.35-.07-.7.08-.88l-.4.22c-.1-.53.18-.35.29-.48-.66-.75-.88,1.06-1.63.37l-.06.44-.05-.06c.04.22-.06.54-.14.63-.15-.45-.14-1.07-.44-1-.3-.42-.65.31-.95.6.18.06.15.32.1.49-.16.03-.29-.42-.4-.21l-.08-.63c.12.58-.34.68-.38.94-.13-.46.21-.42.21-.78-.62.12-.31.06-.93.17-.3.5.11.59-.01,1.15-.29.14-.56.61-.94.25l.15.55c-.55.46-.91.43-1.33-.12-2.07,2.37-2.29,3.92-1.93,4.9.35.97,1.26,1.36,1.26,1.36,1.85,1.16,2.75-.51,4.9-1.16"/>
  <path class="cls-1" d="M158.15,145.97l-.15.21c.09-.06.16-.12.15-.21"/>
  <path class="cls-1" d="M152.36,166.93s-.02.03-.03.05c.02-.02.02-.04.03-.05"/>
  <path class="cls-1" d="M152.14,151.67h0s-.04,0-.06,0h.06Z"/>
  <path class="cls-1" d="M151.69,149.25c.13.67-.77,1.29-.13,1.62.03.3.38.51.59.79.86-.07.12.4.85.44l-.46.17c.25.02.43.06.18.18l-.14.02c.37.04.18.2.37.22h-.14s.08.14.08.14h-.2c.4.14.46.34.29.53l.58-.07c-.61.43.59.52-.16.92h-.14c1.54.46-1.04.73.4,1.25-.18-.07-.3.02-.44,0,.16.24.23.5,1.37.57-.03.18-.37.13-.81.12.5.03.7.2.72.35l-.19-.08.14.42h.95c-.29.2-1.15-.04-.94.19l.78.07c-.18.3-1.38.36-1.98.59-.11.3-.09.62-.01.95.1.14.26.26.39.43.25.31.34.78-.36.54l-.54-.37c-.76-.59,1.1.95.39.42l.32.33c-.14-.1-.29-.21-.45-.37-.05,0,.07.11.27.34l-.47-.39c-.21-.12-.12.04-.04.24.08.2.13.43-.02.35-.42-.49-.49-.51-.54-.32-.05.19-.11.59-.23.88-.05.64-.75.12-1.23-.39-.52-.51-1.02-1-1.52-.28-.03-.12-.12.15-.12.25l-.89-.15s-1.07-.12-1.79.64c-.7.76-1.18,2.44.41,6.09l-.03.18c.51.48.86.59,1.26-.33.02,1.15.44.13.55.51v.09c.33-.88.65.75.98-.04-.01.09-.03.41-.1.43.24-.14.55-.4.57.27.56-.17,1.34.13,1.68-.94l-.02.19c.16-.72.33-.11.63-.49.02.09.05.13.05.17.25-.72.91-.14,1.11-.46l.12.44c.21-.04.41-.1.61-.15l-.26-.07c-.12-.61.03-.42.27-.2.23.23.56.49.63.07.24.04.19-.61.11-1.18-.07-.58-.18-1.07.13-.85-.13-.55.33.87.34.41.33.56.08.39.41.82.09-.35.78.41.86-.12l.3.4c-.05-.49.22-.47.49-.46.27,0,.54,0,.36-.42.04-.63,1.29.81.92-.29l.64.28c.22-.13-.54-.67-.15-.69.33.28.44-.08.69.3.43-.07.38-.51.36-.92-.02-.42-.03-.8.61-.96-.71-.53-.17-.74-.73-1.11.35.12.19-.81.86-.08.05.06.03.14-.1.08l.46.23c.98-.24-.33-1.11-.14-1.54-.18.12-.16.32-.47.11l.12-.43.39.17.32-.65c-.17,0-.34,0-.52.02.29-.21,1.16-.15.46-.47-.39-.15-.7.11-.84-.12.38-.23.94-.58,1.13-.92-.58-.02-.54-.12-.65-.23l.5.04c-.66-.45,1.1-.04.59-.48l.34.06-1.03-.19c-.96-.42,1.05-.11-.27-.6.08.16-1.1,0-.87-.17l.48.08c-.09-.11-.29-.16-.19-.22.26.08.7.08.62-.08l.59.14-.87-.34c.52-.21-.1-.59.57-.66,0,0,.34-.5-.4-.62.46.11.64-.18,1.18-.09-.52-.14-.95-.52-.4-.69l.06.03c.55-.63-.81-.98-.17-1.58-.57.07-.29-.24-1.01-.1-.78-.44,1.36-1.22-.93-1.08-.16-.22.48-.38.57-.53l.13.04c-.28-.45-.33-.58-.36-.94-.26-.12-1.29.12-1.13-.24.43-.02.32-.12.29-.23.08.05.24.04.47-.2-.13.01-.22,0-.29,0,.03-.01.05-.03.1-.03-.2-.15-.31-.07-.34.03-.06.01-.14.05-.24.11.47-.36-.21-.52.47-.78-.36-.52-1.22-.63-1.67-.93.32-.21.66-.25.85-.17l-.27-.26c.49-.23.37.05.51.11.6-.78-1.15-.41-.7-1.21l-.42.12.05-.06c-.19.12-.51.18-.61.16.36-.3.92-.56.76-.76.27-.42-.51-.37-.87-.42.02.16-.22.28-.38.33-.08-.09.25-.43.03-.38l.49-.4c-.44.4-.71.14-.94.27.31-.35.43-.11.73-.3-.38-.36-.18-.19-.57-.54-.54.12-.41.44-.9.72-.25-.08-.69.08-.61-.36l-.33.46c-.58.05-.68-.12-.55-.73-1.29.45-2.03,1.16-2.53,1.78-.5.63-.82,1.19-.96,1.67-.39.93-.49,1.35-.49,1.35-.22.6-.12.56.21.44.31-.13.83-.33,1.21-.2"/>
  <path class="cls-1" d="M85.65,140.83v.29c.07-.09.08-.19,0-.29"/>
  <path class="cls-1" d="M126.83,143.49s.02-.03.03-.06c-.03.03-.03.04-.03.06"/>
  <path class="cls-1" d="M87.12,151.37h0s-.05,0-.08.02l.08-.02Z"/>
  <path class="cls-1" d="M79.51,145.21c1.93,1.84,1.69,2.99,4.12,4.2.98.81,2.29,1.39,3.48,1.96.96-.4,1.51.88,2.52.6l.04.56c.35-.1.69-.11.82.24l-.08.12c.52-.16.84.22,1.09.14l-.07.12.48.13-.16.15c.8-.08,1.49.14,2.05.51l.13-.57c.56.51,1.06.52,1.54.5.48,0,.92-.02,1.48.47l-.04.13c.92-.61,1.48-.3,2.1.02.6.31,1.27.62,2.05-.12-.2.18.09.3.08.44.73-.18,1.48-.31,1.41-1.45.49-.02.43.33.53.76-.04-.5.37-.74.74-.81l-.16.21,1.06-.29-.32-.91c.59.2.29,1.12.8.83l-.11-.77c.78.05,1.41,1.15,2.24,1.6,3.07-.18,5.83-2.69,8.81-1.81l.22.56c.2.83.54-1.38.78-.62l.25-.44c.11.14.33.27.21.48.3-.02.28-.16.45-.45l.41.47c1.23.21,2.04-.98,3.3-.98,1.65.82,4.24-.65,5.73-1.5,2.01-1.65,5.2,1.26,7.23-.58.1.11.24-.2.22-.29l2.11-.25s10.21-1.44,1.28-7.1l.02-.19c-1.22-.25-1.96-.22-2.59.84-.32-1.11-.96.05-1.29-.27v-.1c-.54,1-1.56-.47-2.09.42.01-.09-.03-.41.12-.45-.47.23-1.09.6-1.24-.06-1.14.38-2.83.36-3.4,1.54l.02-.19c-.3.79-.54.2-.95.65-.04-.08-.08-.12-.08-.16-.34.79-1.34.35-1.67.71l-.1-.43-.91.26.36.03c.09,1.23-.83-.63-1.37.26-.66-.04-.84,2.73-1.6,2.25-.21.62.11-.97-.28-.45-.12-.63.15-.43-.06-.91-.41.38-.86-.51-1.35,0l-.11-.49c-.58,1.02-1.5-.4-1.84.54-.69.54-.76-1.37-1.39-.27l-.42-.61c-.36-.05-.1.86-.53.6-.05-.42-.53-.25-.38-.69-.96-.5-1.57,1.23-2.88.32-.1.85-.75.47-.83,1.11-.09-.35-1.14.14-.64-.74.04-.07.14-.08.16.06v-.5c-.8-.8-1.08.7-1.74.67.22.13.46.04.35.4l-.6.04.05-.43-.92-.08.21.48c-.47-.18-.78-1.01-1.13-.21-.15.43.52.61.1.84-.63-.24-1.55-.62-2.25-.67.15.56-.04.57-.21.71l-.09-.49c-.62.79-.41-1.05-1.03-.41l.02-.35-.05,1.06c-.52,1.05-.44-.99-.99.42.27-.11.23,1.08-.13.89l.05-.49c-.18.12-.22.32-.36.23.09-.27,0-.7-.25-.6l.13-.61-.44.91c-.41-.49-.99.16-1.14-.52,0,0-.19-.09-.41-.08-.22,0-.44.09-.56.46.18-.45-.22-.65-.06-1.18-.21.51-.84.87-.97.28l.05-.06c-.64-.68-1.53.49-2.07-.41-.14.57-.43.12-.58.86-.52.21-.76-.29-.98-.58-.23-.28-.45-.39-1.08.59-.43-.06-.21-.69-.34-.89l.14-.07c-.76-.17-.97-.27-1.45-.6-.36.04-.94.94-1.28.44.37-.27.14-.32-.03-.42.15.01.26-.1.18-.48-.1.09-.19.13-.27.16.02-.03.02-.06.05-.09-.36-.05-.39.09-.28.22-.04.05-.07.13-.09.25,0-.64-.85-.51-.49-1.13-.94-.43-1.99-.24-2.87-.54.14-.36.5-.51.79-.48l-.59-.25c.32-.43.47-.04.69-.02-.09-1.13-1.76-.2-2-1.37l-.4.23v-.09c-.13.18-.47.31-.62.29.18-.45.65-.86.28-1.09,0-.57-.9-.39-1.39-.46.14.21-.08.36-.26.43-.18-.12.02-.56-.23-.5l.38-.5c-.31.51-.82.16-1.04.31.21-.43.5-.1.76-.35-.66-.47-.33-.23-.97-.71-.64.07-.34.49-.87.77-.36-.17-.96-.12-.99-.71l-.3.49c-.83-.23-1.1-.66-.95-1.39-.34-.07-.65-.14-.93-.2v.54c-.16-.67.13-1.41.48-1.93.36-.54.79-.94,1.1-1.27.2-.34.25-.66.27-.95,0-.14,0-.28-.03-.41-.01-.07-.03-.13-.05-.19-.02-.06-.13-.13-.2-.19-.68-.51-1.97-.67-3.02-.42-1.06.22-1.84.76-1.84.76-.53.31-1.01.71-1.4,1.13l-1.7,1.84,1.58,4.38c.5,1.4,1.39,2.16,2.4,2.73,1.01.58,2.16.98,3.39,1.7"/>
</svg>