<?xml version="1.0" encoding="UTF-8"?>
<svg id="Capa_1" data-name="Capa 1" xmlns="http://www.w3.org/2000/svg" viewBox="0 0 172.01 347.88">
  <defs>
    <style>
      .cls-1 {
        fill: #a4d5cc;
      }
    </style>
  </defs>
  <path class="cls-1" d="M33.32,133.15l.48.35c0-.14-.11-.27-.48-.35"/>
  <path class="cls-1" d="M160.67,151.28s.09-.03.12-.06c-.09.02-.12.04-.12.06"/>
  <path class="cls-1" d="M51.15,146.35h-.03s-.1.02-.14.04l.17-.04Z"/>
  <path class="cls-1" d="M26.38,141.71c3.24.4,5.26,1.07,7.3,1.64,2.04.57,4.1,1.07,7.46,1.37,3.03.66,6.72,1.14,9.99,1.63,1.75-.73,4.28.83,6.27.31l.59.74c.69-.18,1.47-.24,2.04.21l-.07.17c1.03-.28,2.04.19,2.55.05l-.07.17,1.16.14-.24.21c1.73-.18,3.43.12,4.88.6v-.75c3.06,1.38,4.49.09,7.2,1.55l-.07.17c3.97-1.31,5.55,2.3,9.62,1.08-.51.15.14.41.07.58,1.77.07,3.64.26,3.89-1.17,1.26.22.96.61,1.04,1.19.09-.63,1.23-.72,2.22-.61l-.49.17,2.86.21-.38-1.27c1.44.57.16,1.5,1.64,1.43l.13-.98c2.04.51,3.04,2.16,4.95,3.18,8.32,1.62,17.62.27,25.22,2.87l.26.78c.03,1.1,2.33-1.35,2.52-.33l.96-.4c.23.22.75.49.27.68.84.13.88-.04,1.52-.31l.83.77c3.26.89,6.22-.15,9.68.46,4.07,1.78,12.1,1.2,16.71.8,2.23-.4,4.53-.09,6.86.43l-2.8-1.42c.08,0-.33.13-.43.2-.16.09-.35.3-.59.51-.48.37-.87.46-1.17.7-.11.06-.16.14-.3.25-.16.12-.37.25-.6.41-.11-.14-.41.21-.41.34-1.21-.04-2.75-.41-4.45-.98.11.04-1.83-.62-4.3-1.11-2.48-.5-5.61-.9-8.25-.59-1.31.15-2.52.49-3.31.99-.42.26-.7.55-.81.83-.11.28-.04.56.11.84.38.56,1.23,1.1,2.44,1.99,1.22.85,2.92,2.04,5.23,3.66l-.18.2c1.44.58,2.62,1.05,3.73,1.29.55.12,1.08.19,1.62.19.5,0,1.12-.03,1.81-.15-.05,1.54,2.9.92,3.79,1.48l-.11.1c1.26-.36,2.48-.09,3.89.03.7.05,1.43.08,2.17-.06.75-.13,1.53-.43,2.14-.9.11-.08.2-.18.3-.28-.04.1.01.33-.16.56-.08.11-.22.22-.44.32.15-.08.31-.16.48-.25,1-.57,1.97-1.36,2.71-2.03.73-.66,1.29-1.15,1.65-.98,1.2-1.62,2.16-3.65,2.45-6.01.14-1.2.06-2.52-.31-3.81-.37-1.3-1.11-2.5-1.95-3.41l-1.69-1.82-1.66.12c-1.08.08-2.02.26-2.72.64l.16-.23c-1.28.83-1.58.02-2.98.39-.07-.12-.16-.18-.14-.23-1.39.82-3.88-.16-4.98.14l-.02-.57-2.65-.08.97.2c-.47,1.52-1.91-1.12-3.91-.29-1.77-.36-3.92,2.89-5.71,1.97-.96.64.89-1.11-.49-.67.03-.81.67-.45.39-1.12-1.34.27-2.05-1.03-3.71-.64v-.64c-2.21.94-3.86-1.21-5.36-.27-2.21.29-1.25-2.02-3.62-1.03l-.78-.94c-.94-.24-.8.97-1.82.44.12-.53-1.3-.58-.62-1.02-2.3-1.12-5.02.63-8.01-1.17-.81.95-2.33.14-2.94.85-.03-.46-3.18-.47-1.27-1.23.16-.06.43-.01.39.16l.29-.59c-1.65-1.39-3.35.23-5.11-.19.5.27,1.21.31.69.68l-1.64-.3.41-.47-2.42-.63.25.69c-1.16-.49-1.44-1.64-2.92-.91-.68.42,1.02,1.03-.28,1.05-1.55-.67-3.87-1.67-5.9-2.15.09.75-.46.64-1.05.71l.03-.64c-2.31.54-.6-1.5-2.86-1.13l.26-.41-.77,1.22c-2.14.94-.85-1.46-3.28-.09.87.02.19,1.44-.82,1.01l.36-.56c-.6.04-.84.26-1.21.07.4-.27.32-.85-.55-.88l.69-.66-1.8.85c-1.15-.85-3.26-.35-3.64-1.28,0,0-2.62-.86-3.39-.04.64-.49-.81-.96-.27-1.56-.8.54-2.95.72-3.66-.11l.17-.05c-2.92-1.23-5.37.05-7.94-1.29,0,.74-1.38.09-1.19,1.08-2.99.38-4.79-2.84-6.35-.18-1.32-.08-1.4-.96-2.03-1.23l.34-.09c-2.45-.24-3.15-.35-4.92-.76-.94.1-1.35,1.4-2.88.76.62-.42-.05-.46-.65-.58.4,0,.55-.17-.16-.68-.14.14-.33.2-.51.25,0-.04-.02-.08,0-.13-1.03-.02-.89.18-.45.35-.04.08-.02.19.09.36-.89-.89-2.89-.54-2.83-1.47-1.5-.2-2.88-.18-4.21-.13-1.32.07-2.57.17-3.88.14-.21-.51.46-.83,1.24-.89l-1.86-.13c.12-.67,1.12-.22,1.7-.26-2.02-1.45-4.67.37-7.1-.94l-.6.47-.14-.1c-.03.28-.64.61-1.03.66-.3-.63.18-1.36-1.11-1.46-.96-.67-2.91,0-4.26.24.71.15.45.46.13.65-.64-.02-.97-.64-1.48-.42v-.8c.19.76-1.74.72-1.99,1.04-.34-.61,1.02-.47,1.21-.91-2.59-.03-1.29-.05-3.89-.03-1.39.58.24.76-.43,1.45-1.21.12-2.38.71-3.77.23l.45.71c-2.24.6-3.55.59-5.14,0-4.1,1.81-5.99,3.58-6.73,4.79-.75,1.22-.49,2.01.26,2.45.68.5,1.66.69,2.52.83.87.15,1.57.16,1.57.16,2.9.38,5.08.15,7.49-.31,2.4-.44,5.05-1.04,8.77-1.08"/>
  <path class="cls-1" d="M18.03,143.44l.4.28c0-.14-.11-.26-.4-.28"/>
  <path class="cls-1" d="M113.56,153.98s.07-.03.1-.05c-.07.01-.09.03-.1.05"/>
  <path class="cls-1" d="M32.22,153.94s-.02,0-.02,0c-.03.03-.07.04-.1.07l.12-.06Z"/>
  <path class="cls-1" d="M13.34,152.93c.28-.02.56-.04.83-.06.24-.02.65-.04.71-.02.27.02.53.03.77.05.5.04.95.08,1.38.16.86.14,1.61.29,2.37.45,1.51.29,3.03.51,5.51.32,2.35.21,4.92.07,7.3.12,1.22-.97,3.11.28,4.55-.47l.46.66c.5-.26,1.06-.41,1.5-.03l-.05.17c.75-.38,1.5-.02,1.88-.21l-.05.17.86.02-.17.24c1.27-.35,2.54-.24,3.62.11v-.74c2.27,1.08,3.31-.33,5.33.89l-.05.17c2.93-1.62,4.12,1.81,7.12.31-.37.19.1.39.05.57,1.31-.06,2.69,0,2.88-1.44.93.13.71.54.76,1.11.07-.63.91-.79,1.65-.74l-.37.2,2.12.04-.27-1.24c1.07.48.11,1.48,1.2,1.32l.11-.99c1.51.38,2.23,1.99,3.62,2.89,6.11,1.18,13.06-.48,18.56,2.02l.15.77c-.03,1.09,1.79-1.39,1.88-.36l.73-.4c.16.22.53.48.16.68.61.12.65-.05,1.14-.32l.57.76c2.36.85,4.6-.17,7.12.45,2.88,1.79,8.83,1.35,12.26,1.11,4.92-.92,9.71,4.17,14.76,3.07.13.18.59-.1.6-.23l4.35.84s5.28.94,8.73.48c3.44-.47,5.1-2.38-2.26-8.16l.15-.22c-2.31-.96-3.81-1.32-5.66-.41-.03-1.49-1.95-.46-2.44-1.02l.07-.11c-1.64.88-2.88-1.39-4.45-.62.07-.11.16-.5.49-.47-1.06.02-2.52.13-2.47-.72-2.5-.16-5.88-1.06-7.66.05l.14-.22c-1.03.78-1.18-.04-2.26.28-.04-.12-.1-.19-.08-.23-1.11.75-2.88-.28-3.73,0l.03-.57-1.97-.15.71.22c-.47,1.5-1.34-1.18-2.9-.38-1.3-.38-3.14,2.82-4.41,1.88-.76.63.74-1.09-.32-.67.08-.81.53-.44.36-1.12-1.02.25-1.47-1.04-2.73-.66l.04-.63c-1.71.93-2.82-1.22-4-.27-1.67.3-.82-2.01-2.65-1l-.54-.93c-.7-.23-.65.97-1.39.46.12-.53-.94-.56-.41-1-1.68-1.07-3.79.7-5.97-1.01-.65.97-1.75.2-2.24.93,0-.46-2.37-.38-.91-1.19.12-.06.33-.02.29.15l.24-.59c-1.2-1.34-2.53.33-3.84-.02.37.25.9.27.5.65l-1.23-.24.32-.49-1.81-.54.17.67c-.86-.44-1.04-1.58-2.17-.79-.52.45.75.97-.23,1.05-1.15-.59-2.88-1.47-4.4-1.85.06.74-.36.66-.8.76l.03-.63c-1.74.67-.43-1.45-2.14-.96l.2-.42-.59,1.26c-1.62,1.07-.63-1.4-2.47.1.66-.03.14,1.42-.62,1.05l.27-.58c-.45.07-.63.31-.91.15.3-.3.24-.86-.41-.84l.52-.71-1.35.97c-.86-.76-2.45-.12-2.74-1.02,0,0-1.98-.66-2.55.22.47-.53-.62-.89-.22-1.53-.6.59-2.21.96-2.75.18l.13-.07c-2.21-.98-4.04.53-5.99-.57.01.74-1.03.22-.87,1.18-2.23.68-3.67-2.33-4.76.47-.99.05-1.08-.8-1.57-1l.25-.13c-1.85.04-2.39.02-3.75-.19-.71.22-.95,1.55-2.14,1.11.44-.49-.06-.45-.52-.48.3-.06.41-.25-.16-.66-.1.16-.24.25-.37.32,0-.04-.02-.08,0-.13-.78.12-.66.3-.31.41-.02.08,0,.19.1.34-.74-.76-2.22-.13-2.25-1.05-2.34.05-4.06.91-6,1.22-.21-.48.26-.89.83-1.05l-1.39.14c.03-.68.81-.37,1.24-.49-1.64-1.15-3.42,1.01-5.37.05l-.39.54-.12-.09c.01.28-.41.68-.7.79-.29-.58-.03-1.37-1-1.29-.4-.27-.94-.17-1.51.05-.51.22-1.3.56-1.38.73.26.08.21.41.08.63-.3.05-.4-.54-.62-.26l.09-.81c0,.75-.77.89-1,1.25.06-.6.57-.58.71-1.04-.92.19-.46.1-1.37.29-.91.73-.37.8-1.1,1.6l-.3.13-.53.25c-.08.03-.2.11-.26.09-.05-.04-.09-.08-.14-.14-.17-.2-.27-.52-.18-1.01-.19.29-.38.58-.56.89-.94-.8-1.05-1.97-.41-3.14-.85-.92-1.45-2.07-1.92-3.11-.46-1.06-.85-1.85-1.2-2.44-.72-1.17-1.52-1.27-2.25-1.05-.77.4-1.48,1.33-1.93,2.39-.49,1.29-.65,2.48-.65,2.48-.64,3.21-.2,6.04.68,8.24.43,1.12,1.02,2.07,1.57,3.06.56.97,1.15,2.03,1.76,2.75,1.4-.38,2.82-.77,4.33-1.14.74-.18,1.5-.36,2.3-.55.77-.14,1.56-.28,2.39-.43"/>
  <path class="cls-1" d="M22.02,165.6l-.26.34c.13-.02.24-.11.26-.34"/>
  <path class="cls-1" d="M25.81,243.85s.04.05.06.08c-.02-.05-.04-.07-.06-.08"/>
  <path class="cls-1" d="M13.36,178.5s0-.02,0-.02c-.03-.02-.05-.05-.08-.07l.08.09Z"/>
  <path class="cls-1" d="M12.51,162.96c.13,4.1-1.14,5.32-.12,9.46.08,2.02.61,4.12.97,6.07,1.17.83.24,2.57,1.24,3.6l-.57.48c.34.35.59.78.29,1.19h-.18c.51.52.29,1.18.54,1.45h-.18s.14.68.14.68l-.26-.1c.58.95.67,1.97.52,2.89l.73-.13c-.68,1.99.89,2.58.04,4.39h-.18c2.1,2.06-1.11,3.55.88,5.7-.25-.27-.37.14-.55.13.27,1.03.45,2.14,1.9,2.08.03.76-.42.65-.97.77.63-.04.93.61.99,1.21l-.26-.26.3,1.7,1.18-.39c-.3.92-1.45.3-1.12,1.16l.99-.06c-.14,1.27-1.6,2.07-2.28,3.31-.11,2.52.49,5.11.95,7.67.42,2.56.67,5.09-.15,7.44l-.74.22c-1.08.11,1.62,1.27.62,1.46l.5.54c-.19.16-.4.48-.65.21-.04.5.14.51.47.88l-.67.55c-.51,1.99.83,3.67.54,5.77-1.38,2.51-.14,7.24.53,9.98,1.58,3.89-2.91,8.22-1.19,12.19-.16.12.17.47.3.47l-.3,3.58s-.06,1.09-.04,2.52c.02,1.43.15,3.2.59,4.58.87,2.75,2.96,3.98,7.83-2.46l.23.1c.69-1.96.88-3.22-.26-4.64,1.47-.15.22-1.63.71-2.08l.12.05c-1.07-1.26,1.04-2.47.08-3.68.11.05.52.09.53.36-.15-.86-.45-2.04.4-2.08-.16-2.05.32-4.9-1.01-6.23l.23.09c-.9-.77-.12-.97-.57-1.81.11-.04.17-.1.22-.09-.89-.83-.1-2.37-.48-3.03l.57-.03-.1-1.62-.13.6c-1.55-.23,1-1.21,0-2.39.2-1.1-3.22-2.24-2.46-3.37-.73-.54,1.18.48.62-.33.81-.02.51.38,1.15.17-.38-.8.83-1.31.29-2.29l.63-.04c-1.15-1.28.81-2.43-.29-3.27-.53-1.32,1.87-.9.62-2.27l.85-.55c.13-.59-1.05-.41-.64-1.07.54.03.42-.83.94-.46.82-1.5-1.26-2.99.13-4.97-1.06-.4-.45-1.4-1.25-1.69.45-.06.03-1.97,1.04-.89.08.09.07.26-.11.25l.62.11c1.15-1.15-.71-2.01-.56-3.11-.19.33-.12.77-.56.49l.05-1.03.53.2.25-1.54-.64.23c.31-.76,1.4-1.06.45-1.87-.52-.36-.85.74-1.08-.04.41-1.01,1.01-2.53,1.14-3.82-.72.15-.71-.19-.88-.54l.63-.07c-.94-1.31,1.37-.56.6-1.87l.45.1-1.34-.29c-1.31-1.15,1.28-.72-.49-1.98.13.53-1.38.32-1.14-.34l.62.13c-.15-.36-.41-.46-.29-.71.34.2.89.07.76-.46l.78.32-1.18-.95c.61-.81-.29-2,.55-2.36,0,0,.32-1.7-.64-2.02.6.3.77-.64,1.47-.42-.69-.39-1.3-1.63-.64-2.19l.09.09c.58-1.94-1.22-3.17-.47-4.93-.73.13-.39-.79-1.31-.5-1.04-1.68,1.64-3.35-1.3-3.74-.22-.78.6-1,.71-1.42l.17.18c-.36-1.47-.43-1.9-.46-3.02-.33-.53-1.67-.49-1.45-1.51.57.27.43-.12.39-.49.11.23.31.28.62-.24-.17-.05-.28-.15-.38-.24.04,0,.07-.03.13-.03-.25-.6-.4-.48-.45-.18-.08,0-.18.03-.32.13.62-.71-.22-1.78.68-1.95-.4-1.84-1.46-3.07-1.99-4.57.45-.22.91.09,1.14.52l-.29-1.08c.68-.06.46.59.63.91.95-1.42-1.39-2.57-.56-4.21l-.57-.26.08-.1c-.28.04-.71-.26-.82-.48.57-.28,1.36-.14,1.24-.89.51-.67-.48-1.67-.9-2.41-.05.43-.39.34-.62.18-.07-.38.5-.66.21-.92l.79-.13c-.73.24-.93-.89-1.27-.99.56-.29.58.52,1.03.56-.26-1.51-.13-.75-.39-2.26-.7-.73-.73.24-1.48-.06-.24-.69-.88-1.32-.51-2.19l-.67.35c-.72-1.26-.75-2.07-.16-3.06-3.55-4.57-5.57-4.79-6.71-3.9-1.14.89-1.4,2.9-1.4,2.9-1.01,4.07,1.29,5.78,2.4,10.32"/>
  <path class="cls-1" d="M27.38,273.93l-.28.28c.13-.01.25-.08.28-.28"/>
  <path class="cls-1" d="M33.94,335.77s.05,0,.07-.02c-.04,0-.06.01-.07.02"/>
  <path class="cls-1" d="M17.96,284.57h0s-.05-.06-.08-.08l.08.08Z"/>
  <path class="cls-1" d="M18.08,271.24c-.18,3.51-1.51,4.5-.76,8.09-.02,1.73.39,3.55.64,5.23,1.11.74.13,2.21,1.08,3.11l-.59.4c.32.31.55.68.24,1.03h-.18c.49.45.24,1.02.48,1.25h-.18s.11.58.11.58l-.26-.09c.53.82.61,1.7.43,2.48l.73-.1c-.74,1.69.82,2.22-.08,3.76h-.18c2.04,1.77-1.17,3.03.77,4.88-.24-.23-.37.12-.55.11.26.88.41,1.83,1.86,1.77.01.65-.43.55-.98.67.63-.04.93.51.99,1.02l-.26-.22.29,1.45,1.18-.35c-.3.79-1.45.27-1.12,1l.99-.06c-.14,1.08-1.61,1.78-2.29,2.85-.2,4.32,2.56,8.81,1.02,12.9l-.74.22c-1.09.12,1.67,1.05.67,1.26l.53.46c-.18.15-.37.45-.63.23-.01.46.17.46.52.77l-.64.55c-.36,1.92,1.13,3.39,1.34,5.49-.39,1.4.14,3.38,1.31,5.21,1.14,1.85,3,3.36,4.42,4.14,2.15.9,3.72,2.55,5.66,3.94,1.9,1.37,3.95,2.39,5.87,1.75.1.17.44-.12.46-.25l3.06.6s.9.15,2.01.24c1.1.1,2.4.12,3.43-.07,1.03-.21,1.97-.68,2.3-1.88.3-1.16-.08-3.28-2.74-6.17l.13-.21c-1.72-.94-2.84-1.22-4.18-.21.01-1.48-1.35-.34-1.66-.87l.05-.11c-1.16.97-1.84-1.22-2.85-.4.06-.11.15-.5.35-.48-.65.06-1.55.2-1.37-.65-.35-.03-.72-.1-1.05-.2-.36-.09-.69-.19-1-.28-.34-.06-.63-.12-.93-.11-.32.03-.63.11-.96.29l.17-.17c-.85.53-.55-.16-1.17-.1.05-.1.06-.17.1-.2-1,.42-1.07-.84-1.59-.88l.43-.36c-.21-.23-.44-.45-.63-.71.02.13.05.25.09.37-.69.38-.6.07-.45-.32.13-.38.33-.84-.28-.96-.05-.35-.93-.38-1.77-.53-.83-.14-1.62-.4-1.36-.95-.82-.23,1.24.05.53-.41.78-.22.57.15,1.15-.17-.52-.49.57-1.11-.09-1.72l.62-.14c-1.31-.76.55-1.89-.61-2.42-.62-.99,1.8-.85.49-1.83l.82-.48c.11-.47-1.07-.27-.68-.83.54,0,.39-.69.92-.41.78-1.27-1.32-2.46.01-4.17-1.06-.3-.48-1.16-1.28-1.39.45-.07-.01-1.66,1.02-.78.09.07.08.22-.1.22l.63.08c1.12-.99-.73-1.66-.6-2.6-.19.28-.12.65-.56.42l.04-.86.53.15.24-1.3-.64.21c.3-.64,1.39-.92.43-1.58-.53-.29-.84.64-1.08-.01.4-.86,1-2.15,1.13-3.23-.72.14-.71-.15-.87-.44l.63-.07c-.93-1.09,1.37-.49.61-1.58l.44.08-1.33-.23c-1.3-.95,1.28-.61-.49-1.66.13.44-1.38.28-1.13-.28l.62.11c-.15-.3-.4-.39-.29-.59.34.16.89.05.76-.39l.78.26-1.16-.79c.62-.69-.25-1.68.59-1.99,0,0,.35-1.42-.61-1.7.6.25.78-.53,1.48-.35-.68-.33-1.28-1.38-.59-1.84l.08.08c.64-1.63-1.13-2.67-.32-4.14-.73.1-.37-.67-1.3-.44-1-1.43,1.76-2.79-1.16-3.17-.19-.66.64-.83.77-1.19l.16.15c-.3-1.25-.35-1.61-.33-2.55-.31-.45-1.65-.46-1.37-1.31.55.24.43-.09.41-.41.1.2.29.25.63-.18-.17-.05-.27-.13-.36-.21.04,0,.07-.02.13-.02-.22-.51-.38-.41-.44-.17-.08,0-.19.02-.33.1.66-.58-.12-1.51.79-1.62-.29-1.56-1.3-2.63-1.72-3.92.46-.17.9.11,1.1.48l-.22-.92c.68-.03.42.51.57.79,1.04-1.16-1.21-2.22-.27-3.56l-.55-.24.08-.08c-.28.02-.68-.25-.79-.44.58-.21,1.37-.06,1.3-.7.54-.54-.36-1.42-.71-2.07-.08.36-.42.26-.63.12-.04-.32.54-.53.28-.77l.8-.07c-.75.17-.85-.79-1.19-.9.58-.21.54.47.99.53-.14-1.28-.07-.64-.21-1.92-.64-.65-.75.16-1.47-.13-.19-.6-.78-1.16-.33-1.88l-.7.26c-.61-1.11-.56-1.79.12-2.59-6.21-8.17-7.98-1.38-7.98-1.38-1.4,3.41.76,5.03,1.51,8.97"/>
  <path class="cls-1" d="M152.61,187.71l-.33.4c.14,0,.26-.09.33-.4"/>
  <path class="cls-1" d="M144.21,294.59s.03.07.06.11c-.02-.07-.04-.1-.06-.11"/>
  <path class="cls-1" d="M141.38,203.33s0-.01,0-.02c-.03-.04-.04-.08-.07-.11l.06.14Z"/>
  <path class="cls-1" d="M143.9,181.86c-.81,5.62-2.3,7.01-2.21,12.92-.33,2.79-.26,5.79-.31,8.54.97,1.38-.27,3.59.51,5.19l-.65.55c.26.55.42,1.19.05,1.7l-.17-.05c.4.83.05,1.7.25,2.11l-.17-.05v.97s-.24-.18-.24-.18c.38,1.42.3,2.84-.03,4.07l.74-.04c-1.03,2.61.41,3.71-.76,6.04l-.17-.05c1.69,3.2-1.7,4.72-.12,8.01-.2-.41-.39.14-.57.09.09,1.47.08,3.02,1.52,3.16-.1,1.05-.52.82-1.09.92.63.04.82.98.8,1.81l-.21-.4.03,2.38,1.23-.37c-.44,1.22-1.48.2-1.29,1.42l.99.06c-.33,1.72-1.91,2.61-2.77,4.23-.98,6.93.95,14.62-1.31,20.96l-.77.23c-1.1.04,1.46,1.92.44,2.08l.43.79c-.21.2-.45.63-.67.23-.1.69.08.73.37,1.25l-.73.7c-.74,2.71.37,5.15-.12,8.02-1.65,3.37-.91,10.01-.47,13.84,1.2,5.43-3.61,11.25-2.19,16.83-.17.16.14.65.27.65l-.55,4.96s-2.33,24.05,8.12,6.47l.23.14c.79-2.67,1.05-4.38.01-6.34,1.48-.18.33-2.22.85-2.82l.11.07c-.99-1.75,1.2-3.34.33-5.02.11.07.51.14.5.51-.09-1.18-.29-2.8.57-2.82,0-2.8.7-6.65-.51-8.54l.23.14c-.83-1.09-.03-1.32-.41-2.5.12-.05.18-.13.23-.11-.82-1.18.12-3.24-.2-4.17h.57s.04-2.23.04-2.23l-.19.81c-1.53-.41,1.1-1.59.23-3.27.32-1.48-2.98-3.29-2.1-4.78-.67-.8,1.13.75.66-.41.81.03.47.56,1.13.32-.3-1.12.97-1.72.53-3.1h.63c-1.01-1.84,1.09-3.24.09-4.49-.38-1.85,1.96-1.06.88-3.04l.91-.66c.2-.79-1-.66-.51-1.52.53.1.52-1.09.99-.53,1-1.95-.86-4.19.76-6.73-1-.66-.27-1.95-1.02-2.44.46-.04.29-2.67,1.15-1.09.07.14.04.36-.14.33l.6.23c1.29-1.42-.42-2.8-.12-4.29-.24.43-.23,1.02-.63.59l.2-1.39.5.33.47-2.05-.67.24c.41-.99,1.54-1.26.71-2.48-.47-.56-.95.89-1.06-.2.55-1.32,1.37-3.3,1.7-5.02-.74.1-.68-.36-.79-.85h.63c-.73-1.91,1.44-.57.89-2.45l.43.2-1.28-.59c-1.12-1.75,1.38-.78-.18-2.75.05.73-1.42.23-1.07-.64l.59.27c-.09-.5-.33-.69-.18-1.01.3.32.87.23.83-.51l.72.55-1.01-1.46c.74-1.01.05-2.75.94-3.11,0,0,.6-2.24-.3-2.84.55.5.87-.73,1.53-.32-.61-.64-1.02-2.43-.26-3.07l.07.14c.92-2.52-.63-4.49.42-6.73-.74.05-.24-1.14-1.2-.92-.73-2.47,2.25-4.21-.57-5.31-.07-1.1.78-1.24.97-1.79l.13.27c-.07-2.06-.06-2.65.13-4.16-.22-.78-1.55-1-1.12-2.33.5.48.44-.08.48-.59.06.33.25.45.66-.19-.16-.11-.25-.26-.32-.4.04,0,.08-.03.13,0-.12-.86-.3-.73-.4-.34-.08-.03-.19,0-.35.11.76-.82.15-2.45,1.07-2.48-.01-2.56-.81-4.45-1-6.6.49-.2.87.33,1,.96l-.05-1.52c.68.07.32.89.42,1.37,1.24-1.7-.8-3.77.37-5.79l-.5-.48.1-.12c-.28-.02-.63-.52-.7-.83.61-.25,1.36.13,1.41-.91.64-.77-.1-2.35-.33-3.45-.15.57-.46.36-.65.09.02-.52.63-.77.41-1.19h.8c-.77.16-.7-1.41-1.01-1.62.61-.25.44.85.88,1.01.09-2.09.05-1.04.14-3.13-.51-1.16-.77.14-1.43-.44-.08-.99-.56-1.99.01-3.08l-.73.3c-.4-1.89-.23-2.98.58-4.16-4.67-14.18-7.65-3.52-7.65-3.52-2,5.28-.16,8.23-.12,14.7"/>
  <path class="cls-1" d="M135.17,336.73l-.41-.05c.09.1.22.15.41.05"/>
  <path class="cls-1" d="M70.37,345.62s-.04.04-.06.07c.04-.02.05-.05.06-.07"/>
  <path class="cls-1" d="M122.29,332.29h.01s.02-.06.03-.09l-.04.09Z"/>
  <path class="cls-1" d="M131.18,328.02c-1,.78-1.91.94-2.72,1.15-.84.22-1.5.43-2.55,1.28-1.17.47-2.35,1.27-3.61,1.84-.31,1.23-1.72.52-2.3,1.57l-.44-.52c-.2.36-.49.63-.83.37l-.02-.18c-.32.54-.85.35-1.01.62v-.18s-.51.17-.51.17l.05-.26c-.65.61-1.43.76-2.15.63l.16.72c-1.59-.62-1.97.96-3.47.13v-.18c-1.58,2.09-2.88-1.04-4.56.91.21-.24-.12-.37-.12-.55-.82.27-1.72.44-1.64,1.89-.62.02-.53-.42-.64-.97.04.63-.48.92-.96.99l.21-.26-1.38.29.33,1.18c-.76-.31-.26-1.45-.95-1.12l.05.99c-1.03-.14-1.69-1.62-2.71-2.32-4.09-.27-8.5,2.31-12.41.6l-.18-.74c-.09-1.09-1.05,1.62-1.21.62l-.45.5c-.13-.19-.4-.4-.18-.65-.42-.04-.43.14-.73.47l-.46-.67c-1.66-.51-3.05.81-4.8.57-2.11-1.36-6.08,0-8.34.83-1.57.85-3.34.29-5.14-.28-1.8-.52-3.64-1.04-5.24.04-.12-.14-.37.23-.36.35l-3.07.14s-.93.09-2.13.33c-1.2.23-2.67.69-3.73,1.38-1.07.68-1.71,1.58-1.31,2.77.39,1.19,1.84,2.64,4.77,4.48l-.04.24c1.65.38,2.63.39,3.58-.93.33,1.43,1.31.03,1.73.46l-.02.12c.86-1.2,2.06.73,2.9-.33-.03.12-.02.52-.23.56.66-.23,1.57-.62,1.68.22,1.6-.35,3.89-.06,4.87-1.47l-.06.24c.56-.95.76-.18,1.42-.66.04.11.09.17.09.21.62-.93,1.9-.21,2.42-.61l.05.56,1.3-.17-.49-.11c.13-1.56,1.01.95,1.94-.08.89.18,1.74-3.27,2.68-2.52.43-.73-.37,1.19.28.62.04.81-.3.51-.12,1.16.64-.39,1.08.81,1.87.25l.04.63c1.03-1.17,1.98.81,2.66-.3,1.07-.53.74,1.87,1.85.62l.45.85c.48.13.34-1.05.87-.64-.03.54.68.42.37.94,1.22.83,2.44-1.22,4.06.18.33-1.05,1.15-.44,1.4-1.23.05.46,1.62.05.73,1.05-.08.08-.21.07-.21-.11l-.1.62c.93,1.16,1.66-.68,2.57-.51-.27-.2-.63-.14-.4-.57l.85.06-.16.53,1.27.28-.19-.64c.62.32.87,1.42,1.54.47.3-.52-.61-.85.04-1.08.84.41,2.1,1.04,3.17,1.19-.13-.73.16-.71.44-.87l.06.63c1.09-.93.48,1.37,1.57.62l-.08.45.23-1.33c.94-1.3.61,1.28,1.64-.48-.44.13-.29-1.38.27-1.13l-.1.62c.29-.14.38-.41.59-.29-.16.34-.04.89.4.76l-.25.78.77-1.18c.69.61,1.66-.28,1.99.56,0,0,1.44.32,1.68-.66-.23.61.56.76.4,1.47.31-.69,1.33-1.33,1.83-.67l-.07.09c1.67.58,2.63-1.26,4.2-.59-.17-.72.66-.43.34-1.33,1.34-1.12,3.11,1.42,3.12-1.52.65-.29.95.5,1.34.57l-.13.18c1.26-.52,1.62-.64,2.61-.83.41-.41.11-1.71,1.04-1.66-.11.6.2.39.52.29-.18.14-.18.35.35.56,0-.18.07-.3.13-.41.02.04.04.06.05.12.47-.36.32-.49.05-.47-.01-.08-.07-.17-.19-.29.77.47,1.5-.58,1.89.24,1.53-.83,2.24-2.23,3.27-3.2.37.34.29.86,0,1.22.27-.21.54-.42.81-.65.33.6-.33.65-.54.91.8.21,1.26-.4,1.67-.98.42-.61.81-1.23,1.69-1.27l-.08-.61.12.02c-.18-.22-.17-.73-.06-.93.53.33.85,1.07,1.39.58.82.05,1.05-1.33,1.32-2.08-.36.22-.5-.11-.53-.37.23-.26.8-.01.8-.39l.62.51c-.65-.4.03-1.24-.16-1.56.59.22.04.76.31,1.11.88-1.19.46-.57,1.29-1.81-.04-.98-.7-.32-1.06-1.03.26-.63.1-1.44.88-1.85l-.73-.14c.09-1.3.42-1.83,1.38-2.33-.58-2.61-1.76-3.8-2.68-4.37-.95-.57-1.76-.66-2.41-.41-.66.14-1.12.41-1.47.62-.35.21-.51.39-.51.39-.99.65-1.1,1.22-1.16,2.11-.05.87-.04,2.04-.8,3.27"/>
  <path class="cls-1" d="M18.61,105.68l.55-.38c-.12-.06-.31.02-.55.38"/>
  <path class="cls-1" d="M149.14,109.66s.08.08.12.1c-.07-.08-.1-.1-.12-.1"/>
  <path class="cls-1" d="M39.58,95.05l-.02.02s-.04.09-.06.13l.08-.15Z"/>
  <path class="cls-1" d="M23.77,115.96c.85-1.64,1.61-2.94,2.38-4.02.74-1.1,1.44-2.04,2.15-2.94.69-.92,1.37-1.85,2.12-2.89.72-1.09,1.54-2.25,2.46-3.76,2.11-2.57,4.27-5.26,6.66-7.29.27-.86,1.09-1.54,2.03-2.05.46-.27.93-.55,1.35-.87.44-.29.85-.59,1.15-1l.89.23c.4-.58,1.01-1.04,1.72-.96l.03.18c.69-.77,1.75-.94,2.14-1.26l.02.18,1.07-.42-.11.3c1.39-1.01,3.14-1.36,4.66-1.51l-.27-.69c1.72.12,2.81-.22,3.89-.54,1.09-.26,2.17-.5,3.73-.16l-.03.18c3.96-2.2,6.5.95,10.63-1-.52.24.23.37.2.55,1.93-.26,4-.39,4.02-1.83,1.42,0,1.16.45,1.35,1-.01-.63,1.22-.91,2.33-.94l-.51.24,3.18-.19-.61-1.2c1.69.37.41,1.46,2.03,1.2v-.99c2.34.25,3.66,1.79,5.87,2.62,4.66.42,9.46.2,14.09.5,4.62.27,9.14,1.12,12.64,3.34l.07.82c-.12.54.52.35,1.21.17.67-.16,1.39-.31,1.32.21.35-.03.71-.06,1.05-.07.15.29.55.72.04.74.74.41.85.24,1.54.24l.47,1.03c1.31,1.02,2.66,1.68,4.07,2.41.69.38,1.38.77,2.07,1.22.66.49,1.34.99,1.93,1.67,1.09,1.95,3.12,4.18,5.15,6.59,2.05,2.39,4.11,4.95,5.53,6.94,2.26,2.68,3.04,6.44,3.49,10.14.47,3.73.63,7.43,2.12,10.75-.11.25.33.78.45.76.27,2.15.48,4.3.63,6.47,0,0,.18,1.97.41,4.57.25,2.6.57,5.83,1.1,8.33.53,2.5,1.3,4.26,2.54,3.84,1.21-.43,2.98-2.99,5.02-9.44l.24.16c.44-3.82.37-6.28-1.06-8.79,1.43-.56-.18-3.15.17-4.1l.13.07c-1.43-2.16.22-4.96-1.23-7.04.13.06.53.03.66.55-.49-1.61-1.32-3.76-.53-4.08-.58-1.93-1.18-4.28-1.98-6.39-.79-2.11-1.79-3.97-2.9-4.9l.28.07c-1.43-.99-.86-1.71-2-3,.06-.13.06-.26.11-.26-1.47-1.05-2.26-4.08-3.28-5l.44-.36c-.57-.9-1.22-1.76-1.82-2.64l.55,1.07c-1.51.51-.5-2.59-2.75-3.86-.58-.93-1.91-1.29-3.18-1.63-1.25-.37-2.5-.65-2.95-1.72-1.26-.22,1.5-.19-.02-.89.53-.61.89.16,1.06-.58-.7-.41-1.02-1.01-1.39-1.62-.38-.6-.85-1.22-1.76-1.66l.34-.54c-1.38-.35-2.16-1.29-2.97-2.09-.78-.82-1.51-1.58-2.55-1.55-1.26-.49-1.42-1.1-1.65-1.65-.23-.54-.51-1.09-2.06-1.13l-.62-1.25c-1.05-.63-1.22.61-2.27-.3.29-.48-1.41-1.02-.49-1.21-1.27-.95-2.84-1.18-4.48-1.44-1.64-.25-3.35-.56-5.1-1.67-1.05.82-2.83-.14-3.58.52-.02-.48-3.79-.68-1.5-1.33.2-.05.52.02.47.19l.36-.57c-2.02-1.52-4.05.06-6.15-.35.61.26,1.46.32.85.67l-1.96-.29.46-.48-2.91-.57.35.68c-1.4-.45-1.83-1.58-3.5-.76-.75.47,1.29.95-.22,1.06-1.87-.56-4.66-1.35-7.07-1.62.2.74-.45.69-1.12.82l-.06-.64c-2.58.81-.91-1.42-3.47-.77l.23-.44-.69,1.31c-2.3,1.22-1.23-1.33-3.79.37,1.01-.11.47,1.39-.76,1.12l.31-.61c-.68.13-.91.38-1.37.26.4-.33.21-.89-.8-.78l.67-.77-1.9,1.14c-1.48-.63-3.8.24-4.42-.59,0,0-3.19-.31-3.87.67.61-.61-1.15-.75-.68-1.46-.79.69-3.18,1.37-4.19.73l.18-.09c-1.82-.25-3.52.2-5.04.56-1.56.44-3.04.89-4.83.75.3.68-1.58.7-.93,1.52-.82.43-1.64.61-2.43.71-.79.13-1.55.2-2.24.28-.68.09-1.28.23-1.73.53-.44.33-.71.84-.75,1.64-1.43.75-2.04.08-2.89.29.1-.11.19-.21.3-.3-2.69,1.58-3.47,2-5.45,3.19-.41.42-.47.94-.65,1.45-.16.53-.45,1.06-1.34,1.53.2-.82-.4-.25-1.01.21.33-.35.34-.61-.69-.28-.01.21-.12.43-.21.63-.03-.03-.08-.02-.1-.08-.83.98-.55.96-.07.63.03.08.14.13.36.12-1.43.34-2.67,2.43-3.38,1.92-.62.72-1.16,1.43-1.64,2.11-.46.7-.83,1.41-1.19,2.09-.76,1.34-1.28,2.7-2.02,4.03-.59,0-.52-.81-.14-1.64l-1.12,1.87c-.57-.4.4-1.24.68-1.87-.6.37-1.06.87-1.41,1.45-.33.59-.58,1.24-.83,1.9-.53,1.32-.95,2.7-2.13,3.76l.17.8-.17.11c.25.13.27.89.16,1.32-.71.1-1.2-.66-1.83.67-.52.39-.84,1.16-1.05,2.03-.2.87-.32,1.82-.49,2.57.43-.7.62-.32.66.08-.29.67-1,.8-1,1.42l-.76-.26c.81.03-.03,2.14.19,2.52-.71.19-.05-1.28-.38-1.62-1.06,2.87-.57,1.42-1.48,4.35.09,1.73.81-.05,1.25.89-.26,1.4-.07,2.83-.84,4.3l.79-.35c.03,2.65-.2,4.1-1.02,5.83.61,2.48,1.42,4.26,2.21,5.53.78,1.27,1.53,2.03,2.16,2.46,1.25.88,2.04.64,2.46-.19.47-.71.69-1.77.85-2.66.09-.45.15-.85.18-1.14.04-.29.07-.48.07-.48.58-2.91.72-5.05.81-7.55.13-2.5.23-5.26,1.67-9.05"/>
  <path class="cls-1" d="M71.78,58.69l.29-.41c-.14,0-.25.11-.29.41"/>
  <path class="cls-1" d="M92.69,48.04s.03.07.06.1c-.02-.07-.04-.09-.06-.1"/>
  <path class="cls-1" d="M81.86,43.07s0,.02,0,.02c.03.03.04.07.07.1l-.07-.13Z"/>
  <path class="cls-1" d="M81.04,63.4c.23-5.35,1.57-6.77,1.04-12.28.12-2.63-.13-5.44-.22-8.02-1.03-1.26.09-3.38-.73-4.87l.63-.53c-.28-.51-.46-1.11-.11-1.59l.17.04c-.43-.77-.1-1.59-.31-1.98l.18.04-.02-.91.24.17c-.4-1.33-.37-2.67-.05-3.83l-.74.05c1.01-2.46-.45-3.51.74-5.7l.18.05c-1.69-3.06,1.75-4.4.23-7.55.18.39.4-.11.57-.06l-.02-.52c-.01-.11-.04-.11-.07-.17-.05-.09-.12-.19-.22-.31-.21-.22-.57-.54-1.25-.88.08-.49.47-.14,1,.13-.6-.35-.79-.92-.78-1.34l.2.36-.06-1.23c-.36-.37-.72-.71-1.08-1.03.4-.38,1.29,1.43,1.12.52l-.85-1.22c.16-.44.8-.16,1.55.65.55.61,1,1.43,1.29,1.98.67.68,1.13.31,2.63.86.33.12.58.4.64.73.06.32.04.66.01,1l-.13,1.05c-.06.41-.13.81-.21,1.21-.16.8-.38,1.58-.66,2.34l-.76.22c-1.1.03,1.47,1.85.45,2.01l.44.76c-.21.19-.45.6-.67.22-.09.67.08.7.37,1.21l-.73.67c-.72,2.61.42,4.96-.03,7.73-1.61,3.26-.72,9.66-.16,13.33,1.36,5.18-3.23,10.94-1.54,16.26-.16.17.17.62.3.62l-.3,4.79s-.06,1.44-.01,3.37c.05,1.93.29,4.77,1.34,6.96.51,1.08,1.18,1.93,1.82,2.35.66.43,1.22.4,1.69-.03.48-.44.82-1.3,1.34-2.48.52-1.2,1.24-2.62,2.33-4.56l.24.1c.55-2.28.78-4.07-.39-5.85,1.47-.24.21-2.13.71-2.73l.12.06c-1.08-1.62,1.04-3.23.09-4.79.11.06.51.11.52.46-.14-1.12-.41-2.65.44-2.7-.12-2.67.44-6.35-.84-8.12l.23.13c-.87-1.01-.07-1.26-.49-2.37.11-.05.18-.13.22-.11-.86-1.1.02-3.09-.32-3.97l.57-.02v-2.11s-.18.78-.18.78c-1.54-.36,1.07-1.54.15-3.12.29-1.41-3.05-3.1-2.19-4.54-.68-.76,1.14.7.65-.4.81.02.48.53,1.14.3-.31-1.06.94-1.65.48-2.97h.63c-1.04-1.76,1.05-3.1.03-4.29-.39-1.76,1.95-1.01.86-2.9l.91-.63c.2-.75-1-.63-.52-1.45.53.09.51-1.04.98-.5.5-.93.28-1.92.14-2.99-.07-.53-.12-1.09-.05-1.66.02-.14.04-.29.08-.43.04-.16.07-.23.14-.54.13-.52.3-1.06.52-1.65-.49-.46-.57-1.21-.7-1.91-.12-.7-.32-1.35-.78-1.52.21-.13-.09-1.12-.43-1.77-.33-.63-.48-1.1.64-.36.18.14.35.48.18.53h.68c-.03-1.45-.98-2.36-2.09-2.93-1.12-.6-2.42-.85-3.44-1.61.54.58,1.4,1.05.58,1.04l-.94-.64-.93-.49.65-.26-2.86-1.66.23.78c-1.26-.96-1.74-2.28-3.46-2.16-.71.17,1.28,1.48-.16.99-.85-.62-1.96-1.4-3.2-2.21-.32-.2-.63-.4-.95-.61-.26-.08-.49-.12-.75-.15-.5-.07-1.04-.01-1.63.14-.12.03-.23.08-.34.13.53.57-.13.79-.51,1.31l-.37-.52c-.6,1.1-.8.94-1.18.73-.36-.25-.68-.27-.93,1.3l-.22-.6c.22.61.45,1.2.69,1.78.08,1.6-.24,1.61-.58,1.75-.32.12-.67.38-.33,2.15.22-1.02,1.35.48.79,1.38l-.47-.65c-.02.18-.03.33-.02.47.02.16.04.3.06.43.03.26.04.46-.05.68-.25-.62-.8-.71-.86.55-.21-.37-.41-.76-.62-1.17.25.98.51,1.88.79,2.73-.21.38-.34.86-.43,1.37-.04.24-.08.55-.1.74-.02.15-.03.31-.04.45-.05.59-.12,1.1-.57,1.26,0,0-.65,2.17.24,2.77-.54-.5-.89.69-1.53.28.59.64.98,2.38.22,2.99l-.07-.14c-.95,2.45.61,4.37-.43,6.55.74-.05.25,1.11,1.21.88.77,2.38-2.17,4.13.67,5.13.1,1.06-.74,1.22-.91,1.76l-.14-.26c.15,1.99.13,2.57.02,4.04.26.75,1.6.91,1.23,2.21-.52-.44-.44.1-.46.59-.07-.32-.27-.42-.65.22.16.1.26.24.34.37-.04,0-.08.03-.13.01.16.83.34.69.42.31.08.02.18,0,.34-.12-.71.83,0,2.37-.93,2.46.15,2.48,1.11,4.25,1.44,6.3-.48.23-.89-.25-1.07-.85l.16,1.46c-.68-.01-.38-.84-.52-1.29-1.13,1.74,1.11,3.58.11,5.62l.54.42-.09.12c.28-.01.68.44.78.74-.59.3-1.37,0-1.31,1.01-.55.81.33,2.26.68,3.29.08-.56.42-.39.63-.16.04.5-.54.81-.28,1.19l-.8.07c.75-.22.86,1.29,1.19,1.46-.58.31-.54-.76-.99-.87.15,2.02.07,1.01.22,3.02.65,1.05.75-.23,1.47.26.2.94.8,1.83.37,2.94l.69-.38c.63,1.74.63,2.8-.02,4.04,3.33,6.4,5.39,6.88,6.55,5.84,1.18-1.04,1.51-3.62,1.51-3.62,1.23-5.17-1-7.65-1.75-13.72"/>
  <path class="cls-1" d="M30.11,137.09h-.3c.13.01.25.02.3,0"/>
  <path class="cls-1" d="M29.63,144.56s.04,0,.07.01c-.02,0-.04,0-.07-.01"/>
  <path class="cls-1" d="M20.09,137.19h0s-.04-.01-.07-.02l.07.02Z"/>
  <path class="cls-1" d="M21.07,135.64c-.41.38-1.79.34-1.28.86-.13.2.16.47.3.69,1.06.21-.01.28.87.48l-.61-.02c.3.07.51.14.17.15l-.18-.02c.45.11.17.15.4.2l-.18-.02.07.08-.25-.04c.48.15.5.26.27.34l.73.06c-.84.12.68.34-.32.43l-.18-.02c1.91.4-1.35.25.46.65-.23-.05-.38-.02-.56-.04.2.13.3.25,1.74.38-.03.08-.46.03-1.01,0,.63.05.89.14.92.21l-.24-.05.2.19,1.2.06c-.35.06-1.46-.09-1.18.02l.99.08c-.21.11-1.71.07-2.45.14-.46.5,2.02,1.24.25,1.61l-.75-.02c-1.09-.06,1.6.23.6.19l.49.09c-.2,0-.41.03-.65-.02-.04.05.13.06.46.12l-.68.02c-.54.18.76.43.48.64-1.39.19-.15.76.58,1.07,1.61.46-2.74.76-.9,1.25-.15,0,.19.05.32.06l-.17.37s-.12.46.9.76c1.02.31,3.16.43,7.69-.11h.24c.58-.16.71-.27-.48-.44,1.46.02.16-.15.63-.18h.12c-1.12-.14.94-.2-.06-.34.12,0,.52.02.54.05-.18-.09-.5-.21.35-.19-.22-.2.19-.45-1.17-.63l.24.02c-.91-.11-.13-.1-.59-.2h.21c-.9-.12-.13-.23-.51-.31l.57.02-.12-.16-.12.05c-1.55-.09.98-.07-.02-.23.2-.09-3.22-.38-2.45-.45-.72-.09,1.18.11.62,0,.81.04.5.06,1.15.08-.38-.1.83-.08.29-.21l.63.03c-1.14-.19.84-.18-.25-.33-.51-.16,1.88.02.65-.18h.85c.14-.05-1.04-.1-.63-.14.54.04.43-.05.94.02.85-.08-1.17-.36.26-.45-1.04-.11-.41-.16-1.2-.24.46.03.09-.18,1.07,0,.08.02.06.03-.11.02l.62.05c1.18-.02-.63-.23-.44-.32-.21.02-.15.06-.58,0l.09-.09.52.06.32-.12-.65-.03c.34-.05,1.44.01.52-.14-.51-.07-.87,0-1.07-.09.45-.06,1.12-.15,1.32-.25-.73-.04-.7-.07-.84-.12l.63.05c-.86-.2,1.39.06.7-.12l.44.05-1.31-.14c-1.24-.21,1.31.05-.38-.22.1.06-1.39-.09-1.11-.13l.61.07c-.13-.04-.38-.08-.25-.09.33.05.88.09.78.03l.76.1-1.11-.19c.66-.02-.15-.2.71-.16,0,0,.43-.12-.5-.24.58.08.81.02,1.49.1-.66-.1-1.19-.27-.48-.25l.08.02c.74-.11-.95-.39-.07-.47-.73-.06-.33-.11-1.26-.18-.91-.26,1.93-.11-.95-.46-.15-.09.69-.02.84-.05l.15.03c-.22-.17-.24-.21-.17-.31-.28-.08-1.61-.23-1.28-.29.53.09.43.04.44,0,.08.03.28.06.64.05-.16-.02-.26-.04-.35-.06.04,0,.08,0,.13.01-.18-.08-.35-.09-.42-.07-.08,0-.19-.01-.34-.03.69.01-.03-.18.89-.08-.19-.2-1.12-.43-1.46-.62.47.04.88.12,1.06.18l-.16-.12c.68.08.38.1.51.15,1.11,0-1.06-.38-.04-.41l-.53-.09h.09c-.28-.03-.66-.11-.75-.14.59.05,1.36.16,1.33.08.57.01-.27-.19-.57-.31-.1.03-.43-.02-.63-.07-.01-.04.57.01.33-.05l.79.09c-.75-.08-.8-.19-1.12-.25.59.05.5.12.94.18-.06-.15-.03-.08-.08-.23-.59-.15-.75-.08-1.44-.2-.15-.09-.69-.23-.21-.25l-.71-.06c-.53-.2-.44-.27.29-.27-2.81-.86-4.76-1.18-6.01-1.27-1.25-.09-1.8.05-1.8.05-1.61.21.41.69.9,1.24"/>
  <path class="cls-1" d="M41.84,139.17h-.3c.14.01.25.02.3,0"/>
  <path class="cls-1" d="M41.55,145.41s.04,0,.07.01c-.02,0-.04,0-.07-.01"/>
  <path class="cls-1" d="M31.85,139.49h0s-.04,0-.07-.01h.07Z"/>
  <path class="cls-1" d="M32.73,138.29c-.38.31-1.76.31-1.22.69-.12.16.18.35.34.52,1.07.14,0,.21.89.36h-.61c.3.05.51.1.18.11h-.18c.46.06.18.1.41.13h-.18s.08.05.08.05l-.25-.02c.48.11.51.2.28.25l.74.04c-.83.1.69.26-.29.34h-.18c1.93.29-1.34.18.49.48-.23-.04-.38-.01-.56-.03.2.1.31.2,1.75.29-.02.06-.46.02-1.01,0,.63.04.89.11.93.16l-.24-.04.21.15,1.2.05c-.35.05-1.46-.07-1.17.02l.99.06c-.2.09-1.71.05-2.44.1-.45.38,2.05.98.28,1.24l-.74-.03c-1.09-.06,1.6.21.6.16l.49.07c-.2,0-.4.01-.65-.02-.04.04.13.05.46.1h-.68c-.53.13.76.35.49.5-1.39.11-.15.58.57.84,1.6.41-2.74.5-.91.93-.15,0,.19.05.32.06l-.17.28s-.51,1.38,8.56.88l.24.02c.59-.12.72-.21-.47-.4,1.46.08.16-.12.63-.13h.12c-1.12-.16.95-.13-.05-.29.12.01.52.04.54.06-.18-.08-.5-.19.35-.14-.21-.18.2-.38-1.15-.57l.24.02c-.91-.12-.13-.08-.59-.18.11,0,.17,0,.22,0-.9-.12-.13-.2-.51-.27l.56.03-.12-.14-.12.04c-1.55-.11.98-.03-.02-.19.2-.08-3.21-.38-2.45-.42-.72-.09,1.18.11.62.01.81.05.5.06,1.15.09-.38-.09.83-.05.29-.16l.63.04c-1.14-.18.84-.14-.25-.28-.51-.14,1.88.05.65-.14h.85c.14-.03-1.04-.09-.63-.11.54.04.43-.04.94.02.85-.06-1.18-.31.25-.38-1.04-.1-.42-.14-1.2-.21.46.03.08-.15,1.07,0,.08.01.06.03-.11.01l.62.05c1.18-.01-.63-.2-.45-.28-.21.01-.15.05-.58,0l.09-.08.52.05.31-.1-.65-.02c.34-.04,1.44.01.52-.11-.51-.06-.87,0-1.07-.07.44-.05,1.12-.13,1.32-.22-.73-.04-.7-.06-.85-.1l.63.04c-.87-.16,1.39.05.7-.1l.44.04-1.32-.11c-1.24-.18,1.31.03-.39-.18.1.05-1.39-.07-1.11-.1l.61.05c-.13-.04-.38-.06-.25-.07.33.04.88.07.78.02l.76.08-1.12-.15c.66-.02-.16-.17.7-.14,0,0,.43-.11-.51-.2.58.06.81,0,1.5.07-.66-.08-1.19-.21-.49-.21h.08c.73-.09-.97-.31-.09-.39-.73-.04-.33-.09-1.27-.13-.92-.2,1.92-.13-.97-.37-.15-.07.68-.03.83-.06l.15.03c-.23-.13-.26-.17-.18-.26-.28-.06-1.62-.15-1.29-.21.53.06.43.02.44,0,.08.02.28.04.64.03-.17-.02-.27-.03-.35-.04.04,0,.07,0,.13,0-.18-.06-.35-.06-.43-.05-.08,0-.19-.01-.33-.01.69,0-.04-.15.88-.09-.2-.16-1.14-.33-1.49-.47.47.02.89.07,1.07.12l-.17-.1c.68.04.39.07.52.11,1.11-.03-1.08-.28-.07-.34l-.53-.06h.09c-.28-.02-.67-.07-.76-.1.59.02,1.36.09,1.33.03.57-.01-.28-.16-.59-.24-.1.03-.43,0-.64-.03-.02-.03.57-.01.32-.05l.8.05c-.75-.04-.81-.13-1.13-.16.59.02.51.08.95.12-.07-.13-.03-.06-.1-.19-.6-.1-.75-.04-1.45-.11-.15-.07-.71-.16-.22-.19l-.71-.02c-.54-.14-.46-.2.26-.23-5.72-1.17-7.87-.67-7.87-.67-1.59.22.47.51,1,.92"/>
  <path class="cls-1" d="M54.53,142.01h-.3c.13,0,.25.01.3,0"/>
  <path class="cls-1" d="M53.9,148.24s.04,0,.06.01c-.02,0-.04-.01-.06-.01"/>
  <path class="cls-1" d="M44.54,141.8h0s-.04-.01-.07-.02l.07.02Z"/>
  <path class="cls-1" d="M45.48,140.64c-.39.29-1.77.21-1.26.62-.13.15.16.36.31.54,1.06.2,0,.21.87.4l-.61-.04c.3.07.5.13.17.12l-.18-.02c.45.1.17.12.4.17l-.18-.02.07.07-.25-.04c.48.14.5.22.27.27l.73.08c-.84.06.67.3-.31.32l-.18-.02c1.91.41-1.35.13.46.52-.23-.05-.38-.03-.56-.06.2.11.3.21,1.74.38-.03.06-.46,0-1.01-.06.63.07.88.16.92.21l-.24-.05.2.16,1.19.11c-.35.03-1.45-.15-1.17-.05l.99.12c-.21.08-1.71-.04-2.44-.03-.47.36,1.99,1.09.21,1.26l-.74-.07c-1.08-.12,1.59.29.59.19l.49.1c-.19-.01-.41,0-.65-.06-.05.04.13.06.45.13l-.68-.04c-.54.1.74.39.46.53-1.4.04-.18.57.53.88,1.58.5-2.77.35-.96.88-.15,0,.19.06.31.07l-.19.27s-.58,1.35,8.51,1.35l.23.03c.59-.09.73-.18-.44-.42,1.45.15.16-.11.64-.09l.12.02c-1.11-.23.95-.09-.04-.3.11.02.51.07.54.09-.18-.09-.49-.22.36-.12-.2-.19.22-.37-1.12-.63l.23.04c-.9-.17-.13-.09-.58-.21.11,0,.17.01.22.02-.89-.17-.12-.21-.5-.3l.56.06-.12-.14-.13.03c-1.54-.2.98.02,0-.19.2-.06-3.19-.55-2.42-.56-.72-.13,1.17.18.62.05.8.09.5.09,1.15.15-.38-.11.83,0,.3-.15l.63.07c-1.13-.24.85-.09-.24-.29-.51-.17,1.87.15.66-.1l.85.06c.14-.03-1.04-.16-.62-.16.54.07.43-.01.94.07.85-.02-1.16-.38.27-.36-1.04-.16-.41-.16-1.19-.28.45.05.09-.15,1.07.06.08.02.06.03-.11,0l.62.08c1.17.05-.62-.24-.43-.3-.21,0-.16.04-.58-.03l.09-.07.52.08.32-.08-.64-.06c.34-.02,1.43.09.53-.09-.51-.09-.87-.05-1.07-.13.45-.03,1.12-.07,1.32-.15-.72-.08-.69-.1-.84-.15l.63.07c-.86-.21,1.39.12.71-.06l.44.06-1.31-.18c-1.23-.24,1.31.1-.38-.2.1.05-1.39-.14-1.11-.16l.6.08c-.12-.04-.38-.08-.25-.09.32.06.88.11.78.06l.76.12-1.11-.21c.66.01-.15-.18.71-.1,0,0,.43-.08-.5-.22.58.09.81.05,1.49.15-.65-.11-1.18-.28-.48-.23l.08.02c.73-.07-.95-.37-.06-.4-.73-.08-.32-.1-1.26-.2-.9-.25,1.92-.03-.95-.42-.15-.08.68,0,.84-.01l.15.03c-.22-.15-.24-.18-.17-.27-.28-.08-1.61-.24-1.28-.28.53.09.43.04.44.02.08.03.28.06.64.06-.16-.03-.26-.05-.35-.06.04,0,.07,0,.13.01-.18-.07-.35-.08-.42-.07-.08-.01-.18-.02-.33-.03.69.03-.03-.15.88-.05-.19-.17-1.12-.39-1.46-.55.47.04.88.12,1.06.18l-.16-.11c.68.08.38.1.51.14,1.1.02-1.07-.34-.05-.35l-.53-.09h.09c-.28-.03-.66-.1-.75-.13.59.05,1.36.16,1.33.1.57.02-.27-.17-.58-.27-.1.02-.43-.03-.63-.07-.02-.03.57.02.32-.03l.79.09c-.75-.08-.8-.17-1.12-.22.59.05.5.11.94.17-.06-.13-.03-.06-.09-.19-.59-.14-.75-.08-1.45-.19-.15-.07-.7-.2-.21-.2l-.71-.06c-.54-.17-.45-.23.28-.22-5.65-1.48-7.83-1.09-7.83-1.09-1.6.13.44.53.94.97"/>
  <path class="cls-1" d="M70.16,146.41l-.29-.05c.13.03.25.05.29.05"/>
  <path class="cls-1" d="M69.06,151.43s.03.01.06.02c-.02,0-.04-.01-.06-.02"/>
  <path class="cls-1" d="M60.3,144.84h0s-.04-.01-.07-.02l.07.02Z"/>
  <path class="cls-1" d="M61.33,144.02c-.41.18-1.77-.07-1.29.33-.14.1.13.32.26.49,1.03.31-.02.17.83.45l-.6-.12c.29.1.49.18.16.12l-.17-.04c.44.15.16.12.38.19l-.17-.04.07.06-.25-.07c.46.18.48.25.24.26l.72.17c-.83-.07.64.34-.34.22l-.17-.04c1.86.6-1.34-.09.42.49-.22-.07-.37-.08-.54-.12.19.12.28.22,1.68.56-.03.04-.45-.07-.99-.19.62.15.86.25.89.3l-.23-.07.18.16,1.17.26c-.35-.02-1.42-.33-1.15-.2l.96.23c-.21.03-1.68-.27-2.41-.36-.49.23,1.88,1.17.11,1.06l-.73-.16c-1.06-.25,1.55.46.57.24l.48.15c-.19-.04-.4-.06-.63-.14-.05.02.12.06.44.17l-.67-.12c-.54,0,.7.42.41.49-1.38-.16-.22.44.45.79,1.52.63-2.76-.1-1.02.59-.15-.03.18.07.3.1l-.21.2s-.68,1.03,8.3,2.29l.23.06c.59,0,.73-.04-.41-.41,1.43.33.17-.07.64.01l.12.03c-1.08-.34.95.06-.01-.25.11.03.5.13.52.15-.17-.1-.47-.25.36-.05-.18-.18.24-.27-1.06-.67l.23.06c-.88-.26-.12-.09-.56-.26.11.02.16.03.21.05-.87-.27-.1-.19-.47-.32l.55.13-.1-.13h-.13c-1.51-.37.97.16,0-.15.21-.02-3.11-.9-2.35-.79-.7-.21,1.14.31.61.12.79.19.49.14,1.12.28-.36-.14.82.11.31-.08l.61.15c-1.1-.35.85.04-.21-.27-.49-.21,1.84.38.66,0l.84.17c.14,0-1.01-.27-.6-.22.52.13.43.05.92.19.84.1-1.12-.47.3-.26-1.01-.27-.39-.19-1.15-.39.44.1.1-.11,1.05.19.08.03.06.03-.11-.01l.6.15c1.16.2-.6-.28-.4-.31-.21-.03-.16.01-.57-.1l.1-.05.51.14.32-.02-.63-.14c.33.03,1.41.27.53,0-.49-.15-.86-.16-1.04-.26.44.04,1.11.1,1.32.07-.71-.16-.68-.18-.82-.24l.62.15c-.83-.29,1.36.29.7.05l.43.11-1.28-.33c-1.2-.37,1.29.27-.36-.22.1.06-1.36-.31-1.08-.29l.59.15c-.12-.05-.37-.12-.24-.11.32.09.86.22.77.16l.74.2-1.08-.33c.65.1-.13-.17.71.02,0,0,.44,0-.47-.25.56.16.79.15,1.46.33-.64-.18-1.14-.39-.45-.26l.08.02c.73.05-.91-.44-.03-.34-.71-.17-.31-.13-1.23-.34-.87-.33,1.9.24-.9-.48-.14-.09.68.1.83.11l.15.05c-.21-.15-.23-.19-.15-.24-.27-.1-1.57-.42-1.24-.41.51.15.43.1.43.07.08.03.27.08.62.14-.16-.04-.26-.07-.34-.1.04.01.07.02.13.03-.18-.08-.34-.12-.41-.12-.08-.02-.18-.04-.33-.07.68.12-.02-.13.88.08-.18-.17-1.08-.48-1.4-.66.46.1.86.22,1.04.29l-.15-.11c.66.16.37.13.5.19,1.09.17-1.03-.43-.02-.29l-.52-.15h.09c-.28-.05-.65-.17-.73-.2.58.13,1.33.32,1.3.27.56.1-.25-.18-.55-.3-.1,0-.42-.08-.62-.14-.01-.03.57.1.32.02l.78.19c-.74-.17-.78-.26-1.09-.34.58.13.49.16.92.27-.05-.11-.02-.06-.07-.17-.57-.19-.74-.17-1.41-.36-.14-.08-.67-.26-.19-.2l-.69-.15c-.51-.22-.42-.25.29-.14-5.47-2-7.65-1.99-7.65-1.99-1.59-.12.39.5.86.93"/>
  <path class="cls-1" d="M82.21,146.78h-.3c.14,0,.25,0,.3,0"/>
  <path class="cls-1" d="M82.05,150.94s.04,0,.07,0c-.02,0-.04,0-.07,0"/>
  <path class="cls-1" d="M72.23,146.79h0s-.04,0-.07,0h.07Z"/>
  <path class="cls-1" d="M73.09,146c-.37.2-1.75.17-1.21.43-.12.1.19.24.35.35,1.07.12,0,.14.9.26l-.61-.02c.31.04.51.08.18.08h-.18c.46.05.18.06.41.09h-.18s.08.03.08.03l-.25-.02c.48.08.51.14.29.18l.74.04c-.83.05.69.19-.29.22h-.18c1.93.23-1.33.09.5.33-.23-.03-.38-.02-.56-.03.21.07.31.14,1.76.23-.02.04-.46,0-1.01-.02.63.04.89.09.93.13l-.24-.03.21.11,1.2.06c-.35.03-1.46-.08-1.17-.02l.99.06c-.2.06-1.7,0-2.44.02-.44.25,2.07.7.31.84l-.74-.04c-1.09-.06,1.6.17.6.12l.49.06c-.2,0-.4,0-.65-.03-.04.02.13.04.46.08h-.68c-.53.06.77.23.49.33-1.39.05-.14.38.59.58,1.61.31-2.73.28-.89.6-.15,0,.19.04.32.04l-.17.18s-.47.91,8.57.77l.23.02c.58-.07.71-.13-.47-.28,1.46.08.16-.08.63-.07h.12c-1.12-.12.94-.06-.06-.19.12.01.52.04.54.05-.18-.06-.5-.14.35-.09-.22-.12.19-.25-1.16-.4l.24.02c-.91-.1-.13-.06-.6-.13.11,0,.17,0,.21,0-.9-.1-.13-.14-.52-.19l.57.03-.13-.09-.12.02c-1.55-.11.98,0-.02-.13.2-.05-3.22-.32-2.45-.33-.72-.07,1.18.1.62.02.81.05.51.05,1.15.08-.38-.07.83-.02.29-.1l.63.04c-1.15-.14.84-.07-.26-.19-.52-.1,1.87.07.65-.08l.85.03c.14-.02-1.04-.09-.63-.1.54.04.43-.02.94.04.85-.03-1.18-.24.24-.25-1.04-.09-.42-.1-1.2-.17.45.03.08-.1,1.06.02.08.01.07.02-.11,0l.62.05c1.17.01-.64-.15-.45-.2-.21,0-.15.03-.58-.01l.09-.05.52.05.31-.06-.65-.03c.33-.02,1.43.04.52-.06-.51-.05-.87-.02-1.07-.07.44-.03,1.11-.06,1.31-.12-.73-.04-.7-.06-.85-.08l.63.04c-.87-.13,1.39.06.7-.05l.44.03-1.32-.1c-1.25-.14,1.31.05-.39-.13.11.03-1.39-.07-1.11-.09l.61.05c-.13-.03-.38-.05-.25-.06.33.03.89.06.78.03l.76.07-1.12-.12c.66,0-.16-.12.7-.08,0,0,.43-.06-.51-.14.58.05.81.02,1.49.08-.66-.07-1.2-.17-.49-.15h.08c.73-.04-.97-.22-.1-.26-.73-.04-.33-.06-1.27-.11-.92-.15,1.91-.05-.98-.27-.15-.05.68,0,.83-.02l.15.02c-.23-.09-.26-.12-.19-.17-.28-.05-1.62-.14-1.3-.17.53.05.43.02.44,0,.08.02.28.03.64.03-.16-.01-.27-.03-.35-.04.04,0,.07,0,.13,0-.19-.05-.35-.05-.43-.04-.08,0-.19-.01-.33-.02.69.01-.04-.1.88-.04-.21-.11-1.15-.24-1.5-.35.47.02.89.07,1.07.1l-.17-.07c.68.04.39.06.52.08,1.1,0-1.09-.21-.07-.23l-.54-.05h.09c-.28-.02-.67-.06-.76-.08.59.03,1.36.09,1.33.04.57,0-.28-.11-.6-.17-.1.02-.43-.01-.64-.03-.02-.02.57,0,.32-.03l.8.05c-.75-.04-.81-.1-1.13-.13.59.03.51.06.95.1-.07-.09-.04-.04-.1-.13-.6-.08-.76-.04-1.45-.1-.15-.05-.71-.12-.22-.13l-.71-.03c-.55-.11-.46-.15.26-.15-5.74-.9-7.88-.61-7.88-.61-1.58.11.48.35,1.01.64"/>
  <path class="cls-1" d="M98.31,149.6l-.28-.1c.12.05.23.09.28.1"/>
  <path class="cls-1" d="M96.4,154.32s.03.02.06.03c-.02-.01-.04-.02-.06-.03"/>
  <path class="cls-1" d="M88.86,146.39h0s-.04-.02-.07-.03l.07.03Z"/>
  <path class="cls-1" d="M90.01,145.76c-.44.11-1.73-.37-1.32.1-.16.08.08.33.18.52.96.48-.05.16.74.59l-.57-.22c.27.15.45.25.14.15l-.16-.07c.41.22.14.15.34.26l-.16-.07.05.07-.23-.11c.42.25.43.33.2.29l.68.29c-.81-.21.58.44-.37.16l-.16-.07c1.73.9-1.31-.31.33.55-.2-.11-.35-.14-.51-.21.17.15.24.26,1.57.83-.04.04-.43-.14-.95-.36.58.25.81.4.83.45l-.22-.11.15.19,1.11.45c-.34-.08-1.35-.56-1.1-.4l.91.39c-.21,0-1.61-.55-2.32-.77-.52.14,1.66,1.46-.06,1.06l-.69-.28c-1-.42,1.45.72.52.33l.44.23c-.18-.07-.38-.13-.6-.24-.05.01.11.08.4.24l-.64-.23c-.53-.09.62.53.32.55-1.33-.39-.29.39.32.85,1.39.88-2.7-.57-1.1.4-.14-.05.17.1.28.15l-.24.16s-.84.89,7.79,3.65l.21.1c.58.11.73.09-.33-.47,1.35.57.18-.04.63.12l.11.05c-1-.52.92.22.03-.25.11.05.47.21.49.23-.15-.12-.42-.32.37.01-.15-.21.28-.22-.93-.84l.21.1c-.82-.41-.1-.11-.51-.35.1.04.16.06.2.08-.81-.41-.07-.2-.41-.39l.52.22-.08-.15h-.13c-1.42-.64.93.3.03-.17.21.01-2.91-1.41-2.18-1.18-.65-.32,1.07.5.58.23.75.32.46.22,1.06.47-.33-.2.79.25.32-.03l.58.25c-1.03-.53.82.19-.16-.3-.44-.28,1.74.69.64.12l.8.31c.14.02-.95-.44-.55-.31.49.21.41.12.87.34.81.24-1.02-.65.34-.21-.95-.44-.35-.25-1.07-.58.42.18.12-.09,1,.37.07.04.05.04-.11-.03l.57.25c1.11.4-.54-.38-.35-.37-.2-.06-.16-.02-.54-.2l.1-.03.47.22.32.03-.6-.24c.32.09,1.34.51.52.09-.46-.23-.82-.3-.99-.43.43.11,1.08.29,1.29.29-.67-.28-.64-.29-.77-.37l.58.25c-.77-.43,1.29.52.68.16l.4.18-1.21-.54c-1.12-.57,1.22.48-.31-.28.08.07-1.29-.54-1.02-.47l.56.25c-.11-.07-.34-.18-.22-.15.3.14.81.36.73.28l.69.32-1.01-.5c.62.21-.1-.19.7.14,0,0,.43.07-.43-.33.53.25.76.28,1.38.57-.6-.29-1.06-.58-.4-.33l.07.04c.71.17-.82-.58.02-.34-.68-.29-.29-.18-1.15-.54-.81-.47,1.83.56-.81-.62-.12-.11.65.21.8.25l.14.07c-.18-.18-.19-.22-.1-.26-.25-.15-1.48-.68-1.16-.61.48.23.4.17.41.14.07.05.25.13.59.24-.15-.07-.24-.12-.32-.16.04.02.07.03.12.05-.16-.11-.31-.17-.39-.18-.08-.03-.17-.07-.31-.13.65.24,0-.12.85.23-.15-.2-.99-.65-1.27-.88.44.18.82.36.97.46l-.13-.13c.62.27.34.19.46.27,1.04.36-.94-.59.03-.29l-.49-.23.08.03c-.26-.11-.61-.29-.69-.34.55.22,1.26.54,1.24.48.54.19-.22-.22-.49-.39-.1-.01-.4-.15-.59-.25,0-.03.54.19.31.07l.74.31c-.7-.29-.72-.38-1.02-.52.55.22.45.24.86.42-.03-.12-.01-.06-.04-.18-.53-.29-.7-.29-1.33-.59-.12-.1-.62-.37-.16-.23l-.66-.27c-.47-.3-.38-.31.31-.08-5.05-2.89-7.2-3.25-7.2-3.25-1.54-.38.3.55.69,1.05"/>
  <path class="cls-1" d="M113.14,151.23h-.3c.14.01.25.01.3,0"/>
  <path class="cls-1" d="M112.92,156.29s.04,0,.06,0c-.02,0-.04,0-.06,0"/>
  <path class="cls-1" d="M103.16,151.38h0s-.04,0-.07,0h.07Z"/>
  <path class="cls-1" d="M104.02,150.41c-.37.24-1.75.23-1.21.54-.12.12.19.29.35.43,1.07.13,0,.17.9.3h-.61c.31.03.51.08.18.08h-.18c.46.05.18.08.41.11h-.18s.08.04.08.04l-.25-.02c.48.1.51.17.28.21l.74.04c-.83.07.69.22-.29.27h-.18c1.93.25-1.33.13.5.4-.23-.03-.38-.02-.56-.03.21.08.31.16,1.75.26-.02.05-.46.01-1.01-.02.63.04.89.1.93.14l-.24-.03.21.12,1.2.05c-.35.04-1.46-.08-1.17,0l.99.06c-.2.07-1.7.02-2.44.06-.44.3,2.06.82.3,1.01l-.74-.03c-1.09-.06,1.6.19.6.14l.49.07c-.2,0-.4,0-.65-.03-.04.03.13.04.46.09h-.68c-.53.09.76.28.49.4-1.39.08-.14.47.58.69,1.61.35-2.74.37-.9.74-.15,0,.19.04.31.05l-.17.22s-.49,1.11,8.57.82l.23.02c.59-.09.72-.17-.47-.33,1.46.08.16-.1.63-.1h.12c-1.12-.14.94-.09-.06-.23.12.01.52.04.54.06-.18-.07-.5-.16.35-.11-.21-.15.19-.3-1.16-.47l.24.02c-.91-.11-.13-.07-.59-.15.11,0,.17,0,.22,0-.9-.11-.13-.16-.51-.23l.57.03-.12-.11-.12.03c-1.55-.11.98-.02-.02-.16.2-.06-3.21-.35-2.45-.37-.72-.08,1.18.1.62.02.81.05.51.06,1.15.08-.38-.08.83-.03.29-.13l.63.04c-1.15-.15.84-.1-.25-.23-.51-.12,1.87.06.65-.11l.85.02c.14-.03-1.04-.09-.63-.11.54.04.43-.03.94.03.85-.04-1.18-.27.25-.3-1.04-.09-.42-.12-1.2-.19.46.02.08-.12,1.07.01.08.01.07.02-.11,0l.62.05c1.17,0-.64-.17-.45-.23-.21,0-.15.04-.58,0l.09-.06.52.05.31-.08-.65-.03c.34-.03,1.43.03.52-.09-.51-.06-.87-.01-1.07-.07.44-.04,1.11-.09,1.31-.16-.73-.04-.7-.06-.85-.09l.63.04c-.87-.14,1.39.06.7-.07l.44.04-1.32-.11c-1.25-.16,1.31.04-.39-.15.1.04-1.39-.07-1.12-.1l.61.05c-.13-.03-.38-.05-.25-.06.33.03.89.06.78.02l.76.07-1.12-.14c.66,0-.16-.14.7-.1,0,0,.43-.08-.51-.17.58.06.81.01,1.49.07-.66-.07-1.2-.19-.49-.17h.08c.73-.06-.97-.26-.09-.31-.73-.04-.33-.07-1.27-.12-.92-.17,1.92-.09-.97-.31-.15-.06.68-.02.83-.03l.15.02c-.23-.11-.26-.14-.18-.21-.28-.05-1.62-.15-1.29-.19.53.05.44.02.44,0,.08.02.28.04.64.03-.17-.01-.27-.03-.35-.04.04,0,.07,0,.13,0-.19-.05-.35-.06-.43-.04-.08,0-.19-.01-.33-.01.69,0-.04-.12.88-.07-.21-.13-1.15-.28-1.5-.4.47.02.89.07,1.07.11l-.17-.08c.68.04.39.07.52.1,1.1-.02-1.08-.24-.07-.28l-.54-.05h.09c-.28-.02-.67-.06-.76-.09.59.02,1.36.09,1.33.04.57,0-.28-.13-.59-.2-.1.02-.43,0-.64-.03-.02-.03.57,0,.32-.04l.8.05c-.75-.04-.81-.12-1.13-.14.59.02.51.07.95.1-.07-.1-.03-.05-.1-.16-.6-.09-.76-.04-1.45-.11-.15-.06-.71-.14-.22-.16l-.71-.03c-.54-.12-.46-.17.26-.18-5.73-1.01-7.88-.64-7.88-.64-1.58.16.47.42,1.01.76"/>
  <path class="cls-1" d="M126.18,152.3l-.29.03c.14,0,.25-.01.29-.03"/>
  <path class="cls-1" d="M126.46,156.21h.07s-.04,0-.07,0"/>
  <path class="cls-1" d="M116.26,153.34h0s-.05,0-.08,0h.08Z"/>
  <path class="cls-1" d="M117.03,152.51c-.35.22-1.72.34-1.15.53-.11.11.21.2.38.29,1.08,0,.02.13.92.15l-.61.05c.31,0,.52.02.19.05h-.18c.46.02.19.06.42.06h-.18s.08.04.08.04h-.25c.49.03.52.08.3.14l.74-.04c-.82.13.71.1-.26.23h-.18c1.95.03-1.32.24.53.28-.23,0-.38.02-.56.03.21.04.33.1,1.77.03-.02.04-.45.05-1.01.08.63-.03.9,0,.94.02h-.24s.22.07.22.07l1.2-.07c-.34.06-1.46.07-1.17.11l.99-.04c-.19.07-1.69.18-2.42.27-.41.27,2.13.44.39.75l-.74.04c-1.09.05,1.61,0,.61.05h.5c-.19.02-.4.05-.65.04-.04.03.14.02.47.02l-.67.06c-.52.12.79.15.53.27-1.37.19-.1.37.65.48,1.63.12-2.69.54-.82.65-.15.01.19.02.32.01l-.15.19s-.38.9,8.6-.17h.24c.57-.13.7-.2-.5-.21,1.46-.07.15-.09.62-.13h.12c-1.13-.01.93-.17-.08-.18.12,0,.52-.02.54,0-.19-.03-.51-.08.34-.12-.23-.09.16-.25-1.2-.26h.23c-.92,0-.14-.05-.6-.07.11,0,.17-.01.21-.01-.91,0-.15-.11-.53-.13l.56-.03-.14-.07-.12.03c-1.55.06.97-.1-.04-.12.19-.06-3.23.03-2.47-.06-.73,0,1.18-.03.62-.04.81-.04.51,0,1.15-.04-.39-.02.82-.1.27-.13l.63-.03c-1.16-.01.83-.16-.28-.15-.52-.04,1.87-.13.63-.14l.85-.06c.14-.04-1.05.02-.64-.03.54-.02.43-.06.94-.06.84-.11-1.2-.1.22-.26-1.05.02-.43-.05-1.21-.03.46-.02.07-.1,1.06-.09.08,0,.07.01-.11.02l.62-.02c1.17-.11-.65-.07-.47-.14-.21.03-.15.04-.58.05l.08-.05h.52s.3-.1.3-.1l-.65.04c.33-.05,1.43-.11.51-.11-.51,0-.87.07-1.07.04.44-.07,1.1-.17,1.29-.24-.73.04-.7.02-.85,0l.63-.03c-.88-.03,1.39-.08.69-.12h.44s-1.32.03-1.32.03c-1.25,0,1.31-.09-.4-.08.11.02-1.39.07-1.12.03l.61-.02c-.13-.01-.38,0-.26-.03.33,0,.89-.03.78-.05l.76-.02h-1.12c.65-.07-.17-.09.69-.15,0,0,.42-.1-.52-.08.58-.01.81-.07,1.49-.08-.66,0-1.21-.03-.5-.09h.08c.72-.12-.99-.12-.12-.24-.73.04-.34-.03-1.27.03-.93-.05,1.9-.24-1-.15-.16-.03.68-.08.83-.1h.15c-.24-.06-.27-.08-.2-.14-.28-.02-1.63.04-1.31-.02.53,0,.43-.02.43-.04.08,0,.28,0,.64-.04-.17,0-.27,0-.35,0,.04,0,.08,0,.13,0-.19-.02-.36-.01-.43,0-.08,0-.19,0-.33.02.69-.06-.05-.09.87-.13-.22-.08-1.17-.11-1.53-.17.47-.03.89-.03,1.08-.01l-.18-.05c.68-.03.39.01.53.03,1.1-.11-1.1-.09-.1-.21h-.54s.09,0,.09,0c-.28.01-.67.01-.76,0,.59-.04,1.36-.06,1.33-.09.57-.05-.29-.07-.61-.1-.1.03-.43.03-.64.03-.02-.02.57-.05.32-.06l.8-.04c-.75.04-.82-.01-1.14,0,.59-.04.51,0,.96,0-.08-.07-.04-.04-.12-.11-.6-.01-.76.04-1.46.05-.16-.03-.72-.04-.24-.1l-.71.04c-.55-.04-.47-.09.24-.16-5.8-.25-7.9.24-7.9.24-1.56.27.51.28,1.07.49"/>
  <path class="cls-1" d="M147.15,154.21l-.29-.04c.13.03.25.05.29.04"/>
  <path class="cls-1" d="M145.87,160.09s.03.01.06.02c-.02-.01-.04-.02-.06-.02"/>
  <path class="cls-1" d="M137.25,152.83h0s-.04-.02-.07-.02l.07.02Z"/>
  <path class="cls-1" d="M138.31,151.83c-.42.23-1.78,0-1.31.44-.14.13.13.36.25.55,1.03.32-.03.2.83.49l-.6-.11c.29.1.49.18.16.14l-.17-.04c.44.15.16.14.38.21l-.17-.04.06.07-.24-.07c.46.19.47.27.24.29l.72.16c-.84-.04.64.36-.34.27l-.17-.04c1.85.61-1.35-.04.4.56-.22-.07-.37-.08-.54-.12.19.13.27.24,1.68.57-.03.05-.45-.06-1-.18.62.15.86.26.89.31l-.23-.08.18.18,1.17.25c-.35-.01-1.43-.32-1.16-.18l.97.23c-.21.05-1.69-.24-2.42-.31-.5.28,1.86,1.27.08,1.23l-.73-.15c-1.06-.24,1.54.47.56.25l.47.15c-.19-.03-.4-.06-.63-.13-.05.03.12.07.44.17l-.67-.11c-.55.03.7.46.4.56-1.39-.12-.24.52.43.9,1.52.66-2.78,0-1.04.73-.15-.03.18.08.3.11l-.21.24s-.72,1.23,8.3,2.29l.23.06c.6-.02.74-.08-.4-.46,1.43.32.18-.09.65-.01l.11.03c-1.07-.35.96.03,0-.29.11.03.5.12.52.15-.16-.11-.46-.27.37-.08-.18-.2.25-.33-1.05-.74l.23.06c-.88-.27-.12-.1-.55-.27.11.02.17.03.21.04-.87-.27-.1-.21-.46-.35l.55.13-.1-.15-.13.02c-1.51-.37.97.13.01-.19.21-.04-3.11-.91-2.35-.82-.7-.21,1.14.31.61.12.79.18.49.14,1.12.28-.36-.15.83.09.31-.11l.62.14c-1.1-.36.85,0-.21-.31-.48-.22,1.84.36.66-.02l.84.16c.15-.01-1.01-.27-.6-.23.52.12.43.04.92.18.85.08-1.11-.5.31-.32-1.01-.27-.39-.2-1.15-.41.44.1.11-.13,1.05.18.08.03.06.04-.11,0l.6.15c1.16.19-.59-.3-.4-.34-.21-.02-.16.02-.57-.1l.1-.06.51.14.32-.04-.63-.13c.34.02,1.41.25.53-.02-.49-.15-.86-.15-1.05-.25.45.03,1.12.07,1.33.02-.71-.16-.68-.18-.82-.24l.62.14c-.83-.3,1.36.28.71.02l.43.11-1.28-.33c-1.2-.38,1.29.25-.35-.24.1.06-1.36-.3-1.08-.29l.59.15c-.12-.06-.37-.12-.24-.11.32.09.86.21.77.15l.74.2-1.08-.33c.65.09-.13-.19.72-.01,0,0,.44-.03-.47-.27.56.16.8.14,1.46.32-.64-.18-1.14-.4-.45-.28l.08.03c.74.02-.9-.47-.02-.4-.72-.16-.31-.14-1.23-.34-.87-.34,1.91.2-.9-.51-.14-.1.68.08.83.09l.14.05c-.2-.17-.22-.2-.14-.27-.26-.11-1.57-.42-1.24-.42.51.15.43.09.43.06.08.04.27.09.63.13-.16-.04-.26-.07-.34-.1.04,0,.07.02.13.03-.17-.09-.34-.12-.41-.11-.08-.02-.18-.04-.33-.07.68.11-.01-.15.88.06-.17-.19-1.08-.51-1.4-.7.46.1.86.22,1.04.29l-.15-.12c.66.16.37.14.5.19,1.1.15-1.02-.45-.01-.34l-.52-.15h.09c-.28-.05-.65-.17-.73-.2.58.12,1.33.31,1.31.25.57.09-.25-.19-.54-.33-.11.01-.42-.08-.62-.14-.01-.03.57.09.33,0l.78.18c-.74-.16-.77-.26-1.09-.35.58.12.49.16.92.27-.05-.13-.02-.06-.07-.2-.57-.2-.74-.16-1.42-.35-.14-.09-.67-.27-.19-.22l-.69-.14c-.51-.23-.42-.27.3-.17-5.45-2.08-7.65-1.97-7.65-1.97-1.6-.06.38.56.84,1.04"/>
  <path class="cls-1" d="M163.19,157.31l-.3-.03c.13.02.25.04.3.03"/>
  <path class="cls-1" d="M161.1,163.94s.03.02.06.04c-.02-.01-.04-.03-.06-.04"/>
  <path class="cls-1" d="M153.28,156.16h0s-.04-.01-.07-.02l.07.02Z"/>
  <path class="cls-1" d="M154.23,155.48c-.39.17-1.76-.03-1.25.28-.13.08.15.25.3.39,1.04.29-.02.14.84.41l-.6-.12c.29.09.49.17.17.11l-.17-.04c.44.14.16.11.39.18l-.17-.05.07.06-.24-.07c.46.17.47.24.25.23l.71.19c-.83-.11.64.34-.33.17l-.17-.05c1.83.67-1.33-.19.4.47-.21-.08-.37-.1-.54-.16.18.12.27.21,1.65.65-.03.04-.44-.1-.98-.26.6.19.84.31.87.36l-.23-.09.17.17,1.14.35c-.35-.05-1.39-.44-1.13-.3l.94.31c-.21.02-1.65-.42-2.36-.59-.49.11,1.75,1.33.02.95l-.69-.27c-1.01-.41,1.46.69.52.31l.45.22c-.18-.07-.38-.13-.6-.24-.05.01.11.08.41.23l-.63-.24c-.53-.11.63.51.34.51-1.32-.44-.27.32.31.81,1.34.97-2.62-.82-1.09.25-.14-.07.15.12.26.18l-.24.11s-.21.16.57.83c.8.65,2.53,1.96,6.69,3.79l.2.13c.59.14.76.1-.21-.6,1.28.71.2-.05.63.15l.1.06c-.93-.65.93.25.1-.33.1.06.45.25.46.29-.12-.16-.36-.41.39,0-.11-.27.37-.33-.79-1.06l.21.11c-.79-.48-.08-.14-.47-.42.1.05.15.07.2.09-.78-.47-.03-.25-.36-.47l.51.24-.06-.19h-.13c-1.39-.69.93.32.06-.21.22-.01-2.85-1.54-2.12-1.3-.64-.34,1.06.53.58.23.74.33.45.24,1.05.49-.32-.22.8.24.34-.06l.58.25c-1.01-.57.85.14-.13-.37-.43-.31,1.76.66.67.06l.81.29c.15,0-.95-.44-.55-.34.5.21.43.09.89.32.83.18-1.01-.71.39-.35-.96-.42-.35-.28-1.07-.59.43.16.13-.14,1.02.31.07.04.05.05-.11-.02l.57.23c1.14.31-.54-.41-.33-.44-.2-.04-.17.01-.56-.16l.11-.06.48.2.34-.03-.62-.2c.34.05,1.38.4.54,0-.47-.2-.84-.23-1.01-.37.45.06,1.12.15,1.34.09-.69-.22-.66-.25-.79-.32l.6.2c-.79-.4,1.33.4.71.05l.42.15-1.24-.45c-1.15-.5,1.27.35-.32-.3.09.08-1.33-.41-1.05-.38l.58.2c-.11-.07-.35-.16-.23-.14.31.12.84.28.76.2l.72.26-1.04-.43c.65.12-.1-.23.73,0,0,0,.45-.03-.44-.33.55.2.79.18,1.44.39-.62-.23-1.11-.49-.42-.35l.07.03c.74.01-.87-.56.02-.49-.71-.18-.3-.16-1.21-.38-.86-.38,1.92.18-.88-.58-.14-.11.68.08.83.08l.14.05c-.2-.19-.22-.23-.13-.32-.26-.11-1.57-.42-1.24-.43.52.15.43.09.43.06.08.04.27.09.63.12-.16-.05-.26-.08-.34-.1.04,0,.07.02.13.03-.17-.1-.34-.12-.42-.11-.08-.02-.18-.04-.33-.06.69.09-.01-.16.89.03-.17-.21-1.08-.52-1.4-.71.47.08.87.19,1.04.26l-.15-.13c.67.13.37.13.5.19,1.1.09-1.03-.44-.02-.39l-.52-.12h.09c-.28-.04-.66-.14-.74-.18.59.09,1.35.24,1.32.17.57.05-.26-.2-.56-.32-.11.02-.43-.05-.63-.1-.01-.03.57.04.33-.02l.79.13c-.75-.11-.79-.22-1.11-.28.59.07.49.13.93.21-.05-.15-.03-.07-.08-.22-.58-.16-.75-.1-1.44-.24-.15-.08-.69-.22-.2-.22l-.7-.08c-.53-.19-.44-.23.28-.21-2.82-.77-4.78-.98-6.03-1.09-1.25-.1-1.79-.07-1.79-.07-1.58,0,.46.36.96.72"/>
  <path class="cls-1" d="M39.66,226.1l-.34.27c.14.01.26-.05.34-.27"/>
  <path class="cls-1" d="M45.37,308.24s.04.05.07.08c-.03-.05-.05-.07-.07-.08"/>
  <path class="cls-1" d="M28.74,238.2s0-.02,0-.02c-.03-.03-.04-.06-.07-.09l.07.11Z"/>
  <path class="cls-1" d="M31.23,220.67c-1.06,4.52-2.69,5.62-2.51,10.51-.37,2.3-.04,4.76.02,7,1,1.08,0,2.92.9,4.17l-.6.49c.31.43.52.92.2,1.36l-.18-.02c.46.63.2,1.36.45,1.66l-.18-.02.11.77-.26-.12c.54,1.09.62,2.23.44,3.24l.73-.12c-.74,2.2.88,2.86.04,4.85h-.18c2.11,2.25-1.01,3.94,1.08,6.25-.26-.29-.36.17-.54.16.32,1.12.56,2.33,2,2.19.07.83-.37.72-.91.89.63-.07.98.61,1.09,1.25l-.28-.27.43,1.82,1.15-.5c-.23,1.02-1.42.42-1.02,1.32l.98-.13c-.04,1.37-1.43,2.35-1.98,3.74.27,5.49,3.59,10.92,2.51,16.13l-.71.31c-1.07.23,1.77,1.16.8,1.48l.57.52c-.17.19-.34.55-.62.3.02.54.2.53.58.88l-.6.66c-.25,2.17,1.22,3.8,1.21,6.04-1.09,2.79.62,7.62,1.5,10.46.97,1.97.33,4.17-.12,6.67-.22,1.24-.39,2.57-.27,3.91.12,1.34.54,2.71,1.44,3.84-.08.22.41.53.52.48.27.77.61,1.56,1.03,2.39.43.79.9,1.56,1.45,2.27,0,0,.96,1.34,2.75,2.62.9.63,2,1.24,3.21,1.63,1.22.39,2.53.54,3.66.41,1.13-.14,2.05-.51,2.56-1.01.53-.49.6-1.03.35-1.61-.26-.6-.91-1.17-1.66-2.03-.75-.85-1.53-2-1.93-3.5l.16-.19c-.8-1.11-1.14-1.67-2.72-1.72.53-.51.41-.75.17-.95-.23-.2-.58-.4-.43-.65l.12-.03c-.7-.12-.69-.74-.62-1.27.08-.56.19-1.07-.41-1.44.12.01.52-.06.59.15-.36-.61-.84-1.6-.01-1.78-.51-1.7-.24-4.58-1.66-5.94l.24.09c-.95-.75-.19-1.03-.71-1.91.11-.06.16-.12.21-.11-.96-.83-.3-2.55-.74-3.23l.56-.09c-.09-.58-.15-1.16-.26-1.73l-.07.66c-1.56-.1.85-1.39-.26-2.57.09-1.2-3.43-2.08-2.79-3.36-.79-.5,1.23.39.58-.42.8-.11.55.35,1.17.06-.48-.81.67-1.48,0-2.47l.62-.11c-1.3-1.24.54-2.68-.66-3.46-.69-1.34,1.74-1.17.33-2.48l.78-.68c.06-.64-1.1-.32-.77-1.06.54-.03.32-.93.87-.59.64-1.69-1.6-3.02-.46-5.27-1.1-.31-.62-1.43-1.44-1.66.44-.12-.21-2.08.93-1.05.09.09.1.27-.08.28l.63.06c1-1.32-.93-2.04-.9-3.22-.16.37-.04.82-.51.57l-.06-1.08.55.15.09-1.64-.61.31c.22-.83,1.28-1.24.26-2-.56-.33-.77.85-1.08.06.3-1.1.76-2.74.78-4.1-.71.22-.73-.15-.92-.49l.62-.12c-1.04-1.3,1.32-.68.46-1.99l.45.07-1.36-.21c-1.39-1.11,1.22-.83-.64-2.03.17.54-1.35.42-1.16-.29l.63.1c-.17-.36-.44-.46-.35-.73.36.19.89.02.73-.52l.8.29-1.22-.92c.57-.87-.38-2.07.45-2.48,0,0,.24-1.77-.73-2.08.62.29.75-.68,1.46-.47-.69-.38-1.33-1.66-.67-2.24l.09.09c.58-1.99-1.27-3.27-.45-5.06-.73.12-.37-.82-1.3-.55-1-1.78,1.74-3.36-1.15-3.93-.16-.82.67-.99.82-1.42l.15.19c-.25-1.53-.28-1.98-.22-3.13-.29-.57-1.65-.68-1.28-1.71.52.34.44-.08.45-.46.07.25.27.33.65-.17-.16-.07-.26-.19-.34-.29.04,0,.08-.02.13-.01-.17-.64-.34-.54-.42-.24-.08-.02-.19,0-.34.09.71-.64.02-1.86.94-1.9-.18-1.93-.95-3.35-1.18-4.99.49-.14.87.28,1.01.75l-.07-1.14c.68.07.33.68.44,1.04,1.23-1.22-.9-2.88.37-4.32l-.49-.39.1-.08c-.28-.03-.62-.44-.67-.68.62-.14,1.35.21,1.43-.56.66-.52-.04-1.77-.22-2.62-.17.41-.47.22-.65,0,.06-.39.69-.5.5-.84l.8.11c-.77.01-.59-1.15-.88-1.35.63-.1.37.69.79.87.25-1.54.12-.77.37-2.3-.42-.95-.77-.02-1.37-.56,0-.74-.41-1.66.28-2.28l-.75.06c-.18-1.44.25-2.27,1.28-2.67-.11-1.34.07-2.56.44-3.52.36-.95.78-1.67,1.04-2.23.32-.57.21-1.08.11-1.47-.12-.39-.35-.7-.63-.93-.85-.46-2.3-.42-3.45,0-1.16.39-1.99,1.04-1.99,1.04-1.86,1.27-2.83,2.74-3.44,3.98-.61,1.26-.87,2.43-.99,3.59-.07.62-.05,1.09-.03,1.57.02.49.03,1.01.05,1.54.02,1.07.02,2.24-.12,3.56"/>
  <path class="cls-1" d="M71.28,323.58l.51.25c-.02-.13-.15-.24-.51-.25"/>
  <path class="cls-1" d="M121.84,247.27s-.03-.08-.05-.12c.02.08.03.11.05.12"/>
  <path class="cls-1" d="M90.98,331.8h-.03s-.09.05-.12.09l.14-.09Z"/>
  <path class="cls-1" d="M66.23,333.22c6.51-.23,8.35.99,15.01-.17,3.21-.18,6.6-.8,9.71-1.25,1.39-1.2,4.11-.39,5.79-1.44l.74.54c.58-.36,1.27-.63,1.91-.36l-.02.18c.86-.54,1.91-.36,2.34-.63l-.02.18,1.09-.18-.17.27c1.53-.63,3.16-.81,4.61-.71l-.18-.72c1.57.27,2.6,0,3.59-.24,1.07-.26,2.11-.5,3.81-.29v.18c1.88-1.35,3.56-1.44,5.56-2.01.98-.26,2.04-.71,3.05-1.47,1.03-.81,1.95-2.03,2.34-3.58-.18.79.49-.09.62.04.32-.67.59-1.36.75-2.05.17-.7.24-1.35.22-1.84-.05-1.03-.41-1.64-1.12-1.72.12-1.49.51-1.17,1.08-1.36-.63-.02-.89-1.24-.94-2.14l.25.43-.23-2.69-1.19.54c.34-1.43,1.46-.37,1.16-1.74l-.99.02c.18-1.98,1.68-3.14,2.44-5.04.47-7.89-1.75-16.54.4-23.85l.76-.29c1.1-.08-1.49-2.13-.46-2.35l-.45-.89c.21-.23.45-.73.67-.28.09-.79-.09-.82-.38-1.42l.73-.81c.75-3.1-.39-5.85.15-9.14,1.67-3.85,1.07-11.41.75-15.79-1.03-6.22,4.01-12.8,2.85-19.18.18-.18-.11-.74-.24-.75l.79-5.65s.89-6.86.36-11.24c-.52-4.38-2.47-6.29-8.16,3.66l-.22-.17c-.93,3.04-1.28,4.99-.34,7.27-1.49.18-.44,2.54-.99,3.22l-.11-.08c.9,2.02-1.36,3.81-.56,5.75-.11-.08-.5-.17-.48-.59.04,1.36.16,3.22-.7,3.23-.12,3.22-.98,7.64.18,9.82l-.22-.16c.8,1.26-.02,1.52.32,2.87-.12.06-.18.15-.23.13.78,1.36-.21,3.73.08,4.79h-.57s-.1,2.56-.1,2.56l.2-.94c1.52.47-1.14,1.83-.3,3.76-.35,1.71,2.91,3.76,2.02,5.48.66.91-1.12-.84-.66.47-.81-.02-.46-.64-1.13-.36.28,1.28-.99,1.99-.56,3.58l-.63.02c1.01,2.1-1.1,3.75-.09,5.17.37,2.11-1.97,1.27-.87,3.52l-.9.79c-.19.92,1.01.73.53,1.74-.53-.09-.51,1.28-.98.65-.99,2.29.95,4.81-.62,7.82,1.02.71.34,2.24,1.11,2.77-.46.06-.19,3.11-1.11,1.33-.08-.15-.05-.42.13-.39l-.61-.23c-1.23,1.72.52,3.22.3,4.96.22-.51.18-1.2.6-.73l-.12,1.62-.51-.35-.36,2.41.65-.32c-.36,1.17-1.48,1.57-.57,2.92.51.61.88-1.11,1.07.14-.46,1.57-1.14,3.93-1.35,5.95.73-.19.7.36.86.91l-.63.06c.89,2.14-1.39.79-.68,2.92l-.44-.18,1.32.55c1.26,1.88-1.31,1.12.42,3.09-.12-.77,1.4-.34,1.11.55l-.61-.23c.12.47.37.63.23.9-.32-.28-.87-.14-.82.36l-.73-.4,1,.99c-.38.21-.37.33-.48.53-.07.18-.21.32-.57.07,0,0-.05,0-.09.04-.06,0-.1.04-.21.11-.16.15-.42.44-.37.94-.02-.64-.78-.53-.86-1.25,0,.36-.25.79-.66,1.04-.4.26-.93.34-1.3.05l.1-.1c-1.15-.13-2.16.24-3.25.57-1.18.34-2.37.65-3.72.33.19.72-1.25.45-.82,1.35-2.66,1.17-5.17-1.45-5.9,1.53-1.23.27-1.54-.54-2.2-.63l.28-.18c-2.32.45-2.99.53-4.73.62-.84.36-.86,1.71-2.44,1.53.45-.58-.17-.42-.75-.37.36-.12.46-.32-.33-.61-.09.17-.25.29-.4.39-.01-.04-.04-.07-.03-.13-.95.28-.77.43-.31.46-.01.08.03.18.18.32-1.07-.6-2.8.3-3.01-.6-2.9.47-4.9,1.61-7.29,2.18-.32-.45.21-.92.9-1.16l-1.71.33c-.05-.68.95-.48,1.47-.66-2.15-.91-4.13,1.47-6.62.69l-.45.58-.15-.08c.03.28-.47.72-.82.84-.39-.56-.1-1.36-1.28-1.22-.99-.49-2.65.53-3.85.95.67.04.49.39.22.62-.59.07-.99-.49-1.43-.19l-.13-.79c.3.73-1.48.95-1.67,1.3-.39-.56.88-.59.99-1.05-2.36.28-1.18.14-3.54.43-1.14.7.28.74-.24,1.48-1.05.23-2.11.84-3.32.33l.38.71c-2.04.53-3.36.25-4.45-.74-1.89.27-3.54.19-4.9-.2-1.35-.39-2.39-.95-3.15-1.32-.82-.42-1.26-.37-1.67-.25-.38.14-.64.44-.8.83-.06.55.02,1.31.29,2.11.29.79.72,1.63,1.25,2.32.5.73,1.07,1.22,1.49,1.64.42.38.7.56.7.56,2.16,1.75,4.23,2.45,6.01,2.82,1.8.35,3.39.33,4.94.16,1.54-.17,3.03-.5,4.61-.89,1.42-.38,2.97-.75,4.81-1.05"/>
  <path class="cls-1" d="M120.34,211.9l-.27-.26c.02.13.1.24.27.26"/>
  <path class="cls-1" d="M58.13,212.18s-.04.04-.06.06c.04-.02.05-.04.06-.06"/>
  <path class="cls-1" d="M109.76,203.24h.01s.04-.05.05-.08l-.06.08Z"/>
  <path class="cls-1" d="M122.76,202.52c-2.34-.14-3.54-.31-4.65-.49-1.05-.18-2.09-.22-3.67.27-1.56.1-3.17.6-4.67.93-.61,1.15-1.99.21-2.76,1.19l-.39-.57c-.27.33-.6.57-.92.26v-.18c-.4.5-.92.26-1.12.51v-.18s-.52.12-.52.12l.07-.26c-.73.55-1.53.62-2.24.45l.1.73c-1.55-.72-2.01.82-3.42-.09v-.18c-1.63,2.02-2.74-1.21-4.45.67.21-.23-.1-.38-.09-.56-.81.23-1.67.35-1.67,1.8-.6-.01-.49-.45-.57-1.01,0,.63-.51.9-.97.94l.21-.25-1.34.22.26,1.2c-.71-.34-.18-1.46-.86-1.17v.99c-.98-.21-1.54-1.72-2.47-2.46-3.87-.49-8.24,1.82-11.77-.23l-.1-.75c.02-1.09-1.14,1.52-1.19.5l-.47.46c-.1-.2-.33-.44-.1-.66-.39-.08-.41.1-.72.4l-.35-.71c-1.49-.67-2.95.48-4.59.04-1.84-1.59-5.85-.73-8.15-.12-1.64.72-3.3-.05-5.09-.7-1.77-.67-3.69-1.2-5.36-.12-.13-.14-.39.22-.37.35-1.06.08-2.12.12-3.2.28,0,0-.24.04-.64.12-.4.07-.95.2-1.57.41-1.24.38-2.74,1.07-3.71,1.96-.97.92-1.41,1.94-.75,3,.65,1.1,2.4,2.09,5.25,3.62v.24c1.48.21,2.28.17,3.05-1.17.38,1.4,1.16-.02,1.56.41l-.02.12c.73-1.25,1.85.76,2.59-.32-.03.12-.02.52-.21.56.59-.23,1.43-.57,1.5.27,1.45-.28,3.5.17,4.54-1.15l-.08.23c.6-.89.73-.1,1.38-.53.03.11.07.17.06.22.67-.88,1.81-.01,2.33-.36v.57s1.23-.02,1.23-.02l-.45-.16c.3-1.53.84,1.05,1.84.14.82.28,2.05-3.04,2.86-2.19.5-.68-.5,1.14.2.65-.07.81-.35.47-.25,1.13.66-.32.93.93,1.76.47l-.04.63c1.12-1.04,1.82,1.03,2.61,0,1.1-.41.53,1.93,1.74.81l.35.89c.46.18.43-1.01.92-.55-.08.53.63.49.28.97,1.13.93,2.5-1,3.98.52.41-1.02,1.16-.35,1.46-1.12.01.46,1.58.17.64,1.1-.08.08-.21.05-.2-.12l-.14.61c.84,1.23,1.67-.57,2.54-.34-.26-.22-.61-.18-.35-.59l.82.12-.19.52,1.22.35-.15-.65c.59.35.77,1.46,1.48.56.32-.5-.55-.89.09-1.07.79.47,1.98,1.16,3.01,1.36-.09-.73.19-.7.47-.84l.03.63c1.1-.87.39,1.4,1.48.7l-.1.44.29-1.32c.97-1.25.53,1.31,1.61-.4-.43.11-.21-1.39.31-1.12l-.13.61c.29-.13.38-.38.58-.26-.17.33-.08.89.35.78l-.28.77.8-1.14c.64.64,1.61-.2,1.89.66,0,0,1.36.38,1.64-.57-.25.59.5.79.31,1.49.33-.68,1.34-1.25,1.78-.56l-.08.08c1.57.64,2.56-1.1,3.98-.33-.11-.73.64-.38.4-1.3,1.34-1.01,2.72,1.72,3-1.21.62-.21.81.62,1.16.74l-.14.16c1.18-.34,1.52-.41,2.42-.43.42-.33.35-1.67,1.17-1.43-.2.56.11.43.41.39-.18.11-.22.31.21.62.04-.17.11-.28.18-.38,0,.04.03.07.03.13.47-.24.37-.4.13-.45,0-.08-.03-.18-.11-.32.59.63,1.42-.21,1.59.7,1.46-.39,2.4-1.47,3.58-1.99.2.45-.03.91-.36,1.13l.85-.29c.09.68-.45.46-.7.63,1.2.95,2-1.39,3.35-.57l.16-.57.08.08c-.05-.28.15-.7.31-.82.24.57.19,1.35.7,1.25.48.51,1.06-.4,1.52-.73-.25-.1-.18-.43-.08-.64.24-.03.35.57.52.32v.8c-.06-.76.54-.78.65-1.08.02.6-.36.47-.44.91.68,0,.36,0,.92.06.52-.45.18-.74.59-1.34.4-.02,1.08-.3,1.18.43.1-.23.19-.46.27-.69.98.14,1.29.85.95,1.77.84.35,1.24.96,1.74,1.36.45.43.85.79,1.24.99.37.26,1,.24,1.43.24.45-.02.85-.1,1.2-.21.82-.42,1.45-1.33,1.71-2.27.26-.93.21-1.75.21-1.75.03-1.66-.46-3.09-1.19-4.18-.74-1.1-1.7-1.93-2.81-2.5-1.11-.58-2.35-.91-3.74-1.08-1.43-.19-2.84-.12-4.2.02"/>
  <path class="cls-1" d="M48.95,247.51l.12.27c-.04-.13-.08-.24-.12-.27"/>
  <path class="cls-1" d="M59.44,244.06s0-.04-.01-.07c0,.03,0,.04.01.07"/>
  <path class="cls-1" d="M53.3,256.64h0s0,.05,0,.08v-.08Z"/>
  <path class="cls-1" d="M50.76,256.5c.7.19,1.22,1.47,1.71.76.33.02.57-.37.82-.61-.15-1.07.38-.12.3-1.04l.23.57c-.03-.31-.02-.53.13-.23l.04.17c-.04-.47.13-.23.11-.46l.05.17.08-.1.05.25c.01-.51.15-.59.35-.41l-.22-.7c.52.7.19-.79.72.07l.05.17c-.24-1.96.9,1.11.69-.76.03.23.13.36.18.53.09-.25.22-.41-.21-1.79.12-.01.23.41.41.93-.19-.61-.17-.89-.1-.95l.03.25.18-.28-.41-1.12c.23.29.48,1.38.51,1.06l-.3-.94c.24.13.8,1.53,1.21,2.17.88.16.85-2.5,2.09-1.08l.27.7c.37,1.02-.34-1.59.02-.65l-.08-.5c.09.18.2.36.24.6.09.02.03-.15-.03-.48l.3.61c.46.4.27-.92.66-.78.83,1.17,1.09-.27,1.22-1.11-.03-1.72,2.15,2.08,2.05.13.07.14,0-.21-.05-.32l.57-.06s.66-.15.66-1.25c0-1.1-.69-3.14-3.26-6.97l-.07-.22c-.48-.43-.68-.49-.43.7-.56-1.35-.27-.06-.5-.47l-.04-.11c.25,1.11-.66-.74-.45.26-.04-.11-.18-.49-.15-.52-.04.22-.08.58-.39-.22-.19.31-.69.08-.39,1.42l-.07-.23c.22.9-.08.18-.03.65-.04-.1-.07-.15-.09-.2.21.89-.26.25-.22.64l-.2-.53-.17.2.12.08c.51,1.47-.49-.85-.31.15-.21-.13.8,3.15.39,2.49.17.71-.33-1.14-.25-.57-.28-.76-.12-.5-.37-1.1.02.4-.45-.72-.4-.16l-.22-.59c.21,1.15-.6-.67-.35.41,0,.55-.74-1.73-.51-.5l-.35-.78c-.12-.1.29,1.01.07.65-.17-.51-.25-.37-.37-.87-.47-.73,0,1.26-.72,0,.28,1.01-.05.46.16,1.22-.15-.43-.28.02-.45-.97-.01-.08.01-.07.07.1l-.18-.59c-.52-1.06-.06.7-.26.58.11.18.15.11.24.53l-.16-.04-.14-.51-.29-.22.23.61c-.2-.28-.58-1.32-.4-.41.11.5.36.8.32,1.02-.27-.38-.67-.94-.9-1.07.24.69.18.68.18.83l-.2-.6c.09.89-.49-1.3-.45-.58l-.12-.43.35,1.27c.22,1.25-.48-1.22-.14.46.04-.12.45,1.32.28,1.08l-.16-.59c0,.14.05.39-.02.28-.07-.32-.25-.85-.29-.73l-.18-.74.2,1.11c-.3-.59-.22.24-.51-.57,0,0-.35-.33-.12.58-.13-.57-.31-.75-.48-1.42.14.65.12,1.22-.15.57v-.08c-.47-.61-.16,1.07-.63.3.22.7-.01.35.28,1.24.02.96-.96-1.71-.24,1.1-.07.18-.32-.62-.41-.74l-.02-.15c-.13.28-.19.33-.35.31,0,.29.36,1.59.13,1.32-.1-.53-.13-.42-.18-.4,0-.09-.03-.28-.2-.61.04.16.05.26.06.35-.01-.04-.02-.07-.04-.13-.03.21.03.36.09.42.02.08.05.18.1.32-.27-.64-.23.11-.49-.77-.19.28-.12,1.24-.24,1.64-.15-.45-.21-.87-.2-1.06l-.1.21c-.18-.66-.02-.4,0-.54-.47-1.01-.08,1.16-.55.24l.1.53-.04-.08c.07.28.13.66.12.76-.18-.56-.35-1.32-.44-1.26-.23-.53-.16.34-.19.68.08.08.15.41.18.61-.05.03-.23-.53-.2-.28l-.21-.77c.21.72.07.82.13,1.14-.18-.57-.05-.51-.15-.95-.19.13-.09.06-.28.19.04.61.21.73.33,1.42-.06.18-.02.74-.25.31l.21.68c-.05.58-.19.53-.49-.14,0,2.98.37,4.92.78,6.11.4,1.19.83,1.63.83,1.63.97,1.38.78-.71,1.33-1.42"/>
  <path class="cls-1" d="M67.91,245.33l-.17.26c.1-.09.17-.19.17-.26"/>
  <path class="cls-1" d="M73.72,257.96s.04,0,.07-.01c-.03,0-.04,0-.07.01"/>
  <path class="cls-1" d="M60.84,252.46h0s-.04.02-.07.03l.07-.03Z"/>
  <path class="cls-1" d="M61.12,251.47c-.1.42-1.26,1.18-.76.91-.06.11.26.02.48.07.98-.45.11.16.96-.14l-.53.31c.29-.1.5-.15.22.02l-.16.07c.44-.14.22.04.44-.03l-.16.07.1.04-.24.09c.49-.11.57,0,.4.18l.68-.29c-.67.53.78.05-.04.62l-.17.06c1.92-.42-1.07.92.79.63-.23.04-.35.15-.52.21.26.09.42.22,1.78-.28.03.12-.39.25-.91.46.6-.22.88-.21.95-.14l-.25.04.3.19,1.1-.47c-.27.26-1.36.54-1.04.57l.93-.35c-.11.26-1.48.89-2.1,1.33-.12.91,2.56.86,1.19,2.18l-.69.29c-1.02.39,1.58-.36.65.01l.5-.09c-.17.09-.35.21-.6.26-.01.09.16.03.49-.03l-.6.32c-.38.49.94.29.81.7-1.15.86.3,1.14,1.15,1.3,1.74.02-2.07,2.2-.11,2.15-.14.07.21,0,.32-.04l.06.6s.59,2.79,8.3-2.35l.23-.07c.43-.5.48-.73-.72-.52,1.36-.54.05-.3.47-.53l.11-.03c-1.12.21.74-.7-.27-.53.11-.03.49-.17.53-.14-.22-.06-.59-.13.2-.43-.32-.23-.11-.79-1.46-.52l.23-.07c-.9.21-.18-.1-.66-.06.1-.05.15-.07.2-.09-.9.19-.26-.31-.66-.27l.53-.2-.21-.2-.08.13c-1.47.51.85-.52-.16-.35.12-.23-3.15.79-2.5.35-.71.17,1.14-.34.57-.27.76-.29.5-.12,1.09-.38-.4.01.7-.48.14-.44l.59-.23c-1.15.21.65-.65-.43-.4-.56-.02,1.71-.78.47-.56l.77-.38c.1-.14-1.01.3-.65.06.51-.18.36-.27.86-.39.71-.51-1.29-.03-.06-.82-1,.3-.48-.06-1.23.16.43-.17-.04-.32.95-.5.08-.01.08.02-.09.08l.59-.2c1.04-.57-.72-.08-.61-.31-.18.12-.1.17-.52.27l.02-.18.5-.15.2-.33-.6.26c.27-.23,1.29-.65.38-.46-.5.12-.78.41-1.01.36.36-.3.9-.76,1.01-1.01-.68.27-.67.21-.83.21l.59-.23c-.9.1,1.28-.56.55-.52l.42-.14-1.26.41c-1.24.25,1.19-.55-.49-.16.13.04-1.29.52-1.07.33l.58-.19c-.14,0-.39.06-.28-.02.32-.08.84-.29.71-.33l.74-.21-1.11.24c.57-.34-.27-.24.52-.59,0,0,.3-.4-.6-.13.57-.15.73-.37,1.39-.57-.65.15-1.24.12-.62-.22h.08c.54-.62-1.14-.23-.47-.88-.67.3-.37-.02-1.22.38-.97.07,1.47-1.39-1.21-.28-.2-.07.53-.46.63-.6l.15-.03c-.36-.18-.41-.24-.47-.49-.31.02-1.5.65-1.31.32.5-.2.37-.23.34-.3.1,0,.28-.08.54-.35-.15.07-.25.1-.34.12.04-.02.06-.04.11-.07-.23-.02-.37.08-.4.17-.07.04-.16.09-.28.18.53-.47-.24-.3.54-.79-.41-.25-1.36.03-1.85-.02.35-.31.74-.5.95-.52l-.3-.1c.54-.41.4-.11.56-.13.67-.94-1.25.16-.74-.77l-.45.3.05-.08c-.21.19-.55.39-.65.42.4-.44,1-.94.84-1.05.29-.51-.51-.11-.86.01.01.14-.24.36-.41.49-.08-.04.28-.51.06-.37l.52-.61c-.47.59-.71.46-.95.7.34-.49.43-.31.74-.63-.34-.18-.16-.1-.51-.25-.52.37-.43.62-.93,1.13-.22.04-.65.41-.53-.06l-.36.61c-.54.34-.59.21-.38-.47-1.18,1.07-1.85,2.14-2.32,2.99-.47.86-.8,1.56-.99,2.14-.45,1.11-.68,1.57-.68,1.57-.35.68-.34.56-.11.24.22-.32.65-.82.9-.97"/>
  <path class="cls-1" d="M50.62,255.01l-.29.07c.13-.02.25-.04.29-.07"/>
  <path class="cls-1" d="M56.91,270.13s.04,0,.07,0c-.03,0-.05,0-.07,0"/>
  <path class="cls-1" d="M41.7,260.1h0s-.05,0-.08,0h.08Z"/>
  <path class="cls-1" d="M41.45,254.56c-.17.82-.56,1.38-.8,1.92-.25.56-.35,1.11.1,1.79.07.72.59,1.31.95,1.82,1.11-.12.29.73,1.25.67l-.52.34c.33-.02.57.01.31.24l-.17.06c.49-.03.3.23.55.2l-.17.07.15.14-.24.07c.56.05.69.27.59.57l.66-.33c-.53.81.92.27.23,1.09l-.16.07c1.97-.41-.81,1.33,1.04.9-.23.05-.33.19-.49.27.29.1.49.25,1.79-.38.05.15-.35.32-.84.58.57-.28.87-.27.96-.17l-.25.05.35.23,1.05-.58c-.23.32-1.3.67-.96.71l.9-.43c-.06.33-1.36,1.11-1.92,1.64.04,1.1,2.82,1.15,1.57,2.72l-.68.32c-1,.42,1.59-.35.67.06l.5-.08c-.17.1-.34.24-.59.28,0,.11.17.05.5,0l-.59.35c-.35.57,1,.43.9.93-1.12.96.4,1.43,1.28,1.75,1.81.28-2.06,2.45-.05,2.67-.14.07.21.04.33,0l.05.76s.14.89,1.26,1.19c1.12.28,3.3.09,7.29-2.52l.23-.04c.44-.59.48-.92-.75-.91,1.4-.44.04-.41.47-.64l.12-.02c-1.16.04.74-.82-.31-.8.11-.02.5-.13.54-.08-.23-.14-.62-.31.19-.57-.35-.39-.18-1.16-1.57-1.03l.23-.05c-.93.12-.2-.17-.7-.21.1-.04.15-.08.2-.09-.92.11-.31-.47-.72-.49l.53-.19-.25-.31-.07.17c-1.49.46.83-.59-.21-.51.1-.31-3.21.61-2.58.12-.72.14,1.15-.31.56-.28.76-.29.51-.09,1.1-.36-.42-.04.68-.57.08-.59l.59-.23c-1.18.13.58-.82-.52-.61-.59-.09,1.67-.87.4-.72l.75-.43c.08-.18-1.01.3-.68,0,.5-.19.33-.34.83-.45.65-.65-1.37-.2-.23-1.17-1,.31-.52-.14-1.27.1.41-.19-.12-.45.9-.61.08-.01.08.03-.08.1l.58-.22c.97-.71-.78-.19-.72-.49-.16.15-.07.23-.49.34l-.02-.25.5-.17.13-.45-.57.31c.23-.3,1.21-.81.29-.61-.5.13-.73.51-.99.43.31-.4.76-.99.81-1.35-.65.33-.66.25-.83.24l.57-.28c-.93.09,1.21-.7.44-.69l.41-.16-1.23.49c-1.25.29,1.11-.71-.56-.25.15.07-1.23.66-1.05.41l.57-.23c-.15-.02-.4.07-.31-.04.32-.1.81-.37.66-.43l.72-.26-1.11.29c.5-.46-.36-.35.38-.8,0,0,.2-.55-.68-.19.55-.21.66-.48,1.3-.74-.63.22-1.23.23-.65-.18l.08-.02c.48-.65-1.17-.14-.52-.8-.66.33-.37,0-1.2.44-.99.07,1.5-1.31-1.2-.25-.2-.08.56-.43.67-.55l.15-.03c-.32-.15-.38-.22-.38-.41-.29.02-1.56.48-1.32.19.52-.13.4-.16.38-.22.1.01.28-.05.59-.24-.16.05-.26.06-.35.08.04-.01.07-.03.12-.05-.21-.03-.36.04-.42.11-.08.02-.18.06-.31.12.62-.33-.14-.28.73-.57-.28-.2-1.26-.16-1.66-.33.46-.13.88-.16,1.07-.15l-.2-.12c.67-.14.4,0,.54.02,1.04-.38-1.16-.16-.18-.51l-.54.03.09-.02c-.28.04-.68.03-.77,0,.59-.09,1.36-.14,1.32-.21.57-.09-.3-.14-.62-.23-.1.04-.43.04-.64.01-.02-.05.58-.06.32-.1l.8.02c-.75,0-.81-.13-1.14-.17.59.02.51.1.96.12-.07-.14-.05-.07-.09-.23-.58-.17-.75-.07-1.44-.21-.14-.12-.68-.34-.17-.38l-.7-.09c-.48-.35-.36-.52.4-.47-1.22-.83-2.12-1.65-2.96-2.25-.83-.6-1.58-.91-2.18-1.11-1.26-.31-2.11.28-2.11.28-1.05.52-1.15,1.26-.9,2.01.24.76.79,1.51,1.06,2.49"/>
  <path class="cls-1" d="M56.37,272.74l.06.29c-.01-.14-.03-.25-.06-.29"/>
  <path class="cls-1" d="M67.79,263.19s-.03-.03-.04-.05c.01.02.03.03.04.05"/>
  <path class="cls-1" d="M62.04,281.32h0s0,.05,0,.08v-.08Z"/>
  <path class="cls-1" d="M55.49,281.83c.83.26,1.4.66,2.02.93.61.25,1.27.38,2.16-.15.94-.14,1.72-.78,2.36-1.29-.15-1.12.93-.5.82-1.51l.47.43c-.04-.34-.02-.61.29-.42l.09.15c-.08-.5.28-.42.23-.68l.1.15.16-.23.12.23c.03-.63.23-.86.61-.89l-.5-.54c1.01.2.12-1.06,1.16-.72l.12.13c-.95-1.81,1.66.18.71-1.52.12.21.3.23.43.36.03-.34.12-.62-.96-1.58.14-.12.44.19.87.54-.48-.42-.57-.71-.51-.84l.14.21.1-.44-.95-.74c.39.07,1.13.93,1.04.59l-.74-.66c.33-.08,1.56.8,2.26,1.12.49-.22.42-.91.48-1.45.05-.53.29-.98,1.18-.55l.48.58c.65.87-.75-1.45-.12-.66l-.2-.47c.14.14.32.27.42.5.11-.03.01-.18-.12-.49l.49.48c.67.17.25-1.14.86-1.26,1.37.72,1.82-1.3,1.89-2.48-.12-1.06.8-1.14,1.8-1.51.97-.33,1.98-1,1.37-2.15.16,0-.12-.25-.24-.29.2-.48.37-1,.5-1.56,0,0,.11-.51,0-1.25-.11-.72-.47-1.65-1.18-2.13-.7-.5-1.6-.47-2.66.14-.54.3-1.15.73-1.89,1.15-.37.21-.8.42-1.26.59-.23.08-.48.16-.74.22-.13.03-.26.06-.39.08l-.22.03h.01c-.14.02-.27.02-.42.01-.05,0-.1,0-.19-.01.15.02.36.04.66.1-1.45-.22-.15.02-.63-.03l-.12-.03c.54.16.3.15.06.09-.24-.05-.5-.13-.04.09-.11-.05-.48-.2-.49-.22.16.09.41.32-.35-.06.15.2-.24.09.75,1.02l-.18-.15c.67.63.05.16.35.53-.09-.07-.13-.11-.17-.14.62.67-.12.33.09.67l-.39-.41c-.03.09-.05.17-.09.26l.15.03c1,1.18-.79-.6-.28.28-.25-.05,1.69,2.79,1.02,2.34.35.65-.64-1-.43-.45-.49-.64-.25-.45-.67-.94.1.4-.71-.5-.54.06l-.38-.5c.46,1.09-.9-.37-.42.63.06.6-1.26-1.41-.8-.21l-.61-.62c-.2-.02.53.91.15.67-.31-.44-.43-.22-.65-.69-.83-.43.09,1.42-1.26.69.57.89-.07.61.38,1.27-.31-.34-.5.35-.9-.62-.03-.08.02-.1.13.03l-.38-.49c-1.07-.62-.05.92-.41,1.01.22.08.27-.05.5.32l-.28.15-.32-.42-.53.1.51.41c-.39-.08-1.24-.79-.74.02.3.43.77.46.76.75-.51-.11-1.27-.26-1.63-.15.56.46.48.51.54.68l-.48-.41c.43.83-1.12-.83-.82-.12l-.31-.31.93.94c.75,1.04-1.08-.75,0,.61,0-.16,1.08.88.78.81l-.43-.43c.04.15.22.33.09.29-.21-.25-.65-.61-.65-.45l-.52-.56.7.91c-.6-.32-.16.43-.83-.11,0,0-.53-.05.12.64-.39-.44-.66-.48-1.13-.98.43.51.66,1.05.11.61l-.05-.07c-.71-.3.33,1.06-.43.57.49.54.14.32.77,1.01.34.93-1.41-1.3.22,1.09,0,.19-.49-.49-.6-.59l-.07-.14c0,.28-.04.35-.18.34.09.27.7,1.48.42,1.25-.2-.5-.2-.39-.25-.37,0-.09-.09-.27-.29-.57.06.15.1.25.12.33-.02-.04-.03-.07-.06-.12.01.2.09.35.15.4.03.08.08.17.15.3-.36-.59-.2.13-.55-.71-.1.27.04,1.22-.11,1.62-.12-.46-.17-.88-.17-1.07-.02.07-.05.13-.08.2-.14-.67-.01-.39-.01-.54-.18-.52-.17-.25-.19.05-.02.29-.08.59-.21.11v.54s0-.09,0-.09c.03.28,0,.67-.02.76-.07-.59-.08-1.36-.16-1.32-.07-.57-.15.28-.27.58.04.11.02.43-.01.63-.05.01-.05-.58-.1-.33l.05-.79c-.03.75-.18.78-.24,1.09.04-.59.13-.48.18-.92-.17.04-.08.02-.26.05-.19.55-.1.74-.27,1.39-.12.11-.37.6-.38.08l-.12.69c-.36.41-.53.22-.37-.57-.34.46-.54.65-.77,1.18-.11.23-.18.49-.23.78-.04.25-.12.7-.1.79,0,.15.01.27-.11.52-.09.21-.17.41-.24.6-.14.38-.24.73-.31,1.03-.17.32-.33.62-.48.9-.04.07-.1.19-.13.23l-.08.08c-.06.05-.11.1-.16.15-.22.18-.36.35-.43.51-.13.31-.08.5-.08.5.03.98.81,1.16,1.59,1,.79-.15,1.6-.62,2.57-.81"/>
  <path class="cls-1" d="M103.51,267.44l-.06-.29c0,.14.02.25.06.29"/>
  <path class="cls-1" d="M98.14,272.6s.04,0,.06-.01c-.02,0-.04,0-.06.01"/>
  <path class="cls-1" d="M100.3,257.64h0s0-.05.01-.08l-.02.08Z"/>
  <path class="cls-1" d="M104.42,258.3c-1.05-.37-1.38-1.75-2.5-1.14-.55-.09-1.11.27-1.61.48-.07.54-.24.57-.42.57-.15,0-.51,0-.64.47l-.27-.58c-.11.33-.24.55-.45.25l-.03-.18c-.13.48-.45.25-.5.5l-.04-.18-.25.12-.02-.25c-.27.54-.63.63-1.06.5l.29.7c-1.05-.64-.65.85-1.7.12l-.08-.17c.07.99-.33.8-.83.61-.49-.2-1.01-.34-.79.6-.05-.23-.27-.29-.37-.44-.2.35-.45.66.5,1.77-.21.12-.46-.23-.86-.63.42.48.43.8.31.95l-.1-.24c-.1.17-.18.35-.25.53l.93.77c-.43-.05-1.1-.97-1.07-.57l.73.67c-.37.15-1.63-.65-2.44-.74-.64.62-.52,1.81-.4,2.85.12,1.06.19,1.9-.79,2.55l-.74-.09c-1.07-.18,1.52.81.52.68l.47.28c-.2.02-.42.11-.65-.02-.06.18.11.22.43.39l-.69.13c-.59.74.7,1.19.44,1.86-.69.4-.69,1.04-.38,1.65.31.6.94,1.17,1.43,1.55.96.42.53,1.22.31,2.23-.25.97-.23,2.14,1.02,2.2-.08.14.27.02.36-.06.27.4.58.8.94,1.18,0,0,.34.34.92.62.59.28,1.43.46,2.16.18.74-.28,1.25-.98,1.47-2.19.27-1.19.19-2.99,1.21-5.02l.12-.2c.26-.53.44-.54-.42.3.98-1.08.05-.16.36-.52l.09-.08c-.43.37-.29.16-.12-.01.17-.18.38-.36-.06-.09.1-.06.43-.3.45-.3-.17.09-.49.18.24-.26-.24.02.07-.23-1.24.14l.22-.07c-.88.24-.16-.03-.62.03.11-.04.16-.06.2-.07-.9.17-.2-.2-.59-.18l.55-.11-.16-.17-.11.09c-1.54.21.94-.29-.07-.3.18-.12-3.25-.1-2.5-.39-.73-.08,1.18.05.62-.08.81-.02.51.05,1.15,0-.38-.13.82-.21.28-.37h.63c-1.15-.23.84-.33-.25-.52-.51-.22,1.87.11.65-.16l.85.09c.14,0-1.03-.21-.62-.19.53.1.43.03.93.16.42.05.13-.04-.09-.15-.21-.1-.35-.23.34-.02-1-.4-.4-.23-1.14-.57.43.18.09-.11,1.02.4.08.04.06.04-.11-.04l.59.27c1.11.5-.6-.35-.41-.34-.2-.09-.15-.04-.54-.27l.09-.02.48.29c.1.03.2.07.29.11l-.6-.36c.32.14,1.32.82.49.22-.46-.35-.81-.5-.98-.68.42.2,1.04.59,1.22.7-.64-.54-.61-.53-.72-.66l.55.48c-.72-.73,1.19,1.07.62.5l.36.36-1.09-1.08c-.96-1.08,1.06,1.08-.24-.4.06.11-1.11-1.17-.83-.97l.46.53c-.08-.12-.26-.35-.15-.25.23.29.66.77.61.67l.55.67c-.27-.33-.53-.66-.77-1,.5.56.02-.19.6.58,0,0,.32.37-.21-.5.35.54.48.74.88,1.37-.38-.61-.59-1.13-.22-.47l.04.08c.37.67-.32-.96.11-.14-.27-.7-.08-.33-.41-1.23-.09-.46.14,0,.24.21.1.22.11.2-.17-1.22.05-.17.23.66.29.8v.15c.1-.25.07-.27.28-.23.07-.29-.04-1.64.18-1.33-.01.54.06.43.13.43-.04.09-.03.29.09.64,0-.17,0-.27.02-.35,0,.04,0,.07.01.13.1-.2.07-.36,0-.43,0-.08-.02-.19-.05-.33.18.68.35-.08.43.84.33-.24.54-1.2.84-1.57.05.47,0,.89-.08,1.08l.21-.18c.02.68-.11.4-.17.53.28,1.09.49-1.11.8-.11l.06-.54.02.09c0-.29.06-.67.11-.76.04.59,0,1.37.15,1.33.11.57.32-.29.49-.6-.08-.1-.05-.43,0-.64.08-.02.11.57.17.32v.8c-.02-.75.2-.81.24-1.14.02.59-.13.51-.16.95.3-.06.15-.03.44-.09.19-.6,0-.76.11-1.45.15-.15.33-.7.47-.21v-.71c.31-.53.48-.44.61.29,1.31-2.79,1.75-4.71,1.71-5.98-.03-1.26-.51-1.85-.51-1.85-.92-1.66-1.65.36-2.85.88"/>
  <path class="cls-1" d="M111.06,264.67l-.22.21c.12-.07.21-.14.22-.21"/>
  <path class="cls-1" d="M101.61,281.35s0,.04,0,.07c0-.03,0-.05,0-.07"/>
  <path class="cls-1" d="M102.62,270.01h0s-.05,0-.08.01h.08Z"/>
  <path class="cls-1" d="M102.65,268.37c.04.44-.22.87-.39,1.23-.1.16-.11.42-.16.45-.05.03-.03.02.1-.02-.1.05.21-.03.4-.01,1.12-.15.04.05,1.01,0l-.65.06c.33,0,.57,0,.22.03h-.19c.51.01.22.04.48.06h-.2s.1.02.1.02h-.28c.56.04.62.11.38.12l.85.09c-.92-.03.9.32-.23.21l-.21-.05c1.18.32.8.33.37.26-.43-.06-.85-.2.18.26-.26-.11-.45-.16-.65-.24.21.14.28.23,1.88.95-.09.04-.55-.18-1.17-.46.7.32.93.49.92.56l-.24-.15c.03.07.06.15.09.23l1.26.64c-.46-.11-1.52-.8-1.3-.57l1,.57c-.34,0-1.88-.85-2.6-1.28-.31-.06.02.38.08.77.08.38-.11.69-.7,0l-.37-.65c-.5-.97.68,1.46.2.57l.17.47c-.09-.17-.2-.35-.28-.58-.05-.03.03.14.13.45l-.31-.6c-.44-.4-.29.95-.72.8-.81-1.17-1.18.22-1.54,1.05-.19.85-.71.27-1.14-.34-.45-.59-.8-1.19-1.07-.24-.03-.15-.07.2-.06.32l-.62-.14s-.71-.1-1.27.86c-.28.49-.56,1.26-.65,2.49-.08,1.22,0,2.92.78,5.22l-.04.23c.51.59.9.74,1.26-.46.07,1.46.45.14.58.61v.12c.27-1.12.73.9,1-.12,0,.12.02.52-.06.55.23-.2.52-.55.62.3.54-.28,1.42,0,1.55-1.41v.24c.06-.94.25-.18.39-.67.03.11.06.16.07.21.04-.93.59-.27.68-.68l.14.55.39-.22-.18-.08c-.32-1.52.55.87.61-.19.35.11-.33-3.25.13-2.6-.09-.74.24,1.17.26.57.25.77.06.51.3,1.12.07-.43.58.68.65.08l.21.6c-.06-1.19.89.56.73-.55.15-.62.92,1.67.9.33l.53.7c.27.03-.31-1.01.09-.74.23.49.48.25.59.76.46.25.61-.13.76-.48.16-.34.34-.61,1.11-.22-.49-.92.22-.6-.19-1.29.31.35.66-.33.98.65.02.08-.04.1-.16-.03l.37.51c1.18.64.26-.93.72-1.02-.25-.07-.36.05-.57-.31.13-.04.25-.1.37-.16l.33.42.71-.14-.57-.39c.48.07,1.46.72.98-.08-.3-.41-.92-.41-.85-.71.64.08,1.61.1,2.16-.12-.68-.38-.56-.45-.6-.61l.58.34c-.45-.82,1.38.6,1.07-.16l.38.26-1.13-.76c-.89-.92,1.36.43.07-.72-.02.19-1.35-.57-.96-.59l.54.31c-.04-.15-.27-.29-.1-.29.27.19.81.41.81.21l.65.42c-.29-.26-.58-.5-.88-.74.75.03.16-.63,1.02-.45,0,0,.16-.1.2-.27.05-.16-.03-.38-.46-.58.53.28.83.02,1.47.3-.59-.35-1.05-.91-.34-.92l.07.05c.82-.52-.98-1.27-.11-1.73-.77-.06-.4-.33-1.38-.34-.55-.33-.07-.54.1-.77.18-.22.11-.42-1.46-.51-.24-.24.62-.31.73-.46l.18.06c-.44-.5-.51-.63-.6-1.01-.37-.15-1.75.03-1.54-.31.58,0,.43-.1.38-.22.12.05.33.05.62-.18-.18.01-.29,0-.39-.02.04-.01.07-.02.13-.03-.27-.16-.42-.08-.46.02-.08.01-.18.04-.32.1.6-.35-.28-.53.61-.79-.48-.56-1.57-.63-2.11-.9.41-.24.84-.31,1.08-.24l-.32-.26c.62-.28.45.03.63.08.4-.43.04-.55-.33-.64-.36-.07-.68-.06-.34-.47l-.51.18.07-.06c-.25.14-.63.24-.74.24.5-.33,1.2-.65,1.08-.79.43-.41-.46-.23-.83-.24-.04.14-.34.27-.54.34-.06-.07.43-.41.17-.34l.69-.4c-.64.4-.83.19-1.13.33.49-.34.51-.13.91-.33-.25-.29-.13-.14-.38-.43-.62.14-.63.42-1.28.69-.22-.07-.78.08-.47-.33l-.57.42c-.64.02-.66-.17-.16-.74-3.06.59-4.73,1.67-5.69,2.48-.96.82-1.2,1.42-1.2,1.42-.93,1.46,1.01.66,1.95,1.19"/>
  <path class="cls-1" d="M59.78,294.8l.16.27c-.03-.13-.07-.24-.16-.27"/>
  <path class="cls-1" d="M81.37,295.14s.04-.02.06-.03c-.03,0-.05.02-.06.03"/>
  <path class="cls-1" d="M64.44,304.1h0s0,.05,0,.08v-.08Z"/>
  <path class="cls-1" d="M61.41,303.82c.2.12.21.57.46.84.27.28.7.41,1.14.05.51.03.98-.38,1.43-.62.05-1.1.63-.12.74-1.06l.21.58c.04-.32.11-.54.26-.23l.02.18c.06-.48.26-.23.29-.47l.02.18.15-.11v.25c.17-.52.42-.6.67-.41l-.14-.72c.61.73.52-.8,1.11.09l.02.18c.21-2.01,1.07,1.16,1.31-.75-.03.24.09.37.12.55.22-.25.47-.41.23-1.83.19-.01.23.42.34.97-.11-.62,0-.91.15-.98l-.03.25.38-.28-.28-1.17c.28.3.3,1.43.46,1.11l-.17-.98c.34.14.77,1.59,1.18,2.26.64.11,1.23-.53,1.67-.96.41-.43.95-.67,1.09.21v.75c-.05,1.09.15-1.61.12-.6l.09-.49c0,.2,0,.41-.05.65.03.05.05-.13.12-.45l-.06.68c0,.52.41-.72.52-.4-.15.69-.12.73.1.59.21-.16.66-.46,1.03-.62.72-.47.51.29.17.89-.32.63-.75,1.1.17.8-.12.09.19-.05.3-.11.04.16.06.32.08.48,0,0,.04.13.2.26.17.13.45.26.99.32.54.05,1.36.05,2.55-.24,1.17-.31,2.81-.9,4.58-2.7l.23-.05c.31-.83.23-1.36-1.05-1.26,1.28-.71-.11-.57.23-.92l.11-.04c-1.17.2.36-1.25-.73-1.06.11-.05.44-.27.52-.2-.33-.16-.82-.3-.16-.83-.61-.46-1.07-1.57-2.38-.91l.19-.15c-.83.48-.34-.14-.87.01.06-.09.08-.15.12-.18-.81.51-.72-.42-1.15-.24l.32-.47-.56-.23.12.23c-.9,1.26.16-1.07-.76-.43-.13-.18-.69.42-1.17,1.01-.49.59-.88,1.14-.88.72-.42.61.58-1.04.15-.62.29-.76.3-.42.48-1.05-.38.25-.14-.94-.65-.54l.18-.61c-.75.96-.68-1.04-1.24-.04-.55.44-.04-1.9-.75-.75l-.13-.88c-.24-.16-.25,1.03-.48.6.05-.54-.32-.44-.14-.95-.31-.43-.64-.13-.99.11-.3.24-.58.41-.99-.26-.04,1.05-.42.47-.41,1.27-.08-.45-.59,0-.41-1.02.02-.08.07-.08.09.1l-.04-.62c-.52-1.11-.52.73-.83.6.12.19.23.11.22.55l-.28-.04-.03-.53-.43-.24.16.63c-.23-.3-.48-1.37-.53-.43,0,.52.32.83.16,1.06-.31-.39-.78-.99-1.12-1.13.15.71.06.7,0,.86l-.12-.62c-.18.92-.35-1.35-.56-.61l-.04-.44.14,1.32c-.08,1.28-.38-1.27-.41.47.11-.13.29,1.36.09,1.12l-.06-.61c-.07.14-.05.4-.13.28,0-.33-.12-.88-.23-.76l-.04-.77-.05,1.15c-.3-.61-.45.24-.67-.59,0,0-.47-.35-.4.6-.02-.59-.28-.77-.33-1.46,0,.67-.21,1.26-.45.58v-.08c-.56-.63-.6,1.1-1.15.31.14.72-.14.36.07,1.28-.26.99-1.09-1.75-.75,1.13-.16.19-.34-.63-.46-.76l.02-.16c-.32.29-.42.34-.69.32-.08.3.12,1.63-.17,1.35-.01-.54-.09-.43-.18-.41.04-.09.03-.29-.15-.62.01.17,0,.27,0,.36,0-.04-.01-.07-.03-.13-.12.21-.06.37.02.43.01.08.03.18.08.33-.27-.66-.42.12-.59-.78-.41.29-.57,1.28-.88,1.69-.12-.46-.11-.89-.03-1.09l-.23.22c-.11-.67.09-.41.14-.56-.52-1.03-.41,1.18-1.05.27v.55s-.04-.08-.04-.08c.05.28.02.68-.03.78-.2-.56-.27-1.34-.55-1.24-.39-.5-.58.45-.73.85.18.04.23.37.24.59-.11.06-.38-.47-.39-.19l-.29-.75c.3.69-.04.91.05,1.24-.29-.51-.01-.57-.14-1-.47.32-.25.15-.68.51.04.71.37.66.58,1.38-.11.28.04.94-.31.69l.4.58c.13.8.13.94-.3.48.43.9,1.15,1.89,1.47,2.27.35.42.66.8.94,1.13.27.3.29.63.46.87.14.25.29.45.45.61.38.75.6,1.06.6,1.06.34.49.3.48.11.15-.18-.32-.44-.95-.41-1.27"/>
  <path class="cls-1" d="M63.31,304.79l-.24.18c.12-.06.22-.12.24-.18"/>
  <path class="cls-1" d="M69.32,311.54s0-.04,0-.07c0,.02,0,.04,0,.07"/>
  <path class="cls-1" d="M55.38,311.24h0s-.04,0-.07.02l.08-.02Z"/>
  <path class="cls-1" d="M54.76,308.14c.03.88-1.12,1.67-.25,2.18.07.41.54.65.86.93,1.05-.3.24.45,1.14.25l-.51.34c.31-.07.54-.08.27.13l-.16.07c.46-.1.27.13.5.08l-.16.07.13.09-.24.09c.52-.04.64.13.52.39l.66-.34c-.57.7.86.16.13.9l-.16.07c.98-.2.72.01.54.43-.18.41-.34.9.62.77-.24.03-.31.24-.46.32.34.22.61.49,1.8-.35.09.21-.29.43-.73.8.52-.38.83-.36.94-.23l-.24.08.42.31.88-.86c-.15.43-1.1,1.02-.75,1.04l.75-.67c.02.41-.98,1.64-1.24,2.5.37.81,1.32,1.01,2.13,1.17.83.18,1.54.3,1.91,1.33l-.12.39-.1.32c-.35,1.04.97-1.41.67-.45l.33-.44c-.02.2.02.42-.14.63.14.07.21-.1.41-.4l-.03.69c.52.62,1.36-.66,1.96-.42.65,1.39,2.56-.17,3.12-.98.54-1.71,1.97,2.47,2.49.53.04.15.07-.2.05-.33l.72.06s3.45-.03-.3-8.64v-.24c-.47-.52-.73-.62-.84.6-.23-1.44-.33-.11-.49-.56v-.12c-.09,1.15-.61-.86-.7.16,0-.12-.05-.52,0-.55-.14.2-.32.56-.44-.29-.36.27-.96-.05-1.04,1.33v-.24c-.04.93-.18.16-.28.64-.02-.11-.04-.16-.05-.21-.09.93-.32.19-.34.58l-.05-.56-.13.15.06.11c.03,1.56-.14-.97-.22.06-.05-.19-.43,3.32-.59,2.57-.17.76.2-1.22.02-.63.1-.83.11-.53.16-1.19-.15.41-.02-.83-.21-.26l.11-.65c-.37,1.21-.02-.84-.36.31-.29.55.49-1.95,0-.66l.26-.89c.02-.15-.4,1.09-.3.65.2-.56.12-.45.34-.98.03-.11.05-.17.05-.2.06-.2-.7,1.19-.15-.09-.57,1.02-.28.38-.74,1.13.25-.44-.06-.15.57-1.05.05-.07.05-.06-.06.11l.36-.59c.67-1.12-.42.57-.36.35-.12.2-.07.16-.35.54v-.12s.36-.46.36-.46l.17-.31-.43.56c.19-.32.96-1.24.3-.5-.37.4-.58.75-.75.88.27-.42.72-.99.85-1.16-.55.54-.53.5-.66.59l.48-.45c-.7.57,1.07-.98.51-.52l.35-.29-1.04.87c-1.03.75,1.04-.85-.36.17.1-.04-1.12.88-.93.65l.5-.36c-.12.06-.33.2-.23.11.28-.18.74-.52.64-.48l.64-.43c-.31.21-.63.41-.96.6.53-.4-.2-.03.54-.48,0,0,.35-.25-.5.16.52-.27.72-.37,1.33-.68-.6.28-1.22.25-.62-.14l.08-.02c.49-.65-1.16-.13-.52-.81-.65.33-.37,0-1.19.45-.98.1,1.44-1.39-1.22-.23-.21-.07.53-.46.63-.6l.15-.03c-.34-.16-.4-.22-.44-.44-.3.03-1.52.6-1.31.29.51-.18.38-.21.35-.27.1,0,.28-.07.56-.31-.15.06-.26.09-.34.11.04-.02.07-.03.12-.06-.22-.02-.36.07-.4.15-.07.03-.17.08-.29.16.57-.42-.19-.29.63-.71-.35-.23-1.32-.05-1.77-.16.41-.24.82-.36,1.02-.36l-.25-.12c.61-.3.41-.06.56-.06.88-.71-1.22,0-.44-.7l-.51.18.07-.05c-.26.13-.63.23-.74.23.51-.3,1.23-.59,1.13-.71.46-.35-.4-.17-.76-.17-.05.12-.36.24-.56.3-.05-.06.46-.36.21-.29l.72-.36c-.67.36-.82.18-1.12.3.51-.3.51-.12.92-.3-.2-.23-.1-.12-.29-.35-.61.12-.67.36-1.33.6-.2-.06-.76.06-.4-.29l-.62.35c-.61,0-.61-.17-.04-.64-6.05.77-7.29,3.09-7.29,3.09-1.08,1.38.96.83,1.86,1.41"/>
  <path class="cls-1" d="M85.44,305.17h-.3c.13.03.25.04.3,0"/>
  <path class="cls-1" d="M72.98,316.65s0,.04,0,.07c0-.03,0-.04,0-.07"/>
  <path class="cls-1" d="M75.24,304.74h0s-.04-.02-.07-.04l.07.04Z"/>
  <path class="cls-1" d="M76.72,302.32c-.52.62-1.89.45-1.54,1.29-.2.3,0,.74.06,1.12.98.47-.11.43.68.89l-.6-.11c.27.16.44.31.13.2l-.17-.06c.43.17.16.1.38.19l-.17-.06.06.05-.23-.1c.44.22.45.29.24.22l.66.33c-.77-.31.56.52-.32.09l-.15-.1c.81.62.5.51.2.32-.31-.17-.59-.42.12.31-.18-.18-.3-.27-.45-.4.15.2.21.34,1.33,1.49-.04.05-.37-.31-.8-.75.49.51.66.78.67.87l-.17-.23.1.33.9,1.01c-.3-.2-1.08-1.26-.9-.92l.72.89c-.11,0-.62-.56-1.09-1.13-.3-.36-.6-.73-.82-1.01-.26-.19-.07.31-.12.68-.03.36-.22.59-.64-.23l-.18-.73c-.22-1.07.24,1.59.02.61.01.17.04.33.02.5-.07-.19-.18-.38-.16-.63-.12-.02-.09.16-.11.5l-.25-.64c-.56-.43-.68.93-1.19.77-.87-1.22-1.66.29-2.03,1.17-.18.9-.8.39-1.46-.08-.65-.47-1.33-.89-1.43.15-.08-.13-.03.22.01.33l-.82.15s-.98.28-1.11,1.47c-.17,1.2.72,3.15,3.62,6.8l.08.22c.54.4.77.44.55-.76.58,1.35.32.04.57.45l.04.11c-.2-1.13.73.73.56-.29.03.11.16.49.13.53.07-.23.15-.59.44.21.25-.32.81-.09.63-1.46l.05.23c-.15-.92.12-.18.12-.67.04.1.06.16.08.2-.12-.91.36-.25.37-.66l.16.54.24-.2-.13-.09c-.36-1.51.45.89.4-.14.22.15-.38-3.23.02-2.54-.06-.73.18,1.17.2.59.19.79.05.51.23,1.13.06-.41.41.76.46.19l.14.61c-.01-1.18.58.73.51-.38.13-.56.5,1.81.5.55l.24.82c.17.11-.07-1.05.19-.67.09.53.34.38.33.9.7.74.62-1.31,1.74.02-.21-1.03.34-.46.14-1.23.19.44.69.02.73,1.01,0,.08-.07.07-.14-.1l.21.6c.92,1.1.48-.68.93-.53-.22-.19-.34-.13-.45-.55l.39.05.19.51.72.25-.43-.62c.43.3,1.19,1.35.95.45-.18-.5-.76-.82-.62-1.03.55.37,1.41.91,2.02,1.11.03-.01.06-.02.08-.04-.53-.65-.46-.72-.51-.95l.45.57c-.43-1.2,1.05,1.08.76,0l.3.42-.9-1.25c-.75-1.42,1.05.87-.02-.96,0,.25-1.06-1.05-.78-1.01l.43.53c-.05-.21-.23-.44-.1-.41.22.32.65.73.65.48l.53.7-.72-1.17c.61.25.13-.72.85-.22,0,0,.57-.26-.15-.98.43.48.74.33,1.27.85-.48-.58-.77-1.3-.1-1.05l.05.08c.9-.26-.43-1.59.55-1.72-.67-.31-.2-.42-1.08-.76-.33-.47.19-.5.48-.63.29-.12.34-.31-1-.89-.08-.27.74-.07.9-.1l.13.09c-.12-.38-.12-.48.01-.68-.23-.2-1.52-.61-1.14-.72.49.22.42.11.45.03.07.07.25.14.62.15-.15-.06-.25-.11-.32-.16.04.01.07.02.13.04-.14-.18-.31-.21-.4-.17-.08-.03-.18-.05-.33-.08.7.07.06-.38.95-.13-.09-.44-.94-.97-1.19-1.37.47.09.85.27,1,.41l-.11-.27c.66.18.34.23.46.34,1.14.01-.91-.84.14-.9l-.51-.2h.09c-.28-.06-.64-.23-.71-.3.59.1,1.33.33,1.33.17.59,0-.19-.42-.46-.66-.12.06-.43-.04-.63-.12,0-.08.59,0,.35-.11l.78.17c-.74-.14-.75-.39-1.06-.49.59.08.47.23.9.35,0-.33,0-.17,0-.5-.55-.29-.75-.13-1.41-.36-.12-.18-.64-.43-.13-.5l-.71-.09c-.48-.38-.38-.51.37-.56-2.65-1.53-4.6-1.91-5.85-2-1.26-.08-1.84.15-1.84.15-1.67.36.3,1.07.66,2.01"/>
  <path class="cls-1" d="M62,301.11h-.3c.14.01.25,0,.3,0"/>
  <path class="cls-1" d="M62.06,304.38s.04,0,.07,0c-.02,0-.04,0-.07,0"/>
  <path class="cls-1" d="M52.04,301.48h0s-.05,0-.08,0h.08Z"/>
  <path class="cls-1" d="M52.85,300.83c-.36.17-1.74.2-1.18.38-.11.08.2.18.37.27,1.07.05.01.11.91.17h-.61c.31.03.51.05.19.06h-.18c.46.03.18.05.42.07h-.18s.08.03.08.03h-.25c.49.04.52.08.3.12h.74c-.82.08.7.13-.27.19h-.18c1.94.12-1.33.13.52.25-.23-.01-.38,0-.56,0,.21.05.32.1,1.77.11-.02.03-.45.02-1.01.02.64,0,.9.04.94.06l-.25-.02.22.08h1.2c-.35.03-1.46,0-1.17.03h.99c-.2.06-1.7.08-2.43.12-.43.21,2.1.47.35.65h-.75c-1.09-.01,1.61.07.6.07l.5.03c-.19,0-.4.01-.65,0-.04.02.14.02.47.04h-.68c-.53.09.78.18.51.26-1.38.09-.12.3.62.43,1.62.18-2.71.32-.85.51-.15,0,.19.02.32.02l-.16.15s-.43.73,8.6.29h.24c.58-.07.71-.12-.49-.19,1.46,0,.15-.07.63-.08h.12c-1.12-.06.94-.09-.07-.15.12,0,.52,0,.54.02-.18-.04-.51-.09.34-.08-.22-.09.17-.2-1.18-.27h.24c-.92-.04-.14-.03-.6-.07.11,0,.17,0,.22,0-.91-.05-.14-.1-.53-.13h.57s-.13-.06-.13-.06l-.12.02c-1.55-.03.98-.04-.03-.1.2-.04-3.23-.13-2.47-.17-.73-.03,1.18.03.62,0,.81,0,.51.02,1.15.02-.38-.04.83-.04.28-.09h.63c-1.15-.06.83-.08-.27-.13-.52-.06,1.88-.01.64-.09h.85c.14-.03-1.05-.04-.63-.06.54,0,.43-.03.94,0,.84-.05-1.19-.14.23-.2-1.05-.03-.42-.06-1.21-.09.46,0,.07-.08,1.07-.02.08,0,.07.01-.11,0h.62c1.17-.02-.64-.08-.46-.12-.21.01-.15.03-.58.01l.09-.04.52.02.31-.06h-.65c.33-.03,1.43-.02.51-.07-.51-.02-.87.02-1.07-.02.44-.04,1.11-.09,1.3-.14-.73,0-.7-.02-.85-.03h.63c-.88-.06,1.39,0,.69-.06h.44s-1.32-.02-1.32-.02c-1.25-.07,1.31-.01-.4-.09.11.02-1.39,0-1.12-.03h.61c-.13,0-.38-.01-.26-.02.33.01.89.02.78,0l.76.02-1.12-.06c.65-.02-.17-.09.69-.09,0,0,.42-.06-.52-.09.59.02.81-.01,1.5,0-.66-.03-1.2-.09-.5-.1h.08c.72-.06-.99-.14-.11-.2-.73,0-.33-.04-1.27-.04-.93-.08,1.91-.11-.99-.17-.16-.04.68-.03.83-.05h.15c-.24-.05-.26-.07-.2-.12-.28-.03-1.63-.05-1.3-.08.54.02.44,0,.44-.01.09.01.28.02.64,0-.17,0-.27-.01-.35-.01.04,0,.08,0,.13,0-.19-.03-.35-.03-.43-.02-.08,0-.19,0-.33,0,.69-.02-.05-.07.87-.07-.21-.08-1.16-.15-1.52-.22.47,0,.89.02,1.07.04l-.17-.05c.68,0,.39.03.53.05,1.1-.04-1.1-.13-.09-.18l-.54-.02h.09c-.28,0-.67-.03-.76-.04.59,0,1.37.02,1.33-.01.57-.02-.29-.07-.6-.11-.1.02-.43,0-.64,0-.02-.02.57-.02.32-.03h.8c-.75,0-.81-.04-1.14-.05.59,0,.51.03.96.04-.07-.06-.04-.03-.11-.1-.6-.04-.76,0-1.46-.03-.16-.03-.71-.07-.23-.1h-.71c-.55-.06-.47-.09.25-.12-5.78-.49-7.9-.19-7.9-.19-1.57.15.49.26,1.05.46"/>
  <path class="cls-1" d="M131.94,112.85l-.11.31c.1-.1.15-.2.11-.31"/>
  <path class="cls-1" d="M142.53,145.22s.04.02.07.03c-.02-.02-.04-.03-.07-.03"/>
  <path class="cls-1" d="M127.24,122.77h0s-.05,0-.08.02l.08-.02Z"/>
  <path class="cls-1" d="M124.56,118.45c.74,1.17-.07,2.33,1.21,2.96.31.56.97.91,1.47,1.36,1.08-.35.47.71,1.44.55l-.44.44c.33-.05.58-.02.37.26l-.16.08c.49-.06.36.27.61.24l-.16.08.18.17-.24.09c.6.05.78.38.72.75l.65-.35c-.43.96,1.04.56.41,1.52l-.17.06c2.11-.01-.76,1.62,1.24,1.72-.25-.02-.34.17-.52.22.32.28.55.62,1.93.18.08.28-.36.36-.88.56.6-.2.92-.04,1.03.17l-.26-.03.39.55,1.11-.45c-.23.43-1.38.49-1,.72l.95-.27c-.07.52-1.45,1.17-2.06,1.76,0,.93.71,1.77,1.23,2.67.51.89.84,1.85.06,2.83l-.73.16c-1.08.14,1.65.33.65.49l.51.16c-.19.08-.38.22-.64.14-.02.19.15.18.49.29l-.66.26c-.48.79.88,1.35.64,2.18-1.32,1.02-.04,2.8.7,3.91,1.62,1.57-2.77,3.24-.97,4.87-.16.04.18.19.31.2l-.22,1.45s-.2,1.77.76,2.94c.96,1.17,3.08,1.74,7.74-.76l.23.05c.62-.79.78-1.3-.39-1.93,1.46-.02.19-.67.67-.84l.12.02c-1.1-.56.98-1,0-1.54.12.02.52.05.54.16-.17-.37-.48-.87.37-.87-.19-.86.23-2.07-1.12-2.65l.24.04c-.91-.33-.13-.41-.6-.77.11-.02.17-.04.22-.04-.9-.35-.14-1-.53-1.28l.57-.02-.14-.69-.12.26c-1.55-.07.97-.53-.05-1.02.18-.48-3.24-.85-2.51-1.34-.74-.2,1.19.15.62-.16.81-.04.52.14,1.16.03-.4-.32.8-.59.24-.99l.63-.05c-1.18-.48.76-1.1-.36-1.39-.56-.53,1.84-.53.56-1.03l.83-.31c.11-.27-1.06-.09-.67-.41.54-.03.39-.41.92-.29.76-.76-1.33-1.19-.04-2.24-1.06-.04-.51-.57-1.31-.59.45-.09-.06-.88.99-.55.09.03.08.11-.09.13l.62-.04c1.09-.69-.79-.81-.7-1.33-.18.18-.09.37-.53.31v-.47s.53,0,.53,0l.17-.74-.61.22c.26-.4,1.31-.75.33-.93-.54-.06-.79.5-1.06.19.35-.53.83-1.35.86-1.99-.69.24-.7.07-.89-.05l.61-.18c-1.01-.38,1.29-.59.44-1.02l.44-.07-1.32.2c-1.36-.18,1.17-.67-.65-.78.17.2-1.3.52-1.12.16l.6-.11c-.17-.12-.43-.09-.35-.24.35,0,.86-.22.68-.43l.78-.08-1.22-.09c.5-.55-.46-.82.3-1.25,0,0,.11-.89-.83-.71.6-.07.65-.55,1.34-.69-.7.05-1.41-.3-.86-.8h.09c.29-1.12-1.51-.99-1.1-2.09-.64.36-.47-.2-1.26.32-1.16-.28.96-2.25-1.71-1.08-.31-.24.38-.72.41-.96h.18c-.56-.48-.7-.63-.92-1.11-.38-.06-1.51.64-1.5.09.53-.18.34-.28.24-.42.13.04.31-.04.48-.43-.15.07-.27.09-.36.1.03-.02.05-.05.11-.08-.32-.13-.43.01-.41.16-.07.04-.15.11-.25.23.39-.64-.51-.64.21-1.21-.71-.57-1.82-.47-2.54-.75.31-.37.73-.52,1.01-.48l-.47-.27c.52-.44.49-.03.7,0,.41-1.19-1.64-.23-1.4-1.42l-.49.27.03-.09c-.2.2-.59.36-.73.35.35-.49.97-.96.69-1.19.2-.62-.78-.37-1.27-.36.08.21-.19.4-.39.5-.14-.1.18-.61-.1-.51l.52-.61c-.45.61-.88.31-1.14.52.31-.52.53-.21.86-.52-.59-.42-.29-.22-.9-.6-.68.24-.42.64-.99,1.07-.35-.08-.93.19-.93-.42l-.33.64c-.79.1-1.02-.13-.95-.95-1.7.62-2.76,1.47-3.44,2.22-.69.77-1.07,1.49-1.22,2.12-.38,1.23-.16,1.96-.16,1.96.09.95.45,1.08,1.06,1.02.58-.03,1.41-.26,2.15.05"/>
  <path class="cls-1" d="M19.24,137.12h-.3c.14.02.25.02.3,0"/>
  <path class="cls-1" d="M18.69,146.56s.04,0,.06.01c-.02,0-.04-.01-.06-.01"/>
  <path class="cls-1" d="M9.22,137.73h0s-.04-.01-.07-.02l.07.02Z"/>
  <path class="cls-1" d="M10.16,135.82c-.39.49-1.77.5-1.25,1.09-.13.25.17.55.32.81,1.06.21,0,.33.88.55h-.61c.3.08.51.15.18.17l-.18-.02c.45.11.17.17.4.22l-.18-.02.07.09-.25-.04c.48.17.5.3.27.4l.74.05c-.84.18.68.39-.31.53l-.18-.02c1.92.43-1.35.34.47.77-.23-.05-.38-.01-.56-.03.2.15.3.3,1.74.41-.03.09-.46.05-1.02.02.63.05.89.15.92.23l-.24-.05.2.23,1.2.04c-.35.09-1.46-.07-1.18.05l.99.07c-.21.14-1.71.13-2.45.23-.47.61,2.01,1.46.23,1.94l-.75-.02c-1.09-.06,1.6.26.59.22l.49.1c-.2,0-.41.04-.65-.01-.05.06.13.07.46.14l-.68.03c-.54.22.75.51.47.76-1.4.24-.18.91.54,1.29,1.59.56-2.78.91-.95,1.5-.15,0,.19.07.31.07l-.19.45s-.57,2.16,8.56.89l.23.02c.59-.22.73-.36-.45-.58,1.46.04.17-.19.64-.23h.12c-1.11-.19.95-.25-.04-.43.12.01.52.03.54.07-.18-.11-.49-.27.36-.23-.21-.26.21-.58-1.13-.8l.24.02c-.91-.14-.13-.12-.59-.25.11,0,.17,0,.22,0-.9-.14-.12-.29-.5-.39l.57.03-.12-.2-.13.07c-1.55-.11.98-.09-.01-.29.21-.12-3.21-.45-2.44-.55-.72-.11,1.18.12.62,0,.81.04.51.07,1.15.09-.38-.12.84-.11.3-.26l.63.03c-1.14-.22.85-.24-.24-.41-.51-.19,1.88,0,.66-.23h.86c.14-.07-1.04-.13-.62-.18.54.04.44-.07.94,0,.85-.12-1.17-.43.27-.58-1.04-.12-.41-.2-1.19-.28.46.02.09-.23,1.07-.03.08.02.06.04-.11.02l.62.06c1.18-.06-.63-.28-.44-.4-.21.03-.16.08-.58.02l.09-.12.52.06.32-.16-.65-.02c.34-.07,1.44-.02.53-.19-.51-.08-.88.02-1.07-.08.45-.09,1.12-.22,1.33-.36-.73-.04-.7-.08-.84-.13l.63.04c-.86-.22,1.39.04.71-.17l.44.04-1.32-.14c-1.24-.23,1.31.02-.38-.27.1.07-1.39-.07-1.11-.13l.61.06c-.13-.05-.38-.09-.25-.1.33.05.88.08.79,0l.76.1-1.11-.2c.66-.04-.15-.25.71-.23,0,0,.43-.17-.5-.28.58.08.81,0,1.49.07-.66-.1-1.19-.3-.48-.3l.08.02c.73-.17-.96-.46-.07-.6-.73-.05-.33-.12-1.26-.17-.91-.29,1.93-.23-.96-.54-.15-.11.68-.06.84-.1l.15.04c-.22-.2-.25-.25-.17-.38-.28-.09-1.62-.21-1.29-.31.53.08.43.03.44-.02.08.04.28.06.64.03-.16-.02-.26-.04-.35-.06.04,0,.07,0,.13.01-.18-.09-.35-.09-.43-.06-.08,0-.18-.01-.33-.02.69-.02-.03-.22.88-.15-.2-.24-1.13-.49-1.48-.71.47.02.89.1,1.07.17l-.16-.15c.68.06.38.11.52.16,1.11-.06-1.07-.42-.05-.52l-.53-.09h.09c-.28-.03-.67-.1-.76-.14.59.03,1.36.13,1.33.03.57-.02-.27-.23-.58-.36-.1.04-.43,0-.64-.05-.02-.05.57-.02.32-.08l.8.07c-.75-.05-.8-.2-1.13-.24.59.03.5.12.95.17-.06-.19-.03-.1-.09-.29-.59-.16-.75-.05-1.45-.17-.15-.1-.7-.24-.21-.29l-.71-.04c-.54-.22-.45-.31.27-.35-5.67-1.8-7.85-1.03-7.85-1.03-1.6.35.44.8.95,1.44"/>
</svg>