<?xml version="1.0" encoding="UTF-8"?>
<svg id="Capa_1" data-name="Capa 1" xmlns="http://www.w3.org/2000/svg" viewBox="0 0 224.02 301.58">
  <defs>
    <style>
      .cls-1 {
        fill: #a4d5cc;
      }
    </style>
  </defs>
  <path class="cls-1" d="M34.37,61.13l-.45.34c.17.03.33-.04.45-.34"/>
  <path class="cls-1" d="M17.21,166.09s.04.07.08.1c-.03-.07-.05-.09-.08-.1"/>
  <path class="cls-1" d="M18.63,74.57s0-.02,0-.02c-.03-.04-.04-.09-.07-.13l.06.15Z"/>
  <path class="cls-1" d="M24.24,53.64c-1.65,5.45-3.67,6.55-4.24,12.46-.74,2.71-.99,5.72-1.37,8.45,1.04,1.56-.75,3.53.02,5.27l-.87.42c.26.6.39,1.27-.13,1.7l-.21-.08c.4.9-.13,1.7.07,2.15l-.21-.08-.11.96-.28-.23c.3,1.48.04,2.89-.5,4.05l.93.1c-1.59,2.4.08,3.77-1.64,5.88l-.21-.08c1.73,3.52-2.66,4.38-1.07,7.97-.2-.45-.5.06-.71-.02-.05,1.48-.25,3.04,1.53,3.45-.25,1.04-.74.73-1.46.72.78.16.91,1.14.79,1.96l-.22-.44-.23,2.4,1.57-.15c-.68,1.15-1.86-.06-1.75,1.2l1.22.24c-.59,1.67-2.65,2.3-3.88,3.8-1.92,6.92.01,15.02-2.86,21.36l-.96.19c-1.38-.01,1.83,2.04.54,2.17l.54.83c-.27.19-.57.62-.84.21-.12.71.1.75.47,1.3l-.92.69c-.9,2.77.55,5.28.03,8.2-1.97,3.44-.7,10.18.07,14,1.82,5.42-3.87,11.38-1.76,16.93-.2.17.22.65.37.65l-.4,4.98s-1.5,24.16,10.57,6.25l.29.14c.84-2.7,1.06-4.41-.36-6.35,1.85-.22.28-2.23.9-2.85l.15.07c-1.35-1.72,1.31-3.38.11-5.04.14.07.65.12.66.49-.18-1.18-.53-2.79.54-2.84-.17-2.8.49-6.68-1.15-8.54l.29.13c-1.11-1.07-.12-1.32-.65-2.49.14-.06.22-.13.28-.12-1.09-1.16-.04-3.24-.48-4.15l.71-.03-.06-2.21-.19.81c-1.94-.38,1.3-1.6.12-3.26.32-1.47-3.89-3.25-2.84-4.75-.87-.8,1.44.74.81-.41,1.02.03.61.56,1.43.32-.42-1.11,1.15-1.71.55-3.08h.8c-1.33-1.84,1.28-3.18,0-4.44-.51-1.84,2.45-.99,1.07-2.97l1.14-.61c.25-.77-1.25-.69-.65-1.51.67.12.65-1.04,1.24-.47,1.26-1.83-1.06-4.16,1.07-6.5-1.23-.74-.27-1.92-1.19-2.48.57.01.48-2.58,1.49-.94.08.14.03.36-.19.31l.74.29c1.68-1.23-.39-2.77.08-4.18-.33.39-.36.97-.82.5l.33-1.33.6.39.73-1.94-.85.13c.58-.91,2.01-1,1.08-2.32-.54-.62-1.25.73-1.31-.35.79-1.22,1.99-3.02,2.57-4.65-.93-.02-.8-.47-.89-.97l.79.1c-.71-2.01,1.84-.3,1.35-2.25l.51.27-1.53-.81c-1.21-1.93,1.79-.52.07-2.75-.02.73-1.78-.03-1.26-.83l.7.38c-.05-.51-.33-.74-.11-1.03.34.37,1.06.39,1.08-.35l.84.68-1.09-1.63c1.03-.86.38-2.72,1.53-2.91,0,0,1-2.12-.04-2.88.62.61,1.16-.57,1.93-.03-.69-.76-.98-2.61.04-3.1l.07.15c1.44-2.34-.27-4.59,1.31-6.63-.92-.09-.17-1.19-1.39-1.14-.62-2.6,3.28-3.77-.09-5.4.04-1.11,1.11-1.08,1.41-1.6l.13.3c.15-2.07.24-2.65.65-4.12-.18-.82-1.81-1.3-1.12-2.54.56.57.56,0,.67-.49.03.34.25.49.84-.07-.18-.14-.28-.31-.35-.46.05,0,.1-.01.17.02-.05-.88-.29-.78-.46-.42-.1-.04-.23-.04-.44.04,1.04-.68.47-2.42,1.62-2.27.29-2.55-.49-4.59-.47-6.77.63-.11,1.04.49,1.13,1.14l.11-1.52c.83.2.29.95.36,1.44,1.74-1.46-.56-3.91,1.13-5.7l-.57-.57.14-.1c-.35-.07-.73-.64-.77-.97.79-.13,1.67.39,1.85-.64.88-.65.15-2.37-.01-3.51-.25.54-.61.27-.81-.03.09-.51.88-.65.65-1.11l.99.17c-.97,0-.71-1.55-1.07-1.83.79-.13.45.93.97,1.18.36-2.06.18-1.03.53-3.09-.5-1.25-.97,0-1.72-.71.02-1-.46-2.09.37-3.07l-.95.16c-.28-1.96.06-3.02,1.21-4.04-4.15-15.02-9.08-4.96-9.08-4.96-3.09,4.88-1.15,8.17-1.85,14.63"/>
  <path class="cls-1" d="M14.16,243.27l-.41.75c.17,0,.33-.19.41-.75"/>
  <path class="cls-1" d="M154.04,284.45s-.04-.07-.08-.1c.02.06.05.09.08.1"/>
  <path class="cls-1" d="M.08,272.71s0-.03,0-.04c-.03-.07-.05-.15-.08-.21l.08.25Z"/>
  <path class="cls-1" d="M3.18,233.25c-1,10.34-2.87,13-2.74,23.78-.41,5.12-.3,10.61-.36,15.63.31.61.44,1.33.48,2.11.02.39.02.79,0,1.2-.03.6-.06,1.22-.1,1.85-.22,3.1.28,6.32,1.89,8.12.06.67.16,1.36.35,2.02,1.31,1.17,2.97,2.16,4.23,3.24l-.22.14c2.52.7,5.39,1.41,6.69,1.37l-.15.2,1.88.24-.36.26c2.64-.15,5.23.32,7.49.96l-.03-.94c4.74,1.83,6.83.26,11.09,2.1l-.09.21c5.94-1.57,8.68,2.89,14.78,1.31-.76.21.26.51.17.72,2.71.03,5.59.21,5.82-1.59,1.94.24,1.53.74,1.71,1.47.07-.79,1.8-.97,3.32-.88l-.73.24,4.39.13-.72-1.58c2.27.64.43,1.88,2.67,1.72l.08-1.24c3.17.48,4.9,2.51,7.95,3.66,12.95,1.42,26.9-1.43,38.92.61l.54.93c.26,1.36,3.3-2.07,3.77-.81l1.39-.65c.4.24,1.24.47.55.8,1.3,0,1.32-.21,2.24-.66l1.42.81c5.15.52,9.42-1.36,14.81-1.33,2.78.53,6.56.48,10.49-.05.98-.12,1.98-.27,2.97-.42,1.26-.2,2.53-.4,3.77-.59,3.27-.52,6.06-1.92,7.75-4.15,1.24-1.62,1.79-3.42,2.06-5.06.11-.96.15-1.94.17-2.91.02-.8.03-1.6.05-2.41.05-1.28.19-2.57.36-3.87.37-2.6.93-5.25,1.46-7.92,1.06-5.33,1.96-10.77.79-15.85.19-.33-.24-1.18-.4-1.18.06-3.09.07-6.18.06-9.28,0,0-.03-2.81-.34-6.49-.3-3.67-.86-8.2-1.79-11.62-.92-3.42-2.14-5.71-3.62-4.98-1.51.72-3.18,4.47-5.51,12.92l-.31-.2c-.43,4.96-.5,8.03,1.1,11.38-1.83.58-.1,4.05-.69,5.21l-.15-.11c1.46,3-1.15,6.17.08,9.07-.14-.11-.65-.18-.67-.85.22,2.1.54,4.99-.53,5.12.17,5.03-.72,11.98.74,15.32l-.28-.24c.52.96.5,1.56.43,2.18-.04.31-.1.62-.12.99-.01.18-.01.4,0,.58.02.11.06.24.12.37-.14.03-.22.08-.28.06.7.77.41,2.04-.26,2.67-.33.33-.69.52-.86.77l-.47-.63c-.54.26-1.12.35-1.76.46l.76.08c.14.97-.33.71-1.09.38-1.09-.3-2.48-.66-3.87.09-2.72,0-5.2,4.49-8.12,3.72-1.29,1,1.09-1.56-.88-.72-.13-1.01.9-.7.33-1.48-1.95.62-3.3-.81-5.7,0l-.14-.79c-3.11,1.6-6.04-.72-8.1.71-3.26.76-2.27-2.28-5.64-.62l-1.35-1.04c-1.46-.15-1.02,1.33-2.64.83.09-.68-2.05-.51-1.12-1.17-3.66-.98-7.42,1.56-12.23-.25-1.06,1.33-3.48.47-4.27,1.45-.12-.58-4.86-.19-2.11-1.38.24-.1.65-.07.61.16l.34-.77c-2.7-1.52-5,.71-7.71.36.8.29,1.87.26,1.13.77l-2.52-.2.55-.64-3.74-.53.48.83c-1.82-.49-2.39-1.93-4.52-.89-.97.59,1.68,1.19-.27,1.34-2.43-.68-6.05-1.74-9.16-2.24.22.94-.62.84-1.5.96l-.04-.8c-3.41.84-1.08-1.81-4.43-1.24l.34-.52-1.01,1.57c-3.12,1.29-1.45-1.79-4.95.05,1.32-.01.45,1.8-1.13,1.31l.49-.73c-.91.08-1.24.36-1.81.14.57-.35.4-1.08-.92-1.09l.97-.86-2.62,1.13c-1.81-1.03-4.96-.32-5.61-1.51,0,0-4.02-1.05-5.11,0,.92-.62-1.3-1.19-.54-1.96-1.17.71-4.39.92-5.51-.14l.25-.06c-4.47-1.55-8.08.02-12.03-1.75.03.94-2.07.08-1.73,1.33-2.24.19-4.08-.76-5.63-1.34-.39-.15-.76-.27-1.11-.34-.19-.05-.25-.02-.4.05-.24.16-.58.56-1.19,1.37-1.09-.06-.53-1.1-.64-1.45.1-.01.19-.03.29-.05-.65-.27-.83-.74-.92-1.1-.09-.39-.07-.77,0-1.28-.04-.06-.1-.12-.18-.18-.08-.08-.16-.27-.26-.38-.2-.26-.39-.52-.6-.79-.39-.56-.67-1.25-.4-2.49.63.84.56-.18.61-1.11.07.6.31.8.83-.4-.2-.18-.31-.46-.41-.71.05,0,.1-.05.17-.03-.16-1.56-.38-1.3-.51-.59-.1-.04-.24.01-.43.23.95-1.56.18-4.49,1.34-4.63-.02-4.68-1.04-8.08-1.28-11.98.62-.41,1.1.53,1.27,1.67l-.07-2.77c.85.07.41,1.61.53,2.47,1.55-3.21-1.02-6.83.45-10.61l-.63-.83.12-.22c-.36,0-.8-.9-.88-1.47.77-.51,1.71.13,1.77-1.78.8-1.47-.13-4.3-.43-6.29-.18,1.06-.58.69-.81.22.02-.95.8-1.46.52-2.21l1.01-.04c-.97.32-.89-2.54-1.28-2.91.77-.5.56,1.51,1.11,1.78.11-3.82.05-1.91.16-5.73-.65-2.08-.97.32-1.8-.7-.1-1.81-.71-3.6,0-5.63l-.92.61c-.51-3.42-.3-5.43.72-7.66-5.93-25.55-9.63-5.83-9.63-5.83-2.5,9.8-.17,15.05-.1,26.88"/>
  <path class="cls-1" d="M152.79,198.52l.36-.44c-.17,0-.32.12-.36.44"/>
  <path class="cls-1" d="M150.75,89.52s-.04-.08-.08-.11c.03.08.05.1.08.11"/>
  <path class="cls-1" d="M165.67,182.11s0,.02,0,.02c.04.04.05.08.09.11l-.09-.14Z"/>
  <path class="cls-1" d="M164.39,203.46c.31-5.58,2.04-7.03,1.44-12.83.21-2.76-.09-5.75-.16-8.5-1.3-1.36.15-3.6-.89-5.21l.8-.56c-.36-.55-.59-1.2-.14-1.71l.22.05c-.54-.83-.13-1.72-.4-2.13l.22.05-.04-.98.31.19c-.53-1.44-.49-2.88-.13-4.14l-.93.05c1.19-2.68-.67-3.78.7-6.19l.22.05c-2.3-3.27,1.93-4.88-.28-8.25.27.42.48-.16.71-.11-.21-1.51-.29-3.12-2.11-3.2.06-1.09.6-.87,1.31-1-.8-.02-1.11-.97-1.15-1.83l.3.4-.23-2.45-1.51.46c.45-1.29,1.84-.31,1.49-1.55h-1.25c.29-1.77,2.12-2.84,3.04-4.61.45-7.38-3.26-15.08-2.04-21.99l.89-.42c1.34-.31-2.26-1.56-1.04-1.98l-.73-.68c.21-.25.41-.74.76-.4-.05-.71-.27-.7-.75-1.15l.74-.87c.27-2.85-1.69-4.95-1.68-7.83.67-1.8.46-4.2.02-6.59-.44-2.39-1.08-4.8-1.48-6.59-.94-2.54.18-5.22,1.45-7.69,1.27-2.5,2.65-4.77,2.3-7.48.24-.09-.04-.63-.19-.67.54-1.43,1.17-2.82,1.82-4.2,0,0,.57-1.26,1.28-2.93.7-1.68,1.55-3.76,1.99-5.56.41-1.8.36-3.39-1.07-4.07-1.4-.61-4.33-.47-9.28,2.53l-.19-.26c-2.11,2.28-3.07,4.03-2.51,6.51-1.83-.42-1.12,2.21-1.9,2.65l-.12-.11c.69,2.17-2.35,3.23-1.64,5.32-.12-.11-.6-.28-.51-.68-.13,1.32-.17,3.13-1.22,2.98-.48,3.08-1.59,7.4-.05,9.53l-.28-.16c1.07,1.22.03,1.47.56,2.75-.14.06-.22.14-.28.13,1.07,1.26.07,3.52.58,4.49l-.71.07c.08.79.13,1.59.23,2.37l.12-.89c1.96.23-1.17,1.84.21,3.49-.14,1.64,4.29,2.85,3.51,4.51.99.66-1.55-.51-.73.55-1.01.15-.69-.47-1.47-.08.59,1.08-.82,1.97.02,3.27l-.78.16c1.67,1.62-.59,3.53.95,4.53.9,1.73-2.16,1.56-.36,3.24l-.96.88c-.06.83,1.38.4.99,1.36-.68.04-.38,1.2-1.09.76-.78,2.13,2.04,3.88.53,6.65,1.38.43.68,1.81,1.71,2.14-.57.12.12,2.63-1.24,1.26-.11-.12-.11-.34.11-.34l-.79-.11c-1.37,1.58,1.06,2.59.88,4.08.24-.45.15-1.03.7-.67l-.05,1.38-.67-.25-.3,2.05.8-.31c-.38,1.02-1.74,1.41-.54,2.49.66.49,1.05-.98,1.35.07-.52,1.36-1.35,3.38-1.57,5.09.92-.16.89.3,1.08.77l-.79.05c1.09,1.83-1.75.66-.9,2.47l-.55-.17,1.65.5c1.55,1.67-1.66.85.46,2.71-.12-.72,1.76-.3,1.4.58l-.76-.24c.16.49.47.67.3,1-.4-.31-1.11-.19-1.01.54l-.94-.51,1.36,1.41c-.86,1.03.11,2.75-.98,3.14,0,0-.62,2.26.53,2.84-.71-.49-1.05.75-1.9.35.8.63,1.4,2.42.48,3.07l-.09-.14c-1.04,2.55.99,4.53-.24,6.8.93-.05.35,1.16,1.55.92,1.02,2.51-2.65,4.31.93,5.4.14,1.12-.92,1.27-1.14,1.84l-.18-.28c.18,2.11.19,2.71.02,4.26.31.79,2,1,1.53,2.37-.65-.48-.55.09-.58.61-.09-.34-.33-.45-.82.21.2.1.33.26.43.4-.05,0-.09.03-.17.01.2.88.41.74.53.34.1.03.23,0,.43-.12-.91.87-.05,2.52-1.21,2.58.19,2.64,1.32,4.55,1.72,6.74-.59.24-1.13-.29-1.34-.93l.2,1.56c-.85-.02-.49-.91-.65-1.39-1.41,1.84,1.35,3.84.07,6.01l.67.45-.11.13c.36,0,.85.48.98.8-.74.32-1.72,0-1.65,1.08-.7.87.41,2.43.84,3.54.11-.61.53-.43.8-.18.04.54-.71.87-.36,1.28l-1,.09c.93-.25,1.1,1.37,1.52,1.55-.73.34-.69-.81-1.26-.92.21,2.17.11,1.09.32,3.26.82,1.11.94-.27,1.85.22.24,1,1.01,1.93.53,3.14l.85-.44c.87,1.83.88,2.95.1,4.33,2.25,3.31,4.08,4.93,5.45,5.63,1.39.69,2.39.47,3.08-.17,1.42-1.22,1.71-3.86,1.71-3.86,1.27-5.32-1.51-7.68-2.51-13.97"/>
  <path class="cls-1" d="M194.31,24.16s.04.09.07.13c-.02-.09-.04-.12-.07-.13"/>
  <path class="cls-1" d="M86.35,18.77h-.03c-.05.03-.11.05-.16.08l.19-.08Z"/>
  <path class="cls-1" d="M59.45,12.9c6.57,1.69,7.97,3.92,15.53,4.68,3.55.82,7.59,1.06,11.35,1.19,1.87-1.19,4.9.32,6.97-.82l.79.78c.71-.38,1.52-.66,2.24-.25l-.04.22c1.04-.58,2.21-.3,2.72-.6l-.04.23,1.25-.15-.2.33c1.77-.7,3.6-.85,5.23-.7l-.2-.91c3.5.76,4.57-1.27,7.7-.35l-.02.23c3.56-2.81,6.15,1.04,9.75-1.62-.45.33.25.46.23.68,1.73-.43,3.58-.7,3.47-2.52,1.28-.06,1.08.5,1.29,1.19-.06-.79,1.02-1.21,2.02-1.3l-.44.33,2.84-.41-.62-1.47c1.54.36.46,1.81,1.9,1.4l-.06-1.24c2.12.18,3.39,2.05,5.41,2.96,8.31.51,17.67-2.04,25.43.92l.26.97c.02,1.38,2.38-1.8,2.56-.51l.99-.53c.23.27.75.59.26.85.85.14.89-.08,1.55-.43l.83.95c3.3,1.02,6.36-.27,9.89.48.2.11.42.22.64.31l.34.14.18.07s.03.03.05.05c.12.13.23.22.35.29.23.15.49.17.79.25.46.13.89.46,1.22.92.17.23.32.5.46.8l.1.23c.03.1.07.07.09.3.04.39.07.77.11,1.13,1.37,6.77-4.81,13.86-3.16,20.81-.22.2.16.81.32.82-.27,2.03-.53,3.84-.95,5.25,0,0-.33,1.39-.82,2.41-.05.14-.12.25-.18.38-.04.05-.02.12-.07.18-.05.15-.16.31-.27.47-.23.34-.49.62-.57.93-.09.3-.2.76-.62,1.08-.21.17-.46.31-.74.5-.29.17-.6.34-.81.69-.43.54-.98,1.75.27,3.37,1.2,1.55,4.65,3.13,9.2,1.4l-.02.39c1.22-.69,2.3-1.69,3.03-2.58.71-.85,1.21-1.7,1.57-2.53.7-1.66.79-3.21.36-4.73.95-.01,1.18-.85,1.2-1.72.03-.87-.12-1.78.22-2.17l.14.1c-1.16-2.37,1.61-4.18.56-6.31.14.09.64.18.62.64-.09-1.47-.29-3.48.78-3.48.07-3.47,1.04-8.23-.43-10.61l.28.18c-1.02-1.37,0-1.65-.45-3.11.15-.06.23-.16.29-.13-.49-.78-.45-1.65-.3-2.81.17-1.44.3-2.86,0-3.62l.7-.26c-.14-1.39-.46-2.71-.97-3.94.14.49.22,1,.3,1.5-.98.12-.83-.66-.89-1.81-.04-1.11-.42-2.71-1.97-3.22-.28-.3-.63-.51-1.06-.62-1.2-.33-2.77.11-4.06.61-1.32.5-2.33.96-3.18.44-1.22.78,1.2-1.35-.54-.85,0-1.02.91-.53.54-1.4-1.56.3-2.13-1.3-3.91-.82l.03-.8c-2.34,1.19-3.98-1.51-5.58-.3-2.32.41-1.25-2.51-3.76-1.22l-.8-1.16c-.99-.28-.85,1.23-1.92.6.14-.67-1.36-.68-.64-1.25-2.44-1.3-5.28,1-8.49-1.04-.83,1.25-2.47.36-3.08,1.3-.05-.59-3.39-.31-1.41-1.44.17-.09.46-.05.42.17l.28-.76c-1.85-1.58-3.56.59-5.46.29.56.28,1.31.24.78.76l-1.77-.18.4-.64-2.65-.48.34.82c-1.28-.45-1.72-1.85-3.21-.73-.67.63,1.21,1.12-.16,1.35-1.72-.58-4.34-1.43-6.59-1.64.22.91-.38.88-.99,1.09l-.09-.79c-2.35,1.17-.92-1.73-3.27-.77l.19-.56-.56,1.69c-2.05,1.68-1.24-1.6-3.49.68.92-.2.54,1.72-.61,1.45l.24-.78c-.62.2-.81.54-1.24.41.35-.44.12-1.13-.8-.93l.55-1-1.64,1.54c-1.42-.72-3.44.51-4.09-.51,0,0-2.91-.25-3.43,1,.49-.79-1.09-.91-.74-1.81-.66.9-2.73,1.8-3.68,1l.15-.12c-3.24-.58-5.26,1.76-8.13.88.2.91-1.3.51-.86,1.66-2.84,1.38-5.29-2.12-6.2,1.56-1.3.22-1.55-.84-2.21-1.01l.3-.2c-2.39.3-3.09.31-4.85.15-.89.32-1.14,1.99-2.71,1.46.57-.63-.09-.55-.68-.6.39-.08.52-.3-.2-.83-.13.2-.31.3-.48.39,0-.05-.03-.1,0-.17-1.01.12-.86.35-.41.5-.03.1-.01.23.11.44-.93-.96-2.89-.29-2.85-1.47-3-.16-5.4.57-8.03.51-.17-.64.53-1.04,1.31-1.12l-1.84-.15c.19-.83,1.14-.26,1.72-.33-1.85-1.78-4.7.44-7-1.35l-.67.55-.13-.14c-.07.35-.74.71-1.15.74-.21-.8.38-1.68-.91-1.9-.89-.9-2.97-.25-4.4-.09.71.26.39.62.03.82-.65-.09-.9-.9-1.46-.67l.11-1c.1.97-1.89.71-2.2,1.09-.26-.79,1.13-.47,1.39-1-2.69-.32-1.32-.2-4.03-.47-1.53.57.14.98-.66,1.76-1.27.02-2.55.6-3.94-.11l.38.93c-1.19.23-2.12.35-2.96.26-.83-.09-1.57-.38-2.37-.8-2.2.89-3.8,1.92-4.96,2.76-1.15.93-1.86,1.75-2.28,2.45-.84,1.42-.61,2.43.15,3.08.67.7,1.71,1.12,2.55,1.36.86.27,1.57.4,1.57.4,2.81.77,4.88.7,7.3.4,2.39-.32,5.12-.77,8.93-.44"/>
  <path class="cls-1" d="M28.73,24.06l-.43.46c.17.01.33-.1.43-.46"/>
  <path class="cls-1" d="M138.74,46.5s.09-.03.13-.07c-.09.02-.12.04-.13.07"/>
  <path class="cls-1" d="M29.12,45.01s-.04,0-.05,0c-.09.03-.19.03-.27.06l.32-.05Z"/>
  <path class="cls-1" d="M18.21,16.19c-.89,3.86-1.56,5.8-2.24,7.93-.16.53-.32,1.06-.46,1.61-.07.28-.13.56-.2.85-.02.08-.09.49-.13.75-.04.3-.09.6-.14.91-.31,2.4-.95,5.5-.05,8.27.28,1.36.82,2.64,1.71,3.86.91,1.23,2.05,2.16,3.27,2.81,1.22.66,2.68,1.13,4.3,1.36,1.62.2,3.25.31,4.8.47.37-.12.87-.18,1.18-.24.24-.06.48-.1.74-.1.51-.02,1.05.06,1.6.14,1.1.17,2.23.36,3.21-.08l.61.85c.68-.3,1.45-.47,2.03.03l-.07.21c1.01-.45,2.03.03,2.53-.2l-.07.22,1.15.05-.24.29c1.72-.4,3.41-.22,4.86.25v-.93c3.04,1.44,4.45-.31,7.16,1.28l-.07.22c3.94-1.95,5.52,2.39,9.55.58-.5.23.14.5.07.72,1.76-.04,3.61.06,3.87-1.74,1.25.19.95.7,1.02,1.42.1-.79,1.23-.98,2.21-.9l-.49.25,2.84.09-.36-1.56c1.43.62.14,1.87,1.61,1.69l.14-1.24c2.03.51,2.99,2.54,4.86,3.71,8.21,1.6,17.52-.39,24.94,2.78l.22.97c-.03,1.38,2.39-1.73,2.52-.44l.98-.5c.22.28.72.6.23.85.82.16.87-.06,1.52-.39l.78.96c3.18,1.08,6.18-.19,9.57.59,3.91,2.26,11.89,1.69,16.49,1.35,6.56-1.21,13.19,5.14,19.94,3.66.18.22.78-.14.8-.3l5.88.96s28.55,4.24,8.27-9.83l.18-.27c-3.14-1.14-5.15-1.56-7.57-.36-.11-1.87-2.63-.53-3.31-1.22l.09-.14c-2.15,1.15-3.91-1.69-5.97-.68.09-.14.2-.63.64-.6-1.41.05-3.36.21-3.33-.86-3.34-.15-7.89-1.24-10.23.18l.18-.27c-1.35.99-1.58-.03-3.01.37-.06-.15-.14-.23-.12-.29-1.46.96-3.86-.32-4.99.02l.02-.71-2.64-.18.96.28c-.59,1.89-1.82-1.47-3.88-.46-1.75-.48-4.13,3.56-5.85,2.37-1,.79.97-1.37-.44-.85.09-1.02.7-.55.46-1.4-1.35.31-1.98-1.31-3.67-.83l.04-.8c-2.27,1.17-3.79-1.55-5.35-.35-2.23.37-1.13-2.52-3.57-1.27l-.73-1.18c-.93-.3-.85,1.22-1.85.56.15-.66-1.27-.71-.57-1.26-2.26-1.36-5.06.86-7.99-1.33-.86,1.21-2.34.23-2.98,1.15-.01-.58-3.17-.51-1.23-1.51.17-.08.43-.03.39.19l.31-.75c-1.61-1.69-3.38.38-5.13-.08.49.32,1.21.35.67.82l-1.64-.32.43-.61-2.42-.7.23.85c-1.15-.57-1.4-2-2.91-1.03-.7.56,1,1.24-.3,1.32-1.54-.76-3.85-1.9-5.88-2.41.07.93-.47.83-1.07.94l.04-.8c-2.33.81-.58-1.84-2.86-1.25l.26-.52-.79,1.57c-2.16,1.31-.84-1.77-3.29.08.88-.02.18,1.79-.83,1.31l.37-.73c-.61.08-.84.38-1.21.17.4-.36.33-1.08-.55-1.06l.7-.88-1.81,1.19c-1.15-.98-3.28-.21-3.65-1.35,0,0-2.63-.88-3.41.22.64-.66-.82-1.13-.28-1.93-.81.73-2.96,1.14-3.68.15l.17-.08c-2.95-1.3-5.4.55-8-.9,0,.93-1.38.24-1.17,1.46-2.99.79-4.88-3.05-6.37.43-1.32.03-1.42-1.05-2.07-1.32l.33-.15c-2.46-.02-3.17-.08-4.96-.39-.47.12-.8.59-1.2.96-.2.18-.42.34-.69.41-.25.07-.65.05-.8-.07.38-.63.02-.55-.27-.59.23-.08.29-.32.09-.8-.11.2-.22.31-.33.41.02-.05.02-.09.05-.16-.53.17-.57.38-.37.5-.05.1-.09.23-.08.41-.12-.45-.46-.48-.76-.54-.29-.06-.5-.14-.11-.68-.71.08-1.7.07-2.19-.37-.51-.39-.79-.92-.94-1.67.64-.3,1.14-.07,1.34.19l-.12-.83c.88-.11.45.38.6.58.77-.66.45-.89.16-1.43-.17-.12-.26-.92-.25-1.48.01-.6.15-1.2.54-1.79l-.61-.6.13-.14c-.36-.04-.77-.65-.84-1.04.78-.26,1.7.22,1.8-1.01.83-.88-.03-2.7-.23-3.91-.23.6-.6.34-.82.02.08-.57.86-.75.64-1.23l1,.15c-.98.01-.7-1.6-1.02-1.88.79-.09.4.96.93,1.22.2-1.03.27-1.26.33-1.5.07-.24.11-.5.42-1.37-.29-1.22-.95-.21-1.56-1.02.19-.86.14-1.96,1-2.55.09-.05.19-.09.3-.13-.27-.1-.55-.2-.84-.29l-.07-.02v-.03c.64-1.87,2.06-2.55,3.46-2.14,1.21-1.43,2.91-2.28,4.31-2.59,1.42-.32,2.6-.32,3.44-.38.92,0,1.35-.52,1.68-.9.31-.42.43-.89.42-1.37-.31-1.33-1.78-3.02-3.44-3.89-1.63-.94-3.24-1.17-3.24-1.17-3.13-.73-6.38-.08-8.71,1.12-2.39,1.21-4.31,3-5.75,5.24-2.28,3.8-2.86,7.96-3.31,12.33"/>
  <path class="cls-1" d="M198.08,13.1l-.14.41c.13-.11.21-.25.14-.41"/>
  <path class="cls-1" d="M195.63,54.18s.02.05.04.08c0-.04-.02-.07-.04-.08"/>
  <path class="cls-1" d="M188.91,22.46h0s-.06,0-.1,0h.1Z"/>
  <path class="cls-1" d="M189.22,20.36c-.19.29-.49.65-.82.92-.15.13-.29.22-.35.26l.08-.04.1-.04h.01s0,0,0,0h0c-.07.03.16-.07-.16.07h0s0,0,0,0h.03s.07.02.07.02c-.05.22.43.46.72.92,1.37.05.11.68,1.26.95l-.76.19c.4.1.66.25.25.4h-.22c.59.18.24.43.54.53h-.22s.1.26.1.26l-.32-.04c.62.37.65.81.36,1.17h.93c-1.06.78.84,1.21-.43,1.92l-.22-.02c2.38,1.14-1.75,1.43.48,2.6-.28-.15-.48.01-.7-.01.23.48.32.99,2.13,1.17-.06.34-.59.23-1.3.2.79.07,1.09.41,1.11.68l-.29-.16.19.8h1.51c-.48.38-1.84-.09-1.52.35l1.24.14c-.31.54-2.23.65-3.21,1.06-.81,2.09,1.91,5.09-.68,6.7l-.94-.11c-1.35-.26,1.86.97.61.77l.56.36c-.25,0-.54.08-.81-.1-.1.19.12.25.48.49h-.88c-.83.61.57,1.69,0,2.36-1.92.35-1,2.21-.71,3.49.27.53.1.85-.23.98-.33.12-.83.07-1.3-.04-.97-.18-1.64-.66-1.32.52-.12-.16.05.26.12.39-.24.06-.47.1-.66.09,0,0-.16.02-.29.18-.14.17-.23.45-.48,1.07-.22.63-.74,1.52-1.1,3.03-.16.75-.27,1.66-.03,2.81.25,1.11.86,2.49,2.29,3.79l-.05.3c1.65.59,2.87.41,3.28-1.33.8,1.67,1.18-.26,1.7.13l.04.15c.09-.83.59-.76,1.13-.73.54.05,1.1.06,1.08-.7.06.14.34.56.19.7.4-.54.75-1.37,1.48-.58.96-1.12,2.73-2.42,1.86-4.15l.21.22c-.67-1.06.22-.59.02-1.35.13.05.21.06.26.1-.69-1.02.59-1.31.34-1.89l.64.31c.1-.31.2-.62.28-.93l-.29.25c-1.71-.96,1.43-.11.54-1.27.49-.52-3.32-2.61-2.24-2.78-.77-.56,1.32.72.79.1.97.32.54.4,1.34.56-.33-.55,1.22-.33.71-1.04l.77.21c-1.19-1.06,1.37-.96.15-1.76-.46-.82,2.4.12,1.06-.95l1.11-.03c.24-.26-1.23-.51-.65-.72.66.17.62-.3,1.2.03,1.2-.55-1.16-1.79.78-2.41-1.26-.45-.4-.79-1.34-1.12.57.07.26-.95,1.39-.19.09.06.06.14-.16.1l.76.2c1.55-.31-.63-1.14-.31-1.65-.28.12-.25.35-.76.12l.18-.49.63.21.5-.7-.82-.02c.47-.3,1.86-.24.77-.82-.61-.28-1.13.2-1.33-.23.62-.41,1.55-1.04,1.87-1.65-.92-.05-.86-.22-1.03-.42l.79.07c-1.02-.8,1.76-.04.97-.82l.54.12-1.63-.36c-1.5-.77,1.67-.16-.39-1.05.11.28-1.76-.05-1.38-.34l.76.16c-.14-.19-.46-.29-.29-.39.4.15,1.1.16,1-.11l.94.27-1.36-.63c.86-.32-.12-1.01.97-1.09,0,0,.59-.8-.58-1.07.72.22,1.03-.22,1.89-.03-.82-.28-1.46-.95-.56-1.16l.1.05c.96-.92-1.16-1.67-.03-2.51-.92.01-.41-.45-1.59-.36-1.14-.9,2.41-1.76-1.24-2.05-.21-.43.84-.55,1.02-.79l.2.1c-.34-.85-.4-1.09-.38-1.77-.39-.3-2.07-.13-1.75-.75.69.08.54-.13.5-.35.13.12.38.13.77-.24-.21,0-.35-.05-.47-.09.05-.01.09-.03.16-.04-.3-.33-.5-.22-.55-.04-.1.01-.23.05-.4.14.79-.55-.28-1.04.82-1.37-.57-1.14-1.99-1.54-2.82-2.23.48-.36,1.06-.38,1.41-.17l-.54-.62c.76-.39.64.2.9.35.43-.74-.14-1.08-.71-1.34-.59-.27-1.16-.46-1-1.3l-.67.24.05-.12c-.28.23-.8.36-.99.32.46-.6,1.32-1.12.88-1.52.19-.85-1.22-.69-1.92-.71.18.3-.17.55-.43.68-.22-.14.08-.84-.29-.7l.54-.85c-.44.84-1.2.44-1.5.76.21-.73.72-.34,1.07-.76-1.13-.54-.54-.3-1.76-.74-.91.48-.23.92-.84,1.64-.57,0-1.15.57-1.6-.11l.03.9c-.92.55-1.21.51-1.95-.33-.66,1.03-.76,1.99-.8,2.82-.03.83.04,1.57.15,2.21.21,1.29.62,2.22,1.09,2.88.47.66.94,1.07,1.18,1.36.25.29.3.45.3.45-.42-1.25-.67-2.16-.79-2.71-.13-.52-.2-1.12-.18-.95,0-.03,0,.12-.02.28-.05.33-.27,1.1-.89,1.92"/>
  <path class="cls-1" d="M199.17,80.9l-.3.59c.17-.03.3-.18.3-.59"/>
  <path class="cls-1" d="M219.7,216.56s.06.08.11.11c-.05-.08-.08-.11-.11-.11"/>
  <path class="cls-1" d="M189.36,103.41v-.03s-.07-.09-.11-.13l.11.16Z"/>
  <path class="cls-1" d="M186.95,75.76c.45,7.28-1.03,9.41.6,16.81.3,3.59,1.17,7.35,1.81,10.81,1.55,1.49.59,4.58,1.95,6.4l-.66.85c.47.63.83,1.39.5,2.12l-.23-.02c.7.94.5,2.12.85,2.58l-.23-.02.25,1.21-.34-.17c.83,1.68,1.09,3.49,1.01,5.12l.9-.25c-.6,3.54,1.46,4.56.62,7.79l-.23-.02c2.91,3.6-.89,6.37,1.91,10.1-.35-.47-.45.27-.67.26.49,1.82.88,3.78,2.68,3.58.14,1.35-.43,1.17-1.1,1.43.79-.11,1.26,1.03,1.45,2.07l-.37-.45.65,2.99,1.42-.78c-.23,1.66-1.77.64-1.21,2.13l1.23-.18c.04,2.25-1.66,3.79-2.3,6.06.65,9.04,5.18,18.17,4.47,26.84l-.86.53c-1.32.4,2.4,1.95,1.22,2.49l.79.86c-.19.32-.35.94-.73.51.11.91.34.89.87,1.46l-.65,1.12c.02,3.67,2.26,6.35,2.72,10.08-.75,4.8,2.63,12.64,4.47,17.14,1.68,3.1,1.48,6.84,1.26,10.52-.27,3.69-.57,7.27.83,10.47-.18.23.3.75.46.74.11,2.03.1,4.05.09,6.05,0,0,0,.46,0,1.21,0,.75.08,1.81.06,2.99.07,2.38.11,5.3.47,7.62.3,2.3,1.05,4.07,2.63,3.96.79-.06,1.79-.6,3.06-1.85,1.31-1.25,2.75-3.24,4.42-6.25l.29.19c.44-1.82.75-3.34.72-4.71-.06-1.37-.4-2.59-1.15-3.84,1.84-.45.07-3.01.63-3.89l.15.07c-1.54-2.12.86-4.69-.65-6.7.15.07.66.06.75.55-.41-1.53-1.05-3.6-.01-3.85-.77-3.65-1.11-8.84-3.25-10.82l.32.1c-1.38-1.1-.47-1.67-1.34-3.01.12-.11.17-.22.23-.22-1.4-1.2-1-4.09-1.72-5.13l.68-.22-.76-2.76.08,1.07c-1.99.05.74-2.36-.93-4.12-.17-1.94-4.8-2.95-4.29-5.11-1.09-.74,1.63.5.64-.74.98-.26.76.51,1.48-.02-.76-1.26.53-2.46-.49-3.99l.76-.23c-1.88-1.89.17-4.32-1.47-5.5-1.08-2.13,2.03-1.95.05-4.01l.89-1.11c0-1.03-1.42-.49-1.11-1.69.68-.05.28-1.5,1.03-.96.61-2.7-2.37-4.88-1.13-8.5-1.42-.52-.91-2.32-1.96-2.72.55-.18-.42-3.39,1.1-1.69.13.15.15.44-.07.45l.81.11c1.17-2.12-1.32-3.35-1.37-5.27-.18.6,0,1.33-.6.91l-.15-1.78.7.27v-2.68s-.75.47-.75.47c.24-1.34,1.55-1.98.2-3.28-.73-.57-.92,1.37-1.36.04.32-1.8.8-4.49.76-6.72-.88.32-.92-.27-1.19-.86l.78-.17c-1.39-2.2,1.62-1.08.46-3.29l.58.13-1.72-.4c-1.83-1.9,1.49-1.34-.93-3.4.25.91-1.68.65-1.48-.53l.8.19c-.24-.61-.58-.78-.48-1.22.46.32,1.13.06.89-.85l1.03.5-1.62-1.57c.65-1.45-.64-3.47.36-4.15,0,0,.16-2.97-1.09-3.49.8.49.88-1.14,1.79-.79-.92-.65-1.87-2.79-1.1-3.79l.12.16c.49-3.41-1.93-5.48-1.21-8.57-.9.25-.59-1.37-1.71-.84-1.54-2.92,1.69-5.87-2.07-6.53-.37-1.37.64-1.75.74-2.5l.23.31c-.62-2.57-.75-3.32-.9-5.27-.47-.92-2.17-.86-1.98-2.65.74.48.52-.22.45-.86.16.4.42.5.76-.41-.22-.09-.37-.26-.5-.42.05-.01.09-.05.16-.04-.37-1.05-.55-.84-.58-.32-.11-.01-.23.05-.4.22.72-1.23-.45-3.12.68-3.4-.67-3.22-2.14-5.39-2.92-8.04.55-.38,1.15.19,1.48.95l-.45-1.89c.85-.09.63,1.04.87,1.61,1.09-2.46-1.95-4.54-1.03-7.38l-.74-.47.09-.17c-.35.05-.91-.49-1.08-.87.69-.47,1.71-.19,1.5-1.5.58-1.14-.73-2.94-1.3-4.26-.03.76-.47.57-.77.28-.11-.66.58-1.13.2-1.61l.99-.19c-.91.38-1.23-1.61-1.67-1.8.69-.47.76.95,1.34,1.05-.42-2.65-.21-1.32-.63-3.97-.93-1.33-.91.38-1.87-.2-.35-1.23-1.2-2.36-.78-3.88l-.83.56c-.98-2.27-1.05-3.69-.35-5.39-9.39-16.64-10.31-2.47-10.31-2.47-1.1,7.15,1.92,10.39,3.63,18.52"/>
  <path class="cls-1" d="M159.73,280.05l.41.1c-.13-.11-.27-.18-.41-.1"/>
  <path class="cls-1" d="M202.97,261.6s0-.05,0-.09c-.02.04-.01.06,0,.09"/>
  <path class="cls-1" d="M173.58,284.01h0s.02.07.03.11l-.02-.11Z"/>
  <path class="cls-1" d="M166.93,289.27c1.71-1.3,3.31-.47,4.43-2.55.88-.66,1.5-1.77,2.22-2.7-.5-1.37,1.1-1.02.83-2.28l.69.42c-.09-.43-.07-.8.36-.63l.14.18c-.14-.65.36-.62.29-.94l.13.18.23-.32.15.29c.03-.81.44-1.22.99-1.29l-.61-.7c1.45.17.6-1.59,2.07-1.13l.12.19c-.42-2.7,2.36.41,2.08-2.13.03.32.29.38.39.58.3-.46.7-.84-.12-2.47.36-.15.54.37.89.98-.36-.71-.21-1.15.04-1.33v.34c.22-.21.44-.38.66-.58l-.74-1.32c.6.21.82,1.65,1.07,1.14l-.46-1.16c.71.01,1.68,1.64,2.41,2.41,1.08-.03,1.85-.85,3.02-1.35,1.16-.51,2.61-.67,3.97.51l.08.94c-.02,1.37.92-1.98.97-.71l.39-.61c.09.25.3.52.1.82.34.07.35-.16.62-.56l.35.86c1.42.7,2.75-1,4.33-.83,1.05.75,2.5.56,3.77-.06,1.28-.62,2.39-1.62,3.13-2.38.92-1.4,2.48-1.14,4.14-1,1.62.14,3.3.16,3.87-1.5.17.13.15-.36.07-.49l2.12-.99s2.47-1.32,3.18-3.3c.73-1.99-.23-4.56-6.58-7.28l-.11-.28c-1.37-.01-2.04.21-1.96,1.9-1.04-1.52-.9.3-1.42-.09l-.05-.14c.09,1.57-1.77-.35-1.73,1.05-.05-.14-.27-.59-.15-.69-.3.41-.67,1.07-1.18.13-.85.73-2.34.88-2.32,2.69l-.07-.29c.07,1.22-.4.35-.6,1.04-.07-.12-.12-.18-.14-.24-.01,1.23-1.09.57-1.26,1.12l-.23-.67c-.24.14-.49.27-.73.38l.33.07c.4,1.91-.9-1.03-1.15.33-.53-.15-.36,4.23-1.19,3.36-.17.95.05-1.51-.29-.75-.15-1.01.11-.66-.11-1.45-.35.55-.76-.95-1.17-.23l-.08-.79c-.54,1.52-1.17-.99-1.58.4-.71.65-.4-2.36-1.17-.83l-.25-1.08c-.31-.19-.3,1.3-.64.77.06-.67-.45-.56-.19-1.19-.8-1.1-1.86,1.39-3.13-.44-.32,1.31-1,.51-1.23,1.51-.03-.58-1.44-.07-.65-1.33.07-.1.2-.09.19.14l.09-.78c-.91-1.46-1.56.85-2.45.72.29.23.63.13.45.69-.27,0-.55-.03-.82-.02l.1-.68-1.31-.2.3.78c-.65-.33-1.16-1.64-1.6-.35-.16.69.78.95.23,1.33-.88-.39-2.26-.86-3.32-.76.39.83.12.89-.07,1.16l-.3-.74c-.6,1.4-1.01-1.51-1.68-.28l-.13-.55.39,1.64c-.2,1.8-1.17-1.31-1.16,1.08.29-.29.91,1.5.35,1.39l-.23-.74c-.16.26-.1.59-.33.52-.05-.44-.43-1.03-.72-.74l-.2-.97c-.02.53,0,1.07,0,1.6-.9-.46-1.15.88-1.89.07,0,0-1.32.18-.89,1.32-.2-.75-.9-.63-1.22-1.45.18.87-.16,1.93-.96,1.41v-.12c-1.64.04-1.07,2.31-2.63,2.14.61.69-.17.67.68,1.49-.14,1.61-3.15-.51-1.09,2.53-.25.47-1.01-.26-1.33-.23l-.04-.22c-.51.84-.7,1.05-1.26,1.45-.02.49,1.07,1.79.35,1.89-.31-.63-.41-.37-.58-.22.04-.18-.1-.39-.62-.52.11.18.15.32.17.44-.04-.04-.07-.06-.12-.12-.12.43.07.54.26.49.06.08.16.17.33.27-.88-.38-.77.79-1.59-.03-.67.99-.46,2.44-.83,3.44-.5-.35-.71-.88-.66-1.25l-.34.65c-.6-.61-.06-.63-.03-.91-1.58-.38-.25,2.19-1.84,2.04l.35.61-.12-.03c.26.24.47.74.46.92-.64-.4-1.26-1.17-1.56-.76-.8-.18-.49,1.09-.51,1.75.28-.13.53.2.66.46-.14.2-.81-.16-.68.19l-.79-.62c.79.52.38,1.16.65,1.49-.67-.35-.26-.7-.66-1.1-.57.86-.29.42-.83,1.31.28.89.82.49,1.38,1.22-.13.49.21,1.26-.6,1.35l.83.36c.1,1.09-.24,1.42-1.3,1.47.75,2.3,1.84,3.66,2.83,4.51,1,.85,1.93,1.27,2.74,1.39,1.58.34,2.53-.06,2.53-.06,1.24-.25,1.42-.8,1.39-1.65-.02-.84-.22-1.97.26-3.09"/>
  <path class="cls-1" d="M174.5,251.71l.36-.3c-.17.01-.32.09-.36.3"/>
  <path class="cls-1" d="M172,177.66s-.05-.05-.09-.07c.03.05.06.06.09.07"/>
  <path class="cls-1" d="M186.64,239.92v.02s.06.05.1.07l-.1-.09Z"/>
  <path class="cls-1" d="M186.1,254.87c.32-3.93,2.02-5.03,1.19-9.06.08-1.94-.39-3.99-.65-5.88-1.38-.85-.1-2.48-1.26-3.51l.75-.44c-.4-.35-.67-.77-.27-1.15h.22c-.6-.51-.27-1.14-.57-1.4l.22.02-.12-.66.32.1c-.64-.93-.72-1.91-.46-2.79l-.92.1c.98-1.89-.97-2.5.21-4.21l.22.02c-2.51-2.03,1.56-3.39-.83-5.49.3.26.47-.13.7-.12-.3-.99-.47-2.06-2.29-2.02,0-.73.55-.61,1.25-.73-.8.03-1.15-.59-1.22-1.16l.32.25-.32-1.63-1.49.37c.41-.88,1.83-.28,1.44-1.1l-1.24.05c.21-1.21,2.07-1.97,2.95-3.16.38-4.84-2.96-9.92-.91-14.48l.93-.23c1.36-.13-2.06-1.18-.8-1.39l-.64-.5c.24-.16.49-.47.81-.22.04-.48-.19-.49-.61-.82l.83-.54c.6-1.93-1.09-3.49-.83-5.51,1.66-2.46-.08-6.94-1.09-9.53-2.16-3.61,3.15-8.04.69-11.73.19-.13-.26-.43-.41-.43l.08-3.45s0-16.69-10.94-3.69l-.3-.08c-.67,1.9-.79,3.1.76,4.35-1.83.26-.14,1.55-.72,2.01l-.15-.04c1.45,1.11-1.1,2.4.2,3.47-.15-.04-.65-.05-.69-.3.26.8.7,1.89-.36,1.98.34,1.92-.07,4.62,1.68,5.81l-.3-.08c1.17.67.2.91.81,1.68-.14.05-.21.11-.27.1,1.16.73.25,2.23.75,2.84l-.71.06.21,1.52.13-.57c1.96.14-1.19,1.19.11,2.26-.21,1.04,4.13,1.98,3.2,3.08.93.49-1.5-.41-.77.34-1.02.06-.65-.34-1.46-.12.51.74-1,1.27-.28,2.18l-.79.06c1.49,1.17-.97,2.32.44,3.08.69,1.23-2.33.91-.73,2.16l-1.06.54c-.15.56,1.33.36.83.99-.68-.02-.51.8-1.17.46-1.01,1.43,1.59,2.79-.14,4.69,1.33.36.57,1.31,1.57,1.58-.57.07-.03,1.86-1.31.86-.11-.09-.09-.24.13-.24l-.78-.1c-1.44,1.1.87,1.88.68,2.93.25-.32.17-.72.71-.47l-.08.97-.66-.18-.34,1.45.81-.22c-.4.72-1.77,1.01-.59,1.77.65.34,1.07-.7,1.35.03-.52.96-1.31,2.39-1.52,3.6.91-.14.89.18,1.09.51l-.79.06c1.14,1.24-1.73.52-.81,1.76l-.56-.09,1.67.28c1.61,1.09-1.63.67.56,1.87-.15-.5,1.74-.29,1.42.33l-.77-.13c.17.33.5.44.34.67-.42-.19-1.12-.07-.97.43l-.97-.3,1.44.9c-.8.76.27,1.89-.8,2.22,0,0-.48,1.59.72,1.92-.75-.29-1,.59-1.87.37.84.38,1.57,1.56.69,2.08l-.1-.09c-.85,1.82,1.34,3.01.29,4.65.92-.1.45.76,1.62.51,1.22,1.62-2.3,3.1,1.36,3.58.22.75-.83.92-1,1.32l-.2-.17c.34,1.4.39,1.81.34,2.86.37.51,2.07.54,1.69,1.49-.68-.28-.54.1-.53.45-.11-.22-.36-.28-.8.19.21.06.34.15.45.24-.05,0-.09.03-.17.02.26.58.46.47.55.19.1.01.23-.02.42-.11-.85.64.11,1.69-1.04,1.81.32,1.75,1.56,2.97,2.05,4.43-.59.19-1.13-.14-1.37-.56l.25,1.03c-.86.02-.51-.58-.69-.9-1.34,1.29,1.46,2.51.24,4l.69.28-.11.09c.36-.02.85.29.98.5-.74.23-1.72.04-1.65.76-.7.59.41,1.6.84,2.33.11-.41.53-.29.8-.13.04.36-.7.59-.37.86l-1,.07c.94-.17,1.05.91,1.47,1.02-.74.23-.66-.54-1.22-.61.14,1.44.07.72.21,2.16.78.74.95-.17,1.84.17.22.67.94,1.31.36,2.11l.88-.28c.73,1.25.65,2.02-.22,2.91,7.57,9.25,9.99,1.66,9.99,1.66,1.85-3.81-.81-5.65-1.64-10.08"/>
  <path class="cls-1" d="M90.57,37.49l-.38.07c.17.01.32,0,.38-.07"/>
  <path class="cls-1" d="M87.31,64.41s.04.02.08.04c-.03-.02-.05-.03-.08-.04"/>
  <path class="cls-1" d="M77.74,40.41h0s-.05-.03-.09-.04l.09.04Z"/>
  <path class="cls-1" d="M79.22,35.24c-.57,1.35-2.32,1.56-1.75,3.04-.21.67.13,1.43.27,2.11,1.31.45-.07.88,1.02,1.36l-.78.07c.37.17.62.35.19.43l-.22-.03c.56.25.19.43.47.56l-.22-.03.07.24-.31-.07c.57.4.58.75.26,1.03l.92.08c-1.1.54.78.99-.51,1.44l-.22-.03c2.34,1.03-1.79.98.43,2.02-.28-.13-.48-.02-.7-.05.22.39.31.78,2.12,1-.06.26-.59.14-1.29.09.79.1,1.09.36,1.12.57l-.29-.13.2.61,1.51.07c-.47.25-1.83-.15-1.5.19l1.24.15c-.3.4-2.2.41-3.17.7-.74,1.62,2.15,3.89-.25,5.16l-.94-.06c-1.36-.17,1.94.73.68.6l.59.27c-.25.02-.52.09-.82-.05-.08.16.14.2.53.38l-.87.06c-.76.57.78,1.38.35,2.04-1.85.58-.52,2.41.24,3.48,1.8,1.64-3.82,2.21-1.75,3.92-.2,0,.21.19.36.22l-.41,1.17s-.02.09-.04.24c0,.04,0,.08-.01.12v.07s0,.02,0,.02h0s1.66.31,1.66.31l.15.03c.41.08.88.19,1.33.32.91.25,1.72.72,1.86.97.05.07.05.09.05.09v-.03s.02.26.02.26v.02s-.01.04,0,.03c-.05,0,.21-.17.39-.17.19-.02.08.02-.14-.06-.23-.06-.36-.24-.32-.21.01.04-.09.18-.14.22l-.02.02h0s0,0,0,0l-1.51,1.48h0s.05-.05.05-.05l.19-.18c.12-.13.25-.26.39-.4l.88-.86h0s.01-.01.01-.01l.02-.02s.03-.03.05-.06c.04-.07.07-.09.07-.15-.02-.03.04.08-.04-.08-.06-.1-.2-.16-.33-.19-.29-.04-.59,0-.9.13-.3.12-.61.32-.87.67-.21.36-.58.87-.05,2,.18.29.36.57.69.83.32.26.73.48,1.08.6.95.24,1.15.3,1.76.33,1.1.03,2.25-.47,3.02-.93.05.1.08.22.11.34.84-.77,1.18-1.3,1.46-1.74.26-.44.39-.78.43-1.09.05-.38-.04-.44-.2-.6-.16-.15-.41-.31-.76-.5,1.82.25.29-.52.9-.58l.15.04c-1.32-.66,1.31-.65.14-1.27.14.04.64.14.65.24-.18-.33-.51-.8.55-.64-.16-.75.5-1.64-1.11-2.37l.29.08c-1.1-.44-.11-.36-.65-.74.14,0,.21,0,.27.01-1.08-.46-.04-.84-.48-1.14l.7.1-.07-.58-.18.18c-1.92-.38,1.28-.22.09-.82.3-.34-3.89-1.39-2.89-1.63-.87-.32,1.44.39.79,0,1.01.15.61.23,1.43.28-.43-.35,1.1-.29.47-.73l.79.11c-1.37-.66,1.16-.67-.17-1.17-.58-.55,2.38.04.91-.66l1.09-.03c.2-.18-1.28-.34-.73-.48.67.11.58-.21,1.19.02,1.12-.36-1.34-1.25.53-1.67-1.28-.33-.46-.56-1.42-.8.57.06.18-.66,1.36-.11.1.05.07.1-.15.07l.77.15c1.51-.18-.71-.81-.43-1.16-.27.08-.22.24-.74.06l.15-.34.64.16.45-.47-.82-.04c.45-.2,1.83-.11.72-.55-.62-.21-1.12.1-1.34-.2.59-.27,1.49-.68,1.79-1.09-.91-.07-.86-.19-1.03-.33l.79.09c-1.03-.6,1.76.05.94-.53l.54.11-1.63-.33c-1.51-.61,1.66-.02-.41-.75.11.2-1.75-.13-1.38-.31l.76.15c-.15-.14-.46-.22-.29-.29.4.12,1.1.17.99-.03l.94.24-1.36-.52c.85-.17-.12-.72.96-.7,0,0,.59-.52-.57-.79.72.2,1.03-.08,1.88.11-.81-.25-1.44-.76-.53-.84l.1.04c.98-.55-1.1-1.26.05-1.72-.92-.07-.39-.33-1.57-.38-1.09-.73,2.5-.85-1.1-1.45-.17-.3.88-.24,1.08-.36l.18.08c-.24-.55-.26-.7-.14-1.07-.33-.23-2.02-.42-1.57-.72.66.18.55.02.56-.1.1.09.34.14.81.02-.21-.04-.33-.09-.43-.14.05,0,.09,0,.17.01-.22-.24-.43-.22-.53-.13-.1-.02-.23-.02-.42,0,.89-.14,0-.62,1.15-.54-.21-.67-1.35-1.24-1.75-1.81.6,0,1.11.17,1.33.34l-.18-.4c.85.08.47.26.63.4,1.42-.33-1.29-1.06.02-1.47l-.66-.17.12-.02c-.36-.03-.83-.19-.94-.28.75-.01,1.71.15,1.69-.11.73-.15-.31-.62-.68-.93-.14.14-.55.05-.8-.03-.01-.13.73-.15.42-.27l1,.07c-.95-.03-.99-.43-1.4-.51.75-.02.62.25,1.18.33-.05-.53-.03-.27-.08-.8-.73-.34-.95-.02-1.82-.23-.18-.26-.85-.56-.23-.79l-.9.02c-.65-.52-.53-.78.39-1.03-3.5-1.98-5.96-2.32-7.55-2.19-1.59.14-2.3.75-2.3.75-2.06,1.17.48,2.04,1.04,3.67"/>
  <path class="cls-1" d="M99.54,26.99l-.07.43c.12-.12.18-.27.07-.43"/>
  <path class="cls-1" d="M97.03,79.59s.04.06.07.09c-.02-.06-.04-.08-.07-.09"/>
  <path class="cls-1" d="M88.72,38.2h0s-.06,0-.09,0h.09Z"/>
  <path class="cls-1" d="M89.15,36.48c.13.22-.22.78-.6,1.19-.38.43-.66.55-.3.4-.15.11.26,0,.46.12.68-.03.68.07.65.14,0,.04-.01,0-.02.1,0,.1,0,.21.02.31.04.21.16.41.43.6l-.78.21c.37.27.61.56.18.77l-.22-.03c.55.4.18.77.45.97l-.22-.03.07.44-.31-.1c.57.67.56,1.31.23,1.85l.93.03c-1.13,1.12.75,1.72-.56,2.71l-.22-.03c2.32,1.59-1.84,2.03.34,3.65-.27-.2-.48.03-.7,0,.2.68.28,1.39,2.09,1.56-.07.48-.6.34-1.31.33.79.07,1.09.52,1.1.89l-.29-.2.17,1.09,1.52-.07c-.49.53-1.84-.03-1.53.54l1.24.11c-.32.76-2.24,1.04-3.24,1.7-.85,3.07,1.94,6.81-.59,9.48l-.95.02c-1.36-.11,1.92,1.04.65,1.01l.58.42c-.25.06-.54.23-.82.03-.09.31.13.34.51.62l-.89.23c-.8,1.15.69,2.41.19,3.67-1.92,1.32-.74,4.5-.06,6.28.22.26.33.42.37.45l.74.22c.3.1.5.17.72.26.41.17.7.31.91.45.81.53.14.65.25-1.11.03-.44.09-.94.22-1.68l.12-.59.16-.68.05-.22v-.07c0-.18-.32-.42-.48-.55-.4-.29-.85-.36-1.51,0,.02-.2-.3.13-.36.28-.51-.29-1-.61-1.47-.95,0,0-.44-.28-1.1-.54-.66-.26-1.52-.53-2.47-.47-.94.07-1.99.45-2.93,1.69-.89,1.24-1.79,3.36-1.41,7.12l-.23.2c.81,1.45,1.63,2.11,3.24,1.29-.73,1.7.99.74,1.04,1.41l-.09.12c1.4-.9,1.28,1.87,2.61,1.01-.08.12-.28.59-.48.54.71.03,1.68-.09,1.4.95.37.04.86.19,1.68.34.79.13,1.86.29,3.29.02,1.41-.23,3.07-1.15,3.92-2.26.88-1.1,1.08-2.12.95-2.81l.19.28c-.21-.87-.17-1.18-.04-1.5.12-.3.3-.61.1-1.08.15-.02.23-.06.28-.04-.48-.51-.47-.94-.39-1.26.09-.35.25-.68.04-.92l.71.07-.02-1.03-.2.36c-1.92-.4,1.32-.6.16-1.5.34-.66-3.84-1.92-2.8-2.5-.86-.46,1.43.49.8-.1,1.01.11.6.32,1.43.29-.41-.56,1.14-.68.53-1.38l.79.08c-1.34-.98,1.23-1.38-.08-2.09-.55-.91,2.41-.27.97-1.32l1.11-.21c.22-.35-1.27-.42-.71-.77.67.1.6-.45,1.2-.14,1.16-.81-1.27-2.06.65-3.08-1.28-.42-.43-.94-1.39-1.25.57.03.23-1.22,1.39-.39.1.07.06.17-.16.14l.77.17c1.54-.54-.67-1.36-.36-2.03-.28.18-.24.46-.75.22l.17-.63.64.2.49-.92-.82.05c.46-.42,1.86-.45.76-1.09-.61-.31-1.13.33-1.34-.19.61-.57,1.54-1.42,1.86-2.2-.92-.02-.86-.23-1.03-.47l.79.05c-1.02-.96,1.77-.14.98-1.07l.54.13-1.63-.38c-1.49-.91,1.68-.26-.38-1.3.1.35-1.76,0-1.38-.39l.75.18c-.14-.24-.45-.35-.28-.48.4.17,1.1.18,1-.17l.93.31-1.35-.76c.86-.41-.09-1.28,1-1.39,0,0,.62-1-.54-1.35.71.28,1.04-.28,1.89-.04-.81-.34-1.42-1.21-.5-1.45l.1.07c1-1.12-1.07-2.14.11-3.12-.92-.02-.38-.55-1.57-.5-1.08-1.19,2.54-1.84-1.06-2.5-.16-.52.89-.53,1.1-.78l.18.13c-.12-.48-.18-.79-.19-1.07-.02-.3,0-.43.09-1.05-.32-.59-2.01-.63-1.55-1.53.66.24.56-.12.58-.47.09.21.34.27.82-.27-.21-.04-.33-.13-.43-.21.05-.01.1-.04.17-.04-.2-.57-.42-.41-.53-.13-.1,0-.24.05-.43.16.92-.76.04-1.62,1.22-2.02-.36-1.68-1.65-2.27-2.09-3.24.54-.48,1.03-.47,1.28-.2-.1-.28-.16-.57-.31-.8.39-.24.53-.19.6-.05.05.16.02.4.11.5.63-1,.1-1.31-.38-1.63-.51-.32-1.03-.6-1-1.54l-.69.25.03-.13c-.26.24-.82.39-1.05.38.39-.62,1.24-1.23.68-1.53.08-.81-1.46-.31-2.32-.11.24.21-.14.53-.44.72-.29-.04,0-.75-.43-.52l.59-.92c-.46.88-1.43.75-1.78,1.14.23-.74.85-.52,1.26-1.02-1.38-.16-.68-.11-2.12-.17-1.08.69-.3.94-1.03,1.78-.69.16-1.44.83-1.91.2l-.06.89c-1.18.64-1.59.51-2.21-.42-3.41,3.47-3.8,5.94-3.45,7.53.38,1.59,1.58,2.32,1.58,2.32.3.26.58.45.85.58l.2.09s0,.04,0,.06c0,.03-.01.05-.01.05-.02.02,0-.14.08-.38.15-.48.65-1.28,1.23-1.6"/>
  <path class="cls-1" d="M93.4,38.79l-.39.06c.17.03.32.02.39-.06"/>
  <path class="cls-1" d="M89.42,69.31s.05.02.08.04c-.03-.02-.05-.03-.08-.04"/>
  <path class="cls-1" d="M80.3,41.57h0s-.05-.03-.09-.05l.09.05Z"/>
  <path class="cls-1" d="M82.29,35.47c-.71,1.56-2.49,1.73-2.07,3.54-.27.79,0,1.72.08,2.55,1.27.58-.14,1.05.91,1.66l-.78.06c.36.21.59.43.16.52l-.22-.04c.54.31.16.52.43.68l-.22-.04.06.29-.31-.09c.55.49.53.91.2,1.23l.92.1c-1.14.63.72,1.19-.59,1.71l-.22-.04c2.29,1.23-1.84,1.17.32,2.4-.27-.15-.48-.02-.7-.06.2.46.28.93,2.08,1.18-.07.3-.6.17-1.3.12.79.11,1.08.42,1.1.66l-.29-.15.18.72,1.51.07c-.48.3-1.83-.15-1.52.24l1.24.16c-.31.47-2.22.51-3.2.88-.8,1.96,2.08,4.53-.33,6.15l-.94-.03c-1.36-.13,1.95.76.68.68l.59.3c-.25.03-.53.13-.82-.02-.08.2.15.23.54.43l-.87.12c-.75.73.79,1.6.37,2.4-1.84.81-.47,2.91.33,4.1,1.86,1.75-3.74,2.99-1.58,4.81-.2.03.22.21.38.23l-.34,1.43s-.3,1.75.88,2.95c1.18,1.21,3.83,1.85,9.72-.24l.29.06c.8-.71,1-1.18-.44-1.87,1.84.1.25-.62.86-.74l.15.03c-1.36-.62,1.27-.86.05-1.44.14.03.64.09.66.2-.2-.36-.56-.85.51-.77-.2-.82.41-1.88-1.23-2.57l.29.07c-1.11-.41-.13-.39-.68-.78.14,0,.22-.02.27,0-1.1-.44-.08-.94-.53-1.25l.71.06-.09-.65-.18.22c-1.93-.3,1.27-.34.06-.94.29-.4-3.93-1.33-2.93-1.67-.88-.32,1.46.36.79-.04,1.01.11.62.22,1.43.23-.44-.37,1.09-.39.45-.85l.79.08c-1.38-.67,1.15-.82-.18-1.32-.59-.59,2.38-.07.9-.79l1.09-.08c.2-.21-1.29-.32-.74-.51.67.1.57-.26,1.19-.03,1.12-.44-1.35-1.35.52-1.89-1.28-.33-.46-.61-1.43-.86.57.05.19-.75,1.37-.17.1.05.07.11-.15.08l.77.15c1.52-.25-.7-.89-.42-1.28-.27.09-.23.27-.74.09l.16-.38.64.17.46-.54-.82-.02c.45-.23,1.84-.16.73-.63-.62-.23-1.12.13-1.33-.21.6-.31,1.5-.78,1.81-1.24-.91-.08-.86-.2-1.03-.36l.79.09c-1.02-.67,1.76.04.96-.59l.54.12-1.63-.36c-1.5-.68,1.67-.03-.39-.84.11.22-1.75-.14-1.37-.35l.75.17c-.14-.16-.45-.25-.28-.33.4.14,1.1.2,1-.03l.93.27-1.34-.58c.86-.19-.1-.81.99-.78,0,0,.62-.57-.54-.89.71.23,1.04-.08,1.88.14-.8-.28-1.41-.88-.5-.95l.09.05c1-.6-1.05-1.43.14-1.93-.92-.1-.37-.38-1.55-.46-1.05-.85,2.55-.89-1.01-1.67-.15-.34.9-.24,1.11-.37l.18.1c-.21-.62-.22-.8-.07-1.22-.32-.27-1.99-.56-1.52-.88.65.23.55.05.57-.09.09.11.33.17.81.05-.2-.06-.32-.12-.42-.17.05,0,.09,0,.16.02-.2-.28-.41-.27-.52-.17-.1-.02-.23-.03-.42-.03.9-.12.05-.71,1.2-.56-.15-.76-1.25-1.47-1.6-2.14.6.03,1.1.25,1.3.46l-.15-.46c.84.14.45.32.59.48,1.45-.29-1.19-1.26.15-1.66l-.65-.23.12-.02c-.35-.06-.81-.27-.91-.37.75.03,1.7.28,1.7-.02.75-.12-.25-.72-.59-1.09-.15.14-.55.02-.8-.09,0-.15.75-.12.45-.28l1,.15c-.95-.09-.95-.55-1.34-.67.75.04.59.33,1.14.46,0-.61,0-.3,0-.91-.7-.44-.95-.1-1.79-.39-.15-.31-.79-.7-.14-.92l-.89-.05c-.6-.64-.44-.94.51-1.14-6.49-5.16-9.65-2.5-9.65-2.5-2.21,1.24.21,2.48.59,4.46"/>
  <path class="cls-1" d="M95.78,39.68l-.38.09c.17.01.32,0,.38-.09"/>
  <path class="cls-1" d="M92.45,68.81s.04.02.08.04c-.03-.02-.05-.03-.08-.04"/>
  <path class="cls-1" d="M82.97,43.11h0s-.06-.03-.09-.04l.09.04Z"/>
  <path class="cls-1" d="M84.4,37.53c-.55,1.46-2.31,1.73-1.72,3.31-.2.72.14,1.53.28,2.27,1.32.46-.06.94,1.03,1.44l-.78.09c.37.17.62.36.19.46l-.22-.03c.56.26.19.46.47.59l-.22-.03.08.26-.31-.07c.58.42.58.8.27,1.1l.92.06c-1.1.6.78,1.05-.5,1.56l-.22-.03c2.35,1.06-1.79,1.09.43,2.16-.28-.14-.48,0-.7-.04.22.41.31.83,2.12,1.04-.06.28-.59.16-1.29.12.79.09,1.09.37,1.12.59l-.29-.14.2.65,1.51.05c-.47.28-1.83-.13-1.51.23l1.24.14c-.3.43-2.21.47-3.17.8-.75,1.75,2.13,4.15-.28,5.55l-.94-.06c-1.36-.16,1.94.75.67.64l.59.29c-.25.02-.53.1-.82-.04-.08.17.14.21.53.4l-.87.07c-.76.62.78,1.48.33,2.18-1.86.64-.55,2.59.19,3.74,1.79,1.74-3.87,2.41-1.82,4.22-.2.01.21.21.36.24l-.43,1.26s-.43,1.54.64,2.76c1.07,1.21,3.64,2.18,9.68.81l.28.09c.86-.59,1.1-1.03-.28-1.82,1.82.26.3-.57.92-.63l.15.04c-1.31-.7,1.33-.71.16-1.37.14.04.64.14.65.25-.17-.36-.5-.86.56-.7-.14-.8.53-1.78-1.07-2.55l.29.08c-1.09-.47-.11-.38-.64-.79.14,0,.22,0,.27.01-1.07-.49-.03-.9-.47-1.23l.7.1-.06-.62-.19.2c-1.92-.39,1.28-.25.1-.89.31-.37-3.88-1.46-2.87-1.72-.87-.34,1.44.41.79,0,1.01.15.61.24,1.42.29-.43-.37,1.1-.32.48-.79l.79.11c-1.36-.69,1.17-.74-.15-1.26-.58-.58,2.38.01.92-.72l1.09-.04c.2-.19-1.28-.34-.73-.51.67.11.58-.23,1.19,0,1.12-.4-1.33-1.33.54-1.81-1.28-.34-.45-.6-1.42-.84.57.06.19-.72,1.37-.15.1.05.07.11-.15.07l.77.15c1.52-.22-.7-.86-.43-1.24-.27.09-.22.26-.74.08l.15-.37.64.16.45-.52-.82-.03c.45-.22,1.84-.15.73-.61-.62-.22-1.12.13-1.34-.2.6-.3,1.5-.76,1.79-1.21-.92-.06-.87-.19-1.04-.34l.79.08c-1.03-.64,1.76.02.95-.58l.54.11-1.63-.33c-1.51-.63,1.67-.05-.41-.8.11.21-1.75-.11-1.38-.31l.76.15c-.15-.15-.46-.23-.29-.31.4.13,1.1.17.99-.04l.94.24-1.36-.53c.85-.2-.12-.77.96-.77,0,0,.59-.57-.57-.84.72.2,1.03-.11,1.88.08-.81-.25-1.44-.8-.54-.9l.1.05c.97-.62-1.11-1.34.05-1.86-.92-.06-.39-.35-1.57-.38-1.09-.76,2.5-.97-1.11-1.55-.17-.31.88-.27,1.08-.41l.18.09c-.25-.59-.27-.75-.14-1.16-.34-.24-2.02-.42-1.58-.75.66.18.55.01.56-.12.1.1.34.15.81,0-.21-.04-.33-.09-.43-.14.05,0,.09,0,.17,0-.22-.25-.43-.23-.53-.13-.1-.01-.23-.02-.42,0,.89-.17,0-.67,1.15-.61-.21-.72-1.36-1.31-1.76-1.92.6-.02,1.11.15,1.33.34l-.19-.43c.85.07.47.27.64.41,1.42-.39-1.3-1.11,0-1.59l-.67-.17.11-.03c-.36-.02-.83-.19-.94-.28.75-.03,1.71.12,1.69-.16.73-.18-.32-.66-.7-.98-.14.15-.54.07-.8-.01-.02-.14.73-.18.42-.31l1.01.05c-.95,0-1-.44-1.4-.51.75-.03.63.26,1.18.33-.06-.58-.03-.29-.09-.86-.74-.35-.95,0-1.82-.2-.18-.28-.86-.58-.24-.85l-.9.04c-.66-.54-.55-.83.38-1.12-3.53-2.05-6-2.34-7.59-2.16-1.59.19-2.29.86-2.29.86-2.04,1.31.51,2.18,1.1,3.92"/>
  <path class="cls-1" d="M98.75,40.41l-.38.09c.17.01.32,0,.38-.09"/>
  <path class="cls-1" d="M95.6,71.92s.05.02.08.04c-.03-.02-.05-.03-.08-.04"/>
  <path class="cls-1" d="M85.88,44.15h0s-.06-.03-.09-.05l.09.05Z"/>
  <path class="cls-1" d="M87.41,37.98c-.58,1.61-2.34,1.9-1.78,3.66-.21.8.11,1.7.25,2.51,1.31.5-.08,1.04,1.01,1.59l-.78.1c.37.19.62.39.19.51l-.22-.03c.56.28.19.51.47.65l-.22-.03.07.29-.31-.08c.58.46.58.87.26,1.21l.93.06c-1.11.68.78,1.15-.51,1.73l-.22-.03c2.35,1.12-1.79,1.24.42,2.38-.28-.14-.48,0-.7-.03.22.45.31.91,2.12,1.1-.05.31-.59.19-1.29.16.79.08,1.09.38,1.12.62l-.29-.14.2.71,1.51.02c-.47.32-1.84-.1-1.51.29l1.24.12c-.3.48-2.21.58-3.17.97-.74,1.96,2.17,4.49-.22,6.12l-.94-.02c-1.36-.12,1.95.75.69.68l.6.29c-.25.03-.53.13-.82-.01-.08.2.15.23.54.42l-.87.12c-.75.72.8,1.59.37,2.39-1.84.8-.49,2.88.29,4.1,1.84,1.8-3.8,2.88-1.69,4.75-.2.02.22.22.37.24l-.39,1.41s-.37,1.72.75,2.98c1.12,1.25,3.74,2.07,9.73.17l.29.08c.83-.7,1.06-1.18-.36-1.94,1.83.16.28-.63.89-.74l.15.04c-1.34-.68,1.3-.85.11-1.49.14.04.64.11.66.23-.18-.37-.53-.9.53-.78-.17-.85.47-1.94-1.16-2.68l.29.07c-1.11-.44-.12-.41-.66-.82.14,0,.22-.02.27,0-1.09-.47-.06-.97-.51-1.29l.71.07-.08-.67-.18.22c-1.93-.32,1.28-.34.08-.97.3-.41-3.92-1.38-2.92-1.72-.88-.33,1.45.37.79-.04,1.01.11.62.23,1.43.24-.44-.38,1.1-.4.46-.88l.79.08c-1.38-.69,1.15-.85-.18-1.35-.59-.61,2.38-.08.91-.82l1.09-.09c.2-.22-1.29-.32-.74-.52.67.09.58-.27,1.2-.04,1.12-.48-1.36-1.38.51-1.96-1.29-.32-.47-.62-1.43-.86.57.04.18-.78,1.37-.2.1.05.07.11-.15.08l.77.14c1.51-.29-.72-.9-.44-1.32-.27.1-.22.29-.74.11l.15-.4.64.16.45-.57h-.82c.45-.26,1.83-.22.72-.68-.62-.22-1.12.17-1.34-.18.6-.34,1.49-.85,1.78-1.34-.92-.05-.87-.18-1.04-.34l.79.07c-1.04-.66,1.76-.02.94-.65l.55.1-1.64-.31c-1.52-.65,1.67-.09-.41-.85.11.23-1.75-.08-1.38-.31l.76.14c-.15-.16-.46-.24-.29-.32.4.13,1.11.16,1-.07l.94.24-1.36-.55c.85-.23-.13-.83.96-.85,0,0,.59-.62-.57-.89.72.21,1.03-.13,1.88.06-.81-.26-1.44-.84-.54-.96l.1.05c.98-.68-1.11-1.42.05-2-.92-.05-.39-.37-1.57-.39-1.09-.81,2.51-1.07-1.1-1.66-.17-.34.89-.3,1.09-.45l.18.09c-.24-.63-.26-.81-.14-1.25-.33-.25-2.02-.44-1.57-.8.66.19.55.01.56-.14.1.11.34.16.81,0-.21-.05-.33-.1-.43-.15.05,0,.09,0,.17,0-.21-.27-.43-.25-.53-.14-.1-.02-.23-.02-.42,0,.89-.18,0-.73,1.16-.66-.2-.77-1.34-1.41-1.74-2.07.6-.02,1.11.17,1.33.37l-.18-.46c.85.08.47.3.63.45,1.42-.41-1.28-1.2.03-1.72l-.66-.18.11-.03c-.36-.03-.83-.21-.94-.31.75-.03,1.71.15,1.69-.16.74-.18-.3-.72-.68-1.07-.14.16-.55.07-.8-.02-.01-.16.74-.18.43-.33l1.01.07c-.95-.02-.99-.48-1.39-.57.75-.03.62.29,1.18.37-.04-.62-.02-.31-.07-.93-.73-.39-.95-.01-1.82-.24-.17-.3-.85-.64-.22-.93l-.9.04c-.65-.59-.52-.91.4-1.21-6.95-4.56-9.84-1.58-9.84-1.58-2.08,1.42.45,2.42.99,4.35"/>
  <path class="cls-1" d="M65.63,142.8l-.42.28c.17.02.33-.04.42-.28"/>
  <path class="cls-1" d="M60.58,227.52s.05.01.09,0c-.03-.01-.06-.01-.09,0"/>
  <path class="cls-1" d="M51.23,154.23v-.02s-.05-.07-.08-.1l.08.12Z"/>
  <path class="cls-1" d="M55.04,136.67c-1.28,4.54-3.17,5.51-3.25,10.45-.47,2.29-.45,4.81-.55,7.09,1.2,1.25-.37,2.97.59,4.38l-.82.39c.33.49.52,1.03.06,1.42l-.22-.05c.5.72.07,1.42.33,1.78l-.22-.05v.8s-.29-.17-.29-.17c.48,1.21.39,2.38-.01,3.39h.93c-1.26,2.11.58,3.12-.84,4.99l-.22-.05c2.17,2.74-2.01,3.85.08,6.65-.26-.35-.49.1-.71.06.16,1.22.2,2.51,2.02,2.66-.08.87-.61.67-1.32.73.8.05,1.08.83,1.08,1.51l-.29-.33.14,1.97,1.53-.29c-.5,1-1.85.15-1.55,1.16l1.24.06c-.35,1.41-2.26,2.14-3.25,3.48-.86,5.78,2.17,12.06-.11,17.39l-.94.23c-1.37.09,2.02,1.5.75,1.7l.62.63c-.24.18-.51.55-.82.23-.06.58.17.59.58,1.01l-.85.62c-.68,2.29,1.02,4.22.7,6.62-.86,1.46-.82,3.55-.47,5.65.18,1.07.43,2.05.74,3.18.16.56.33,1.11.51,1.67.19.63.43,1.34.65,1.89.84,1.55,1.4,3.1,2.22,4.68.81,1.57,1.9,3.12,3.4,4.39.74.64,1.58,1.21,2.47,1.7.53.28.77.43,1.04.59.28.16.56.31.85.44,1.16.52,2.39.78,3.69.54.1.23.6-.09.64-.24,1.39.44,2.78.84,4.19,1.2,0,0,1.29.32,3.01.49,1.72.18,3.89.2,5.57-.26,1.69-.46,2.86-1.38,2.72-2.93-.12-1.58-1.6-3.74-4.67-7.07l.14-.28c-1.95-1.04-3.15-1.44-4.88-.28.17-1.84-1.63-.56-1.97-1.26l.08-.13c-1.6,1.06-2.21-1.79-3.72-.93.09-.13.26-.6.53-.55-.91-.02-2.2-.01-1.92-1.05-.3-.07-.63-.14-.97-.21-.18-.05-.36-.1-.53-.15-.38-.09-.83-.13-1.72.05l.28-.13c-1.18.28-.35-.31-1-.48.13-.07.19-.12.25-.14-.6-.01-.71-.37-.71-.7-.01-.39.07-1.01-.19-1.29l.71-.08c-.09-.51-.16-1.1-.23-1.7l-.13.67c-1.96-.17,1.19-1.39-.11-2.64.21-1.21-4.13-2.36-3.2-3.65-.92-.59,1.49.5.78-.38,1.02-.05.64.41,1.45.16-.49-.88,1.03-1.46.32-2.54l.79-.05c-1.46-1.4,1.01-2.68-.38-3.61-.65-1.46,2.36-.98.81-2.5l1.08-.58c.18-.65-1.31-.47-.79-1.19.68.05.54-.9,1.18-.48,1.05-1.61-1.45-3.32.38-5.43-1.31-.49-.5-1.55-1.48-1.93.57-.04.17-2.16,1.37-.91.1.11.07.29-.15.27l.77.17c1.52-1.17-.73-2.24-.46-3.44-.27.35-.22.83-.74.49l.15-1.12.65.26.44-1.65-.82.2c.44-.8,1.84-1.02.74-2-.62-.45-1.13.72-1.34-.15.61-1.07,1.53-2.66,1.84-4.04-.92.08-.87-.29-1.04-.69h.8c-1.01-1.54,1.78-.43,1-1.95l.54.16-1.63-.49c-1.48-1.43,1.69-.6-.35-2.22.1.59-1.77.16-1.37-.54l.75.23c-.14-.41-.45-.56-.27-.82.4.27,1.1.21,1.01-.39l.93.46-1.33-1.2c.89-.79-.03-2.21,1.08-2.47,0,0,.68-1.78-.47-2.3.7.43,1.07-.55,1.9-.19-.8-.54-1.34-2-.4-2.48l.09.11c1.11-1.97-.9-3.65.4-5.39-.93-.01-.32-.94-1.52-.82-.94-2.05,2.78-3.21-.76-4.34-.1-.9.97-.93,1.21-1.36l.16.23c-.08-1.67-.06-2.15.18-3.35-.27-.65-1.94-.97-1.39-2.01.62.44.55-.02.61-.43.07.27.3.39.82-.08-.2-.1-.31-.24-.4-.36.05,0,.1-.01.17,0-.14-.71-.36-.62-.5-.32-.1-.03-.23-.02-.43.05.96-.58.23-1.97,1.38-1.89.04-2.07-.95-3.71-1.11-5.47.62-.1,1.08.38,1.22.91l-.02-1.23c.84.14.37.77.48,1.16,1.6-1.21-.89-3.16.64-4.63l-.61-.46.13-.08c-.35-.05-.77-.51-.84-.78.78-.11,1.69.3,1.79-.53.83-.53-.02-1.92-.27-2.84-.21.44-.59.22-.81-.03.05-.42.82-.53.57-.9l1,.14c-.96,0-.81-1.26-1.19-1.49.77-.1.52.76,1.05.96.22-1.67.11-.84.33-2.51-.57-1.02-.97-.02-1.75-.6-.04-.82-.58-1.72.19-2.5l-.93.11c-.39-1.61-.13-2.48.97-3.28-2.41-6.21-4.69-7.37-6.41-6.9-1.71.47-2.82,2.54-2.82,2.54-2.87,4.01-.76,6.83-1.04,12.21"/>
  <path class="cls-1" d="M97.81,232.37l.47.45c-.12-.19-.28-.36-.47-.45"/>
  <path class="cls-1" d="M95.46,129s-.06,0-.09.02c.04,0,.07,0,.09-.02"/>
  <path class="cls-1" d="M111.58,224.3s0,.02,0,.02c.04.03.06.08.1.11l-.11-.13Z"/>
  <path class="cls-1" d="M95.14,243.57c.45.08.84.13,1.31.23.48.11.95.21,1.4.31.91.22,1.77.39,2.63.66,1.71.5,3.3,1,4.88,1.52,3.15,1.02,6.22,2.03,9.66,2.93-.16-2.25-.55-5.15-1.19-8.77-.3-2.97-.76-6.17-1.26-9.31-.21-1.52-.41-3.05-.61-4.55-.13-.77-.26-1.52-.38-2.26-1.45-1.29-.25-3.83-1.49-5.42l.73-.68c-.43-.54-.72-1.2-.32-1.8l.22.03c-.61-.83-.3-1.8-.6-2.22l.22.03-.14-1.03.32.17c-.66-1.47-.77-3-.5-4.37l-.92.13c.99-2.93-.97-3.96.25-6.61l.22.03c-2.45-3.33,1.63-5.27-.66-8.73.29.43.48-.18.7-.15-.26-1.59-.39-3.29-2.21-3.33.03-1.16.58-.94,1.28-1.09-.8,0-1.12-1.01-1.16-1.93l.3.42-.25-2.61-1.51.5c.45-1.38,1.84-.34,1.49-1.66h-1.25c.26-1.9,2.16-3.02,3.09-4.87.58-7.75-2.58-16.05-.67-23.39l.93-.35c1.38-.19-2.1-1.94-.86-2.26l-.67-.82c.23-.25.47-.77.8-.36.01-.79-.21-.8-.65-1.34l.81-.89c.54-3.15-1.39-5.69-1.28-8.98.67-2.04.38-4.91-.24-7.76-.18-.71-.38-1.42-.6-2.12-.11-.39-.2-.6-.34-1.13-.15-.56-.29-1.1-.43-1.65-.53-2.16-1.23-3.93-2.05-5.14-.64-.8-1.27-1.6-2.09-2.33-.82-.74-1.79-1.28-2.78-1.65-.99-.37-2.03-.66-3.22-.87-1.19-.2-2.46-.3-3.78-.46-.31-.04-.72-.07-.95-.11l-.6-.12-1.21-.22c-.8-.13-1.6-.24-2.39-.28-1.58-.08-3.12.08-4.6.73-.2-.18-.69.27-.68.43l-5.49.05s-26.61.64-5.92,11.08l-.12.3c3.03.59,4.93.67,6.93-.92.41,1.82,2.47.08,3.2.65l-.06.15c1.77-1.49,3.82,1.01,5.53-.33-.06.15-.08.66-.48.7,1.28-.29,3.02-.77,3.16.29,1.41-.2,3.9-.26,3.82-.38.5-.13,1.05-.52,2.02-1.29l-.24.29c.59-.54.81-.48.92-.35.12.14.15.35.53.38-.11.14-.15.24-.21.28.61-.2.76.27.79.72.03.47-.02.91.25,1.09l-.68.24.16.52.26,1.16.02-.9c1.97.03-.92,1.94.53,3.48-.07,1.62,4.4,2.81,3.63,4.62,1,.72-1.56-.56-.72.57-1.01.14-.7-.5-1.47-.11.62,1.13-.87,2.02-.06,3.41l-.79.12c1.58,1.78-.75,3.63.7,4.8.75,1.93-2.29,1.44-.63,3.39l-1.03.84c-.13.87,1.35.56.88,1.55-.67-.03-.49,1.24-1.15.7-1,2.22,1.64,4.4-.09,7.33,1.32.61.56,2.08,1.55,2.54-.57.09-.06,2.93-1.32,1.3-.1-.14-.09-.39.14-.37l-.78-.19c-1.46,1.66.85,2.99.61,4.64.26-.49.19-1.13.73-.7l-.11,1.53-.66-.32-.39,2.27.81-.31c-.42,1.11-1.8,1.5-.65,2.76.64.57,1.1-1.05,1.35.13-.56,1.49-1.42,3.73-1.67,5.63.92-.17.88.34,1.06.87l-.79.05c1.09,2.04-1.75.73-.89,2.76l-.55-.18,1.66.55c1.56,1.84-1.66.97.47,3.01-.13-.8,1.75-.36,1.4.62l-.77-.26c.16.55.48.73.32,1.09-.41-.33-1.11-.18-.99.63l-.96-.55,1.4,1.53c-.83,1.17.19,3.04-.89,3.52,0,0-.54,2.53.65,3.12-.74-.51-1.01.89-1.88.49.83.66,1.52,2.6.64,3.38l-.1-.15c-.91,2.89,1.31,4.93.24,7.54.92-.14.44,1.24,1.61.88,1.24,2.64-2.22,5,1.45,5.82.24,1.21-.81,1.48-.96,2.12l-.21-.28c.43,2.29.51,2.95.53,4.66.41.83,2.09.84,1.79,2.39-.71-.44-.54.17-.48.74-.14-.36-.39-.45-.78.33.22.09.36.24.48.39-.05.01-.09.04-.16.03.32.93.51.75.57.3.1.01.23-.04.41-.19-.19.26-.27.57-.3.87-.04.16-.03.31-.03.45,0,.28-.03.51-.62.45.19.6.61,1.25,1.1,2.07.48.81,1.01,1.78,1.35,2.74-.64-.42-1.27-1.25-1.56-1.76l.34,1.02c-.96-.9-.6-.93-.82-1.31-.37-.09-.43,0-.35.27.05.13.13.3.23.5.09.18.28.49.21.51-.03.32-.36.56-1.33-.22.1.24.19.47.26.71l-.15-.14c.26.4.28.88.13.97-.61-.84-.99-1.87-1.45-1.9-.66-.82-.84.23-1.62.55.41.17.32.58.14.82-.42-.02-.63-.79-.94-.5l.03-1.01c0,.48-.12.71-.65.86-.46.15-.98.23-1.1.42-.28-.77.98-.56,1.18-1.11-2.42-.11-1.21-.06-3.64-.12-1.32.71.19.96-.47,1.81-1.13.15-2.22.82-3.49.2l.4.9c-2.08.68-3.28.61-4.72-.23-3.78,2.01-5.62,3.81-6.43,5.19-.81,1.38-.62,2.39.03,3.09.61.72,1.6,1.15,2.44,1.44.84.28,1.52.39,1.52.39,2.76.77,4.73.56,6.9.08,1.08-.23,2.21-.53,3.48-.78.64-.11,1.31-.24,2.03-.3.36-.03.73-.06,1.11-.09.55,0,1.3.04,1.97.07"/>
</svg>