<?xml version="1.0" encoding="UTF-8"?>
<svg id="Capa_1" data-name="Capa 1" xmlns="http://www.w3.org/2000/svg" viewBox="0 0 141.92 150.95">
  <defs>
    <style>
      .cls-1 {
        fill: #fff;
      }

      .cls-1, .cls-2, .cls-3, .cls-4, .cls-5 {
        fill-rule: evenodd;
      }

      .cls-2 {
        fill: #1b1918;
      }

      .cls-3 {
        fill: #e2061a;
      }

      .cls-4 {
        fill: #fdf5b4;
      }

      .cls-5 {
        fill: #fdc901;
      }
    </style>
  </defs>
  <path class="cls-1" d="M94.74,13.13c36.92,13.11,56.17,53.73,43.06,90.64-13.16,36.91-53.78,56.16-90.65,43.06C10.24,133.68-8.96,93.06,4.09,56.19,17.2,19.27,57.81.07,94.74,13.13"/>
  <path class="cls-3" d="M91.93,32.22c-2.7-1.16-5.52-2.13-8.38-2.84.78-1.5,1.32-3.09,1.64-4.65.43-2.33.4-4.67-.13-6.82l-.33-1.34-1.32.18c-2.28.3-4.51,1.08-6.5,2.31-.46.3-.86.6-1.32.9.79-1.92,1.2-4.09,1.15-6.33,0-1.51-.2-2.99-.58-4.39,8.22.64,16,2.56,23.2,5.71-.51,1.02-.87,2.11-1.14,3.27-.53,2.31-.63,4.85-.2,7.35.06.32.12.64.23.97-.42-.32-.84-.64-1.33-.91l-1.15-.68-.82,1.03c-1.4,1.83-2.43,3.97-3.01,6.27M60.41,131.04l.15.02v.46s-.15-.49-.15-.49ZM118.29,101.79l-37.61-2.59-3.6-.25-6.9-.45-3.5-.23-8.84-.62-3.65-.25-33.14-2.22c2.62,8.68,7.5,16.43,13.87,22.52,1.65,1.58,3.42,3.03,5.26,4.38l-3.47,5.44c-.39.57-.19,1.32.39,1.66.47.33,1.16.27,1.53-.15l5.15-4.52c3.92,2.37,8.13,4.26,12.62,5.57l3.72,10.81.62,1.85c.07.27,5.26,3.6,7.43-.41,1.48-2.75,3.44-6.37,5.66-10.32,13.71-.72,25.98-6.73,34.82-16.03,3.96-4.12,7.23-8.9,9.63-14.17M23.56,58.17l97.29,6.63c-1.17-3.85-2.79-7.51-4.7-10.9.03-.2.06-.41.14-.6l.24-1.37-1.24-.38c-.25-.09-.49-.17-.75-.21-.17-.23-.3-.46-.47-.69.12-.09.28-.17.4-.26,2.26-1.29,4.11-3.01,5.52-4.94,1.47-1.97,2.47-4.27,2.96-6.6l.24-1.32-1.24-.44c-.7-.2-1.35-.4-2.06-.5.33-.16.68-.37.96-.54,1.36-.8,2.53-1.72,3.6-2.71,10.52,12.02,17.04,27.69,17.46,44.95l.02,1.72v.05c-.07,18.9-7.48,36.14-19.66,48.86-12.5,13.15-30.09,21.53-49.64,22h-1.77s-.05,0-.05,0c-18.9-.06-36.09-7.47-48.81-19.65C8.85,118.8.5,101.31.02,81.82l-.03-.16-.06-1.78.06-.05C.05,60.94,7.46,43.75,19.59,31.02c4.09-4.31,8.72-8.07,13.74-11.26-.13.55-.31,1.1-.39,1.66-.38,1.97-.36,4.05.12,6.15.38,1.72,1.05,3.26,1.89,4.63-.2-.08-.39-.16-.59-.24-1.99-.65-4.03-.88-6.03-.69l-1.32.18.02,1.35c-.02,1.97.37,4,1.25,5.89.83,1.83,2.05,3.51,3.61,4.98l.09.06c-.2-.03-.41,0-.63.02l-1.32.18-.03,1.29c0,.73.05,1.51.16,2.2-2.59,3.27-4.82,6.9-6.6,10.76M57.56,29.56c-1.46.37-2.87.84-4.24,1.33-.23-1.33-.67-2.64-1.23-3.81l-.61-1.23-1.26.45c-1.86.67-3.63,1.78-5.13,3.23-.18.18-.31.37-.49.55.18-1.64.11-3.36-.27-5.08-.48-2.09-1.41-3.99-2.59-5.56-.78-1.1-1.68-2.05-2.72-2.82,7.78-3.95,16.34-6.48,25.49-7.32-.35,1.41-.56,2.88-.57,4.39.05,2.24.48,4.33,1.25,6.25-.43-.27-.81-.53-1.19-.79-2.06-1.23-4.24-1.95-6.49-2.21l-1.33-.19-.29,1.31c-.52,2.21-.53,4.55-.03,6.85.3,1.6.85,3.18,1.68,4.65"/>
  <path class="cls-2" d="M54.12,97.42c.73,2.61,1.45,5.27,2.06,7.96,2.25,9.24,3.72,18.79,4.32,26.39l-5.9-17.38c-.07-.22-.14-.49-.32-.67-.14-.12-.28-.25-.42-.32l-.1-.07h-.05s-4.78-2.77-4.78-2.77c-.58-.34-1.34-.14-1.68.44v.05s-10.7,16.66-10.7,16.66c-.34.58-.25,1.37.38,1.77.48.33,1.12.21,1.54-.2l13.47-11.88,8.12,23.85.63,1.81c.07.27,5.29,3.61,7.42-.42,2.4-4.41,6.09-11.04,9.79-17.62,3.07-5.47,6.13-10.93,8.46-15.25l2.18,16.8c.07.58.48,1.06,1.09,1.14.67.09,1.31-.39,1.41-1.1l2.49-18.81c.1-1.08,1.11-4.17-.52-4.46l-5.78-.45c-.15-.07-.31-.04-.46-.07-.96.12-1.49,1.67-1.85,2.4-2.42,4.57-6.23,11.28-10.06,18.1-1.47,2.66-3,5.37-4.4,7.89,2.26-8.24,5.41-18.39,8.84-27.98.5-1.34.95-2.68,1.45-3.97l-3.62-.25c-.35.99-.76,2.04-1.1,3.03-3.2,9-6.21,18.54-8.43,26.53.53-4.47.99-9.26,1.4-14.05.52-5.56.93-11.04,1.21-16.01l-3.52-.24c-.27,4.92-.68,10.4-1.2,15.96-.39,5.37-.99,10.77-1.58,15.7-.76-7.57-2.2-16.59-4.3-25.4-.56-2.32-1.18-4.6-1.8-6.88l-3.67-.26Z"/>
  <path class="cls-2" d="M109.09,35.06c1.47.31,3.02.42,4.61.23,1.97-.24,3.99-.9,5.86-1.99,1.83-1.1,3.38-2.5,4.6-4.1.91-1.28,1.63-2.69,2.1-4.14-1.52-.32-3.08-.38-4.62-.18-2.02.24-3.99.9-5.86,1.99-3.07,1.76-5.73,4.78-6.68,8.19M106.53,33.92c1.99-3.01,2.54-6.95,1.89-10.43-.38-2.14-1.15-4.08-2.27-5.75-.86-1.32-1.94-2.52-3.12-3.41-.81,1.3-1.43,2.77-1.8,4.29-.43,1.92-.52,4.05-.14,6.19.38,2.14,1.2,4.08,2.33,5.71.86,1.32,1.9,2.46,3.12,3.41M102.67,49.45c1.47.31,3.03.37,4.61.23,1.97-.25,3.99-.9,5.86-1.99,1.83-1.1,3.38-2.5,4.61-4.15.9-1.23,1.62-2.64,2.09-4.09-1.52-.32-3.08-.38-4.62-.18-5.52.63-11.05,4.71-12.55,10.18M100.12,48.31c3.17-4.72,2.73-11.57-.38-16.18-.86-1.32-1.95-2.46-3.13-3.36-.8,1.24-1.42,2.67-1.75,4.24h-.05c-.43,1.92-.52,4.04-.14,6.18.38,2.09,1.21,4.03,2.33,5.7.86,1.32,1.9,2.46,3.12,3.41M93.43,62.82c1.39-2.1,2.04-4.46,2.13-7.01.05-1.09-.05-2.25-.25-3.43-.38-2.14-1.14-4.13-2.26-5.8-.87-1.27-1.96-2.42-3.13-3.36-.81,1.3-1.43,2.72-1.75,4.24l-.06.04c-.43,1.98-.52,4.05-.14,6.19.38,2.14,1.2,4.08,2.32,5.76.86,1.32,1.9,2.46,3.13,3.36M71.9,34.84c1.34-.28,2.68-.88,3.88-1.59,1.61-1.03,3.09-2.33,4.22-4,1.17-1.66,1.9-3.49,2.26-5.32.25-1.43.29-2.83.12-4.21-1.3.34-2.63.88-3.89,1.65-1.6.98-3.04,2.34-4.17,4.01-1.84,2.66-2.97,6.26-2.43,9.47M69.13,34.87c.76-5.06-2.45-10.78-6.78-13.38-1.2-.74-2.53-1.3-3.85-1.58-.19,1.38-.13,2.75.19,4.2.38,1.78,1.16,3.61,2.34,5.24,1.17,1.68,2.61,2.98,4.19,3.98,1.21.69,2.54,1.24,3.91,1.54M72.21,49.71c1.35-.33,2.68-.88,3.94-1.64,1.61-1.03,3-2.4,4.17-4.06,1.12-1.67,1.89-3.44,2.26-5.32.25-1.38.29-2.83.12-4.16-1.35.33-2.63.88-3.83,1.65-5.19,3.13-6.55,7.59-6.65,13.52M69.44,49.73c.78-5.21-2.39-10.83-6.77-13.48-1.25-.75-2.54-1.24-3.9-1.59-.14,1.39-.08,2.81.19,4.2.42,1.83,1.16,3.66,2.34,5.29,1.16,1.73,2.6,3.03,4.24,3.99,1.2.74,2.53,1.3,3.9,1.59M70.39,22.57c.88-1.02,1.67-2.22,2.22-3.55.71-1.73,1.14-3.65,1.11-5.69-.03-2.04-.43-3.97-1.18-5.7-.6-1.29-1.37-2.49-2.27-3.5-.92,1.02-1.67,2.22-2.22,3.55-.76,1.72-1.15,3.7-1.17,5.73.03,1.99.49,3.93,1.24,5.65.55,1.28,1.32,2.48,2.27,3.5M43.54,42.8l.43,1.05c1.01-.54,1.95-1.24,2.74-2.07,1.15-1.14,2.13-2.52,2.77-4.1.65-1.63.93-3.26.9-4.88-.05-1.16-.2-2.27-.58-3.32-.97.54-1.89,1.2-2.73,1.97-1.15,1.14-2.08,2.53-2.73,4.16-.38.83-.61,1.74-.79,2.66-.12.87-.15,1.8-.12,2.7l.11,1.84ZM41.27,44.47l-.05-1.1-.69-1.77c-.3-.82-.71-1.61-1.28-2.37-.52-.75-1.11-1.41-1.79-2.08-1.3-1.18-2.75-2.01-4.3-2.48-1.04-.41-2.17-.57-3.3-.62.16,1.12.47,2.21.95,3.27.63,1.45,1.64,2.79,2.89,3.96,1.29,1.22,2.74,2.06,4.28,2.59,1.1.36,2.22.57,3.3.62M47.01,56.34c.96-.49,1.88-1.14,2.73-1.96,1.15-1.14,2.13-2.52,2.77-4.1.65-1.63.93-3.26.9-4.89-.05-1.15-.25-2.33-.57-3.37-1.01.48-1.89,1.19-2.74,2.02-1.15,1.14-2.08,2.52-2.77,4.1-.34.89-.57,1.8-.74,2.66-.13.92-.21,1.85-.12,2.7l.54,2.84ZM44.31,56.95l-.76-2.77c-.3-.82-.76-1.62-1.28-2.37-.52-.75-1.1-1.46-1.8-2.08-1.3-1.17-2.74-2-4.29-2.53-1.1-.36-2.22-.57-3.31-.57.16,1.07.47,2.21.91,3.21.67,1.51,1.64,2.84,2.93,4.02,2.08,1.91,4.79,3.07,7.6,3.11M44.14,24.77c.38,1.72.45,3.46.27,5.1.18-.18.37-.37.55-.55,1.51-1.46,3.23-2.57,5.15-3.24l1.26-.45.57,1.18c.89,1.85,1.39,3.85,1.46,5.95.03,1.99-.31,4.03-1.16,6.05l-.02.15c.28-.12.61-.23.88-.34l1.26-.45.62,1.18c.9,1.8,1.39,3.85,1.4,5.99.04.47.02.94,0,1.46l.07-.46,1.39.14c.51.07,1.07.15,1.63.28-.23-.24-.45-.53-.61-.82-1.44-2.03-2.33-4.24-2.8-6.45-.51-2.32-.49-4.66.03-6.89l.29-1.32,1.34.14c.41.06.82.11,1.22.22-.13-.18-.27-.35-.39-.58-1.39-1.97-2.34-4.14-2.8-6.4-.51-2.32-.49-4.66.03-6.89l.29-1.32,1.33.19c2.27.21,4.5,1,6.52,2.22.38.26.81.53,1.19.79-.77-1.94-1.21-4.03-1.2-6.28-.02-2.46.47-4.84,1.34-6.91.93-2.17,2.3-4.11,3.97-5.6l1.01-.9,1.03.88c1.67,1.49,3.07,3.41,4.02,5.58.96,2.07,1.47,4.38,1.48,6.89,0,2.24-.41,4.43-1.16,6.36.41-.31.87-.61,1.28-.92,2-1.23,4.3-2,6.54-2.32l1.33-.18.34,1.3c.52,2.21.61,4.57.12,6.91-.42,2.24-1.3,4.41-2.73,6.45-.13.19-.27.43-.45.62.59-.12,1.12-.21,1.71-.28l1.33-.18.34,1.3c.52,2.21.56,4.57.12,6.91-.41,2.19-1.35,4.4-2.73,6.4-.2.29-.39.57-.59.86.54-.13,1.07-.21,1.61-.29l1.38-.17.1.43c.59-2.32,1.62-4.47,3.08-6.3l.83-1.08,1.15.73c.58.34,1.15.74,1.66,1.17-.09-.43-.18-.91-.28-1.34-.47-2.57-.38-5.07.16-7.44.6-2.42,1.65-4.67,3.17-6.55l.83-1.08,1.15.74c.43.27.86.54,1.29.86-.07-.27-.12-.59-.18-.91-.47-2.57-.38-5.07.15-7.39.61-2.47,1.66-4.72,3.18-6.65l.82-1.03,1.16.68c2.01,1.28,3.81,2.99,5.19,5.06.34.57.68,1.09.97,1.65.07-2.34.6-4.67,1.65-6.92,1.11-2.35,2.6-4.38,4.39-5.96,1.9-1.66,4.06-2.92,6.35-3.59l1.31-.39.51,1.22c1,2.18,1.43,4.64,1.4,7.14-.08,2.39-.58,4.88-1.69,7.22-1.06,2.36-2.54,4.29-4.27,5.87.7-.16,1.35-.28,2.03-.34,2.5-.33,4.97-.08,7.27.66l1.29.44-.29,1.32c-.48,2.33-1.48,4.59-2.97,6.63-1.42,1.94-3.28,3.66-5.5,4.97-.34.16-.68.37-1.01.54.72.1,1.42.31,2.07.5l1.29.44-.29,1.32c-.48,2.33-1.48,4.59-2.97,6.63-1.42,1.94-3.28,3.61-5.5,4.97-.4.21-.79.41-1.23.61.71.15,1.37.3,2.01.55l1.3.39-.3,1.37c-.49,2.38-1.49,4.64-2.97,6.68-1.1,1.52-2.55,2.93-4.23,4.1l-5.89-.41c1.09-.32,2.1-.8,3.11-1.34,1.83-1.1,3.39-2.55,4.6-4.15.91-1.28,1.63-2.64,2.09-4.09-1.52-.32-3.08-.38-4.62-.18-1.96.24-3.98.85-5.86,1.94-1.02.59-1.9,1.3-2.74,2.07-1.62,1.49-2.91,3.24-3.66,5.28l-7.39-.52c-.41-.42-.76-.94-1.1-1.46-1.07-1.66-1.96-3.51-2.46-5.51-.51,1.76-1.28,3.52-2.39,5.14-.33.47-.71.94-1.03,1.37l-3.98-.25c.9-.81,1.76-1.74,2.49-2.83,1.17-1.66,1.89-3.44,2.26-5.32.24-1.38.34-2.82.17-4.15-1.35.33-2.68.88-3.88,1.64-3.43,2.13-6.13,6.13-6.66,10.23l-2.79-.19c-.63-4.05-3.33-7.88-6.74-9.98-1.2-.74-2.54-1.24-3.85-1.59-.19,1.38-.08,2.81.19,4.2.37,1.83,1.15,3.66,2.34,5.29.39.58.84,1.11,1.33,1.65l-6.62-.46c.11-.77.16-1.54.16-2.27-.05-1.15-.25-2.28-.58-3.32-1.01.48-1.94,1.19-2.73,1.96-.91.92-1.74,2-2.33,3.22-.21.02-9.81,2.59-15.66-3.67l-.33-.26c-1.57-1.42-2.79-3.16-3.63-4.95-.82-1.94-1.27-3.94-1.25-5.97l-.02-1.36,1.37-.12c.16-.03.37-.05.59-.07l-.04-.06c-1.62-1.43-2.84-3.17-3.68-5.01-.83-1.89-1.27-3.94-1.25-5.97l.03-1.3,1.33-.18c1.96-.19,4.06.05,6.01.69.2.08.39.16.59.24-.85-1.37-1.51-2.98-1.9-4.65-.43-2.1-.45-4.19-.12-6.18.39-2.03,1.23-3.95,2.35-5.57l.79-1.14,1.21.69c1.74.98,3.32,2.35,4.55,4.03,1.19,1.58,2.07,3.47,2.55,5.58M40.18,33.61c.51-1.03.92-2.06,1.13-3.23.27-1.53.24-3.2-.14-4.92-.39-1.67-1.06-3.23-2.03-4.51-.7-.93-1.48-1.72-2.38-2.37-.5.97-.87,2.07-1.07,3.19-.33,1.57-.3,3.25.09,4.92.38,1.72,1.11,3.23,2.03,4.51.7.93,1.48,1.72,2.37,2.42M113.24,22.6c1.39-.59,2.71-1.44,3.85-2.49,1.49-1.3,2.78-3.05,3.68-5.02.9-1.96,1.35-4.04,1.42-6.01.01-1.56-.19-3.1-.61-4.57-1.44.58-2.71,1.45-3.9,2.48-1.49,1.35-2.77,3-3.67,4.96-.9,1.96-1.35,4.04-1.43,6.11-.01,1.56.19,3.11.67,4.53"/>
  <path class="cls-1" d="M126.61,91.86l.78-2.92,3.57.24-.78,2.92-3.57-.24ZM111.09,84.98c.03-.57.12-1.23.27-1.89.15-.71.35-1.41.62-2.16.64-1.58,1.67-3,3.16-4.31,1.54-1.3,3.7-1.83,6.61-1.73.31.04.66.09,1.07.15.36.05.77.11,1.18.17,1.06.25,2.1.66,3,1.31.91.6,1.3,1.54,1.22,2.83-.03.2-.05.36-.08.56-.03.2-.07.46-.14.66l-4.86-.37c0-.05.02-.15.03-.2.01-.1.02-.15.03-.2.03-.57-.08-.95-.35-1.2-.32-.31-.61-.5-.96-.6-.21-.03-.35-.1-.56-.13-.21-.03-.36-.05-.47-.01-.15-.02-.26-.04-.42,0-.1-.02-.26.02-.37.05-.7.16-1.39.59-2.07,1.38-.63.75-1.21,1.92-1.69,3.47-.02.15-.04.26-.11.4-.01.1-.04.26-.06.41-.09.25-.12.51-.17.81-.04.26-.07.51-.11.77-.01.83.09,1.58.37,2.19.28.61.91.96,1.79,1.03.1.01.15.02.26-.01.1.01.15.02.26.04.16-.03.31,0,.47-.04.16-.03.32-.06.49-.14.44-.15.84-.4,1.26-.81.42-.41.63-.8.76-1.3l4.66.29c0,.05.04.06.04.11,0,.05-.01.1-.01.1,0,.31-.14.66-.36,1.1-.23.54-.56,1.02-1.04,1.47-.67.69-1.59,1.29-2.76,1.86-1.22.51-2.71.71-4.52.56-.1-.01-.16.03-.21.02-.05,0-.1-.01-.2-.03-2.48-.19-4.07-.78-4.85-1.88-.79-1.05-1.15-2.2-1.18-3.46-.02-.21,0-.37-.02-.63.03-.21,0-.42.04-.62M105.78,90.45l.83-2.91,3.52.23-.78,2.92-3.57-.24ZM91.33,83.71c.09-.61.18-1.28.28-1.99.15-.71.35-1.41.61-2.11.65-1.63,1.68-3.05,3.22-4.35,1.48-1.25,3.65-1.84,6.55-1.69.37,0,.72.05,1.08.1.36.05.77.11,1.17.22,1.12.21,2.1.66,3.01,1.26.9.65,1.29,1.59,1.22,2.83-.03.21,0,.42-.09.62-.03.2-.06.41-.14.61l-4.86-.32c.02-.1.02-.15.04-.26,0-.05.02-.15.03-.2.02-.52-.08-.9-.35-1.2-.28-.25-.61-.45-.97-.55-.2-.08-.35-.1-.56-.13-.15-.02-.36-.05-.46-.06-.15-.02-.26.02-.41,0-.11.04-.27.06-.37.05-.7.16-1.34.65-2.02,1.39-.69.79-1.26,1.91-1.7,3.52-.07.1-.09.25-.1.35-.07.15-.1.3-.11.4-.04.31-.13.55-.17.81-.04.26-.07.51-.07.83-.06.82.04,1.57.32,2.18.33.62.91.96,1.84.99.05,0,.15.02.2.03.1.01.2.03.26-.02.15.02.31,0,.47-.04.16-.03.32-.06.48-.09.45-.2.9-.45,1.26-.81.42-.36.63-.8.76-1.3l4.67.24c.04.06.03.16.02.21,0,0,0,.05-.01.1.01.26-.14.61-.36,1.1-.22.44-.55.91-.99,1.43-.67.69-1.64,1.28-2.81,1.8-1.22.51-2.71.71-4.52.62-.05,0-.15-.02-.2-.03-.05,0-.1-.02-.21-.03-2.43-.14-4.07-.78-4.86-1.83-.73-1.09-1.14-2.25-1.18-3.45-.02-.21,0-.42-.02-.63.03-.2.05-.36.03-.57M85.92,89.11l.78-2.92,3.57.24-.83,2.91-3.52-.23ZM79.23,82.17l-.23-6.87-3.96,6.59,4.19.28ZM66.54,87.74l10.72-15.35,5.53.36,1.89,16.24-5.07-.35-.28-3.17-6.26-.41-1.94,3.02-4.6-.33ZM61.58,87.41l.77-2.87,3.57.24-.77,2.87-3.57-.24ZM55.27,86.99l3.67-12.74-4.86-.32.9-3.06,14.42.99-.75,3.08-5.01-.34-3.67,12.74-4.7-.35ZM30.55,85.34c.11-.4.22-.85.33-1.26.11-.4.28-.85.39-1.25.47-1.5.89-3.01,1.31-4.46.41-1.41.76-2.82.96-4.25l4.39.3-.28,1.26c.64-.43,1.26-.76,1.97-1.03.66-.27,1.36-.38,2.13-.33,1.02.19,1.76.51,2.21.99.45.48.76.94.83,1.53.08.17.1.38.08.54.02.21.05.37.03.53-.02.15-.04.26-.06.41-.01.1-.03.2-.04.31l-2.31,7.5-4.34-.3,1.83-6.32c.09-.25.17-.45.19-.6.03-.2.05-.36.07-.51,0-.42-.06-.69-.24-.87-.18-.23-.48-.33-.89-.33-.67-.04-1.16.1-1.48.52-.37.42-.64.85-.82,1.35-.07.15-.09.3-.17.45-.07.15-.09.25-.11.4,0,0,0,.05-.06.05l-1.58,5.67-4.34-.3ZM27.71,71.84l.91-2.74,4.34.3-.9,2.69-4.35-.25ZM24.04,84.89l3.22-11.4,4.34.3-3.06,11.37-4.5-.27ZM11.52,73.37c.28-1.99,1.21-3.43,2.83-4.19,1.58-.82,3.45-1.18,5.52-1,.21-.02.37,0,.57.03.15.02.36.05.51.07,1.12.16,2.17.51,3.08,1.11.86.54,1.3,1.49,1.23,2.78-.03.2-.07.46-.1.71-.04.31-.13.56-.23.91l-4.55-.33c.02-.1.08-.2.09-.3,0-.05.03-.21.04-.26.02-.52-.13-.91-.46-1.16-.38-.26-.78-.42-1.24-.44-.05,0-.1-.01-.15-.02,0,0-.05,0-.15-.02-.47.04-.91.18-1.37.43-.45.25-.66.64-.73,1.15,0,.42.4.84,1.18,1.26.83.38,1.87.79,3.03,1.1,1,.3,1.68.66,2.19,1.14.46.48.76.94.9,1.43.07.22.09.43.12.65.02.26.04.47,0,.68-.06,1.56-.88,2.9-2.34,4.05-1.47,1.15-3.62,1.63-6.41,1.45-2.38-.18-3.92-.71-4.63-1.59-.66-.88-.94-1.85-.89-2.94.01-.1.03-.21.05-.36.02-.1.03-.2.04-.31.02-.15.03-.26.05-.36.02-.15.04-.26.05-.36l4.5.27c-.01.1-.03.2-.04.26-.01.1-.02.15.01.26-.08.56.06,1.05.33,1.4.31.41.8.64,1.47.68.15.02.31,0,.53-.03.26-.02.47-.04.69-.11.38-.1.77-.31,1.12-.52.35-.26.55-.6.56-1.02,0-.05.01-.1.01-.1,0-.05.02-.1.02-.1,0-.36-.27-.71-.8-1-.54-.28-1.13-.52-1.82-.78-.39-.16-.8-.27-1.19-.43-.4-.11-.69-.25-.99-.35,0,0,0-.05-.04-.06h-.05c-.15-.08-.29-.15-.44-.23-.21-.03-.35-.1-.49-.23-.44-.22-.86-.54-1.16-1-.35-.47-.51-1.22-.42-2.2v-.05Z"/>
  <path class="cls-4" d="M95.54,63.06l.08-.2c.78-2.19,2.14-4.03,3.81-5.57.9-.81,1.89-1.56,2.91-2.15,1.88-1.09,3.96-1.84,6.14-2.11,1.59-.19,3.25-.12,4.83.21l.81.17-.27.8c-.48,1.55-1.21,3.01-2.17,4.34-1.29,1.75-2.96,3.24-4.84,4.33-.51.29-1.07.58-1.64.86l-9.66-.68ZM56.45,54.53c.41,1.16.6,2.38.64,3.59,0,.73-.06,1.51-.17,2.32l-7.03-.52.14-.24c.6-1.27,1.44-2.46,2.47-3.46.85-.82,1.83-1.52,2.9-2.1l.79-.41.25.82ZM71.56,61.36c.55-4.31,3.34-8.51,7-10.81,1.26-.76,2.64-1.35,4.1-1.72l.81-.2.09.85c.21,1.44.16,2.95-.15,4.42-.38,1.98-1.23,3.9-2.36,5.62-.59.86-1.33,1.69-2.11,2.42l-7.39-.52v-.05ZM59.1,49.01c1.42.3,2.79.92,4.1,1.67,3.61,2.18,6.42,6.28,7.08,10.5l.03.16-8.58-.58c-.32-.36-.62-.77-.89-1.12-1.17-1.68-2-3.57-2.45-5.56-.32-1.45-.36-2.97-.21-4.41l.07-.88.86.23ZM108.38,34.86c1.03-3.61,3.82-6.77,7.07-8.66,1.88-1.09,3.96-1.79,6.13-2.06,1.59-.19,3.25-.12,4.83.21l.81.17-.27.8c-.48,1.55-1.2,2.96-2.17,4.29-1.29,1.75-2.96,3.24-4.84,4.33-1.88,1.09-3.97,1.84-6.14,2.06-1.6.24-3.26.17-4.83-.16l-.81-.17.22-.81ZM106.09,34.48c-1.27-.96-2.4-2.22-3.31-3.55-1.2-1.84-2.01-3.88-2.39-6.02-.38-2.14-.32-4.38.19-6.5.38-1.62.96-3.15,1.83-4.49l.47-.72.61.5c1.32,1.02,2.4,2.22,3.31,3.55,1.19,1.89,2,3.94,2.38,6.08.68,3.7.15,7.85-2.02,10.99l-.41.67-.66-.51ZM101.97,49.25c.19-.6.38-1.2.67-1.79,2.14-4.81,7.33-8.31,12.53-8.94,1.59-.19,3.25-.12,4.82.21l.81.17-.26.75c-.48,1.55-1.21,3.01-2.17,4.34-1.29,1.75-2.96,3.24-4.84,4.33-1.88,1.09-3.96,1.84-6.13,2.06-1.6.19-3.26.17-4.83-.16l-.81-.17.22-.8ZM99.68,48.87c-1.27-1.01-2.4-2.22-3.31-3.54-1.2-1.84-2.01-3.88-2.39-6.03-.38-2.14-.57-4.46.19-6.55.52-1.49,1-3.04,1.82-4.39l.47-.72.61.5c1.33.97,2.4,2.22,3.31,3.55,3.28,4.9,3.74,12.01.37,17.01l-.41.67-.66-.51ZM90.37,42.66c1.33.97,2.41,2.17,3.31,3.54,1.21,1.79,2.01,3.89,2.43,6.08.2,1.18.29,2.39.22,3.58-.1,2.54-.75,4.96-2.1,7.12l-1.96-.17c-.97-.87-1.88-1.83-2.61-2.98-1.21-1.79-2.02-3.83-2.4-5.97-.38-2.14-.57-4.52.2-6.6v-.05c.53-1.49,1-2.99,1.83-4.39l.46-.67.61.5ZM71.2,35c-.56-3.47.6-7.22,2.57-10.08,1.12-1.67,2.63-3.13,4.35-4.19,1.26-.81,2.7-1.39,4.15-1.71l.82-.25.09.85c.16,1.48.1,2.99-.15,4.42-.39,2.03-1.23,3.95-2.36,5.62-1.17,1.66-2.68,3.12-4.45,4.17-1.26.82-2.65,1.4-4.11,1.77l-.75.16-.15-.75ZM68.97,35.63c-1.41-.35-2.85-.92-4.1-1.67-1.73-1.08-3.25-2.49-4.42-4.17-1.17-1.68-2.05-3.58-2.45-5.56-.32-1.45-.37-2.92-.21-4.41l.06-.83.81.17c1.46.36,2.84.92,4.1,1.67,4.57,2.78,8,8.8,7.14,14.16l-.12.82-.81-.17ZM71.48,49.71c.13-6.14,1.58-10.84,7.01-14.2,1.26-.76,2.64-1.35,4.05-1.72l.81-.2.14.85c.16,1.43.11,2.94-.15,4.41-.43,1.98-1.23,3.9-2.41,5.61-1.12,1.67-2.64,3.18-4.35,4.24-1.26.76-2.7,1.39-4.15,1.71l-.92.23-.02-.94ZM58.98,33.96c1.47.31,2.85.87,4.1,1.67,4.62,2.79,7.96,8.69,7.13,14.21l-.16.76-.76-.16c-1.47-.31-2.85-.92-4.1-1.67-1.79-1.03-3.25-2.49-4.47-4.18-1.17-1.68-2-3.57-2.4-5.56-.32-1.46-.41-2.98-.26-4.42l.12-.87.81.22ZM69.85,23.07c-.99-1.13-1.8-2.39-2.4-3.73-.83-1.89-1.23-3.88-1.25-5.92-.02-2.09.38-4.17,1.16-6.05.61-1.38,1.41-2.62,2.35-3.74l.56-.65.59.66c1,1.08,1.81,2.34,2.4,3.73.84,1.84,1.23,3.88,1.26,5.92.02,2.09-.37,4.12-1.21,5.99-.56,1.38-1.37,2.68-2.31,3.8l-.56.6-.59-.6ZM43.65,35.3c.7-1.62,1.64-3.11,2.92-4.39.9-.81,1.83-1.52,2.9-2.1l.79-.41.29.88c.37,1.1.56,2.32.6,3.53.02,1.72-.29,3.51-.98,5.13-.65,1.63-1.65,3.16-2.91,4.39-1.16,1.19-2.24,1.82-3.64,2.51-1.4-2.7-1.48-5.79.04-9.55M37.76,44.54c-1.7-.55-3.23-1.5-4.53-2.67-1.29-1.22-2.39-2.69-3.1-4.3-.47-1.11-.83-2.26-.98-3.43l-.08-.9h.83c1.19.07,2.41.3,3.56.67,1.64.6,3.18,1.49,4.53,2.67,2.96,2.72,4.02,5.21,4.11,8.62-1.56-.06-2.8-.13-4.34-.67M46.31,56.5c-.43-2.15-.8-3.61-.43-5.8.19-.97.43-1.92.81-2.81.65-1.63,1.65-3.16,2.92-4.39.85-.87,1.84-1.62,2.91-2.15l.79-.41.25.82c.41,1.16.6,2.43.64,3.59.01,1.78-.29,3.56-.99,5.18-.65,1.63-1.64,3.11-2.91,4.34-.85.87-1.84,1.57-2.91,2.15l-.9.45-.18-.96ZM44.31,57.73c-1.19-.06-2.41-.29-3.56-.66-1.64-.6-3.18-1.49-4.48-2.67-1.34-1.23-2.39-2.63-3.11-4.25-.52-1.12-.83-2.26-.97-3.48l-.14-.86.88.02c1.19.06,2.41.29,3.51.65,1.7.55,3.23,1.5,4.53,2.67.74.68,1.37,1.39,1.93,2.2,1.13,1.62,2.05,3.58,2.2,5.53l.04.84h-.83ZM39.79,34.18c-.99-.71-1.82-1.56-2.51-2.55-1.05-1.45-1.81-3.07-2.19-4.8-.38-1.72-.45-3.51-.1-5.23.22-1.17.59-2.32,1.16-3.39l.42-.77.71.51c.94.71,1.82,1.56,2.51,2.55,1.05,1.45,1.76,3.07,2.14,4.79.43,1.73.45,3.51.15,5.24-.22,1.17-.64,2.31-1.21,3.38l-.37.78-.71-.52ZM122.29,4.3c.51,1.54.7,3.18.68,4.8-.05,2.19-.56,4.36-1.46,6.32-.9,1.96-2.25,3.75-3.87,5.25-1.2,1.08-2.58,1.99-4.07,2.61l-.78.36-.25-.82c-.46-1.53-.7-3.18-.62-4.84.05-2.19.56-4.36,1.46-6.32.9-1.96,2.2-3.76,3.81-5.21,1.25-1.08,2.63-1.98,4.12-2.6l.72-.31.26.76Z"/>
  <path class="cls-5" d="M103.4,63.54c1.04-.32,2.04-.76,3.06-1.34,1.88-1.09,3.43-2.49,4.6-4.15.91-1.28,1.63-2.64,2.09-4.09-1.47-.31-3.03-.38-4.62-.18-1.96.24-3.99.9-5.86,1.99-.97.59-1.9,1.25-2.74,2.02-1.63,1.55-2.91,3.24-3.66,5.28l7.13.48ZM50.67,59.98l2.12.14,3.36.21c.11-.77.16-1.49.16-2.27-.05-1.16-.2-2.27-.58-3.32-.96.54-1.89,1.2-2.74,2.02-.91.92-1.74,1.95-2.33,3.22M72.28,61.46l3.16.18,2.48.19c.95-.81,1.76-1.74,2.53-2.78,1.12-1.67,1.85-3.5,2.21-5.33.3-1.42.34-2.82.17-4.2-1.35.33-2.63.88-3.88,1.65-3.43,2.13-6.13,6.13-6.67,10.28M68.05,61.12l1.5.11c-.64-4-3.33-7.88-6.74-9.98-1.26-.7-2.54-1.24-3.91-1.54-.14,1.34-.08,2.76.2,4.15.42,1.83,1.15,3.66,2.34,5.29.44.58.88,1.17,1.33,1.65l5.28.32ZM109.09,35.06c1.47.31,3.08.38,4.62.18,2.02-.24,3.99-.9,5.86-1.99,1.88-1.09,3.38-2.5,4.6-4.1.91-1.28,1.63-2.69,2.09-4.09-1.47-.31-3.02-.43-4.61-.23-1.96.25-3.99.9-5.86,1.99-3.07,1.81-5.73,4.78-6.69,8.24M106.54,33.87c2.03-2.95,2.54-6.95,1.88-10.43-.38-2.14-1.15-4.08-2.27-5.75-.86-1.32-1.95-2.47-3.13-3.36-.81,1.3-1.38,2.73-1.75,4.24-.48,1.97-.57,4.04-.19,6.18.43,2.15,1.2,4.08,2.32,5.76.86,1.27,1.96,2.42,3.13,3.36M102.67,49.51c1.52.32,3.08.38,4.62.18,2.02-.24,3.99-.9,5.87-1.99,1.88-1.09,3.43-2.49,4.6-4.1.91-1.28,1.63-2.69,2.1-4.14-1.47-.31-3.03-.37-4.62-.18-5.53.68-11.01,4.77-12.56,10.24M100.12,48.31c3.17-4.72,2.72-11.52-.38-16.23-.86-1.32-1.95-2.47-3.13-3.36-.81,1.3-1.38,2.73-1.75,4.24-.49,2.02-.58,4.09-.2,6.24.43,2.15,1.2,4.08,2.32,5.76.86,1.27,1.96,2.42,3.13,3.36M93.44,62.77c1.39-2.1,2.03-4.41,2.13-6.96.06-1.14.01-2.29-.24-3.48-.38-2.09-1.16-4.02-2.28-5.69-.86-1.32-1.95-2.47-3.13-3.36-.8,1.24-1.37,2.68-1.75,4.24-.48,1.92-.57,4.04-.18,6.13.43,2.15,1.2,4.08,2.32,5.76.86,1.32,1.95,2.47,3.13,3.36M71.95,34.9c1.35-.33,2.63-.88,3.83-1.65,1.6-.98,3.1-2.38,4.22-4.05,1.17-1.66,1.9-3.49,2.26-5.32.3-1.42.35-2.82.17-4.2-1.35.33-2.68.87-3.93,1.64-1.6.97-2.99,2.35-4.17,4.01-1.84,2.71-2.98,6.31-2.39,9.58M69.12,34.92c.83-5.16-2.43-10.89-6.77-13.48-1.2-.74-2.53-1.3-3.85-1.59-.14,1.39-.08,2.81.19,4.2.37,1.83,1.16,3.61,2.33,5.34,1.18,1.63,2.61,2.98,4.2,3.93,1.25.75,2.54,1.24,3.9,1.59M72.22,49.66c1.35-.33,2.68-.88,3.94-1.64,1.6-.98,3.04-2.29,4.16-3.96,1.12-1.67,1.9-3.49,2.26-5.32.25-1.43.29-2.83.12-4.21-1.3.34-2.63.88-3.83,1.65-5.15,3.19-6.5,7.64-6.65,13.47M69.45,49.68c.78-5.16-2.4-10.78-6.77-13.43-1.21-.69-2.54-1.24-3.91-1.54-.13,1.34-.07,2.76.25,4.16.37,1.83,1.15,3.66,2.33,5.29,1.12,1.67,2.61,2.98,4.2,3.93,1.2.74,2.53,1.29,3.9,1.59M70.4,22.52c.93-1.02,1.67-2.22,2.22-3.55.76-1.72,1.14-3.65,1.11-5.69.02-1.98-.44-3.92-1.2-5.6-.6-1.34-1.37-2.54-2.27-3.55-.93,1.07-1.68,2.27-2.22,3.55-.71,1.73-1.14,3.65-1.11,5.69-.03,2.03.44,3.92,1.19,5.65.6,1.29,1.37,2.49,2.27,3.5M43.97,43.8c1.01-.54,1.94-1.19,2.79-2.01,1.15-1.09,2.07-2.48,2.72-4.11.64-1.58.93-3.26.9-4.88,0-1.15-.21-2.22-.58-3.32-.96.54-1.89,1.2-2.74,2.02-1.15,1.09-2.07,2.48-2.72,4.11-.38.89-.61,1.74-.74,2.66-.3,1.78-.33,3.82.37,5.53M41.33,44.42c-.6-2.07-.78-3.4-2.09-5.2-.48-.69-1.11-1.41-1.8-2.03-1.3-1.17-2.74-2.06-4.24-2.53-1.1-.36-2.21-.57-3.3-.62.1,1.11.42,2.2.9,3.26.63,1.45,1.64,2.84,2.94,3.96,1.25,1.17,2.74,2.06,4.24,2.53,1.09.36,2.21.57,3.36.63M47.01,56.34c1.02-.53,1.94-1.19,2.74-2.02,1.15-1.14,2.13-2.52,2.77-4.1.65-1.63.93-3.26.9-4.88-.05-1.15-.2-2.27-.58-3.32-.96.54-1.89,1.19-2.73,1.96-1.15,1.14-2.08,2.53-2.72,4.16-.38.83-.61,1.74-.79,2.66-.35,2.14.04,3.45.42,5.54M44.31,56.95c-.11-1.84-.94-3.68-2.03-5.19-.52-.75-1.11-1.41-1.8-2.08-1.3-1.17-2.74-2.01-4.3-2.48-1.04-.41-2.16-.57-3.31-.62.16,1.12.47,2.21.95,3.26.63,1.45,1.64,2.79,2.89,3.96,1.29,1.17,2.74,2,4.29,2.53,1.1.36,2.22.57,3.3.62M40.18,33.61c.55-.97.92-2.06,1.12-3.18.28-1.58.3-3.24-.08-5.02-.39-1.67-1.12-3.18-2.08-4.47-.65-.93-1.47-1.77-2.37-2.42-.5.97-.87,2.07-1.07,3.19-.33,1.57-.3,3.25.08,5.02.39,1.67,1.12,3.19,2.08,4.47.65.93,1.48,1.72,2.32,2.42M113.25,22.55c1.39-.59,2.7-1.39,3.9-2.48,1.49-1.3,2.72-3.01,3.67-4.96.9-1.96,1.34-3.98,1.37-6.02.06-1.56-.19-3.1-.61-4.52-1.39.59-2.7,1.39-3.89,2.43-1.49,1.35-2.77,3-3.68,5.01-.9,1.96-1.35,3.99-1.37,6.02-.06,1.56.19,3.11.62,4.52"/>
</svg>