<?xml version="1.0" encoding="UTF-8"?>
<svg id="Capa_1" data-name="Capa 1" xmlns="http://www.w3.org/2000/svg" viewBox="0 0 202.43 254.5">
  <defs>
    <style>
      .cls-1 {
        fill: #a4d5cc;
      }
    </style>
  </defs>
  <path class="cls-1" d="M8.93,121.13l-.21.12c.11-.02.19-.06.21-.12"/>
  <path class="cls-1" d="M13.01,141.71s.03,0,.05-.01c-.02,0-.04,0-.05.01"/>
  <path class="cls-1" d="M1.78,125.8h0s-.04-.01-.06-.02l.06.02Z"/>
  <path class="cls-1" d="M1.65,121.31c-.08,1.2-1.1,1.69-.46,2.81,0,.58.36,1.15.58,1.68.88.12.14.73.89.92l-.45.2c.26.07.44.17.2.32l-.14.02c.39.1.2.32.4.37l-.14.02.1.19h-.2c.43.21.5.5.37.78l.57-.12c-.55.65.67.65,0,1.27l-.14.02c1.62.36-.86,1.16.68,1.55-.19-.05-.29.08-.43.1.22.27.35.57,1.48.38.02.22-.32.24-.75.34.49-.09.73.07.79.23l-.2-.04.25.45.91-.25c-.22.3-1.12.26-.85.46l.77-.14c-.09.38-1.22.79-1.73,1.22-.09,1.47,2.14,2.66,1.01,4.22l-.57.16c-.84.17,1.31.15.54.34l.41.09c-.14.07-.29.19-.49.15,0,.15.13.14.41.2l-.5.26c-.3.69.82,1.03.78,1.77-.88,1.1.69,2.68,1.76,3.33.47.19.68.5.83.91.15.42.25.96.42,1.49.31,1.06.99,2.16,2.21,1.96,0,.14.27-.04.31-.12.5.29,1.05.53,1.65.73,0,0,.55.17,1.34.15.79-.01,1.84-.31,2.43-.93.61-.61.67-1.4.13-2.2-.26-.41-.66-.86-1.07-1.41-.41-.57-.81-1.27-.94-2.16v-.19c-.1-.46,0-.54-.37.34.29-1.12-.11-.16-.05-.54l.04-.09c-.22.4-.23.18-.19-.02.03-.21.1-.41-.17-.1.06-.07.23-.34.26-.34-.13.08-.4.21.01-.32-.12.02-.16-.07-.28-.08-.12-.01-.31.04-.82.25l.16-.09c-.67.31-.17-.07-.56,0,.07-.05.1-.08.14-.1-.69.22-.3-.33-.62-.31l.4-.19c-.07-.08-.15-.16-.22-.25l-.04.15c-1.15.41.62-.5-.2-.46.08-.24-2.59.25-2.1-.23-.59,0,.93-.11.45-.21.62-.17.41,0,.89-.19-.34-.12.56-.46.08-.6l.48-.12c-.96-.12.52-.72-.37-.77-.47-.27,1.41-.49.39-.68l.64-.26c.08-.18-.83.03-.54-.21.42-.06.29-.29.71-.25.58-.52-1.07-.68-.06-1.41-.83.02-.4-.33-1.02-.32.35-.07-.04-.55.79-.38.07.02.06.06-.08.09l.49-.05c.86-.46-.6-.47-.51-.8-.14.12-.08.23-.43.21l.02-.29h.42s.16-.47.16-.47l-.49.14c.22-.25,1.06-.47.31-.58-.42-.04-.64.31-.84.12.29-.34.74-.84.83-1.22-.56.13-.56.03-.69-.05l.49-.09c-.75-.26,1.06-.32.45-.6l.35-.03-1.04.08c-1.03-.17.99-.35-.4-.5.11.13-1.07.26-.89.04l.48-.04c-.12-.08-.32-.08-.23-.17.27.02.69-.09.59-.22h.61s-.92-.13-.92-.13c.47-.3-.22-.54.43-.74,0,0,.25-.52-.5-.5.47.02.6-.27,1.15-.29-.53-.03-1.02-.31-.49-.55l.07.02c.47-.62-.92-.77-.32-1.35-.57.12-.3-.18-1.02,0-.8-.36,1.33-1.14-.95-.93-.16-.2.48-.35.58-.49l.13.03c-.26-.38-.3-.5-.3-.82-.25-.12-1.3.04-1.09-.28.43.02.33-.08.32-.19.08.05.23.05.49-.14-.13,0-.22-.01-.29-.03.03,0,.06-.02.1-.02-.18-.15-.3-.09-.34,0-.06,0-.14.03-.25.07.51-.27-.12-.49.59-.64-.25-.49-1.06-.73-1.41-1.12.36-.11.7-.07.87.03l-.19-.28c.53-.09.33.12.46.2.79-.51-.98-.61-.27-1.17l-.43-.02.07-.04c-.22.04-.54,0-.62-.06.45-.14,1.06-.18,1-.38.42-.24-.3-.44-.59-.61-.06.13-.32.14-.49.11-.03-.1.42-.24.2-.29l.62-.12c-.58.14-.68-.17-.94-.16.45-.14.42.1.78.06l-.2-.62c-.51-.15-.58.14-1.14.13-.16-.18-.62-.3-.29-.59l-.54.17c-.49-.3-.47-.54.05-.89-4.97-2.03-6.24.46-6.24.46-1.03,1.31.67,1.6,1.33,2.84"/>
  <path class="cls-1" d="M31.68,119.33l.47.25c0-.11-.12-.2-.47-.25"/>
  <path class="cls-1" d="M156.3,128.15s.08-.02.12-.04c-.08.01-.11.03-.12.04"/>
  <path class="cls-1" d="M50.74,127.22h-.03s-.09.03-.13.06l.15-.06Z"/>
  <path class="cls-1" d="M25.14,126.1c3.44.48,5.6.9,7.79,1.23,2.19.31,4.42.5,7.88.25,3.31.07,6.77-.26,9.9-.36,1.5-.83,4.13.04,5.9-.64l.68.49c.61-.23,1.33-.4,1.94-.11l-.04.14c.92-.33,1.94-.07,2.4-.23l-.04.14,1.11-.02-.2.19c1.6-.32,3.25-.28,4.68-.04l-.09-.58c3.05.81,4.26-.29,7,.65l-.05.14c3.64-1.32,5.49,1.46,9.25.3-.47.14.17.31.12.45,1.69-.03,3.49.04,3.62-1.08,1.22.14.96.45,1.08.91.04-.5,1.12-.6,2.08-.54l-.46.15,2.75.1-.45-.99c1.43.41.26,1.18,1.67,1.09l.06-.78c1.99.34,3.05,1.66,4.93,2.44,8.03,1.18,16.95.22,24.34,2.42l.27.62c.05.87,2.22-1.04,2.42-.21l.92-.29c.23.18.73.4.28.54.81.12.84-.02,1.46-.21l.82.62c3.16.77,6.01,0,9.37.55,3.96,1.48,11.74,1.17,16.21.86,1.58-.22,3.2-.12,4.85.09,1.65.19,3.33.53,5.02.87,3.37.71,6.8,1.23,10.03.57.21.12.75-.14.75-.24,1.96.1,3.92.11,5.88.12,0,0,1.79,0,4.12-.11,2.33-.08,5.22-.48,7.41-.96,4.41-1.02,5.83-2.78-4.9-5.83l.13-.19c-3.15-.32-5.12-.47-7.28.52-.35-1.15-2.58-.08-3.32-.46l.07-.09c-1.93.85-3.94-.81-5.8-.06.07-.09.12-.41.55-.42-1.35.12-3.2.34-3.28-.33-3.22.04-7.69-.48-9.81.48l.15-.18c-1.22.64-1.53,0-2.87.28-.07-.09-.16-.14-.14-.18-1.33.62-3.75-.15-4.81.09l-.03-.45c-.85-.02-1.71-.06-2.56-.1l.95.18c-.43,1.19-1.87-.93-3.79-.3-1.72-.31-3.75,2.24-5.5,1.47-.91.48.85-.85-.48-.54.02-.64.64-.34.36-.88-1.29.18-2.01-.86-3.6-.58v-.5c-2.13.7-3.77-1.03-5.21-.31-2.14.18-1.25-1.62-3.53-.89l-.77-.76c-.92-.21-.76.75-1.76.31.11-.41-1.27-.48-.62-.81-2.26-.91-4.86.4-7.81-1.06-.76.74-2.26.08-2.83.64-.04-.37-3.11-.41-1.28-.99.16-.05.42,0,.39.13l.26-.46c-1.66-1.11-3.26.15-4.99-.19.5.22,1.19.25.69.54l-1.61-.25.38-.37-2.39-.51.28.54c-1.15-.39-1.48-1.3-2.89-.72-.65.34,1.05.8-.22.83-1.54-.52-3.86-1.29-5.87-1.66.13.59-.41.51-.98.57v-.5c-2.24.48-.69-1.17-2.89-.83l.22-.33-.67.98c-2.02.79-.94-1.13-3.21,0,.86,0,.29,1.13-.72.81l.31-.45c-.59.05-.8.23-1.17.09.37-.22.25-.68-.61-.68l.62-.54-1.68.73c-1.2-.62-3.22-.14-3.67-.85,0,0-2.65-.55-3.32.14.57-.41-.89-.71-.43-1.22-.73.45-2.81.74-3.59.14l.16-.05c-3.01-.76-5.24.42-7.93-.4.1.58-1.33.21-1.01.96-2.85.61-5.1-1.71-6.19.53-1.28.07-1.5-.6-2.17-.72l.31-.12c-2.42.16-3.12.17-4.91.09-.9.21-1.04,1.27-2.64.99.52-.42-.14-.34-.73-.35.38-.06.5-.21-.29-.51-.11.13-.28.21-.44.28,0-.03-.04-.06-.02-.1-1,.15-.82.28-.36.34-.02.06.02.15.16.26-1.04-.54-2.88.06-3.01-.66-2.98.2-5.09.98-7.54,1.26-.28-.37.3-.7,1.01-.85l-1.74.14c.01-.53,1-.31,1.53-.42-2.06-.86-4.27.86-6.65,0l-.51.41-.14-.07c0,.23-.55.51-.91.56-.32-.48.07-1.07-1.11-1.1-.9-.5-2.65.06-3.89.18.65.14.41.38.11.52-.59-.04-.88-.54-1.35-.4l.02-.63c.16.62-1.6.46-1.85.67-.27-.51.96-.28,1.15-.61-2.33-.26-1.17-.12-3.5-.43-1.33.25.13.63-.56,1.07-1.13-.07-2.3.16-3.51-.47l.3.63c-2.19,0-3.44-.33-4.73-1.2-8.33.48-9.44,1.9-8.51,3.08.91,1.19,3.88,2.27,3.88,2.27,2.93,1.28,5.34,1.72,7.98,1.93,2.64.2,5.51.22,9.49.43"/>
  <path class="cls-1" d="M190.15,150.35l-.5-.3c0,.11.12.21.5.3"/>
  <path class="cls-1" d="M54.95,147.49s-.09.03-.12.06c.09-.02.12-.04.12-.06"/>
  <path class="cls-1" d="M170.07,140.55s.02,0,.03,0c.05-.02.1-.03.15-.05l-.17.05Z"/>
  <path class="cls-1" d="M194.5,143.3c-.19.05-.38.03-.53-.01-.05,0-.04-.03-.11-.04-.11-.02-.22-.03-.33-.04-.23-.03-.47-.08-.72-.13-1.2-.29-2.26-.55-3.33-.8-2.29-.53-4.63-.97-8.41-1.13-3.58-.44-7.45-.51-10.98-.59-1.72.73-4.64-.24-6.65.39l-.75-.5c-.69.22-1.5.36-2.18.08l.05-.14c-1.03.34-2.18.1-2.69.28l.04-.14-1.24.05.21-.2c-1.79.37-3.62.4-5.25.25l.14.58c-3.48-.59-4.71.67-7.85.04l.04-.14c-3.83,1.73-6.25-.67-10.13,1.03.48-.21-.23-.29-.2-.43-1.82.28-3.75.47-3.72,1.61-1.33.05-1.1-.3-1.29-.73.03.5-1.11.77-2.14.83l.47-.21-2.95.25.61.93c-1.58-.23-.43-1.14-1.93-.87l.04.78c-2.18-.09-3.48-1.31-5.57-1.86-8.7-.33-18.24,1.17-26.4-.62l-.33-.6c-.11-.86-2.33,1.15-2.61.34l-.98.34c-.26-.17-.82-.36-.33-.53-.89-.08-.91.06-1.57.29l-.92-.58c-3.48-.59-6.51.3-10.21-.05-4.41-1.27-12.87-.45-17.72.25-3.4.71-7.09.31-10.86.05-3.74-.24-7.64-.34-10.94.8-.24-.1-.78.24-.76.34-2.07.2-4.11.36-6.1.44,0,0-1.82.12-4.12.16-2.31.05-5.06-.09-7.18-.25-1.06-.09-1.99-.13-2.66-.06-.67.09-1.12.34-1.13.86,0,.5.38,1.33,1.53,2.41,1.14,1.09,3.09,2.41,6.16,3.59l-.19.17c3.71.77,6.1.73,8.5-.35.48,1.14,2.93-.12,3.78.17l-.07.1c2.05-1.1,4.46.23,6.36-.78-.07.1-.07.42-.53.49,1.44-.33,3.38-.74,3.55-.08,1.71-.25,3.77-.41,5.68-.58,1.91-.2,3.66-.48,4.76-1.04l-.15.19c1.25-.76,1.64-.16,3.05-.57.08.08.18.13.17.17,1.37-.75,4.06-.15,5.18-.47l.07.44c.92-.05,1.85-.06,2.77-.09l-1.04-.11c.37-1.22,2.09.79,4.11.02,1.88.2,3.9-2.44,5.85-1.79.96-.54-.86.9.56.51.02.64-.67.37-.32.9,1.39-.25,2.23.74,3.94.38l.05.5c2.25-.82,4.14.85,5.66.05,2.3-.3,1.46,1.55,3.89.7l.89.72c1.01.16.77-.79,1.88-.4-.09.42,1.41.41.73.78,2.53.8,5.25-.67,8.58.61.77-.79,2.46-.22,3.03-.82.08.36,3.42.2,1.47.9-.17.06-.46.03-.43-.11l-.25.48c1.9,1,3.54-.36,5.46-.17-.57-.18-1.32-.16-.81-.48l1.78.12-.38.4,2.66.32-.35-.52c1.29.3,1.74,1.16,3.23.46.67-.39-1.23-.7.15-.84,1.74.39,4.36.91,6.6,1.04-.21-.57.39-.55,1.01-.67l.08.5c2.37-.73.89,1.08,3.25.47l-.2.35.6-1.06c2.1-1.05,1.19,1.02,3.51-.42-.93.12-.49-1.08.67-.91l-.27.49c.63-.13.83-.34,1.26-.27-.36.28-.16.71.76.58l-.59.63,1.71-.98c1.39.44,3.49-.34,4.08.3,0,0,2.91.15,3.52-.64-.55.5,1.05.57.63,1.14.71-.57,2.87-1.12,3.77-.61l-.16.07c3.24.4,5.45-1.03,8.35-.38-.14-.58,1.39-.28,1-1.02,3-.76,5.43,1.52,6.55-.74,1.37-.1,1.61.57,2.31.71l-.33.11c2.56-.11,3.3-.09,5.2.05.96-.17,1.17-1.23,2.85-.87-.58.39.12.35.76.39-.41.04-.54.19.27.52.13-.12.31-.19.49-.25,0,.03.04.06.02.1,1.07-.08.9-.22.41-.31.03-.06,0-.15-.15-.27,1.06.62,3.08.18,3.15.92,3.2.08,5.55-.43,8.24-.44.26.4-.4.66-1.18.73l1.9.06c-.07.53-1.11.19-1.71.24,2.14,1.1,4.71-.36,7.25.75l.6-.35.15.09c.02-.22.64-.45,1.06-.47.34.51-.2,1.07,1.27,1.19.29.14.65.21,1.08.22.21,0,.44,0,.68-.03.23-.02.47-.06.82-.11,1.23-.22,2.39-.72,3.23-1.24-1.04.32-.8-.06-.47-.35.82-.34,1.56-.25,2.02-.83l.5.42c-.35-.11.06-.59.45-1.17.4-.57.75-1.26.71-1.47.33-.11.26.25.07.67-.19.43-.51.89-.46,1.09,1.04-1.17,1.23-1.81,1.43-2.26.17-.47.32-.85.41-1.93-.02.15.04-.39-.05-1.16-.38-1.04-.55-.9-.65-.69-.12.23-.24.54-.59.11-.11-.39-.26-.77-.43-1.14-.14-.32-.28-.63-.43-.95-.22-.52-.3-1.02-.1-1.64-.19.13-.37.26-.55.4-.25-1.04-.19-1.99-.07-2.83.13-.84.36-1.6.58-2.52-.37-1.22-1.02-2.24-1.79-2.79-.76-.59-1.67-.69-2.36-.57-1.43.27-2.05,1.17-2.22,1.72-.05.14-.07.27-.09.38.01.07-.05.08-.11.1-.06.02-.11.04-.15.06-.18.07-.29.15-.32.22-.06.15.15.29.54.42.02,0,.22.13.24.31.03.17-.03.28-.03.28-.06.1-.14.17-.2.19-.01,0-.03-.01-.03-.02h0s0,0,0,0h0c.78-.25.21-.07.39-.13h-.02s-.09.04-.09.04l-.18.05c-.16.04-.13.03-.14.04,0,0,0,0-.01.02-.02.04-.03.1-.03.18-.05.77-.1,1.49-.14,2.22-.05,1.16-.12,2.91.44,4.88.13.45.27.82.4,1.14.04.11.03.05.05.07h.03s.07.04.07.04c.09.04.19.11.27.2.2.22.2.63-.11.89"/>
  <path class="cls-1" d="M27.23,159.56l-.22.24c.11-.01.19-.07.22-.24"/>
  <path class="cls-1" d="M27.71,216.85s.03.04.05.06c-.02-.04-.03-.05-.05-.06"/>
  <path class="cls-1" d="M19.97,168.71h0s-.04-.05-.06-.07l.06.07Z"/>
  <path class="cls-1" d="M19.84,157.33c-.07,3-1.09,3.85-.43,6.91.03,1.47.37,3.03.56,4.46.87.65.1,1.89.84,2.67l-.47.33c.25.27.43.59.18.88h-.14c.38.39.18.87.37,1.07h-.14s.08.49.08.49l-.2-.08c.41.71.46,1.46.3,2.13l.58-.07c-.61,1.43.61,1.92-.13,3.21h-.14c1.56,1.57-.99,2.55.49,4.19-.18-.2-.3.09-.44.08.17.76.27,1.58,1.41,1.58-.01.56-.35.46-.79.54.5,0,.71.48.75.91l-.19-.2.18,1.25.94-.25c-.27.67-1.15.18-.92.81h.78c-.15.91-1.34,1.45-1.91,2.34-.33,3.68,1.61,7.67.16,11.08l-.59.14c-.86.05,1.25.98.45,1.09l.38.41c-.16.11-.33.34-.51.14-.04.37.1.38.35.65l-.54.38c-.46,1.44.53,2.71.27,4.24-1.16,1.8-.3,5.3.18,7.32,1.14,2.88-2.46,5.94-1.18,8.9-.13.09.13.35.23.35l-.3,2.62s-.31,3.17.33,5.21c.65,2.03,2.28,2.97,6.2-1.64l.18.08c.57-1.42.72-2.33-.14-3.4,1.16-.08.2-1.18.6-1.5l.09.04c-.83-.95.85-1.78.12-2.69.09.04.4.08.41.28-.1-.63-.31-1.5.37-1.51-.08-1.5.34-3.57-.68-4.58l.18.08c-.69-.58-.07-.71-.41-1.34.09-.03.14-.07.17-.06-.68-.63-.03-1.73-.31-2.23h.45s-.05-1.2-.05-1.2l-.12.44c-1.21-.21.81-.86.05-1.75.19-.8-2.48-1.72-1.85-2.53-.56-.42.92.38.5-.23.64,0,.39.29.9.16-.28-.59.68-.93.28-1.66h.5c-.88-.98.71-1.76-.14-2.41-.38-.98,1.5-.61.55-1.64l.68-.38c.12-.43-.82-.33-.48-.8.42.04.35-.6.75-.31.69-1.07-.89-2.22.25-3.63-.82-.32-.32-1.03-.93-1.27.36-.03.08-1.44.85-.62.06.07.05.19-.09.18l.49.1c.94-.8-.49-1.49-.34-2.29-.16.24-.12.56-.46.34l.07-.75.41.16.25-1.11-.51.15c.27-.54,1.13-.73.42-1.35-.4-.28-.69.51-.85-.06.35-.73.87-1.82,1.02-2.75-.57.09-.55-.16-.67-.42l.5-.03c-.69-.99,1.1-.37.54-1.35l.35.08-1.04-.25c-1-.88,1.03-.49-.33-1.46.09.39-1.1.19-.88-.29l.48.12c-.1-.26-.31-.35-.21-.53.26.16.7.08.61-.31l.6.26-.89-.73c.51-.57-.14-1.47.53-1.71,0,0,.31-1.23-.44-1.5.47.24.63-.44,1.17-.26-.53-.31-.97-1.23-.42-1.62l.06.07c.54-1.4-.84-2.35-.18-3.61-.58.07-.28-.59-1.01-.41-.76-1.26,1.42-2.4-.88-2.78-.14-.58.51-.71.62-1.02l.13.14c-.23-1.09-.26-1.41-.25-2.22-.24-.4-1.3-.41-1.08-1.15.43.22.34-.08.33-.35.07.17.23.22.5-.15-.13-.04-.22-.12-.29-.19.03,0,.06-.02.1-.02-.17-.45-.3-.36-.35-.15-.06,0-.15.01-.26.08.52-.5-.1-1.31.62-1.4-.25-1.35-1.08-2.29-1.44-3.4.36-.15.71.1.88.42l-.19-.8c.54-.03.34.44.47.69.8-1.01-1.01-1.92-.29-3.09l-.44-.21.07-.07c-.22.02-.55-.21-.63-.38.45-.19,1.08-.06,1.01-.61.42-.47-.32-1.23-.61-1.79-.06.32-.32.23-.5.11-.04-.28.42-.47.2-.67l.63-.07c-.58.15-.69-.68-.96-.76.45-.19.43.4.79.45-.14-1.11-.07-.56-.21-1.66-.52-.56-.59.15-1.16-.09-.16-.51-.64-.99-.3-1.62l-.54.23c-.5-.95-.48-1.54.03-2.25-2.53-3.46-4.12-3.68-5.05-3.07-.94.62-1.26,2.08-1.26,2.08-1.03,2.94.7,4.27,1.38,7.63"/>
  <path class="cls-1" d="M191.73,159.96l-.23.22c.11,0,.2-.06.23-.22"/>
  <path class="cls-1" d="M191.72,216.03s.03.04.05.05c-.02-.04-.03-.05-.05-.05"/>
  <path class="cls-1" d="M183.93,168.61h0s-.04-.05-.06-.07l.06.07Z"/>
  <path class="cls-1" d="M184.5,157.31c-.27,2.97-1.35,3.76-.89,6.83-.08,1.47.18,3.03.32,4.46.85.67.02,1.88.74,2.68l-.48.31c.24.28.41.6.15.88l-.14-.02c.37.41.15.88.33,1.08l-.14-.02.07.5-.2-.09c.39.72.42,1.46.25,2.12l.58-.06c-.64,1.41.56,1.91-.2,3.18l-.14-.02c1.54,1.59-1.03,2.54.43,4.18-.18-.2-.3.09-.44.07.17.76.26,1.57,1.4,1.57-.01.55-.35.45-.79.53.5,0,.71.47.74.91l-.19-.2.18,1.24.94-.25c-.27.66-1.15.17-.92.8h.78c-.15.9-1.33,1.44-1.9,2.32-.31,3.62,1.65,7.52.23,10.9l-.59.14c-.86.05,1.26.95.46,1.07l.39.4c-.15.11-.32.34-.51.14-.04.37.1.38.36.64l-.54.38c-.44,1.43.57,2.68.34,4.19-1.12,1.81-.16,5.27.4,7.27,1.26,2.79-2.15,6.07-.63,8.95-.12.1.16.33.26.33l-.06,2.65s.01,3.22.94,5.16c.92,1.97,2.63,2.52,5.94-2.38l.19.06c.39-1.42.46-2.3-.5-3.24,1.15-.19.08-1.16.45-1.5l.1.03c-.9-.84.7-1.78-.1-2.59.09.03.41.04.43.23-.15-.6-.42-1.42.25-1.47-.19-1.44.12-3.45-.95-4.38l.18.06c-.72-.53-.1-.68-.47-1.28.09-.03.13-.07.17-.07-.71-.58-.1-1.68-.4-2.16l.45-.02-.09-1.15-.1.43c-1.22-.16.78-.86,0-1.71.17-.78-2.52-1.62-1.91-2.43-.57-.4.93.36.49-.23.64,0,.4.28.91.14-.29-.57.67-.92.25-1.63l.5-.02c-.89-.93.68-1.72-.17-2.34-.4-.95,1.49-.61.53-1.61l.68-.37c.12-.42-.82-.32-.49-.78.42.04.35-.59.74-.31.68-1.06-.91-2.17.22-3.56-.82-.31-.32-1.01-.94-1.25.36-.03.07-1.41.84-.61.06.07.05.19-.09.18l.49.1c.93-.8-.5-1.46-.35-2.25-.16.23-.12.55-.46.34l.07-.74.41.15.24-1.1-.51.15c.26-.54,1.13-.73.4-1.34-.4-.27-.68.51-.85-.05.35-.72.86-1.79,1.01-2.7-.57.09-.55-.16-.67-.41l.5-.03c-.7-.96,1.09-.36.54-1.31l.35.08-1.04-.25c-.99-.86,1.03-.47-.32-1.42.09.38-1.1.18-.88-.28l.48.12c-.1-.26-.3-.34-.21-.52.26.15.7.08.62-.3l.6.25-.89-.71c.51-.56-.14-1.43.54-1.67,0,0,.32-1.19-.42-1.46.46.24.64-.42,1.18-.24-.52-.31-.96-1.22-.4-1.58l.06.07c.56-1.35-.79-2.31-.11-3.52-.58.06-.27-.58-1.01-.42-.74-1.25,1.49-2.3-.8-2.74-.13-.57.53-.68.65-.97l.12.13c-.19-1.07-.22-1.38-.17-2.17-.22-.4-1.29-.45-1.03-1.16.42.23.34-.06.34-.33.07.17.22.22.5-.13-.13-.05-.21-.12-.28-.19.03,0,.06-.02.1-.01-.15-.44-.28-.36-.34-.16-.07-.01-.15,0-.26.07.54-.46-.04-1.28.68-1.34-.18-1.33-.93-2.28-1.22-3.39.37-.13.7.13.85.45l-.14-.79c.54,0,.31.45.42.69.86-.94-.88-1.93-.09-3.03l-.42-.23.07-.07c-.22,0-.53-.24-.6-.4.47-.16,1.08,0,1.05-.54.45-.43-.23-1.22-.49-1.78-.08.3-.34.21-.5.08-.02-.27.45-.43.25-.64l.63-.03c-.59.11-.65-.71-.9-.81.47-.16.4.42.76.49-.06-1.09-.03-.54-.1-1.64-.48-.58-.6.11-1.15-.17-.13-.51-.57-1.01-.19-1.6l-.56.19c-.44-.96-.38-1.54.18-2.2-4.6-7.17-6.23-1.48-6.23-1.48-1.22,2.84.42,4.29.87,7.66"/>
  <path class="cls-1" d="M40.74,232.49l.47.22c-.01-.11-.13-.19-.47-.22"/>
  <path class="cls-1" d="M158.77,233.98s.08-.02.11-.04c-.08.01-.11.03-.11.04"/>
  <path class="cls-1" d="M59.01,239.86h-.03s-.08.04-.12.06l.14-.06Z"/>
  <path class="cls-1" d="M35.37,239.89c6.17.06,7.88,1.08,14.29.48,3.07,0,6.33-.31,9.33-.5,1.41-.88,3.94-.08,5.61-.81l.66.47c.58-.25,1.26-.42,1.84-.17l-.03.14c.86-.38,1.84-.17,2.27-.36l-.04.14,1.05-.07-.18.2c1.51-.4,3.07-.43,4.44-.27l-.12-.58c2.94.62,4.01-.57,6.67.19l-.04.14c3.35-1.54,5.3,1.04,8.76-.39-.43.18.18.3.15.44,1.59-.16,3.29-.24,3.33-1.37,1.16.03.94.37,1.09.81,0-.5,1.01-.69,1.92-.72l-.42.19,2.6-.14-.5-.95c1.37.29.33,1.15,1.66.94v-.78c1.9.17,3,1.38,4.83,1.99,7.64.45,15.93-1.3,23.01.32l.29.6c.11.86,2.01-1.2,2.25-.39l.84-.36c.23.16.71.34.29.52.76.06.79-.08,1.35-.32l.8.56c3,.55,5.61-.38,8.78-.02,3.76,1.26,10.99.64,15.17.3,2.95-.46,6.05.26,9.2.97,3.15.71,6.57,1.36,9.83.42.22.1.76-.21.74-.31,1.99-.12,4.04-.39,6.09-.91,0,0,.46-.12,1.23-.37.76-.24,1.81-.66,2.96-1.24,1.09-.56,2.03-1.13,2.93-1.62.87-.48,1.65-.85,2.08-1.06.45-.21.61-.42.98-.57.17-.07.37-.14.56-.25.19-.1.39-.22.49-.46.2-.37.38-1.35-.89-2.33-.62-.48-1.6-.85-2.77-.98-1.16-.14-2.52-.08-3.94.1l.06-.23c-.8.24-1.47.48-2.05.7-.6.23-.97.36-1.41.57-.85.36-1.55.84-2.33,1.51-.53-1.01-2.15.34-2.85.06l.04-.1c-.75.55-1.64.45-2.51.31-.87-.15-1.72-.33-2.55.07.06-.09.1-.4.47-.43-1.19.16-2.88.37-2.95-.31-2.9.07-7.22-.56-9.25.4l.15-.18c-1.16.65-1.46.02-2.73.31-.06-.09-.15-.14-.13-.18-1.26.63-3.57-.09-4.57.16l-.04-.45-2.44-.03.9.15c-.38,1.21-1.8-.87-3.6-.17-1.64-.24-3.47,2.38-5.15,1.69-.84.53.76-.9-.48-.52,0-.64.59-.37.3-.9-1.21.24-1.94-.75-3.43-.38l-.04-.5c-1.97.82-3.61-.81-4.94,0-2.01.32-1.28-1.54-3.39-.64l-.78-.7c-.88-.14-.67.8-1.64.44.08-.42-1.23-.38-.64-.77-2.21-.75-4.56.78-7.46-.43-.66.81-2.13.27-2.62.88-.07-.37-2.96-.14-1.28-.88.15-.06.4-.04.38.1l.21-.48c-1.65-.97-3.06.43-4.71.25.49.17,1.14.15.7.47l-1.54-.1.33-.41-2.29-.3.3.52c-1.12-.29-1.49-1.17-2.78-.46-.58.39,1.05.7-.14.84-1.49-.37-3.73-.94-5.65-1.12.17.58-.35.55-.88.65l-.05-.5c-2.04.67-.73-1.1-2.76-.58l.18-.34-.55,1.03c-1.83.97-.97-1.04-3.01.28.8-.08.36,1.1-.62.87l.25-.48c-.55.09-.73.29-1.09.19.33-.26.18-.7-.62-.62l.54-.6-1.52.87c-1.17-.52-3.02.11-3.5-.56,0,0-2.51-.34-3.09.39.51-.46-.88-.64-.48-1.18-.65.52-2.58.95-3.35.4l.15-.06c-2.85-.56-4.87.78-7.43.11.12.58-1.23.27-.89,1.01-2.64.75-4.84-1.47-5.77.83-1.2.14-1.43-.52-2.05-.62l.28-.12c-2.25.22-2.9.25-4.58.22-.83.23-.94,1.3-2.45,1.07.48-.43-.13-.34-.69-.33.36-.07.46-.23-.28-.5-.1.13-.26.22-.41.29,0-.03-.04-.06-.02-.1-.93.17-.77.3-.33.35-.02.07.02.15.15.26-.98-.53-2.7.09-2.83-.63-2.81.22-4.8,1.04-7.12,1.38-.27-.37.26-.71.94-.87l-1.65.18c0-.54.94-.33,1.45-.45-2-.82-4.05.97-6.38.26l-.47.44-.14-.07c.01.22-.49.55-.84.63-.34-.46-.01-1.08-1.16-1.01-.92-.42-2.57.31-3.76.61.65.05.45.32.18.5-.57.04-.93-.41-1.35-.19l-.08-.63c.25.59-1.45.7-1.65.96-.33-.46.86-.43.99-.79-2.24.13-1.13.08-3.32.17-1.16.47.21.6-.35,1.15-1.04.11-2.09.52-3.24.03l.32.59c-2,.25-3.22-.07-4.32-.95-.94.04-1.8.02-2.58,0-.78-.05-1.55,0-1.92.32-.36.31-.43.7-.47,1.04-.03.35-.01.67.03.96.15,1.2.69,1.55,1.41,1.35.33-.06.67-.17.83-.07,0,0,.04.04,0,0l-.23-.21c-.13-.12-.28-.28-.39-.38-.23-.23-.41-.44-.55-.62-.28-.36-.39-.6-.42-.7-.02-.07-.02-.05-.02-.08,0,.05.02.14.02.26,0,.24-.04.63-.15,1.13-.11.51-.28,1.1-.47,1.7-.02.06-.04.12-.06.17h0s0,.01,0,.01h0c.01.05.09.12.23.21.14.09.37.21.55.31.39.2.77.4,1.15.56.77.33,1.52.57,2.27.77,1.49.36,2.93.47,4.34.45,2.85-.04,5.64-.65,9.15-1.02"/>
  <path class="cls-1" d="M179.74,251.09l-.55-.22c0,.11.15.2.55.22"/>
  <path class="cls-1" d="M40.92,252.38s-.09.03-.13.05c.09-.02.12-.03.13-.05"/>
  <path class="cls-1" d="M158.3,243.64h.03s.1-.04.14-.06l-.17.06Z"/>
  <path class="cls-1" d="M186.25,243.75c-7.34-.13-9.3-1.18-16.89-.59-3.63-.03-7.49.3-11.03.48-1.67.87-4.65.09-6.63.83l-.78-.47c-.68.25-1.48.43-2.18.18l.04-.14c-1.02.38-2.18.18-2.68.37l.04-.14-1.24.08.21-.2c-1.78.41-3.62.46-5.25.31l.14.58c-3.48-.6-4.73.61-7.87-.12l.04-.14c-3.94,1.58-6.27-.97-10.33.53.51-.19-.22-.3-.18-.44-1.88.19-3.88.29-3.9,1.43-1.37,0-1.12-.34-1.3-.78.01.5-1.18.72-2.24.76l.49-.2-3.06.2.61.94c-1.63-.26-.42-1.15-1.98-.9l.03.78c-2.25-.13-3.58-1.31-5.76-1.86-9.04-.27-18.74,1.78-27.16.43l-.37-.59c-.17-.86-2.32,1.28-2.64.48l-.98.4c-.28-.15-.85-.32-.37-.51-.9-.03-.93.11-1.58.37l-.97-.53c-3.57-.41-6.6.62-10.36.42-4.51-1.09-13-.09-17.9.48-3.44.64-7.16.09-10.9-.44-1.87-.26-3.74-.52-5.59-.62-.92-.05-1.84-.07-2.75-.02-.45.02-.9.06-1.35.11l-.67.09c-.1.04-.13.08-.21.12-.04-.12-.27.15-.31.25l-.86-.05-.41-.03s-.18.02-.16-.04c.03-.07.06-.14.08-.21.04-.12.07-.23.09-.35,0,0,.03-.15.04-.4,0-.12,0-.28,0-.44-.02-.39-.05-.83-.07-1.29-.08-1.3-.2-2.6-.19-3.61,0-1.08.15-2.06.32-2.8.17-.75.35-1.25.48-1.74.06-.26.12-.46.11-.7,0-.23-.04-.45-.24-.62-.32-.33-1.24-.71-2.81.06-1.54.77-3.44,2.9-4.43,6.42l-.18-.2c-.16,1.07-.22,1.9-.26,2.68-.02.39-.02.74-.03,1.07,0,.41.01.81.02,1.2,0,.27,0,.53,0,.8-.01.26-.03.53-.04.79-.05.53-.17,1.06-.25,1.6-.17,1.06-.28,2.1-.27,2.93-.41.42-.73.96-.99,1.55.22.16.39.27.7.36.48,0,1.01-.04,1.52-.07,1.02-.06,1.95-.12,2.36.03l-.19.09c2.03-.43,3.56-.24,5.35-.03l.66.08.44.07c.27.04.54.08.81.09.54.03,1.07-.01,1.59-.21-.08.09-.13.41-.61.42,1.51-.14,3.59-.38,3.69.29,3.62-.16,8.66.17,10.98-.89l-.16.19c1.32-.72,1.71-.1,3.18-.47.08.09.18.13.17.17,1.44-.71,4.19-.1,5.36-.4l.07.45,2.86-.1-1.07-.1c.37-1.22,2.16.77,4.24-.02,1.94.16,3.94-2.54,5.96-1.94.96-.57-.85.93.59.49.05.64-.67.4-.3.91,1.41-.3,2.32.65,4.06.22l.07.5c2.27-.91,4.29.65,5.8-.22,2.34-.42,1.58,1.48,4.01.49l.95.67c1.04.11.75-.83,1.9-.51-.07.43,1.46.33.79.74,2.62.65,5.32-.95,8.77.15.75-.83,2.49-.35,3.04-.97.09.36,3.48.04,1.54.83-.17.06-.46.05-.44-.09l-.23.49c1.97.91,3.57-.53,5.52-.4-.58-.16-1.35-.11-.84-.45l1.81.05-.37.41,2.7.22-.37-.51c1.32.25,1.79,1.12,3.27.38.67-.41-1.26-.68.14-.85,1.77.33,4.41.84,6.66.97-.21-.57.39-.56,1.01-.68l.08.5c2.38-.71.89,1.09,3.25.52l-.21.35.62-1.05c2.13-1.01,1.16,1.02,3.53-.34-.94.09-.45-1.09.71-.89l-.29.48c.64-.11.85-.31,1.28-.22-.38.26-.19.7.75.61l-.62.61,1.77-.9c1.38.5,3.55-.17,4.12.5,0,0,2.96.3,3.63-.45-.59.47,1.04.62.59,1.17.76-.53,3.02-.99,3.93-.44l-.17.06c3.36.53,5.72-.84,8.73-.2-.14-.58,1.45-.28,1.04-1.02,3.1-.78,5.69,1.42,6.78-.88,1.41-.14,1.68.51,2.42.62l-.34.13c2.65-.23,3.42-.26,5.38-.24.98-.24,1.12-1.3,2.88-1.07-.56.43.16.34.81.33-.42.07-.55.23.32.5.12-.13.31-.22.48-.29,0,.03.04.06.03.1,1.1-.17.9-.3.39-.34.03-.07-.02-.15-.18-.26,1.15.53,3.18-.09,3.33.63,3.3-.23,5.65-1.02,8.39-1.35.32.37-.32.71-1.12.87l1.95-.17c0,.54-1.12.33-1.71.45,2.34.83,4.77-.96,7.51-.21l.56-.44.16.07c-.01-.22.59-.54.99-.62.39.46,0,1.08,1.34,1.02,1.08.43,3.02-.29,4.41-.57-.75-.06-.52-.33-.2-.5.67-.03,1.07.43,1.59.22l.08.63c-.28-.59,1.75-.68,1.99-.94.39.46-1.04.42-1.2.78,3.59-.14,1.8-.07,5.39-.2.96-.26.74-.4.43-.56-.32-.15-.74-.31-.44-.59.88-.09,1.63-.27,2.46-.35-.03-.79,0-1.52.2-2.24-.19.08-.38.14-.57.18-.16-1.55-.22-2.6-.15-3.55.07-.99.25-1.68.56-2.49-3.92-17.97-6.09-3.97-6.09-3.97-.22,1.03-.37,1.99-.48,2.9-.05.46-.09.9-.12,1.34-.01.22-.02.43-.03.65v.32c-.01.11-.02.25-.01.2.03-.04.21,0,.41.31.08.15.07.32-.09.47-.04.04-.09.08-.14.11l-.04.03-.27.03c-.18.02-.37.04-.56.06-.76.08-1.56.15-2.41.22"/>
  <path class="cls-1" d="M60,174.82l-.24.1c.11,0,.2-.02.24-.1"/>
  <path class="cls-1" d="M61.03,200.04s.03.01.05.02c-.02-.02-.04-.02-.05-.02"/>
  <path class="cls-1" d="M52.11,178.68h0s-.04-.02-.06-.03l.06.03Z"/>
  <path class="cls-1" d="M52.82,173.42c-.31,1.37-1.41,1.72-.98,3.17-.1.68.15,1.42.28,2.09.84.32.01.88.72,1.25l-.48.15c.24.13.41.28.15.41h-.14c.36.18.15.4.33.5h-.14s.06.23.06.23l-.2-.04c.39.33.42.68.25.99l.58-.03c-.64.66.56.88-.19,1.48h-.14c1.55.7-1.02,1.2.46,1.93-.18-.09-.3.05-.44.04.18.35.28.72,1.42.69,0,.26-.35.22-.79.27.5-.02.71.2.75.4l-.2-.09.19.57.94-.15c-.26.31-1.15.12-.91.4l.78-.03c-.14.42-1.31.72-1.87,1.15-.26,1.72,1.83,3.42.56,5.08l-.58.11c-.85.09,1.3.35.51.46l.4.16c-.15.06-.31.18-.5.1-.02.17.12.17.39.27l-.52.22c-.36.7.71,1.19.55,1.91-1.02.93.11,2.45.78,3.3.35.29.4.61.32.98-.08.39-.29.81-.48,1.25-.39.88-.66,1.94.32,2.62-.1.09.21.16.3.12.14.54.32,1.1.58,1.69,0,0,.24.53.8,1.17.54.64,1.55,1.32,2.48,1.39.94.09,1.61-.38,1.82-1.32.13-.47.17-1.08.28-1.76.12-.7.35-1.48.9-2.21l.14-.12c.24-.42.32-.47-.63-.25,1.02-.54-.01-.3.29-.56l.09-.03c-.46.06-.33-.14-.18-.33.14-.18.32-.36-.1-.39.09-.01.4-.08.43-.03-.19-.13-.5-.37.16-.51-.27-.44-.05-1.21-1.16-1.5h.19c-.74-.16-.14-.29-.53-.52.09-.02.13-.05.17-.05-.74-.19-.18-.75-.51-.93l.44-.05-.15-.51-.08.2c-1.23.04.73-.46-.09-.77.12-.36-2.6-.5-2.03-.92-.59-.13.94.08.48-.15.64-.06.41.09.91-.02-.32-.23.62-.47.16-.76l.5-.05c-.94-.34.59-.83-.29-1.04-.44-.4,1.45-.39.45-.76l.66-.22c.1-.2-.83-.08-.52-.31.42-.02.32-.29.73-.19.63-.52-1-.9.08-1.59-.83-.09-.36-.43-.98-.5.36-.04.02-.63.82-.32.07.03.06.08-.08.08l.49.02c.9-.41-.54-.62-.42-.98-.16.11-.11.25-.45.17l.05-.33.41.05.22-.5-.51.09c.25-.25,1.11-.38.38-.61-.41-.1-.67.26-.85.01.33-.34.84-.84.97-1.25-.57.06-.56-.05-.68-.16l.5-.03c-.71-.4,1.09-.2.52-.61l.35.03-1.04-.07c-1-.35,1.03-.24-.33-.63.09.17-1.1.12-.89-.1l.48.04c-.11-.11-.31-.15-.21-.23.26.06.7.01.61-.15l.6.1-.89-.3c.51-.26-.15-.64.52-.76,0,0,.32-.54-.43-.65.46.1.63-.2,1.18-.13-.52-.12-.96-.52-.41-.7l.06.03c.55-.61-.8-1.02-.11-1.58-.58.03-.27-.26-1.01-.18-.74-.56,1.49-1.04-.79-1.23-.12-.26.53-.31.65-.44l.12.06c-.19-.48-.21-.62-.16-.98-.22-.18-1.28-.21-1.03-.53.42.1.34-.03.34-.15.07.08.22.1.51-.05-.13-.02-.21-.06-.28-.09.03,0,.06,0,.1,0-.15-.2-.28-.17-.34-.07-.07,0-.15,0-.26.03.55-.21-.03-.58.69-.6-.17-.6-.91-1.04-1.18-1.54.37-.05.7.07.84.22l-.13-.36c.54.01.31.21.41.32.87-.41-.85-.88-.05-1.37l-.42-.11.07-.03c-.22,0-.53-.12-.6-.19.47-.06,1.08.03,1.05-.22.46-.18-.21-.56-.46-.82-.08.14-.34.08-.5.02-.01-.12.45-.18.26-.28h.63c-.6.04-.63-.33-.89-.39.47-.06.4.2.75.24-.04-.49-.02-.25-.07-.74-.47-.28-.6.03-1.14-.11-.12-.24-.55-.48-.16-.73l-.56.07c-.42-.45-.35-.72.23-.99-2.21-1.72-3.76-1.98-4.75-1.79-1,.2-1.44.84-1.44.84-1.29,1.28.32,2.03.71,3.6"/>
  <path class="cls-1" d="M72.05,167.18l.27.23c0-.11-.07-.2-.27-.23"/>
  <path class="cls-1" d="M141.68,169.79s.05-.03.07-.05c-.05.02-.06.03-.07.05"/>
  <path class="cls-1" d="M82.65,175.08h-.02s-.05.04-.07.06l.09-.06Z"/>
  <path class="cls-1" d="M68.73,174.39c3.66.27,4.62,1.37,8.41.94,1.81.11,3.73-.12,5.5-.24.85-.84,2.32.02,3.32-.67l.38.49c.35-.24.75-.39,1.09-.13l-.02.14c.52-.35,1.09-.13,1.35-.31l-.02.14.62-.05-.11.2c.9-.37,1.82-.37,2.62-.18l-.06-.58c1.72.69,2.38-.5,3.92.31l-.03.14c2.02-1.48,3.09,1.14,5.17-.26-.26.17.1.3.07.44.94-.14,1.95-.19,2-1.33.68.04.54.38.62.82.01-.5.61-.68,1.15-.7l-.25.18,1.54-.11-.26-.95c.8.3.16,1.16.95.96l.02-.78c1.12.2,1.73,1.41,2.79,2.02,4.48.52,9.43-1.22,13.55.38l.15.6c.03.86,1.23-1.2,1.34-.4l.51-.36c.13.16.41.34.15.52.45.06.47-.08.81-.32l.45.56c1.75.52,3.33-.42,5.18-.08,2.17,1.23,6.46.53,8.94.14,3.53-1.03,7.23,2.72,10.85,1.56.1.13.42-.11.43-.21l3.19.41s3.87.45,6.36-.12c2.48-.57,3.61-2.16-1.98-6.27l.1-.18c-1.72-.63-2.83-.83-4.13,0-.09-1.16-1.44-.25-1.82-.66l.05-.09c-1.16.79-2.15-.94-3.26-.24.05-.09.1-.4.34-.4-.77.08-1.83.25-1.83-.42-1.82.03-4.33-.5-5.57.48l.1-.18c-.72.67-.86.04-1.63.35-.03-.09-.08-.14-.07-.18-.77.66-2.11-.05-2.71.21v-.45s-1.45,0-1.45,0l.53.14c-.27,1.21-1.03-.85-2.12-.13-.96-.22-2.15,2.41-3.11,1.74-.52.54.49-.9-.26-.51.02-.64.36-.38.21-.9-.73.25-1.12-.73-2.02-.36v-.5c-1.2.83-2.11-.79-2.92.03-1.2.34-.7-1.52-1.98-.62l-.44-.7c-.52-.14-.42.8-.98.44.06-.42-.72-.38-.35-.76-1.28-.74-2.72.8-4.39-.42-.42.8-1.26.27-1.58.87-.03-.36-1.74-.15-.73-.88.09-.06.24-.04.22.1l.14-.48c-.94-.98-1.82.42-2.79.23.28.17.67.15.4.47l-.9-.11.21-.4-1.34-.3.16.52c-.65-.29-.85-1.17-1.62-.48-.36.39.6.72-.11.84-.87-.39-2.17-.97-3.3-1.16.08.58-.22.55-.54.65l-.02-.5c-1.23.65-.4-1.11-1.61-.61l.12-.34-.35,1.03c-1.11.94-.54-1.06-1.78.25.47-.07.18,1.1-.39.87l.16-.47c-.33.09-.44.29-.65.18.2-.25.12-.69-.35-.63l.34-.59-.92.86c-.67-.54-1.79.07-2.05-.61,0,0-1.47-.38-1.84.35.31-.45-.5-.65-.25-1.19-.4.51-1.55.9-1.99.33l.09-.06c-1.67-.61-2.9.71-4.39-.02.06.58-.73.25-.55.99-1.57.69-2.82-1.55-3.42.71-.71.11-.83-.55-1.2-.67l.17-.12c-1.33.16-1.72.18-2.71.11-.5.21-.59,1.27-1.47,1.01.29-.42-.07-.34-.4-.35.21-.06.28-.22-.15-.51-.06.13-.16.21-.25.28,0-.03-.02-.06-.01-.1-.55.14-.46.28-.2.34-.01.06,0,.15.08.26-.57-.55-1.6.02-1.66-.7-1.66.15-2.85.88-4.23,1.16-.15-.37.17-.7.57-.85l-.98.13c.01-.54.57-.31.87-.41-1.16-.87-2.41.86-3.77.06l-.28.42-.08-.07c0,.22-.3.53-.51.6-.19-.47.01-1.08-.66-1.05-.53-.45-1.52.22-2.22.48.38.08.26.34.09.5-.34.02-.53-.45-.79-.25l-.03-.63c.13.59-.88.65-1.01.9-.19-.46.52-.4.61-.76-1.36.07-.68.03-2.04.1-.72.48.14.59-.21,1.15-.64.13-1.26.57-1.99.19l.24.56c-1.19.44-1.91.39-2.72-.17-4.43,2.33-4.87,3.9-4.21,4.87.66.98,2.41,1.37,2.41,1.37,3.51,1.19,5.29-.45,9.45-.91"/>
  <path class="cls-1" d="M169.55,174.71l-.14.27c.1-.04.17-.12.14-.27"/>
  <path class="cls-1" d="M169.16,202.27s.02.03.04.05c0-.03-.02-.04-.04-.05"/>
  <path class="cls-1" d="M162.26,179.7h0s-.04-.02-.06-.03l.06.03Z"/>
  <path class="cls-1" d="M164.59,176.87s.01-.02.02-.03l-.03.03h-.01s0,.01,0,.01c.16-.13.04-.04.08-.06h0s0,0,0,0h0s0,0,0,0h-.01s-.07.06-.07.06c-.13.08-.36.19-.73.31-.39.13-.88.26-1.79.39l-.12.02h0s0,.02,0,.05c.01.03.05.09.11.19-.04.17,0,.48.06.84.07.34.14.69.21,1.01.84.32,0,.86.69,1.23l-.48.13c.24.13.4.28.14.4h-.14c.36.18.14.39.32.49h-.14s.06.22.06.22l-.2-.04c.38.34.4.67.21.97h.58c-.66.61.53.87-.25,1.43h-.14c1.51.75-1.07,1.12.37,1.9-.18-.1-.3.03-.44.02.16.35.24.72,1.38.75-.02.25-.36.2-.8.22.5.01.7.23.73.43l-.19-.09.16.57.95-.09c-.28.29-1.15.05-.93.34l.78.02c-.16.41-1.35.62-1.94,1.01-.37,1.65,1.58,3.5.17,5.01l-.59.05c-.86,0,1.26.47.46.5l.39.19c-.15.05-.32.15-.51.05-.04.17.1.17.36.3l-.54.16c-.43.64.59,1.25.35,1.88-1.11.75-.22,1.9.18,2.63.51.55-.15.74-.76.75-.63.03-1.09-.18-.77.51-.09-.08.06.15.12.23-.15.08-.28.1-.37.11,0,0-.08.02-.09.1-.02.08.04.28-.06.66-.09.4-.46.95-.76,1.87-.13.46-.24,1.03-.08,1.77.16.71.62,1.61,1.73,2.37l-.03.19c1.28.3,2.16.01,2.36-1.14.31.48.54.4.71.22.17-.18.27-.46.48-.37l.04.09c.02-.54.34-.58.72-.64.37-.05.74-.14.66-.62.05.08.27.31.18.42.22-.42.38-1.02.92-.63.53-.89,1.53-2.11.75-3.14l.16.11c-.54-.59.06-.49-.16-.99.09,0,.14-.01.18,0-.59-.52.13-1-.12-1.32l.44.06c0-.23,0-.45,0-.66l-.13.22c-1.2-.25.83-.38.09-.93.2-.42-2.47-1-1.85-1.33-.56-.21.92.21.49-.09.64.02.39.15.91.1-.29-.29.67-.43.25-.78h.5c-.89-.46.68-.77-.18-1.08-.4-.45,1.48-.24.52-.73l.68-.16c.11-.19-.82-.16-.49-.37.42.03.34-.26.74-.12.67-.47-.92-1.02.22-1.62-.82-.16-.32-.47-.94-.59.36,0,.07-.64.84-.26.06.03.05.09-.09.08l.49.06c.93-.34-.49-.68-.34-1.03-.16.1-.12.25-.46.14l.07-.33.41.08.25-.49-.51.05c.27-.24,1.14-.3.42-.6-.4-.14-.69.21-.84-.05.35-.32.89-.79,1.05-1.21-.57.03-.55-.09-.67-.2h.5c-.68-.46,1.1-.14.56-.59l.35.05-1.04-.14c-.98-.42,1.04-.19-.3-.66.08.18-1.1.06-.88-.15l.48.07c-.1-.12-.3-.17-.2-.24.26.08.7.05.62-.12l.6.13-.88-.35c.52-.24-.12-.66.56-.75,0,0,.34-.54-.4-.68.46.12.64-.18,1.18-.08-.52-.15-.94-.58-.38-.74l.06.03c.58-.61-.75-1.08-.05-1.62-.58.02-.26-.27-1-.21-.72-.59,1.52-1.03-.75-1.27-.12-.26.54-.3.66-.44l.12.07c-.18-.5-.19-.64-.13-1-.22-.19-1.28-.23-1.01-.55.42.11.35-.02.35-.14.07.08.22.1.51-.05-.13-.02-.21-.06-.28-.09.03,0,.06,0,.1,0-.14-.21-.28-.17-.34-.08-.07,0-.15,0-.26.03.55-.2-.02-.59.7-.6-.15-.59-.89-1.13-1.21-1.74.37-.1.71.03.86.22l-.17-.48c.54-.05.33.27.44.41.42-.32.18-.65-.1-.98-.28-.34-.59-.65-.37-1.23l-.46-.04.04-.08c-.21.08-.57.01-.69-.07.36-.32.99-.45.7-.92.08-.3-.15-.56-.48-.72-.33-.17-.73-.24-1.01-.31.17.25-.09.37-.28.42-.18-.14-.01-.59-.28-.54l.34-.53c-.26.52-.89.19-1.08.41.09-.48.5-.19.74-.46-.46-.22-.58-.26-.69-.3-.11-.03-.24-.1-.67-.2-.57.32-.1.59-.45,1.06-.37.03-.72.41-1.01,0l.04.57c-.56.37-.79.32-1.15-.24-.87,1.18-1.09,2.21-1.19,3.02-.08.82.02,1.45.22,1.91.17.47.4.79.55,1.01.16.21.26.3.26.3.21.29.35.41.41.43.04,0,.06-.01.08-.06.01-.02.02-.05.02-.08.01-.07.02-.15.03-.23.06-.65.21-1.28.34-1.7.14-.45.33-.78.41-.87"/>
  <path class="cls-1" d="M70.59,206.07l.28.23c0-.11-.08-.2-.28-.23"/>
  <path class="cls-1" d="M140.33,204.74s.05-.03.06-.05c-.04.02-.06.04-.06.05"/>
  <path class="cls-1" d="M81.44,213.72h-.02s-.05.04-.07.06l.09-.06Z"/>
  <path class="cls-1" d="M67.37,213.34c3.69.22,4.69,1.28,8.51.77,1.82.06,3.77-.23,5.55-.39.83-.86,2.34-.05,3.33-.78l.4.47c.34-.25.74-.42,1.09-.17l-.02.14c.51-.37,1.09-.17,1.35-.35l-.02.14.62-.07-.1.2c.89-.4,1.82-.44,2.64-.28l-.08-.58c1.76.62,2.37-.6,3.96.15l-.02.14c1.96-1.57,3.17.99,5.19-.5-.25.19.12.3.1.44.94-.18,1.95-.29,1.94-1.43.69,0,.57.35.66.79-.01-.5.58-.72,1.12-.76l-.24.2,1.54-.2-.32-.94c.82.26.23,1.15,1.01.9l-.02-.78c1.13.13,1.82,1.31,2.92,1.86,4.55.25,9.4-1.83,13.66-.53l.2.58c.1.86,1.14-1.29,1.32-.5l.49-.4c.14.15.43.31.19.51.46.03.47-.11.79-.38l.5.52c1.8.38,3.31-.67,5.2-.5,2.29,1.05,6.54-.03,8.99-.66,3.44-1.34,7.52,2,11.04.47.12.12.41-.16.41-.26l3.24.06s15.72.05,3.66-6.84l.08-.19c-1.78-.42-2.9-.5-4.11.46-.21-1.15-1.46-.09-1.88-.46l.04-.09c-1.07.91-2.24-.7-3.27.12.04-.09.06-.41.29-.43-.76.16-1.79.43-1.86-.24-1.81.21-4.35-.06-5.5,1.03l.08-.19c-.65.73-.86.12-1.59.5-.04-.09-.1-.13-.09-.17-.71.73-2.11.15-2.68.47l-.05-.45-1.44.13.54.09c-.16,1.23-1.1-.75-2.13.06-.98-.14-1.93,2.58-2.96,2-.47.58.41-.94-.31-.49-.04-.64.33-.41.14-.91-.7.32-1.18-.63-2.04-.18l-.04-.5c-1.12.93-2.17-.62-2.91.26-1.17.43-.82-1.46-2.02-.47l-.49-.66c-.53-.1-.36.83-.95.52.03-.42-.74-.32-.41-.73-1.33-.64-2.65.99-4.41-.1-.36.83-1.24.36-1.51.98-.05-.36-1.75-.03-.78-.82.08-.07.23-.06.22.08l.11-.49c-1.01-.91-1.79.54-2.77.42.29.16.68.11.43.45l-.91-.05.18-.42-1.36-.22.2.51c-.67-.25-.92-1.11-1.65-.38-.33.41.64.68-.06.85-.89-.33-2.23-.83-3.36-.96.12.57-.19.56-.5.68l-.04-.5c-1.19.71-.46-1.09-1.64-.52l.1-.35-.29,1.05c-1.06,1.01-.6-1.02-1.77.35.47-.09.24,1.09-.34.89l.14-.48c-.32.11-.42.31-.64.21.19-.26.09-.7-.38-.61l.31-.61-.88.9c-.7-.5-1.78.16-2.08-.51,0,0-1.49-.31-1.82.44.29-.47-.53-.63-.31-1.17-.38.53-1.5.98-1.97.43l.08-.06c-1.69-.54-2.86.83-4.38.17.08.58-.72.28-.51,1.01-1.55.76-2.87-1.45-3.4.84-.71.14-.85-.52-1.22-.63l.17-.12c-1.33.21-1.71.24-2.7.2-.49.23-.55,1.29-1.44,1.05.28-.43-.08-.34-.41-.34.21-.07.27-.23-.17-.5-.06.13-.15.21-.24.28,0-.03-.02-.06-.01-.1-.55.16-.45.29-.19.34-.01.07.01.15.09.26-.58-.53-1.6.07-1.68-.66-1.66.2-2.83.97-4.21,1.27-.16-.37.15-.71.55-.86l-.98.15c0-.54.56-.32.86-.43-1.18-.85-2.39.91-3.77.14l-.28.43-.08-.07c0,.22-.29.54-.49.61-.2-.46,0-1.08-.68-1.04-.54-.44-1.52.25-2.21.52.38.07.26.33.1.5-.34.02-.54-.44-.8-.24l-.04-.63c.14.59-.87.66-.99.92-.2-.46.52-.41.6-.76-1.36.08-.68.04-2.04.12-.72.49.14.59-.19,1.15-.64.13-1.25.59-1.86.17l.17.57c-1.11.38-1.85.09-2.14-.76-1.06.03-1.7-.58-2.19-.97-.48-.43-.75-.77-1.05-.86-.14-.04-.31-.07-.55-.03-.21.03-.41.07-.59.12-.36.11-.65.27-.89.46-.62.43-.94,1.47-.81,2.5.11,1.01.53,1.8.53,1.8.69,1.63,1.98,2.71,3.33,3.31.67.3,1.39.49,2.09.59.68.09,1.28.09,1.82.04,1.1-.09,1.87-.34,2.65-.54.81-.21,1.71-.41,2.76-.54"/>
  <path class="cls-1" d="M65.69,45.85l.28.25c0-.11-.06-.2-.28-.25"/>
  <path class="cls-1" d="M140.98,47.22s.05-.02.08-.04c-.05.01-.07.03-.08.04"/>
  <path class="cls-1" d="M76.77,54.37h-.02s-.06.03-.08.05l.1-.05Z"/>
  <path class="cls-1" d="M61.52,52.75c3.98.61,4.97,1.76,9.17,1.59,1.98.21,4.12.07,6.07.03.96-.8,2.55.09,3.67-.57l.4.49c.38-.23.83-.38,1.2-.11l-.03.14c.57-.34,1.2-.11,1.48-.28l-.03.14.68-.04-.12.2c.99-.36,2-.36,2.88-.17l-.06-.58c1.89.69,2.6-.51,4.3.28l-.03.14c2.18-1.52,3.43,1.07,5.66-.4-.28.18.12.3.1.44,1.03-.17,2.13-.26,2.13-1.4.75,0,.61.35.72.79,0-.5.64-.71,1.22-.75l-.27.2,1.67-.19-.34-.94c.89.25.24,1.15,1.09.9l-.03-.78c1.23.13,1.97,1.3,3.18,1.84,4.95.2,10.14-2.01,14.67-.71l.21.58c.1.86,1.22-1.29,1.4-.5l.52-.39c.15.15.46.32.2.51.48.03.49-.11.84-.37l.52.53c1.89.42,3.51-.59,5.48-.31,2.33,1.15,6.77.46,9.39.24,3.77-.86,7.24,3.46,11.55,2.64.12.14.5-.09.51-.18,1.22.22,2.49.38,3.78.5,0,0,1.18.1,2.78-.03,1.6-.13,3.63-.61,5.02-1.43.7-.39,1.23-.87,1.5-1.32.28-.45.28-.88-.01-1.29-.58-.86-2.45-1.33-5.38-2.79l.05-.19c-1.65-.28-2.62-.42-3.87.47-.11-1.16-1.42-.23-1.8-.66l.05-.09c-1.19.76-2.12-1.03-3.3-.43.06-.08.13-.39.38-.36-.8,0-1.92.06-1.86-.61-1.9-.18-4.63-1.03-6.11-.15l.12-.17c-.84.6-.96-.06-1.84.21-.03-.09-.09-.15-.07-.18-.89.6-2.34-.19-3.02.06v-.45c-.53-.02-1.06-.05-1.6-.05l.58.15c-.31,1.2-1.13-.86-2.35-.16-1.08-.22-2.32,2.4-3.38,1.76-.55.55.5-.91-.3-.5,0-.64.39-.39.2-.9-.79.28-1.25-.71-2.23-.3l-.03-.5c-1.27.88-2.36-.7-3.2.17-1.29.4-.87-1.48-2.21-.5l-.53-.67c-.58-.1-.4.82-1.04.51.03-.42-.81-.32-.44-.73-1.46-.64-2.9.99-4.81-.08-.39.83-1.35.37-1.63,1-.06-.36-1.89,0-.86-.81.09-.07.25-.06.24.08l.11-.49c-1.1-.89-1.93.57-2.99.46.32.15.73.09.46.44l-.98-.03.19-.42-1.46-.19.22.5c-.72-.24-1-1.1-1.78-.35-.35.41.69.66-.05.85-.96-.32-2.39-.8-3.6-.93.13.57-.2.56-.53.68l-.05-.5c-1.27.72-.49-1.08-1.75-.51l.1-.35-.32,1.05c-1.13,1-.63-1.03-1.89.34.5-.09.25,1.09-.37.89l.15-.48c-.34.11-.46.31-.68.21.2-.26.1-.7-.4-.61l.33-.61-.95.89c-.74-.51-1.9.14-2.21-.54,0,0-1.58-.33-1.95.41.32-.46-.55-.64-.3-1.18-.41.52-1.63.94-2.11.38l.09-.06c-1.78-.59-3.08.74-4.67.02.06.58-.78.25-.59.99-1.69.7-3-1.58-3.67.68-.76.1-.88-.56-1.27-.69l.18-.12c-1.43.14-1.84.14-2.9.05-.54.2-.66,1.26-1.6.96.32-.41-.07-.35-.42-.36.23-.05.31-.21-.15-.51-.07.13-.18.2-.27.27,0-.03-.02-.06,0-.1-.6.12-.5.26-.23.33-.02.06,0,.15.08.27-.59-.57-1.71-.05-1.75-.77-1.78.07-3.09.75-4.59.93-.14-.38.22-.69.66-.81l-1.06.07c.04-.54.62-.27.95-.35-1.19-.95-2.63.7-4.03-.2l-.33.4-.08-.08c-.01.22-.36.5-.58.56-.17-.48.1-1.07-.63-1.1-.54-.49-1.64.1-2.41.29.4.11.25.36.06.51-.36-.02-.53-.5-.83-.32l.02-.63c.09.6-1,.56-1.15.8-.17-.48.6-.35.72-.7-1.45-.07-.73-.04-2.18-.1-.82.4.09.61-.33,1.12-.69.06-1.4.43-2.15-.02l.19.58c-1.33.31-2.09.16-2.9-.49-5.03,1.76-5.74,3.22-5.15,4.29.59,1.06,2.46,1.68,2.46,1.68,3.7,1.64,5.85.22,10.44.17"/>
  <path class="cls-1" d="M162.95,49.2l.04.23c0-.11-.02-.2-.04-.23"/>
  <path class="cls-1" d="M167.69,48.75s0-.03,0-.05c0,.02,0,.03,0,.05"/>
  <path class="cls-1" d="M164.29,56.96h0s0,.04,0,.06v-.06Z"/>
  <path class="cls-1" d="M163.28,56.41c.27.26.42,1.34.65.88.13.08.24-.18.35-.32,0-.85.16-.03.17-.74l.06.48c0-.24.02-.41.06-.15v.14c.02-.36.07-.15.08-.33v.14s.05-.07.05-.07v.2c.04-.39.1-.42.17-.25l-.05-.58c.17.64.12-.56.29.19v.14c.03-1.54.3,1.02.33-.44,0,.18.03.3.04.44.05-.17.11-.26.03-1.4.05.01.07.35.1.79-.04-.5-.01-.71.02-.74v.19s.09-.18.09-.18l-.09-.94c.08.27.1,1.15.14.91l-.06-.78c.09.15.22,1.32.34,1.89.33.31.51-1.7.91-.35l.06.59c.07.85-.02-1.27.05-.48v-.39c.02.15.06.31.05.51.03.03.02-.11.03-.37l.07.53c.15.4.18-.63.32-.43.24,1.07.45.05.57-.54.14-1.3.67,2.09.8.61.02.12.02-.15,0-.25l.23.1s1.09.24-.27-6.78v-.18c-.16-.45-.25-.54-.26.41-.1-1.15-.11-.11-.17-.48v-.09c0,.89-.21-.72-.22.07,0-.09-.03-.41-.01-.43-.04.15-.09.41-.15-.26-.11.19-.31-.11-.3.96v-.19c0,.72-.06.11-.08.48,0-.09-.02-.13-.02-.17,0,.72-.13.12-.15.43l-.04-.44-.09.11.04.09c.08,1.22-.13-.76-.14.04-.08-.15.06,2.55-.05,1.96.01.57-.04-.93-.06-.49-.05-.64,0-.4-.06-.91-.03.31-.13-.65-.16-.21l-.04-.5c0,.91-.2-.64-.18.23-.05.42-.17-1.47-.18-.49l-.08-.67c-.04-.11.04.82-.03.5-.03-.42-.08-.33-.08-.74-.14-.65-.11.95-.31-.16.04.82-.06.34-.03.96-.03-.36-.12-.05-.12-.83,0-.06.01-.05.02.09l-.03-.49c-.14-.92-.08.52-.16.38.03.16.05.12.06.45l-.07-.06-.02-.41-.11-.23.05.51c-.07-.26-.15-1.12-.14-.39,0,.4.1.68.06.84-.09-.34-.22-.86-.31-1,.05.57.03.55.02.67l-.04-.5c-.03.7-.11-1.09-.15-.53l-.02-.35.06,1.04c0,.99-.12-1.03-.1.32.03-.09.1,1.09.04.88l-.03-.48c-.01.1,0,.3-.03.21,0-.26-.05-.7-.07-.61l-.02-.6v.89c-.08-.51-.1.14-.18-.53,0,0-.13-.32-.09.42-.02-.46-.09-.63-.11-1.17.01.52-.03.95-.1.4v-.06c-.16-.56-.13.79-.29.11.05.58-.03.27.04,1-.05.74-.31-1.48-.17.8-.04.13-.1-.53-.13-.64v-.12c-.07.19-.1.22-.17.17-.02.22.06,1.28-.02,1.03-.01-.42-.03-.34-.05-.34,0-.07,0-.22-.05-.5,0,.13,0,.21,0,.28,0-.03,0-.06,0-.1-.03.15,0,.28.01.34,0,.06.01.15.03.26-.08-.54-.1.05-.17-.68-.1.18-.12.93-.2,1.22-.04-.37-.04-.7-.03-.85l-.06.14c-.04-.54.01-.31.03-.42-.15-.86-.1.88-.25.09v.42s0-.07,0-.07c.02.22.02.53.01.6-.05-.46-.08-1.07-.13-1.04-.07-.45-.09.23-.11.49.03.08.04.34.04.5-.02.02-.07-.45-.07-.24l-.05-.63c.06.59-.01.64,0,.9-.05-.46,0-.4-.02-.75-.09.07-.04.03-.13.1-.01.48.06.59.07,1.15-.03.13-.04.57-.12.19l.06.55c-.05.44-.1.38-.2-.18-.26,4.59.35,6.21.35,6.21.33,1.22.33-.42.58-.88"/>
  <path class="cls-1" d="M169.33,81.51l-.35.56c.11.01.23-.12.35-.56"/>
  <path class="cls-1" d="M47.93,92.16s-.05-.1-.08-.13c.04.1.06.13.08.13"/>
  <path class="cls-1" d="M155.09,100.91s0-.02.01-.02c0-.05.01-.09,0-.14l-.02.16Z"/>
  <path class="cls-1" d="M163.55,73.01c-.8,3.92-1.61,6.3-2.38,8.7-.77,2.4-1.47,4.83-2.38,8.69-.6,1.79-1.15,3.66-1.78,5.48-.61,1.84-1.24,3.64-1.92,5.01.02.85-.5,1.71-1.09,2.38-.59.67-1.24,1.19-1.73,1.95-.26-.01-.53-.04-.79-.06-.35.5-.93.99-1.62,1.03l-.02-.14c-.7.74-1.88.97-2.3,1.33v-.15c-.4.18-.81.33-1.21.5l.14-.26c-1.63.98-3.45,1.7-5.15,1.99l.31.51c-1.85.23-3.01.73-4.16,1.13-1.15.4-2.25.86-3.97.81v-.15c-1.88,1.19-3.58,1.29-5.3,1.28-.86,0-1.71.03-2.61.15-.9.11-1.85.35-2.89.86.52-.25-.27-.27-.24-.41-1.97.44-4.12.7-4.04,1.85-1.48.14-1.23-.23-1.46-.65.06.5-1.21.8-2.37.92l.52-.23c-1.1.13-2.2.29-3.3.41l.71.91c-1.79-.18-.52-1.12-2.2-.81l.06.78c-2.46-.02-3.94-1.17-6.31-1.68-4.9-.06-10.01.31-15.07.47-5.05.15-10.07.11-14.63-.77l-.37-.61c-.12-.86-2.51,1.12-2.76.29l-1.03.29c-.26-.18-.8-.43-.3-.55-.87-.16-.91-.02-1.58.12-.28-.22-.54-.47-.79-.7-1.56-.55-2.86-.9-4.08-1.4-1.19-.53-2.25-1.21-2.99-2.59-.27-.94-.66-2.08-1.15-3.51-.26-.74-.53-1.52-.8-2.31-.3-.8-.6-1.62-.9-2.44-1.24-3.28-2.49-6.65-3.33-9.15-1.41-3.47-1.54-7.55-1.44-11.56.09-4.03.39-8-.33-11.74.12-.24-.14-.88-.24-.87.05-2.31.26-4.51.38-7.03,0,0,.02-.54.04-1.45.02-.87.04-2.07.07-3.44.02-.67.04-1.36.07-2.06.02-.35.04-.69.06-1.05v-.42c-.01-.3,0-.62,0-.96.02-.34-.01-.74.15-1.06.2-.34.42-.19.59-.22.19-.02.41-.12.6-.28.12-.08.12-.16.37-.29.21-.12.35-.25.44-.38.17-.25.09-.46-.07-.67-.2-.2-.61-.37-1.02-.65-.43-.25-1.2-.76-2.06-1.43-.39-.33-.91-.74-1.54-.58-.59.16-1.04.55-1.46,1.05-.9.96-1.76,2.7-2.55,5.1-.05-.06-.1-.15-.15-.26-.52,2.19-.72,3.79-.75,5.3-.02,1.48.17,2.76.59,4.09-.58.19-.64.95-.62,1.78.03.89.15,1.84-.06,2.3l-.09-.09c.8,2.45-.84,5.04.03,7.4-.09-.09-.41-.13-.45-.67.18,1.72.57,4.05-.09,4.22.2,2.06.4,4.52.74,6.78.35,2.26.87,4.31,1.61,5.51l-.22-.15c.99,1.34.43,1.89,1.13,3.46-.07.11-.09.23-.13.22,1,1.45,1.13,4.61,1.77,5.8l-.41.19c.29,1.04.63,2.07.96,3.09l-.24-1.19c1.29.06-.07,2.57,1.41,4.58.58,2.15,3.77,3.36,4.2,5.64,1,.75-1.28-.48-.13.83-.54.35-.72-.54-.98.09.52.7.74,1.4,1.06,2.15.32.74.76,1.56,1.75,2.24l-.28.42c1.43.77,2.47,1.71,3.54,2.47,1.05.76,2.1,1.37,3.14,1.25,1.46.25,1.83.69,2.26,1.1.42.4.92.75,2.45.48.35.28.7.55,1.05.81,1.24.25.97-.72,2.29-.29-.11.42,1.67.45.86.8,1.51.42,2.99.23,4.57.12,1.59-.11,3.29-.17,5.18.46.86-.79,2.76-.24,3.4-.84.09.36,3.86.17,1.67.89-.19.06-.52.04-.49-.1l-.27.48c2.16,1,3.99-.41,6.15-.22-.64-.18-1.5-.15-.92-.47l2.01.1-.43.41,3.01.26-.41-.51c1.47.27,1.99,1.15,3.65.41.75-.41-1.4-.67.16-.85.99.16,2.22.38,3.52.55,1.31.16,2.69.29,3.95.33-.26-.57.42-.56,1.12-.71l.1.49c2.65-.82,1.04,1.05,3.69.36l-.22.36.64-1.07c2.34-1.16,1.38.93,3.95-.61-1.05.16-.59-1.06.72-.94l-.29.5c.71-.16.93-.4,1.42-.34-.4.3-.16.72.89.53l-.65.67,1.91-1.09c1.6.38,3.97-.63,4.69-.04,0,0,.84-.03,1.77-.17.92-.17,1.93-.44,2.24-.88-.59.57,1.27.43.85,1.05.78-.63,3.22-1.57,4.35-1.25l-.18.1c1.94-.09,3.5-.7,5-1.27,1.51-.54,2.93-1.15,4.69-1.33-.32-.51,1.52-.74.86-1.31,1.58-.88,3.2-1.11,4.54-1.38,1.31-.27,2.35-.72,2.51-2.03,1.48-.8,2.07-.38,2.95-.72l-.32.31c1.45-.89,2.37-1.6,3.17-2.28.8-.68,1.53-1.34,2.4-2.36.65-1.2-.06-1.94,1.24-3.66.02.82.4,0,.76-.71-.18.48-.11.71.62-.12-.05-.19-.02-.43,0-.65.03,0,.08-.02.11.02.41-1.26.19-1.1-.11-.57-.05-.05-.14-.04-.33.08,1.09-1.01,1.37-3.4,2.1-3.28,1.19-3.61,1.26-6.4,1.81-9.44.45-.24.58.55.47,1.46.16-.72.32-1.44.45-2.16.52.16-.02,1.31-.11,1.99,1.55-2.33.54-5.45,1.93-8.26l-.28-.71.1-.16c-.22-.04-.39-.77-.37-1.22.54-.33,1.05.24,1.31-1.25.66-1.09.39-3.37.4-4.94-.22.81-.43.5-.53.12.11-.74.64-1.09.54-1.69l.63.03c-.63.19-.32-2.03-.53-2.34.53-.35.22,1.2.53,1.45.41-2.96.2-1.48.61-4.44-.22-1.65-.63.19-1.06-.64.1-1.41-.13-2.83.5-4.35l-.63.41c-.02-2.68.31-4.2,1.15-5.88-.09-1.28-.24-2.44-.48-3.43-.23-.96-.57-1.92-1.15-2.1-.53-.2-.99.02-1.37.21-.39.21-.68.47-.91.71-.41.49-.7.93-.66,1.25.02.32.28.55.68.71.28.19.65.34.77.52.01.02.03.04.03.06,0,0,0,.03,0,.02v-.31c.01-.19.03-.39.06-.58.01-.17.03-.33.07-.5.1-.62.28-1.03.39-1.2l.06-.09s.03-.03.02-.02c0,0,0,0-.03.03l-.04.02h-.02s0,.01,0,.01c.06-.03-.13.08.13-.08h0s0,0,0,0h-.02c-.16.1-.57.26-1.21.38-.32.06-.74.12-1.18.17-.28.03-.53.05-.77.07-.08,0-.16.02-.24.02h0s-.02.05-.02.05c-.26,1.15-.6,2.5-.88,4.05-.28,1.59-.43,3.13-.52,4.7-.19,3.15-.16,6.48-.69,11.01"/>
  <path class="cls-1" d="M89.73,19.5l.08.23c0-.11-.03-.2-.08-.23"/>
  <path class="cls-1" d="M107.76,18.42s0-.03.01-.05c-.01.02-.01.04-.01.05"/>
  <path class="cls-1" d="M92.93,27.17h0s-.01.04-.01.06l.02-.06Z"/>
  <path class="cls-1" d="M89.27,26.74c.97.23,1.28,1.3,2.25.8.48.06.97-.22,1.42-.37.17-.86.6-.04.82-.77l.13.47c.08-.25.17-.42.27-.16v.14c.12-.37.28-.16.33-.35v.14s.16-.07.16-.07l-.02.2c.21-.4.45-.44.67-.27l-.05-.58c.49.62.58-.59,1.03.16v.14c.43-1.56.87,1,1.32-.48-.06.18.04.3.05.44.24-.18.49-.28.43-1.42.18,0,.16.35.21.79-.03-.5.12-.72.25-.75l-.05.2.39-.19-.13-.94c.23.26.12,1.15.31.91l-.04-.78c.3.14.54,1.31.85,1.87,1.19.27,2.35-1.79,3.52-.48l.08.58c.07.85.23-1.29.32-.49l.11-.4c.04.15.13.31.08.51.12.03.12-.11.19-.38l.15.53c.49.39.82-.66,1.32-.48.65,1.05,1.7,0,2.3-.62.82-1.33,2.05,2.02,2.89.51.04.12.1-.16.09-.26l.85.08s4.08.1.6-6.82v-.19c-.47-.43-.77-.51-1.03.45-.11-1.15-.38-.1-.51-.47v-.09c-.23.9-.61-.7-.84.1,0-.09,0-.41.06-.43-.19.16-.44.43-.5-.24-.46.2-1.13-.07-1.37,1.01v-.19c-.12.73-.21.12-.38.5-.01-.09-.03-.13-.03-.17-.15.72-.54.14-.67.45l-.03-.44-.37.12.14.09c.02,1.22-.32-.75-.55.06-.26-.14-.37,2.57-.67,1.98-.09.58.06-.94-.1-.48-.04-.64.07-.41-.01-.91-.17.31-.34-.64-.54-.19l-.04-.5c-.25.92-.59-.62-.74.25-.28.43-.29-1.46-.55-.47l-.16-.66c-.14-.1-.05.83-.22.51-.01-.42-.21-.33-.14-.73-.38-.64-.64.98-1.15-.12-.05.83-.3.35-.34.97-.03-.36-.46-.03-.24-.83.02-.07.06-.06.06.08v-.49c-.3-.91-.43.53-.69.41.08.16.18.11.13.45l-.24-.05.03-.41-.36-.22.08.51c-.19-.25-.29-1.11-.45-.38-.07.41.2.68.03.85-.25-.33-.62-.84-.92-.97.06.57-.02.55-.1.68l-.04-.5c-.27.71-.17-1.09-.45-.52v-.35s-.02,1.04-.02,1.04c-.22,1-.21-1.02-.44.34.12-.09.12,1.09-.04.89v-.48c-.07.11-.08.31-.14.21.03-.26-.01-.7-.13-.61l.05-.61-.18.9c-.21-.5-.45.16-.56-.52,0,0-.4-.31-.45.44.05-.46-.17-.63-.14-1.17-.07.53-.34.97-.49.42l.02-.06c-.47-.54-.7.82-1.13.15.05.58-.17.27-.08,1.01-.36.75-.82-1.46-.84.83-.18.13-.25-.52-.35-.64l.04-.12c-.33.21-.43.23-.69.2-.11.23-.08,1.29-.32,1.05.05-.43-.04-.34-.12-.34.05-.07.06-.22-.07-.5,0,.13-.03.21-.05.28,0-.03,0-.06,0-.1-.13.16-.1.29-.03.34,0,.07.01.15.04.26-.18-.54-.41.06-.47-.66-.42.19-.69.96-1.03,1.26-.06-.37,0-.7.1-.85l-.25.15c-.03-.54.13-.32.2-.43-.35-.85-.57.9-.97.12l-.05.43-.03-.07c.01.22-.05.53-.1.61-.08-.46-.06-1.07-.23-1.04-.16-.44-.38.25-.55.51.1.07.09.33.05.5-.09.02-.16-.44-.22-.24l-.04-.63c.07.59-.19.65-.21.91-.08-.46.11-.41.12-.76-.35.08-.17.04-.52.12-.16.49.07.59,0,1.15-.16.13-.3.58-.51.21l.09.55c-.29.45-.48.4-.72-.16-2.06,4.68-.15,6.24-.15,6.24.98,1.18,1.36-.47,2.42-.96"/>
  <path class="cls-1" d="M88.59,27.38l-.23-.03c.11.05.21.07.23.03"/>
  <path class="cls-1" d="M114.51,28.23s-.03-.01-.05-.02c.02.02.04.02.05.02"/>
  <path class="cls-1" d="M81.8,35.36s-.04-.05-.05-.07c-.1-.11-.19-.25-.28-.35.1.15.21.28.33.42"/>
  <path class="cls-1" d="M83.27,22.41c-.69.89-1.67,1.44-3.17,2.57.06.61.12,1.27.21,2.02.04.37.09.77.14,1.2.05.4.11,1,.16,1.07-.03.46,0,.93.06,1.4.03.24.05.47.08.71.02.05,0,.4.03,1.02.05.6.18,1.7.98,2.89.45.49,1.03.98,1.63,1.31.6.34,1.17.52,1.63.62.91.19,1.47.16,1.67.18.38.02.77.06,1.09-.28l.23.49c.22-.24.48-.4.69-.13l-.02.14c.33-.36.69-.13.85-.31l-.02.14.39-.05-.07.2c.57-.37,1.15-.38,1.66-.2l-.03-.58c1.08.67,1.51-.52,2.47.27l-.02.14c1.28-1.5,1.95,1.09,3.27-.33-.16.18.06.3.04.44.6-.15,1.23-.22,1.27-1.36.43.03.34.37.39.81,0-.5.39-.7.73-.72l-.16.19.97-.15-.17-.95c.51.28.1,1.15.6.94v-.78c.72.17,1.1,1.36,1.77,1.96,2.84.4,5.95-1.52,8.56-.08l.1.59c.01.43.21.12.4-.2.07-.16.24-.32.38-.39.13-.07.23-.05.28.15l.49-.38c.15.16.49.33.24.52.5.04.49-.1.78-.35.2.18.42.36.64.55,1.05.23,1.95.1,2.75-.06.82-.16,1.55-.35,2.62-.22.63.22,1.3.37,2,.46.13-1.12-.03-2.79-.28-4.35-.25-1.57-.59-3.02-.86-4.04-.17-.46-.27-.89-.31-1.32-.05-.54-.03-.55.02-1.04.08-.89.36-1.88.5-2.93.13-1.04.1-2.03-.34-2.9-.45-.87-1.25-1.47-2.25-1.58-.02-.16-.47-.06-.52.03-.93-.47-2.03-.78-3.12-1.06,0,0-.25-.06-.68-.13-.2-.03-.5-.08-.72-.1-.2-.02-.42-.04-.65-.05-.94-.04-2.11.07-2.98.47-.88.4-1.42,1.06-1.23,2.02.16.97,1.09,2.21,2.58,4.1l-.06.18c.46.27.81.45,1.16.46.21.02.24-.05.35-.14.1-.1.22-.25.38-.46-.15.56-.09.6.03.56.12-.04.31-.17.26.01l-.06.08c.37-.37.44-.16.42.05,0,.21-.1.41.35.18-.09.07-.37.31-.42.3.26-.06.6.03-.06.45.12.09.08.3.16.44.04.08.11.15.24.22.06.04.14.07.24.11l.16.06c.06.04.12.09.19.14l-.19-.04c.37.18.4.36.38.44-.02.07-.08.12.11.25-.09,0-.13.02-.17.01.36.13.39.33.38.48-.02.16-.09.29.07.44l-.45-.17.12.46.09-.11c.62.34.43.35.18.33-.25-.01-.55-.11-.14.33-.06.07.35.5.82,1.06.47.56,1.01,1.26,1.21,1.67,0,.09-.11.1-.33-.02.3.58-.68-.95-.61-.5-.6-.65-.23-.41-.79-.93-.02.3-.96-.68-.9-.24l-.36-.51c.15.46-.17.29-.39.11-.24-.18-.41-.35-.36.08-.12.2-.3-.17-.43-.47-.14-.3-.2-.53-.27-.05-.07-.23-.13-.45-.18-.68-.09-.11-.03.82-.19.49.03-.42-.45-.35-.23-.75-.81-.68-1.7.9-2.75-.24-.26.82-.79.32-.98.93-.02-.36-1.09-.08-.46-.85.05-.06.15-.05.14.09l.08-.49c-.6-.94-1.14.48-1.75.33.18.17.42.13.25.46l-.57-.08.13-.41-.84-.26.1.51c-.41-.27-.54-1.14-1.02-.43-.22.4.38.7-.06.85-.55-.36-1.37-.9-2.07-1.07.05.57-.14.55-.34.66v-.5c-.78.67-.26-1.1-1.02-.57l.07-.35-.22,1.03c-.7.97-.34-1.04-1.12.29.3-.08.11,1.1-.25.88l.1-.48c-.2.1-.28.3-.41.19.13-.26.08-.7-.22-.62l.21-.6-.58.87c-.42-.53-1.12.1-1.28-.58,0,0-.92-.35-1.15.38.2-.46-.31-.65-.15-1.18-.25.52-.97.93-1.25.36l.05-.06c-1.04-.59-1.82.73-2.75.02.03.58-.46.25-.36.99-.99.71-1.75-1.54-2.15.73-.45.11-.51-.55-.74-.67l.11-.12c-.84.17-1.08.18-1.7.12-.04.03-.04.07-.05.12v.04s-.01.11-.01.11c-.01.18-.02.36-.03.55-.04.54-.07.83-.11,1.11-.05.48-.26.92-.29.91,0,0,0,0,0,0-.01.01.01-.03.2-.08-.11.03-.13.05-.13.05.02,0,.01-.03.35-.09.1-.02.3-.04.59-.05.01,0,.08,0,.05,0,.15,0,.28,0,.41,0,.18,0,.35,0,.51.01.17,0,.32.01.46.02h-.03s-.06-.03-.09-.04c-.07-.01-.07.03-.18.02-.14,0-.32,0-.6-.02.17,0,.32,0,.46.01.03,0,.05,0,.07-.02.04-.01.07-.07.09-.13.04-.12.05-.25.07-.36.03-.23.07-.42.43-.43-.06-.59-.28-1.09-.53-1.55-.13-.23-.25-.46-.37-.68l-.09-.17s-.05-.05-.08-.09c-.05-.06-.1-.13-.14-.2.37-.04.71.1.86.21l-.15-.31c.54.06.32.19.43.27.34-.12.27-.21.1-.37-.17-.15-.43-.36-.46-.53-.01-.08.04-.14.19-.15l-.45-.27h.07c-.23-.09-.57-.35-.66-.47.48.18,1.14.57,1.08.38.46.16-.31-.52-.65-.99-.06.05-.36-.19-.55-.39-.05-.15.46.21.21-.06l.71.58c-.51-.41-.52-.5-.55-.63-.01-.05-.03-.11-.09-.18.33.26.34.34.38.43.03.06.06.13.21.26.05,0,.09,0,.07-.01.24-.02.15-.01.46-.07-.16-.46-.56-.55-.89-1.08.16-.13.17-.57.76-.24l-.46-.52c.36-.47.9-.46,1.48.06.37-.6.86-1.17,1.29-1.67.43-.49.71-.95,1.22-1.27.13-.08.26-.15.38-.22.13-.06.13-.16.2-.23.1-.16.17-.31.23-.46.11-.3.13-.59.11-.85-1-.77-1.63-1.05-2.11-1.29-.11-.05-.22-.09-.31-.14-.1-.04-.26-.07-.36-.09-.22-.03-.35-.06-.35-.06-.99-.21-1.92-.25-2.76-.21-.42.02-.84.05-1.23.11-.25-.06-.27.25-.34.48-.07.23-.13.46-.19.7-.05.28-.17.34-.26.48-.09.13-.19.26-.28.39-.16.23-.33.47-.51.71-.31.44-.63.85-.95,1.17-.07.07-.14.14-.2.18-.07.05-.1.18-.15.27"/>
  <path class="cls-1" d="M94.38,37.34l-.23.02c.11,0,.2,0,.23-.02"/>
  <path class="cls-1" d="M93.95,48s.03,0,.05.01c-.02,0-.03-.01-.05-.01"/>
  <path class="cls-1" d="M86.47,38.54h0s-.04,0-.06-.02l.06.02Z"/>
  <path class="cls-1" d="M87.27,36.04c-.39.85-1.46,1.03-1.05,1.63-.1.28.13.59.25.87.84.17,0,.36.7.55l-.48.04c.24.06.4.14.14.18h-.14c.36.09.14.17.32.21h-.14s.06.09.06.09l-.2-.03c.38.16.4.3.21.42l.58.02c-.66.24.54.39-.24.6h-.14c1.51.37-1.07.42.37.81-.18-.05-.3,0-.44,0,.16.15.24.31,1.38.37-.02.1-.36.07-.8.06.5.02.7.12.73.21l-.19-.05.16.24h.94c-.28.11-1.15-.02-.93.11l.78.04c-.16.17-1.35.21-1.93.35-.37.68,1.59,1.53.18,2.11h-.59c-.86-.03,1.26.24.47.23l.39.09c-.15.01-.32.05-.51,0-.04.07.1.08.36.14l-.54.05c-.43.26.59.54.37.82-1.1.3-.14,1,.43,1.41,1.25.59-2.19,1.05-.75,1.66-.12.01.15.07.25.08l-.15.49s-.44,2.4,6.74.9l.18.02c.47-.25.58-.42-.36-.65,1.15.03.13-.22.51-.27h.09c-.88-.2.75-.3-.03-.49.09.01.41.03.42.07-.14-.12-.39-.3.28-.27-.16-.29.17-.66-.89-.89l.19.02c-.72-.14-.1-.14-.46-.27.09,0,.13,0,.17,0-.71-.15-.1-.33-.4-.43l.44.02-.09-.23-.1.08c-1.22-.09.78-.13,0-.33.16-.14-2.53-.43-1.92-.55-.57-.1.93.11.49-.02.64.03.4.07.91.07-.3-.12.66-.15.24-.3l.5.02c-.9-.22.67-.3-.19-.46-.4-.2,1.48-.05.52-.29l.68-.04c.11-.08-.82-.1-.49-.17.42.03.34-.1.74-.03.67-.17-.92-.46.21-.67-.82-.1-.32-.21-.94-.28.36.01.07-.27.84-.08.06.02.05.04-.09.03l.49.04c.93-.11-.49-.3-.35-.44-.16.04-.12.1-.46.04l.07-.14.41.05.25-.2h-.51c.27-.09,1.13-.08.42-.23-.4-.07-.69.06-.85-.05.35-.12.89-.3,1.05-.47-.57-.01-.55-.06-.66-.11l.5.02c-.68-.22,1.1-.01.56-.22l.35.03-1.04-.1c-.98-.21,1.04-.04-.3-.29.08.08-1.1-.02-.88-.1l.48.04c-.1-.05-.3-.08-.2-.11.26.04.7.05.62-.03l.6.08-.88-.18c.52-.08-.12-.28.56-.29,0,0,.34-.21-.4-.3.46.07.64-.05,1.18.01-.52-.08-.94-.28-.38-.32l.06.02c.58-.23-.76-.48-.06-.68-.58-.02-.26-.12-1-.13-.72-.27,1.52-.37-.75-.56-.12-.11.54-.1.66-.15l.12.03c-.18-.21-.2-.27-.14-.42-.22-.09-1.28-.15-1.01-.27.42.06.34,0,.35-.05.07.04.22.05.51,0-.13-.02-.21-.03-.28-.05.03,0,.06,0,.1,0-.15-.09-.28-.08-.34-.05-.07,0-.15,0-.26,0,.55-.06-.03-.25.7-.22-.16-.26-.9-.48-1.17-.71.37,0,.7.06.84.13l-.13-.16c.54.03.3.1.41.15.88-.14-.85-.41-.04-.53l-.42-.06h.07c-.22-.02-.53-.08-.6-.11.47.01,1.07.08,1.05,0,.45-.02-.21-.17-.45-.27-.08.02-.34-.02-.5-.05-.01-.04.45,0,.26-.04l.62.09c-.59-.08-.62-.17-.87-.22.46.07.39.11.74.17-.04-.1-.02-.05-.06-.15-.45-.16-.58-.12-1.11-.28-.11-.09-.51-.28-.12-.26l-.54-.13c-.37-.27-.26-.36.31-.26-.93-.64-1.65-1.27-2.3-1.72-.65-.46-1.24-.74-1.7-.93-.98-.33-1.61-.02-1.61-.02-.8.23-.87.7-.7,1.19.09.25.23.51.37.79.14.29.27.59.34.87"/>
  <path class="cls-1" d="M114.58,34.89l-.23.07c.11-.02.2-.04.23-.07"/>
  <path class="cls-1" d="M116.07,44.92s.03,0,.05,0c-.02,0-.04,0-.05,0"/>
  <path class="cls-1" d="M107.03,37.52h0s-.04,0-.06,0h.06Z"/>
  <path class="cls-1" d="M107.37,35.41c-.21.57-1.26.86-.75,1.35-.05.27.24.52.4.76.85,0,.06.34.78.38l-.47.12c.25.02.42.05.17.14l-.14.02c.37.02.17.14.35.15l-.14.02.07.08h-.2c.4.09.44.22.29.36l.57-.09c-.61.34.6.27-.13.6l-.14.02c1.56.07-.97.6.51.69-.18-.01-.29.06-.43.07.18.11.29.25,1.42.09,0,.1-.34.13-.78.2.49-.07.71-.01.75.06h-.2s.2.19.2.19l.93-.18c-.25.16-1.13.19-.89.27l.77-.11c-.13.18-1.29.45-1.84.68-.24.7,1.83,1.13.56,1.93l-.58.11c-.85.13,1.28,0,.5.12l.4.02c-.15.04-.31.11-.5.1-.02.07.12.05.38.06l-.52.15c-.37.32.68.39.51.69-1.03.48.04.95.67,1.23,1.34.32-1.96,1.37-.44,1.68-.12.03.16.04.26.02l-.05.48s0,2.31,6.79-.4h.19c.41-.33.49-.51-.47-.55,1.14-.19.09-.23.45-.34h.09c-.9-.04.68-.43-.12-.47.09,0,.41-.05.43-.02-.16-.09-.43-.2.23-.3-.21-.24.05-.65-1.04-.66h.18c-.73-.01-.12-.12-.5-.18.09-.02.13-.03.17-.04-.72,0-.15-.29-.47-.33l.44-.07-.13-.19-.08.09c-1.22.14.74-.26-.07-.3.13-.16-2.56.07-1.99-.16-.58,0,.93-.07.48-.11.63-.09.4,0,.9-.1-.31-.06.62-.26.18-.32l.49-.07c-.92-.04.6-.4-.27-.39-.43-.11,1.45-.32.46-.36l.66-.16c.1-.09-.82.06-.51-.07.42-.05.32-.15.72-.16.63-.28-.99-.25.09-.66-.82.06-.36-.13-.97-.09.35-.06.02-.26.81-.23.07,0,.06.03-.08.04l.49-.05c.89-.27-.54-.19-.42-.35-.15.07-.1.12-.44.12l.05-.14.41-.03.21-.23-.5.1c.24-.13,1.1-.29.37-.29-.41,0-.67.19-.84.11.33-.18.82-.44.95-.62-.57.1-.55.05-.67.02l.49-.07c-.71-.08,1.08-.22.51-.31l.35-.03-1.04.1c-1-.02,1.01-.23-.35-.21.09.06-1.08.18-.88.07l.48-.05c-.11-.03-.31-.02-.21-.06.26,0,.7-.08.6-.14l.6-.04h-.89c.5-.18-.17-.24.5-.38,0,0,.3-.26-.44-.21.46-.02.62-.16,1.16-.2-.53.02-.97-.09-.43-.23h.06c.53-.32-.83-.3-.18-.61-.57.09-.28-.07-1,.06-.75-.12,1.43-.62-.84-.38-.14-.09.51-.2.62-.27h.12c-.21-.16-.24-.21-.21-.36-.23-.04-1.28.1-1.05-.07.42-.02.34-.06.33-.11.07.02.22,0,.5-.09-.13.01-.21,0-.28,0,.03,0,.06-.01.1-.02-.16-.06-.29-.03-.34.02-.06,0-.15.02-.26.05.53-.16-.07-.23.65-.34-.2-.22-.97-.28-1.27-.44.37-.07.7-.07.85-.04l-.15-.12c.53-.07.32.04.43.07.84-.29-.9-.22-.15-.53l-.43.02.07-.02c-.22.03-.53.03-.61.01.46-.09,1.07-.15,1.02-.24.43-.14-.25-.19-.52-.25-.07.07-.33.08-.5.08-.02-.05.44-.14.23-.15l.62-.09c-.58.1-.65-.04-.91-.02.46-.09.41.02.76-.02-.08-.19-.04-.09-.13-.28-.49-.04-.59.1-1.14.13-.13-.08-.58-.1-.22-.26l-.55.11c-.45-.11-.4-.23.14-.42-4.69-.66-6.2.59-6.2.59-1.15.68.5.71,1.01,1.26"/>
  <path class="cls-1" d="M115.5,39.79l.2.14c-.07-.08-.14-.15-.2-.14"/>
  <path class="cls-1" d="M130.16,24.81s-.01-.03-.02-.05c0,.02.01.04.02.05"/>
  <path class="cls-1" d="M123.07,43.71h0s.01.04.02.06l-.02-.06Z"/>
  <path class="cls-1" d="M118.95,46.2c1.18-.51,2.11.12,2.87-1.04.53-.34.87-.96,1.25-1.45-.34-.82.57-.54.34-1.28l.42.27c-.08-.26-.09-.47.17-.36l.09.11c-.12-.38.17-.35.1-.54l.09.11.11-.19.11.17c-.04-.48.15-.71.46-.77l-.42-.4c.86.07.16-.94,1.07-.75l.1.1c-.63-1.53,1.45,0,.87-1.48.07.18.24.18.34.28.09-.33.25-.63-.57-1.41.16-.15.38.12.72.4-.36-.34-.39-.62-.29-.77l.09.19.21-.47-.75-.57c.37,0,.88.74.89.4l-.57-.53c.35-.15,1.36.5,2.02.64,1.21-.83.75-3.29,2.64-3.34l.47.35c.65.56-.71-1.11-.08-.62l-.19-.37c.14.07.32.11.42.3.12-.08.02-.18-.11-.43l.5.25c.67-.13.22-1.17.76-1.45,1.26.22,1.39-1.39,1.48-2.32-.21-1.66,3.07-.11,2.76-1.86.11.06-.02-.19-.09-.26l.76-.57s.22-.19.44-.5c.22-.31.44-.75.43-1.29-.03-1.06-.84-2.61-4.64-3.96l-.11-.15c-.74.05-1.08.23-.71,1.19-.84-.79-.42.24-.77.06l-.06-.08c.37.88-1.04-.02-.72.78-.05-.07-.27-.3-.23-.37-.07.28-.12.69-.61.24-.28.54-1.08.91-.56,1.91l-.12-.15c.38.65-.11.27,0,.69-.07-.05-.12-.07-.14-.1.36.66-.37.56-.28.9l-.33-.29-.24.4.19-.06c.86.88-.8-.27-.44.51-.32.12,1.46,2.18.81,2,.32.5-.6-.73-.42-.26-.48-.43-.22-.35-.64-.65.08.37-.73-.17-.59.32l-.38-.33c.43.87-.93.06-.45.81.06.55-1.26-.81-.79.13l-.6-.34c-.19.05.53.64.17.55-.31-.29-.4-.06-.63-.4-.76-.14.15,1.24-1.04.88.54.64,0,.51.4.99-.28-.23-.4.36-.78-.39-.03-.06,0-.09.11,0l-.34-.35c-.89-.39.01.74-.29.87.18.04.23-.07.42.21l-.23.16-.27-.32-.45.14.42.3c-.33-.03-1.02-.56-.63.09.23.35.63.32.61.59-.44-.03-1.09-.09-1.43.05.44.37.36.42.39.57l-.37-.33c.26.73-.89-.65-.73-.02l-.23-.26.7.78c.5.91-.87-.58-.13.6.04-.16.84.7.57.68l-.32-.36c0,.14.13.3.01.28-.15-.22-.49-.5-.52-.35l-.37-.48.46.8c-.51-.21-.27.47-.82.06,0,0-.54.08-.08.67-.27-.39-.56-.34-.9-.76.29.44.37.99-.12.69l-.03-.06c-.74-.06-.04,1.13-.84.95.42.4.03.34.59.83.18.86-1.63-.53-.18,1.25-.07.23-.55-.22-.7-.24l-.05-.12c-.16.4-.22.49-.47.65.04.26.74,1.07.37,1.05-.22-.37-.24-.24-.32-.18,0-.09-.08-.22-.37-.35.07.11.11.19.13.25-.02-.02-.04-.04-.07-.08-.02.22.08.3.18.29.04.05.1.11.19.18-.49-.3-.33.33-.82-.21-.26.43-.03,1.24-.18,1.71-.27-.26-.4-.58-.4-.76l-.14.28c-.33-.42-.07-.34-.07-.48-.8-.47,0,1.1-.81.72l.19.39-.06-.04c.14.18.25.47.25.57-.33-.34-.65-.86-.78-.72-.39-.26-.21.45-.23.76.14,0,.26.23.32.39-.07.07-.39-.28-.33-.07l-.38-.51c.38.46.16.67.28.9-.31-.35-.11-.41-.29-.72-.28.27-.14.13-.42.4.1.51.37.47.6.98-.08.21,0,.68-.38.49l.36.43c-.06.56-.29.62-.8.27.05,2.65.62,4.11,1.31,4.85.68.74,1.43.77,1.43.77.85.2,1.23-.14,1.48-.67.24-.54.38-1.27.84-1.86"/>
  <path class="cls-1" d="M140.17,17.59l.14.24c0-.11-.04-.2-.14-.24"/>
  <path class="cls-1" d="M170.78,20.34s.02-.03.03-.05c-.02.02-.03.03-.03.05"/>
  <path class="cls-1" d="M144.16,25.89h0s-.02.03-.04.05l.05-.05Z"/>
  <path class="cls-1" d="M139.29,24.85c.43.08.75.43,1.07.69.33.27.66.45,1.4.32.66.18,1.6.06,2.41.04.49-.79,1.04.13,1.58-.52l.11.5c.18-.22.38-.36.5-.08l-.03.14c.28-.33.51-.08.64-.25l-.03.14.29-.03-.07.19c.45-.33.86-.31,1.2-.09l.04-.58c.69.74,1.12-.42,1.73.42l-.03.14c1.05-1.42,1.28,1.2,2.35-.15-.13.17.02.3,0,.44.44-.12.89-.16,1.02-1.29.3.05.21.38.21.82.05-.5.34-.68.57-.68l-.13.18.7-.1-.04-.95c.33.3-.02,1.15.34.96l.07-.78c.48.2.66,1.41,1.09,2.03,1.99.53,4.32-1.28,6.09.23l.04.59c-.02.86.61-1.23.63-.43l.25-.38c.05.16.17.33.05.51.2.05.21-.09.38-.34l.18.55c.77.47,1.52-.52,2.35-.26.95,1.14,2.92.24,4.04-.3,1.57-1.22,3.29,2.24,4.92.8.05.12.19-.15.19-.25l1.46.13s1.78.09,2.86-.75c1.1-.82,1.4-2.52-1.23-6.03l.03-.19c-.77-.45-1.24-.55-1.77.39-.08-1.15-.63-.12-.8-.49l.02-.09c-.48.88-.95-.75-1.41.04.02-.09.03-.41.14-.42-.33.14-.78.39-.79-.28-.79.15-1.86-.18-2.4.87l.04-.18c-.31.71-.37.09-.71.45-.01-.09-.04-.13-.03-.17-.34.7-.92.08-1.18.37v-.45s-.62.08-.62.08l.23.11c-.14,1.22-.44-.79-.93-.02-.41-.17-.99,2.5-1.4,1.88-.24.56.24-.92-.1-.5.02-.64.17-.39.12-.9-.33.28-.47-.68-.87-.27v-.5c-.54.88-.88-.71-1.26.14-.54.38-.24-1.5-.84-.56l-.16-.68c-.22-.12-.22.81-.45.47.04-.42-.29-.36-.12-.75-.52-.7-1.23.86-1.89-.32-.23.81-.57.29-.74.9,0-.36-.75-.12-.26-.86.04-.06.1-.04.09.09l.09-.48c-.35-.95-.82.44-1.23.26.11.17.28.15.14.47l-.39-.1.12-.4-.56-.29.03.52c-.26-.29-.28-1.16-.67-.47-.18.39.21.71-.11.84-.35-.38-.87-.96-1.35-1.16,0,.58-.14.54-.29.65l.03-.5c-.59.64-.08-1.11-.65-.61l.08-.34-.24,1.02c-.56.93-.15-1.05-.8.23.21-.06-.02,1.1-.25.86l.11-.47c-.15.09-.22.28-.3.17.11-.25.12-.69-.1-.63l.2-.58-.48.84c-.24-.54-.78.05-.83-.64,0,0-.6-.4-.83.32.18-.44-.15-.66,0-1.19-.22.5-.76.87-.89.3l.04-.06c-.66-.64-1.33.62-1.89-.14-.04.58-.35.22-.35.97-.76.65-1.03-1.64-1.57.59-.32.08-.29-.58-.44-.71l.09-.11c-.6.11-.77.11-1.18,0-.24.19-.42,1.24-.76.93.18-.4.01-.34-.13-.36.1-.05.15-.2,0-.51-.04.13-.1.2-.14.26,0-.03,0-.06,0-.1-.26.12-.24.25-.13.32-.01.06-.02.15,0,.27-.17-.57-.69-.06-.62-.78-.74.07-1.4.73-2.07.93-.03-.38.16-.69.37-.81l-.49.08c.06-.53.31-.28.46-.37-.49-.93-1.26.73-1.93-.08l-.16.42-.04-.07c0,.22-.16.53-.27.6-.1-.46,0-1.08-.37-1.04-.32-.45-.87.27-1.23.57.22.05.18.32.12.49-.18.04-.35-.41-.48-.18l-.12-.62c.17.57-.41.73-.41,1-.22-.43.21-.46.2-.81-.8.24-.41.11-1.19.4-.26.59.26.54.25,1.13-.3.24-.42.75-.93.59l.36.45c-.35.66-.61.76-1.3.57-.21,1.64.44,2.61,1,3.18.57.59,1.08.95,1.58,1.07.88.42,1.21.69,1.21.69.48.4.26.44.23.1-.07-.31-.03-.89.35-1.17"/>
  <path class="cls-1" d="M121.57,22.84h.3c-.08-.06-.18-.08-.3,0"/>
  <path class="cls-1" d="M164.99,12.08s.03-.03.05-.05c-.03.02-.04.03-.05.05"/>
  <path class="cls-1" d="M132.11,22.61h0s0,.05.01.08v-.08Z"/>
  <path class="cls-1" d="M125.65,29.19c1.82-1.72,3.07-1.54,4.34-3.72.83-.84,1.46-1.94,2.12-2.86-.26-.96.98-1.09.9-2.02l.51.16c-.03-.32.03-.62.37-.59l.09.11c-.03-.48.38-.58.36-.82l.09.11.23-.32.09.19c.12-.67.54-1.06,1.02-1.28l-.42-.4c.3-.07.5-.18.65-.32.06-.06.16-.17.15-.2v-.12c-.01-.15.06-.36.34-.09l.06.14c-.15-.63.02-.77.15-.63.13.17.24.43.32.53.09.1.13.05.32-.37-.07.17-.02.3-.05.44.02-.02.05-.03.06-.05,0,0,0-.02.02-.03h.13c.17-.02.34-.05.49-.11.3-.12.54-.39.66-.95.47.11.32.43.3.87.09-.49.55-.61.93-.58l-.21.16h1.1s-.06-.95-.06-.95c.51.36-.04,1.16.54,1.02l.11-.77c.75.27,1.04,1.5,1.75,2.17,3.19.71,6.63-1.12,9.39.37l.1.59c.02.86.83-1.24.91-.44l.34-.38c.08.16.27.33.1.51.3.05.31-.09.54-.34l.3.55c1.18.46,2.24-.52,3.49-.26,1.47,1.15,4.35.27,6.01-.25,2.36-1.18,4.9,2.34,7.31.97.07.12.28-.14.28-.24l2.15.21s10.45.76,2.79-6.67l.06-.18c-1.16-.5-1.9-.63-2.76.27-.08-1.16-.97-.16-1.23-.54l.03-.09c-.76.86-1.46-.8-2.18-.03.03-.09.06-.41.22-.42-.51.12-1.21.35-1.23-.32-1.22.13-2.89-.25-3.71.78l.06-.18c-.47.7-.58.08-1.08.43-.02-.09-.06-.14-.05-.17-.51.69-1.41.05-1.81.34v-.44s-.97.06-.97.06l.35.11c-.17,1.22-.69-.8-1.42-.03-.64-.18-1.42,2.49-2.07,1.86-.35.56.32-.92-.18-.5.01-.64.24-.39.14-.9-.48.28-.75-.68-1.35-.28v-.5c-.8.88-1.41-.71-1.95.13-.8.38-.47-1.5-1.32-.56l-.29-.69c-.35-.12-.28.81-.66.47.04-.42-.47-.36-.23-.75-.84-.7-1.81.87-2.89-.31-.29.81-.83.29-1.05.9-.01-.36-1.13-.13-.45-.87.06-.06.15-.04.14.1l.11-.48c-.58-.96-1.18.43-1.8.25.17.17.42.15.23.47l-.58-.11.15-.4-.84-.31.08.52c-.4-.29-.46-1.18-1-.5-.25.38.33.72-.13.84-.53-.4-1.29-1.01-1.96-1.26-.01.58-.2.53-.4.62l.05-.5c-.83.58-.11-1.12-.9-.69l.12-.33-.35,1c-.82.86-.17-1.07-1.12.12.3-.03-.06,1.11-.38.82l.18-.46c-.21.06-.32.25-.43.12.17-.23.2-.67-.1-.65l.31-.55-.71.76c-.08-.15-.18-.23-.3-.28-.03-.01-.05-.02-.1-.03l-.19-.04c-.12-.03-.23-.05-.34-.07-.44-.1-.82-.21-.96-.6,0,0-.43-.2-.91-.32-.48-.12-1-.16-1.12.19.27-.4-.71-.86-.55-1.38-.08.09-.19.17-.33.22-.41.76-1.04,1.52-1.56,1.36l.06-.13c-.93.39-1.57,1.13-2.11,1.84-.14.18-.28.35-.41.52-.15.18-.17.23-.28.34-.18.18-.4.32-.72.38.43.39-.21.55.4,1-.31,1.27-2.51.33-1.19,2.23-.27.43-.8.04-1.06.14v-.17c-.51.8-.69,1.01-1.2,1.48-.07.41.68,1.16.08,1.43-.18-.43-.29-.19-.44-.03.05-.15-.04-.29-.45-.26.07.12.09.22.09.31-.03-.02-.05-.03-.08-.06-.14.38,0,.42.16.33.04.05.11.09.24.13-.67-.07-.69.84-1.27.4-.62.97-.58,2.06-.96,2.95-.35-.16-.46-.54-.4-.84l-.32.59c-.41-.35,0-.49.06-.71-1.18.04-.39,1.8-1.58,1.98l.2.42h-.09c.17.14.28.49.25.64-.44-.2-.82-.7-1.09-.34-.57-.02-.48.92-.58,1.43.22-.14.37.09.42.28-.13.18-.57-.02-.53.24l-.49-.39c.51.32.11.86.25,1.09-.44-.21-.08-.53-.31-.8-.54.71-.27.36-.8,1.07.05.67.51.32.78.86-.18.4-.12,1-.73,1.11l.52.26c-.2.88-.57,1.2-1.35,1.21-.34,3.71.46,5.06,1.49,5.44,1.02.37,2.19-.26,2.19-.26,2.62-.99,2.26-3.06,3.76-5.5"/>
  <path class="cls-1" d="M182.72,9.83l-.23.04c.11,0,.2,0,.23-.04"/>
  <path class="cls-1" d="M182.64,20.04s.03,0,.05.01c-.02,0-.03,0-.05-.01"/>
  <path class="cls-1" d="M174.86,11.27h0s-.04,0-.06-.01h.06Z"/>
  <path class="cls-1" d="M175.52,9.22c-.29.54-1.38.66-.95,1.23-.09.27.15.55.28.82.84.14,0,.34.71.5l-.48.05c.24.05.4.12.14.16h-.14c.36.07.14.16.32.2h-.14s.06.09.06.09l-.2-.02c.38.14.41.27.23.39h.58c-.65.24.55.36-.22.58h-.14c1.53.31-1.05.44.4.76-.18-.04-.3.01-.44,0,.16.14.25.29,1.39.31-.02.1-.36.08-.8.08.5,0,.71.1.74.18l-.19-.04.17.23.94-.03c-.27.11-1.15.01-.92.13h.78c-.16.17-1.34.25-1.92.4-.34.66,1.64,1.41.25,2l-.59.02c-.86,0,1.27.19.47.2l.39.08c-.15.02-.32.06-.51.02-.03.07.11.07.36.12l-.53.06c-.42.26.61.5.39.77-1.09.32-.1.96.47,1.33,1.27.53-2.15,1.06-.69,1.6-.12.01.15.06.25.06l-.13.47s-.36,2.29,6.77.66l.18.02c.46-.25.56-.42-.38-.61,1.15-.01.12-.21.5-.27h.09c-.88-.17.74-.31-.05-.47.09,0,.41.02.43.05-.14-.11-.4-.27.27-.27-.17-.27.14-.63-.92-.82h.19c-.72-.1-.11-.11-.47-.23.09,0,.13-.01.17-.01-.71-.12-.11-.31-.41-.4h.45s-.1-.21-.1-.21l-.1.08c-1.22-.05.77-.15-.02-.31.16-.14-2.54-.33-1.94-.47-.57-.08.93.08.49-.03.64,0,.4.06.91.04-.3-.11.65-.16.23-.29h.5c-.91-.18.66-.3-.21-.43-.41-.18,1.48-.09.51-.29l.67-.06c.11-.08-.82-.07-.5-.15.42.01.34-.1.74-.05.67-.18-.93-.41.19-.64-.82-.07-.33-.19-.95-.24.36,0,.06-.26.84-.1.06.01.05.03-.09.03l.49.03c.92-.13-.5-.27-.36-.41-.16.04-.12.1-.46.05l.07-.13.41.03.24-.19-.51.02c.26-.09,1.13-.11.41-.23-.4-.06-.69.08-.85-.02.35-.12.88-.31,1.03-.47-.57,0-.55-.04-.67-.09h.5c-.69-.18,1.1-.04.55-.23l.35.02-1.04-.06c-.98-.17,1.03-.07-.31-.27.08.07-1.1.02-.88-.07l.48.03c-.1-.05-.3-.07-.2-.1.26.03.7.03.62-.04l.6.06-.88-.15c.52-.09-.13-.26.55-.29,0,0,.34-.21-.41-.27.46.05.64-.07,1.18-.02-.52-.07-.95-.24-.39-.3h.06c.57-.22-.77-.42-.08-.63-.58,0-.26-.11-1-.09-.73-.24,1.51-.39-.77-.51-.12-.11.54-.11.66-.17l.12.03c-.18-.2-.21-.26-.15-.4-.22-.07-1.28-.1-1.02-.23.42.05.34,0,.34-.05.07.03.22.04.5-.02-.13-.01-.21-.03-.28-.04.03,0,.06,0,.11,0-.15-.08-.28-.07-.34-.04-.06,0-.15,0-.26,0,.55-.08-.03-.24.69-.23-.16-.25-.91-.43-1.19-.64.37-.02.7.04.85.1l-.13-.15c.54.01.31.09.41.13.87-.16-.86-.37-.06-.55l-.42-.05h.07c-.23-.01-.53-.06-.6-.09.47-.02,1.08.02,1.05-.08.45-.07-.22-.23-.47-.33-.08.05-.34.03-.5,0-.01-.05.45-.07.25-.11h.63c-.59.02-.64-.14-.9-.16.47-.02.4.08.75.1-.06-.2-.03-.1-.08-.3-.47-.11-.59,0-1.15-.05-.12-.1-.56-.19-.18-.3l-.56.03c-.43-.18-.37-.29.2-.4-4.53-1.38-6.22-.38-6.22-.38-1.25.5.38.79.81,1.41"/>
  <path class="cls-1" d="M183.27,20.08l.13.22c-.04-.1-.08-.19-.13-.22"/>
  <path class="cls-1" d="M181.6,6.41s-.01.03-.02.05c.01-.02.02-.03.02-.05"/>
  <path class="cls-1" d="M191.95,24.78h0s.01.05.02.08l-.02-.08Z"/>
  <path class="cls-1" d="M183.38,27.3l.13.02h.22c.15.03.29.04.42.05.27.03.53.07.78.12.51.1.98.19,1.43.28.93.17,2.04.18,3.05-.51.57-.2,1.05-.54,1.48-.97.42-.42.8-.98,1.05-1.5-.4-.95.64-1.25.12-2.24.17,0,.34,0,.51,0-.18-.34-.31-.66-.03-.79l.14.07c-.32-.5-.1-.81-.28-1.06l.14.06-.07-.46.2.13c-.4-.76-.45-1.37-.29-1.94h-.58c.31-.54.16-1.07.03-1.31-.13-.22-.24-.44.13-.76h.14c-1.55-.73,1.01-1.26-.46-2.02.18.1.3-.05.44-.05-.18-.36-.27-.76-1.41-.73,0-.27.35-.23.79-.28-.5.01-.71-.21-.75-.42l.2.09-.19-.6-.94.14c.26-.33,1.15-.11.91-.41l-.78.02c.14-.45,1.32-.74,1.88-1.18.07-.45,0-.9-.13-1.35-.07-.23-.14-.45-.23-.68l-.12-.35-.13-.55c-.16-.73-.29-1.42-.3-2.12,0-.7.12-1.45.29-2.25l.53-.44c.4-.27.04-.27-.31-.24-.36.03-.7.07-.37-.21h-.44c.11-.17.18-.41.4-.42-.07-.24-.19-.16-.48-.14.11-.19.21-.38.31-.57-.03-.26-.19-.49-.41-.65-.22-.14-.43-.23-.71-.23-.61.05-1.2.13-1.66-.05-.31-.55-1.29-.76-2.31-.77-1.03-.01-2.07.19-2.77.36-.52.24-.96.16-1.45.01-.52-.13-1.16-.47-2.35-.39-.58.04-1.36.26-2.08.77-.71.48-1.32,1.28-1.6,1.98-.56,1.42-.36,2.22-.01,2.59-.12.06.16.2.26.2-.02.54-.01,1.08.02,1.62,0,0,.04.49.25,1.11.2.61.58,1.34,1.15,1.77.57.43,1.29.55,2.16.11.88-.42,1.87-1.44,3.37-2.77l.19-.02c.31-.63.37-.91-.61-1.16,1.14-.2.07-.45.43-.61h.09c-.45-.12-.28-.31-.09-.48.1-.09.19-.16.22-.18,0,0,0-.01,0-.01.08,0-.26-.01-.38-.02-.35-.02-.59-.04-.8-.07.12.01.45.04.57.05-1.68-.13-1.78-.37-1.82-.36-.03,0-.06-.07.05.1.09.16.23.51.31,1.06.04.28.07.59.09.98v.28s.01.17.01.17c0,.04,0,0,0,0,0-.02,0-.05.01-.08.04-.12.12-.3.23-.56l-.04.18c.23-.7.2-.09.42-.44,0,.09,0,.13-.01.17.31-.69.52-.06.74-.35l-.13.43.36-.07-.09-.1c.25-.59.26-.4.25-.15,0,.25-.05.54.26.17.07.08.52-.51,1-1.05.48-.54,1-1.02.98-.72.54-.53-.75.87-.23.47-.43.6-.37.37-.65.85.41-.27-.16.64.37.26l-.38.47c.48-.41.51-.24.46-.08-.05.17-.15.34.31.01.5-.12-1.4,1.35-.43.75l-.66.56c-.11.13.81-.52.49-.22-.42.27-.33.3-.73.51-.32.26-.09.16.09.15.18-.02.3.06-.25.31.82-.21.33.03.95-.06-.36.08-.05.24-.83.23-.06,0-.05-.01.09-.03l-.49.07c-.92.19.51-.09.38.46.16-.12.11-.27.45-.18l-.06.36-.41-.06-.23.54.51-.09c-.26.27-1.12.38-.39.65.41.12.68-.26.85,0-.34.36-.85.89-.99,1.34.57-.06.55.06.68.18l-.5.03c.7.45-1.09.2-.53.65l-.35-.03,1.04.1c1,.4-1.03.26.33.69-.09-.18,1.09-.12.88.12l-.48-.04c.1.12.31.16.21.25-.26-.07-.7-.02-.61.16l-.6-.11.89.33c-.51.29.15.7-.53.82,0,0-.32.59.43.7-.46-.1-.63.22-1.18.14.53.14.96.57.41.76l-.06-.03c-.28.34-.07.61.11.88.09.18.18.13.2.18.02.03-.02.06-.2.06.58.05.26.09,1.01.17.37.17,0,.22-.19.22-.18.02-.17.04.99.53.13.19-.54-.07-.65-.08l-.12-.08c.19.27.22.36.17.46.22.21,1.31.98,1.01.99-.41-.38-.35-.24-.37-.19-.05-.09-.2-.21-.51-.37.12.11.2.19.25.26-.03-.03-.06-.05-.1-.08.09.2.22.3.31.31.06.06.14.12.27.2-.58-.35-.22.25-.88-.39-.08.26.22.96.03,1.27-.25-.35-.37-.67-.39-.81l-.11.15c-.3-.51-.08-.3-.09-.41-.36-.4-.3-.19-.3.03.01.22-.04.47-.32.09l.09.42-.04-.07c.08.22.1.52.07.6-.18-.45-.32-1.05-.44-1.01-.21-.43-.2.24-.38.51.13.07.11.33.1.49-.13.03-.26-.43-.34-.22l-.09-.62c.12.58-.27.67-.29.93-.13-.46.16-.42.15-.77-.52.11-.26.05-.79.16-.23.5.12.59.05,1.15-.24.15-.43.6-.76.25l.16.55c-.42.47-.71.43-1.09-.1-2.96,4.84,0,6.25,0,6.25,1.52,1.1,2.04-.58,3.63-1.16"/>
  <path class="cls-1" d="M172.53,100.32l-.25.02c.1.03.2.03.25-.02"/>
  <path class="cls-1" d="M162.75,117.57s.01.03.02.05c0-.02-.01-.04-.02-.05"/>
  <path class="cls-1" d="M164.24,100.71h0s-.03-.02-.05-.04l.05.04Z"/>
  <path class="cls-1" d="M165.72,97.81c-.46.77-1.59.69-1.38,1.63-.21.36-.11.85-.11,1.28.75.47-.17.5.41.96l-.48-.09c.2.16.32.31.05.29l-.13-.05c.3.24.05.29.2.41l-.13-.06v.16s-.17-.1-.17-.1c.29.34.22.55-.02.65l.54.21c-.76.11.28.74-.57.76l-.12-.06c1.19,1.09-1.26.19-.17,1.27-.13-.14-.28-.11-.4-.18.05.27.02.52,1.02,1.07-.09.14-.38-.05-.77-.24.44.24.55.46.51.59l-.14-.15-.04.41.86.4c-.34.04-1.03-.52-.92-.24l.68.39c-.27.17-1.38-.29-2-.37-.42.37-.37,1.04-.43,1.67-.08.61-.29,1.16-1.13,1.15l-.49-.32c-.69-.51.84.98.19.53l.24.33c-.14-.07-.31-.12-.43-.28-.09.06.02.15.17.37l-.49-.24c-.59.06,0,1.01-.47,1.2-1.17-.32-1.07,1.07-1.1,1.9.16.76-.54.7-1.22.61-.68-.08-1.29-.15-1.15.66-.1-.08.02.18.09.25l-.67.39s-.18.14-.38.38c-.2.24-.39.6-.4,1.11,0,.5.18,1.14.77,1.91.59.77,1.58,1.67,3.33,2.59l.09.16c.69.07,1.03-.06.71-1.03.76.87.4-.17.73.04l.05.08c-.32-.88.98.16.7-.65.05.08.25.32.21.38.08-.26.13-.66.59-.16.28-.49,1.06-.77.56-1.78l.11.15c-.37-.66.1-.25,0-.67.07.05.11.08.14.1-.36-.65.35-.51.25-.84l.33.3.22-.37-.18.04c-.85-.88.78.31.4-.46.31-.11-1.51-2.12-.89-1.93-.34-.48.62.7.42.26.49.42.24.33.66.63-.1-.35.71.18.55-.29l.39.31c-.49-.83.9-.06.36-.78-.11-.52,1.29.75.76-.14l.62.31c.18-.05-.58-.59-.22-.52.33.27.4.04.66.36.77.08-.29-1.2.92-.95-.61-.57-.06-.49-.52-.92.3.2.35-.38.82.29.04.06,0,.09-.11,0l.38.31c.94.28-.12-.74.15-.9-.18-.02-.21.1-.45-.15l.2-.19.31.27.42-.21-.46-.23c.33-.02,1.1.38.61-.19-.29-.3-.68-.21-.71-.47.44-.03,1.09-.1,1.39-.32-.51-.26-.45-.33-.5-.47l.43.24c-.42-.66,1.01.43.72-.15l.29.2-.86-.6c-.7-.76.99.35-.01-.61,0,.16-.99-.47-.72-.51l.4.27c-.04-.13-.21-.25-.09-.26.2.17.6.36.59.2l.49.37-.66-.65c.55.06.12-.53.76-.29,0,0,.5-.25-.12-.67.37.28.64.14,1.1.44-.41-.34-.65-.82-.09-.71l.05.05c.72-.23-.36-1.11.45-1.24-.54-.21-.15-.3-.86-.54-.49-.68,1.71-.22-.35-1.21-.04-.23.59-.03.73-.09l.1.09c-.04-.43-.02-.54.14-.79-.16-.21-1.15-.58-.83-.74.37.22.33.09.36,0,.04.08.18.15.49.12-.12-.06-.19-.11-.24-.16.03.01.06.01.1.03-.09-.2-.23-.21-.3-.16-.06-.02-.14-.04-.26-.06.57.02.1-.45.8-.24-.02-.51-.61-1.05-.79-1.5.37.06.66.24.77.39l-.06-.31c.52.15.26.24.34.36.92-.09-.65-.9.21-1.07l-.39-.19h.07c-.22-.06-.49-.22-.55-.29.47.06,1.04.27,1.06.07.48-.04-.11-.48-.32-.73-.1.09-.35,0-.5-.09,0-.1.47-.05.29-.17l.62.13c-.59-.09-.57-.38-.82-.47.47.04.36.23.7.33.02-.4.01-.2.03-.59-.42-.29-.59-.08-1.11-.28-.08-.2-.48-.45-.07-.58l-.56-.04c-.37-.4-.28-.57.31-.7-2.07-1.54-3.61-1.78-4.61-1.75-1,.03-1.47.36-1.47.36-1.33.58.21,1.21.43,2.27"/>
  <path class="cls-1" d="M175.35,114.06l-.19-.13c.08.07.16.12.19.13"/>
  <path class="cls-1" d="M172.13,118.09s.02.02.04.04c-.01-.02-.02-.03-.04-.04"/>
  <path class="cls-1" d="M168.79,109.68h0s-.02-.03-.04-.04l.04.04Z"/>
  <path class="cls-1" d="M169.94,109.28c-.39.03-1.27-.6-1.11-.1-.15.05-.05.32-.04.5.61.59-.1.14.4.65l-.39-.28c.17.17.28.3.06.16l-.11-.09c.26.26.06.16.19.29l-.11-.09.02.07-.15-.13c.25.3.23.36.06.3l.45.36c-.58-.31.32.49-.35.09l-.11-.09c1.09,1.09-.95-.48.07.56-.13-.13-.24-.18-.34-.27.08.16.1.27.98,1-.04.03-.3-.2-.65-.47.39.32.52.48.52.54l-.14-.14.06.2.74.58c-.25-.13-.9-.72-.76-.53l.6.5c-.17-.03-1.12-.75-1.61-1.05-.47.05.84,1.59-.43.96l-.46-.36c-.67-.54.92.87.3.38l.28.28c-.12-.09-.26-.18-.4-.31-.05,0,.06.09.25.28l-.43-.31c-.4-.16.32.58.07.56-.95-.56-.38.32-.04.83.83,1.01-2-.93-1.03.2-.1-.07.1.12.17.18l-.25.11s-.99.69,5.05,4.53l.14.12c.43.19.56.19-.1-.48.9.72.16,0,.47.21l.07.06c-.63-.63.67.34.11-.22.07.06.31.26.32.29-.08-.14-.23-.36.29.06-.05-.22.31-.16-.46-.91l.14.12c-.53-.5-.04-.12-.29-.39.07.05.11.08.13.1-.52-.5.01-.19-.19-.42l.35.28v-.15s-.11-.03-.11-.03c-.94-.79.64.43.08-.14.17.04-1.87-1.73-1.36-1.41-.42-.39.7.62.39.3.49.4.29.27.69.59-.2-.23.56.35.27.02l.39.31c-.65-.64.61.29-.03-.3-.26-.33,1.18.89.48.2l.54.4c.11.04-.62-.55-.34-.37.32.27.29.17.59.45.57.35-.6-.75.35-.14-.62-.55-.2-.28-.66-.69.28.23.13-.06.68.49.05.05.03.05-.08-.04l.37.32c.76.53-.31-.43-.15-.39-.14-.09-.12-.04-.37-.27h.09s.31.26.31.26l.25.08-.4-.31c.23.13.91.67.39.16-.29-.28-.56-.4-.65-.54.31.17.78.43.95.46-.45-.36-.42-.36-.49-.46l.39.32c-.48-.51.87.67.5.25l.26.23-.79-.68c-.71-.69.82.62-.16-.3.04.08-.86-.69-.66-.58l.36.31c-.06-.08-.21-.22-.13-.16.19.18.54.45.49.37l.45.4-.64-.61c.43.29-.02-.18.52.23,0,0,.33.13-.23-.37.34.31.52.38.92.73-.38-.35-.66-.69-.21-.36l.04.05c.52.27-.46-.66.14-.31-.45-.36-.17-.21-.75-.67-.49-.55,1.29.79-.44-.69-.06-.12.45.29.56.35l.09.09c-.08-.19-.08-.23,0-.25-.15-.17-.96-.85-.72-.74.31.29.27.21.29.2.04.05.16.16.4.31-.1-.09-.15-.14-.2-.19.02.02.05.04.08.06-.09-.13-.19-.2-.25-.23-.05-.04-.11-.09-.21-.16.45.31.05-.12.61.34-.05-.2-.57-.74-.73-1,.29.23.54.46.63.57l-.06-.14c.41.34.21.23.28.31.72.48-.55-.69.12-.26l-.31-.29.06.04c-.17-.14-.39-.35-.44-.41.37.29.83.69.84.63.37.26-.1-.23-.26-.43-.08-.03-.27-.2-.39-.31,0-.03.37.26.23.11l.49.4c-.46-.37-.45-.46-.65-.63.37.29.29.29.55.52.02-.11,0-.06.03-.17-.33-.34-.47-.37-.88-.74-.07-.11-.37-.43-.05-.23l-.44-.34c-.28-.35-.2-.35.28-.03-3.09-3.41-4.71-4.07-4.71-4.07-1.12-.59.05.55.19,1.07"/>
  <path class="cls-1" d="M101.36,36.21l-.23.06c.11-.01.2-.03.23-.06"/>
  <path class="cls-1" d="M102.47,46.74s.03,0,.05,0c-.02,0-.04,0-.05,0"/>
  <path class="cls-1" d="M93.71,38.58h0s-.04,0-.06,0h.06Z"/>
  <path class="cls-1" d="M94.14,36.4c-.23.58-1.29.84-.8,1.37-.06.28.22.55.37.81.85.05.05.35.77.44l-.47.1c.25.03.42.07.16.15h-.14c.37.05.16.16.35.18h-.14s.07.1.07.1h-.2c.4.1.44.24.27.38l.58-.07c-.62.33.59.31-.16.62h-.14c1.55.16-.99.59.48.76-.18-.02-.3.04-.44.05.18.13.28.27,1.41.16,0,.11-.35.12-.78.18.5-.05.71.02.75.1l-.2-.02.19.22.93-.14c-.26.15-1.14.14-.9.24l.78-.08c-.14.19-1.31.4-1.86.62-.27.72,1.79,1.27.48,2.04l-.58.08c-.85.1,1.28.05.49.16l.4.04c-.15.04-.31.1-.5.08-.03.07.11.06.38.08l-.52.13c-.39.31.66.44.48.75-1.05.45,0,1,.62,1.31,1.33.4-2.01,1.34-.5,1.73-.12.03.16.05.26.04l-.07.5s-.1,2.41,6.8-.08h.18c.43-.32.51-.5-.45-.59,1.14-.14.1-.23.46-.33h.09c-.9-.08.7-.41-.1-.49.09,0,.41-.03.43,0-.16-.1-.43-.23.24-.31-.2-.26.07-.67-1.01-.74h.19c-.73-.04-.12-.12-.5-.2.09-.01.13-.03.17-.03-.72-.04-.14-.31-.45-.37l.44-.05-.12-.21-.09.09c-1.22.09.75-.24-.06-.32.14-.16-2.56-.05-1.98-.27-.58-.02.93-.02.48-.09.64-.07.4.01.91-.07-.31-.08.63-.24.19-.33l.49-.05c-.92-.08.62-.39-.25-.42-.43-.14,1.46-.26.47-.35l.66-.14c.1-.09-.83.02-.51-.1.42-.03.33-.14.73-.13.64-.26-.98-.31.11-.68-.83.02-.35-.16-.97-.14.36-.04.03-.27.82-.2.07,0,.06.03-.08.04l.49-.03c.9-.24-.53-.22-.4-.38-.16.06-.11.11-.45.11l.05-.14h.41s.22-.24.22-.24l-.5.08c.25-.13,1.11-.24.38-.29-.41-.01-.67.16-.84.07.33-.17.83-.42.97-.6-.57.07-.55.02-.67-.01l.5-.05c-.71-.11,1.08-.17.52-.3l.35-.02-1.04.05c-1-.07,1.02-.19-.34-.24.09.06-1.09.14-.88.03l.48-.02c-.1-.04-.31-.04-.21-.08.26,0,.7-.05.61-.12h.6s-.89-.06-.89-.06c.5-.15-.16-.26.51-.37,0,0,.31-.26-.43-.24.46,0,.63-.14,1.17-.16-.52,0-.97-.14-.42-.26h.06c.54-.3-.82-.35-.15-.65-.57.07-.27-.08-1,.02-.75-.17,1.45-.57-.83-.44-.13-.1.52-.18.63-.25h.12c-.2-.17-.23-.22-.19-.38-.23-.05-1.29.04-1.04-.12.42,0,.34-.04.33-.09.07.03.23.02.5-.07-.13,0-.21,0-.28-.01.03,0,.06,0,.1-.01-.16-.07-.29-.04-.34,0-.07,0-.15.02-.26.04.53-.14-.06-.24.66-.32-.19-.23-.95-.34-1.25-.52.37-.06.7-.04.85,0l-.15-.13c.53-.05.32.06.43.09.85-.26-.9-.28-.12-.56h-.43s.07-.02.07-.02c-.22.02-.53,0-.61-.02.46-.07,1.07-.1,1.03-.2.44-.12-.25-.21-.51-.29-.07.07-.33.07-.5.06-.02-.05.44-.12.24-.14l.63-.07c-.59.08-.65-.07-.91-.07.46-.07.41.04.76.02-.08-.2-.04-.1-.12-.3-.48-.06-.59.08-1.15.08-.13-.08-.58-.14-.21-.28l-.55.09c-.45-.14-.4-.25.16-.43-4.67-.91-6.22.31-6.22.31-1.18.65.47.77.96,1.36"/>
  <path class="cls-1" d="M107.07,35.56l-.22.08c.11-.02.19-.04.22-.08"/>
  <path class="cls-1" d="M108.89,46.45s.03,0,.05,0c-.02,0-.04,0-.05,0"/>
  <path class="cls-1" d="M99.59,38.47h0s-.04,0-.06,0h.06Z"/>
  <path class="cls-1" d="M99.87,36.17c-.19.62-1.23.95-.7,1.47-.04.3.25.56.43.82.86,0,.07.36.8.41l-.46.14c.25.02.42.05.17.15l-.14.02c.37.02.17.15.36.16l-.14.02.08.09-.2.02c.4.08.45.22.3.38l.57-.1c-.6.38.61.29-.11.65l-.14.02c1.56.07-.95.66.54.75-.18-.01-.29.06-.43.08.19.12.3.27,1.42.09,0,.11-.34.14-.77.23.49-.08.71-.02.76.06h-.2s.21.21.21.21l.92-.2c-.25.17-1.13.21-.88.3l.77-.12c-.12.2-1.28.49-1.82.75-.22.76,1.87,1.21.62,2.09l-.58.12c-.85.15,1.28-.02.5.13l.4.02c-.15.05-.3.12-.5.11-.02.08.12.05.38.07l-.51.16c-.36.35.69.42.53.75-1.02.53.08,1.04.71,1.33,1.35.34-1.92,1.51-.38,1.83-.12.04.16.04.26.03l-.04.53s.07,2.51,6.79-.48l.18-.02c.4-.35.48-.54-.48-.58,1.13-.21.08-.25.44-.37h.09c-.9-.04.67-.47-.14-.51.09,0,.4-.05.43-.02-.16-.1-.44-.22.22-.33-.22-.26.02-.7-1.06-.71l.19-.02c-.73.01-.13-.12-.51-.17.09-.02.13-.04.17-.04-.72,0-.16-.31-.48-.35l.44-.08-.14-.21-.08.1c-1.21.16.73-.29-.08-.33.13-.18-2.56.09-2-.16-.58.02.93-.08.48-.12.63-.1.4-.01.9-.12-.32-.06.61-.28.17-.35l.49-.08c-.93-.03.59-.44-.28-.42-.43-.12,1.44-.36.45-.4l.65-.18c.09-.1-.82.07-.52-.07.42-.06.32-.17.72-.18.62-.31-1-.27.07-.72-.82.07-.36-.14-.98-.09.35-.06.01-.28.81-.25.07,0,.06.03-.08.05l.49-.06c.89-.3-.55-.2-.43-.38-.15.07-.1.12-.44.14l.04-.15.41-.04.2-.25-.5.11c.24-.15,1.09-.32.36-.32-.41.01-.66.21-.84.12.32-.19.8-.48.93-.68-.56.11-.55.06-.67.03l.49-.08c-.71-.08,1.07-.24.5-.34l.35-.04-1.04.11c-1-.01,1.01-.25-.35-.23.1.06-1.08.21-.88.08l.48-.05c-.11-.03-.31-.02-.22-.07.26-.01.69-.09.6-.16l.6-.04h-.9c.49-.19-.17-.26.49-.41,0,0,.29-.29-.45-.22.46-.03.62-.18,1.16-.23-.52.02-.98-.09-.44-.25h.06c.52-.35-.84-.32-.2-.67-.57.1-.28-.07-1,.07-.76-.13,1.41-.68-.86-.41-.14-.09.51-.21.61-.29h.12c-.22-.17-.25-.23-.22-.39-.23-.04-1.28.11-1.05-.06.42-.02.34-.07.33-.12.07.02.23,0,.49-.1-.13.01-.21,0-.28,0,.03,0,.06-.01.1-.02-.16-.06-.29-.03-.34.02-.06,0-.15.03-.26.06.52-.18-.08-.24.64-.37-.21-.23-.98-.3-1.29-.47.36-.08.7-.08.85-.04l-.16-.13c.53-.08.32.04.43.07.83-.32-.91-.24-.16-.58l-.43.02.07-.02c-.22.04-.53.04-.61.02.46-.1,1.06-.17,1.02-.27.43-.15-.26-.2-.53-.27-.07.07-.33.09-.49.09-.02-.05.43-.16.23-.16l.62-.1c-.58.11-.65-.04-.91-.02.46-.1.41.02.76-.02-.09-.2-.05-.1-.14-.3-.49-.04-.58.11-1.14.15-.14-.08-.59-.11-.23-.28l-.55.12c-.46-.12-.41-.24.13-.46-4.72-.68-6.19.69-6.19.69-1.13.75.52.77,1.06,1.36"/>
</svg>