<?xml version="1.0" encoding="UTF-8"?>
<svg id="Capa_1" data-name="Capa 1" xmlns="http://www.w3.org/2000/svg" viewBox="0 0 178.85 239.22">
  <defs>
    <style>
      .cls-1 {
        fill: #a4d5cc;
      }
    </style>
  </defs>
  <path class="cls-1" d="M28.89,91.24l-.23.34c.11,0,.2-.09.23-.34"/>
  <path class="cls-1" d="M33.58,175.91s.03.06.06.08c-.02-.05-.04-.07-.06-.08"/>
  <path class="cls-1" d="M21.29,104.44v-.02s-.04-.06-.06-.09l.06.1Z"/>
  <path class="cls-1" d="M21.65,87.22c-.25,4.52-1.31,5.73-.8,10.41-.04,2.24.24,4.62.44,6.8.87,1.01.08,2.87.83,4.07l-.46.49c.25.42.43.91.19,1.34l-.14-.02c.38.62.19,1.34.38,1.65l-.14-.02.09.76-.2-.12c.42,1.09.48,2.22.35,3.22l.58-.1c-.57,2.16.66,2.89-.03,4.85l-.14-.02c1.64,2.37-.88,3.89.69,6.34-.2-.31-.29.15-.43.13.22,1.15.37,2.38,1.51,2.34.03.84-.32.7-.76.83.5-.03.74.69.81,1.34l-.21-.29.27,1.87.92-.42c-.21,1.01-1.13.32-.85,1.26l.78-.05c-.08,1.39-1.21,2.26-1.71,3.63,0,5.58,2.38,11.41,1.41,16.66l-.57.27c-.85.16,1.37,1.33.6,1.58l.44.57c-.14.18-.28.55-.49.27.01.56.15.56.44.94l-.48.64c-.24,2.23.94,4,.94,6.32-.85,2.88.64,7.96,1.44,10.86.8,2.03.42,4.32,0,6.56-.42,2.25-.88,4.44-.21,6.51-.12.13.14.49.24.49-.09,1.26-.19,2.51-.34,3.74,0,0-.09,1.12-.22,2.6-.1,1.48-.25,3.28-.14,4.74.06,1.44.43,2.57,1.42,2.59.96,0,2.71-1.06,5.1-4.55l.17.13c.42-1.09.67-2,.73-2.84.08-.84-.08-1.61-.48-2.42,1.18-.16.26-1.84.65-2.34l.09.06c-.81-1.4.85-2.81.05-4.15.09.05.41.08.43.39-.14-.97-.4-2.27.26-2.35-.19-2.29-.07-5.48-1.23-6.85l.19.09c-.78-.77-.18-1.05-.61-1.94.08-.06.12-.12.16-.12-.78-.83-.31-2.58-.68-3.26l.44-.08-.26-1.75-.04.66c-1.24-.12.65-1.4-.26-2.59.05-1.2-2.75-2.17-2.26-3.46-.62-.54.97.43.46-.4.63-.08.43.37.92.1-.38-.83.53-1.47,0-2.49l.49-.09c-1.03-1.31.43-2.66-.51-3.51-.52-1.39,1.39-1.07.3-2.48l.62-.63c.06-.64-.86-.39-.59-1.12.43,0,.27-.92.7-.54.54-1.64-1.18-3.17-.22-5.34-.85-.4-.44-1.49-1.08-1.79.35-.08-.09-2.12.77-.99.07.1.07.28-.07.28l.5.11c.84-1.26-.66-2.14-.59-3.33-.14.36-.06.83-.42.54v-1.1s.42.2.42.2l.14-1.65-.49.26c.21-.82,1.06-1.16.28-2.02-.43-.39-.64.8-.85-.04.28-1.1.7-2.74.78-4.11-.57.16-.57-.21-.7-.58l.49-.07c-.77-1.42,1.06-.59.43-2l.35.11-1.06-.33c-1.06-1.25.99-.76-.43-2.13.11.57-1.08.33-.9-.39l.49.15c-.12-.38-.33-.5-.24-.77.27.22.71.09.59-.48l.62.35-.94-1.04c.47-.86-.24-2.16.42-2.53,0,0,.25-1.82-.51-2.2.48.34.61-.66,1.16-.4-.54-.44-1.03-1.8-.5-2.38l.07.1c.48-2.06-.91-3.46-.3-5.31-.57.1-.3-.87-1.03-.61-.8-1.87,1.39-3.5-.92-4.12-.15-.86.5-1.04.61-1.49l.13.2c-.24-1.61-.27-2.08-.25-3.28-.24-.59-1.3-.66-1.07-1.74.43.34.34-.1.33-.5.07.26.23.33.5-.2-.13-.07-.22-.18-.29-.29.03,0,.06-.03.1-.02-.17-.67-.29-.55-.34-.23-.07-.02-.15.01-.26.11.52-.71-.08-1.94.64-2.04-.21-2.01-.98-3.44-1.29-5.12.37-.2.71.19.86.68l-.15-1.19c.54,0,.32.68.43,1.04.84-1.43-.9-2.91-.13-4.58l-.43-.34.07-.1c-.22,0-.53-.36-.61-.61.46-.24,1.08,0,1.04-.82.45-.66-.24-1.85-.5-2.7-.07.46-.34.32-.5.12-.02-.41.45-.65.24-.97l.63-.04c-.59.17-.65-1.07-.91-1.22.47-.24.41.64.76.74-.07-1.65-.03-.83-.1-2.48-.47-.88-.59.16-1.15-.26-.12-.78-.56-1.54-.19-2.43l-.56.28c-.43-1.46-.38-2.34.2-3.33-2.25-5.46-3.8-6.06-4.79-5.28-.99.78-1.42,2.95-1.42,2.95-1.26,4.32.37,6.55.84,11.69"/>
  <path class="cls-1" d="M43.96,228.58l-.11-.24c0,.11.02.2.11.24"/>
  <path class="cls-1" d="M25.35,207.73s-.03-.02-.05-.03c.02.02.03.03.05.03"/>
  <path class="cls-1" d="M39.55,220.53h0s.02-.03.03-.06l-.04.06Z"/>
  <path class="cls-1" d="M45.76,221.45c-1.62-.35-2.01-1.46-3.73-1.09-.81-.12-1.68.09-2.48.18-.41.83-1.04-.03-1.52.65l-.15-.49c-.16.23-.35.39-.49.13l.02-.14c-.24.35-.49.12-.61.3l.02-.14-.28.05.06-.2c-.42.37-.83.37-1.18.18v.58c-.75-.68-1.07.51-1.57-.3l.02-.14c-.2.37-.36.48-.49.46-.11-.02-.11-.15-.14-.29-.05-.29.04-.55-.39.08.11-.16.11-.28.18-.41-.17.12-.31.14-.99,1.1-.12-.1.12-.36.38-.73-.3.41-.54.51-.65.46l.17-.11c-.11-.02-.23-.05-.34-.1-.23.23-.45.47-.67.71.05-.36.84-.83.56-.81l-.63.5c-.07-.37.89-1.18,1.37-1.53.03-.17-.06-.24-.2-.39-.17-.29-.38-.65-.55-1.06-.33-.8-.47-1.88.23-2.77l.59-.07c.86-.03-1.27-.52-.47-.58l-.39-.22c.15-.06.32-.18.51-.07.04-.2-.1-.2-.36-.35l.54-.2c.43-.76-.58-1.45-.34-2.25,1.12-.93.22-2.8-.28-3.91-1.17-1.61,2.38-3.03,1.09-4.68.13-.04-.13-.19-.23-.2l.28-1.38s.29-1.66-.35-2.82c-.64-1.14-2.26-1.89-6.15.3l-.18-.06c-.56.74-.72,1.24.14,1.9-1.16-.05-.2.65-.59.79l-.09-.03c.82.59-.84.93-.11,1.49-.09-.03-.4-.07-.41-.18.11.36.32.86-.35.82.09.84-.32,1.98.71,2.59l-.18-.05c.7.36.08.4.42.76-.09.01-.13.03-.17.03.69.38.05.96.33,1.25h-.45s.07.65.07.65l.11-.24c1.22.16-.8.45-.03.97-.17.44,2.5,1.02,1.88,1.44.56.24-.92-.23-.49.11-.64-.02-.39-.17-.91-.11.29.33-.67.5-.26.91h-.5c.89.54-.68.96.17,1.33.4.54-1.48.33-.52.91l-.68.21c-.11.24.82.18.49.44-.42-.02-.34.33-.74.17-.67.6.93,1.23-.19,2.02.82.16.34.61.96.74-.36.02-.02.91-.83.42-.07-.04-.06-.12.08-.12l-.49-.04c-.9.58.55.96.47,1.53.14-.18.08-.4.43-.28,0,.18-.01.34,0,.53l-.42-.06c-.04.28-.09.56-.12.87l.48-.2c-.19.45-.98.92-.14,1.31.45.13.54-.65.83-.19-.18.72-.3,1.92.04,2.81.45-.38.54-.15.77-.02l-.4.3c1.08.37-.68.96.37,1.4l-.32.16c.32-.16.64-.33.95-.51.64-.03.53.21.48.46-.06.23-.06.49.73.25-.33-.16.58-.93.75-.53l-.38.32c.25.06.43-.06.5.11-.26.13-.48.53-.12.66-.18.13-.36.25-.55.36.37-.11.73-.24,1.07-.38.2.71,1.25.43,1.2,1.12,0,0,.25.17.57.25.32.08.7.06.91-.28-.34.4.26.7-.03,1.2.21-.23.59-.4.86-.47.25-.07.47-.01.58.27l-.06.06c.94.66,1.6-.67,2.21.05,0-.58.33-.25.28-.99.73-.7,1.2,1.56,1.55-.71.32-.11.35.55.51.67l-.08.12c.6-.16.77-.17,1.21-.1.23-.21.31-1.27.69-1-.15.42.02.34.17.35-.1.06-.13.21.05.51.03-.13.08-.21.12-.27,0,.03,0,.06,0,.1.25-.14.22-.27.1-.33,0-.06,0-.15-.03-.26.23.55.71,0,.71.72.74-.13,1.3-.86,1.93-1.11.05.38-.11.7-.29.83l.44-.12c-.03.53-.26.3-.4.4.48.89,1.11-.82,1.68,0l.14-.42.03.07c0-.22.16-.52.25-.59.07.47-.05,1.08.25,1.06.22.46.69-.19,1.01-.43-.16-.09-.1-.34-.02-.5.15,0,.22.46.34.26v.63c-.05-.59.41-.62.47-.88.07.47-.25.39-.3.74.6-.03.3-.02.91-.05.34-.46-.03-.6.15-1.14.29-.11.59-.54.89-.14l-.08-.56c.55-.41.87-.33,1.2.25,4.18-4.38,1.12-6.18,1.12-6.18-1.51-1.3-2.39.29-4.27.64"/>
  <path class="cls-1" d="M98.64,230.95l-.09-.24c0,.11.02.2.09.24"/>
  <path class="cls-1" d="M73.43,229.98s-.02.03-.03.05c.02-.02.02-.03.03-.05"/>
  <path class="cls-1" d="M95.04,222.98h0s.02-.03.03-.06l-.03.06Z"/>
  <path class="cls-1" d="M100.04,223.79c-1.31-.33-1.63-1.42-3-1.03-.65-.11-1.35.12-1.99.22-.33.83-.84-.02-1.22.68l-.12-.48c-.13.24-.28.4-.4.13v-.14c-.19.36-.38.13-.48.31v-.14s-.21.05-.21.05l.05-.2c-.34.37-.67.39-.96.2v.58c-.6-.68-.89.52-1.42-.28v-.14c-.77,1.5-1.07-1.09-1.88.33.1-.18-.03-.3-.01-.44-.35.15-.72.22-.77,1.36-.25-.03-.19-.37-.2-.81-.02.5-.25.7-.44.72l.1-.19-.56.15.07.95c-.28-.28-.02-1.15-.32-.94l-.03.78c-.4-.17-.59-1.37-.96-1.96-1.62-.41-3.48,1.5-4.94.06l-.04-.59c0-.86-.48,1.25-.5.45l-.2.38c-.04-.16-.14-.32-.04-.51-.16-.04-.17.1-.3.35l-.15-.54c-.63-.44-1.22.56-1.9.32-.77-1.12-2.35-.19-3.27.35-1.3,1.22-2.6-2.25-3.95-.84-.04-.12-.16.15-.16.24l-1.16-.17s-5.65-.58-1.66,6.71l-.04.18c.62.48,1.02.6,1.5-.32.02,1.15.52.14.65.52l-.02.09c.43-.87.77.77,1.18,0-.02.09-.04.41-.13.42.28-.13.67-.37.66.3.66-.15,1.56.21,2.03-.85l-.04.19c.27-.71.31-.09.6-.45.01.09.03.13.02.17.29-.7.76-.08.99-.37v.45s.52-.08.52-.08l-.19-.1c.12-1.22.36.78.77,0,.34.17.83-2.51,1.17-1.9.2-.56-.2.92.08.49-.02.64-.14.4-.09.91.27-.29.39.67.73.25v.5c.44-.89.74.69,1.05-.17.44-.39.22,1.49.7.54l.14.68c.18.12.17-.82.37-.48-.03.42.25.35.11.75.45.68,1.01-.9,1.58.25.17-.82.47-.31.59-.93,0,.36.63.09.24.85-.03.06-.09.05-.08-.09l-.06.49c.32.94.67-.48,1.02-.32-.1-.17-.24-.13-.13-.46l.32.08-.09.41.48.26-.04-.51c.23.27.27,1.14.57.43.14-.4-.2-.7.06-.84.3.36.76.91,1.16,1.08-.01-.58.1-.55.22-.66v.5c.45-.67.1,1.1.55.57l-.05.34.16-1.04c.43-.97.16,1.04.65-.29-.17.08-.03-1.1.17-.87l-.07.48c.12-.1.17-.29.24-.19-.08.26-.07.7.11.62l-.14.6.36-.87c.23.53.65-.1.72.58,0,0,.52.36.68-.38-.13.46.16.65.05,1.18.16-.52.59-.92.73-.36l-.03.06c.58.6,1.07-.73,1.59-.02,0-.58.27-.25.24-.99.6-.71.97,1.54,1.27-.74.26-.11.28.55.41.67l-.07.12c.49-.17.63-.19.99-.12.19-.22.26-1.27.57-1.01-.12.42.01.34.14.35-.08.06-.11.22.04.51.03-.13.06-.21.1-.28,0,.03,0,.06,0,.11.21-.14.18-.28.08-.34,0-.07,0-.15-.02-.27.19.55.58-.02.58.71.61-.15,1.07-.88,1.58-1.14.04.38-.08.7-.23.84l.36-.12c-.02.54-.22.3-.33.41.4.88.9-.83,1.37-.02l.11-.42.03.07c0-.22.12-.53.2-.6.06.47-.03,1.08.21,1.06.18.46.56-.21.82-.45-.14-.08-.08-.34-.02-.5.12-.01.18.46.28.26v.63c-.04-.6.33-.63.39-.89.06.47-.2.4-.24.75l.74-.06c.27-.47-.03-.6.1-1.15.24-.12.47-.55.73-.16l-.07-.56c.44-.42.7-.35.98.23,1.66-2.22,1.85-3.77,1.63-4.77-.22-1-.84-1.43-.84-1.43-1.23-1.28-1.91.33-3.42.71"/>
  <path class="cls-1" d="M133.94,102.18l-.23.42c.11,0,.2-.11.23-.42"/>
  <path class="cls-1" d="M142.17,210.64s.03.07.05.11c-.02-.08-.03-.1-.05-.11"/>
  <path class="cls-1" d="M126.36,118.99v-.02s-.04-.08-.06-.11l.06.13Z"/>
  <path class="cls-1" d="M126.83,96.77c-.25,3-.58,4.86-.83,6.75-.24,1.89-.37,3.8-.1,6.77-.04,2.85.27,5.89.46,8.68.87,1.31.09,3.67.84,5.22l-.46.62c.25.54.44,1.17.2,1.72l-.14-.03c.39.8.2,1.72.39,2.11l-.14-.03.09.98-.21-.16c.44,1.4.51,2.85.38,4.14l.58-.13c-.54,2.77.71,3.72.06,6.23l-.14-.03c1.69,3.04-.77,5.01.89,8.15-.21-.39-.29.19-.43.17.27,1.48.48,3.06,1.62,2.99.07,1.08-.28.91-.71,1.08.5-.05.78.88.88,1.72l-.22-.37.38,2.4.89-.56c-.15,1.3-1.12.43-.77,1.63l.78-.09c0,1.78-1.05,2.94-1.44,4.72.44,7.23,3.62,14.53,3.23,21.23l-.54.37c-.83.25,1.52,1.61.77,1.97l.49.7c-.12.23-.22.7-.47.35.07.7.21.7.54,1.17l-.42.82c-.04,2.8,1.29,5,1.38,7.9-.69,3.56.76,9.91,1.32,13.65.31,1.31.34,2.68.16,4.07-.19,1.35-.48,2.88-.89,3.98-.2.55-.43,1-.66,1.32-.23.33-.42.49-.61.66-.37.34-.88.8-1.64,1.55-.17-.06-.37.33-.34.41-1.21.44-2.71.75-4.31,1.05,0,0-1.43.29-3.3.68-1.88.39-4.22.86-6.02,1.42-1.8.57-3.06,1.26-2.68,2.21.39.92,2.37,2.21,7.38,3.36l-.1.2c2.9.06,4.76-.18,6.5-1.52.28.53.87.43,1.48.22.63-.22,1.29-.57,1.7-.49l-.04.11c.8-.69,1.8-.84,2.87-1.12,1.05-.27,2.22-.71,2.88-1.77-.01.12.15.41-.27.75.65-.56,1.36-1.36,1.91-2.04.56-.67.98-1.21,1.3-1.1.55-1.03.95-2.16,1.19-3.24.24-1.07.35-2.09.38-2.97.05-1.72-.11-3.17-.59-4.15l.18.13c-.7-1.09-.09-1.38-.44-2.58.09-.07.14-.15.17-.14-.69-1.16-.15-3.37-.47-4.3l.44-.08-.2-2.29-.06.86c-1.23-.24.7-1.78-.22-3.39.06-1.58-2.79-2.92-2.33-4.55-.65-.7,1,.57.44-.51.63-.1.45.49.93.15-.42-1.08.46-1.9-.12-3.23l.49-.11c-1.11-1.68.24-3.46-.78-4.54-.65-1.78,1.3-1.44.07-3.21l.56-.84c0-.83-.9-.47-.71-1.42.43,0,.17-1.19.64-.72.36-2.14-1.55-4.01-.84-6.84-.9-.46-.62-1.88-1.29-2.21.35-.12-.34-2.7.66-1.3.08.12.1.35-.04.35l.51.11c.69-1.65-.9-2.68-.97-4.2-.1.47.03,1.05-.36.7l-.13-1.4.45.23-.03-2.1-.47.35c.12-1.05.94-1.51.09-2.56-.46-.47-.57,1.04-.85,0,.17-1.4.47-3.48.44-5.23-.55.22-.58-.25-.75-.71l.49-.11c-.86-1.77,1.03-.78.31-2.55l.36.13-1.08-.39c-1.13-1.56.95-.98-.55-2.7.14.72-1.07.43-.93-.48l.5.19c-.14-.49-.36-.64-.29-.97.29.27.71.1.57-.62l.64.44-.98-1.31c.43-1.1-.33-2.74.32-3.22,0,0,.19-2.31-.59-2.79.49.43.59-.84,1.15-.51-.55-.56-1.08-2.29-.56-3.02l.07.13c.44-2.62-.99-4.41-.39-6.78-.57.13-.31-1.12-1.03-.78-.82-2.4,1.35-4.46-.96-5.27-.15-1.1.5-1.33.6-1.9l.13.26c-.24-2.06-.28-2.66-.26-4.2-.24-.76-1.3-.86-1.08-2.24.43.44.34-.12.33-.64.07.33.23.43.5-.26-.13-.09-.22-.24-.28-.38.03,0,.06-.03.1-.02-.17-.86-.29-.71-.35-.3-.07-.02-.15.02-.26.14.53-.9-.08-2.49.64-2.61-.22-2.58-.99-4.42-1.31-6.57.37-.25.71.25.86.87l-.16-1.53c.54,0,.32.87.44,1.34.84-1.84-.93-3.73-.14-5.85l-.42-.44.07-.13c-.22,0-.53-.47-.6-.78.47-.3,1.07.02,1.06-1.01.46-.81-.19-2.32-.4-3.4-.1.57-.35.38-.51.12,0-.52.48-.79.3-1.2l.63-.02c-.6.17-.57-1.37-.81-1.58.48-.26.35.83.7.97.07-2.07.03-1.02.13-3.12-.39-1.17-.61.16-1.12-.42-.04-1.01-.42-2.03.02-3.17l-.58.34c-.34-1.91-.26-3.03.33-4.29-1.1-3.53-2.11-5.43-2.92-6.34-.81-.91-1.45-.84-1.93-.32-.97,1.02-1.37,3.72-1.37,3.72-.61,2.69-.54,4.68-.34,6.77.1,1.05.23,2.13.33,3.41.09,1.29.17,2.79.21,4.5"/>
  <path class="cls-1" d="M110.09,45.09s.07-.02.11-.04c-.07,0-.1.02-.11.04"/>
  <path class="cls-1" d="M20.46,52.03s-.02,0-.02,0c-.03.03-.07.05-.1.07l.12-.08Z"/>
  <path class="cls-1" d="M13.66,53.85c.03-.32.39-.59.76-.72.38-.14.78-.17,1.09-.15.66.03.79.21.66,0,.11.03.07,0,.2-.1,1.38-.29,2.75-.59,4.06-.84,1.14-1.02,3.48-.5,4.88-1.38l.64.4c.48-.31,1.07-.54,1.62-.34l-.02.14c.73-.45,1.62-.33,1.98-.55l-.02.14.93-.16-.14.21c1.3-.52,2.69-.68,3.92-.61l-.15-.57c2.66.42,3.53-.84,5.95-.23l-.02.14c2.91-1.71,4.76.78,7.79-.76-.38.19.17.3.15.44,1.41-.2,2.93-.32,2.94-1.46,1.05,0,.86.34,1,.78-.01-.5.89-.73,1.71-.76l-.37.19,2.33-.18-.46-.94c1.24.27.32,1.15,1.5.92v-.78c1.7.16,2.7,1.34,4.35,1.94,6.85.42,14.35-1.27,20.68.53l.24.6c.07.86,1.85-1.15,2.04-.34l.77-.34c.2.17.63.36.24.53.68.08.71-.06,1.23-.28l.7.59c2.68.62,5.07-.21,7.91.26,3.33,1.39,9.85,1.07,13.64.96,2.68-.32,5.44.57,8.2,1.47,1.38.45,2.76.9,4.13,1.2.35.08.66.14,1.06.2.48.07.89.1,1.27.11.77.02,1.43-.04,2.08-.16.15.13.59-.1.6-.19.35.04.76.11,1.01.16.13.03.26.07.39.11.25.08.49.18.68.36,0,0,.09.06.19.21.09.14.14.36.18.62.04.29.09.41.1,1.46.02,1.74.02,3.69.29,5.1.14.7.35,1.29.65,1.63.31.33.7.36,1.19.08.49-.29,1.1-.86,1.84-1.84.74-.99,1.64-2.37,2.59-4.45l.17.14c.07-.27.12-.55.17-.81.02-.14.05-.27.07-.4.02-.18.03-.36.05-.53.08-.69.07-1.4.05-2.06-.07-.65-.16-1.26-.37-1.8-.19-.55-.51-1-.83-1.44-.5-.48-1.07-.88-1.75-1.09.23-.55-.48-1.11-1.4-1.39-.92-.3-1.95-.37-2.4-.65l.12-.07c-.36.04-.7.05-1.03.04-.24.01-.48,0-.71-.05-.46-.07-.91-.21-1.35-.35-.87-.28-1.69-.54-2.4-.22.06-.08.13-.4.44-.38-.24.01-.49.02-.75.03-.25,0-.61-.03-.88-.07-.55-.08-.95-.25-.95-.59-2.79-.24-6.63-1.07-8.54-.23l.15-.17c-1.1.59-1.32-.06-2.5.16-.05-.1-.12-.15-.11-.19-1.19.57-3.23-.27-4.16-.08v-.45s-2.22-.14-2.22-.14l.81.19c-.42,1.18-1.58-.95-3.26-.33-1.48-.31-3.28,2.22-4.76,1.48-.79.5.74-.86-.41-.53.02-.64.55-.35.32-.88-1.11.2-1.72-.82-3.1-.51v-.5c-1.84.75-3.26-.93-4.49-.16-1.84.27-1.1-1.57-3.05-.74l-.68-.72c-.8-.17-.64.78-1.51.4.08-.42-1.11-.41-.56-.78-1.99-.79-4.17.68-6.78-.58-.62.8-1.94.24-2.4.84-.05-.36-2.69-.17-1.15-.89.13-.06.36-.04.34.1l.2-.48c-1.49-.99-2.8.39-4.3.2.44.18,1.04.15.63.48l-1.4-.11.3-.4-2.09-.3.28.52c-1.02-.29-1.36-1.17-2.53-.47-.53.39.95.71-.13.84-1.36-.38-3.4-.93-5.15-1.09.16.58-.31.55-.79.67l-.05-.5c-1.86.69-.68-1.1-2.52-.55l.16-.35-.48,1.04c-1.66,1-.91-1.03-2.74.33.73-.1.36,1.09-.54.89l.22-.49c-.5.11-.66.31-.99.22.29-.26.15-.7-.58-.61l.48-.61-1.37.91c-1.08-.49-2.76.2-3.23-.46,0,0-2.32-.25-2.82.52.44-.48-.84-.6-.5-1.16-.58.54-2.32,1.07-3.06.55l.13-.07c-2.66-.4-4.41,1.07-6.81.59.16.57-1.11.36-.73,1.07-2.33.95-4.56-1.06-5.18,1.31-1.08.25-1.35-.38-1.93-.44l.25-.15c-2.03.43-2.62.53-4.14.68-.73.32-.7,1.39-2.09,1.33.38-.48-.16-.32-.67-.25.31-.11.39-.28-.31-.46-.07.14-.21.24-.33.33-.01-.03-.04-.05-.03-.1-.82.28-.65.38-.26.38-.01.07.03.14.17.24-.95-.41-2.43.4-2.65-.29-.4.1-.79.19-1.17.28-.45.11-.88.22-1.28.34-.81.24-1.51.51-2.17.75-1.35.48-2.35,1.01-3.35,1.52-.66-.15-.48-.59.15-.96-.58.24-1.12.5-1.61.78-.58-.34.62-.64,1.11-.91-1.58.09-2.39.79-3.04,1.5-.66.72-1.24,1.46-2.39,2.31l.17.49-.15.11c.24.03.28.52.2.84-.62.26-1.17-.17-1.53,1.01-.38.46-.46,1.18-.34,1.92.12.74.46,1.5.79,2.07-.12-.68.21-.51.44-.27.2.56-.09,1,.34,1.33l-.59.24c.47-.07,1.34-.38,1.82-.42-.2.09-.45.14-.7.17-.25.04-.47.12-.7.18.25-.08.44-.05.57-.05.13,0,.2,0,.27,0,.08,0,.16.04.3.07.15.05.32.04.73.22.76.03.98-.09,1.14-.22.16-.13.26-.27.92-.39,1.02.18,2.68.03,3.2,1.1.19-.29.38-.56.57-.81.2.03.38.06.55.08.39-.04.76-.09,1.04-.09.27.02.51.04.73.07.22.03.43.06.63.1.17.06.32.14.47.21.3.16.57.29.83.53.2.2.37.42.53.65,1.63.34,2.97.87,4,1.37,1.05.49,1.83.94,2.44,1.21,1.21.52,1.68.11,1.91-.54.06-.4,0-.93-.13-1.49-.15-.55-.39-1.12-.64-1.64-.28-.5-.56-.94-.78-1.27-.23-.3-.38-.49-.38-.49-1.11-1.5-2.4-2.56-3.74-3.3l-.25-.14-.06-.03s.02,0,.03.01l.08.05s.02.01.03.02c0,0,0,.02-.01.04-.02.03-.06.07-.14.12-.16.1-.49.21-.97.33-.26.06-.53.13-.82.21-.29.05-.65.27-.85.08"/>
  <path class="cls-1" d="M29.19,24.91l.47-.07c-.07-.08-.21-.09-.47.07"/>
  <path class="cls-1" d="M118.71,23.78s.07.03.1.03c-.06-.03-.09-.04-.1-.03"/>
  <path class="cls-1" d="M44.35,27.92h-.02s-.06.05-.08.07l.1-.07Z"/>
  <path class="cls-1" d="M31.53,32.78c1.18-1.33,2.21-1.7,3.13-2.05.96-.32,1.85-.64,3.6-1.4,1.76-.43,3.9-1.01,6.08-1.41.94-.97,2.92-.38,4.08-1.23l.54.42c.4-.29.89-.51,1.35-.31v.14c.59-.44,1.34-.3,1.64-.52v.14s.77-.15.77-.15l-.11.21c1.08-.51,2.24-.66,3.28-.59l-.15-.57c2.25.42,2.93-.86,4.98-.29v.14c2.34-1.77,4.03.66,6.47-1-.31.21.16.28.15.43,1.17-.27,2.43-.45,2.36-1.59.87-.06.73.3.88.73-.04-.5.69-.77,1.37-.85l-.3.22,1.93-.32-.45-.91c1.05.19.35,1.13,1.32.83l-.07-.78c1.44.05,2.35,1.17,3.77,1.66,2.87-.02,5.81-.61,8.71-1.04,2.89-.43,5.81-.72,8.42-.1l.24.58c.11.85,1.39-1.29,1.6-.49l.59-.39c.17.15.51.33.21.51.54.04.55-.09.95-.35l.55.56c1.03.25,1.97.17,2.92.12.95-.07,1.93-.1,2.9.25,1.07.83,2.58,1.34,4.14,2.02,1.56.66,3.22,1.42,4.37,2.19.92.41,1.6,1.2,2.18,2.06.52.92.96,1.91,1.28,2.97.69,2.09,1.18,4.19,2.63,5.85-.06.17.33.39.42.36.43,1.21.84,2.44,1.2,3.69,0,0,.36,1.13.87,2.61.52,1.48,1.18,3.34,1.94,4.71.74,1.38,1.6,2.28,2.48,1.81.87-.48,1.84-2.29,2.56-6.5l.21.05c-.16-2.35-.51-3.82-1.91-5.05,1.03-.61-.51-1.86-.36-2.51l.11.02c-.65-.53-.75-1.28-.86-2.04-.1-.76-.19-1.54-.87-2.02.11.01.41-.09.56.2-.57-.89-1.4-2.05-.87-2.42-.34-.54-.68-1.15-1.03-1.77-.39-.61-.79-1.24-1.2-1.82-.41-.58-.9-1.09-1.35-1.52-.45-.43-.93-.74-1.41-.88l.22-.03c-1.17-.25-.84-.88-1.85-1.39.02-.1,0-.18.04-.2-.62-.11-1.16-.62-1.67-1.13-.54-.48-1.04-.98-1.46-1.12l.23-.39c-.54-.43-1.18-.73-1.77-1.1l.59.5c-.46.43-.66.07-.99-.44-.3-.53-.81-1.11-1.66-1.1-.59-.4-1.5-.14-2.35.16-.86.29-1.63.56-2.18.09-.78.37.81-.73-.24-.58.14-.62.55-.25.45-.81-1.02.02-1.41-1.05-2.7-.87l.04-.5c-1.69.61-2.88-1.07-4-.28-1.6.31-1.01-1.55-2.69-.62l-.63-.68c-.7-.11-.51.82-1.28.5.04-.43-.98-.33-.53-.74-1.78-.64-3.47,1.04-5.72.02-.44.84-1.58.4-1.91,1.04-.08-.36-2.23.05-1.02-.79.11-.07.3-.07.29.07l.13-.5c-1.31-.86-2.27.62-3.52.55.38.14.87.07.56.43h-1.16s.22-.43.22-.43l-1.74-.14.27.5c-.86-.21-1.21-1.06-2.12-.28-.41.43.84.64-.04.85-1.15-.27-2.88-.69-4.33-.74.18.56-.21.57-.6.71l-.08-.49c-1.48.8-.64-1.06-2.12-.39l.11-.36-.32,1.07c-1.29,1.09-.82-.98-2.23.49.59-.13.37,1.07-.39.92l.15-.49c-.4.13-.52.34-.8.27.22-.28.07-.71-.52-.58l.36-.63-1.07.97c-.92-.44-2.26.32-2.68-.32,0,0-1.92-.16-2.29.62.34-.49-.72-.57-.47-1.14-.44.56-1.85,1.12-2.48.63l.1-.07c-2.2-.36-3.58,1.13-5.57.65.15.57-.9.36-.57,1.07-1.9.93-3.78-1.09-4.24,1.25-.89.22-1.13-.41-1.61-.47l.2-.15c-1.67.38-2.15.46-3.41.57-.6.3-.56,1.36-1.72,1.25.31-.47-.14-.33-.56-.28.26-.1.33-.26-.27-.47-.06.14-.17.23-.28.32,0-.03-.03-.05-.03-.1-.69.24-.55.36-.21.37,0,.07.03.14.15.25-.81-.44-2.07.34-2.28-.35-2.19.55-3.65,1.67-5.35,2.58-.34-.27-.02-.74.48-1.06-.43.2-.86.38-1.28.61-.19-.51.66-.58,1.03-.82-.94-.13-1.73.4-2.48,1.01-.76.62-1.47,1.28-2.55,1.56-.04.2-.07.4-.1.6l-.14.02c.14.18-.04.7-.22.93-.52-.18-.68-.86-1.43-.13-.96.21-1.48,1.83-1.88,2.78.41-.39.5-.08.48.2-.29.38-.82.35-.87.77l-.55-.32c.3.09.25.44.15.81-.09.37-.23.75-.16.89-.54,0,.03-.84-.2-1.14-.96,1.71-.51.85-1.34,2.59,0,1.12.61.1.91.77-.26.84-.17,1.76-.86,2.53l.63-.09c-.14,1.62-.46,2.45-1.3,3.3.31,3.09.95,4.8,1.54,5.71.61.91,1.24,1,1.81.7.57-.28,1.08-.94,1.45-1.5.37-.57.6-1.05.6-1.05,1.11-1.88,1.44-3.3,1.69-4.84.25-1.52.42-3.18,1.42-4.98"/>
  <path class="cls-1" d="M62.22,13.68l.2-.16c-.1.03-.19.08-.2.16"/>
  <path class="cls-1" d="M81.3,12.52s.03.02.05.02c-.02-.02-.03-.02-.05-.02"/>
  <path class="cls-1" d="M69.56,10.53h0s.04.01.06.02l-.06-.02Z"/>
  <path class="cls-1" d="M69.52,13.13c-.05-.79.17-1.29.31-1.75.07-.22.12-.44.12-.63.03-.06.02-.02-.09-.04.09-.02-.17-.06-.3-.18-.43-.15-.43-.2-.41-.23.02-.03.06-.04-.28-.27l.48.23c-.23-.15-.37-.28-.12-.15l.13.09c-.33-.26-.11-.16-.26-.29l.13.1-.03-.08.17.15c-.32-.33-.26-.42-.08-.31l-.45-.5c.32.22.25.08.23-.07-.03-.14-.01-.28.27.08l.07.14c-.31-.78-.03-.55.14-.28.19.27.27.55.24-.19,0,.18.07.31.09.45.05-.17.14-.25.11-1.39.12.03.1.37.12.81,0-.5.1-.7.2-.72l-.05.19c.05-.02.06-.05.16-.07l.29-.06v-.95c.26.3-.06,1.15.26.95l.08-.78c.4.2.52,1.4.87,2.01.21.06.42.09.63.09.11,0,.22,0,.33-.01.05,0,.12,0,.15-.02l.05-.04c.14-.11.32-.26.53-.38.39-.24,1-.36.69.37l-.47.53c-.53.56.34-.3.61-.47.09-.06.09-.05-.09.13l.4-.27c-.13.14-.27.3-.46.43,0,.07.12-.04.39-.2-.16.15-.33.3-.5.44-.18.22-.02.17.16.16.18-.02.39,0,.28.16-.54.34-.56.41-.38.55l.08.06s.03.01.05.04l.05.11c.07.15.15.3.23.45.16.29.33.56.48.79,1.29,1.27-2.11,2.79-.64,4.09-.12.04.15.15.25.15l-.11,1.2s-.29,5.83,6.79,1.35l.18.03c.45-.66.55-1.08-.4-1.52,1.15-.08.11-.54.49-.7h.09c-.89-.38.73-.82-.07-1.2.09.01.41.02.43.11-.15-.28-.41-.66.26-.69-.18-.67.12-1.61-.95-2.04l.19.03c-.72-.24-.11-.32-.48-.59.09-.02.13-.04.17-.03-.72-.26-.12-.78-.42-1l.45-.02-.11-.53-.09.2c-.61-.04-.42-.12-.18-.29.24-.21.54-.52.14-.78.08-.29-.56-.48-1.14-.6-.58-.13-1.11-.18-.81-.48-.58-.03.93-.1.48-.29.63-.22.4.04.91-.22-.31-.25.61-.85.13-1.13l.48-.24c-.48-.1-.37-.42-.28-.75.09-.33.16-.65-.27-.58-.56-.29,1.06-1.27-.08-1.23.12-.21.24-.43.34-.65-.1-.25-.55.18-.69.08-.03-.02-.05-.06-.05-.14.32-.28-.08-.52.35-.68-.06-.5-.56-.55-1.02-.59-.48-.05-.91-.08-1.11-.75-.65.68-.91.11-1.37.67.15-.35-1.03-.21-.1-.88.08-.05.17-.03.11.11l.29-.46c-.13-.5-.52-.42-.9-.23-.39.19-.77.47-1.07.37.15.18.41.16.15.47l-.56-.12.21-.39-.86-.33.05.52c-.18-.15-.34-.45-.42-.62-.07-.17-.16-.21-.33.13-.17.39.16.71-.11.84-.29-.38-.72-.95-1.13-1.15-.02.58-.13.54-.26.65l.04-.5c-.51.64-.05-1.11-.54-.61l.08-.34-.22,1.02c-.47.94-.16-1.06-.98.22.3-.06.09,1.11-.23.86l.09-.48c-.2.09-.26.28-.39.17.11-.25.05-.7-.25-.63l.18-.59c-.19.29-.37.57-.52.86-.5-.54-1.07.13-1.39-.52,0,0-.26-.06-.52-.02-.26.05-.52.19-.49.57.03-.48-.54-.54-.59-1.09-.08.56-.56,1.13-1.08.74l.02-.08c-.65-.06-.98.34-1.26.71-.29.38-.49.77-1.1.8.41.4-.16.51.44.96-.08.57-.6.61-.95.79-.35.16-.5.43.36,1.22-.09.39-.66.11-.86.24l-.06-.15c-.16.8-.19,1.01-.4,1.54.15.37,1.14.77.82,1.13-.39-.28-.34-.06-.36.12-.05-.13-.19-.22-.5-.05.12.07.19.14.25.21-.03,0-.06,0-.1-.02.12.35.25.32.32.19.06.02.15.03.26.01-.57.19-.01.86-.73.79.16,1,1,1.64,1.39,2.27-.35.14-.71.02-.89-.19.07.18.15.35.23.52-.53.09-.37-.26-.5-.42-.38.38-.08.76.21,1,.28.2.57.39.25.75h.44s-.06.04-.06.04c.22-.06.54-.02.63.03-.43.19-1.04.27-.95.5-.39.3.35.47.66.64.05-.14.31-.17.48-.15.04.11-.4.28-.18.32l-.61.15c.57-.18.69.13.95.12-.44.16-.43-.08-.78-.03.14.39.07.2.21.59.5.13.58-.14,1.14-.13.16.17.62.33.27.6l.55-.13c.48.35.42.65-.15.89,1.12.71,1.91,1.53,2.59,2.03.68.51,1.3.65,1.8.69.52-.04.99-.33,1.28-.66.3-.32.45-.62.45-.62.78-1.18.63-2.17.25-2.95-.39-.8-1.05-1.46-1.47-2.28"/>
  <path class="cls-1" d="M71.23,8.54l-.22.07c.11-.02.19-.05.22-.07"/>
  <path class="cls-1" d="M71.81,14.59s.03,0,.05,0c-.02,0-.03,0-.05,0"/>
  <path class="cls-1" d="M63.7,10.83h0s-.04,0-.06,0h.06Z"/>
  <path class="cls-1" d="M64.15,9.91c-.22.28-1.28.56-.8.67-.07.12.2.17.34.25.84-.1.03.13.74.07l-.47.1c.24-.02.41-.02.16.04l-.14.02c.36-.03.16.04.34.03l-.14.02.07.03-.2.02c.39,0,.42.05.25.12l.57-.08c-.63.19.57.07-.18.27l-.14.02c1.54-.06-1.02.3.44.26-.18,0-.3.04-.44.05.17.04.26.09,1.4-.02-.01.05-.35.07-.79.12.5-.05.71-.03.74,0h-.19s.18.08.18.08l.94-.1c-.27.08-1.15.11-.91.14l.78-.06c-.15.09-1.32.22-1.89.33-.32.27,1.69.51.32.82l-.59.02c-.86.02,1.27.05.48.07l.39.03c-.15,0-.32.03-.51.01-.03.03.11.03.37.05l-.53.03c-.41.11.62.2.41.32-1.09.12-.1.38.47.58,1.27.31-2.16.31-.71.63-.12,0,.15.04.25.05l-.14.19s-.11.22.67.48c.78.24,2.44.64,6.03.59l.18.03c.47-.1.58-.2-.34-.4,1.15.11.13-.12.51-.11h.09c-.87-.17.75-.11-.03-.28.09.01.41.04.42.06-.14-.08-.39-.19.28-.14-.16-.18.17-.39-.9-.56l.18.02c-.72-.1-.1-.08-.47-.17.09,0,.13,0,.17,0-.71-.1-.1-.19-.4-.25h.45s-.1-.11-.1-.11l-.1.04c-1.22-.06.77-.07-.02-.19.16-.09-2.54-.24-1.94-.3-.57-.05.93.05.49-.01.64,0,.4.04.91.03-.3-.07.66-.09.23-.17h.5c-.91-.1.66-.18-.21-.25-.41-.1,1.48-.08.5-.18l.67-.05c.11-.05-.83-.02-.5-.08.42,0,.34-.07.74-.05.66-.14-.95-.22.17-.41-.83,0-.34-.1-.96-.1.36-.02.05-.16.84-.1.06,0,.05.02-.09.02h.49c.92-.14-.52-.16-.38-.25-.16.04-.11.07-.45.06l.06-.08h.41s.23-.14.23-.14l-.51.05c.26-.08,1.12-.15.4-.17-.4,0-.68.1-.85.05.34-.1.86-.26,1-.38-.57.05-.55.02-.67,0l.5-.04c-.7-.06,1.09-.13.53-.2l.35-.02-1.04.06c-.99-.01,1.02-.15-.33-.13.09.04-1.09.12-.88.05l.48-.03c-.1-.02-.3,0-.21-.04.26,0,.7-.06.61-.09l.6-.03h-.89c.51-.11-.15-.14.52-.24,0,0,.32-.18-.43-.12.46-.03.63-.12,1.17-.16-.52.02-.96-.03-.41-.14h.06c.54-.23-.81-.16-.14-.4-.57.09-.27-.03-1,.09-.74-.03,1.45-.48-.82-.18-.13-.04.52-.16.63-.21h.12c-.2-.09-.23-.12-.19-.22-.23,0-1.27.17-1.03.05.42-.05.34-.07.33-.09.07,0,.22-.02.49-.1-.13.02-.21.02-.28.03.03,0,.06-.01.1-.02-.16-.02-.28.01-.34.04-.06.01-.14.03-.26.06.53-.15-.06-.13.65-.27-.19-.11-.94-.07-1.24-.12.36-.09.69-.13.84-.12l-.15-.06c.53-.11.31-.01.42,0,.83-.28-.89-.03-.14-.31l-.42.07.07-.02c-.22.05-.52.09-.6.09.45-.12,1.05-.23,1.01-.28.43-.15-.25-.08-.51-.08-.07.05-.32.1-.49.12-.02-.02.43-.15.23-.12l.61-.15c-.57.15-.64.08-.89.12.45-.12.4-.05.74-.12-.08-.1-.04-.05-.13-.15-.48.05-.58.15-1.12.26-.13-.02-.57.04-.22-.12l-.54.16c-.44.01-.4-.05.13-.26-2.29.25-3.79.68-4.73.99-.94.31-1.31.52-1.31.52-1.14.51.45.17.94.32"/>
  <path class="cls-1" d="M72.11,7.22l-.21.1c.1-.03.19-.07.21-.1"/>
  <path class="cls-1" d="M73.48,16.01s.03,0,.05.01c-.02,0-.03,0-.05-.01"/>
  <path class="cls-1" d="M64.92,10.54h0s-.04,0-.06,0h.06Z"/>
  <path class="cls-1" d="M65.15,9.12c-.16.42-1.17.82-.65,1.02-.04.18.24.28.42.4.84-.14.06.2.77.12l-.46.15c.24-.03.41-.03.17.07l-.14.03c.36-.04.17.07.35.05l-.14.03.07.04-.2.04c.4,0,.44.08.28.19l.57-.13c-.6.3.59.11-.13.42l-.14.03c1.55-.1-.97.48.49.41-.18,0-.29.06-.43.08.18.06.28.14,1.41-.04,0,.07-.34.11-.78.19.49-.08.71-.05.74,0h-.19s.19.13.19.13l.93-.17c-.26.12-1.13.19-.9.23l.77-.11c-.14.14-1.3.37-1.86.55-.28.45,1.75.75.41,1.28l-.59.06c-.85.06,1.27.03.48.1l.39.03c-.15.02-.32.06-.51.05-.03.05.11.04.37.06l-.53.08c-.41.19.64.29.43.48-1.08.24-.08.62.5.88,1.28.4-2.16.64-.71,1.04-.12,0,.15.05.25.06l-.15.3s-.12.36.66.69c.78.31,2.43.73,6.05.38l.18.03c.48-.18.59-.33-.33-.56,1.15.07.13-.18.51-.2h.09c-.87-.19.76-.23-.03-.42.09.01.41.03.42.07-.14-.11-.39-.26.28-.23-.16-.25.16-.58-.9-.76l.18.02c-.72-.1-.11-.11-.47-.22.09,0,.13,0,.17,0-.71-.11-.11-.27-.41-.35h.45s-.1-.19-.1-.19l-.1.07c-1.22-.02.77-.14-.03-.27.15-.13-2.55-.21-1.95-.34-.57-.04.93.03.49-.05.64-.02.4.03.91,0-.3-.08.65-.17.22-.26l.5-.02c-.91-.11.64-.3-.23-.36-.42-.13,1.47-.18.49-.28l.67-.1c.1-.08-.83,0-.51-.09.42-.02.33-.12.74-.1.65-.23-.97-.28.13-.6-.82.02-.35-.14-.97-.12.36-.04.04-.23.83-.18.07,0,.05.03-.09.04l.49-.03c.91-.22-.53-.19-.4-.34-.16.06-.11.1-.45.1l.05-.13.41-.02.22-.21-.5.08c.25-.12,1.11-.25.38-.27-.41,0-.67.17-.84.09.33-.16.83-.4.96-.58-.57.09-.55.05-.67.03l.49-.07c-.71-.06,1.08-.21.51-.3l.35-.04-1.04.11c-1,0,1.01-.24-.34-.19.09.05-1.08.2-.88.09l.48-.06c-.11-.03-.31,0-.21-.05.26-.02.69-.1.6-.15l.6-.05-.89.02c.49-.18-.17-.21.49-.36,0,0,.29-.26-.45-.17.46-.04.61-.19,1.15-.25-.52.04-.97-.03-.44-.19h.06c.51-.34-.84-.22-.21-.57-.56.13-.28-.04-.99.15-.75-.04,1.38-.71-.86-.26-.14-.06.49-.23.6-.3h.12c-.22-.13-.26-.18-.24-.31-.23,0-1.26.25-1.04.08.42-.07.33-.1.32-.14.07,0,.22-.02.48-.15-.13.03-.21.04-.28.04.03,0,.06-.01.1-.03-.16-.03-.29.02-.33.06-.06.01-.14.04-.25.08.51-.21-.09-.18.61-.39-.22-.16-.97-.1-1.3-.18.35-.12.68-.18.83-.17l-.17-.08c.51-.15.32-.02.43-.01.79-.4-.92-.04-.21-.44l-.41.09.06-.03c-.21.07-.52.12-.59.12.44-.17,1.03-.33.97-.4.41-.21-.27-.12-.54-.12-.06.07-.31.14-.47.17-.03-.03.41-.21.21-.17l.6-.21c-.56.21-.64.1-.89.17.43-.17.4-.07.74-.17-.11-.15-.06-.07-.17-.22-.48.07-.56.21-1.09.36-.14-.03-.58.05-.25-.17l-.52.22c-.46.02-.43-.08.07-.37-2.32.32-3.76.89-4.66,1.32-.89.43-1.22.73-1.22.73-1.04.73.53.3,1.08.54"/>
  <path class="cls-1" d="M74.87,8.26l-.23.07c.11-.01.2-.04.23-.07"/>
  <path class="cls-1" d="M76.3,18.08s.03,0,.05,0c-.02,0-.04,0-.05,0"/>
  <path class="cls-1" d="M67.31,10.83h0s-.04,0-.06,0h.06Z"/>
  <path class="cls-1" d="M67.67,8.76c-.21.56-1.27.84-.75,1.32-.05.27.23.51.4.74.85,0,.06.33.78.37l-.47.12c.25.02.42.05.17.13l-.14.02c.37.02.17.13.35.15l-.14.02.07.08h-.2c.4.09.44.21.28.35l.57-.09c-.61.33.6.26-.14.59l-.14.02c1.55.07-.97.58.51.68-.18-.01-.29.06-.43.07.18.11.29.24,1.42.09,0,.1-.34.13-.78.2.5-.07.71-.01.75.06h-.2s.2.19.2.19l.93-.17c-.25.15-1.14.18-.89.26l.77-.11c-.13.18-1.29.43-1.84.67-.24.69,1.82,1.1.54,1.89l-.58.1c-.85.13,1.28,0,.5.12l.4.02c-.15.04-.31.1-.5.09-.02.07.11.05.38.06l-.52.14c-.38.31.67.38.5.68-1.03.47.04.94.66,1.2,1.34.31-1.97,1.34-.45,1.65-.12.03.16.04.26.02l-.06.47s-.02,2.26,6.79-.39h.18c.42-.32.49-.5-.46-.54,1.14-.18.09-.22.45-.33h.09c-.9-.04.69-.42-.12-.46.09,0,.41-.05.43-.01-.16-.09-.43-.2.23-.3-.21-.23.05-.63-1.03-.65h.19c-.73,0-.12-.12-.5-.17.09-.02.13-.03.17-.04-.72,0-.15-.28-.46-.32l.44-.06-.13-.19-.08.09c-1.22.14.74-.26-.07-.3.13-.16-2.56.07-1.98-.16-.58,0,.93-.07.48-.11.63-.09.4,0,.9-.1-.31-.06.62-.25.18-.32l.49-.07c-.92-.04.61-.39-.27-.38-.43-.11,1.45-.31.46-.35l.66-.16c.1-.09-.82.06-.51-.07.42-.05.32-.15.73-.16.63-.27-.98-.25.09-.65-.82.06-.35-.13-.97-.09.35-.06.02-.25.82-.22.07,0,.06.03-.08.04l.49-.05c.9-.26-.54-.18-.42-.34-.16.06-.11.11-.44.12l.05-.14.41-.03.21-.22-.5.1c.25-.13,1.1-.28.37-.29-.41,0-.67.18-.84.11.33-.17.82-.43.95-.61-.57.09-.55.05-.67.02l.49-.07c-.71-.08,1.08-.21.51-.3l.35-.03-1.04.1c-1-.02,1.01-.22-.34-.21.09.05-1.08.18-.88.07l.48-.05c-.11-.03-.31-.02-.21-.06.26,0,.69-.08.6-.14l.6-.04h-.89c.5-.17-.16-.24.5-.37,0,0,.3-.25-.44-.2.46-.02.62-.16,1.16-.2-.52.02-.97-.09-.43-.22h.06c.53-.31-.82-.3-.17-.6-.57.09-.28-.07-1,.06-.75-.12,1.43-.61-.84-.38-.14-.08.51-.19.62-.26h.12c-.21-.16-.24-.21-.21-.35-.23-.04-1.28.09-1.05-.07.42-.02.34-.06.33-.1.07.02.22,0,.5-.09-.13,0-.21,0-.28,0,.03,0,.06-.01.1-.02-.16-.06-.29-.03-.34.02-.07,0-.15.02-.26.05.53-.15-.07-.22.65-.33-.2-.21-.96-.28-1.27-.43.37-.07.7-.07.85-.04l-.15-.12c.53-.07.32.04.43.07.84-.28-.9-.22-.14-.52l-.42.02.07-.02c-.22.03-.53.03-.61,0,.46-.09,1.07-.14,1.03-.23.43-.14-.25-.19-.52-.25-.07.06-.33.08-.5.08-.02-.05.44-.14.23-.15l.62-.09c-.59.1-.65-.04-.91-.02.46-.09.41.02.76-.02-.08-.18-.04-.09-.13-.28-.48-.04-.59.1-1.14.12-.14-.07-.58-.1-.22-.26l-.55.11c-.45-.11-.4-.22.14-.41-4.69-.64-6.2.58-6.2.58-1.16.66.49.7,1,1.23"/>
  <path class="cls-1" d="M78.22,7.91l-.23.05c.11,0,.2-.02.23-.05"/>
  <path class="cls-1" d="M78.9,15.7s.03,0,.05,0c-.02,0-.03,0-.05,0"/>
  <path class="cls-1" d="M70.49,9.71h0s-.04,0-.06,0h.06Z"/>
  <path class="cls-1" d="M71.01,8.09c-.25.43-1.32.63-.85,1.02-.07.21.19.41.34.6.85.03.03.26.75.32l-.47.08c.24.02.41.05.16.11h-.14c.37.04.16.12.34.13h-.14s.07.07.07.07h-.2c.39.07.42.18.26.28l.58-.05c-.63.24.57.22-.18.46h-.14c1.54.11-1.01.44.45.56-.18-.01-.3.04-.44.04.17.09.27.2,1.41.11,0,.08-.35.09-.79.13.5-.04.71.01.75.07h-.2s.18.15.18.15l.94-.11c-.26.11-1.15.11-.91.18l.78-.06c-.14.14-1.32.3-1.88.47-.29.53,1.73.93.4,1.5l-.58.07c-.85.08,1.28.03.49.11l.39.03c-.15.03-.31.07-.51.06-.03.05.11.04.37.06l-.53.09c-.4.23.64.32.45.55-1.07.34-.03.74.57.97,1.31.29-2.06,1-.57,1.28-.12.02.16.04.25.03l-.09.37s-.19,1.78,6.79-.09h.18c.44-.24.53-.37-.42-.44,1.15-.11.11-.17.48-.25h.09c-.89-.06.71-.31-.09-.36.09,0,.41-.03.43,0-.15-.07-.42-.17.25-.23-.19-.19.1-.5-.98-.54h.19c-.73-.02-.11-.09-.49-.15.09-.01.13-.02.17-.02-.72-.03-.13-.23-.44-.27l.44-.04-.12-.15-.09.07c-1.22.07.76-.18-.04-.24.15-.12-2.55-.03-1.97-.19-.58-.01.93-.02.49-.07.64-.05.4,0,.91-.05-.31-.06.64-.18.2-.25l.5-.04c-.92-.06.63-.29-.24-.31-.42-.1,1.47-.2.48-.26l.67-.11c.1-.07-.83.02-.51-.07.42-.03.33-.11.73-.1.65-.2-.96-.23.14-.51-.82.02-.34-.11-.96-.1.36-.03.04-.2.83-.15.07,0,.05.02-.09.03l.49-.02c.91-.18-.52-.16-.39-.28-.16.04-.11.08-.45.08l.06-.11h.41s.23-.18.23-.18l-.51.06c.26-.09,1.12-.19.39-.21-.41,0-.68.12-.84.06.34-.13.85-.31.99-.45-.57.06-.55.02-.67,0l.5-.04c-.7-.08,1.09-.13.53-.22h.35s-1.04.03-1.04.03c-.99-.04,1.03-.14-.33-.17.09.05-1.09.11-.88.03l.48-.02c-.1-.03-.31-.03-.21-.06.26,0,.7-.04.61-.09h.6s-.89-.04-.89-.04c.51-.12-.15-.19.53-.27,0,0,.32-.19-.42-.17.46,0,.63-.11,1.17-.12-.52,0-.96-.1-.41-.19h.06c.55-.23-.8-.26-.12-.48-.57.05-.27-.06-1,.02-.74-.12,1.47-.43-.81-.32-.13-.07.53-.13.64-.18h.12c-.2-.12-.22-.17-.18-.28-.23-.04-1.29.04-1.04-.08.42,0,.34-.04.34-.07.07.02.22.02.5-.06-.13,0-.21,0-.28,0,.03,0,.06,0,.1,0-.15-.05-.28-.03-.34,0-.06,0-.15.01-.26.03.54-.11-.05-.18.67-.24-.18-.17-.94-.25-1.23-.38.37-.05.7-.04.85,0l-.14-.1c.53-.04.31.04.42.07.85-.2-.88-.2-.1-.42h-.42s.07-.01.07-.01c-.22.02-.53,0-.6-.01.46-.06,1.07-.08,1.04-.15.45-.09-.24-.15-.49-.21-.08.05-.34.06-.5.05-.02-.04.45-.09.24-.11l.63-.05c-.59.06-.65-.05-.9-.04.46-.06.41.03.76.01-.07-.15-.04-.07-.11-.22-.48-.04-.59.06-1.15.06-.13-.06-.57-.1-.2-.21l-.55.07c-.44-.1-.39-.19.17-.32-4.62-.65-6.22.26-6.22.26-1.2.49.44.57.91,1"/>
  <path class="cls-1" d="M35.14,57.61l.29.23c0-.11-.08-.2-.29-.23"/>
  <path class="cls-1" d="M108.79,59.44s.05-.03.07-.05c-.05.02-.07.03-.07.05"/>
  <path class="cls-1" d="M46.41,65.47h-.02s-.05.04-.08.06l.09-.06Z"/>
  <path class="cls-1" d="M31.67,64.84c3.87.24,4.9,1.34,8.9.89,1.91.1,3.95-.14,5.82-.26.89-.85,2.46.02,3.52-.68l.4.49c.36-.24.79-.4,1.15-.13l-.02.14c.55-.35,1.15-.13,1.42-.31l-.03.14.66-.05-.12.2c.95-.38,1.92-.38,2.78-.19l-.06-.58c1.82.69,2.52-.5,4.16.3l-.03.14c2.13-1.49,3.28,1.12,5.47-.28-.27.17.11.3.08.44,1-.14,2.06-.2,2.11-1.34.72.03.58.37.66.82.01-.5.64-.69,1.21-.7l-.27.19,1.63-.12-.29-.95c.85.3.18,1.16,1.01.95v-.78c1.2.19,1.86,1.39,2.99,2,4.77.49,9.98-1.32,14.38.22l.17.6c.05.86,1.28-1.22,1.42-.42l.53-.37c.14.16.44.33.17.52.48.05.49-.09.85-.33l.49.55c1.87.49,3.52-.48,5.5-.19,2.35,1.18,6.89.36,9.5-.11,3.7-1.13,7.8,2.45,11.6,1.12.12.13.44-.13.44-.23l3.41.25s16.57.91,4.23-6.63l.09-.18c-1.85-.52-3.02-.66-4.34.23-.16-1.16-1.53-.18-1.95-.57l.04-.09c-1.17.84-2.32-.82-3.45-.07.05-.09.08-.41.33-.42-.81.12-1.91.33-1.94-.34-1.92.1-4.57-.32-5.84.71l.09-.18c-.73.7-.91.07-1.7.41-.04-.09-.09-.14-.08-.17-.79.68-2.22.02-2.85.3l-.02-.45-1.52.04.56.12c-.24,1.22-1.11-.81-2.25-.06-1.02-.2-2.19,2.46-3.23,1.82-.53.55.48-.91-.29-.5,0-.64.37-.39.2-.9-.76.27-1.2-.7-2.14-.31l-.02-.5c-1.24.86-2.24-.74-3.08.09-1.26.36-.77-1.51-2.1-.59l-.48-.69c-.55-.13-.43.81-1.03.46.05-.42-.76-.37-.39-.76-1.36-.71-2.85.84-4.64-.35-.43.81-1.33.28-1.65.89-.04-.36-1.84-.13-.78-.87.09-.06.25-.04.23.1l.14-.48c-1.01-.96-1.91.44-2.94.26.3.17.71.14.43.47l-.96-.1.21-.41-1.42-.29.18.52c-.69-.29-.91-1.16-1.72-.46-.37.39.64.71-.1.84-.92-.38-2.31-.95-3.5-1.14.09.58-.23.55-.56.65l-.02-.5c-1.29.65-.43-1.11-1.71-.6l.12-.34-.36,1.03c-1.16.95-.58-1.05-1.88.26.5-.07.2,1.11-.4.87l.17-.47c-.34.09-.46.29-.68.18.21-.25.13-.7-.38-.63l.35-.59-.97.86c-.72-.53-1.89.08-2.17-.6,0,0-1.56-.37-1.94.36.33-.45-.53-.65-.27-1.19-.42.51-1.63.91-2.1.34l.09-.06c-1.77-.6-3.06.72-4.64,0,.06.58-.78.25-.58.99-1.66.69-2.99-1.55-3.62.72-.75.11-.88-.55-1.27-.67l.18-.12c-1.41.17-1.82.19-2.86.12-.53.22-.62,1.27-1.55,1.01.31-.42-.08-.34-.43-.35.22-.06.29-.22-.16-.5-.07.13-.17.21-.26.28,0-.03-.02-.06-.01-.11-.59.15-.48.28-.21.34-.01.07,0,.15.09.27-.6-.55-1.69.03-1.76-.7-1.76.16-3.02.89-4.48,1.18-.16-.37.18-.7.6-.85l-1.04.14c.01-.54.6-.31.92-.42-1.24-.86-2.55.87-4,.08l-.3.42-.09-.07c0,.22-.32.53-.53.6-.21-.47,0-1.08-.71-1.05-.57-.45-1.61.23-2.35.5.4.07.27.33.1.5-.36.02-.57-.45-.84-.24l-.04-.63c.15.59-.93.65-1.06.91-.21-.46.55-.41.64-.76-1.44.08-.72.04-2.16.11-.76.49.15.6-.21,1.15-.68.13-1.33.58-2.11.21l.26.55c-1.26.46-2.02.41-2.89-.13-4.67,2.38-5.11,3.95-4.41,4.92.71.97,2.56,1.35,2.56,1.35,3.71,1.15,5.58-.51,9.98-1"/>
  <path class="cls-1" d="M22.2,63.94h-.23c.1.01.2.01.23,0"/>
  <path class="cls-1" d="M23.12,69.38s0-.03.01-.05c0,.02-.01.03-.01.05"/>
  <path class="cls-1" d="M14.6,66.58h0s-.04,0-.06,0h.06Z"/>
  <path class="cls-1" d="M15.2,62.93c-.52.75-1.63,1.09-1.15,2.16-.05.52.3,1.05.55,1.49.87,0,.15.51.88.46l-.44.2c.25-.01.42-.02.18.1l-.13.04c.37-.04.18.08.35.03l-.14.04h.06s-.19.05-.19.05c.38-.08.41-.04.24.01l.57-.12c-.27.08-.2.09-.1.09.14,0,.35.02-.09.1h-.14c.77-.02.51.06.24.09-.27.05-.55.02.17.14-.18-.03-.3,0-.44,0,.16.1.24.23,1.38.3-.02.1-.36.06-.8.04.5.03.7.12.73.21l-.19-.05.16.25h.94c-.28.12-1.15-.03-.93.12l.78.03c-.16.18-1.35.26-1.93.51-.17.53.29,1.24.76,1.88.49.69.89,1.16.76,2.17l-.43.41c-.66.57,1.26-.45.68.09l.41-.13c-.08.14-.13.33-.33.4.09.14.2.05.46-.05l-.24.5c.1.37.45.46.78.47.33,0,.66-.03.86.2.04.63.53.89,1.01.85.5-.03,1-.31,1.32-.54.49-.55.75.02,1.11.57.34.54.74,1.05,1.11.32.02.12.08-.15.08-.25l.62.11s.76.05,1.09-.81c.17-.42.23-1.06.07-2.02-.14-.96-.52-2.23-1.01-3.97v-.19c-.24-.43-.34-.54-.44.41-.06-1.15-.16-.12-.21-.49v-.09c-.11.89-.22-.73-.32.06,0-.09.02-.41.04-.43-.07.14-.19.4-.15-.27-.17.17-.28-.16-.53.89l.03-.18c-.17.71-.08.09-.2.44.01-.09.02-.13.03-.17-.2.69-.18.08-.29.36l.11-.43-.11.08v.1c-.37,1.17.17-.75-.12-.01.04-.14-1.1,2.31-.98,1.69-.3.49.45-.82.19-.45.29-.57.2-.35.42-.81-.19.25.26-.59.03-.24l.26-.42c-.24.38-.18.23-.08.1l.04-.05v.02s-.03.02-.03.03c0,0-.02.02-.06.07-.04.04-.02.02-.1.11h-.02s-.02.03-.04.05c-.01,0,0,0-.02.01.03-.02,0,0,.16-.08.04-.01.05-.02.05-.02h0s0,0,0,0h0s0,0,0,0l-.22.08h0s.01,0,.02-.01c0,0,.02,0,.04-.01,0,0,.22-.06.09-.03-.01,0,0,0-.03,0h-.01c.19-.05.14-.03.23-.06.15-.03.29-.06.35-.07-.09.02-.21.04-.13.03.1-.02.19-.04.29-.05h-.06s.54-.06.54-.06h-.09c.09,0,.26-.01.36-.02.14-.01.19-.01.23-.02.02,0,.07,0,.15-.01.07,0-.08,0-.14,0-.4.01-.68.06-.85.04.34-.04.87-.1,1.02-.18-.57,0-.55-.03-.67-.06h.5c-.68-.13,1.1.02.55-.12l.35.03-1.04-.09c-.98-.19,1.03,0-.3-.25.08.08-1.1-.03-.88-.1l.48.05c-.1-.05-.3-.08-.2-.11.26.04.7.06.62-.03l.6.09-.88-.2c.52-.09-.12-.32.56-.38,0,.01.34-.39-.41-.46.46.07.63-.15,1.18-.1-.52-.1-.96-.35-.42-.52l.06.02c.31-.29-.03-.49-.25-.67-.16-.13-.25-.26,0-.48-.56.13-.3-.13-1.01.07-.4-.1-.07-.34.06-.53.13-.2.09-.28-1.01,0-.15-.07.48-.28.57-.37h.12c-.24-.14-.27-.17-.25-.29-.22.02-1.25.29-1.03.14.41-.08.33-.09.32-.12.07,0,.22-.04.49-.13-.13.03-.21.04-.27.05.03,0,.06-.02.1-.03-.15,0-.28.04-.33.07-.06.01-.14.04-.26.06.52-.15-.06-.1.65-.24-.18-.06-.93-.06-1.21-.17.37-.04.7-.03.84-.02l-.13-.06c.53-.03.3.02.41.03.86-.11-.85-.13-.03-.23l-.4-.03h.07c-.22,0-.5-.04-.57-.06.46,0,1.04.04,1.03,0,.44,0-.17-.09-.36-.16-.09.01-.33-.02-.47-.04,0-.03.45.01.27-.02l.58.07c-.55-.06-.53-.12-.75-.16.43.05.32.08.64.13.02-.07,0-.04.03-.1-.36-.11-.52-.09-.97-.19-.05-.05-.35-.16.03-.12l-.48-.09c-.22-.13-.04-.13.47-.02-.34-.11-.4-.13-1.02-.25-.5-.1-1.02-.16-1.5-.24-.97-.18-1.77-.43-2.39-.51-1.21-.42-1.59-.78-1.61-.73-.69-.26-.65,0-.43.3.23.32.64.71.72,1.17"/>
  <path class="cls-1" d="M130.45,82.4c-.18-.03-.37-.09-.54-.14.05.1.2.18.54.14"/>
  <path class="cls-1" d="M47.61,74.43s-.06.03-.08.05c.05-.02.07-.03.08-.05"/>
  <path class="cls-1" d="M117.62,72.83s.02,0,.02,0c.03-.02.07-.02.09-.04l-.11.04Z"/>
  <path class="cls-1" d="M127.78,74.67s-.02.04-.04.05c-.13.16-.39.14-.58.04-.2-.1-.33-.26-.42-.39-.08-.13-.12-.24-.12-.28h.01s-.17-.05-.25-.06c-.21-.04-.43-.08-.66-.12-.46-.07-.96-.13-1.52-.18-2.12-.5-4.45-.66-6.56-.88-1.14.67-2.75-.47-4.04.05l-.38-.54c-.44.18-.95.26-1.31-.06l.05-.13c-.66.27-1.31-.05-1.64.08l.05-.13-.74-.05.16-.18c-1.12.22-2.2.07-3.14-.24v.59c-1.97-.93-2.88.15-4.63-.87l.04-.14c-2.54,1.19-3.58-1.51-6.18-.37.32-.14-.09-.31-.05-.45-1.13.02-2.34-.03-2.48,1.11-.81-.1-.62-.43-.68-.88-.05.5-.78.63-1.42.59l.31-.16-1.83-.03.26.98c-.93-.38-.12-1.17-1.07-1.04l-.07.78c-1.31-.31-1.97-1.55-3.21-2.25-5.36-.87-11.28.69-16.2-.99l-.19-.6c-.05-.86-1.46,1.17-1.6.38l-.6.36c-.16-.16-.49-.34-.19-.52-.54-.06-.56.08-.96.32l-.55-.56c-2.11-.51-3.97.41-6.2.14-1.33-.58-3.27-.69-5.25-.55-1.98.15-3.98.51-5.44.77-2.06.62-4.27.09-6.5-.43-2.23-.5-4.49-.95-6.58-.2-.14-.12-.49.16-.48.25l-3.85-.02s-1.17.01-2.69.13c-1.52.13-3.41.4-4.83.86-2.87.93-3.83,2.66,3.29,5.92l-.09.19c2.09.35,3.39.45,4.8-.54.26,1.15,1.71.08,2.2.43l-.04.1c1.25-.93,2.62.7,3.82-.12-.05.09-.07.41-.35.43.89-.16,2.1-.43,2.17.24,2.12-.22,5.07.13,6.44-.94l-.09.19c.78-.72,1-.1,1.87-.47.05.09.11.13.1.17.85-.7,2.47-.07,3.15-.36l.04.45,1.68-.07-.63-.11c.24-1.22,1.26.79,2.49.02,1.13.19,2.39-2.46,3.57-1.83.59-.55-.53.92.33.5,0,.64-.41.39-.21.9.84-.28,1.34.7,2.38.3l.02.5c1.37-.86,2.49.77,3.41-.05,1.4-.34.85,1.52,2.33.62l.52.7c.6.14.48-.81,1.14-.44-.07.42.84.39.42.77,1.49.76,3.17-.74,5.11.51.5-.8,1.48-.23,1.85-.82.03.36,2.03.22.83.91-.1.05-.27.03-.25-.11l-.17.48c1.08,1.01,2.12-.34,3.25-.11-.32-.19-.78-.18-.45-.49l1.05.15-.25.39,1.55.37-.17-.53c.75.33.94,1.22,1.87.58.43-.36-.67-.75.16-.83,1,.44,2.49,1.11,3.78,1.39-.07-.58.29-.53.66-.61v.5c1.45-.54.39,1.14,1.82.75l-.16.33.47-1c1.35-.84.56,1.1,2.09-.09-.56.02-.14-1.12.52-.83l-.23.46c.39-.06.53-.25.77-.12-.25.23-.2.68.36.66l-.44.56,1.14-.76c.74.61,2.08.13,2.33.84,0,0,1.67.54,2.16-.14-.4.41.52.71.18,1.21.51-.46,1.88-.73,2.33-.1l-.11.05c1.86.83,3.43-.3,5.07.62,0-.58.88-.14.76-.91,1.92-.45,3.05,1.99,4.06-.16.84,0,.89.68,1.3.86l-.22.09c1.57.05,2.02.1,3.14.35.61-.12.87-1.15,1.85-.72-.4.36.03.35.41.42-.26.02-.36.16.1.53.09-.12.22-.18.33-.23,0,.03.01.06,0,.11.66-.04.57-.19.29-.29.03-.06.02-.15-.06-.28.57.65,1.85.28,1.8,1.01,1.94.18,3.44-.29,5.08-.27.11.4-.33.65-.81.71l1.15.08c-.11.52-.7.18-1.07.22.29.28.62.39.98.43.18.02.35.02.55,0,.3.01.6.01.89,0,1.17-.02,2.2-.12,3.49.18.12-.16.23-.31.33-.46l.16.05c-.09-.21.27-.58.54-.71.25.17.37.42.56.58.19.16.46.24.98-.01.53.01,1.08-.39,1.48-.96.41-.57.61-1.32.71-1.9v-.04s0,.03-.01.03c-.3.44-.42.11-.45-.2.01-.03.03-.06.04-.09.19-.39.61-.46.53-.93l.59.26c-.3-.04-.36-.47-.43-.92-.06-.46-.12-.95-.24-1.09.48-.18.36,1,.65,1.29.11-1.17.06-1.5.07-1.8,0-.3-.01-.61-.04-1.81-.47-.86-.6.15-1.15-.26-.12-.75-.56-1.49-.18-2.35l-.56.27c-.43-1.42-.36-2.26.21-3.21-4.52-10.56-6.22-2.24-6.22-2.24-.62,2.07-.53,3.65-.23,5.32.08.42.17.84.26,1.28.05.22.09.44.14.67l.07.35.04.17.04.02c.19.12.39.38.47.71"/>
  <path class="cls-1" d="M47.67,98.47l-.21.49c.11-.01.19-.13.21-.49"/>
  <path class="cls-1" d="M53.17,219.49s.04.08.06.11c-.03-.08-.05-.1-.06-.11"/>
  <path class="cls-1" d="M40.56,117.39s0-.02,0-.02c-.02-.04-.04-.09-.06-.12l.07.15Z"/>
  <path class="cls-1" d="M40.23,92.93c-.03,6.42-1.05,8.17-.34,14.8.04,3.17.42,6.55.67,9.64.9,1.44.17,4.07.95,5.78l-.45.69c.27.59.46,1.29.22,1.9l-.14-.03c.4.88.22,1.9.42,2.34l-.14-.03.11,1.09-.21-.18c.45,1.55.53,3.16.41,4.58l.58-.14c-.53,3.06.72,4.12.06,6.89l-.14-.03c1.67,3.4-.83,5.51.77,9.02-.2-.44-.29.2-.43.17.23,1.64.39,3.39,1.53,3.37.03,1.2-.32.99-.75,1.16.5-.03.75,1,.82,1.94l-.21-.42.27,2.67.92-.56c-.21,1.43-1.14.41-.85,1.76l.78-.05c-.08,1.97-1.21,3.17-1.71,5.09-.02,7.92,2.3,16.33,1.22,23.74l-.57.35c-.85.18,1.35,1.98.57,2.29l.43.84c-.14.25-.29.76-.5.34,0,.79.14.81.42,1.37l-.5.87c-.28,3.15.87,5.77.84,9.08-.89,4.03.62,11.48,1.63,15.72.82,2.66.78,5.6.71,8.6l-.04,2.26v.85s0,.15,0,.15l.02.24c.04.63.08,1.28.16,1.91.16,1.27.51,2.46,1.12,3.47.6,1,1.49,1.83,2.56,2.3.99.43,2.04.54,3.1.4.29.16,1.22-.24,1.21-.34.77-.08,1.52-.14,2.31-.29l.98-.18.76-.16c1.01-.21,2-.46,2.99-.74,0,0,1.81-.51,4.03-1.52,2.23-1.01,4.83-2.59,6.51-4.19,1.7-1.59,2.51-3.06,1.62-3.59-.45-.29-1.3-.32-2.69-.18-1.38.14-3.3.46-5.84.75l.03-.22c-2.76.85-4.39,1.31-6.01,2.79-.61-.99-2.29.49-3.03.26l.04-.1c-.06.06-.19.12-.2.16-.03.04-.06.07-.09.1-.06.06-.15.1-.23.12-.16.04-.33.02-.47-.03-.3-.1-.47-.3-.73-.37-.12-.03-.26-.04-.46,0,.09-.07.33-.35.45-.29-.46-.06-.8-.69-.17-1-.04-.09-.07-.19-.09-.3l-.04-.2c-.03-.21-.07-.43-.1-.64-.14-.86-.26-1.75-.41-2.59-.29-1.7-.67-3.25-1.3-4.18l.2.12c-.84-1.05-.27-1.45-.76-2.68.08-.08.12-.17.16-.16-.84-1.17-.45-3.61-.84-4.58l.44-.1-.3-2.47-.02.93c-1.25-.23.62-1.93-.3-3.67.04-1.69-2.76-3.26-2.26-5.05-.62-.81.97.69.46-.54.63-.08.43.56.92.21-.37-1.21.54-2.05.03-3.54l.49-.09c-1.01-1.93.48-3.76-.45-5.04-.5-2.02,1.42-1.43.35-3.52l.64-.85c.07-.91-.85-.62-.57-1.64.43.04.29-1.29.71-.71.57-2.31-1.12-4.61-.12-7.66-.85-.62-.42-2.16-1.06-2.62.36-.1-.06-3.04.78-1.37.07.14.07.4-.07.39l.5.18c.85-1.75-.63-3.1-.55-4.81-.14.51-.07,1.18-.43.75v-1.58s.43.31.43.31l.15-2.36-.5.34c.22-1.16,1.07-1.6.29-2.87-.43-.57-.64,1.12-.85-.09.29-1.55.72-3.88.79-5.85-.57.21-.57-.32-.7-.86l.49-.08c-.77-2.06,1.06-.81.43-2.86l.35.17-1.06-.51c-1.06-1.83.99-1.05-.43-3.07.12.82-1.08.43-.91-.59l.49.24c-.12-.56-.33-.74-.25-1.11.27.32.71.15.59-.67l.62.53-.95-1.52c.47-1.22-.25-3.1.4-3.62,0,0,.23-2.59-.53-3.15.48.5.6-.93,1.16-.55-.55-.65-1.05-2.61-.53-3.42l.07.15c.45-2.95-.97-4.97-.39-7.62-.57.14-.31-1.26-1.04-.88-.84-2.69,1.31-5.01-1.01-5.9-.17-1.23.48-1.48.57-2.13l.13.29c-.28-2.31-.33-2.98-.34-4.7-.26-.85-1.32-.94-1.13-2.49.44.48.34-.15.32-.72.08.36.24.47.49-.29-.14-.1-.22-.26-.29-.41.03,0,.06-.04.1-.03-.19-.96-.31-.78-.35-.33-.07-.02-.15.02-.26.16.51-1.02-.15-2.78.57-2.92-.28-2.88-1.11-4.91-1.49-7.3.36-.28.71.26.89.96l-.2-1.7c.54,0,.35.97.47,1.49.79-2.06-1.03-4.15-.33-6.56l-.44-.48.06-.14c-.22.02-.55-.5-.64-.86.45-.35,1.08-.02,1-1.19.41-.95-.33-2.64-.63-3.85-.05.66-.32.46-.5.18-.04-.59.41-.95.2-1.39l.63-.08c-.59.26-.7-1.51-.97-1.72.45-.35.44.9.8,1.03-.15-2.36-.08-1.18-.23-3.54-.53-1.24-.59.25-1.16-.33-.17-1.11-.65-2.17-.32-3.47l-.54.42c-.52-2.07-.5-3.32,0-4.75-5.17-15.38-6.35-3.03-6.35-3.03-.99,6.18.76,9.28,1.48,16.55"/>
  <path class="cls-1" d="M58.71,208.98l.19-.44c-.11.02-.19.13-.19.44"/>
  <path class="cls-1" d="M54.38,105.21s-.03-.07-.06-.09c.02.07.04.09.06.09"/>
  <path class="cls-1" d="M65.32,192.56s0,.02,0,.02c.02.03.04.07.06.1l-.06-.12Z"/>
  <path class="cls-1" d="M66.46,213.05c-.4-5.39.54-6.91-.37-12.41-.11-2.65-.53-5.46-.77-8.05-.89-1.2-.14-3.41-.87-4.85l.47-.58c-.25-.5-.42-1.09-.17-1.6l.14.03c-.38-.75-.16-1.6-.34-1.98l.14.03-.07-.92.2.16c-.38-1.32-.41-2.68-.22-3.89l-.58.1c.67-2.57-.51-3.53.29-5.85l.14.04c-1.48-2.98,1.13-4.66-.27-7.75.17.38.3-.16.44-.13-.14-1.41-.21-2.93-1.35-2.96.03-1.03.36-.84.81-.97-.5,0-.7-.9-.72-1.7l.19.37-.16-2.31-.95.45c.28-1.22,1.15-.31.92-1.49l-.78.02c.15-1.69,1.32-2.7,1.87-4.37.07-1.73-.11-3.46-.33-5.2-.22-1.74-.49-3.49-.74-5.22-.48-3.46-.83-6.86-.33-10.08l.57-.32c.86-.19-1.38-1.65-.61-1.94l-.44-.7c.14-.22.27-.66.49-.31-.02-.68-.16-.68-.45-1.15l.48-.76c.22-2.69-.97-4.89-.97-7.71.84-3.45-.62-9.72-1.47-13.33-1.65-5.04,1.32-11.27-.53-16.42.11-.18-.2-.6-.29-.59l-.23-4.82s-1.38-23.36-7.17-5.11l-.19-.11c-.26,2.67-.24,4.33.83,6.08-1.13.37.04,2.17-.29,2.82l-.1-.05c1,1.54-.49,3.36.41,4.85-.1-.05-.41-.06-.46-.42.23,1.12.6,2.64-.07,2.78.37,2.68.34,6.47,1.53,8.12l-.19-.11c.79.93.2,1.27.65,2.34-.08.07-.12.15-.16.14.79,1.02.34,3.12.71,3.96l-.44.09.26,2.13.04-.8c1.24.19-.65,1.67.26,3.16-.05,1.46,2.75,2.75,2.26,4.3.62.68-.97-.57-.46.47-.63.08-.44-.47-.92-.16.38,1.03-.52,1.78,0,3.04l-.49.09c1.03,1.63-.42,3.25.53,4.31.54,1.72-1.39,1.28-.28,3.03l-.62.76c-.05.79.86.5.6,1.38-.43-.02-.26,1.12-.7.64-.55,1.98,1.17,3.87.2,6.49.85.51.44,1.82,1.08,2.2-.35.09.09,2.58-.77,1.17-.07-.12-.07-.34.07-.33l-.5-.15c-.84,1.5.66,2.62.6,4.06.14-.43.06-1,.42-.63v1.34s-.42-.26-.42-.26l-.12,2,.49-.29c-.21.99-1.05,1.35-.27,2.43.43.49.63-.94.85.08-.25,1.32-.77,3.26-.9,4.92.57-.16.56.29.68.75l-.5.06c.7,1.76-1.09.65-.54,2.39l-.35-.16,1.04.46c.98,1.59-1.03.84.3,2.62-.08-.7,1.1-.32.88.54l-.48-.22c.1.48.3.64.2.95-.26-.29-.7-.16-.62.54l-.6-.47.87,1.33c-.53,1.01.09,2.64-.59,3.05,0,0-.37,2.2.36,2.72-.45-.45-.65.76-1.19.41.51.58.91,2.28.34,2.95l-.06-.13c-.61,2.5.71,4.31,0,6.57.58-.1.25,1.1.99.81.71,2.34-1.51,4.29.78,5.13.14,1.07-.52,1.27-.63,1.83l-.12-.25c.22,2.01.26,2.59.25,4.08.25.74,1.31.81,1.11,2.15-.44-.41-.34.13-.32.62-.08-.32-.24-.41-.49.26.14.09.22.22.29.35-.03,0-.06.03-.1.02.19.82.31.67.35.28.07.02.15-.02.26-.15-.51.89.16,2.4-.56,2.54.31,2.49,1.19,4.22,1.65,6.26-.35.27-.72-.19-.91-.78l.26,1.46c-.54.03-.38-.82-.52-1.26-.72,1.83,1.17,3.53.6,5.66l.47.38-.06.13c.22-.03.58.4.68.69-.43.34-1.08.1-.93,1.11-.35.85.49,2.25.88,3.27,0-.57.28-.42.48-.2.08.5-.34.86-.09,1.22l-.62.13c.56-.28.82,1.23,1.1,1.38-.42.35-.51-.73-.88-.8.35,2.02.18,1.01.53,3.02.64,1.01.56-.29,1.18.15.27.93.84,1.78.65,2.93l.49-.43c.72,1.7.84,2.76.5,4.06,3.47,6.15,5.2,6.45,5.95,5.32.77-1.14.68-3.74.68-3.74.27-5.26-1.8-7.57-3.05-13.6"/>
  <path class="cls-1" d="M113.12,103.13l-.23.47c.11,0,.2-.13.23-.47"/>
  <path class="cls-1" d="M118.58,221.4s.03.08.05.12c-.02-.08-.03-.11-.05-.12"/>
  <path class="cls-1" d="M105.5,121.4v-.02s-.04-.09-.06-.12l.06.15Z"/>
  <path class="cls-1" d="M105.85,97.53c-.21,6.27-1.27,7.94-.75,14.42-.05,3.1.24,6.39.4,9.42.86,1.43.06,3.97.79,5.66l-.47.66c.25.58.42,1.27.17,1.86l-.14-.04c.37.87.17,1.86.35,2.29l-.14-.04.08,1.06-.2-.18c.4,1.52.45,3.09.29,4.48l.58-.12c-.61,2.97.6,4.04-.14,6.72l-.14-.04c1.57,3.36-.98,5.35.52,8.82-.19-.43-.3.19-.44.16.19,1.61.3,3.32,1.44,3.33,0,1.17-.34.96-.78,1.12.5-.01.73,1,.77,1.92l-.2-.42.22,2.62.93-.54c-.24,1.4-1.14.38-.88,1.71l.78-.04c-.11,1.93-1.25,3.1-1.76,5-.02,3.91.62,7.95,1.24,11.92.64,3.97,1.23,7.83,1,11.49l-.54.39c-.83.25,1.51,1.81.76,2.18l.49.78c-.12.25-.22.77-.47.38.06.77.21.77.53,1.29l-.43.89c-.03,3.06,1.3,5.48,1.41,8.65-.66,3.88.79,10.78,1.25,14.83,1.17,4.6-2.32,12.21-2.17,11.42-.1.18-.24.31-.39.47-.09-.15-.16.12-.15.23-.29-.12-.58-.25-.85-.38l-.09-.05-.18-.08-.59-.26c-.39-.17-.78-.35-1.16-.54,0,0-1.41-.64-3.25-1.54-1.84-.89-4.08-2.07-5.9-2.88-1.82-.8-3.28-1.2-3.63-.23-.3.94.37,3.4,4.01,7.7l-.22.08c2.5,2.02,4.33,3.01,6.71,3.05-.08.6.52.88,1.19,1.1.26.07.92.28,1.35.41.46.15.85.29,1.11.48l-.11.06c.33.01.64.05.95.12.31.06.6.09.91.17.61.15,1.22.38,1.82.47.6.12,1.21.17,1.81.08.6-.08,1.18-.35,1.62-.75.21-.21.4-.45.53-.72-.01.14.17.46-.3.85.74-.66,1.25-1.61,1.61-2.44.23-.96.5-1.63.81-1.53.14-.64.29-1.3.44-1.99.08-.34.16-.69.24-1.04.08-.34.18-.74.19-.94.11-.91.22-1.84.3-2.74.12-1.8.06-3.46-.41-4.52l.18.15c-.67-1.21-.04-1.52-.35-2.83.09-.07.14-.16.18-.14-.7-1.28-.06-3.69-.41-4.7l.44-.08-.17-2.5-.07.94c-1.22-.28.69-1.92-.2-3.69.03-1.71-2.77-3.21-2.35-4.97-.65-.77,1,.64.44-.55.63-.1.45.54.93.17-.42-1.18.46-2.06-.14-3.5l.49-.11c-1.11-1.85.22-3.74-.79-4.93-.66-1.94,1.3-1.52.07-3.47l.57-.89c0-.9-.9-.53-.7-1.55.43,0,.18-1.28.65-.76.38-2.29-1.49-4.36-.7-7.37-.88-.54-.54-2.04-1.21-2.44.34-.11-.21-2.91.71-1.35.08.13.09.38-.05.38l.5.15c.77-1.71-.77-2.92-.74-4.56-.13.49-.04,1.13-.41.73l-.04-1.52.43.29.1-2.27-.49.34c.2-1.12,1.04-1.55.26-2.76-.43-.54-.64,1.08-.85-.08.27-1.5.71-3.74.8-5.64-.57.19-.56-.32-.7-.84l.5-.08c-.75-2,1.07-.77.47-2.75l.35.17-1.05-.5c-1.03-1.79,1.01-1-.37-2.98.1.79-1.09.4-.89-.59l.48.24c-.11-.54-.31-.72-.22-1.08.26.32.7.16.61-.64l.61.53-.91-1.5c.5-1.17-.17-3.02.5-3.51,0,0,.3-2.52-.45-3.09.47.5.63-.89,1.17-.5-.53-.65-.98-2.57-.43-3.35l.06.15c.53-2.86-.84-4.87-.18-7.44-.58.12-.28-1.23-1.01-.89-.76-2.64,1.44-4.85-.85-5.78-.14-1.2.52-1.43.63-2.06l.12.28c-.21-2.26-.24-2.91-.21-4.59-.23-.83-1.29-.95-1.06-2.46.43.48.34-.13.34-.69.07.36.23.47.5-.27-.13-.1-.21-.26-.28-.41.03,0,.06-.04.1-.02-.16-.94-.29-.77-.34-.33-.07-.02-.15.02-.26.15.53-.98-.07-2.71.65-2.84-.2-2.81-.97-4.82-1.28-7.16.37-.27.71.28.86.96l-.16-1.66c.54,0,.32.95.43,1.46.84-1.99-.91-4.07-.15-6.41l-.43-.48.07-.14c-.22,0-.54-.51-.61-.85.46-.33,1.08.01,1.03-1.14.44-.92-.26-2.58-.52-3.77-.07.64-.33.44-.5.17-.02-.58.44-.91.23-1.35l.63-.06c-.59.23-.66-1.49-.92-1.7.46-.33.41.89.77,1.03-.09-2.31-.04-1.15-.13-3.46-.49-1.22-.59.23-1.15-.35-.14-1.08-.59-2.14-.22-3.39l-.55.4c-.46-2.03-.41-3.26.14-4.64-4.74-15.14-6.26-3.13-6.26-3.13-1.16,6,.5,9.07,1.02,16.18"/>
  <path class="cls-1" d="M98.72,210.36l.2-.42c-.11.01-.19.12-.2.42"/>
  <path class="cls-1" d="M92.89,107.01s-.03-.07-.05-.1c.02.07.04.09.05.1"/>
  <path class="cls-1" d="M105.45,194s0,.02,0,.02c.03.03.04.07.07.1l-.07-.12Z"/>
  <path class="cls-1" d="M106.29,214.75c-.14-5.46.83-6.98,0-12.58-.1-2.69-.54-5.54-.83-8.15-.92-1.19-.22-3.44-1.01-4.88l.45-.6c-.27-.49-.47-1.08-.24-1.61l.14.03c-.4-.74-.23-1.61-.43-1.97l.14.03-.11-.92.21.15c-.45-1.3-.54-2.67-.42-3.87l-.58.13c.55-2.6-.71-3.49-.02-5.83l.14.03c-1.64-2.88.89-4.66-.64-7.64.19.37.29-.17.44-.14-.19-1.38-.31-2.87-1.45-2.87,0-1.02.34-.83.78-.97-.5.01-.73-.87-.76-1.66l.2.36-.19-2.27-.94.45c.26-1.21,1.15-.32.91-1.47l-.78.02c.14-1.67,1.33-2.65,1.9-4.26.34-6.75-1.63-14.03-.8-20.53l.56-.33c.85-.2-1.43-1.67-.66-1.99l-.47-.71c.13-.22.25-.69.48-.34-.04-.7-.19-.7-.5-1.16l.44-.8c.07-2.76-1.29-4.88-1.46-7.66.31-1.73,0-4.08-.42-6.41-.46-2.3-.93-4.66-1.27-6.39-1.39-4.88,2.88-10.52,1.43-16.27.12-.19-.16-.66-.26-.65.02-1.72-.04-3.45-.19-5.17,0,0-.14-1.57-.59-3.58-.44-2.01-1.24-4.44-2.23-6.14-.98-1.71-2.05-2.69-2.83-2.04-.83.63-1.22,2.9-1.97,7.35l-.21-.07c.11,2.5.21,3.97,1.33,5.56-1.11.38.06,2.02-.3,2.62l-.1-.05c.96,1.47-.68,3.06.05,4.55-.09-.06-.4-.11-.41-.45.11,1.07.27,2.59-.4,2.62,0,2.59-.62,6.43.4,8.29l-.18-.13c.68,1.05.06,1.33.41,2.49-.09.06-.13.14-.17.13.71,1.12.17,3.26.54,4.15l-.44.08c.07.74.17,1.47.26,2.2l.03-.83c1.24.18-.64,1.73.33,3.23,0,1.5,2.88,2.65,2.48,4.21.66.63-1.01-.5-.43.5-.63.12-.46-.44-.93-.1.44,1.01-.41,1.81.2,3.03l-.48.12c1.14,1.55-.2,3.24.8,4.22.63,1.66-1.32,1.32-.14,2.97l-.6.75c-.03.76.88.45.63,1.31-.43,0-.24,1.08-.69.63-.5,1.91,1.23,3.76.21,6.32.84.51.4,1.79,1.03,2.19-.35.08,0,2.55-.81,1.14-.07-.12-.06-.34.08-.33l-.49-.16c-.89,1.45.56,2.6.43,4.04.16-.43.11-.99.45-.62l-.06,1.33-.41-.27-.23,1.99.51-.28c-.26.97-1.13,1.32-.4,2.42.4.5.69-.93.85.11-.35,1.31-.87,3.28-1.02,4.96.57-.16.55.29.67.76l-.5.06c.7,1.79-1.09.66-.53,2.44l-.35-.16,1.05.46c1,1.6-1.03.88.34,2.65-.09-.71,1.09-.35.89.52l-.48-.21c.11.48.32.64.22.96-.27-.28-.7-.14-.61.57l-.61-.46.91,1.32c-.5,1.04.18,2.66-.48,3.1,0,0-.27,2.22.48,2.71-.47-.43-.62.8-1.17.46.54.56,1.02,2.24.49,2.93l-.07-.13c-.49,2.53.94,4.26.35,6.54.57-.13.31,1.07,1.04.75.84,2.29-1.3,4.31,1.03,5.03.18,1.05-.47,1.28-.55,1.83l-.13-.25c.29,1.97.35,2.54.38,4.01.27.72,1.33.77,1.15,2.1-.45-.4-.34.13-.31.62-.08-.31-.24-.4-.49.27.14.08.22.22.3.34-.03,0-.06.03-.1.03.2.81.32.66.36.27.07.02.15-.02.26-.15-.49.88.19,2.37-.52,2.51.32,2.45,1.2,4.16,1.62,6.18-.36.26-.72-.2-.9-.78l.24,1.44c-.54.03-.37-.81-.51-1.25-.75,1.79,1.12,3.5.48,5.59l.45.39-.06.13c.22-.02.56.41.66.7-.44.32-1.08.06-.97,1.06-.39.83.39,2.24.73,3.25.03-.56.31-.4.49-.18.05.5-.39.83-.16,1.2l-.62.1c.58-.24.74,1.26,1.01,1.42-.44.32-.46-.75-.82-.84.22,2,.11,1,.33,3.01.56,1.03.58-.24,1.17.23.2.94.71,1.82.42,2.94l.53-.39c.58,1.74.6,2.81.13,4.05,5.63,12.85,6.43,2.28,6.43,2.28.81-5.3-1.04-7.86-1.96-14.01"/>
  <path class="cls-1" d="M33.91,188.36l.03.23c0-.11,0-.2-.03-.23"/>
  <path class="cls-1" d="M44.07,188.83s0-.03.01-.05c0,.02-.01.04-.01.05"/>
  <path class="cls-1" d="M35.04,196.27h0s0,.03-.01.06l.02-.06Z"/>
  <path class="cls-1" d="M33.03,195.53c.52.31.6,1.4,1.18.99.26.1.56-.13.82-.25.17-.84.34,0,.53-.69l.03.48c.06-.24.13-.4.17-.14v.14c.08-.36.16-.14.2-.32v.14s.08-.06.08-.06l-.03.2c.15-.38.29-.39.4-.21l.02-.58c.22.66.38-.53.56.25v.14c.36-1.51.39,1.07.77-.37-.05.18,0,.3-.01.44.15-.16.3-.24.36-1.38.1.02.06.36.05.8.03-.5.12-.7.21-.73l-.05.19.23-.16v-.94c.11.28-.02,1.15.1.93l.04-.78c.16.16.19,1.35.32,1.93.64.37,1.46-1.58,2-.17v.59c-.04.86.23-1.26.21-.46l.09-.39c.01.15.05.32,0,.51.07.04.07-.1.14-.36l.04.54c.24.43.52-.59.78-.36.27,1.11.95.14,1.34-.42.57-1.25.97,2.19,1.57.75.01.12.07-.15.07-.25l.47.15s2.27.45.92-6.74l.02-.18c-.23-.47-.39-.58-.62.35.03-1.15-.21-.13-.25-.51v-.09c-.2.88-.27-.75-.47.03.01-.09.03-.41.07-.42-.12.14-.28.39-.26-.28-.27.16-.63-.17-.85.89l.02-.18c-.14.72-.13.1-.26.46,0-.09,0-.13,0-.17-.15.71-.31.09-.42.39l.02-.44-.21.09.07.1c-.09,1.22-.12-.77-.31,0-.13-.16-.43,2.53-.54,1.92-.1.57.11-.93-.02-.49.03-.64.07-.4.07-.91-.12.3-.13-.66-.28-.24l.02-.5c-.22.9-.28-.67-.44.19-.19.4-.03-1.48-.27-.52l-.03-.67c-.07-.11-.1.82-.17.49.03-.42-.09-.34-.02-.74-.16-.67-.44.92-.63-.21-.1.82-.2.32-.27.94.01-.36-.25-.07-.07-.84.02-.06.04-.05.03.09l.04-.49c-.09-.93-.29.49-.42.34.03.16.09.12.04.46l-.13-.07.05-.41-.18-.25v.51c-.08-.27-.07-1.13-.22-.42-.07.4.05.69-.06.85-.11-.35-.27-.89-.43-1.05-.02.57-.06.55-.11.66l.02-.5c-.21.68,0-1.1-.21-.56l.03-.34-.1,1.04c-.21.98-.03-1.04-.28.3.07-.08-.03,1.1-.1.88l.05-.48c-.05.1-.08.3-.1.2.04-.26.05-.7-.02-.62l.08-.6-.18.88c-.07-.52-.27.12-.27-.56,0,0-.2-.34-.29.39.07-.46-.04-.64.02-1.18-.08.52-.27.93-.31.38l.02-.06c-.21-.58-.46.75-.64.05-.02.58-.12.26-.13,1-.27.72-.33-1.52-.54.75-.11.12-.09-.54-.14-.66l.03-.12c-.2.17-.26.19-.4.13-.08.22-.15,1.28-.27,1.01.07-.42,0-.34-.04-.35.03-.06.05-.22,0-.5-.02.13-.03.21-.05.28,0-.03,0-.06,0-.1-.09.15-.08.28-.05.34,0,.07,0,.15,0,.26-.05-.55-.23.02-.2-.7-.25.15-.46.89-.68,1.16,0-.37.06-.7.13-.84l-.15.13c.03-.53.1-.3.15-.41-.12-.88-.4.84-.55.04l-.06.42v-.07c-.02.22-.08.53-.11.6,0-.47.06-1.07-.04-1.05-.05-.45-.23.21-.35.46.05.08.02.34-.01.5-.05.01-.05-.45-.1-.26l.03-.63c-.01.59-.16.63-.2.89,0-.47.1-.4.13-.75-.2.05-.1.03-.3.07-.13.47-.01.6-.09,1.15-.1.12-.22.55-.3.17v.56c-.2.42-.3.35-.38-.22-1.55,4.48-.61,6.2-.61,6.2.45,1.26.8-.35,1.43-.75"/>
  <path class="cls-1" d="M31.67,196.77l.05.23c0-.11-.02-.2-.05-.23"/>
  <path class="cls-1" d="M42.97,196.55s0-.03,0-.05c0,.02,0,.04,0,.05"/>
  <path class="cls-1" d="M33.5,204.59h0s0,.04-.01.06v-.06Z"/>
  <path class="cls-1" d="M31.22,203.99c.6.27.77,1.36,1.39.91.3.08.61-.17.9-.3.13-.85.38-.02.53-.73l.07.48c.05-.24.12-.41.18-.15v.14c.08-.37.17-.15.21-.33v.14s.1-.06.1-.06l-.02.2c.14-.39.29-.41.42-.24l-.02-.58c.29.64.38-.56.64.21v.14c.3-1.54.52,1.04.84-.42-.04.18.02.3.02.44.15-.17.31-.26.3-1.4.11.01.1.36.12.8,0-.5.09-.71.17-.74l-.04.19.25-.17-.06-.94c.14.27.05,1.15.17.92v-.78c.17.15.3,1.33.48,1.91.74.33,1.51-1.68,2.21-.31l.04.59c.02.86.17-1.27.21-.48l.08-.39c.03.15.07.32.04.51.07.03.07-.11.12-.37l.09.53c.3.41.53-.62.84-.42.38,1.08,1.06.08,1.45-.51.54-1.29,1.24,2.12,1.79.64.02.12.07-.15.06-.25l.53.12s2.55.3.53-6.78v-.18c-.28-.45-.46-.55-.65.39-.05-1.15-.24-.12-.31-.49v-.09c-.16.89-.36-.73-.52.06,0-.09,0-.41.04-.43-.12.15-.29.4-.3-.27-.29.18-.71-.13-.88.95v-.18c-.09.72-.13.11-.24.48,0-.09-.02-.13-.02-.17-.11.71-.34.12-.43.42v-.45s-.24.11-.24.11l.09.09c-.01,1.23-.18-.76-.34.03-.16-.15-.29,2.55-.46,1.95-.07.57.06-.93-.05-.49-.01-.64.05-.4.01-.91-.11.3-.2-.65-.33-.22v-.5c-.19.91-.37-.65-.48.22-.18.41-.15-1.47-.33-.5l-.08-.67c-.09-.11-.05.83-.15.5,0-.42-.12-.34-.07-.74-.22-.66-.42.95-.72-.17-.05.83-.2.34-.24.96-.01-.36-.29-.05-.14-.84.01-.06.04-.05.04.09v-.49c-.16-.92-.27.51-.43.37.05.16.11.12.07.45l-.15-.06.02-.41-.22-.24.04.51c-.11-.26-.16-1.13-.27-.4-.05.4.11.68,0,.84-.15-.34-.37-.87-.55-1.01.03.57-.02.55-.07.67v-.5c-.2.69-.1-1.09-.28-.54v-.35s-.03,1.04-.03,1.04c-.16.99-.11-1.03-.28.32.08-.09.05,1.1-.05.88l.02-.48c-.05.1-.07.3-.1.2.03-.26,0-.7-.07-.62l.04-.6-.13.89c-.12-.51-.29.13-.34-.54,0,0-.24-.33-.29.41.04-.46-.09-.64-.06-1.18-.06.52-.23.95-.32.4v-.06c-.27-.56-.44.78-.7.1.02.58-.11.26-.07,1-.24.73-.48-1.5-.54.79-.11.12-.14-.53-.2-.65l.03-.12c-.21.19-.28.21-.44.16-.08.22-.08,1.29-.22,1.03.04-.42-.02-.34-.07-.34.03-.07.04-.22-.03-.5,0,.13-.02.21-.04.28,0-.03,0-.06,0-.1-.09.15-.07.28-.03.34,0,.06,0,.15.02.26-.1-.54-.26.04-.28-.68-.27.17-.45.92-.67,1.21-.03-.37.02-.7.08-.85l-.16.14c0-.54.09-.31.14-.42-.2-.86-.38.87-.61.08l-.04.42v-.07c-.01.22-.06.53-.09.6-.04-.47-.01-1.08-.12-1.05-.09-.45-.24.23-.35.48.06.08.05.34.02.5-.05.02-.09-.45-.13-.25v-.63c.02.59-.15.64-.16.9-.04-.47.08-.4.09-.75-.22.06-.11.03-.33.09-.11.48.03.6-.02,1.15-.1.12-.2.57-.32.19l.04.56c-.19.43-.31.37-.44-.19-1.4,4.57-.23,6.23-.23,6.23.59,1.23.86-.4,1.54-.85"/>
  <path class="cls-1" d="M65.66,190.64l.08.24c0-.11,0-.2-.08-.24"/>
  <path class="cls-1" d="M91.23,192.22s.02-.03.03-.05c-.02.02-.02.03-.03.05"/>
  <path class="cls-1" d="M68.93,198.8h0s-.02.03-.03.06l.04-.06Z"/>
  <path class="cls-1" d="M63.76,197.7c1.34.41,1.61,1.52,3.07,1.21.67.14,1.42-.04,2.09-.12.38-.82.87.06,1.3-.62l.11.49c.15-.23.31-.38.42-.11l-.02.14c.22-.35.42-.11.53-.29l-.02.14.24-.04-.06.19c.36-.36.71-.36,1-.16l.02-.58c.6.69.93-.49,1.45.32l-.02.14c.85-1.47,1.1,1.12,1.96-.27-.11.17.02.3,0,.44.36-.14.74-.2.83-1.34.25.03.18.37.19.81.03-.5.27-.69.47-.71l-.1.19.58-.13-.05-.95c.28.29,0,1.15.31.94l.05-.78c.41.18.58,1.38.95,1.98,1.67.44,3.6-1.45,5.1.01l.04.59c-.02.86.5-1.25.52-.45l.2-.38c.04.15.14.32.04.51.17.04.18-.1.31-.35l.15.54c.65.45,1.27-.55,1.96-.31.79,1.13,2.43.2,3.37-.35,1.33-1.23,2.71,2.23,4.08.81.04.12.16-.15.16-.25l1.2.16s1.46.12,2.39-.66c.93-.78,1.3-2.47-.81-6.08l.03-.18c-.64-.47-1.04-.58-1.52.34-.04-1.15-.53-.13-.67-.51l.02-.09c-.42.87-.79-.76-1.2.02.02-.09.04-.41.12-.42-.28.14-.67.38-.67-.29-.67.15-1.59-.19-2.05.86l.04-.19c-.27.71-.32.09-.61.45-.01-.09-.03-.13-.02-.17-.29.7-.78.08-1.01.38v-.45s-.53.08-.53.08l.19.1c-.12,1.22-.37-.78-.78,0-.35-.17-.84,2.51-1.19,1.9-.2.56.2-.92-.09-.5.02-.64.14-.39.1-.91-.27.29-.4-.67-.74-.25v-.5c-.45.89-.75-.69-1.07.16-.45.39-.22-1.49-.71-.54l-.14-.68c-.19-.12-.18.82-.38.48.04-.42-.25-.35-.11-.75-.45-.69-1.03.89-1.6-.27-.18.82-.47.31-.61.92,0-.36-.64-.09-.23-.85.03-.06.09-.05.08.09l.07-.49c-.31-.94-.69.47-1.04.31.1.17.24.13.13.46l-.33-.09.09-.41-.48-.27.04.51c-.23-.28-.26-1.15-.58-.44-.15.4.19.7-.08.84-.3-.36-.76-.92-1.16-1.1,0,.58-.11.54-.23.66l.02-.5c-.48.66-.09-1.1-.56-.58l.06-.34-.18,1.03c-.46.96-.14-1.04-.67.27.18-.07,0,1.1-.19.87l.09-.48c-.12.09-.18.29-.25.19.09-.25.08-.7-.09-.62l.16-.59-.39.86c-.22-.53-.66.08-.72-.6,0,0-.52-.37-.7.36.14-.45-.15-.65-.02-1.18-.18.51-.62.91-.75.34l.04-.06c-.57-.61-1.11.7-1.61-.03-.02.58-.29.24-.27.99-.63.68-.92-1.58-1.31.68-.27.1-.27-.56-.39-.68l.07-.12c-.5.15-.65.16-1,.08-.2.21-.32,1.26-.62.98.14-.41,0-.34-.12-.35.08-.06.12-.21-.01-.51-.03.13-.08.21-.11.27,0-.03,0-.06,0-.11-.21.13-.19.27-.1.33-.01.06,0,.15.01.27-.16-.56-.59-.01-.55-.74-.62.12-1.12.83-1.65,1.06-.02-.38.12-.69.28-.82l-.37.1c.05-.53.23-.29.35-.38-.35-.9-.96.78-1.39-.05l-.14.41-.02-.07c-.02.22-.16.52-.24.58-.03-.47.1-1.07-.15-1.07-.15-.47-.58.17-.86.4.13.09.06.34-.01.5-.13,0-.15-.47-.27-.28l.05-.63c0,.6-.38.61-.45.86-.03-.47.23-.38.29-.73-.5.01-.25,0-.75.02-.31.45,0,.6-.19,1.14-.25.1-.52.52-.75.11l.03.56c-.48.39-.74.3-.98-.29-3.75,4.2-1.32,6.12-1.32,6.12,1.19,1.36,2.03-.19,3.62-.48"/>
  <path class="cls-1" d="M65.79,198.38l.09.24c0-.11-.02-.2-.09-.24"/>
  <path class="cls-1" d="M92.3,199.56s.02-.03.03-.05c-.02.02-.03.03-.03.05"/>
  <path class="cls-1" d="M69.49,206.41h0s-.02.04-.03.06l.04-.06Z"/>
  <path class="cls-1" d="M64.17,205.52c1.39.35,1.71,1.45,3.18,1.08.69.12,1.44-.09,2.12-.19.36-.83.89.03,1.31-.66l.12.49c.14-.24.3-.39.42-.13v.14c.2-.35.41-.13.52-.3l-.02.14.24-.05-.05.2c.36-.37.71-.38,1.02-.19v-.58c.63.68.93-.51,1.5.29l-.02.14c.83-1.49,1.15,1.1,2-.32-.11.18.03.3.01.44.37-.15.76-.22.82-1.35.26.03.2.37.21.81.02-.5.26-.7.47-.72l-.1.19.59-.14-.07-.95c.3.29.02,1.15.33.94l.03-.78c.42.17.62,1.37,1.01,1.96,1.71.42,3.66-1.49,5.21-.04l.04.59c-.01.86.5-1.25.53-.45l.21-.38c.05.15.15.32.05.51.17.04.18-.1.32-.35l.16.54c.66.45,1.29-.55,2-.31.81,1.13,2.48.21,3.44-.33,1.38-1.22,2.74,2.27,4.16.87.04.12.16-.14.17-.24l1.23.18s5.96.61,1.76-6.7l.04-.18c-.65-.49-1.07-.61-1.58.31-.02-1.15-.55-.15-.69-.52l.02-.09c-.45.87-.81-.78-1.25,0,.02-.09.04-.41.14-.42-.3.13-.7.37-.69-.3-.7.14-1.65-.21-2.14.83l.04-.18c-.29.71-.33.09-.63.44-.01-.09-.03-.13-.02-.17-.31.7-.81.07-1.04.37v-.45s-.54.08-.54.08l.2.11c-.13,1.22-.38-.79-.81-.01-.36-.17-.87,2.51-1.23,1.89-.21.57.21-.92-.09-.5.02-.64.15-.39.1-.91-.29.29-.41-.67-.77-.26v-.5c-.47.89-.78-.69-1.11.16-.47.39-.23-1.49-.74-.54l-.15-.68c-.19-.12-.18.82-.39.48.03-.42-.26-.35-.11-.75-.47-.69-1.06.89-1.67-.26-.18.82-.49.31-.63.92,0-.36-.66-.09-.25-.85.04-.06.09-.05.08.09l.07-.48c-.33-.94-.71.47-1.07.31.1.17.25.13.14.46l-.34-.08.09-.41-.5-.26.05.51c-.24-.27-.29-1.14-.6-.43-.15.4.21.7-.07.84-.32-.36-.8-.91-1.22-1.08.01.58-.1.55-.23.66v-.5c-.48.67-.11-1.1-.58-.57l.06-.34-.17,1.04c-.46.97-.17-1.04-.69.28.18-.08.03,1.1-.18.87l.08-.48c-.13.1-.18.29-.25.19.08-.26.07-.7-.11-.62l.15-.6-.38.87c-.24-.53-.68.1-.76-.58,0,0-.55-.36-.71.38.14-.46-.17-.64-.05-1.18-.17.51-.62.92-.77.36l.03-.06c-.61-.6-1.13.72-1.67,0,0,.58-.29.25-.25.99-.63.7-1.01-1.55-1.33.72-.28.11-.29-.55-.43-.67l.07-.12c-.52.16-.66.18-1.04.11-.2.21-.28,1.27-.6,1,.13-.42-.01-.34-.14-.35.08-.06.12-.22-.04-.51-.03.13-.07.21-.11.27,0-.03,0-.06,0-.11-.22.14-.19.27-.09.33,0,.07,0,.15.02.27-.19-.56-.61,0-.6-.72-.64.14-1.12.86-1.66,1.12-.04-.38.1-.7.26-.84l-.38.12c.03-.54.23-.3.35-.4-.4-.89-.96.82-1.44,0l-.13.42-.03-.07c0,.22-.14.52-.22.59-.05-.47.06-1.08-.2-1.06-.18-.46-.59.2-.87.43.14.09.08.34.01.5-.13,0-.18-.46-.29-.26l.02-.63c.02.59-.37.62-.43.88-.05-.47.22-.39.27-.74-.52.04-.26.02-.78.05-.3.46.02.6-.14,1.14-.25.11-.51.54-.77.15l.06.56c-.48.41-.75.33-1.03-.25-3.62,4.39-1.01,6.18-1.01,6.18,1.28,1.3,2.05-.29,3.67-.65"/>
  <path class="cls-1" d="M118.01,192.22l.06.23c0-.11-.02-.2-.06-.23"/>
  <path class="cls-1" d="M133.51,189.9s0-.03,0-.05c0,.02,0,.04,0,.05"/>
  <path class="cls-1" d="M120.72,200.03h0s-.01.04-.02.06l.02-.06Z"/>
  <path class="cls-1" d="M117.07,199.42c.94.31,1.2,1.38,2.2.94.48.08.98-.19,1.44-.33.19-.85.61-.04.83-.76l.13.47c.08-.25.17-.42.28-.16v.14c.11-.37.28-.16.33-.35v.14s.16-.07.16-.07l-.02.2c.21-.4.44-.44.66-.29l-.06-.58c.5.61.56-.6,1.03.13v.14c.36-1.57.92.95,1.29-.55-.04.19.06.29.07.43.22-.19.47-.31.33-1.44.17,0,.19.34.27.77-.07-.5.06-.72.18-.77l-.03.2.36-.22-.21-.92c.24.24.21,1.13.37.88l-.11-.77c.3.11.64,1.26,1.01,1.79,1.23.14,2.05-2.04,3.38-.92l.17.56c.21.83.02-1.31.23-.54l.03-.41c.07.14.18.28.16.49.12,0,.09-.13.11-.4l.24.49c.55.29.68-.79,1.2-.71.84.91,1.65-.35,2.07-1.1.43-1.46,2.48,1.45,2.87-.25.07.1.05-.18.01-.27l.82-.17s.97-.29,1.24-1.26c.29-.99-.25-2.6-2.84-5.39l-.05-.18c-.54-.27-.79-.28-.72.7-.45-1.07-.35,0-.57-.32l-.02-.09c.07.92-.71-.52-.67.3-.02-.09-.12-.39-.08-.42-.11.19-.25.51-.48-.12-.33.29-.95.18-.87,1.28l-.04-.18c.07.73-.15.16-.2.56-.03-.08-.06-.12-.07-.16.05.73-.42.25-.46.58l-.13-.42-.28.19.14.06c.3,1.19-.45-.67-.46.15-.25-.09.23,2.57-.16,2.06.04.58-.14-.93-.19-.46-.17-.62-.03-.41-.2-.89-.08.33-.42-.56-.51-.09l-.13-.48c-.03.94-.63-.52-.59.36-.17.46-.51-1.4-.56-.39l-.26-.63c-.14-.08.1.82-.1.54-.09-.42-.23-.29-.25-.7-.42-.59-.38,1.04-.99.02.08.83-.2.38-.15,1-.08-.35-.39.02-.33-.79,0-.07.04-.06.06.08l-.07-.48c-.38-.86-.29.57-.53.47.09.15.17.09.17.43l-.21-.03-.03-.41-.33-.19.13.5c-.19-.23-.38-1.08-.42-.34,0,.41.25.65.12.84-.25-.3-.62-.78-.89-.89.11.56.04.55-.01.68l-.08-.49c-.16.72-.25-1.07-.43-.49l-.03-.35.08,1.04c-.1,1.01-.27-1-.34.37.09-.1.2,1.08.04.88l-.03-.48c-.06.11-.06.31-.12.22,0-.26-.07-.7-.16-.6v-.6s-.09.9-.09.9c-.21-.5-.38.17-.52-.49,0,0-.36-.29-.35.45.02-.47-.18-.62-.19-1.17-.03.53-.23.98-.39.43v-.06c-.4-.54-.54.83-.93.17.06.57-.14.28-.04,1.01-.3.76-.73-1.46-.71.83-.15.13-.22-.53-.31-.64l.03-.12c-.29.2-.37.23-.6.19-.1.23-.07,1.29-.29,1.04.05-.42-.03-.34-.11-.34.05-.07.05-.22-.05-.5,0,.13-.03.21-.05.28,0-.03,0-.06,0-.11-.12.15-.09.28-.03.34,0,.07,0,.15.03.26-.15-.54-.36.05-.4-.68-.37.17-.62.94-.94,1.22-.04-.37.03-.7.12-.85l-.22.13c0-.54.12-.31.19-.41-.26-.87-.54.86-.85.07l-.07.42-.02-.07c0,.22-.07.53-.12.6-.04-.47.02-1.08-.14-1.05-.11-.45-.34.22-.51.47.08.08.05.34,0,.5-.08.01-.11-.46-.18-.26v-.63c.02.59-.21.63-.25.89-.03-.47.13-.4.16-.75-.31.05-.15.03-.46.07-.18.47,0,.6-.09,1.15-.15.12-.32.55-.47.17l.03.56c-.3.42-.47.34-.63-.24-1.19,2.21-1.47,3.75-1.38,4.74.09.99.52,1.44.52,1.44.85,1.3,1.43-.31,2.51-.71"/>
  <path class="cls-1" d="M117.59,201.22l.09.22c-.01-.11-.04-.2-.09-.22"/>
  <path class="cls-1" d="M132.82,198.33s0-.03,0-.05c0,.02,0,.04,0,.05"/>
  <path class="cls-1" d="M120.99,208.7h0s0,.04,0,.06v-.06Z"/>
  <path class="cls-1" d="M117.59,208.46c.9.19,1.26,1.24,2.11.7.44.03.87-.27,1.28-.46.09-.86.55-.09.69-.82l.16.46c.05-.25.12-.43.24-.18v.14c.08-.38.25-.18.28-.37l.02.14.14-.08v.2c.16-.41.37-.47.59-.33l-.1-.57c.51.58.47-.63.96.07l.02.14c.22-1.58.91.91,1.15-.61-.03.19.08.29.1.43.19-.2.41-.33.22-1.45.16-.01.19.33.29.76-.09-.49.01-.72.13-.77l-.02.2.32-.23-.24-.92c.23.23.25,1.12.39.87l-.14-.77c.29.11.66,1.24,1.02,1.76,1.13.12,1.85-2.06,3.11-.92l.17.57c.21.83,0-1.3.2-.54l.03-.41c.06.14.17.29.15.49.11,0,.08-.13.1-.4l.23.49c.51.31.63-.77,1.11-.67.78.93,1.53-.28,1.94-.99.45-1.43,2.26,1.61,2.68-.03.06.11.05-.17.03-.27l.77-.09s.92-.18,1.23-1.12c.32-.94-.01-2.61-2.31-5.62l-.04-.18c-.51-.32-.77-.35-.77.63-.36-1.1-.34-.03-.54-.36l-.02-.09c.01.92-.67-.57-.68.25-.02-.09-.1-.4-.05-.43-.12.18-.28.49-.47-.15-.34.27-.96.12-.93,1.22l-.03-.18c.04.74-.16.15-.22.55-.03-.08-.05-.12-.06-.16.02.73-.43.23-.48.55l-.12-.43-.28.18.14.06c.26,1.2-.42-.68-.45.14-.24-.1.17,2.58-.19,2.05.03.58-.12-.93-.18-.46-.15-.62-.02-.41-.18-.89-.09.33-.4-.57-.49-.11l-.12-.48c-.04.94-.61-.53-.58.35-.16.46-.5-1.4-.55-.39l-.25-.63c-.14-.08.1.82-.1.53-.08-.42-.23-.3-.24-.7-.42-.59-.38,1.04-.98.03.09.82-.2.38-.13,1-.08-.35-.39.02-.34-.79,0-.07.04-.06.07.08l-.07-.48c-.4-.86-.28.58-.52.48.09.15.17.09.18.43l-.21-.03-.04-.41-.34-.18.14.49c-.19-.23-.41-1.07-.43-.33,0,.41.27.65.15.83-.26-.3-.64-.76-.91-.87.13.56.06.55.01.68l-.1-.49c-.13.73-.29-1.06-.45-.47l-.04-.34.12,1.04c-.06,1.01-.31-.99-.33.38.09-.1.24,1.07.08.88l-.05-.48c-.05.11-.04.32-.1.23,0-.26-.1-.69-.19-.59l-.04-.6-.04.9c-.24-.48-.37.19-.54-.46,0,0-.38-.27-.33.47-.01-.46-.22-.61-.25-1.15,0,.53-.18.99-.36.46v-.06c-.44-.5-.49.87-.93.23.1.57-.12.29.04,1.01-.24.78-.84-1.4-.64.88-.14.14-.26-.5-.36-.61l.02-.12c-.27.23-.35.26-.57.24-.08.24.05,1.29-.18,1.06,0-.43-.06-.34-.14-.33.04-.07.03-.23-.1-.5,0,.13,0,.21-.02.28,0-.03,0-.06-.02-.1-.1.16-.07.29,0,.34,0,.07.02.15.05.26-.2-.52-.35.08-.46-.63-.34.21-.51.99-.79,1.3-.08-.37-.05-.7.03-.85l-.2.16c-.06-.53.09-.32.14-.44-.36-.83-.43.92-.82.16l-.02.43-.03-.07c.03.22,0,.53-.05.61-.09-.46-.11-1.07-.26-1.03-.17-.43-.31.26-.44.53.09.07.09.33.07.5-.07.02-.17-.44-.2-.23l-.07-.62c.09.59-.13.66-.13.92-.09-.46.08-.41.06-.76-.29.09-.15.04-.44.13-.11.49.09.59.06,1.15-.13.14-.23.59-.43.23l.1.55c-.23.46-.4.41-.63-.14-.82,2.36-.82,3.92-.59,4.89.23.97.68,1.35.68,1.35.95,1.16,1.24-.5,2.19-1.04"/>
  <path class="cls-1" d="M158.13,55.55l.35.46c.05-.1-.02-.24-.35-.46"/>
  <path class="cls-1" d="M174.77,174.96s-.02.09-.02.14c.03-.09.03-.12.02-.14"/>
  <path class="cls-1" d="M161.86,74.2s0-.02,0-.02c-.03-.03-.05-.07-.09-.09l.09.11Z"/>
  <path class="cls-1" d="M150.24,60.07c2.52.83,3.71,1.9,4.79,2.93,1.07,1.09,2.02,2.03,3.55,3.97,1.21,2.02,2.44,4.56,3.26,7.22,1.17,1.06.86,3.6,1.84,5.12l-.36.72c.34.52.61,1.18.45,1.8h-.14c.5.79.45,1.8.7,2.2h-.15s.23,1.03.23,1.03l-.22-.15c.61,1.45.88,3,.91,4.4l.56-.2c-.23,3.03,1.13,3.94.71,6.71l-.14-.02c1.96,3.18-.37,5.44,1.46,8.75-.23-.41-.28.22-.42.2.34,1.58.61,3.29,1.74,3.2.1,1.17-.26.99-.68,1.19.5-.06.8.94.93,1.85l-.23-.4.42,2.61.89-.6c-.14,1.42-1.11.46-.76,1.77l.78-.09c.03,1.94-1.06,3.18-1.48,5.09.32,7.77,2.86,15.99,1.93,23.33l-.57.36c-.85.19,1.39,1.92.61,2.25l.44.82c-.14.25-.27.76-.49.35.01.78.16.79.45,1.34l-.48.87c-.24,3.09.98,5.71.89,8.82-.48,1.89-.49,4.46-.64,6.93-.13,2.47-.52,4.84-1.1,6.52-.3,1.24-1.05,2.39-2.04,3.34-.99.95-2.2,1.72-3.46,2.37-2.55,1.3-5.19,2.11-7.47,3.69-.2-.05-.56.35-.52.44-1.61.49-3.28.88-4.98,1.18,0,0-1.56.29-3.61.66-2.07.37-4.7.79-6.74,1.34-2.03.55-3.45,1.27-3.03,2.21.44.92,2.6,2.17,8.01,3.42l-.12.2c3.17.12,5.25-.11,7.24-1.49.59,1.08,2.63-.48,3.45-.33l-.04.11c.85-.71,1.87-.83,2.92-1,1.04-.17,2.11-.37,2.85-1.16-.03.12.06.42-.35.63,1.29-.71,2.9-1.89,3.33-1.37,1.5-.94,3.3-2.11,4.77-3.47,1.48-1.34,2.61-2.88,2.92-4.1l.05.24c.24-1.48.97-1.41,1.45-2.85.12-.02.21-.09.23-.05.07-.79.53-1.71.96-2.6.43-.9.82-1.78.85-2.36l.45.06c.25-.91.45-1.82.6-2.72-.09.33-.2.66-.32.99-.55-.32-.24-.76.13-1.42.38-.65.82-1.54.53-2.56.18-.9-.4-1.87-.94-2.78-.55-.92-1.06-1.79-.77-2.67-.59-.84.94.73.48-.52.64-.05.41.59.92.25-.32-1.25.6-2.08.09-3.6l.49-.09c-1.01-1.94.44-3.75-.5-5.01-.53-2,1.39-1.44.3-3.49l.62-.86c.06-.91-.86-.6-.6-1.62.43.04.26-1.29.7-.72.52-2.31-1.22-4.54-.3-7.59-.86-.59-.47-2.13-1.13-2.57.35-.1-.15-3.02.75-1.38.07.14.08.4-.06.39l.5.17c.81-1.77-.72-3.06-.7-4.76-.13.51-.03,1.17-.4.75l-.05-1.57.43.3.07-2.35-.48.36c.17-1.16,1.01-1.63.18-2.86-.45-.55-.6,1.14-.85-.06.23-1.55.55-3.88.54-5.85-.56.23-.58-.29-.75-.83l.49-.11c-.88-2.01,1.02-.86.29-2.86l.36.15-1.09-.45c-1.15-1.76.93-1.1-.61-3.03.17.8-1.05.49-.94-.53l.5.21c-.16-.54-.37-.71-.31-1.09.29.3.71.1.55-.7l.65.49-1.04-1.45c.38-1.25-.46-3.06.16-3.62,0,0,.03-2.6-.77-3.1.52.46.53-.97,1.11-.64-.59-.6-1.26-2.51-.81-3.36l.08.14c.2-2.98-1.44-4.85-1.12-7.55-.55.2-.45-1.21-1.13-.77-1.12-2.57.72-5.13-1.7-5.73-.32-1.19.29-1.53.3-2.18l.17.27c-.58-2.26-.74-2.94-1.05-4.68-.41-.83-1.47-.72-1.6-2.32.53.4.3-.22.14-.8.17.35.35.43.41-.41-.16-.07-.28-.22-.39-.35.03-.02.05-.05.09-.05-.44-.93-.51-.72-.43-.26-.07,0-.14.06-.21.23.24-1.17-.95-2.77-.34-3.15-1.29-2.88-3.12-4.55-4.92-6.43.11-.47.75-.19,1.33.37-.41-.5-.84-.98-1.3-1.43.42-.34.97.66,1.39,1.08-.32-1.21-1.33-2.02-2.38-2.74-1.09-.7-2.19-1.34-3.12-2.41l-.69.04c-.03-.05-.06-.1-.1-.15-.11.19-.79.17-1.16.04-.11-.58.55-.95-.66-1.53-.39-.41-1.11-.69-1.9-.84-.8-.11-1.64-.19-2.31-.23.67.26.37.45.03.53-.61-.14-.85-.69-1.38-.61l.08-.63c.11.6-1.76.3-2.03.51-.28-.52,1.03-.22,1.26-.53-2.53-.41-1.27-.21-3.78-.47-1.36.38.18.61-.49,1.12-1.16.02-2.27.42-3.56.02l.4.57c-2.11.42-3.33.42-4.78-.06-3.81,1.42-5.75,2.68-6.67,3.58-.91.92-.76,1.54-.14,1.96.6.42,1.66.64,2.54.77.89.13,1.62.16,1.62.16,2.93.33,4.99.12,7.19-.17,2.17-.27,4.52-.67,7.5-.14"/>
  <path class="cls-1" d="M152.61,71.36l.08.48c.08-.07.09-.21-.08-.48"/>
  <path class="cls-1" d="M162.15,167.84s.01.07.03.11c0-.07-.02-.1-.03-.11"/>
  <path class="cls-1" d="M151.16,87.55v-.02s-.05-.05-.08-.08l.08.09Z"/>
  <path class="cls-1" d="M144.41,73.31c1.47,1.41,2.04,2.61,2.56,3.75.47,1.11,1.01,2.31,2.06,4.21.71,1.94,1.56,4.11,2.12,6.26,1.04.88.51,2.9,1.37,4.09l-.42.56c.29.42.52.93.3,1.41h-.14c.43.62.29,1.41.5,1.74l-.14-.02.14.83-.21-.13c.48,1.17.61,2.42.52,3.55l.57-.14c-.47,2.44.8,3.22.2,5.43l-.14-.02c1.73,2.61-.71,4.38.95,7.08-.21-.34-.29.17-.43.16.26,1.28.45,2.65,1.59,2.59.06.94-.3.79-.73.95.5-.04.77.76.85,1.49l-.22-.32.33,2.09.91-.49c-.19,1.14-1.12.37-.82,1.42l.78-.07c-.04,1.56-1.15,2.55-1.61,4.09.14,6.23,2.62,12.74,1.44,18.52l-.58.27c-.85.13,1.31,1.53.53,1.77l.41.65c-.15.19-.31.58-.51.26-.02.61.12.62.38,1.06l-.52.66c-.41,2.4.62,4.45.32,6.96-.59,1.49-.74,3.64-.74,5.84-.01,2.18.12,4.5.16,6.06.3,2.24-.88,4.46-2.27,5.58-.7.58-1.35.87-1.99,1.16-.65.27-1.23.62-2.02,1.16-.12-.08-.38.23-.36.33-1.11.18-2.39.19-3.78.16,0,0-1.23-.02-3.04.03-1.79.05-4.23.25-6.12.96-.47.19-.9.39-1.25.59-.36.22-.66.46-.87.69-.43.46-.51.91-.22,1.32.3.43.99.79,2.04,1.24,1.02.45,2.43,1.07,4.36,1.91l-.1.19c2.25.42,3.84.61,5.61-.36.29,1.16,2.17.07,2.86.35l-.05.1c.8-.51,1.71-.47,2.68-.49.49-.03.98-.02,1.45-.17.47-.15.92-.36,1.27-.73-.03.12.06.42-.34.6.64-.29,1.34-.85,1.93-1.16.57-.39,1.05-.62,1.3-.39,1.41-1.12,2.82-2.82,3.61-4.46.8-1.65,1.09-3.2.82-4.22l.14.17c-.42-1.19.25-1.33.11-2.51.1-.04.16-.11.19-.09-.48-1.2.36-3.05.15-3.91h.45c.05-.68.1-1.35.12-2.03l-.17.74c-1.2-.38.92-1.45.25-2.99.26-1.37-2.34-2.93-1.68-4.28-.54-.69.9.63.51-.39.64,0,.38.49.9.25-.25-1,.71-1.6.32-2.83l.5-.04c-.88-1.61.7-3.01-.17-4.07-.41-1.64,1.48-1.12.47-2.81l.66-.68c.1-.74-.84-.5-.53-1.32.42.04.31-1.04.72-.57.61-1.87-1.08-3.69-.08-6.15-.85-.48-.43-1.71-1.08-2.06.36-.09-.09-2.42.77-1.12.07.11.07.32-.07.31l.5.13c.83-1.43-.67-2.45-.62-3.81-.13.41-.05.94-.41.61l-.02-1.25.43.23.11-1.88-.49.29c.19-.93,1.03-1.31.24-2.29-.44-.43-.62.91-.85-.03.26-1.24.64-3.1.67-4.65-.56.19-.57-.23-.72-.65l.49-.09c-.81-1.59,1.05-.68.37-2.27l.36.12-1.07-.35c-1.1-1.39.97-.87-.5-2.4.13.64-1.07.39-.92-.42l.5.16c-.14-.43-.35-.56-.27-.86.28.24.71.08.58-.56l.63.39-.97-1.16c.44-.98-.32-2.43.33-2.87,0,0,.18-2.05-.6-2.46.49.37.58-.76,1.15-.48-.56-.49-1.1-2.01-.6-2.67l.07.11c.39-2.34-1.07-3.87-.54-5.99-.57.14-.34-.98-1.06-.65-.89-2.08,1.18-4.08-1.18-4.66-.22-.98.42-1.23.47-1.77l.15.23c-.4-1.86-.5-2.41-.67-3.82-.33-.67-1.4-.6-1.37-1.88.49.32.32-.17.22-.64.13.29.3.35.45-.33-.15-.06-.25-.18-.34-.29.03-.01.05-.04.1-.04-.31-.76-.42-.59-.39-.21-.07,0-.14.04-.23.18.36-.93-.58-2.24.08-2.53-.83-2.33-2.17-3.74-3.28-5.44.23-.37.76-.09,1.12.41-.23-.44-.5-.85-.75-1.27.48-.23.67.62.94,1,.02-.98-.58-1.74-1.26-2.46-.33-.36-.67-.73-.99-1.13-.31-.41-.55-.88-.73-1.41l-.61-.09-.02-.14c-.18.14-.69-.05-.95-.23.16-.52.84-.67.11-1.45-.23-.95-1.84-1.57-2.83-2.04.39.44.08.51-.21.48-.39-.32-.34-.87-.79-.95l.34-.53c-.2.6-1.47-.3-1.79-.16,0-.55.9.1,1.2-.09-.88-.6-1.13-.69-1.35-.84-.23-.13-.45-.29-1.41-.75-1.21-.1-.09.62-.81.87-.92-.31-1.91-.27-2.82-.95l.15.64c-1.78-.15-2.71-.32-3.84-1.04-.85.25-1.57.46-2.16.8-.3.15-.57.3-.81.45-.24.16-.46.34-.65.49-.78.6-1.16,1.26-1.37,1.72-.41.97-.18,1.59.43,1.88.97.71,2.4.8,2.41.87,1.49.5,2.51.58,3.9.7,1.34.14,3.04.33,4.99,1.59"/>
</svg>