<?xml version="1.0" encoding="UTF-8"?>
<svg id="Capa_1" data-name="Capa 1" xmlns="http://www.w3.org/2000/svg" viewBox="0 0 312.47 390.52">
  <defs>
    <style>
      .cls-1 {
        fill: #a4d5cc;
      }
    </style>
  </defs>
  <path class="cls-1" d="M52.26,90.57l-.32.44c.15-.01.28-.12.32-.44"/>
  <path class="cls-1" d="M45.95,197.12s.04.07.07.1c-.02-.07-.04-.1-.07-.1"/>
  <path class="cls-1" d="M40.82,106.63s0-.02,0-.02c-.03-.04-.05-.08-.08-.11l.08.13Z"/>
  <path class="cls-1" d="M41.83,85.96c-.1,5.38-1.66,6.8-1.1,12.4-.19,2.68.06,5.57.09,8.25,1.14,1.33-.18,3.51.73,5.08l-.72.54c.31.54.5,1.17.1,1.67l-.2-.05c.46.82.1,1.68.33,2.08l-.2-.05.02.96-.27-.18c.45,1.4.39,2.81.06,4.04l.83-.05c-1.1,2.59.54,3.68-.72,6l-.2-.05c1.96,3.18-1.8,4.69.04,7.95-.23-.41-.43.14-.63.09.14,1.45.15,3,1.77,3.13-.09,1.05-.56.82-1.2.91.71.04.94.97.93,1.79l-.25-.4.08,2.36,1.37-.37c-.47,1.22-1.65.2-1.41,1.42l1.11.06c-.34,1.7-2.08,2.6-3.01,4.21-.95,6.89,1.36,14.51-1.02,20.81l-.85.23c-1.22.04,1.68,1.9.54,2.07l.5.79c-.23.2-.49.62-.74.23-.09.69.1.72.44,1.24l-.81.69c-.77,2.69.53,5.11.03,7.97-1.78,3.35-.81,9.94-.24,13.74,1.45,5.39-3.8,11.18-2.09,16.71-.18.16.17.64.31.65l-.51,4.92s-2.1,23.88,9.2,6.4l.25.14c.83-2.66,1.09-4.34-.12-6.3,1.65-.18.32-2.21.89-2.8l.13.07c-1.14-1.73,1.27-3.32.26-4.98.13.07.57.14.57.5-.13-1.17-.38-2.78.57-2.8-.06-2.78.64-6.6-.75-8.48l.25.14c-.95-1.08-.06-1.32-.51-2.48.13-.05.2-.13.25-.11-.93-1.17.06-3.22-.31-4.14h.63s0-2.21,0-2.21l-.19.81c-1.71-.4,1.2-1.58.19-3.24.32-1.47-3.4-3.26-2.44-4.74-.76-.79,1.27.74.72-.4.91.02.53.55,1.27.32-.35-1.11,1.04-1.71.53-3.08h.71c-1.17-1.83,1.15-3.22,0-4.46-.46-1.83,2.17-1.06.92-3.02l1-.66c.21-.79-1.13-.65-.61-1.5.6.1.55-1.09,1.09-.53,1.08-1.94-1.05-4.16.71-6.69-1.13-.65-.34-1.93-1.19-2.42.51-.04.26-2.66,1.27-1.09.08.13.05.36-.15.33l.68.23c1.41-1.41-.53-2.78-.23-4.26-.26.43-.24,1.02-.69.59l.19-1.38.56.33.48-2.04-.74.24c.44-.98,1.69-1.25.74-2.46-.54-.55-1.04.89-1.19-.19.58-1.31,1.46-3.28,1.8-4.99-.82.11-.76-.36-.89-.84h.71c-.85-1.9,1.6-.57.94-2.44l.48.19-1.44-.58c-1.28-1.73,1.52-.78-.26-2.73.07.73-1.58.23-1.21-.63l.66.27c-.11-.5-.38-.68-.22-1,.35.32.98.22.91-.51l.82.54-1.16-1.45c.8-1,0-2.73.99-3.09,0,0,.62-2.23-.39-2.82.62.5.96-.73,1.7-.32-.7-.64-1.18-2.4-.35-3.04l.08.14c.98-2.5-.8-4.45.33-6.68-.83.05-.3-1.13-1.36-.9-.87-2.44,2.42-4.19-.75-5.27-.1-1.09.84-1.24,1.05-1.79l.15.27c-.13-2.05-.12-2.65.04-4.17-.27-.78-1.76-.98-1.33-2.32.58.47.49-.09.52-.6.08.33.29.44.73-.21-.18-.1-.29-.25-.37-.4.05,0,.08-.03.15-.01-.17-.86-.36-.72-.46-.33-.09-.03-.21,0-.38.12.82-.84.05-2.47,1.09-2.53-.13-2.58-1.15-4.46-1.52-6.6.53-.23.99.27,1.19.9l-.17-1.53c.76.02.42.88.57,1.35,1.26-1.82-1.19-3.76-.1-5.9l-.61-.43.1-.13c-.32.01-.76-.46-.87-.77.66-.32,1.53-.02,1.46-1.08.6-.87-.43-2.39-.84-3.46-.08.6-.46.43-.7.19-.06-.53.58-.88.26-1.27l.89-.11c-.83.27-1.01-1.32-1.39-1.49.64-.36.63.77,1.14.87-.24-2.13-.12-1.07-.41-3.2-.78-1.07-.82.29-1.65-.17-.26-.98-1.03-1.86-.64-3.06l-.74.46c-.83-1.76-.97-2.84-.37-4.22-2.23-3.13-4.03-4.57-5.33-5.15-1.31-.57-2.18-.29-2.72.37-.57.63-.85,1.57-.99,2.35-.13.78-.16,1.41-.16,1.41-.36,2.58.09,4.35.78,6.28.71,1.91,1.66,3.97,2.18,6.99"/>
  <path class="cls-1" d="M41.59,252.08l-.38.41c.15,0,.29-.09.38-.41"/>
  <path class="cls-1" d="M36.28,361.43s.06.01.1,0c-.05-.02-.08-.02-.1,0"/>
  <path class="cls-1" d="M28.67,268.31s0-.02,0-.02c-.03-.04-.04-.09-.07-.12l.07.15Z"/>
  <path class="cls-1" d="M32.01,245.55c-1.04,5.96-2.74,7.38-2.79,13.66-.44,2.95-.43,6.15-.55,9.07,1.05,1.5-.39,3.81.43,5.54l-.74.56c.28.6.44,1.28.02,1.81l-.19-.06c.42.89.02,1.8.23,2.25l-.2-.06-.02,1.03-.26-.21c.39,1.52.26,3.03-.13,4.33l.83-.02c-1.22,2.74.37,3.96-.99,6.4l-.19-.06c1.81,3.47-2.02,4.96-.32,8.52-.21-.44-.44.13-.64.08.07,1.57.02,3.23,1.63,3.42-.14,1.12-.6.86-1.23.95.71.07.9,1.07.85,1.95l-.23-.43v2.54s1.37-.36,1.37-.36c-.51,1.3-1.66.18-1.46,1.49l1.11.09c-.4,1.82-2.17,2.75-3.15,4.47-.58,3.71-.32,7.64-.2,11.49.06,1.92.09,3.83-.04,5.68-.07.93-.17,1.84-.33,2.74-.17.88-.38,1.65-.69,2.48l-.86.23c-1.22.02,1.64,2,.49,2.18l.48.85c-.24.21-.51.66-.75.24-.11.75.09.79.41,1.36l-.82.75c-.82,3,.47,5.73.25,9.1-.74,2.04-.59,5.18.45,8.39.98,3.21,3.08,6.35,5.03,8.19,1.5,1.22,2.86,2.46,4.4,3.78,1.58,1.27,3.28,2.41,4.96,3.32,1.68.91,3.34,1.61,4.87,2.05,1.51.43,2.97.62,4.49.38.15.2.71-.08.73-.22l5.17,1.17s25.15,5.3,7.88-8.28l.18-.23c-2.73-1.18-4.49-1.66-6.71-.73,0-1.67-2.31-.61-2.88-1.26l.09-.12c-1.98.9-3.38-1.71-5.27-.93.09-.12.21-.55.6-.5-1.28-.03-2.97.01-2.84-.94-1.37-.15-2.8-.54-3.91-.86-1.12-.32-1.95-.49-2.87-.27l.22-.15c-.57.16-.79.02-.97-.17-.17-.2-.34-.38-.78-.56.06-.12.07-.21.12-.24-.63,0-1.13-.42-1.39-1.01-.15-.28-.28-.56-.43-.79-.13-.25-.24-.48-.42-.6l.55-.31-.44-.78-.35-.87.08.72c-.85.18-.71-.29-.53-.87.15-.57.46-1.32-.25-1.9-.07-.66-1-1.24-1.94-1.89-.93-.65-1.69-1.42-1.34-2.25-.86-.72,1.36.6.67-.5.9-.07.59.49,1.3.18-.45-1.09.85-1.78.27-3.13l.71-.04c-.64-.88-.38-1.72-.09-2.48.27-.75.56-1.43,0-2.07-.45-1.91,2.18-1.09.96-3.16l1.02-.69c.23-.84-1.11-.71-.57-1.62.59.11.58-1.19,1.1-.57.57-1.05.31-2.24.14-3.52-.18-1.18-.29-2.43.59-3.78-1.13-.68-.35-2.04-1.19-2.55.51-.04.28-2.82,1.27-1.16.08.14.05.38-.15.35l.68.24c1.42-1.49-.51-2.94-.18-4.51-.27.45-.25,1.08-.7.62l.21-1.46.56.35.52-2.15-.75.24c.46-1.04,1.72-1.31.8-2.6-.52-.6-1.06.93-1.19-.22.62-1.39,1.55-3.46,1.94-5.27-.83.09-.75-.4-.87-.92h.71c-.79-2.03,1.62-.55,1.03-2.55l.47.22-1.42-.66c-1.22-1.88,1.55-.79-.15-2.92.04.78-1.59.2-1.18-.71l.65.31c-.09-.54-.35-.74-.18-1.07.33.35.97.27.93-.51l.8.6-1.1-1.58c.84-1.04.12-2.91,1.12-3.27,0,0,.72-2.36-.26-3.02.6.55.99-.75,1.71-.29-.67-.7-1.07-2.61-.21-3.27l.07.15c1.09-2.65-.6-4.79.64-7.14-.83.02-.24-1.22-1.32-1.02-.76-2.65,2.61-4.4-.51-5.66-.05-1.17.9-1.29,1.13-1.87l.14.29c-.03-2.19,0-2.82.25-4.42-.23-.84-1.71-1.12-1.2-2.52.55.53.5-.07.55-.61.06.35.26.48.74-.18-.17-.12-.27-.28-.35-.44.05,0,.09-.02.15,0-.11-.92-.32-.78-.44-.38-.09-.03-.21,0-.39.1.87-.85.23-2.6,1.26-2.61.05-2.72-.8-4.77-.95-7.06.55-.2.96.38,1.1,1.05l-.02-1.61c.76.09.34.96.44,1.47,1.43-1.77-.8-4.04.56-6.15l-.55-.52.11-.12c-.32-.03-.69-.57-.76-.91.69-.24,1.52.19,1.59-.92.73-.8-.05-2.51-.29-3.69-.18.6-.52.36-.73.08.04-.55.73-.8.49-1.26l.9.04c-.86.13-.75-1.54-1.09-1.78.69-.24.48.92.96,1.11.15-2.22.08-1.11.23-3.33-.54-1.25-.86.12-1.58-.52-.06-1.06-.57-2.14.09-3.28l-.83.29c-.4-2.02-.19-3.18.75-4.41-4.87-15.25-8.45-4.01-8.45-4.01-2.36,5.55-.38,8.75-.49,15.64"/>
  <path class="cls-1" d="M69.75,367.49l.69.36c0-.15-.18-.29-.69-.36"/>
  <path class="cls-1" d="M242.77,365s.09-.08.13-.13c-.1.07-.13.1-.13.13"/>
  <path class="cls-1" d="M95.69,381.22s-.03,0-.04,0c-.06.03-.13.03-.19.06l.23-.05Z"/>
  <path class="cls-1" d="M60.75,377.36c9.59.84,11.77,2.28,21.18,2.52,4.46.58,9.28.83,13.72,1.34,2.28-.87,5.79.9,8.44.34l.85.84c.91-.19,1.96-.24,2.76.28l-.09.18c1.37-.28,2.76.29,3.45.15l-.09.18,1.58.2-.32.23c2.34-.12,4.66.27,6.66.9l-.02-.84c4.21,1.72,6.12.35,9.9,2.15l-.09.19c5.4-1.24,7.72,2.89,13.3,1.68-.69.15.21.46.13.65,2.45.16,5.07.38,5.33-1.21,1.76.27,1.37.71,1.51,1.36.08-.69,1.68-.81,3.08-.7l-.68.2,4.04.21-.65-1.42c2.07.61.38,1.7,2.45,1.54l.07-1.11c2.91.41,4.52,2.28,7.39,3.15,6.01.51,12.26-.29,18.29-1.15,6.06-.83,11.88-1.95,17.52-1.93l.63.73c.44,1.15,2.67-2.35,3.3-1.33l1.15-.79c.4.13,1.19.19.62.6,1.17-.22,1.16-.42,1.92-.97l1.41.46c4.74-.48,8.23-2.93,13.02-4.01,3.05-.1,7.15-1.33,11.14-2.98,4-1.63,7.9-3.65,10.71-5.17.97-.61,1.97-1.12,3.06-1.58,1.11-.49,2.37-.97,3.74-1.65.68-.35,1.4-.75,2.12-1.25.73-.5,1.47-1.14,2.11-1.83,1.29-1.37,2.31-3.21,2.87-4.89,1.15-3.43,1.13-6.45,1.04-8.94-.12-2.37-.45-4.68-1.2-6.88.14-.31-.33-1.03-.46-1.01l-.7-8.24s-3.74-39.9-10.57-8.57l-.28-.18c-.17,4.57,0,7.41,1.65,10.37-1.57.66.22,3.71-.19,4.82l-.14-.09c1.54,2.61-.44,5.76.96,8.29-.14-.09-.59-.1-.68-.7.2.95.47,2.08.56,3,.1.91,0,1.53-.47,1.64.34,2.02.14,4.03-.12,4.66-.1.37-.23.66-.45,1.07-.26.44-.7.99-1.05,1.57l.02-.3c-.34.74-.79.97-1.26,1.14-.48.17-1.06.29-1.85.87-.14-.08-.29-.09-.29-.15-1.34,1.59-4.91,2.04-6.16,2.92l-.3-.56-3.36,1.36,1.32-.33c.14,1.81-2.94-.11-5.06,1.78-2.37.59-3.64,4.98-6.36,4.94-.93,1.14.64-1.59-.92-.44-.32-.85.65-.8,0-1.35-1.59.94-3.07-.07-5.01,1.13l-.28-.66c-2.42,2.04-5.44.46-6.98,2.15-2.74,1.23-2.39-1.6-5.06.42l-1.35-.68c-1.3.09-.68,1.32-2.19,1.14-.03-.61-1.88-.12-1.16-.85-1.68-.13-3.23.47-4.95.99-1.71.54-3.58,1.01-5.8.45-.78,1.26-2.99.88-3.59,1.78-.17-.5-4.31.29-2-1.02.2-.11.56-.12.56.08l.22-.72c-2.51-1.09-4.31,1.12-6.74,1,.72.2,1.67.09,1.06.59l-2.24.02.44-.61c-1.11-.07-2.22-.1-3.32-.22l.47.72c-1.64-.36-2.21-1.58-4.03-.54-.83.58,1.54.96-.18,1.2-1.09-.21-2.45-.6-3.87-.91-1.42-.33-2.91-.56-4.28-.8.21.83-.53.75-1.31.86l-.04-.71c-3,.76-.95-1.61-3.9-1.07l.3-.46-.9,1.38c-2.77,1.1-1.24-1.61-4.38-.04,1.17,0,.35,1.61-1.04,1.14l.45-.63c-.81.05-1.12.28-1.63.07.53-.3.39-.95-.8-1l.9-.73-2.39.93c-1.6-.96-4.46-.5-5.01-1.55,0,0-3.6-1.08-4.63-.18.85-.52-1.14-1.11-.43-1.77-1.08.56-4.01.66-5-.32l.23-.05c-4.04-1.56-7.37-.24-10.97-1.91.02.84-1.9.02-1.59,1.15-4.1.29-6.78-3.43-8.78-.49-1.82-.15-1.99-1.13-2.89-1.46l.46-.09c-3.42-.32-4.4-.47-6.91-.95-1.31.11-1.74,1.55-3.93.85.82-.48-.12-.51-.96-.64.55-.01.75-.2-.3-.77-.18.16-.44.24-.68.3,0-.05-.04-.09,0-.15-1.44,0-1.22.22-.58.4-.05.09,0,.21.17.4-1.35-1-4.09-.51-4.13-1.56-4.3-.33-7.48.41-11.06.5-.36-.56.52-.95,1.57-1.06l-2.55-.04c.08-.76,1.49-.3,2.29-.38-1.46-.76-3.05-.58-4.71-.36-1.66.2-3.36.43-5.1-.21l-.76.57-.21-.11c0,.32-.81.72-1.33.8-.47-.68.09-1.53-1.64-1.55-1.34-.69-3.88.18-5.65.45.94.16.62.51.2.72-.85-.02-1.31-.7-1.98-.45l-.03-.9c.29.86-2.26.78-2.59,1.11-.43-.69,1.35-.48,1.59-.97-3.37-.15-1.69-.05-5.03-.28-1.84.48.24.87-.7,1.57-1.59,0-3.24.43-4.94-.42l.44.88c-3.08.14-4.86-.44-6.57-1.73-5.75-.01-9.28-.51-11.26-.33-1.98.17-2.28,1-1.96,2.03.46,1.03,1.76,2.45,3.06,3.36.64.48,1.25.9,1.7,1.18.46.26.75.42.75.42,4.6,2.77,8.59,3.51,12.59,3.76,4.02.22,8.19-.1,13.67-.14"/>
  <path class="cls-1" d="M243.32,313.57l.29-.34c-.15.02-.27.12-.29.34"/>
  <path class="cls-1" d="M236.91,237.89s-.04-.05-.08-.07c.03.05.05.06.08.07"/>
  <path class="cls-1" d="M252.93,300.71v.02s.06.05.09.07l-.09-.08Z"/>
  <path class="cls-1" d="M253.93,315.81c-.14-3.99,1.27-5.22.12-9.22-.11-1.96-.71-3.99-1.12-5.87-1.31-.76-.3-2.5-1.42-3.45l.63-.49c-.38-.33-.66-.74-.34-1.15h.2c-.57-.49-.34-1.15-.62-1.39h.2s-.16-.66-.16-.66l.29.08c-.65-.9-.78-1.89-.63-2.79l-.81.16c.73-1.96-1.04-2.47-.13-4.27h.2c-2.38-1.92,1.16-3.51-1.1-5.51.28.25.41-.16.61-.15-.33-.99-.55-2.06-2.16-1.94-.05-.74.45-.65,1.06-.8-.71.07-1.05-.55-1.14-1.12l.29.24-.38-1.64-1.31.44c.31-.91,1.61-.36,1.21-1.18l-1.1.1c.12-1.24,1.73-2.08,2.45-3.32.09-4.9-3.1-9.97-1.43-14.64l.82-.25c1.21-.16-1.87-1.15-.76-1.39l-.58-.5c.21-.16.42-.49.71-.24.02-.49-.18-.49-.57-.82l.73-.57c.48-1.96-1.08-3.52-.87-5.57,1.42-2.51-.2-7.03-1.11-9.66-1.97-3.67,2.77-8.14.6-11.9.17-.13-.22-.44-.36-.44l.11-3.49s.05-4.23-1.11-6.84c-1.17-2.61-3.58-3.66-8.56,2.89l-.26-.08c-.63,1.94-.75,3.17.61,4.47-1.63.24-.14,1.59-.66,2.05l-.13-.04c1.28,1.15-1,2.45.15,3.56-.13-.04-.58-.05-.61-.32.23.82.62,1.95-.33,2.03.31,1.97-.06,4.75,1.5,5.97l-.27-.08c1.05.69.19.93.74,1.72-.12.05-.18.11-.24.1,1.04.75.24,2.29.7,2.91l-.63.07.21,1.56.11-.59c1.74.13-1.05,1.23.14,2.32-.17,1.07,3.71,1.99,2.91,3.12.84.49-1.34-.4-.68.36-.9.07-.58-.34-1.3-.1.46.75-.87,1.31-.21,2.23l-.7.08c1.35,1.17-.8,2.39.47,3.15.65,1.25-2.04.98-.59,2.23l-.92.57c-.12.58,1.19.34.76,1-.6,0-.43.83-1.02.49-.85,1.49,1.52,2.83.05,4.82,1.19.33.56,1.33,1.46,1.58-.51.08.04,1.91-1.13.92-.1-.08-.09-.25.11-.25l-.7-.08c-1.24,1.17.86,1.91.74,2.99.21-.33.11-.75.61-.5l-.02,1-.6-.16-.23,1.5.71-.26c-.32.75-1.53,1.1-.44,1.83.6.32.92-.76,1.2-.01-.43,1-1.05,2.5-1.16,3.75.8-.18.8.15.99.48l-.7.1c1.09,1.23-1.51.61-.62,1.84l-.5-.07,1.5.22c1.49,1.05-1.41.76.6,1.89-.16-.5,1.53-.38,1.28.28l-.69-.1c.17.34.47.43.35.67-.39-.18-1-.02-.84.48l-.88-.27,1.34.86c-.66.82.36,1.92-.57,2.32,0,0-.32,1.66.76,1.93-.68-.26-.85.65-1.64.47.78.35,1.49,1.53.76,2.09l-.1-.08c-.62,1.91,1.41,3.02.61,4.75.81-.16.45.75,1.47.43,1.2,1.58-1.79,3.32,1.5,3.58.26.75-.65.99-.78,1.41l-.19-.17c.42,1.41.5,1.83.54,2.91.37.5,1.87.41,1.63,1.41-.63-.24-.47.14-.43.5-.12-.22-.35-.26-.69.25.19.05.32.13.42.22-.05,0-.08.03-.15.03.28.57.45.45.5.16.09,0,.21-.03.36-.14-.69.71.26,1.72-.75,1.92.46,1.77,1.65,2.92,2.24,4.36-.5.23-1.01-.06-1.27-.46l.33,1.03c-.76.09-.51-.55-.71-.86-1.06,1.42,1.55,2.45.62,4.07l.64.23-.09.1c.32-.05.79.23.92.43-.63.3-1.52.18-1.38.91-.56.66.53,1.6.99,2.31.05-.42.44-.34.69-.2.07.36-.55.66-.23.91l-.88.16c.82-.26,1.03.83,1.41.92-.63.3-.64-.49-1.15-.51.29,1.45.14.73.43,2.18.77.69.82-.26,1.64,0,.27.67.98,1.25.56,2.11l.75-.36c.79,1.2.82,1.99.15,2.97,3.91,4.34,6.16,4.49,7.44,3.59,1.28-.9,1.59-2.86,1.59-2.86,1.17-4-1.38-5.59-2.61-9.98"/>
  <path class="cls-1" d="M236.29,192.58l.33-.38c-.15,0-.28.1-.33.38"/>
  <path class="cls-1" d="M222.99,98.49s-.05-.05-.09-.07c.04.05.07.07.09.07"/>
  <path class="cls-1" d="M246.9,177.39s0,.02,0,.02c.04.03.05.07.09.1l-.09-.12Z"/>
  <path class="cls-1" d="M246.52,197.19c.42-5.18,1.94-6.59,1.16-11.97.04-2.58-.44-5.31-.77-7.8-1.26-1.12-.23-3.29-1.33-4.62l.64-.6c-.38-.46-.66-1.01-.34-1.52l.2.02c-.57-.68-.33-1.52-.62-1.86h.2s-.17-.86-.17-.86l.3.12c-.67-1.21-.82-2.5-.69-3.67l-.81.18c.65-2.53-1.13-3.23-.32-5.55h.2c-2.49-2.49.91-4.58-1.54-7.15.3.32.4-.21.6-.21-.43-1.28-.76-2.66-2.37-2.43-.12-.95.38-.85.98-1.07-.7.11-1.12-.66-1.28-1.39l.33.3-.59-2.08-1.25.63c.19-1.18,1.57-.55,1.06-1.57l-1.09.2c-.05-1.58,1.45-2.77,1.99-4.42-.64-6.32-4.71-12.41-3.89-18.49l.77-.41c1.17-.34-2.07-1.24-1.01-1.67l-.67-.56c.18-.23.33-.67.66-.39-.07-.62-.27-.6-.72-.98l.62-.8c.11-2.54-1.72-4.33-1.92-6.94.91-3.38-1.55-8.81-3.06-12.1-1.4-2.23-1.27-5.02-1.55-8.05-.28-3-1.08-6.32-3.78-8.32.02-.27-.61-.45-.72-.36-1.1-1.53-2.37-2.94-3.82-4.19,0,0-1.3-1.18-3.43-2.21-1.04-.54-2.33-.97-3.63-1.25-1.33-.24-2.67-.33-3.84-.12-1.16.18-2.11.58-2.66,1.1-.57.51-.7,1.1-.47,1.76.43,1.37,2.84,2.82,4.67,6.24l-.16.22c1.32,1.21,1.97,1.88,3.84,1.67-.91,1.34,1.02,1.16.94,1.88l-.13.06c.84,0,1.04.66,1.14,1.28.09.62.14,1.25.92,1.48-.14.03-.53.22-.69.02.59.59,1.44,1.5.59,1.96,1.11,1.69,1.53,4.73,3.35,5.82l-.28-.04c1.2.59.41,1.04,1.12,1.87-.11.08-.16.16-.21.16,1.2.71.72,2.72,1.29,3.43l-.61.17.52,1.91v-.75c1.75-.08-.79,1.68.58,2.87.04,1.36,4.06,1.99,3.49,3.53.93.5-1.41-.33-.61.53-.88.2-.65-.35-1.31.04.61.88-.61,1.75.22,2.82l-.68.18c1.56,1.3-.35,3.09,1.05,3.88.88,1.48-1.85,1.46-.18,2.86l-.81.82c-.02.74,1.25.29.94,1.16-.6.07-.28,1.08-.93.73-.58,1.96,2.01,3.36.9,6,1.25.29.79,1.6,1.72,1.81-.49.16.37,2.37-.97,1.26-.11-.1-.13-.3.07-.32l-.71-.03c-1.03,1.58,1.17,2.28,1.22,3.64.15-.43,0-.94.53-.68l.14,1.24-.62-.15v1.88s.67-.38.67-.38c-.2.96-1.35,1.49-.16,2.31.64.35.8-1.02,1.2-.12-.27,1.28-.68,3.19-.63,4.74.78-.28.82.13,1.06.52l-.69.17c1.24,1.44-1.43.85-.39,2.31l-.51-.06,1.53.18c1.62,1.21-1.32,1.01.83,2.3-.22-.61,1.49-.55,1.31.28l-.71-.09c.21.41.52.51.42.82-.4-.2-1,.02-.79.63l-.91-.29,1.42,1c-.58,1.03.54,2.36-.36,2.88,0,0-.19,2.05.91,2.36-.7-.31-.8.82-1.6.6.8.41,1.61,1.86.89,2.56l-.1-.1c-.52,2.34,1.55,3.72.79,5.85.81-.18.47.94,1.49.57,1.24,2.01-1.76,4.02,1.52,4.5.25.95-.66,1.2-.79,1.71l-.19-.22c.41,1.78.46,2.3.49,3.64.36.65,1.87.66,1.58,1.88-.62-.35-.48.13-.45.58-.11-.28-.33-.36-.7.25.19.07.31.19.41.31-.05,0-.08.03-.15.02.25.74.43.6.49.24.09.01.21-.02.37-.14-.72.82.17,2.17-.86,2.31.35,2.24,1.46,3.81,1.91,5.68-.52.23-1-.2-1.23-.74l.24,1.33c-.76,0-.46-.75-.63-1.16-1.17,1.61,1.3,3.24.21,5.11l.6.38-.1.11c.32,0,.75.4.86.68-.66.27-1.53,0-1.48.91-.63.73.33,2.06.67,3.02.11-.51.48-.35.71-.12.02.46-.64.72-.36,1.08l-.9.04c.84-.17.9,1.21,1.26,1.39-.67.25-.56-.72-1.06-.84.05,1.85.03.92.08,2.77.66,1,.85-.16,1.62.33.16.88.76,1.75.19,2.74l.8-.29c.57,1.67.44,2.66-.41,3.73,2.94,6.29,5.05,7.14,6.52,6.31,1.45-.82,2.18-3.28,2.18-3.28,1.99-4.9-.23-7.58-.78-13.46"/>
  <path class="cls-1" d="M45.99,60.27v.41c.09-.13.11-.27,0-.41"/>
  <path class="cls-1" d="M123.99,77.26s.05-.04.08-.07c-.05.02-.07.05-.08.07"/>
  <path class="cls-1" d="M55.13,74.16s-.02,0-.02,0c-.03.03-.07.04-.1.07l.12-.07Z"/>
  <path class="cls-1" d="M35.83,64.47c1.97,2.96,3.44,4.45,5,5.86.79.67,1.64,1.28,2.68,1.8,1.05.53,2.3.92,3.74,1.16,2.69.86,5.52.86,7.86.86,1.2-1.1,3.01.19,4.25-.76l.43.7c.43-.32.91-.53,1.29-.15l-.04.2c.63-.48,1.25-.14,1.56-.38l-.04.2.69-.04-.14.27c1.02-.48,2.02-.43,2.8-.07l.03-.83c1.62,1.15,2.54-.43,3.79,1.03l-.07.19c1.23-.8,1.93-.17,2.57.47.66.65,1.28,1.31,2.73.8-.36.13-.05.44-.15.61,1.05.19,2.18.56,2.85-.92.73.35.4.73.24,1.34.28-.65,1.05-.63,1.66-.41l-.38.13,1.81.53.2-1.37c.76.75-.42,1.6.59,1.68l.42-1.02c1.18.74,1.34,2.57,2.34,3.84,1.3.66,2.73,1.02,4.18,1.32,1.44.33,2.93.47,4.38.66,1.45.22,2.88.38,4.23.71,1.35.35,2.65.79,3.85,1.51l.07.86c-.12,1.22,1.76-1.5,1.75-.35l.7-.45c.13.24.45.53.11.75.55.13.6-.06,1.06-.36l.48.84c2.14.95,4.2-.31,6.48.26,2.64,1.81,8.04.82,11.03.06,4.22-1.64,9.05,3.25,13.34,1.12.14.17.5-.22.49-.36l3.9.11s4.72.02,7.58-1.22c2.88-1.23,3.9-3.66-3.31-8.5l.09-.26c-2.11-.59-3.43-.7-4.85.66-.26-1.63-1.72-.14-2.22-.66l.04-.13c-1.26,1.27-2.62-1.02-3.84.12.05-.13.07-.58.35-.61-.89.22-2.1.57-2.17-.38-2.12.25-5.05-.24-6.44,1.24l.1-.26c-.8,1.01-1.01.13-1.88.61-.04-.13-.1-.19-.09-.25-.88.98-2.46.06-3.16.46v-.63s-1.68.04-1.68.04l.61.18c-.32,1.72-1.19-1.17-2.47-.12-1.1-.29-2.6,3.4-3.72,2.45-.65.76.63-1.27-.28-.72.06-.9.45-.53.3-1.27-.87.36-1.25-1.05-2.32-.57l.04-.71c-1.46,1.11-2.34-1.2-3.37-.13-1.43.37-.58-2.21-2.17-1.06l-.38-1.02c-.56-.24-.62,1.08-1.19.51.15-.58-.73-.63-.25-1.12-1.26-1.2-3.24.76-4.78-1.26-.68,1.04-1.47.14-1.99.92.07-.5-1.87-.61-.53-1.38.11-.06.27,0,.21.19l.3-.63c-.71-1.56-2.1.16-3.1-.33.24.31.68.36.27.75-.32-.12-.64-.24-.95-.37l.37-.5-1.32-.79-.03.75c-.59-.59-.43-1.83-1.54-1.11-.54.42.35,1.14-.47,1.11-.79-.75-1.87-2.03-2.95-2.66-.2.8-.5.65-.88.68l.23-.67c-1.61.4.16-1.6-1.36-1.41l.3-.4-.91,1.21c-1.7.78,0-1.6-2.07-.43.56.12-.39,1.53-.9.97l.44-.55c-.41-.03-.64.18-.82-.05.36-.24.51-.86-.06-.98l.7-.62-1.51.71c-.48-1.01-2.12-.7-2.09-1.73,0,0-.4-.29-.91-.48-.52-.18-1.14-.26-1.53.16.6-.48-.35-1.09.2-1.71-.75.51-2.4.61-2.81-.31l.14-.05c-1.04-.72-2.17-.7-3.2-.64-1.03.06-1.99.14-2.95-.47,0,.82-1.02.25-.88,1.33-2.11.82-3.5-2.42-4.38.77-.87.13-.98-.81-1.41-1l.21-.16c-1.6.19-2.04.2-3.17.06-.57.28-.77,1.78-1.74,1.34.37-.57-.04-.49-.41-.53.24-.07.33-.29-.11-.73-.08.18-.2.28-.3.37,0-.05-.01-.08,0-.15-.62.15-.53.34-.27.46-.02.09-.01.21.06.38-.54-.83-1.74-.15-1.66-1.19-1.73-.02-3.14.74-4.65.68.02-.55.48-.89.92-.98-.34-.03-.66-.06-.96-.11.27-.71.63-.24.97-.3-.38-.74-.9-.63-1.56-.56-.64.08-1.35.08-1.56-.71l-.53.38v-.12c-.17.27-.65.47-.87.44.25-.64.9-1.23.45-1.52.1-.74-1.04-.5-1.65-.73.08.29-.25.46-.52.49-.21-.21.28-.72-.08-.72l.74-.5c-.67.54-1.09-.07-1.45-.02.55-.4.67.11,1.15-.09-.24-.37-.29-.46-.33-.56-.04-.09-.11-.23-.22-.48-.71-.28-.82.23-1.62.15-.26-.42-.87-1.07-.23-1.64-.27.02-.54.05-.82.09-.43-1.28.08-2.16,1.15-2.36-.14-1.32.17-2.55.65-3.57.49-1.03,1.15-1.78,1.62-2.41.55-.64.57-1.13.6-1.59,0-.46-.13-.85-.34-1.19-.42-.31-1.07-.55-1.81-.65-.73-.07-1.58-.05-2.31.13-.76.15-1.39.4-1.85.6-.47.2-.72.36-.72.36-2.21,1.13-3.58,2.71-4.45,4.29-.86,1.59-1.23,3.23-1.27,4.93-.03,1.7.24,3.47.96,5.36.38,1.01.79,1.75,1.3,2.58.49.82,1.09,1.6,1.74,2.4"/>
  <path class="cls-1" d="M177.57,75.13l.76.27c-.02-.15-.22-.27-.76-.27"/>
  <path class="cls-1" d="M98.02,34.9c-.05.04-.11.07-.16.11.12-.05.15-.08.16-.11"/>
  <path class="cls-1" d="M208.26,81.26s-.03,0-.04.01c-.06.05-.12.08-.17.13l.21-.14Z"/>
  <path class="cls-1" d="M169.04,85.85c5.09-.04,8.36.24,11.7.34,1.67.04,3.35.05,5.29-.09.97-.08,2-.15,3.13-.32.56-.08,1.15-.17,1.76-.27.33-.06.66-.11,1-.17.59-.1.89-.18,1.27-.27,2.67-.46,5.14-1.07,7.67-1.74,2.51-.67,4.98-1.39,7.35-2.06.99-.86,2.56-1.25,4.19-1.64.83-.2,1.61-.38,2.46-.66,1.21-.36,2.62-.86,3.63-1.4.72.03,1.46.06,2.23.07,1.45-.79,3.05-1.52,4.89-1.84l.1.18c1.79-1.22,3.7-2.35,3.91-3.07l.17.14c.43-.49.77-.99,1.05-1.5l.14.36c.1-.33.24-.63.27-.99l.05-.58v-.17s.01-.05.01-.05v-.02h0c.33.07.09.02.17.03h0v-.42s.01-.65.01-.65l-.08-.62c-.03-.42-.12-.81-.22-1.19-.24-.69-.47-1.32-.67-1.96-.31-.64-.52-1.27-.87-1.89l-.82.31c-1.29-2.81-3.72-4.71-5.85-6.25-1.12-.77-2.19-1.51-3.33-2.34-.25-.19-.51-.39-.78-.6-.18-.14-.36-.3-.54-.46-.36-.33-.72-.7-1.09-1.12l.16-.13c-1.45-.35-2.51-.86-3.37-1.5-.94-.69-1.72-1.48-2.52-2.28-1.58-1.59-3.2-3.2-6.14-3.93.73.18-.02-.52.14-.66-2.32-1.27-4.75-2.69-5.65-1.34-1.59-1.04-1.04-1.26-.91-1.92-.37.6-1.93-.03-3.22-.77l.73.13-3.78-2.02.03,1.58c-1.74-1.49.35-1.71-1.7-2.53l-.53.97c-2.59-1.76-3.4-4.11-5.77-6.28-5.62-3.17-12.07-5.39-18.52-7.04-6.46-1.67-12.89-2.78-18.91-4.3l-.47-.88c-.16-1.25-3.51,1.55-3.89.43l-1.43.51c-.39-.24-1.22-.48-.51-.74-1.31-.07-1.35.12-2.28.49l-1.4-.75c-5.18-.52-9.42,1.24-14.67,1.49-6.47-.9-18.09,2.23-24.58,4.41-4.52,1.82-9.71,2.18-14.96,2.74-5.23.58-10.52,1.31-14.93,3.76-.36-.07-1.04.53-.99.67-2.88.85-5.75,1.71-8.6,2.64,0,0-.65.22-1.71.59-1.06.39-2.54.94-4.2,1.6-1.66.67-3.48,1.48-5.27,2.32-1.78.87-3.51,1.79-4.96,2.69-2.89,1.84-4.67,3.56-3.61,4.6,1.07,1.07,4.96,1.32,13.35.76l-.11.32c4.68-1.1,7.52-1.97,10.2-4.29,1.02,1.38,3.76-1.1,4.99-.92l-.06.16c2.39-2.1,6.01-.78,8.36-2.65-.07.16,0,.6-.61.81,1.9-.76,4.49-1.85,4.88-.98,4.62-1.52,11.29-2.67,14.02-4.79l-.15.3c1.52-1.4,2.22-.63,4.06-1.54.13.1.28.14.27.19,1.7-1.41,5.54-1.21,7-1.93l.21.61,3.79-.78-1.45.1c.22-1.8,3.05.59,5.65-.92,2.61-.18,4.81-4.29,7.66-3.79,1.21-.96-.99,1.44.88.6.16.89-.84.67-.26,1.33,1.85-.64,3.2.57,5.47-.24l.16.69c2.94-1.55,5.75.52,7.69-.77,3.1-.65,2.1,2.03,5.29.67l1.21.98c1.34.2,1.02-1.14,2.49-.6-.12.58,1.85.61.94,1.11,1.63.58,3.32.43,5.16.43,1.82.02,3.81.18,5.77,1.45,1.2-.95,3.19.29,4.11-.36-.01.5,4.28,1.37,1.56,1.7-.23.02-.59-.1-.51-.28l-.48.58c2,1.94,4.55.69,6.86,1.76-.62-.47-1.57-.75-.78-.97.72.29,1.45.6,2.16.92l-.67.36c1.04.53,2.07,1.06,3.09,1.64l-.16-.85c1.44,1.01,1.47,2.38,3.65,2.25,1.04-.15-1.08-1.56.68-1.01,1.89,1.44,4.64,3.66,7.12,5.28.15-.85.83-.43,1.64-.18l-.26.66c3.23.72.23,1.91,3.32,2.82l-.49.28,1.47-.84c3.17.27.55,2.04,4.26,2.09-1.13-.57.32-1.64,1.48-.55l-.7.37c.8.34,1.2.25,1.61.68-.63.03-.76.69.36,1.27l-1.17.26,2.69.24c1.15,1.61,4.08,2.48,4.17,3.71,0,0,2.99,2.63,4.34,2.3-1.03.07.61,1.54-.34,1.81.63,0,1.65.31,2.57.8.99.54,1.94,1.25,2.19,1.91l-.24-.06c.83.82,1.65,1.43,2.47,1.95.08.05.25.16.26.16h.06s.13,0,.13,0h.31c.42,0,1.13.27.69.58,1.14-.15.83.26,2.37.17.32.15.57.3.7.46.23.26.21.54-.05.73-.44.11-.93.09-1.21.12-.59.05-.47.22.89,1.32-.75.41-1.79-.28-2.24-.32l.02-.18c-.49.28-.88.46-1.25.59l-.38.12c-.24.06-.49.13-.75.19-.51.12-1.06.25-1.71.4-1.21.63-1.05,2.14-3.47,2.36.61-.76-.31-.42-1.18-.22.53-.23.65-.48-.58-.6-.12.22-.34.39-.55.54-.02-.04-.07-.07-.07-.14-1.4.55-1.11.67-.41.59-.01.1.07.2.32.31-1.69-.39-4.2,1.03-4.61.07-2.16.61-3.97,1.35-5.67,2.06-.84.34-1.65.68-2.47,1.01-.23.08-.3.13-.52.2l-.65.19c-.44.12-.88.24-1.34.34-.48-.47.33-1.05,1.36-1.38l-2.57.51c-.06-.76,1.43-.62,2.21-.87-3.2-.81-6.24,1.94-10.01,1.11l-.71.66-.23-.08c.03.32-.76.81-1.3.95-.57-.63-.07-1.53-1.88-1.37-1.47-.54-4.07.56-5.95,1,1.03.06.72.45.29.7-.92.06-1.47-.57-2.17-.26l-.13-.89c.4.83-2.36,1.01-2.68,1.39-.55-.64,1.4-.63,1.61-1.14-3.68.23-1.84.11-5.53.34-1.95.75.39.83-.52,1.65-1.74.24-3.41.92-5.44.47l.67.77c-3.25.74-5.21.74-7.47.05-6.04,1.92-9.28,3.57-10.78,4.83-1.51,1.26-1.32,2.16-.37,2.77.93.63,2.56.99,3.97,1.21,1.41.23,2.59.29,2.59.29,9.48,1.18,14.29-1.19,25.81-2.31"/>
  <path class="cls-1" d="M119.78,22.37h.27c-.11-.11-.21-.15-.27,0"/>
  <path class="cls-1" d="M136.12,43.6s-.02.07-.02.11c.03-.05.03-.08.02-.11"/>
  <path class="cls-1" d="M129.11,32.19h0c.02.08.04.12.07.19l-.07-.19Z"/>
  <path class="cls-1" d="M128.03,34.04c.23-.3.69,0,1.02.27.33.24.54.47.31-.34.13-.07-.14-1.01-.25-1.77-.48-1.33-.46-1.5-.44-1.6.03-.13.07-.01-.31-1.3l.54,1.56c-.26-.85-.42-1.51-.14-.63l.15.5c-.37-1.35-.12-.65-.29-1.35l.14.52-.03-.31.19.76c-.34-1.55-.23-1.83,0-1.19l-.47-2.35c.4,1.2.37.6.43.04.04-.56.17-1.04.45.58l.04.59c-.02-3.25.34-2.1.45-.92.17,1.2.12,2.34.55-.49-.11.71-.09,1.22-.15,1.79.2-.58.39-.79,1.08-5.19.16.24-.09,1.51-.36,3.21.32-1.92.58-2.54.71-2.5l-.19.65c.13-.07.27-.13.39-.17l.71-3.46c-.05,1.3-.9,4.14-.59,3.6l.67-2.7c.08,1.04-.95,5.19-1.47,7.15-.08.91.36.16.64.22.27-.03.37.72-.33,2.11l-.58.76c-.42.53-.11.17.21-.14.32-.32.64-.57.25-.15.12-.1.25-.19.38-.27-.15.19-.32.41-.5.53-.04.12.1,0,.35-.15-.17.19-.35.37-.52.54-.21.31-.07.31.1.41.16.08.34.26.23.5-.52.31-.55.43-.39.85.13.38.55,1.14.58,1.81.03.15.03.27.01.38,0,.05-.03.1-.05.13-.03.03.05-.01.08-.01h.05s0-.02,0-.02h0c.47.97-1.05-2.17,1.05,2.17h0s0-.02,0-.02v-.03c-.14-.28-.32-.9-.33-2.05v-.37s0-.03-.01-.04c0-.02-.03-.06-.05-.09-.05-.07-.11-.15-.21-.24-.18-.19-.59-.44-.87-.67-1.25-.94-2.52-1.84-3.97-1.02-.06-.18-.33.16-.35.3l-2.33-.55s-.18-.03-.47-.08c-.3-.04-.77-.09-.87-.06-.02,0-.03,0-.03.02h0s-.11.42-.11.42c-.17.56-.3.95-.44,1.29-.25.65-.48.99-.62,1.15l-.07.08-.02.02h0s-.56.5-.56.5h0s.02-.03.02-.03c.06-.04.15-.1.22-.12.15-.06.21-.04.09-.04-.84-.06-.71-.83-.51.29-.04-.18-.08-.36-.13-.56-.04-.11-.14-.34-.27-.48-.27-.31-.82-.49-1.46-.24-.62.25-1.31.85-1.62,1.97-.14.56-.18,1.29.17,2.17.22.72.6,1.41,1.09,2.04l-.27.15c1.46,1.16,2.4,1.42,3.02,1.51.59.05.99-.19,1.56-.78-.12,1.64,1.03.34,1.25.91l-.05.13c.99-1.11,1.45,1.29,2.39.31-.05.12-.14.56-.32.56.59-.11,1.4-.35,1.29.6.68-.02,1.46.16,2.21.17.67.01,2.24-.05,3.24-.96l-.12.28c.56-.58.95-.7,1.45-.84.45-.11,1.22-.42,1.3-.81.1.08.18.1.2.15.15-1.3,1.34-1.76,1.24-2.63l.5.44c.24-.43.11-1.12.11-1.71l-.13.55c-.7-.71-.47-.8-.17-1.03.3-.22.66-.63.23-1.51.11-.54-.61-1.49-1.26-2.2-.65-.74-1.24-1.25-.88-1.64-.64-.51,1.06.53.58-.21.74.04.45.39,1.05.26-.32-.76.8-1.31.33-2.28l.58-.14c-.5-.59-.29-1.21-.08-1.88.21-.65.43-1.34-.05-1.5-.22-.54.22-1.04.57-1.55.35-.49.63-1.02.09-1.32l.8-1.32c.15-.85-.94.43-.54-.7.49-.46.42-1.4.87-1.46.41-1.36.16-2.04-.02-2.74-.18-.73-.29-1.47.4-3.8-.47.56-.55.29-.62.04-.13-.11-.23-.26-.61.29.4-.81-.32-1.36.73-2.32.09-.08.12.05-.04.34l.56-.95c.66-2.65-1.04-.13-1.14-1.02-.06.5.07.66-.3,1.19l-.17-.69.41-.73c-.06-.43-.13-.84-.21-1.25l-.35,1.12c.03-.91.56-2.71-.22-1.69-.38.59-.29,1.67-.61,1.59,0-1.17-.19-2.82-.66-3.61-.24,1.06-.36.87-.56.92l.22-.88c-.9.6.27-2.07-.64-1.67l.2-.53-.58,1.58c-.95,1.1.02-1.92-1.16-.29.32.08-.18,1.84-.47,1.22l.22-.69c-.24.02-.36.29-.48.04.19-.32.25-1.04-.11-1.1l.37-.8-.85,1.01c-.42-1.05-1.4-.41-1.56-1.48,0,0-.31-.21-.67-.3-.37-.07-.78,0-.93.52.28-.63-.46-.98-.25-1.73-.37.69-1.37,1.23-1.85.46l.08-.09c-1.69-.78-2.59,1.43-3.92.93.2.81-.46.65-.09,1.66-.43.85-.93.64-1.3.6-.36-.03-.58.17-.12,2.22-.17.58-.55-.48-.74-.51v-.29c-.18.48-.27.78-.38,1.01-.09.26-.23.31-.3.8.07.89.8,2.88.51,3.2-.26-1-.26-.54-.31-.24-.02-.31-.12-.65-.39-.73.09.28.13.51.17.71-.03-.05-.05-.08-.08-.17.03.77.14.89.22.76.05.12.11.24.21.37-.49-.4-.19,1.49-.77.38-.13,1.84.34,4,.43,5.55-.36-.36-.61-1.08-.68-1.65l-.02,1.07c-.49-.71-.2-.92-.25-1.35-.48-.04-.39.84-.27,1.69.11.87.26,1.71-.24,1.89l.38.73h-.08c.22.24.49.84.54,1.09-.5-.33-1.09-1.16-1.16-.5-.55.05,0,1.66.18,2.49.14-.27.4.08.56.36-.02.3-.57.08-.38.48l-.71-.5c.68.38.59,1.32.87,1.63-.56-.19-.39-.78-.77-1.14-.13,1.29-.07.64-.19,1.93.46.97.72.29,1.33.96.07.63.54,1.38,0,1.77l.71.12c.42,1.19.31,1.65-.51,2.08,1.26,2.19,2.61,3.24,3.68,3.64,1.1.43,2,.53,2.71.33,1.42-.14,2.03-.27,2.03-.27.89-.05.75-.1.36-.6-.39-.46-1.05-1.34-1.27-2.23"/>
  <path class="cls-1" d="M24.03,67.98l-.37-.21c.06.14.17.24.37.21"/>
  <path class="cls-1" d="M47.18,100.45s.05.04.09.05c-.04-.04-.07-.05-.09-.05"/>
  <path class="cls-1" d="M4.5,63.88h.02s.03-.08.03-.11l-.05.11Z"/>
  <path class="cls-1" d="M23.55,57.23c-1.81.46-3.08.43-4.33.52-.62.05-1.24.13-1.91.32-.34.1-.67.22-1.07.39-.73.3-1.5.66-2.32,1.07-3.38,1.22-6.61,2.94-9.39,4.34-.01.92-1.88,1.35-3.17,1.99-.07.43,0,.78.29,1.17-.35.03-.68.08-1.01.12.36.46.5.91-.04,1.12l-.23-.07c.48.52-.04.89.17,1.14l-.21-.05-.08.49-.26-.12c.31,1.16.35,2.53.27,3.61l.82-.11c-.29,1.16.17,1.92.63,2.58.46.67.94,1.24.94,2.25l-.22.03c1.84.77,2.14,1.55,2.51,2.46.36.86.84,1.85,3.03,1.9-.54-.01-.27.35-.48.47,1.36.53,2.89.99,4.22-.31.87.32.35.65,0,1.21.54-.58,1.57-.59,2.36-.46l-.53.16c.79.11,1.59.19,2.39.25.07-.44.16-.88.27-1.31.89.54-.54,1.57.77,1.46l.45-1.05c1.3.43,2.35,2.28,2.8,3.25,1.69.62,3.63.68,5.55,1.17,1.88.49,3.7,1.43,4.42,3.29l-.42.74c-.74.95,1.89-.77,1.24.18l.67-.14c-.06.24-.05.56-.39.63.24.28.37.15.82.08l-.27.81c.51,1.4,2.41,1.41,3.02,2.87-.18,1.18.44,2.24,1.2,3.37.8,1.09,1.77,2.25,2.48,3.16,1.28,1.21.92,3.08.46,4.82-.47,1.78-.99,3.47.14,5.03-.16.12.24.37.38.36-.01,1.01-.02,2.01-.07,3.04,0,0-.01.93.11,2.15.11,1.23.35,2.77.9,3.98,1.08,2.39,3.49,3.49,8.62-2.45l.26.08c.66-1.8.8-2.98-.57-4.21,1.63-.24.14-1.51.64-1.97l.14.03c-1.3-1.06.92-2.41-.29-3.45.13.03.59.02.63.27-.27-.8-.75-1.87.19-2.04-.45-1.92-.51-4.82-2.3-5.75l.27.03c-1.14-.48-.37-.89-1.08-1.55.11-.08.16-.15.21-.15-1.15-.49-.83-2.18-1.44-2.66l.58-.25-.72-1.46.09.61c-1.68.46.58-1.55-.97-2.18-.12-.55-1.19-.65-2.18-.73-.99-.09-1.85-.17-1.78-.83-.96,0,1.37-.3.43-.63.76-.5.68.01,1.19-.54-.76-.44.08-1.61-.99-2.07l.55-.45c-1.78-.26-.79-2.54-2.32-2.4-1.3-.58.9-2.11-1.07-2.16l.25-1.07c-.35-.54-1.11.56-1.3-.24.44-.43-.35-.92.33-1.09-.3-.87-1.14-1.13-1.98-1.43-.83-.32-1.67-.66-2.12-1.9-1,.77-1.52-.36-2.24.25.2-.47-1.77-1.03-.23-1.47.13-.03.28.07.18.24l.45-.55c-.47-1.75-2.28-.34-3.24-.98.24.34.67.48.2.79l-.95-.5.43-.46c-.46-.3-.92-.63-1.4-.9l-.03.75c-.61-.6-.51-1.89-1.69-1.17-.55.44.43,1.14-.43,1.13-.43-.37-.97-.88-1.59-1.29-.31-.21-.64-.42-.97-.6-.17-.1-.33-.17-.49-.25l-.12-.05s.01-.02,0-.03l-.02-.05c-.16.8-.22.76-.35.9l.2-.68c-.6.9.51-1.49.09-.77l.25-.46c-.24.46-.51.92-.79,1.37-.51.63-.37.28-.2,0,.14-.28.34-.49-.51.34.21-.09-1.05,1.41-1.09,1.09l.59-.59c-.22.11-.5.35-.46.21.38-.31.87-.86.66-.78.29-.24.56-.48.82-.73-.41.35-.86.7-1.37,1.03.57-.65-.76,0,.33-.78-.04-.01.39-.43-1.21.23,1-.41,1.22-.66,2.4-1.14-1.09.5-2.33.65-1.06.19l.16-.04c.6-.27.1-.17-.44-.2-.53,0-1.07-.15-.13-.3-1.62.06-.77-.14-2.85-.11-1.07-.29-.02-.57.59-.59.68,0,.68-.02-2.13-.63.02-.2,1.69.12,2.08.15l.23.09c-.02-.19.04-.3.22-.38.07-.03.18-.06.32-.1-.28-.23-2.18-1.09-1.25-1.08.58.41.62.28.77.22,0,.1.26.24.88.42-.19-.13-.28-.21-.34-.29.05.03.09.05.17.09,0-.23-.23-.34-.43-.34-.09-.06-.23-.13-.45-.23,1.08.4.74-.36,1.7.37.38-.41.28-1.52.98-2.22.28.46.29.96.21,1.21.16-.13.14-.19.49-.4.15.35.02.52-.08.59-.06.06-.16.05-.19.15.33.53.9-.03,1.34-.54.46-.52.94-1.06,1.77-.78l.04-.66.11.06c-.12-.3.01-.81.16-.98.41.55.53,1.43,1.14,1.16.72.41,1.28-.83,1.81-1.4-.39.02-.4-.36-.34-.64.3-.14.72.42.86.06l.34.83c-.42-.75.5-1.16.49-1.54.41.56-.29.71-.19,1.21,1.22-.54.61-.27,1.84-.81.44-.88-.41-.75-.36-1.6.53-.38.91-1.17,1.77-.91l-.48-.67c.91-.98,1.62-1.13,2.64-.64,3.12-4.51,2.9-6.74,1.83-7.86-1.06-1.12-2.95-1.1-2.95-1.1-3.95-.49-4.92,2.31-8.67,4.35"/>
  <path class="cls-1" d="M265.39,110.96c.21.13.42.25.63.39,0-.15-.15-.32-.63-.39"/>
  <path class="cls-1" d="M286.61,249.15c-.01.06-.04.11-.04.17.05-.1.06-.14.04-.17"/>
  <path class="cls-1" d="M281.39,129.65l-.02-.02c-.05,0-.1-.03-.15-.03l.17.05Z"/>
  <path class="cls-1" d="M257.83,121c3.69.06,5.91.7,8.01,1.38,2.02.63,4.04,1.25,7.28,2.26.74.28,1.41.71,2.14,1.04.73.33,1.42.72,2.12,1.13,1.39.82,2.76,1.77,3.99,2.83,1.99.21,3,3.13,4.92,4.09l-.1,1.01c.66.35,1.32.88,1.38,1.65l-.19.07c.99.57,1.33,1.73,1.8,2.04l-.19.06c.24.34.47.69.7,1.05l-.35-.05c1.35,1.31,2.17,3.04,2.7,4.61l.69-.47c.55,3.64,2.69,4.23,2.65,7.7l-.2.02c1.73,1.59,1.73,3.34,1.79,5.01.1,1.67-.07,3.37,1.39,5.27-.36-.48-.37.3-.58.29.57,1.88.93,3.96,2.55,3.79.18,1.45-.34,1.24-.93,1.49.71-.09,1.1,1.15,1.24,2.28l-.32-.5.5,3.24,1.29-.72c-.28,1.78-1.6.53-1.22,2.19l1.11-.06c-.07,1.22-.52,2.2-1.04,3.15-.54.95-1.2,1.88-1.63,3.02-.11,2.39-.27,4.82-.25,7.29-.12,2.46-.09,4.96-.32,7.44-.32,4.95-1.2,9.82-3.32,13.94l-.91.17c-1.22-.17,1.07,2.88-.11,2.91.09.39.15.78.22,1.17-.3.22-.71.75-.81.17-.34.91-.16.99-.02,1.77l-1.04.76c-1.73,3.44-1.49,6.98-3.34,10.55-1.66,1.89-3.11,4.93-4.58,8.02-1.45,3.09-2.93,6.24-4.17,8.47-1.48,3.37-4.8,5.69-8.16,7.39-3.33,1.75-6.64,2.7-9.46,4.92-.27-.09-.68.47-.63.6-2,.65-4.04,1.12-6.05,1.38,0,0-.46.08-1.21.16-.75.09-1.79.2-2.94.24-1.16.06-2.42.02-3.64-.05-.78.02-1.52-.15-2.16-.32-.66-.17-1.22-.32-1.65-.43-.28-.07-.54-.14-.85-.17-.3-.04-.62-.07-.94.12-.59.25-1.49,1.12-1.21,3.21.16,1.01.66,2.28,1.73,3.54.53.63,1.2,1.27,2.04,1.85.4.29.94.58,1.36.81.42.22.86.45,1.32.69l-.25.23c2.29.65,4.23.91,5.91.76,1.7-.12,3.16-.61,4.54-1.51.38.78,1.29.62,2.23.33.93-.33,1.88-.8,2.44-.7l-.06.16c1.11-.98,2.47-1.16,3.85-1.39,1.37-.23,2.75-.52,3.67-1.59-.03.16.12.59-.42.87,1.65-.98,3.7-2.58,4.32-1.84.96-.65,2.02-1.36,3.08-2.14.99-.8,2.05-1.57,2.95-2.43,1.84-1.69,3.27-3.5,3.68-5.04l.06.32c.33-1.88,1.32-1.6,2.05-3.31.16,0,.29-.05.31,0,.35-1.93,2.93-4.04,3.35-5.44l.57.28c.61-.96,1.14-1.95,1.71-2.92l-.79.99c-1.24-1.27,2.3-1.59,2.51-4.3,1.3-1.93-1.09-5.67.59-7.35-.29-1.32.8,1.42.91-.32.85.32.2.93,1.03.84.28-1.65,1.93-2.07,2.12-4.17l.68.19c-.22-2.89,2.63-4.3,2.04-6.36.31-2.72,2.55-1.06,2.1-4.16l1.24-.76c.52-1.11-.88-1.16-.07-2.31.56.25.92-1.5,1.25-.59,1.75-2.7.29-6.27,2.66-9.85-.98-1.09.1-2.93-.64-3.73.54,0,.71-3.97,1.46-1.55.06.21-.01.55-.2.49l.64.39c1.62-2.08,0-4.25.41-6.48-.3.64-.34,1.54-.75.88l.33-2.08.53.5.69-3.11-.77.37c.52-1.49,1.75-1.96.85-3.78-.52-.82-1.07,1.4-1.19-.24.68-2.01,1.43-5.1,1.69-7.77-.81.25-.8-.46-.98-1.19l.7-.1c-1.06-2.79,1.52-1.09.66-3.88l.5.22-1.52-.66c-1.6-2.42,1.35-1.49-.79-4.13.21,1.09-1.51.66-1.31-.71l.71.27c-.2-.73-.55-.95-.47-1.46.43.4,1.02.12.75-.97l.95.64-1.53-1.93c.55-1.73-.86-4.1-.06-4.94,0,0-.21-3.58-1.5-4.09.82.53.56-1.42,1.45-1.07-.97-.72-2.18-3.16-1.83-4.42l.15.17c-.28-2.04-1.01-3.64-1.91-5.09-.89-1.46-1.67-2.88-1.98-4.74-.67.49-1.11-1.41-1.85-.54-1.3-1.43-1.51-3.19-2.01-4.54-.46-1.35-1.08-2.32-2.81-2.03-1.05-1.32-.45-2.1-.82-2.93l.38.24c-2.07-2.5-2.7-3.2-4.22-5.09-1.06-.7-2.26.18-3.5-1.57.92.05.21-.48-.38-1.04.43.29.72.24.19-.79-.24.04-.49-.04-.72-.11.02-.04.02-.1.08-.13-1.16-.75-1.11-.43-.68.04-.08.05-.12.17-.08.43-.55-1.53-3.09-2.39-2.65-3.31-.89-.55-1.78-.98-2.64-1.33-.87-.32-1.73-.56-2.55-.79-.81-.25-1.63-.38-2.44-.54-.81-.14-1.59-.37-2.42-.49-.2-.59.72-.88,1.71-.66-.77-.27-1.57-.4-2.35-.59.24-.71,1.48-.04,2.23.11-1.17-1.06-2.75-1.25-4.32-1.3-.79-.01-1.6-.02-2.39-.14-.79-.1-1.58-.25-2.38-.65l-.76.5-.18-.13c-.03.31-.8.67-1.28.75-.4-.69.17-1.52-1.48-1.6-.63-.39-1.56-.3-2.53-.11-.97.18-1.97.52-2.78.75.89.08.61.46.24.7-.78.05-1.27-.59-1.87-.28l-.13-.89c.35.8-2,1.08-2.25,1.47-.51-.62,1.17-.68,1.33-1.19-3.17.37-1.6.14-4.72.63-1.57.88.42.8-.27,1.68-1.42.38-2.71,1.22-4.43,1l.66.68c-2.54,1.11-4.1,1.36-6.05.98-4.51,2.72-6.75,4.79-7.73,6.22-.97,1.44-.65,2.28.23,2.77.87.49,2.27.63,3.45.65,1.18.03,2.13-.07,2.13-.07,3.88-.08,6.56-.83,9.36-1.8,2.79-.93,5.75-2.17,9.94-2.68"/>
  <path class="cls-1" d="M261.67,128.05l.61.3c-.02-.15-.17-.28-.61-.3"/>
  <path class="cls-1" d="M277.32,245.61s-.05.09-.07.14c.06-.08.07-.11.07-.14"/>
  <path class="cls-1" d="M277.34,143.24s-.02-.01-.02-.01c-.05,0-.09,0-.13,0h.15Z"/>
  <path class="cls-1" d="M256.88,139.07c3.04-.49,4.94-.15,6.79.18,1.84.37,3.63.63,6.42.99,2.56.76,5.17,1.56,7.23,2.99.82-.08,1.56.41,2.13,1.1.3.33.62.64.95.93.31.31.66.57,1.1.71l-.17.86c.58.2,1.1.63,1.09,1.26l-.19.08c.91.35,1.01,1.38,1.45,1.59l-.19.06c.17.28.38.54.54.84l-.32-.04c.53.54.96,1.17,1.3,1.82.3.68.49,1.39.6,2.07l.74-.37c0,3.1,1.93,3.79,1.37,6.8h-.2c1.41,1.55,1.2,3.08,1,4.55-.22,1.49-.49,2.97.67,4.81-.29-.46-.41.23-.61.2.33,1.75.54,3.64,2.14,3.62.02,1.32-.47,1.08-1.09,1.27.71-.03,1.04,1.11,1.09,2.14l-.28-.47.29,2.97,1.33-.61c-.36,1.6-1.63.43-1.28,1.95l1.11-.03c-.19,2.21-1.86,3.51-2.67,5.63-.22,4.39.34,8.91.56,13.35.22,4.39.11,8.86-1.31,12.65l-.87.24c-1.22-.02,1.5,2.35.34,2.48l.4.97c-.26.21-.57.68-.77.2-.18.79,0,.84.25,1.48-.3.24-.61.46-.92.68-.62,1.45-.78,2.82-1,4.16-.21,1.33-.52,2.67-1.32,3.66-1.43.82-3.06,2.45-5.32,4.64-2.2,2.18-4.37,4.53-6.02,6.21-2.11,2.6-5.63,4.14-8.6,4.74-1.5.3-2.84.37-3.9.38-1.11,0-1.81.07-3.03.29-.09-.19-.57.07-.61.19-1.39-.48-2.98-1.37-4.8-2.41,0,0-.43-.23-1.16-.61-.74-.38-1.83-.93-3.24-1.48-1.02-.37-2.16-.78-3.29-1.19-.9-.35-1.55-.62-2.23-.98-1.35-.7-2.76-1.83-3.86-.9-.52.46-1.04,1.4-1.03,3.18.03.88.22,2,.81,3.3.59,1.29,1.64,2.72,2.92,4.05l-.29.15c.87.62,1.64,1.09,2.33,1.47.28.15.55.3.81.45.25.12.5.26.75.36,1.02.44,2.13.7,3.52.68-.46,1.62,2.59,1.55,3.28,2.39l-.14.09c1.38-.08,2.51.62,3.83,1.24,1.3.61,2.83,1.12,4.27.55-.11.13-.17.58-.85.58,2.19-.05,4.75-.92,5.09-.06,2.35-.62,4.87-1.62,6.84-2.8,1.98-1.18,3.47-2.49,4.03-3.77v.31c.56-1.6,1.37-1.09,2.31-2.38.14.06.26.05.28.1.61-1.65,3.35-2.61,4.03-3.68l.44.46,2.19-1.91-.93.57c-.79-1.59,2.4-.5,3.31-2.76.84-.57,1.04-1.96,1.21-3.27.19-1.33.32-2.56,1.3-3.09,0-1.3.47,1.54.94-.06.76.51-.01.94.81,1.05.62-1.49,2.38-1.74,2.73-3.82l.67.23c0-1.46.62-2.45,1.2-3.41.58-.94,1.1-1.82.7-2.76.04-2.54,2.47-1.18,1.63-4.01l1.11-.82c.34-1.07-1.03-.96-.39-2.09.59.16.68-1.45,1.15-.67,1.3-2.64-.72-5.6,1.11-8.91-1.11-.84-.31-2.55-1.15-3.16.52-.07.25-3.5,1.27-1.48.08.17.05.47-.15.44l.68.27c1.41-1.94-.56-3.65-.31-5.6-.24.57-.2,1.35-.67.82l.14-1.81.58.39.39-2.7-.73.36c.39-1.31,1.62-1.77.6-3.26-.57-.67-.98,1.24-1.2-.15.5-1.75,1.23-4.38,1.43-6.61-.81.22-.79-.38-.96-1l.71-.08c-1.01-2.35,1.54-.88.74-3.21l.49.2-1.48-.6c-1.43-2.09,1.45-1.18-.51-3.52.13.94-1.54.48-1.27-.69l.69.28c-.17-.64-.46-.85-.33-1.28.38.37,1,.17.85-.78l.87.61-1.32-1.76c.67-1.43-.38-3.6.52-4.26,0,0,.07-.77-.02-1.62-.1-.85-.34-1.79-.9-2.08.71.55.79-1.18,1.6-.79-.85-.73-1.74-2.99-1.15-4.08l.12.17c.04-.92-.08-1.76-.27-2.54-.23-.78-.53-1.51-.82-2.22-.59-1.42-1.24-2.78-1.28-4.53-.73.4-.9-1.42-1.74-.65-1.01-1.43-1.23-3.05-1.51-4.37-.39-1.29-.93-2.25-2.62-1.97-.98-1.23-.38-1.98-.7-2.78l.35.22c-2-2.33-2.61-2.98-4.18-4.65-1.03-.6-2.16.42-3.44-1.08.87-.07.17-.49-.41-.96.42.22.69.14.13-.79-.23.07-.47.04-.69,0,.02-.04,0-.1.06-.14-1.17-.54-1.08-.25-.65.14-.07.06-.1.19-.04.42-.64-1.41-3.1-1.77-2.78-2.74-3.56-1.47-6.44-1.1-9.37-1.25-.24-.58.52-.92,1.43-.95-.72-.08-1.44-.16-2.16-.18.13-.76,1.3-.25,1.98-.26-1.16-.87-2.58-.76-3.99-.56-1.42.19-2.81.49-4.32-.05l-.6.63-.18-.09c.02.32-.61.77-1.03.91-.46-.62-.08-1.53-1.56-1.36-1.25-.5-3.29.77-4.63,1.47.81-.06.63.35.35.65-.69.16-1.24-.36-1.71.05l-.29-.85c.48.73-1.57,1.38-1.7,1.81-.59-.52.89-.86.93-1.39-2.74.92-1.39.43-4.06,1.47-1.18,1.17.55.69.16,1.68-1.16.65-2.07,1.7-3.63,1.85l.76.52c-1.91,1.58-3.17,2.15-4.97,2.25-3.06,3.63-4.19,6.13-4.49,7.71-.29,1.58.29,2.28,1.21,2.48.9.23,2.09,0,3.06-.25.97-.25,1.71-.55,1.71-.55,3.13-.93,5.04-2.12,7.04-3.54,1.99-1.4,4.1-3.06,7.45-4.21"/>
  <path class="cls-1" d="M132.17,19.19l-.33-.02c.15.03.28.04.33.02"/>
  <path class="cls-1" d="M130.01,31.76s.04.01.07.02c-.03-.01-.05-.02-.07-.02"/>
  <path class="cls-1" d="M120.87,18.91h0s-.05-.02-.08-.03l.08.03Z"/>
  <path class="cls-1" d="M122.3,16.46c-.54.61-2.08.48-1.62,1.32-.19.32.08.75.2,1.13,1.14.4-.07.44.88.83l-.68-.06c.32.13.54.25.16.25l-.19-.04c.49.2.16.25.41.34l-.2-.04.06.13-.27-.08c.5.27.5.45.23.56l.81.14c-.97.15.69.59-.44.68l-.2-.04c2.06.78-1.57.32.39,1.08-.24-.09-.42-.06-.62-.1.2.22.28.43,1.87.73-.04.12-.52.01-1.13-.08.7.13.97.29.99.4l-.26-.1.18.33,1.33.18c-.41.08-1.61-.25-1.32-.05l1.09.2c-.25.17-1.93,0-2.77.06-.62.77,2.01,2.17-.05,2.63l-.83-.1c-1.2-.19,1.74.52.62.36l.53.18c-.22,0-.46,0-.72-.08-.06.08.13.11.49.23l-.76-.03c-.64.24.76.77.41,1.07-1.59.18-.32,1.21.43,1.8,1.7.92-3.21.96-1.25,1.93-.17,0,.2.11.34.13l-.26.59s-.22.73.85,1.34c1.07.62,3.43,1.09,8.57.7l.26.05c.68-.23.85-.41-.44-.82,1.62.2.21-.24.74-.24l.13.03c-1.22-.38,1.09-.25,0-.6.13.03.57.1.59.14-.18-.17-.52-.41.43-.28-.2-.36.3-.75-1.16-1.19l.26.05c-.99-.27-.13-.18-.62-.39.12.01.19.02.24.02-.98-.29-.1-.4-.51-.58l.62.09-.11-.28-.15.08c-1.71-.3,1.11-.03.02-.39.24-.14-3.51-.93-2.64-.98-.79-.22,1.29.29.7.06.9.14.55.15,1.27.23-.4-.2.95-.06.37-.32l.7.11c-1.24-.42.98-.24-.21-.58-.54-.31,2.09.2.76-.25l.96.07c.17-.07-1.14-.26-.67-.29.59.11.49-.05,1.05.1.97-.08-1.23-.7.39-.75-1.14-.27-.43-.3-1.29-.5.5.08.14-.3,1.2.06.09.03.07.05-.13.02l.68.14c1.32.05-.65-.44-.42-.58-.23.01-.19.09-.65-.04l.12-.15.57.13.38-.18-.72-.09c.39-.05,1.61.12.62-.19-.55-.16-.98-.06-1.18-.22.51-.07,1.29-.18,1.54-.34-.8-.13-.76-.18-.92-.26l.7.12c-.93-.39,1.54.2.81-.15l.48.11-1.44-.32c-1.34-.44,1.46.16-.38-.4.1.11-1.54-.24-1.22-.29l.66.15c-.13-.08-.41-.15-.26-.17.35.1.97.2.87.09l.83.21-1.2-.39c.74.01-.12-.35.83-.23,0,0,.51-.18-.51-.43.63.18.9.08,1.65.26-.71-.21-1.27-.52-.48-.46l.08.03c.85-.15-.98-.72.03-.8-.81-.14-.34-.2-1.38-.37-.96-.48,2.19-.1-.97-.82-.15-.16.78,0,.95-.04l.16.06c-.21-.29-.23-.37-.12-.53-.29-.15-1.76-.46-1.38-.55.58.17.48.08.49.02.09.06.3.11.71.11-.18-.05-.29-.09-.38-.12.05,0,.08.02.15.03-.19-.14-.37-.16-.46-.13-.09-.02-.2-.04-.37-.06.78.05,0-.3,1.02-.1-.17-.34-1.17-.77-1.51-1.1.52.08.97.23,1.16.35l-.15-.22c.74.16.41.19.54.28,1.25.04-1.11-.68.04-.7l-.58-.17h.1c-.31-.06-.72-.2-.82-.26.65.1,1.49.32,1.48.19.65.04-.26-.34-.58-.54-.12.04-.48-.05-.7-.13,0-.06.65.04.38-.07l.88.18c-.83-.15-.86-.35-1.21-.45.66.1.54.21,1.02.33-.03-.26-.01-.13-.04-.39-.63-.27-.83-.15-1.58-.38-.15-.15-.73-.4-.18-.41l-.78-.13c-.55-.35-.44-.46.38-.44-2.98-1.5-5.11-2.08-6.51-2.26-1.39-.18-2.04.02-2.04.02-1.86.28.32,1.12.76,2.03"/>
  <path class="cls-1" d="M134.31,22.09l-.33.14c.15,0,.28-.04.33-.14"/>
  <path class="cls-1" d="M126.81,20.81s-.04-.03-.07-.04c.02.03.04.04.07.04"/>
  <path class="cls-1" d="M123.14,26.98h0s-.05-.03-.08-.04l.08.04Z"/>
  <path class="cls-1" d="M124.04,20.8c-.35,1.65-1.88,2.08-1.26,3.74-.13.79.21,1.64.36,2.43,1.19.42-.02,1.02.95,1.52l-.69.13c.33.17.56.36.18.49l-.2-.02c.5.26.17.5.42.62l-.2-.02.07.28-.28-.07c.52.44.52.85.24,1.19l.82.04c-.98.69.68,1.14-.48,1.72l-.2-.03c2.06,1.13-1.62,1.2.3,2.36-.24-.15-.43,0-.62-.04.18.45.24.91,1.84,1.15-.07.31-.54.18-1.16.12.7.1.95.42.96.66l-.25-.15.12.68,8.15.98v-.05s-.44.01-.44.01l-7.27-.88.91.05s-.1.06-.16.07l5.75.69c.5-.2,1.45.08,1.19-.27l-1.1-.08c.26-.51,1.96-.68,2.82-1.11.65-2.03-1.93-4.59.24-6.32h.84c1.21.12-1.72-.74-.6-.68l-.53-.29c.22-.04.47-.14.73,0,.07-.2-.12-.23-.47-.43l.78-.13c.69-.75-.67-1.63-.26-2.46,1.67-.83.55-2.96-.08-4.23-.56-.67-.25-1.25.29-1.79l-8.73.89c-.43,1.08-1.73,2.04-.31,2.48-.17.06.23.1.37.08,0,.35-.03.71-.07,1.05,0,0-.01.31.1.72.11.42.33.94.83,1.43.51.49,1.31.99,2.68,1.17,1.35.15,3.34.06,5.98-1.56l.26.06c.71-1.04.83-1.82-.55-2.47,1.63-.22.11-.89.6-1.18h.14c-1.32-.46.84-1.52-.4-1.96.13,0,.57-.08.63.06-.3-.44-.8-.96.11-1.24-.34-.69-.51-1.63-1.07-2.25L119.95,0l5.97,19.06c.11.35.35.68.85.96l-.25-.08c.96.48.08.43.54.87-.13,0-.19.02-.24,0,.95.5,0,1.03.38,1.38l-.63-.08.04.71.17-.24c1.7.35-1.16.36-.12,1.02-.29.44,3.44,1.46,2.53,1.81.77.34-1.28-.38-.71.04-.9-.11-.54-.24-1.27-.25.38.4-.99.43-.44.93l-.7-.08c1.21.72-1.06.91.11,1.44.51.64-2.13.12-.83.88l-.98.11c-.18.23,1.14.32.65.55-.6-.09-.52.3-1.07.07-1.01.53,1.17,1.44-.5,2.11,1.14.31.41.66,1.27.88-.51-.03-.17.84-1.22.25-.08-.05-.06-.12.14-.1l-.68-.13c-1.35.35.63.95.38,1.4.24-.12.2-.31.66-.14l-.14.43-.57-.15-.4.62.73-.02c-.4.29-1.64.29-.65.75.55.21,1-.22,1.19.14-.53.38-1.33.96-1.59,1.5.82.02.77.16.93.33l-.71-.04c.93.66-1.57.09-.84.73l-.49-.09.84.15,22.45,4.13-9.1-2.52-.61-.17c-1.3-.76,1.49-.06-.3-.96.08.25-1.56-.13-1.21-.37l.66.18c-.12-.18-.39-.28-.24-.36.35.15.97.2.89-.06l.82.28-1.18-.63c.77-.24-.06-.91.91-.93,0,0,.56-.69-.46-.99.63.23.93-.15,1.68.06-.71-.29-1.24-.92-.44-1.07l.08.05c.89-.77-.94-1.56.09-2.23-.82-.04-.34-.4-1.39-.39-.96-.85,2.23-1.28-.98-1.78-.15-.36.78-.37.96-.54l.17.1c-.23-.68-.25-.87-.15-1.36-.31-.26-1.81-.37-1.43-.78.59.16.49-.02.49-.18.09.11.31.15.72-.05-.18-.04-.3-.09-.39-.14.05,0,.08,0,.15,0-.2-.28-.39-.24-.48-.12-.09,0-.21,0-.38.03.79-.26-.03-.79,1-.8-.22-.83-1.27-1.44-1.67-2.11.53-.08,1,.08,1.2.28l-.19-.49c.76,0,.44.28.59.43,1.24-.58-1.23-1.19-.11-1.88l-.6-.13.1-.04c-.32,0-.75-.14-.86-.23.66-.11,1.53-.02,1.48-.36.63-.28-.34-.75-.71-1.08-.1.19-.47.14-.71.07-.03-.16.63-.29.34-.4l.89-.05c-.84.1-.93-.4-1.29-.45.66-.12.58.23,1.08.26-.11-.67-.06-.33-.17-1-.69-.32-.84.11-1.63-.02-.19-.3-.83-.57-.32-.96l-.78.16c-.65-.54-.59-.88.19-1.33-3.4-1.88-5.63-1.81-6.99-1.39-1.37.43-1.89,1.25-1.89,1.25-1.63,1.66.74,2.26,1.43,4.1"/>
  <path class="cls-1" d="M52.88,65.03l.33.04c-.15-.03-.28-.05-.33-.04"/>
  <path class="cls-1" d="M54.97,55.38s-.04-.02-.07-.02c.02.01.05.02.07.02"/>
  <path class="cls-1" d="M64.06,66.04h0s.05.02.08.03l-.08-.03Z"/>
  <path class="cls-1" d="M62.74,67.78c.51-.42,2.04-.21,1.55-.88.18-.22-.1-.57-.23-.86-1.14-.39.06-.33-.89-.69l.67.1c-.32-.12-.54-.23-.17-.2l.19.05c-.49-.19-.17-.2-.41-.29l.19.05-.07-.11.27.08c-.5-.25-.51-.38-.24-.44l-.81-.17c.95-.03-.69-.5.42-.48l.19.05c-2.05-.76,1.54-.1-.4-.85.24.09.42.08.61.13-.2-.18-.29-.35-1.86-.71.04-.09.51.04,1.12.16-.69-.16-.96-.31-.99-.39l.26.1-.19-.27-1.31-.26c.4-.03,1.6.34,1.3.16l-1.08-.25c.25-.11,1.91.18,2.74.21.61-.52-1.99-1.83.04-1.97l.82.16c1.19.26-1.72-.56-.62-.33l-.53-.19c.22.03.45.04.71.14.06-.05-.13-.1-.48-.23l.75.1c.63-.12-.75-.65-.4-.85,1.58.03.33-.87-.4-1.4-1.66-.88,3.19-.35,1.27-1.31.17.02-.2-.1-.33-.14l.27-.41s.95-2.06-9.25-2.67l-.25-.07c-.69.1-.86.22.4.69-1.6-.34-.21.16-.74.1l-.13-.04c1.19.43-1.09.07-.02.47-.12-.03-.56-.14-.58-.18.18.15.5.38-.43.17.19.31-.32.56,1.12,1.06l-.26-.07c.98.32.12.15.61.37-.12-.02-.19-.03-.24-.04.97.33.09.33.49.5l-.62-.14.1.23.15-.04c1.69.42-1.1-.09-.03.3-.24.09,3.46,1.08,2.59,1.03.78.25-1.27-.35-.69-.11-.88-.2-.54-.17-1.25-.31.4.19-.94-.05-.37.21l-.69-.15c1.22.45-.97.09.2.47.53.29-2.07-.36-.76.12l-.95-.15c-.17.04,1.13.31.66.29-.59-.14-.49,0-1.04-.18-.96-.03,1.22.67-.39.55,1.13.31.42.28,1.27.51-.5-.11-.14.22-1.18-.16-.09-.03-.06-.05.13,0l-.67-.17c-1.31-.16.65.41.42.5.23.01.19-.06.64.09l-.12.1-.56-.16-.38.11.71.14c-.38,0-1.59-.23-.61.1.55.17.97.13,1.17.28-.51.01-1.27.03-1.52.14.8.17.76.2.91.28l-.69-.15c.92.39-1.53-.29-.8.05l-.48-.12,1.43.37c1.33.46-1.45-.25.38.35-.1-.09,1.53.32,1.21.33l-.66-.17c.13.08.41.16.26.15-.35-.11-.96-.24-.86-.14l-.82-.23,1.2.4c-.73-.07.12.29-.82.11,0,0-.51.1.51.38-.63-.19-.9-.13-1.64-.33.71.22,1.26.51.48.4l-.08-.03c-.84.05.98.64-.02.63.8.17.34.18,1.37.39.96.45-2.17-.08.97.72.15.14-.77-.05-.94-.04l-.16-.06c.22.24.23.3.13.42.29.14,1.76.49,1.37.53-.57-.17-.48-.1-.49-.05-.09-.05-.3-.11-.7-.14.18.05.29.09.38.12-.05,0-.08-.02-.15-.03.19.12.37.15.46.13.09.02.2.04.37.07-.77-.09,0,.23-1,.01.18.28,1.18.68,1.52.96-.52-.1-.97-.25-1.15-.35l.16.18c-.74-.17-.41-.18-.55-.25-1.24-.11,1.12.61-.02.54l.58.17h-.1c.31.06.72.2.82.25-.65-.12-1.49-.34-1.47-.24-.64-.07.26.28.59.46.12-.03.48.07.7.15.01.05-.64-.07-.37.03l-.87-.2c.83.17.86.33,1.21.42-.65-.12-.54-.2-1.02-.32.04.21.02.1.06.31.63.25.83.17,1.58.39.15.13.74.35.19.33l.78.15c.56.3.45.38-.36.31,6.02,2.68,8.55,2.24,8.55,2.24,1.82-.09-.37-.86-.84-1.58"/>
  <path class="cls-1" d="M78.55,71.61l-.11-.04s.09.03.11.04"/>
  <path class="cls-1" d="M78.64,62.52s-.04-.01-.07-.02c.02.01.05.02.07.02"/>
  <path class="cls-1" d="M87.81,72.6h0s.05.02.08.03l-.08-.03Z"/>
  <path class="cls-1" d="M85.39,76.34c1.08-1.23,1.59-1.55,2.14-2.04.12-.11.24-.23.34-.35.05-.05.1-.14.13-.17.03-.01.05-.03.08-.05.08-.07.08-.18-.04-.33.18-.2-.11-.53-.24-.8-1.14-.38.05-.3-.89-.66l.67.11c-.32-.12-.54-.23-.17-.19l.19.05c-.49-.18-.17-.19-.41-.28l.19.05-.07-.1.27.08c-.5-.24-.51-.37-.24-.41l-.8-.18c.95-.01-.69-.48.42-.43l.19.05c-2.05-.75,1.53-.06-.41-.79.24.09.42.08.61.13-.2-.17-.29-.33-1.87-.7.04-.08.51.04,1.12.18-.69-.16-.96-.31-.98-.38l.26.09-.19-.25-1.31-.27c.4-.02,1.59.35,1.3.17l-1.08-.25c.25-.09,1.9.21,2.73.26.6-.47-2.01-1.74.02-1.83l.82.17c1.19.27-1.72-.56-.62-.32l-.53-.19c.22.03.45.05.71.14.06-.05-.13-.09-.48-.22l.75.11c.63-.09-.75-.62-.41-.79,1.57.07.32-.8-.41-1.3-1.67-.86,3.17-.26,1.25-1.18.17.02-.2-.1-.33-.13l.27-.37s.92-1.89-9.25-2.69l-.25-.07c-.68.08-.85.19.41.65-1.6-.35-.21.15-.73.08l-.13-.04c1.19.43-1.08.04-.02.44-.13-.04-.56-.14-.58-.18.18.14.5.36-.43.15.19.29-.32.51,1.13,1.01l-.25-.07c.98.32.12.14.61.36-.12-.02-.19-.04-.24-.04.96.32.09.31.49.48l-.61-.14.1.22.15-.04c1.68.42-1.09-.11-.03.28-.24.07,3.46,1.08,2.6,1.01.78.25-1.27-.36-.69-.12-.88-.2-.54-.17-1.25-.32.4.19-.94-.06-.37.19l-.69-.16c1.22.44-.97.06.21.44.53.28-2.06-.38-.76.09l-.94-.16c-.17.03,1.13.32.66.28-.58-.14-.49-.02-1.03-.19-.96-.05,1.22.65-.38.5,1.13.32.42.27,1.27.5-.5-.11-.13.2-1.18-.18-.09-.03-.07-.05.13,0l-.67-.17c-1.3-.18.65.39.42.47.23.02.18-.05.64.09l-.12.09-.56-.16-.37.09.71.14c-.38,0-1.59-.25-.61.08.55.17.97.14,1.17.29-.51,0-1.27,0-1.51.09.8.17.76.21.91.28l-.69-.16c.92.38-1.53-.3-.8.03l-.48-.13,1.43.38c1.33.46-1.44-.26.38.33-.1-.09,1.52.33,1.21.33l-.66-.17c.13.07.41.15.26.15-.35-.11-.96-.24-.86-.15l-.82-.24,1.19.4c-.73-.08.13.27-.82.08,0,0-.5.08.51.37-.63-.19-.9-.14-1.64-.35.71.22,1.27.5.48.38l-.08-.03c-.84.03.99.62-.01.59.8.18.34.18,1.37.39.96.44-2.16-.13.98.69.15.13-.77-.07-.94-.06l-.16-.06c.22.23.24.29.14.39.29.14,1.76.49,1.37.52-.57-.17-.48-.1-.49-.06-.09-.05-.3-.11-.7-.14.18.05.29.09.38.12-.05-.01-.08-.02-.14-.03.19.12.37.15.46.14.09.02.2.05.37.07-.77-.1,0,.22-1-.01.18.27,1.18.66,1.53.93-.52-.1-.97-.25-1.15-.35l.16.17c-.74-.18-.41-.17-.55-.25-.62-.07-.34.08-.04.23.78.22.46.13,1.81.51l.11.04h.03c.08.04.18.07.2.08.11.04.24.09.26.1.21.08.55.25.72.38-.1-.06-.07-.04-.02-.01.08.05.13.1.18.13h0s.16.15.16.16c.03.03-.07-.08-.08-.09.17.18.11.12.16.21h0s0-.02,0-.03h0s0,.22,0,.22h0s0,.05,0,.05c0,0,0,.02-.01.05h0c-.06.02.22-.13.31-.09.05,0,.08.03-.13-.05-.33-.15-.64-.41-.67-.83.02-.22.11-.46.34-.64.23-.19.55-.28.77-.35.23-.08.56-.05.73-.09.18-.04.36-.07.54-.09.17-.02.34-.03.51-.05.17,0,.24-.13.35-.18.21-.15.4-.29.58-.42.36-.27.68-.52.94-.75,0-.28-.06-.61-.2-.96-.07-.17-.16-.35-.26-.52-.05-.13-.33-.44-.65-.69-.31-.26-.67-.5-1.05-.69-.2-.1-.36-.18-.6-.27-.27-.09-.56-.17-.87-.23-.6-.12-1.24-.14-1.85-.09-.59.06-1.03.15-1.54.32-.48.16-.97.39-1.34.61-.27.15-.52.31-.76.48-.47.34-.88.77-1.03.91-.4.41-.61.71-.61.71-.23.3-.35.43-.51.66-.14.2-.29.46-.38.62-.2.35-.38.75-.49,1.1-.23.73-.34,1.43-.26,2.33.04.44.11.85.29,1.45.08.27.18.53.29.79.12.27.31.65.49.95.2.32.4.6.64.89.28.34.6.66.94.96.67.58,1.46,1.04,2.32,1.36.93.34,1.52.39,2.28.43.88.02,1.08-.09,1.47-.17.71-.19,1.49-.51,2.15-.94,1.37-.86,2.18-2.05,2.6-2.9"/>
  <path class="cls-1" d="M147.24,77.24l.33-.04c-.15,0-.28.02-.33.04"/>
  <path class="cls-1" d="M146.59,67.92s-.04,0-.07,0c.03,0,.05,0,.07,0"/>
  <path class="cls-1" d="M158.33,75.5h0s.05,0,.08.01h-.08Z"/>
  <path class="cls-1" d="M157.47,77.59c.39-.54,1.93-.71,1.29-1.27.12-.27-.24-.55-.43-.81-1.2-.09-.03-.34-1.04-.46l.68-.08c-.35-.04-.58-.09-.21-.15h.2c-.52-.06-.21-.16-.47-.19h.2s-.09-.09-.09-.09h.28c-.55-.11-.59-.24-.35-.37l-.82.04c.91-.29-.8-.31.28-.59h.2c-2.18-.2,1.46-.54-.62-.74.26.02.42-.04.62-.04-.24-.13-.37-.27-1.99-.18.02-.1.5-.11,1.12-.15-.71.04-1.01-.03-1.05-.11l.28.02-.25-.21-1.33.12c.38-.14,1.63-.12,1.3-.22l-1.11.06c.21-.17,1.88-.37,2.69-.57.43-.7-2.44-1.21-.54-1.96l.83-.09c1.21-.11-1.81-.03-.69-.14l-.56-.03c.22-.04.44-.1.72-.08.04-.07-.16-.06-.53-.07l.75-.13c.56-.31-.91-.41-.64-.71,1.51-.47.04-.96-.82-1.23-1.85-.31,2.9-1.4.77-1.69.17-.04-.22-.04-.36-.02l.12-.49s.05-.58-1.13-.79c-1.18-.22-3.57,0-8.48,1.41l-.26.02c-.61.31-.73.47.61.48-1.62.21-.14.21-.66.33h-.13c1.27.01-1.01.42.13.43-.13,0-.58.06-.61.03.22.08.59.18-.35.29.27.21-.13.59,1.4.59l-.26.02c1.03-.02.16.1.69.15-.12.02-.19.03-.24.04,1.02,0,.18.27.62.3l-.63.07.16.18.13-.08c1.73-.14-1.07.25.06.28-.21.15,3.62-.06,2.79.16.82,0-1.32.06-.69.1-.9.08-.57,0-1.29.09.44.06-.91.24-.29.3l-.7.06c1.3.04-.9.37.33.36.59.11-2.08.27-.69.33l-.95.14c-.15.08,1.17-.04.72.07-.6.04-.47.13-1.04.13-.92.24,1.36.25-.21.6,1.17-.03.49.13,1.36.11-.51.04-.07.24-1.18.19-.09,0-.08-.03.12-.04l-.69.03c-1.3.22.73.19.54.33.23-.05.16-.1.64-.1l-.09.13h-.58s-.33.21-.33.21l.72-.07c-.36.11-1.59.22-.56.25.57,0,.97-.14,1.2-.06-.48.15-1.22.37-1.42.53.81-.06.78-.02.95.01l-.71.05c.99.1-1.55.15-.76.26h-.49s1.48-.03,1.48-.03c1.41.06-1.46.16.46.21-.12-.06,1.55-.11,1.25-.02l-.68.02c.15.03.43.03.29.07-.37,0-.99.04-.87.1h-.85s1.26.05,1.26.05c-.73.13.2.23-.76.31,0,0-.46.22.59.21-.66,0-.9.11-1.67.11.74.02,1.35.14.57.23h-.09c-.8.25,1.12.32.15.56.82-.04.38.08,1.42.02,1.04.17-2.12.45,1.12.42.18.09-.76.14-.92.19l-.17-.02c.27.17.3.22.23.35.32.06,1.82.02,1.46.15-.6-.02-.49.02-.49.07-.09-.03-.31-.03-.71.04.18,0,.3.01.39.02-.05,0-.08,0-.15,0,.21.07.4.05.48.01.09,0,.21,0,.37-.02-.77.1.06.21-.97.25.24.22,1.31.35,1.71.53-.53.03-1,0-1.2-.05l.2.13c-.76.01-.44-.07-.59-.1-1.23.18,1.23.3.11.5l.6.03h-.1c.32,0,.75.04.85.07-.66.04-1.53.02-1.49.11-.64.08.32.2.68.29.11-.05.48-.04.71-.02.02.05-.64.08-.35.11h-.89c.84-.01.91.12,1.28.14-.66.03-.57-.07-1.07-.07.08.18.04.09.13.27.67.09.85-.02,1.63.02.18.08.8.17.26.27l.79-.03c.62.16.53.26-.28.38,3.23.62,5.44.71,6.84.62,1.4-.09,1.99-.35,1.99-.35,1.76-.52-.56-.8-1.18-1.4"/>
  <path class="cls-1" d="M194.02,73.53l.32-.09c-.15.02-.28.05-.32.09"/>
  <path class="cls-1" d="M191.22,62.72s-.04,0-.07.02c.03,0,.05,0,.07-.02"/>
  <path class="cls-1" d="M204.71,69.93h0s.05,0,.08,0h-.08Z"/>
  <path class="cls-1" d="M204.23,72.73c.31-.75,1.8-1.16,1.07-1.8.07-.37-.35-.69-.59-.99-1.21.05-.1-.44-1.12-.45l.65-.19c-.35,0-.59-.04-.24-.17l.2-.03c-.52,0-.24-.17-.51-.17l.2-.03-.11-.1.28-.03c-.57-.06-.64-.23-.42-.43l-.8.18c.83-.51-.86-.28.15-.79l.2-.04c-2.2.1,1.31-.9-.78-.83.26-.01.41-.12.6-.16-.27-.12-.43-.28-2.01.09,0-.13.47-.22,1.07-.38-.69.16-1,.12-1.07.04l.28-.02-.3-.22-1.29.37c.34-.23,1.58-.42,1.23-.49l-1.08.27c.16-.25,1.76-.78,2.51-1.18.24-.97-2.73-1.08-1.08-2.38l.79-.27c1.16-.37-1.79.31-.72-.04l-.56.07c.2-.09.41-.21.68-.25.02-.1-.17-.04-.54.01l.7-.31c.46-.5-1.02-.34-.85-.76,1.33-.89-.28-1.22-1.21-1.37-1.91.03,2.35-2.37.16-2.27.15-.08-.23,0-.36.06l-.07-.63s-.18-.74-1.41-.7c-1.24.01-3.47.9-7.73,3.76l-.25.09c-.48.51-.55.72.76.4-1.51.64-.07.28-.54.54l-.13.04c1.23-.3-.84.71.27.45-.12.04-.54.2-.58.17.23.04.63.06-.25.41.33.18.06.7,1.55.35l-.25.08c1-.25.19.08.72.01-.11.05-.17.07-.22.09.99-.23.26.27.7.21l-.59.21.22.17.1-.12c1.65-.54-.97.52.15.31-.16.22,3.53-.84,2.77-.41.8-.18-1.28.35-.64.26-.86.29-.56.13-1.23.38.45-.02-.82.47-.19.41l-.67.22c1.29-.22-.78.61.43.36.61,0-1.96.74-.59.52l-.89.35c-.12.12,1.14-.28.72-.06-.58.17-.42.25-.99.36-.84.46,1.4.02-.05.73,1.14-.27.51.06,1.37-.14-.49.15,0,.29-1.11.44-.09.01-.08-.01.11-.07l-.67.17c-1.22.5.77.07.61.27.21-.1.13-.15.61-.23l-.05.16-.57.12-.28.29.69-.21c-.33.2-1.51.54-.49.39.57-.09.92-.34,1.16-.29-.44.26-1.11.65-1.28.87.79-.21.77-.16.94-.15l-.68.18c1-.06-1.49.44-.69.43l-.48.1,1.45-.3c1.4-.17-1.4.43.5.16-.14-.04,1.51-.4,1.23-.23l-.67.14c.15.02.43-.03.3.03-.36.05-.97.21-.84.26l-.84.15,1.25-.15c-.69.27.24.23-.68.49,0,0-.41.33.63.15-.65.1-.86.27-1.62.4.74-.1,1.37-.06.61.18h-.09c-.74.42,1.17.21.26.64.8-.17.39.04,1.41-.2,1.07.05-2.01.84,1.19.32.19.08-.72.27-.88.36h-.17c.3.16.34.22.3.39.33.02,1.81-.23,1.48-.02-.6.06-.48.1-.47.15-.1-.02-.32.01-.7.15.18-.02.3-.03.39-.03-.05,0-.08.01-.15.03.22.05.4,0,.48-.05.09-.01.2-.04.37-.08-.75.22.09.25-.92.43.28.22,1.36.24,1.79.41-.52.1-.99.12-1.2.09l.21.13c-.75.11-.45-.02-.6-.05-1.19.37,1.27.2.18.58l.6-.04-.1.03c.32-.04.75-.06.86-.04-.65.12-1.51.21-1.46.31-.62.17.35.2.72.26.1-.08.47-.1.7-.11.03.05-.62.17-.34.17l-.89.12c.83-.13.92.03,1.28,0-.65.11-.58-.01-1.07.04.11.21.05.1.16.31.68.03.84-.12,1.62-.16.19.08.82.12.3.3l.78-.13c.64.13.56.27-.23.49,3.29.41,5.5.33,6.89.07,1.38-.25,1.93-.66,1.93-.66,1.68-.87-.66-.98-1.38-1.69"/>
  <path class="cls-1" d="M50.82,155.03l-.18.29c.11-.11.18-.22.18-.29"/>
  <path class="cls-1" d="M73.01,163.13s.02-.04.03-.07c-.02.02-.03.05-.03.07"/>
  <path class="cls-1" d="M47,166.3h0s-.05.03-.08.04l.08-.04Z"/>
  <path class="cls-1" d="M42.41,160.99c.91,1.62.25,3.12,2.14,3.95.63.7,1.63,1.01,2.44,1.36,1.01-.74.95.62,1.9.04l-.21.68c.32-.2.6-.31.55.09l-.11.16c.47-.32.55.08.78-.08l-.11.17.3.07-.18.22c.63-.25,1.02-.1,1.24.3l.36-.74c.28,1.2,1.3-.22,1.46,1.07l-.09.18c1.69-1.61.72,1.95,2.37.39-.2.2-.11.41-.19.59.48-.06.95-.02,1.51-1.53.27.13.05.56-.13,1.16.24-.67.58-.86.82-.83l-.19.22h.7s.31-1.32.31-1.32c.2.47-.44,1.57-.02,1.38l.34-1.06c.37.35.14,2.03.37,2.96,1.82,1.03,4.41-1.27,5.7.97l-.08.83c-.2,1.2.81-1.68.66-.56l.3-.51c.02.22.09.48-.06.73.17.08.21-.11.41-.45l.06.78c.62.7,1.48-.63,2.17-.22.66,1.67,2.55.52,3.6-.17,1.59-1.61,2.4,3.4,4.01,1.54.02.18.18-.19.2-.33l1.16.36s1.39.34,2.47-.61c1.05-.96,2.01-3.24.56-8.63l.08-.25c-.59-.76-1.02-.97-1.71.27.18-1.63-.55-.26-.62-.81l.04-.13c-.61,1.18-.71-1.17-1.29-.11.04-.13.11-.57.21-.58-.33.16-.78.46-.66-.48-.74.14-1.64-.43-2.3,1.01l.07-.26c-.4.98-.35.1-.7.58,0-.12,0-.19,0-.24-.42.96-.82.04-1.1.44l.08-.63-.56.07.18.16c-.32,1.71-.25-1.14-.8-.08-.33-.27-1.29,3.46-1.54,2.56-.31.77.36-1.28,0-.71.13-.9.21-.54.26-1.27-.33.38-.28-.98-.7-.43l.1-.7c-.63,1.2-.62-1.05-1.11.12-.53.5.08-2.11-.6-.83v-.97c-.15-.19-.34,1.12-.47.63.13-.59-.17-.52.06-1.06-.26-1.01-1.2,1.13-1.46-.56-.38,1.11-.53.37-.82,1.2.1-.5-.58-.21,0-1.22.05-.08.09-.05.05.14l.2-.67c-.03-1.35-.75.56-1.04.28.04.25.18.22-.02.66l-.28-.17.21-.55-.36-.44-.12.71c-.12-.42.13-1.63-.38-.7-.27.52-.06,1-.35,1.15-.17-.55-.37-1.39-.65-1.71-.21.79-.3.73-.44.86l.2-.68c-.67.82.34-1.51-.25-.9l.19-.46-.57,1.37c-.79,1.21.31-1.44-.69.23.18-.06-.45,1.49-.54,1.14l.28-.63c-.15.1-.28.36-.3.2.19-.32.37-.92.19-.86l.39-.76-.71,1.07c.06-.76-.61-.04-.34-.96,0,0-.24-.62-.76.31.35-.56.21-.89.58-1.57-.4.63-.99,1.05-.78.26l.06-.07c-.1-.95-1.29.62-1.25-.48-.36.73-.37.23-.81,1.18-.97.67.3-2.28-1.51.42-.29.03.16-.79.14-.99l.14-.12c-.49,0-.61-.04-.83-.27-.3.18-1.18,1.41-1.21.94.42-.44.26-.41.17-.48.11-.04.25-.2.38-.61-.12.14-.21.21-.29.27.03-.04.05-.07.08-.12-.27.07-.35.23-.33.35-.06.07-.12.17-.2.32.31-.73-.46-.27.15-1.1-.54-.13-1.52.46-2.13.44.31-.43.7-.71.93-.78l-.35-.06c.51-.57.42-.21.59-.26.57-1.16-1.39.41-.92-.72l-.48.36.05-.09c-.22.23-.6.46-.72.48.43-.51,1.09-1.07.92-1.18.35-.55-.55-.11-.96-.04,0,.16-.31.38-.52.49-.09-.07.37-.55.1-.43l.67-.59c-.61.58-.87.38-1.18.58.47-.46.55-.23.95-.54-.33-.26-.18-.12-.49-.4-.67.23-.64.55-1.33.94-.26-.06-.9.13-.62-.39l-.6.52c-.75,0-.82-.3-.3-.96-1.79.19-3.23.33-4.37.62-1.13.28-1.92.71-2.49,1.13-1.1.9-1.15,2.04-1.15,2.04-.29,1.28.27,1.85,1.05,2.24.82.36,1.85.57,2.78,1.14"/>
  <path class="cls-1" d="M101.29,163.76l.42.35c0-.15-.1-.29-.42-.35"/>
  <path class="cls-1" d="M206.91,162.36s.05-.06.07-.1c-.06.05-.07.08-.07.1"/>
  <path class="cls-1" d="M117.02,176.01s-.02,0-.02,0c-.04.03-.08.04-.12.07l.14-.07Z"/>
  <path class="cls-1" d="M95.76,173.79c5.56.57,6.94,2.21,12.76,1.95,2.76.33,5.74.21,8.48.26,1.39-1.09,3.58.31,5.21-.56l.53.73c.56-.29,1.2-.47,1.7-.05l-.05.19c.84-.44,1.71-.05,2.12-.27l-.05.2h.97s-.19.27-.19.27c1.43-.41,2.87-.31,4.11.05l-.03-.83c2.61,1.17,3.76-.44,6.1.87l-.05.2c3.27-1.89,4.77,1.9,8.14.09-.42.23.14.43.09.63,1.5-.13,3.09-.14,3.22-1.75,1.07.1.84.57.94,1.2.04-.71.99-.95,1.84-.94l-.4.25,2.42-.1-.4-1.36c1.25.46.24,1.65,1.48,1.4l.04-1.11c1.75.3,2.72,2.01,4.42,2.9,3.6.35,7.38-.21,11.05-.69,1.84-.24,3.66-.5,5.44-.55,1.79-.08,3.54-.04,5.27.33l.37.81c.25,1.22,1.7-1.98,2.06-.89l.73-.64c.24.19.73.37.37.69.73-.03.73-.23,1.21-.66l.87.67c1.47.13,2.78-.32,4.08-.75,1.31-.43,2.61-.95,4.13-1.1,3.92.97,10.43-2.19,13.94-4.16,1.19-.89,2.54-1.39,4-1.71,1.46-.34,2.99-.61,4.56-.84,1.58-.21,3.12-.61,4.57-1.14.72-.27,1.42-.59,2.07-.98.63-.43,1.22-.93,1.73-1.51.25.06.49-.52.42-.64l2.38-1.23,2.3-1.38s.34-.22.91-.59c.56-.37,1.35-.88,2.16-1.59,1.65-1.37,3.62-3.14,4.72-4.94,1.14-1.75,1.55-3.29.36-4.07-.59-.39-1.58-.6-3.04-.6-.73,0-1.57.06-2.53.17-.94.13-2.06.25-3.32.39l-.07-.28c-1.23.51-2.17.98-2.89,1.59-.76.55-1.3,1.26-1.7,2.3-1.12-1.24-1.85,1.04-2.68.85l-.02-.14c-.77,1.85-3.31.68-4.14,2.35,0-.14-.18-.55.12-.73-.9.65-2.11,1.63-2.59.81-.57.33-1.2.67-1.87.99-.68.29-1.38.59-2.03.92-1.31.65-2.45,1.42-3.02,2.38l.02-.29c-.58,1.28-1.15.55-2.02,1.4-.1-.1-.19-.13-.19-.19-.69,1.35-2.94,1.08-3.66,1.73l-.23-.59-2.02.73.8-.09c.18,1.77-1.84-.62-3.07.8-1.45.11-2.12,4.23-3.84,3.66-.57.93.38-1.42-.58-.6-.21-.88.39-.65-.02-1.31-.98.62-1.89-.58-3.07.26l-.17-.69c-1.5,1.53-3.33-.45-4.28.94-1.68.83-1.43-1.94-3.09-.35l-.81-.87c-.79-.07-.44,1.23-1.35.86,0-.6-1.13-.36-.68-.98-2.02-.8-3.88,1.67-6.56.19-.51,1.19-1.84.55-2.23,1.45-.09-.5-2.63.02-1.19-1.14.12-.1.35-.09.34.11l.15-.7c-1.5-1.24-2.66.77-4.13.59.44.23,1.01.16.63.64l-1.37-.08.28-.59c-.68-.11-1.35-.21-2.02-.34l.28.73c-1-.39-1.32-1.62-2.46-.61-.52.56.93.99-.13,1.2-1.32-.5-3.3-1.31-5-1.6.13.82-.33.77-.81.92l-.02-.71c-1.86.91-.59-1.57-2.43-.89l.18-.48-.55,1.45c-1.71,1.3-.79-1.51-2.72.29.72-.08.24,1.57-.62,1.22l.27-.67c-.5.12-.68.39-1,.22.32-.35.22-.98-.51-.91l.54-.82-1.45,1.15c-1-.8-2.73,0-3.09-1,0,0-2.22-.66-2.83.35.51-.61-.72-.97-.3-1.7-.65.69-2.43,1.15-3.06.3l.14-.08c-2.5-1.03-4.5.7-6.73-.49.03.83-1.15.27-.95,1.34-2.49.81-4.19-2.54-5.36.61-1.11.07-1.23-.88-1.78-1.1l.28-.15c-2.08.07-2.68.05-4.21-.16-.79.25-1.04,1.73-2.38,1.25.49-.56-.07-.49-.59-.54.34-.06.46-.27-.18-.73-.11.18-.27.28-.41.36,0-.05-.03-.09,0-.15-.88.14-.74.33-.35.45-.03.09,0,.21.1.38-.82-.85-2.48-.16-2.51-1.19-2.61.05-4.53.94-6.7,1.21-.21-.54.33-.98.97-1.15l-1.54.1c.06-.76.91-.38,1.39-.5-1.75-1.33-3.83.97-5.91-.25l-.47.58-.12-.1c0,.32-.51.73-.83.82-.27-.68.09-1.53-.97-1.53-.82-.69-2.41.22-3.52.56.59.13.39.49.13.72-.53,0-.82-.66-1.24-.39l-.03-.9c.19.85-1.41.87-1.61,1.23-.29-.67.83-.55.98-1.05-2.14.03-1.07,0-3.21.08-1.15.67.2.85-.35,1.63-1,.17-1.97.79-3.12.26l.37.79c-1.87.64-2.97.59-4.26-.18-6.84,3.52-7.28,5.84-6.21,7.15,1.07,1.34,3.71,1.79,3.71,1.79,5.26,1.53,7.87-.83,14.24-1.3"/>
  <path class="cls-1" d="M37.34,249.1v.34c.02-.15.03-.28,0-.34"/>
  <path class="cls-1" d="M50.47,253.67s.03-.03.05-.06c-.02.02-.04.04-.05.06"/>
  <path class="cls-1" d="M36.88,260.36h0s-.02.05-.03.08l.03-.08Z"/>
  <path class="cls-1" d="M34.98,259.06c.49.49.33,2.04,1,1.52.23.18.59-.1.89-.23.4-1.14.34.07.73-.87l-.11.67c.14-.32.25-.53.21-.16l-.05.19c.21-.48.21-.16.32-.4l-.05.19.11-.06-.09.27c.27-.5.42-.49.47-.21l.21-.79c0,.96.58-.65.51.46l-.06.19c.94-1.99.02,1.56.94-.31-.12.23-.12.41-.18.6.21-.18.4-.25.92-1.78.1.06-.08.51-.27,1.1.23-.67.41-.92.51-.93l-.13.25.31-.14.4-1.28c0,.41-.51,1.55-.28,1.29l.37-1.04c.11.27-.37,1.88-.49,2.71.46.68,2.28-1.63,2.12.43l-.31.77c-.49,1.11.9-1.57.46-.53l.3-.47c-.07.21-.13.44-.27.67.04.07.13-.11.33-.42l-.25.72c0,.65.84-.58.98-.17-.37,1.54.84.56,1.59.04,1.4-1.31-.49,3.2,1.02,1.69-.07.16.17-.15.24-.27l.34.41s.44.43,1.41-.3c.94-.75,2.57-2.54,4.41-7.38l.16-.21c.06-.74-.07-.99-.99,0,.84-1.4-.16-.3.05-.79l.08-.11c-.85.95.16-1.13-.61-.28.07-.11.31-.49.37-.49-.24.1-.61.3-.13-.52-.45.03-.69-.63-1.64.58l.14-.22c-.62.83-.23.05-.61.43.05-.11.08-.17.1-.22-.61.82-.45-.06-.75.26l.29-.56h-.32s.03.16.03.16c-.84,1.52.32-1.07-.39-.16-.08-.29-1.99,3.04-1.77,2.2-.44.69.66-1.15.26-.65.4-.81.31-.48.6-1.14-.31.32.21-.93-.22-.46l.3-.64c-.76,1.06.01-1.02-.66.02-.46.43.74-1.97-.07-.82l.31-.91c-.03-.19-.55,1.03-.47.56.25-.55.06-.5.36-.99.12-.97-1.04,1-.74-.6-.53,1.05-.42.33-.81,1.12.19-.48-.3-.22.31-1.16.05-.08.07-.05,0,.13l.29-.63c.31-1.3-.63.53-.73.26-.03.24.07.21-.16.63l-.14-.16.25-.53-.14-.42-.23.69c0-.4.4-1.56-.11-.66-.27.51-.23.96-.44,1.12.01-.53.01-1.32-.14-1.6-.26.77-.31.72-.42.86l.23-.67c-.57.84.44-1.49-.06-.84l.18-.46-.55,1.37c-.67,1.25.37-1.43-.49.3.13-.08-.47,1.49-.47,1.16l.25-.64c-.11.11-.22.38-.22.23.15-.34.34-.93.21-.85l.34-.79-.58,1.13c.09-.74-.41.06-.16-.87,0,0-.15-.54-.54.44.26-.6.17-.9.44-1.61-.3.68-.7,1.19-.56.41l.04-.08c-.11-.87-.89.89-.92-.14-.21.79-.25.32-.49,1.34-.57.91-.02-2.21-.95.89-.18.13.03-.78,0-.96l.08-.16c-.33.19-.41.2-.59.08-.17.28-.54,1.74-.62,1.35.19-.57.1-.48.03-.49.06-.08.13-.29.13-.7-.05.18-.1.28-.14.37,0-.05.02-.08.03-.14-.16.18-.18.37-.15.46-.02.09-.05.2-.07.37.06-.78-.32-.02-.11-1.02-.38.16-.83,1.14-1.17,1.48.08-.52.23-.97.35-1.16l-.23.15c.15-.75.2-.41.29-.55,0-1.25-.71,1.11-.76-.05l-.17.58v-.1c-.05.31-.19.73-.25.82.08-.66.28-1.5.14-1.49,0-.65-.36.26-.55.59.06.12-.03.48-.1.7-.07.01,0-.65-.09-.37l.14-.88c-.11.83-.32.87-.4,1.23.07-.66.19-.55.29-1.04-.28.04-.14.02-.42.06-.24.64-.1.84-.29,1.6-.15.15-.35.75-.42.2l-.07.79c-.31.58-.42.47-.47-.34-1.24,3.1-1.5,5.29-1.56,6.7-.05,1.4.13,2.02.13,2.02.28,1.8.83-.45,1.58-.96"/>
  <path class="cls-1" d="M75.38,262.59l.33.47c.04-.15-.02-.31-.33-.47"/>
  <path class="cls-1" d="M190.01,261.13s.07-.06.09-.1c-.07.04-.09.07-.09.1"/>
  <path class="cls-1" d="M89.68,278.73h-.03s-.1.02-.14.04l.17-.04Z"/>
  <path class="cls-1" d="M66.48,270.24c5.87,2.6,6.99,4.64,13.61,6.12,3.03,1.1,6.45,1.74,9.56,2.36,1.74-.76,4.04,1.03,6.01.44l.52.82c.67-.19,1.42-.26,1.96.21l-.08.18c1.01-.32,1.96.19,2.46.02l-.08.19,1.11.14-.24.24c1.68-.23,3.32-.02,4.72.47v-.83c1.47.72,2.57.62,3.61.59,1.04-.05,2.03-.05,3.38.6l-.06.19c1.89-.94,3.23-.39,4.65.04,1.4.44,2.85.95,4.72-.06-.46.25.19.43.15.62,1.71-.2,3.53-.34,3.52-1.97,1.22,0,1,.49,1.18,1.11-.02-.71,1.03-1.01,1.98-1.11l-.43.29,2.71-.37-.61-1.31c1.45.31.46,1.61,1.82,1.2l-.09-1.1c1.98.09,3.28,1.65,5.3,2.28,8.16-.36,16.03-4.7,23.56-4.3l.49.75c.39,1.16,1.6-2.18,2.11-1.14l.71-.72c.28.16.82.28.47.64.78-.12.75-.32,1.23-.8l.99.56c3.15-.1,5.38-2.1,8.6-2.53,4.13.65,10.94-2.36,14.86-4.09,5.37-3.08,13.16.11,18.61-3.26.23.12.64-.37.61-.5l5.45-1.06s26.33-5.5,4.17-10.81l.07-.29c-3.1.04-5,.33-6.74,2.1-.68-1.52-2.47.39-3.28.03l.04-.15c-1.53,1.64-3.95-.18-5.44,1.32.04-.14-.02-.59.37-.71-1.22.49-2.88,1.24-3.18.33-2.97.93-7.3,1.46-8.9,3.38l.07-.29c-.88,1.25-1.4.47-2.52,1.26-.09-.11-.2-.15-.19-.2-.98,1.26-3.48.95-4.36,1.6l-.2-.6-2.37.69.93-.07c.07,1.76-2.06-.65-3.55.84-1.68.16-2.5,4.27-4.38,3.83-.63.98.42-1.45-.65-.57-.24-.87.44-.68-.03-1.32-1.09.69-2.15-.46-3.47.47l-.22-.68c-1.62,1.69-3.79-.09-4.79,1.39-1.83,1.01-1.77-1.75-3.5.05l-.99-.76c-.9.04-.37,1.28-1.43,1.03-.07-.6-1.32-.21-.87-.89-2.36-.45-4.15,2.23-7.31,1.23-.4,1.27-1.97.84-2.27,1.8-.17-.48-2.9.42-1.48-.94.12-.11.37-.14.39.06l.07-.72c-1.84-1.02-2.82,1.23-4.46,1.27.51.15,1.14,0,.79.53l-1.51.14.22-.63h-2.26s.41.66.41.66c-1.14-.22-1.68-1.38-2.77-.21-.48.64,1.15.84.03,1.21-1.52-.31-3.77-.81-5.62-.86.24.79-.26.82-.76,1.02l-.11-.7c-1.88,1.12-.83-1.5-2.7-.58l.14-.5-.42,1.5c-1.69,1.48-1-1.42-2.87.57.76-.14.42,1.55-.55,1.26l.22-.69c-.52.15-.69.44-1.05.31.31-.37.15-.99-.62-.86l.5-.86-1.44,1.28c-1.12-.75-2.91.17-3.34-.83,0,0-2.37-.59-2.98.44.52-.63-.78-.94-.36-1.69-.66.73-2.55,1.13-3.21.29l.15-.08c-1.31-.51-2.48-.36-3.64-.27-1.15.09-2.28.22-3.42-.47-.02.83-1.23.17-1.08,1.26-2.74.62-4.2-2.92-5.75.06-1.2-.07-1.21-1.01-1.77-1.31l.31-.1c-2.2-.25-2.84-.36-4.42-.81-.87.1-1.37,1.52-2.71.79.62-.46,0-.5-.53-.64.37,0,.53-.19-.07-.76-.15.15-.33.22-.5.28,0-.05-.01-.09.02-.15-.95-.03-.84.19-.45.38-.05.08-.04.2.04.4-.72-.98-2.59-.69-2.42-1.71-2.73-.52-4.95-.15-7.3-.47-.08-.58.58-.86,1.29-.85l-1.63-.33c.25-.72,1.04-.11,1.57-.11-1.47-1.77-4.23-.11-6.05-1.94l-.65.41-.1-.14c-.1.3-.73.54-1.09.52-.09-.73.53-1.43-.56-1.78-.64-.9-2.52-.58-3.76-.66.56.33.24.6-.1.72-.55-.18-.62-.92-1.14-.8l.26-.86c-.09.87-1.73.32-2.05.58-.07-.74,1.04-.21,1.35-.63-2.18-.75-1.09-.38-3.27-1.12-1.39.19-.1.87-.93,1.39-1.08-.22-2.3-.04-3.27-1l.08.88c-2.14-.18-3.25-.72-4.23-1.98-16.63.26-6.3,6.99-6.3,6.99,4.98,3.89,8.76,2.93,15.79,4.92"/>
  <path class="cls-1" d="M240.3,245.44l-.3-.15c.12.09.23.16.3.15"/>
  <path class="cls-1" d="M228.84,259.22s.02.04.04.07c0-.03-.02-.05-.04-.07"/>
  <path class="cls-1" d="M229.91,240.67h0s-.03-.04-.05-.07l.05.07Z"/>
  <path class="cls-1" d="M232.85,238.39c-.9.5-2.29-.25-2.4.91-.38.29-.41.9-.54,1.37.82.9-.34.47.3,1.29l-.6-.34c.22.28.34.5,0,.34l-.15-.12c.33.42,0,.34.16.55l-.15-.13-.03.18-.21-.2c.3.51.18.71-.14.72l.66.49c-.99-.23.26.95-.84.58l-.15-.13c1.41,1.72-1.63-.32-.32,1.35-.16-.21-.35-.24-.5-.37.04.32-.01.59,1.25,1.6-.12.12-.48-.21-.98-.58.55.44.69.74.65.87l-.18-.22-.04.44,1.09.78c-.42-.09-1.3-.98-1.17-.63l.87.7c-.34.08-1.75-.86-2.55-1.17-1.03.51.37,3.24-1.75,2.69l-.65-.52c-.92-.79,1.17,1.4.31.68l.34.45c-.18-.12-.4-.23-.57-.45-.1.04.04.18.27.48l-.64-.43c-.7-.1.14,1.14-.37,1.25-1.47-.73-1.07.94-.91,1.89.35.91-.48.67-1.24.37-.77-.3-1.47-.61-1.09.43-.12-.12.07.22.16.33l-.6.22s-.16.08-.29.32c-.13.21-.22.57-.11,1.18.11.61.39,1.48,1.1,2.65.73,1.16,1.85,2.66,4.01,4.28l.12.23c.84.25,1.2.13.71-1.16,1.01,1.28.45-.12.87.23l.07.11c-.51-1.18,1.19.41.71-.67.07.11.35.46.31.53.04-.31.04-.78.67-.06.26-.54,1.12-.71.32-2.05l.16.21c-.56-.88.07-.28-.13-.8.09.08.15.12.18.16-.55-.87.32-.51.13-.93l.45.44.17-.38h-.2c-1.19-1.26.97.57.38-.43.35-.04-2.21-2.9-1.43-2.49-.5-.65.88.99.56.43.66.62.35.46.91.92-.18-.43.89.41.6-.18l.52.47c-.74-1.1,1.07.21.3-.77-.22-.62,1.7,1.25.89.08l.8.54c.21,0-.81-.85-.36-.66.44.41.49.17.86.62.94.35-.54-1.42.97-.73-.82-.84-.14-.56-.76-1.19.4.32.36-.3,1.04.62.05.07.02.09-.13-.04l.51.47c1.17.64-.24-.83.07-.9-.22-.09-.24.03-.56-.33l.22-.12.42.41.49-.06-.59-.42c.4.1,1.39.84.72.03-.38-.43-.86-.49-.91-.78.53.14,1.32.34,1.67.24-.65-.49-.58-.53-.65-.7l.55.44c-.57-.86,1.28.89.87.16l.37.33-1.1-.99c-.92-1.09,1.24.8-.06-.64.02.17-1.25-.93-.92-.85l.51.45c-.06-.16-.27-.35-.12-.31.26.27.76.64.74.47l.62.6-.84-.96c.68.32.14-.47.93.07,0,0,.61,0-.17-.73.47.46.79.45,1.36.97-.52-.53-.82-1.14-.12-.74l.06.07c.9.16-.42-1.25.58-.95-.66-.49-.18-.37-1.04-.98-.58-.95,2.12.74-.35-1.35-.03-.25.73.3.92.33l.11.14c0-.42.03-.52.24-.67-.18-.29-1.35-1.23-.93-1.18.43.42.4.28.45.22.04.1.21.25.59.41-.14-.13-.21-.21-.27-.29.04.03.07.05.12.09-.08-.24-.24-.33-.35-.33-.07-.06-.17-.13-.31-.21.7.36.2-.34,1.02.28.06-.47-.59-1.35-.7-1.86.44.3.76.65.86.85v-.31c.59.47.26.38.33.53,1.14.54-.6-1.22.49-.78l-.43-.43.09.05c-.25-.2-.54-.53-.59-.63.55.38,1.19.95,1.26.8.58.3-.02-.49-.19-.84-.14,0-.41-.25-.57-.43.03-.08.58.3.4.08l.7.56c-.67-.51-.57-.73-.84-.99.54.38.36.46.74.79.14-.3.07-.15.21-.45-.41-.56-.67-.51-1.23-1.08-.04-.23-.42-.75.11-.54l-.64-.46c-.29-.62-.1-.7.64-.33-1.74-2.93-3.27-4.53-4.44-5.32-1.16-.8-1.93-.81-1.93-.81-2-.38-.54,1.51-.77,2.75"/>
  <path class="cls-1" d="M128.78,212.81l.25-.26c-.14.06-.25.14-.25.26"/>
  <path class="cls-1" d="M143.47,210.11s.04.03.07.04c-.02-.03-.05-.04-.07-.04"/>
  <path class="cls-1" d="M138.26,205.78h0s.05,0,.09,0h-.09Z"/>
  <path class="cls-1" d="M138.71,210c-.2-1.39,1.14-2.19.24-2.99-.02-.52-.46-.87-.69-1.23-1.22-.07-.06-.52-1.08-.72l.68-.1c-.34-.07-.58-.19-.21-.25h.2c-.51-.12-.19-.24-.45-.32l.2.02-.07-.14.28.05c-.53-.25-.52-.48-.25-.59l-.81-.15c.5-.1.32-.26.2-.42-.14-.17-.24-.35.33-.3l.18.07c-.94-.57-.52-.62-.12-.54.41.04.77.22.02-.5.19.18.35.23.51.35-.13-.24-.12-.41-1.32-1.51.12-.11.43.28.89.7-.51-.49-.66-.75-.65-.82l.16.22c-.03-.1-.03-.14-.11-.26-.2-.31-.49-.72-.75-1.07.16.12.37.47.54.74.04.06.07.11.1.16-.01-.02-.02-.04-.03-.05-.05-.09-.06-.11-.14-.24,0,0,.01.02,0-.02l-.26-.49c.22.36-.06-.18-.09-.35-.06-.21-.08-.39-.08-.49v-.05s0,0,0,0h0c.02-.11-.02.14-.02.11h0s0-.01,0-.01c0-.04.03-.1.01-.06,0,0-.07.16-.27.39-.18.2-.51.5-.93.78-.21.14-.45.28-.72.43l-.34.18.08-.03c.21-.02.44.16.48.43.04.28-.07.83-.48,1.25l-.82.19c-1.2.19,1.84.17.73.38l.57.11c-.21.08-.43.21-.71.15-.03.17.17.15.55.23l-.74.25c-.52.68.96,1.14.69,1.86-1.51.84-.17,2.34.53,3.41.83.77-.03,1.42-.88,1.95-.84.56-1.67,1.01-.84,1.9-.18,0,.17.21.3.24-.16.37-.35.73-.52,1.09,0,0-.58,1.29.07,2.6.33.66.98,1.36,2.24,1.89,1.26.51,3.19.9,6.1.45l.23.14c.95-.6,1.28-1.15.23-2.17,1.58.43.39-.66.96-.7l.12.06c-1.04-.89,1.33-.83.39-1.66.12.05.55.18.54.3-.1-.44-.33-1.05.6-.86-.01-.98.65-2.26-.76-3.08l.25.08c-.97-.48-.08-.46-.55-.9.13,0,.19-.02.24-.01-.97-.48-.03-1.08-.44-1.42l.63.03-.09-.74-.16.26c-1.73-.2,1.14-.48.02-1.08.24-.51-3.57-1.05-2.73-1.5-.82-.22,1.32.19.7-.15.91-.02.57.16,1.29.06-.43-.34.93-.6.29-1.02l.71-.05c-1.31-.51.88-1.16-.39-1.46-.63-.53,2.05-.6.61-1.1l.92-.36c.12-.3-1.19-.05-.77-.41.6-.06.42-.45,1.01-.35.42-.42.02-.73-.29-1.07-.32-.33-.53-.66.08-1.52-1.19.02-.71-.79-1.62-.73.5-.17-.44-1.35.9-.99.11.04.14.16-.05.22l.68-.15c.46-.64.11-1.02-.38-1.29-.5-.28-1.12-.46-1.36-.99,0,.41.27.73-.28.74-.15-.29-.3-.58-.51-.89l.61-.17c-.25-.52-.57-1.07-1.04-1.63-.08.25-.18.49-.27.73-.41-.87-.18-2.25-1.88-1.96-.73.28.48,1.32-.61,1.04-.54-.5-1.29-1.07-2.3-1.42-.99-.36-2.13-.46-3.01-.31.37.74-.07.83-.41,1.13l-.3-.64c-.59.76-.81.48-1.15.17-.3-.3-.7-.61-1.12.12l-.15-.49c.14.49.32.97.5,1.44-.07.9-.36.68-.69.55-.3-.14-.64-.18-.39.89.23-.38,1.18,1.02.66,1.1l-.4-.57c-.09.29.05.56-.15.57-.18-.35-.68-.73-.83-.38l-.47-.76c.15.46.31.91.49,1.35-.91-.06-.64,1.15-1.55.79,0,0-.25.17-.41.45-.16.28-.19.66.22,1.01-.47-.51-.98-.08-1.58-.58.49.63.73,1.6-.13,1.62l-.06-.09c-.6.44-.54,1.07-.42,1.62.09.56.23,1.05-.37,1.48.81.12.28.56,1.33.62.42.58-.16.93-.45,1.29-.3.35-.29.67,1.32.92.15.42-.77.47-.95.7l-.17-.11c.25.83.31,1.05.27,1.65.34.28,1.84.18,1.53.7-.62-.09-.48.1-.45.29-.11-.11-.33-.12-.7.19.19.01.31.05.41.09-.05,0-.08.02-.14.03.25.29.43.2.49.04.09,0,.21-.04.36-.11-.72.45.21.87-.79,1.12.44.89,1.63,1.23,2.22,1.78-.48.24-.98.22-1.24.07l.34.44c-.73.24-.51-.16-.7-.27-.98,1.02,1.57.84.77,1.89l.61-.09-.08.08c.29-.12.75-.14.89-.09-.57.34-1.42.58-1.24.89-.47.51.61.6,1.08.76.02-.22.38-.32.63-.34.09.14-.47.51-.15.51l-.8.4c.73-.43,1.01,0,1.36-.11-.55.38-.62.02-1.09.2.38.56.19.28.56.84.76,0,.72-.45,1.49-.66.3.19.98.15.67.7l.64-.47c.8.19.88.51.36,1.23,3.81.15,5.82-.8,6.88-1.75,1.06-.96,1.2-1.91,1.2-1.91.79-2.16-1.56-1.61-2.81-2.76"/>
  <path class="cls-1" d="M127.09,218.06l.08-.33c-.07.14-.11.26-.08.33"/>
  <path class="cls-1" d="M127.32,216.25s0-.04.01-.08c-.01.03-.02.05-.01.08"/>
  <path class="cls-1" d="M126.31,206.08h0s.04-.04.06-.07l-.07.07Z"/>
  <path class="cls-1" d="M133.37,209.88c-1.38-1.27-1.19-2.96-3.58-3.25-1.03-.53-2.33-.53-3.47-.55-.72,1.08-1.49-.22-2.22.74l-.21-.69c-.24.33-.5.55-.73.19l.02-.2c-.34.51-.73.21-.89.48v-.2s-.41.11-.41.11l.05-.29c-.58.59-1.16.7-1.77.56l.2.8c-.66-.34-1.03-.05-1.35.23-.33.27-.61.54-1.33.23l-.06-.19c-.22,1.26-.85,1.16-1.6,1.16-.71-.02-1.57.09-1.52,1.43-.02-.33-.35-.26-.47-.41-.45.71-.94,1.53.34,2.52-.34.4-.67.07-1.23-.23.58.4.55.97.38,1.39l-.14-.32c-.15.43-.26.88-.34,1.35.45.06.9.14,1.34.23-.57.45-1.61-.38-1.49.39l1.08.26c-.4.76-2.15,1.26-2.8,2.68.07,1.34.67,2.54,1.41,3.41.75.88,1.64,1.46,2.5,1.9.86.44,1.69.75,2.5,1.12.83.36,1.44.72,2.09,1.34l-.02.84c-.1,1.22,1.07-1.66,1.01-.54l.36-.52c.07.22.23.47.06.73.29.07.31-.13.52-.49l.27.77c1.12.6,1.86-.92,2.72-.7,1.16,1.44,2.79-.18,3.69-1.15,1.14-1.99,3.59,2.52,4.72.2.08.16.13-.24.11-.38l1.37-.09s1.66-.21,2.4-1.56c.77-1.35.48-3.74-2.85-8.17l-.02-.26c-.8-.49-1.23-.55-1.43.85-.39-1.59-.58-.06-.84-.55v-.13c-.19,1.31-1.03-.87-1.22.3,0-.13-.08-.57,0-.62-.25.25-.58.68-.76-.26-.64.36-1.64.07-1.86,1.64v-.27c-.11,1.05-.31.2-.52.76-.03-.12-.06-.18-.07-.23-.14,1.04-.78.27-.95.72l-.1-.62-.53.21.22.11c.14,1.73-.55-1.03-.81.14-.39-.17-.36,3.68-.85,2.87-.1.83.03-1.33-.19-.68-.1-.9.07-.58-.08-1.29-.23.46-.52-.88-.76-.24l-.07-.7c-.3,1.32-.71-.89-.87.34-.34.58-.17-2.09-.47-.73l-.02-.96c-.05-.16-.18,1.16-.22.69.08-.6-.03-.49.1-1.05.02-.47-.05-.15-.14.09-.05.12-.09.21-.09.19h0c.32-.89-.44,1.19-.36.98h0s0,0,0,0h0s.01-.03.01-.03c0-.02.01-.04.02-.06.01-.02.03-.05.04-.1.02-.04.08-.13.02-.05.06-.09-.08.1,0,0,0,0,0,0,.01-.02h0c-.04.05-.15.19-.35.37.06-.06.13-.12.08-.08-.06.06-.12.11-.19.17l.04-.04c-.1.09-.22.17-.33.25l.05-.03c-.18.11-.25.15-.43.23-.08.04.16-.07-.02,0-.2.1-.56.13-.4.12-.03,0-.05,0-.06,0,.03,0,.05,0,.07,0,0,0,.02,0,.02,0h0c.13.03.01,0,.24.06h-.03s.08.02.08.02c.29.12.14.05.52.27-.14-.09-.08-.05.12.08l-.05-.03c.09.07.14.09.21.15-.07-.05-.03-.03.13.1l-.11-.08c.11.08.2.16.3.24.23.2.51.53.56.59,0,0,.07.09.14.18.02.03.04.06.08.11,0-.01.05.08-.01-.02-.05-.08-.1-.17-.17-.28.09.15.16.26.22.37,0,0,0,0,0,0,0,0,.02.04,0,0,0,0,0-.02,0-.02h0s.14.29.14.29h0s0,0,0,0c0,0,0,0,.02.02.03.04.08.13.16.31l.03.08c.18.35.09.1.07-.16-.04-.26,0-.5.16-.04-.16-.8.02-.38-.17-1.41.05-.54.27-.02.37.23.12.26.16.23.22-1.39.17-.17.19.76.25.93l-.04.17c.28-.25.39-.27.59-.17.15-.29.41-1.78.6-1.38-.19.57-.07.48.02.5-.08.08-.13.29-.1.71.05-.18.1-.29.14-.37,0,.05-.02.08-.03.15.18-.17.21-.36.15-.46.02-.09.04-.2.06-.37-.02.79.45.05.2,1.06.47-.12,1.13-1.01,1.71-1.2-.16.51-.43.9-.62,1.05l.35-.07c-.3.7-.32.34-.46.45-.2,1.24,1.15-.84,1.06.38l.36-.49-.02.1c.15-.28.44-.62.55-.68-.26.61-.73,1.34-.52,1.41-.17.63.57-.04.97-.22-.05-.16.17-.46.34-.63.11.04-.18.64.05.45l-.46.76c.41-.74.74-.6.98-.89-.3.59-.46.38-.75.79.44.19.22.09.66.28.59-.41.43-.73.97-1.31.29-.01.85-.39.77.22l.38-.7c.74-.23.92.01.7.85,3.35-1.54,4.85-3.16,5.48-4.45.64-1.27.4-2.19.4-2.19-.19-2.31-2.25-.99-4.3-1.54"/>
  <path class="cls-1" d="M131.61,226.31l-.31-.15c.11.1.22.17.31.15"/>
  <path class="cls-1" d="M130.58,226.26s-.03-.03-.06-.05c.02.03.04.04.06.05"/>
  <path class="cls-1" d="M119.83,223.36h0s-.03-.05-.05-.09l.04.09Z"/>
  <path class="cls-1" d="M125.55,217.94c-1.73,1.09-3.28.5-4.2,2.61-.76.74-1.11,1.87-1.51,2.81.77,1.04-.69,1.13-.08,2.13l-.7-.14c.21.34.31.64-.11.64l-.17-.1c.33.5-.09.65.08.89l-.17-.1-.07.35-.23-.18c.27.69.11,1.17-.3,1.48l.77.28c-.61.26-.54.65-.49,1,.05.35.09.69-.6,1.04l-.19-.07c.83.98.35,1.42-.14,2.12-.47.64-.95,1.7.3,2.84-.31-.27-.39.21-.59.23.45,1.23,1.32,2.52,2.71,1.66.39.67-.06.82-.5,1.29.57-.41,1.22-.05,1.66.28h-.38c.46.36.92.62,1.38.82.16-.43.34-.85.53-1.26.34.68-.74,1.48.05,1.56l.51-.98c.34.3.48.87.68,1.52.2.65.46,1.36.92,1.86,1.1.32,2.28.23,3.29-.09,1.02-.32,1.89-.85,2.63-1.39,1.51-1.11,2.48-2.15,4.27-2.59l.71.46c.47.39.3-.1.11-.57-.21-.47-.45-.92.02-.61-.07-.2-.15-.41-.23-.6.23.06.53.04.65.34.22-.22.07-.35-.11-.74l.81.16c1.18-.73.35-2.28,1.04-3.09.97-.27,1.34-1.11,1.38-1.97.04-.87-.26-1.74-.47-2.39-1.21-2.04,3.94-2.1,2.5-4.26.18,0-.14-.24-.27-.29l.63-1.29s2.73-6.36-8.52-4.75l-.24-.12c-.87.52-1.16.94-.08,1.89-1.57-.46-.37.55-.93.55l-.12-.06c1.03.86-1.31.58-.4,1.38-.12-.06-.54-.22-.53-.33.08.38.28.94-.63.64-.03.83-.81,1.74.45,2.72l-.24-.12c.87.61.02.41.4.89-.12-.03-.19-.03-.24-.04.85.63-.16.93.17,1.31l-.6-.19-.06.62.2-.17c1.61.66-1.18.06-.26.83-.33.26,3.08,2.06,2.12,2.14.67.5-1.15-.68-.69-.17-.83-.35-.47-.35-1.16-.57.28.42-1.01,0-.59.53l-.64-.3c.97.95-1.12.13-.17.93.3.62-1.86-.98-.89.05l-.82-.49c-.18-.02.87.78.43.59-.47-.38-.44-.23-.84-.64-.39-.27-.17-.02-.06.23.12.23.11.46-.39-.16.62.99.17.46.57,1.23-.26-.43-.19,0-.6-1.03-.04-.08-.02-.07.07.11l-.31-.62c-.11-.21-.04-.07-.03-.06.02.05.04.08.05.11.02.05.05.12.09.22.06.15.11.31.16.48-.05-.17-.02-.09.11.34-.02-.03-.04-.05-.04-.08l-.04-.15c.04.14.07.31.09.44v-.06c.02.21.03.27.03.47,0,.08,0-.15,0,.01,0,.09,0,.21-.01.27v.06c-.06.17-.09.32-.13.45,0-.01,0,.01-.03.07h0c-.13.28-.02.09-.22.43l.02-.03-.06.09c-.24.31-.13.19-.41.46.11-.1.05-.03-.08.06l.03-.03c-.05.04-.08.06-.12.09.03-.02.01,0-.06.03l.05-.03-.06.04h-.02s0,0,0,0l.1-.05h0s.02-.01.02-.01c0-.03.5-.13.73-.14,0,0,.23-.02.58-.01.33,0,.83.06,1.03.08-.35-.05.61.09.33.05.19.03.38.06.55.09.16.03.73.15.47.09-.14-.04-.08-.08.3,0l.08.03c.79.14-.79-1.05.28-1.1-.76-.3-.25-.36-1.24-.72-.72-.95,2.32.07-.49-1.56-.04-.32.82.08,1.02.05l.12.13c0-.53.02-.67.27-.92-.18-.31-1.45-1.12-.96-1.22.45.41.42.24.49.14.03.12.21.25.63.34-.14-.12-.22-.21-.28-.29.04.02.07.04.12.08-.07-.28-.24-.36-.36-.33-.07-.05-.17-.11-.33-.18.76.26.28-.53,1.15.05.15-.61-.42-1.61-.39-2.28.44.29.73.69.79.93l.08-.41c.58.49.21.44.26.62,1.19.48-.36-1.47.82-1.09l-.36-.49.09.05c-.23-.22-.47-.6-.48-.73.53.41,1.09,1.07,1.23.86.58.32.16-.6.11-1.05-.18.02-.4-.28-.51-.5.08-.11.58.33.46.06l.61.66c-.6-.59-.36-.89-.56-1.2.49.45.23.56.54.95.32-.39.15-.2.48-.58-.22-.69-.58-.62-.97-1.31.08-.29-.1-.95.46-.7l-.56-.57c.03-.78.35-.91,1.08-.44-.16-1.85-.33-3.32-.65-4.45-.32-1.13-.8-1.89-1.27-2.43-.99-1.04-2.19-1-2.19-1-2.7-.33-2.29,2.24-3.54,4.21"/>
  <path class="cls-1" d="M144.83,224.29l-.22.27c.13-.08.22-.18.22-.27"/>
  <path class="cls-1" d="M144.32,225.63s-.04.02-.07.03c.03,0,.05-.02.07-.03"/>
  <path class="cls-1" d="M138.77,234.85h0s-.05,0-.09.02l.09-.02Z"/>
  <path class="cls-1" d="M135.32,228.32c.63,1.83-.36,3.14,1.34,4.45.46.87,1.39,1.47,2.12,2.08,1.21-.42.8.94,1.91.67l-.38.6c.38-.09.69-.09.54.29l-.15.12c.56-.15.54.28.82.2l-.15.13.29.18-.24.15c.73-.03,1.06.27,1.21.77l.55-.61c.02.67.43.79.82.9.39.12.75.22.88,1.01l-.13.15c1.24-.42,1.5.18,1.94.86.41.65,1.1,1.39,2.37.66-.31.18,0,.44-.05.63,1.18.06,2.31-.07,2.3-1.69.63.02.55.48.68,1.11-.04-.71.49-1.04.97-1.19l-.18.31c.48-.17.95-.38,1.4-.64-.26-.38-.5-.76-.72-1.16.78.11.77,1.48,1.35.84l-.51-.98c.92-.26,2.58.7,4.3-.22,1.15-1.4,1.52-3.27,1.33-4.71-.18-1.45-.73-2.47-1.22-3.24-1.04-1.57-1.78-2.25-1.58-3.82l.65-.54c.99-.71-1.86.44-.97-.25l-.61.09c.14-.18.24-.45.54-.5-.1-.24-.27-.12-.67-.05l.46-.66c-.12-1.16-1.77-.9-2.16-1.81.41-1.93-2.13-2.56-3.51-2.78-1.22.05-1.28-1.07-1.39-2.21-.12-1.14-.43-2.4-1.94-2.29.06-.18-.33,0-.41.12-.46-.45-.98-.91-1.58-1.35,0,0-.53-.4-1.46-.72-.9-.33-2.26-.51-3.31-.1-1.07.4-1.66,1.33-1.53,2.69.06,1.36.86,3.3.43,5.87l-.1.24c.02.71.02.87,1.04-.07-.86,1.38.24.36.04.88l-.09.1c1.04-.79-.13,1.24.87.62-.1.09-.4.42-.48.38.33.02.87.02.23.73.64.26,1.16,1.41,2.59.69l-.21.16c.93-.52.37.16.97.02-.08.1-.11.16-.15.2.95-.48.75.54,1.23.42l-.45.45.53.34-.06-.26c1.32-1.13-.48,1.08.64.63.1.43,3.25-1.79,2.91-.89.75-.37-1.12.73-.44.55-.68.6-.53.26-1.02.79.52-.05-.4.96.3.84l-.54.46c1.3-.45-.21,1.23.95.71.75.03-1.52,1.48-.12,1.04l-.69.69c-.02.24,1.04-.55.78-.11-.51.32-.26.48-.8.69-.57.85,1.64.09.51,1.36,1.12-.41.56.05,1.38-.26-.45.24.03.29-1.04.58-.09.03-.08,0,.11-.07l-.64.26c-.24.12-.33.16-.4.2.2-.07.48-.17.85-.3.61-.19,1.07-.33,1.58-.43-.31.05-.7.17-.43.09.33-.08.61-.14.89-.17l-.18.03c.42-.07.75-.1,1.02-.09h-.11c.38,0,.52.02.72.06.08.02-.16-.04.01,0,.02,0,.05.02.08.02l.15.07s-.14-.09-.23-.21c.02.02-.05-.05-.1-.12h0c-.21-.35-.1-.14-.26-.49v.03s-.02-.09-.02-.09c-.09-.28-.06-.19-.1-.39,0,.08,0,0,0-.03h0s0-.02,0-.01c0,0,0,0,0,.01h0s0,.06,0,.06c0,.05-.02.15-.04.26.11-.41.19-.74.3-1.15,0-.02.02-.05.04-.12,0,0,.07-.17.13-.34.04-.1.09-.2.15-.34.02-.04.05-.09.08-.15-.04.07-.08.15-.13.24.1-.19.16-.31.24-.45.05-.1.11-.2.07-.12.06-.11.13-.22.18-.32.08-.13-.01.02-.03.05-.03.05-.06.08-.08.11-.09.12-.11.04.11-.28l.06-.07c.4-.7-1.1.53-.79-.54-.56.6-.45.08-1.14.87-1.19.27.78-2.26-1.74-.23-.33-.1.33-.76.36-.98l.17-.06c-.54-.22-.68-.31-.87-.67-.37.05-1.54.99-1.5.48.54-.29.36-.33.27-.44.13,0,.31-.11.52-.5-.16.1-.27.14-.37.17.04-.03.06-.06.11-.1-.3-.04-.43.1-.43.24-.07.05-.16.13-.27.26.46-.67-.45-.48.34-1.14-.59-.38-1.73-.15-2.4-.4.4-.36.85-.51,1.12-.5l-.39-.22c.63-.43.49-.06.68-.05.75-1.08-1.57-.11-.94-1.21l-.57.23.07-.08c-.27.17-.7.3-.83.28.52-.42,1.29-.81,1.11-1.03.43-.52-.6-.35-1.05-.42-.02.19-.36.34-.59.4-.09-.11.44-.52.14-.47l.77-.46c-.7.47-.97.14-1.31.27.54-.4.6-.09,1.05-.31-.34-.44-.17-.22-.52-.66-.74.06-.72.45-1.47.7-.28-.15-.96-.11-.63-.63l-.66.45c-.79-.18-.85-.53-.29-1.19-3.76-.4-5.9.11-7.07.98-1.16.85-1.31,1.95-1.31,1.95-.78,2.46,1.75,2.36,3.36,3.89"/>
  <path class="cls-1" d="M147.86,212.33l.17.3c-.04-.15-.09-.27-.17-.3"/>
  <path class="cls-1" d="M146.91,214.18s.02.04.04.07c0-.03-.02-.05-.04-.07"/>
  <path class="cls-1" d="M156.37,220.86h-.01s0,.07,0,.11l.02-.11Z"/>
  <path class="cls-1" d="M148.92,222.58c1.55.04,2.41,1.48,4.28.2.52-.11,1.04-.38,1.54-.7.26-.17.49-.34.75-.54.3-.23.6-.46.88-.68-.1-1.33,1.47-1.03,1.35-2.28l.66.32c-.05-.43-.02-.78.42-.7l.13.15c-.12-.62.37-.72.3-1.03l.14.14c.08-.13.15-.26.21-.4l.17.24c-.02-.85.3-1.38.82-1.77l-.73-.38c.71-.29.73-.8.74-1.24,0-.49.02-.84.71-1.3l.19.07c-.81-1.05-.37-1.52.09-2.19.22-.34.42-.71.44-1.11,0-.42-.21-.88-.78-1.27.29.2.41-.17.6-.19-.4-.92-.9-1.83-2.41-1.2-.2-.53.27-.64.79-1-.63.3-1.13,0-1.41-.33l.34.03c-.29-.33-.61-.63-.96-.89-.28.36-.57.71-.87,1.04-.09-.68,1.14-1.21.46-1.43l-.77.8c-.39-.68.18-2.35-.37-3.58-.89-.59-1.93-.83-2.88-.83-.95,0-1.84.21-2.62.46-1.6.52-2.77,1.07-4.54.85l-.5-.68c-.3-.53-.32-.01-.27.49.05.5.14,1-.2.54l.03.63c-.18-.14-.46-.24-.48-.55-.26.11-.16.29-.11.7l-.67-.45c-1.27.19-.97,1.88-1.82,2.3-.95-.15-1.53.42-1.8,1.13-.28.71-.27,1.56-.26,2.16.27,1.07-.72,1.02-1.66.93-.95-.08-1.82-.22-1.56.94-.14-.11.04.25.13.35l-.91.53s-1.04.67-1.08,2.06c-.02.7.2,1.61,1,2.73.8,1.11,2.18,2.47,4.71,3.76l.12.23c1.01.07,1.53-.15,1.11-1.53,1.09,1.23.61-.27,1.08.02l.07.11c-.45-1.26,1.45.14,1.05-1.02.07.11.37.45.3.54.12-.39.21-.96.88-.29.43-.74,1.57-1.28.81-2.69l.17.21c-.55-.91.14-.38-.03-.97.1.07.17.1.2.13-.55-.9.45-.75.28-1.2l.48.41.25-.5-.23.06c-1.26-1.2,1.08.42.49-.6.38-.09-2.18-2.97-1.29-2.66-.46-.69.84,1.03.57.41.65.63.32.48.88.94-.14-.48.91.4.67-.22l.49.51c-.61-1.2,1.02.34.39-.73-.1-.65,1.37,1.58.78.32l.58.76c.14.1-.56-1.03-.23-.68.31.51.3.38.55.9.22.42.05.12,0-.13-.07-.24-.03-.44.19.33-.24-1.15-.04-.47-.16-1.35.09.51.14.06.19,1.18,0,.09,0,.07-.02-.12l.06.5c-.02-.18-.04-.42-.02-.74,0,.06,0,.09,0,.13,0-.07,0-.16.01-.38,0,.03.02.07,0,.08v.06c0-.15.03-.31.05-.46v.06c.02-.21.06-.32.11-.54.03-.11-.06.2,0-.02.09-.3.25-.64.35-.77,0,.01.02-.02.05-.06h0s.05-.06.04-.05h0s-.01,0-.01,0c-.09.07-.11.08-.12.09,0,0,.02-.01.03-.02.02-.01.03-.03.13-.08-.08.04-.02,0,.04-.02,0,0,0,0,0,0h0s0,0,0,0h0s.04-.01,0,0c-.05.02-.1.03-.13.03-.07.01-.17.03-.2.03,0,0-.1,0-.19,0-.14,0-.29,0-.34-.01.1.01-.17-.02-.09-.01-.17,0-.56-.09-.78-.14h.04c-.33-.09-.63-.19-.88-.31-.06-.03-.14-.07-.17-.08.03.02.06.04.08.05.02.02-.03,0-.25-.12.71.42.3.22,1.19.78.4.36-.13.15-.35.03-.24-.11-.25-.09.92,1.05.04.23-.65-.42-.8-.51l-.1-.14c.06.32.02.37-.12.4.14.28.98,1.53.63,1.34-.27-.54-.27-.4-.31-.39-.02-.1-.13-.28-.38-.61.09.16.13.27.17.36-.02-.04-.04-.07-.07-.13.04.22.13.38.21.44.04.08.1.18.19.32-.4-.64-.31.21-.75-.72-.25.37-.2,1.49-.51,2.01-.21-.49-.25-.97-.2-1.2l-.22.27c-.22-.73.03-.47.07-.64-.66-1.08-.33,1.39-1.09.41l.05.61-.05-.09c.08.31.08.75.03.87-.22-.63-.36-1.49-.58-1.39-.32-.58-.46.43-.64.84.16.08.2.45.19.69-.12.05-.34-.58-.38-.28l-.21-.87c.23.81-.13.96-.1,1.33-.22-.63.08-.6,0-1.1-.51.2-.26.1-.77.3-.14.72.24.81.28,1.61-.21.23-.31.89-.73.44l.29.75c-.32.71-.6.7-1.15.02-.44,1.82-.33,3.26-.07,4.37.26,1.11.6,1.95.99,2.54.34.62.64,1.04.84,1.3.21.27.35.38.35.38,1.21,1.44,1.05-.89,2.54-1.86"/>
</svg>