<?xml version="1.0" encoding="UTF-8"?>
<svg id="Capa_1" data-name="Capa 1" xmlns="http://www.w3.org/2000/svg" viewBox="0 0 269.03 164.12">
  <defs>
    <style>
      .cls-1 {
        fill: #a4d5cc;
      }
    </style>
  </defs>
  <path class="cls-1" d="M88.4,61.18l-.34.17c.11.04.23,0,.34-.17"/>
  <path class="cls-1" d="M76.64,129.65s.03.05.05.07c-.02-.05-.03-.06-.05-.07"/>
  <path class="cls-1" d="M76.68,68.83s0-.01,0-.01c-.02-.03-.02-.06-.04-.09l.04.1Z"/>
  <path class="cls-1" d="M82,55.22c-1.62,3.47-3.1,4.04-3.9,7.98-.68,1.78-1.04,3.79-1.41,5.62.65,1.11-.68,2.34-.19,3.56l-.62.25c.17.42.23.87-.15,1.14l-.14-.06c.24.62-.14,1.14,0,1.45l-.15-.06-.1.65-.19-.17c.18,1.02-.04,1.95-.43,2.73l.65.09c-1.12,1.59.02,2.54-1.17,3.94l-.15-.06c1.23,2.38-1.84,2.95-.66,5.37-.15-.3-.35.05-.5,0-.02,1-.1,2.05,1.15,2.29-.14.69-.49.5-.99.5.55.1.67.74.61,1.29l-.17-.29-.08,1.6,1.09-.13c-.43.78-1.3,0-1.18.84l.86.13c-.35,1.12-1.78,1.59-2.57,2.62-1.07,4.66.65,9.9-1.22,14.07l-.67.14c-.96.01,1.32,1.3.43,1.4l.4.54c-.18.13-.38.41-.58.15-.07.46.09.48.35.84l-.63.46c-.59,1.8.46,3.43.1,5.33-1.36,2.23-.51,6.62-.01,9.15,1.21,3.59-2.84,7.42-1.43,11.11-.14.11.14.43.25.43l-.34,3.27s-1.35,15.88,7.32,4.29l.2.09c.62-1.76.8-2.89-.18-4.19,1.3-.12.22-1.47.66-1.86l.1.04c-.92-1.16.96-2.2.14-3.31.1.05.45.09.46.34-.11-.78-.34-1.85.42-1.86-.08-1.85.42-4.39-.7-5.64l.2.09c-.76-.72-.07-.88-.43-1.65.1-.04.15-.08.19-.07-.75-.78,0-2.14-.3-2.75h.5s-.03-1.47-.03-1.47l-.14.54c-1.35-.27.92-1.05.1-2.16.23-.98-2.71-2.18-1.98-3.16-.61-.53,1.01.5.57-.27.71.02.42.37,1,.22-.29-.74.8-1.13.38-2.04h.56c-.94-1.22.87-2.12-.04-2.95-.38-1.22,1.7-.68.7-1.98l.79-.42c.16-.52-.89-.45-.48-1,.47.07.43-.71.85-.33.84-1.25-.83-2.75.57-4.36-.88-.46-.25-1.27-.91-1.62.4,0,.24-1.72,1.01-.67.06.09.04.24-.12.21l.53.17c1.12-.87-.38-1.83-.11-2.77-.21.26-.21.65-.55.35l.18-.89.44.24.43-1.29-.59.11c.37-.62,1.36-.72.66-1.55-.4-.39-.85.51-.93-.19.51-.82,1.25-2.03,1.6-3.11-.65,0-.58-.29-.66-.61l.56.05c-.58-1.29,1.28-.23.85-1.49l.37.17-1.1-.5c-.91-1.23,1.24-.37-.04-1.79.01.48-1.25,0-.91-.52l.5.24c-.06-.33-.26-.48-.11-.67.25.24.75.24.74-.24l.6.43-.82-1.05c.69-.56.2-1.76,1-1.89,0,0,.65-1.36-.09-1.86.44.39.81-.36,1.35,0-.49-.49-.71-1.69-.01-1.99l.05.1c.96-1.48-.2-2.96.89-4.23-.65-.09-.11-.77-.96-.78-.4-1.71,2.33-2.31,0-3.5.06-.72.8-.65,1.03-.97l.09.2c.16-1.33.22-1.71.56-2.64-.1-.54-1.21-.95-.69-1.71.37.41.39.04.48-.28.01.22.16.33.58.01-.12-.1-.18-.22-.23-.32.04,0,.07,0,.11.02,0-.57-.17-.53-.3-.3-.07-.03-.16-.04-.31,0,.74-.37.43-1.54,1.22-1.36.32-1.63-.12-3.02.03-4.43.44-.02.69.41.72.84l.17-.98c.57.2.15.64.17.97,1.29-.79-.16-2.59,1.15-3.59l-.35-.42.1-.05c-.24-.08-.46-.48-.46-.7.56,0,1.13.42,1.32-.23.65-.33.29-1.51.27-2.27-.21.32-.44.11-.56-.11.1-.33.66-.33.54-.65l.67.22c-.67-.11-.36-1.08-.59-1.3.55,0,.24.65.57.87.43-1.29.21-.64.64-1.93-.23-.87-.67-.12-1.12-.67.11-.65-.12-1.42.54-1.95h-.67c0-1.32.35-1.97,1.25-2.48-.6-5.15-1.96-6.32-3.24-6.15-1.27.17-2.42,1.68-2.42,1.68-2.7,2.85-1.74,5.31-2.81,9.54"/>
  <path class="cls-1" d="M103.79,40.24l.28.24c-.01-.12-.09-.22-.28-.24"/>
  <path class="cls-1" d="M168.62,38.24s.04-.03.06-.06c-.04.02-.06.04-.06.06"/>
  <path class="cls-1" d="M114.29,48.26h-.01s-.04.04-.06.07l.07-.07Z"/>
  <path class="cls-1" d="M101.37,48.51c3.4.03,4.39,1.18,7.85.42,1.68-.02,3.44-.42,5.06-.67.71-1,2.14-.14,3.01-.99l.39.51c.3-.29.66-.49,1-.22v.16c.44-.43.98-.22,1.21-.44v.16s.56-.1.56-.1l-.09.23c.8-.48,1.65-.55,2.41-.39l-.1-.64c1.64.65,2.16-.73,3.65.06v.16c1.74-1.8,2.92,1.05,4.74-.65-.23.21.11.33.1.49.86-.22,1.78-.35,1.75-1.62.63,0,.53.38.63.87-.02-.56.52-.81,1.01-.85l-.22.22,1.41-.23-.31-1.04c.76.28.23,1.28.94,1l-.03-.87c1.05.14,1.69,1.45,2.71,2.06,4.18.27,8.65-2.02,12.55-.51l.18.65c.08.96,1.07-1.42,1.22-.53l.45-.44c.13.17.4.35.17.57.42.04.43-.12.73-.41l.45.6c1.65.47,3.05-.7,4.79-.44,2.08,1.23,6.01.15,8.29-.44,3.22-1.38,6.82,2.55,10.12,1.03.1.14.39-.16.39-.27l2.97.25s3.6.25,5.89-.54c2.28-.79,3.29-2.64-2.07-6.87l.08-.2c-1.62-.59-2.66-.75-3.84.26-.13-1.29-1.35-.19-1.72-.62l.04-.1c-1.04.95-2.04-.9-3.05-.05.04-.1.07-.45.3-.47-.71.14-1.69.4-1.72-.35-1.7.15-4.05-.27-5.16.9l.08-.21c-.63.79-.8.1-1.5.5-.04-.1-.08-.15-.07-.19-.69.78-1.96.09-2.51.42l-.03-.5-1.34.09.5.12c-.19,1.36-1-.88-1.98,0-.91-.18-1.87,2.83-2.8,2.15-.45.64.4-1.04-.27-.55-.02-.71.32-.44.15-1.02-.66.33-1.08-.74-1.89-.26l-.03-.56c-1.07,1.01-2-.73-2.71.23-1.09.46-.74-1.65-1.88-.56l-.45-.75c-.49-.12-.35.92-.89.56.03-.47-.69-.38-.37-.83-1.23-.73-2.48,1.07-4.11-.16-.34.93-1.16.39-1.41,1.08-.05-.4-1.63-.05-.73-.93.08-.07.22-.06.21.1l.1-.55c-.94-1.02-1.67.6-2.58.45.27.18.63.12.4.5l-.85-.06.17-.46-1.27-.24.19.57c-.62-.28-.86-1.24-1.54-.42-.3.46.6.75-.04.95-.83-.38-2.08-.93-3.15-1.06.12.64-.17.62-.46.76l-.05-.56c-1.1.8-.44-1.21-1.54-.56l.09-.39-.26,1.17c-.97,1.13-.58-1.14-1.64.4.44-.11.25,1.22-.3.99l.12-.54c-.3.12-.39.35-.59.25.17-.3.07-.78-.37-.68l.27-.68-.8,1.02c-.66-.55-1.65.21-1.95-.54,0,0-1.4-.32-1.68.52.26-.52-.51-.69-.32-1.3-.33.6-1.37,1.11-1.82.52l.08-.07c-1.6-.56-2.64,1-4.08.3.1.64-.66.33-.44,1.14-1.41.88-2.74-1.53-3.12,1.05-.65.18-.82-.55-1.16-.66l.15-.14c-1.23.28-1.58.33-2.51.32-.44.28-.44,1.46-1.28,1.23.24-.49-.1-.38-.4-.36.19-.09.24-.26-.18-.55-.05.15-.13.24-.21.32,0-.04-.02-.06-.02-.12-.5.2-.4.34-.16.39,0,.07.02.16.1.29-.57-.57-1.48.14-1.6-.66-1.53.3-2.57,1.19-3.83,1.61-.18-.4.1-.8.46-.99l-.9.22c-.04-.6.5-.38.77-.53-1.16-.88-2.16,1.14-3.5.35l-.23.49-.08-.07c.02.25-.23.61-.41.71-.22-.51-.08-1.2-.71-1.12-.54-.47-1.39.36-2.02.7.36.06.27.36.13.55-.31.04-.54-.46-.76-.21l-.09-.7c.18.65-.76.79-.85,1.08-.22-.5.45-.49.49-.89-1.25.17-.63.09-1.88.26-.62.59.18.65-.09,1.29-.58.19-1.11.73-1.83.37l.27.6c-1.07.58-1.73.58-2.54.02-3.88,2.93-4.13,4.71-3.42,5.74.7,1.04,2.36,1.34,2.36,1.34,3.35,1.06,4.83-.91,8.64-1.72"/>
  <path class="cls-1" d="M210.81,72.53l.07.73c.1-.06.12-.26-.07-.73"/>
  <path class="cls-1" d="M121.99,151.36c-.05.03-.11.04-.16.07.11-.03.15-.05.16-.07"/>
  <path class="cls-1" d="M212.69,100.08s0-.02-.01-.03c-.04-.04-.08-.1-.12-.14l.13.17Z"/>
  <path class="cls-1" d="M199.9,68.91c.49,1,.93,1.9,1.3,2.75.35.86.67,1.66.97,2.41.57,1.51,1.09,2.82,1.55,4.18.47,1.35.96,2.69,1.6,4.2.65,1.51,1.35,3.23,2.37,5.28.82,2.02,1.62,4.13,2.52,6.18.87,2.07,1.67,4.15,2.47,6.13,1.54,1.63,1.76,5.33,3.19,7.4l-.26,1.05c.49.72.93,1.61.88,2.49h-.16c.74,1.07.86,2.48,1.2,3.03h-.16s.43,1.43.43,1.43l-.28-.2c.47.99.85,2.03,1.15,3.06.28,1.03.45,2.07.57,3.05l.6-.3c.21,4.24,1.76,5.51,1.61,9.4l-.16-.02c.35.73.47.63.6.87.12.18.18.37.21.54.05.35-.06.62-.19.78-.03.04-.06.08-.1.11l-.29-.06c-.18-.04-.33-.06-.46-.05-.26.02-.37.16-.66.6.13-.22-.15-.32-.15-.48.04.02-.37.09-.63.15-.28.06-.57.12-.84.18-.55.12-1.06.26-1.5.42-.88.32-1.46.74-1.4,1.37-1.68.19-1.42-.23-1.7-.69.08.55-1.35.96-2.66,1.16l.58-.29-3.73.65.87.95c-2.03-.06-.66-1.21-2.54-.72l.13.86c-2.78.16-4.55-.96-7.3-1.28-11.13.95-22.81,4.49-33.31,4.05l-.53-.61c-.3-.93-2.7,1.71-3.19.87l-1.16.56c-.35-.13-1.09-.25-.51-.52-1.12.08-1.13.24-1.9.61l-1.25-.47c-4.43-.02-8.05,1.5-12.69,1.72-5.67-.67-16,1.42-21.97,2.58-8.35,2.18-18.51-.82-27.05,1.49-.29-.11-1,.25-.99.35l-7.95.46s-9.63.62-15.54,1.9c-5.91,1.3-8.12,3.35,6.82,6.31l-.18.22c4.4.19,7.15.11,10.08-1.16.57,1.25,3.59-.14,4.64.2l-.09.11c2.58-1.19,5.54.41,8.04-.68-.09.11-.12.47-.71.53,1.85-.31,4.39-.8,4.58-.06,4.45-.55,10.7-.73,13.45-2.16l-.18.22c1.56-.95,2.1-.3,3.88-.87.11.09.24.13.22.17,1.7-.95,5.16-.57,6.56-1.04l.14.49,3.52-.44h-1.33c.33-1.39,2.75.62,5.22-.49,2.41-.05,4.59-3.29,7.13-2.86,1.12-.75-.94,1.14.78.48.13.7-.79.52-.27,1.05,1.71-.5,2.92.46,5.02-.24l.14.54c2.7-1.29,5.35.2,7.12-.95,2.84-.74,2.1,1.44,5,.05l1.25.63c1.3-.01.83-1.01,2.29-.8-.04.48,1.84.19,1.05.72,3.31.4,6.44-1.75,10.82-.95.82-1.01,3.02-.71,3.63-1.47.16.39,4.29-.41,1.99.72-.2.09-.57.12-.56-.04l-.23.57c2.54.75,4.34-1.05,6.75-1.17-.73-.1-1.67.05-1.08-.39l2.23-.18-.41.51,3.35-.12-.52-.51c1.66.1,2.34,1,4.08-.02.78-.54-1.62-.58.07-.96,2.21.14,5.53.32,8.32.16-.33-.61.41-.67,1.16-.89l.15.54c2.85-1.12,1.23,1.09,4.07.12l-.21.42.63-1.25c2.49-1.42,1.56.97,4.3-.89-1.14.24-.7-1.15.76-1.08l-.29.58c.77-.21,1.01-.47,1.55-.42-.43.35-.15.81.99.57l-.69.76,2.06-1.25c.44.09.93.09,1.43.05.25-.02.51-.05.76-.08.29-.04.58-.08.86-.12,1.66-.23,3.08-.4,3.89-.12,0,0,1.67-.12,3.48-.36.9-.12,1.83-.27,2.55-.45.18-.04.35-.09.5-.14.06-.03.17-.03.19-.09-.03-.1-.06-.19-.09-.28-.12-.37-.26-.69-.4-.94.38.82.51.43.62-.04.12-.46.24-1.01.66-.28-.46-1.09-1.01-2.92-1.38-4.64-.38-1.73-.6-3.4-.44-4.46l.13.38c-.08-1.13-.11-1.43-.18-1.96-.07-.49-.16-.96-.27-1.42-.21-.92-.47-1.78-.73-2.62-.49-1.7-1.08-3.31-1.09-5.25-.59.31-.68-1.73-1.38-1.06-1.67-3.61-.07-7.37-2.9-8.08-.62-1.67,0-2.18-.12-3.11l.25.37c-1.1-3.16-1.42-4.07-2.12-6.45-.62-1.1-1.78-.92-2.21-3.1.68.52.3-.3.03-1.08.25.47.46.57.4-.55-.19-.1-.35-.29-.5-.48.03-.02.05-.07.1-.07-.62-1.25-.67-.97-.52-.35-.08,0-.15.07-.2.3.09-1.55-1.35-3.75-.67-4.18-.84-1.9-1.72-3.47-2.58-4.94-.88-1.47-1.79-2.82-2.6-4.34.23-.52.88.07,1.42.93l-1.1-2.19c.56-.22.87,1.16,1.27,1.81-.22-3.1-3.31-5.11-3.93-8.58l-.73-.44-.02-.22c-.22.12-.87-.42-1.17-.83.25-.66,1.09-.5.31-2-.14-1.43-1.92-3.3-3.02-4.69.37.87-.03.74-.38.47-.42-.73-.19-1.41-.7-1.88l.58-.41c-.43.61-1.67-1.6-2.08-1.73.23-.68,1.02.93,1.46.93-1.69-2.94-.86-1.46-2.6-4.37-1.37-1.3-.41.62-1.38.19-.9-1.31-2.12-2.38-2.74-4.14l-.23.82c-1.98-2.27-2.85-3.81-3.45-5.81-2.06-1.96-3.74-3.4-5.15-4.4-1.39-1.01-2.43-1.63-3.21-1.96-1.57-.65-2.09-.14-2.05.83.02,1.93,2.1,5.63,2.1,5.63,1.81,3.88,3.65,6.45,5.71,9.17,1.06,1.34,2.14,2.73,3.3,4.31.58.79,1.19,1.63,1.83,2.53.61.92,1.23,1.91,1.89,2.99"/>
  <path class="cls-1" d="M91.5,28.99c.13-.1.26-.2.39-.3-.11-.06-.24,0-.39.3"/>
  <path class="cls-1" d="M172.43,19.29s.06-.03.09-.05c-.06.02-.08.03-.09.05"/>
  <path class="cls-1" d="M105.89,32.23s-.02,0-.02,0c-.02.03-.05.05-.07.08l.09-.08Z"/>
  <path class="cls-1" d="M98.3,35.29c.18-.62.36-1.16.55-1.65.11-.34.14-.25.19-.3.05-.02.1-.04.15-.05.2-.05.4.02.54.09.19.09.18.18.2-.02-.09.02.26-.02.51-.05l.78-.12c.52-.08,1.05-.19,1.57-.3,1.04-.23,2.08-.45,3.07-.67.83-1.06,2.63-.37,3.65-1.3l.51.47c.35-.32.79-.56,1.21-.32v.16c.52-.48,1.21-.32,1.47-.56v.16s.69-.16.69-.16l-.09.24c.96-.55,1.99-.71,2.93-.63l-.16-.63c2.05.47,2.6-.94,4.47-.3v.16c2.04-1.96,3.65.75,5.78-1.11-.27.23.16.32.15.48,1.04-.29,2.16-.51,2.05-1.78.78-.06.67.33.82.81-.06-.55.59-.86,1.19-.95l-.26.24,1.71-.35-.44-1.02c.95.22.35,1.26,1.21.92l-.09-.87c1.29.06,2.15,1.3,3.43,1.84,5.1-.06,10.47-2.62,15.28-1.23l.23.65c.12.96,1.26-1.47,1.47-.58l.54-.45c.16.17.49.35.22.57.51.03.52-.13.88-.43l.56.59c2.01.41,3.7-.72,5.82-.48,1.26.61,3.07.7,4.93.52,1.84-.13,3.77-.49,5.11-.74.45-.15.88-.21,1.24-.19.41.03.55.09.77.23.41.27.61.82.59,1.29-.09.32.05,1.19.31,2.11.3.99.78,1.94,1.54,2.71-.07.17.34.37.44.32l1.3,3.45s6.58,16.64,8.64,1.03h.23c-.31-2.05-.7-3.27-2.21-4.15,1.1-.7-.52-1.58-.32-2.18h.11c-1.39-.75-.22-2.66-1.5-3.41.11,0,.45-.11.57.13-.24-.37-.54-.79-.7-1.18-.16-.39-.2-.77.12-.96-.29-.53-.61-1.18-1.05-1.91-.5-.84-1.15-1.68-1.87-2.33-1.45-1.34-3.31-1.84-4.47-1.53l.2-.16c-1.38.46-1.5-.22-2.58.06-.04-.1-.11-.16-.09-.2-1.06.7-2.53-.02-3.24.28l-.02-.5-1.67.04.62.13c-.27,1.37-1.22-.93-2.46-.06-1.13-.2-2.35,2.79-3.49,2.09-.56.63.5-1.03-.33-.56-.02-.71.39-.44.19-1.01-.82.33-1.33-.73-2.35-.25l-.04-.56c-1.31,1.02-2.49-.74-3.36.25-1.35.48-.94-1.63-2.33-.52l-.57-.74c-.61-.11-.41.92-1.09.58.03-.48-.86-.35-.48-.81-1.55-.68-3.05,1.14-5.11,0-.39.94-1.42.45-1.71,1.16-.07-.4-2.02.04-.94-.89.09-.08.27-.07.26.08l.1-.55c-1.21-.98-2.04.69-3.18.61.35.16.79.08.51.48h-1.05s.19-.48.19-.48l-1.58-.16.26.55c-.78-.24-1.13-1.19-1.92-.31-.35.48.78.71,0,.95-1.04-.3-2.62-.77-3.93-.82.18.63-.17.64-.52.8l-.09-.55c-1.31.9-.62-1.17-1.93-.43l.08-.4-.25,1.19c-1.12,1.21-.78-1.09-2,.54.53-.15.37,1.19-.31,1.02l.11-.55c-.35.15-.46.39-.71.3.19-.31.04-.79-.49-.64l.29-.71-.92,1.09c-.85-.49-2.02.35-2.43-.36,0,0-1.74-.18-2.03.69.28-.55-.67-.64-.47-1.27-.37.63-1.62,1.24-2.2.69l.09-.08c-1.99-.4-3.17,1.25-4.98.7.16.63-.79.4-.46,1.19-1.67,1.03-3.45-1.26-3.76,1.36-.79.24-1.03-.47-1.46-.54l.17-.16c-1.48.4-1.91.48-3.04.57-.53.32-.46,1.51-1.49,1.36.26-.51-.14-.37-.51-.32.23-.11.28-.29-.25-.53-.05.15-.14.26-.23.34,0-.04-.03-.06-.03-.11-.6.25-.47.38-.18.4,0,.07.03.16.14.28-.73-.52-1.8.28-1.99-.51-.92.22-1.69.58-2.42.95l-.54.28c-.19.09-.5.2-.73.3-.49.19-.97.38-1.47.58-.4-.33-.06-.81.58-1.08-.54.14-1.06.32-1.55.53-.26-.55.77-.6,1.26-.79-.88-.21-1.69.07-2.33.53-.66.47-1.18,1.12-1.69,1.76-.34.43-.68.84-1.13,1.23.06.23.12.47.2.69l-.12.08c.21.13.34.76.33,1.09-.55.07-1.11-.58-1.37.61-.17.19-.28.47-.34.79-.03.15-.06.36-.06.48,0,.11.01.23.03.35.06.48.22,1,.27,1.42.17-.4.43-.21.57.01-.06.38-.62.49-.46.83l-.7-.11c.68-.01.49,1.13.75,1.33-.56.11-.32-.68-.68-.85-.25,1.53-.13.76-.38,2.29.35.92.68-.01,1.21.5-.01.74.32,1.54-.27,2.27l.66-.13c.19,1.44-.05,2.23-.85,3,2.88,11.02,6.36,3.53,6.36,3.53,2.18-3.64.82-6.04,1.33-10.82"/>
  <path class="cls-1" d="M116.9,18.06l.25-.15c-.12.01-.22.05-.25.15"/>
  <path class="cls-1" d="M139.14,10.78s.03.03.06.04c-.02-.03-.04-.04-.06-.04"/>
  <path class="cls-1" d="M125.17,12.48h0s.04.02.07.03l-.07-.03Z"/>
  <path class="cls-1" d="M125.06,18.79c.16-1.67,1.32-2.22.67-3.87.02-.82-.34-1.66-.56-2.44-.24-.07-.37-.18-.44-.28-.06-.02-.06-.04-.05-.06.01-.05.04-.08-.36-.17l.54.03c-.28-.05-.47-.13-.18-.1l.16.03c-.42-.12-.18-.12-.39-.2l.16.05-.08-.07.23.08c-.45-.21-.49-.35-.29-.32l-.68-.34c.37.08.21-.05.06-.23-.14-.16-.26-.36.22-.1l.16.13c-.05-.05-.1-.1-.15-.15-.65-.68-.21-.52.12-.28.36.23.59.49.13-.32.11.21.26.33.37.49-.04-.2.02-.3-.7-1.59.16.02.34.4.61.9-.3-.57-.3-.8-.2-.84l.05.22c.07-.07.15-.13.24-.19l-.46-1.07c.34.31.51,1.3.6,1.05l-.27-.89c.38.18.82,1.53.99,2.18.07.05.14.06.2.04l.05-.02.18-.02.36-.06c.48-.1.97-.24,1.46-.35.49-.1.98-.16,1.43-.08.23.04.45.12.66.24.1.06.21.14.3.22.03.08.05.16.06.26l-.13.64c-.11.47-.01.12.13-.22.14-.34.31-.69.18-.27.07-.13.15-.27.23-.4-.04.17-.07.35-.19.54.04.05.1-.1.28-.36-.06.19-.13.38-.21.57-.02.23.13.09.37-.06.23-.15.54-.32.57-.18-.09.14-.15.24-.19.32-.05.09-.11.18-.13.24-.04.12,0,.17.11.2.22.05.67.12,1.01.28.18.04.29.11.33.2.02.05.03.08.02.15,0,.1-.01.21-.04.31-.09.42-.34.87-.58,1.31-.49.89-.95,1.78-.05,2.49-.13.06.19.17.3.16v1.45s.32,7.02,7.7.94l.21.02c.43-.84.49-1.34-.61-1.79,1.27-.21.07-.66.47-.89h.11c-1.03-.38.72-1.06-.21-1.44.1,0,.46-.02.49.09-.19-.32-.52-.76.22-.85-.27-.79-.04-1.95-1.28-2.35l.21.02c-.41-.09-.46-.24-.46-.4,0-.15.06-.33-.17-.54.1-.05.14-.09.18-.09-.83-.31-.26-1.39-.63-1.67l.48-.22c-.07-.32-.14-.63-.22-.93l-.06.41c-.66.25-.48,0-.25-.39.23-.38.5-.91.05-1,.04-.38-.66-.26-1.29-.08-.31.09-.61.18-.79.19-.09,0-.15-.01-.18-.06-.01-.02-.01-.06,0-.1,0-.03-.02-.05-.01-.09-.81.45,1.14-.77.33-.48.6-.58.58-.31.97-.79-.7.17-.12-.79-1.05-.53l.39-.47c-.74.33-.93.09-1.14-.15-.2-.24-.4-.5-.91-.12-.96.24.26-1.64-1.08-.83,0-.26-.03-.52-.05-.78-.36-.2-.59.82-.89.39.17-.45-.43-.47-.06-.86-.37-.46-1.15-.32-1.42-.17-.38.14-.77.22-1.1-.46-.31.89-.66.29-.88.96.03-.4-.83-.16-.26-.97.05-.07.12-.04.1.11l.12-.54c-.37-1.08-.95.46-1.4.26.12.19.32.17.15.53l-.43-.12.14-.45-.64-.32.05.57c-.32-.32-.3-1.29-.82-.52-.15.22-.03.42.04.58.04.16.12.29-.15.36-.64-.43-1.72-1.06-2.69-1.24.21.65-.04.62-.24.75l-.16-.56c-.74.78-.71-1.25-1.5-.57l-.04-.39c.04.39.09.78.15,1.17-.36,1.14-.97-1.13-1.16.48.28-.15.71,1.16.23.98l-.16-.53c-.16.14-.12.37-.31.29-.02-.29-.34-.75-.61-.59-.05-.23-.1-.45-.14-.67-.05.35-.06.71-.06,1.06-.77-.39-.98.51-1.62-.02,0-.03-1.12.23-.72,1.01-.2-.51-.78-.29-1.08-.82.17.6,0,1.49-.66,1.37l-.02-.09c-.07.03-.13.07-.18.1-.47.35-.52.9-.51,1.41,0,.52.03.98-.43,1.28.63.26.2.63,1.03.88.34.68-.1.98-.3,1.35-.21.36-.17.75,1.16,1.25.18.5-.56.45-.67.7l-.15-.15c.3,1.01.35,1.27.36,1.99.28.33,1.48.39,1.23.77-.48-.08-.38.07-.37.22-.08-.09-.26-.1-.55.12.15.01.24.05.32.08-.04,0-.07.02-.12.02.19.23.33.17.39.05.07,0,.16-.02.29-.07-.58.31.11.71-.69.81.26.72,1.14,1.17,1.51,1.75-.41.11-.79,0-.97-.16l.19.42c-.6.05-.37-.22-.5-.34-.91.61,1.06.98.24,1.67l.48.08-.07.04c.25-.03.6.08.69.16-.51.14-1.2.11-1.14.4-.48.29.32.65.62.94.07-.18.37-.15.56-.09.03.15-.48.28-.25.38l-.7.08c.65-.12.75.33,1.04.35-.51.13-.47-.19-.86-.19.12.6.06.3.18.9.56.27.66-.12,1.29-.02.16.27.68.5.29.87l.61-.16c.53.49.49.81-.11,1.23,5.44,3.5,7,.19,7,.19,1.23-1.7-.66-2.33-1.32-4.15"/>
  <path class="cls-1" d="M127.56,7.27l-.24.1c.12-.03.21-.06.24-.1"/>
  <path class="cls-1" d="M129.86,16.44s.03,0,.06,0c-.02,0-.04,0-.06,0"/>
  <path class="cls-1" d="M119.38,10.73s0,0,0,0c-.03,0-.04,0-.07,0h.07Z"/>
  <path class="cls-1" d="M119.62,8.72c-.19.56-1.34.97-.74,1.36-.04.26.29.46.49.65.94-.11.09.31.89.25l-.51.18c.27-.02.46,0,.2.11l-.15.03c.41-.03.19.11.4.09l-.15.03.09.07-.22.04c.45.02.5.13.34.29l.63-.16c-.65.4.68.17-.11.58l-.15.03c1.73-.14-1.03.69.61.58-.21.01-.32.09-.48.13.21.08.34.19,1.58-.1,0,.09-.37.17-.85.29.54-.13.79-.11.84-.04l-.22.02.23.16,1.01-.29c-.27.18-1.24.33-.97.37l.85-.21c-.13.19-1.4.59-1.99.88-.22.69,2.1.81.74,1.72l-.63.18c-.93.24,1.42-.18.56.05l.44-.04c-.16.06-.33.14-.55.16-.02.07.13.03.42,0l-.56.2c-.39.35.77.28.61.58-1.11.58.11.89.82,1.06,1.5.12-2.08,1.54-.38,1.63-.13.05.18.02.29-.01l-.03.46s.14,2.16,7.48-1.28l.2-.04c.44-.35.51-.53-.55-.44,1.24-.33.08-.22.47-.38l.1-.02c-1,.09.73-.49-.17-.42.1-.02.45-.1.47-.07-.18-.06-.49-.13.23-.32-.25-.19,0-.61-1.19-.48l.2-.04c-.81.1-.14-.08-.57-.09.09-.03.14-.05.18-.06-.8.09-.19-.25-.54-.25l.48-.12-.16-.16-.09.1c-1.34.3.8-.34-.1-.27.14-.17-2.83.41-2.21.11-.64.09,1.03-.19.52-.17.69-.17.45-.06.99-.22-.35-.01.67-.32.18-.33l.54-.13c-1.02.09.64-.46-.32-.33-.48-.05,1.58-.49.48-.4l.71-.24c.1-.1-.91.17-.57,0,.46-.11.34-.19.79-.25.68-.35-1.11-.11.06-.63-.91.17-.4-.08-1.08.05.39-.1,0-.25.89-.32.07,0,.06.02-.09.05l.53-.11c.97-.37-.61-.1-.48-.27-.17.08-.11.12-.48.17l.04-.14.45-.08.22-.24-.55.16c.26-.16,1.2-.41.39-.32-.45.06-.73.26-.92.21.35-.21.88-.52,1.01-.71-.62.16-.61.12-.74.11l.54-.14c-.79.02,1.18-.34.54-.36l.38-.08-1.14.23c-1.11.12,1.1-.35-.4-.15.11.04-1.19.32-.97.18l.53-.11c-.12-.02-.34.02-.24-.03.29-.04.76-.17.66-.21l.66-.12-.99.11c.54-.23-.2-.2.53-.42,0,0,.31-.28-.5-.13.51-.08.68-.23,1.27-.35-.58.09-1.08.05-.49-.16h.07c.56-.38-.94-.18-.24-.56-.62.16-.31-.03-1.1.19-.84-.01,1.54-.77-.96-.25-.16-.06.55-.25.67-.33h.14c-.24-.13-.28-.18-.25-.32-.26,0-1.41.26-1.16.08.47-.07.37-.1.36-.14.08.01.25-.02.54-.15-.14.03-.23.03-.31.04.04,0,.06-.02.11-.03-.18-.03-.32.01-.37.06-.07.02-.16.04-.28.08.57-.22-.09-.2.69-.4-.24-.18-1.08-.14-1.43-.24.4-.12.77-.16.94-.15l-.18-.09c.58-.14.35,0,.48,0,.9-.38-1.02-.09-.2-.48l-.47.07.07-.03c-.24.06-.58.1-.67.09.5-.15,1.17-.28,1.12-.36.47-.19-.29-.14-.59-.17-.07.07-.36.12-.54.14-.03-.04.47-.19.25-.17l.68-.17c-.64.17-.72.05-1.01.1.5-.15.45-.04.84-.12-.11-.16-.05-.08-.16-.25-.54.03-.64.17-1.25.27-.15-.05-.65-.02-.26-.21l-.6.18c-.51-.04-.46-.16.13-.41-5.23.01-6.82,1.38-6.82,1.38-1.23.79.6.6,1.2,1.04"/>
  <path class="cls-1" d="M132.08,8.41l-.25.09c.12-.03.21-.06.25-.09"/>
  <path class="cls-1" d="M134.16,17.63s.03,0,.06,0c-.02,0-.04,0-.06,0"/>
  <path class="cls-1" d="M123.82,11.67s0,0,0,0c-.03,0-.04,0-.07,0h.07Z"/>
  <path class="cls-1" d="M124.12,9.66c-.2.56-1.36.94-.77,1.34-.04.26.28.46.48.67.95-.09.08.31.88.27l-.51.16c.27-.01.46,0,.19.11l-.15.03c.41-.02.19.11.4.1l-.15.03.09.07-.22.03c.45.03.5.15.33.29l.63-.15c-.66.38.67.19-.12.58l-.15.03c1.73-.1-1.05.66.6.59-.21,0-.32.08-.48.11.21.09.33.2,1.58-.06,0,.09-.38.16-.85.27.55-.12.79-.09.84-.02h-.22s.23.18.23.18l1.02-.26c-.27.17-1.25.3-.98.35l.85-.18c-.14.19-1.41.55-2.01.83-.24.68,2.08.86.7,1.74l-.64.16c-.93.21,1.42-.14.56.06l.44-.03c-.16.05-.34.13-.55.14-.02.07.13.04.42.02l-.57.19c-.4.33.77.29.59.59-1.12.56.09.89.79,1.08,1.5.16-2.12,1.49-.42,1.62-.13.04.18.02.29,0l-.04.46s.09,2.16,7.51-1.09l.21-.03c.45-.34.52-.51-.54-.45,1.25-.29.09-.22.48-.36l.1-.02c-1,.06.74-.47-.15-.42.1-.02.45-.09.47-.06-.18-.07-.49-.14.24-.31-.24-.2.02-.61-1.18-.51l.21-.03c-.81.08-.14-.09-.56-.1.1-.03.14-.04.18-.05-.8.07-.18-.25-.53-.26l.49-.11-.15-.17-.09.09c-1.34.26.81-.32-.09-.28.14-.17-2.84.33-2.21.06-.64.07,1.03-.16.53-.15.7-.15.45-.05,1-.19-.35-.02.68-.31.18-.32l.54-.12c-1.02.06.65-.44-.32-.34-.48-.06,1.59-.45.49-.38l.72-.22c.1-.1-.91.14-.57-.01.46-.09.35-.18.8-.23.69-.33-1.1-.13.07-.62-.91.14-.4-.09-1.08.02.39-.09.01-.25.89-.3.07,0,.06.02-.09.05l.54-.1c.98-.35-.61-.12-.48-.28-.17.08-.11.12-.49.16l.05-.14.46-.07.22-.24-.55.14c.27-.15,1.21-.38.4-.31-.45.05-.73.24-.93.19.35-.2.89-.5,1.02-.68-.62.15-.61.1-.75.09l.54-.12c-.79,0,1.18-.31.55-.34l.38-.07-1.15.2c-1.11.09,1.11-.32-.39-.16.11.04-1.19.29-.97.16l.53-.09c-.12-.02-.34.01-.24-.04.29-.04.77-.15.66-.19l.67-.1-.99.09c.54-.21-.19-.21.54-.4,0,0,.32-.27-.5-.15.51-.07.68-.22,1.28-.31-.58.07-1.08.02-.49-.17h.07c.57-.36-.93-.2-.22-.56-.63.14-.31-.04-1.11.16-.84-.04,1.56-.73-.95-.27-.15-.07.56-.24.68-.31h.14c-.24-.14-.28-.18-.25-.33-.26-.01-1.42.22-1.16.05.47-.06.37-.09.36-.13.08.01.25-.01.55-.14-.15.02-.24.03-.31.03.04,0,.06-.02.11-.02-.18-.04-.32,0-.38.05-.07.01-.16.04-.29.07.58-.2-.08-.2.7-.38-.23-.18-1.08-.16-1.43-.28.4-.11.77-.14.94-.12l-.18-.1c.59-.12.35,0,.48.02.91-.36-1.01-.12-.18-.48l-.47.06.07-.03c-.24.05-.59.08-.67.07.5-.13,1.18-.25,1.13-.33.48-.18-.29-.15-.58-.18-.07.07-.36.11-.55.13-.03-.04.48-.18.25-.16l.69-.15c-.65.16-.73.03-1.01.08.5-.13.45-.02.84-.1-.1-.17-.05-.08-.15-.25-.54.02-.65.16-1.26.24-.15-.06-.65-.04-.26-.22l-.6.16c-.51-.06-.46-.17.14-.41-5.23-.12-6.85,1.21-6.85,1.21-1.25.76.58.62,1.18,1.07"/>
  <path class="cls-1" d="M134.65,9.16l-.26.04c.12,0,.22,0,.26-.04"/>
  <path class="cls-1" d="M134.75,18.37s.03,0,.06,0c-.02,0-.04,0-.06,0"/>
  <path class="cls-1" d="M125.9,10.57h0s-.04,0-.07-.01h.07Z"/>
  <path class="cls-1" d="M126.6,8.72c-.32.49-1.53.62-1.03,1.12-.1.24.18.5.33.73.94.11.01.31.8.44l-.54.05c.27.04.45.1.16.14h-.15c.41.06.16.14.37.18h-.16s.07.08.07.08h-.22c.43.1.46.23.26.33h.65c-.72.22.62.31-.24.51h-.16c1.71.26-1.16.41.46.68-.2-.03-.33.02-.49.01.18.12.28.26,1.55.26-.02.09-.4.07-.89.09.56,0,.79.08.83.15l-.22-.03.19.2,1.05-.04c-.3.11-1.29.03-1.03.13h.87c-.17.15-1.49.23-2.14.38-.37.6,1.85,1.25.32,1.8l-.66.02c-.96.01,1.42.15.53.18l.44.06c-.17.02-.36.06-.57.02-.04.06.12.06.41.1l-.6.06c-.46.24.69.44.45.69-1.22.3-.1.86.55,1.19,1.43.46-2.38.99-.74,1.46-.14.02.17.05.28.05l-.14.43s-.37,2.07,7.57.5h.21c.51-.22.62-.37-.43-.53,1.29-.03.13-.19.55-.25h.1c-.99-.14.82-.29-.06-.43.1,0,.46,0,.48.04-.16-.1-.45-.24.3-.24-.2-.24.15-.57-1.05-.73h.21c-.81-.08-.12-.1-.53-.2.1,0,.15-.01.19-.01-.8-.1-.12-.28-.46-.35h.5s-.12-.19-.12-.19l-.11.07c-1.37-.02.86-.14-.03-.28.17-.13-2.84-.26-2.17-.4-.64-.06,1.04.06.55-.04.71,0,.45.04,1.02.02-.34-.09.73-.15.25-.27h.56c-1.02-.16.73-.29-.24-.39-.46-.16,1.65-.1.56-.27l.75-.06c.12-.07-.92-.05-.56-.13.47,0,.38-.1.83-.05.74-.17-1.05-.35.2-.58-.92-.05-.37-.17-1.07-.2.4,0,.07-.23.94-.1.07.01.06.03-.1.03l.55.02c1.03-.13-.57-.24-.41-.37-.18.04-.13.09-.51.06l.07-.12.46.02.27-.18-.57.02c.29-.09,1.26-.12.45-.22-.45-.04-.77.08-.94,0,.39-.12.97-.29,1.14-.44-.64.01-.62-.03-.75-.07h.56c-.77-.16,1.22-.06.61-.22h.39s-1.16-.03-1.16-.03c-1.1-.14,1.15-.08-.35-.23.1.06-1.23.03-.98-.05l.54.02c-.11-.04-.34-.06-.23-.09.29.03.78.01.69-.05l.67.04-.99-.12c.58-.09-.15-.24.61-.27,0,0,.37-.2-.46-.24.51.04.71-.07,1.32-.04-.58-.05-1.06-.2-.44-.26h.07c.63-.21-.87-.37-.1-.57-.65,0-.29-.1-1.12-.07-.82-.21,1.68-.38-.87-.45-.14-.09.6-.11.73-.16l.13.02c-.21-.18-.23-.23-.17-.36-.25-.06-1.43-.07-1.15-.19.47.04.38,0,.38-.05.07.03.25.04.56-.02-.15,0-.24-.02-.31-.03.04,0,.07,0,.12,0-.17-.07-.31-.06-.38-.03-.07,0-.16,0-.29.01.61-.08-.04-.21.77-.22-.19-.22-1.02-.38-1.34-.56.42-.02.79.02.95.08l-.15-.13c.6,0,.34.07.46.11.97-.15-.97-.32-.08-.5l-.47-.04h.08c-.25-.01-.59-.05-.67-.08.52-.02,1.2,0,1.17-.09.5-.07-.25-.2-.53-.29-.09.05-.38.03-.56.01-.02-.04.5-.07.28-.11h.7c-.66.01-.72-.12-1-.14.52-.03.45.07.84.08-.07-.18-.03-.09-.1-.27-.53-.1-.67.02-1.28-.03-.14-.08-.63-.17-.21-.26l-.62.03c-.49-.16-.41-.25.22-.36-5.09-1.18-6.95-.25-6.95-.25-1.38.46.44.71.93,1.26"/>
  <path class="cls-1" d="M23.84,32.3l.16.38c.05-.11.03-.24-.16-.38"/>
  <path class="cls-1" d="M56.78,98.88s.05.02.08.02c-.04-.02-.06-.03-.08-.02"/>
  <path class="cls-1" d="M28.04,45.93s-.01,0-.01,0c-.03,0-.06,0-.1,0h.11Z"/>
  <path class="cls-1" d="M17.21,38.07c.78.4,1.37.86,1.88,1.24.5.42.91.84,1.33,1.22.83.79,1.69,1.51,3.31,2.32,1.33,1.09,2.96,1.99,4.29,3.06,1.26-.15,1.62,1.55,2.85,1.71l-.14.64c.42.06.82.24.83.68l-.13.09c.64.11.8.71,1.11.77l-.14.08.44.43-.24.06c.88.41,1.44,1.15,1.75,1.91l.49-.43c.19.93.64,1.32,1.08,1.73.41.41.81.83.85,1.72l-.15.06c1.22.43,1.38,1.27,1.47,2.12.09.86.18,1.68,1.34,2.28-.29-.15-.26.24-.41.29.58.77,1.05,1.68,2.23,1.2.26.66-.15.68-.56.95.52-.22.97.26,1.19.77l-.29-.16.74,1.42.88-.66c.02.9-1.13.64-.62,1.32l.82-.3c.23,1.18-.81,2.25-1.11,3.5.49,2.26,1.51,4.48,2.29,6.78.78,2.29,1.29,4.63.78,6.92l-.63.27c-.94.19,1.55,1.07.68,1.35l.49.48c-.15.17-.3.5-.55.26.02.49.17.49.5.82l-.54.6c-.24,2.03,1.1,3.6,1.22,5.79-.39,1.4-.03,3.36.75,5.28.77,1.93,1.99,3.78,3.05,5,.4.41.78.84,1.12,1.31.32.47.64.96.95,1.47.15.26.3.52.45.79.16.26.32.53.49.79l.49.82.48.75c.63,1.01,1.4,2.01,2.33,2.83.94.81,2.06,1.44,3.33,1.62.08.19.58.1.62,0,1.29.66,2.64,1.2,3.99,1.59,0,0,1.24.35,2.83.51,1.59.16,3.46.11,4.85-.26,1.4-.37,2.34-1.03,2.17-2.12-.09-.55-.46-1.2-1.19-1.99-.72-.79-1.83-1.71-3.21-2.86l.1-.2c-1.71-.7-2.58-.99-3.93-.26.18-1.27-1.2-.5-1.4-1.04l.07-.08c-.61.29-.99-.1-1.3-.52-.32-.41-.58-.83-1.2-.71.08-.07.29-.35.47-.26-.31-.11-.69-.23-.95-.41-.25-.2-.37-.44-.16-.75-.68-.38-1.39-1.09-2.11-1.67-.3-.27-.61-.5-.96-.67-.32-.2-.67-.32-1.06-.35l.21-.07c-1.01.01-.5-.56-1.21-.88.07-.08.08-.15.12-.16-.5-.08-.75-.51-.95-.94-.17-.45-.28-.91-.55-1.09l.45-.22c-.2-.4-.38-.82-.58-1.23l.07.51c-1.37.28.47-1.25-.65-1.95-.03-.49-.84-.78-1.59-1.15-.74-.36-1.43-.78-1.2-1.37-.72-.39,1.1.25.48-.41.7-.15.5.27,1.03-.03-.46-.67.51-1.3-.1-2.13l.54-.12c-1.18-1.04.43-2.32-.62-3.01-.6-1.19,1.55-1.02.32-2.21l.69-.6c.06-.58-.96-.31-.67-.98.48,0,.28-.85.77-.52.57-1.54-1.39-2.86-.47-4.98-.97-.28-.59-1.35-1.34-1.54.39-.12-.3-1.97.76-1.03.09.08.1.25-.05.27l.56.03c.82-1.32-.96-1.93-1.03-3.05-.11.37.03.79-.4.58-.05-.34-.09-.69-.15-1.03l.5.11-.11-1.58-.5.34c.11-.81.98-1.32-.03-1.95-.54-.26-.55.89-.94.17.12-1.08.24-2.71,0-4.02-.57.31-.66-.03-.9-.33l.51-.22c-1.18-1.07,1-.88-.05-2l.41-.02-1.22.05c-1.47-.78.84-1.05-1.06-1.8.28.48-1.04.69-1.07-.01l.56-.05c-.25-.3-.5-.33-.5-.6.35.09.77-.19.47-.66l.76.08-1.31-.57c.21-.97-1-1.82-.45-2.44,0,0-.1-.43-.34-.86-.23-.43-.58-.85-1.03-.84.62.07.35-.88,1.01-.92-.73-.14-1.8-1.06-1.52-1.84l.11.05c-.47-2.07-2.51-2.45-2.89-4.35-.47.43-.75-.53-1.28.14-1.69-.97-.75-3.71-3.13-2.6-.63-.54-.19-1.12-.38-1.54l.23.06c-1.19-1.04-1.53-1.33-2.31-2.2-.59-.24-1.46.54-2.01-.34.56-.12.2-.34-.09-.6.23.11.4.04.24-.54-.15.06-.29.05-.42.04.02-.03.03-.07.07-.1-.58-.31-.6-.12-.42.13-.06.04-.1.13-.12.29-.08-.91-1.43-1.15-.97-1.83-1.63-1.09-3.24-1.22-4.72-1.82.08-.45.59-.55,1.07-.42l-1.03-.51c.33-.5.73.08,1.09.17-.61-1.6-2.87-.71-3.81-2.24l-.52.26-.05-.11c-.11.22-.59.36-.83.32.04-.57.57-1.06-.15-1.4-.36-.72-1.74-.54-2.59-.6.37.25.12.46-.12.56-.37-.13-.38-.69-.75-.6l.22-.67c-.1.67-1.22.29-1.45.51-.03-.57.72-.2.96-.53-1.51-.52-.76-.25-2.29-.7-.96.24-.06.68-.62,1.15-.73-.12-1.55.21-2.24-.42l.1.67c-1.41.1-2.16-.04-2.94-.86-2.69.86-4.03,1.92-4.67,2.76-.64.85-.64,1.58-.3,2.13.29.57.83,1,1.28,1.28.46.27.84.45.84.45,1.5.88,2.64.98,3.97.97.67,0,1.38-.06,2.16-.02.79,0,1.66.13,2.63.39"/>
  <path class="cls-1" d="M9.47,34.13l-.26-.04c.12.03.22.05.26.04"/>
  <path class="cls-1" d="M8.05,40.36s.03.01.05.02c-.02,0-.04-.01-.05-.02"/>
  <path class="cls-1" d="M.72,33.01s0,0,0,0c-.03,0-.04-.01-.06-.02l.06.02Z"/>
  <path class="cls-1" d="M1.71,31.93c-.39.25-1.59.06-1.19.51-.14.14.1.38.2.57.9.3-.04.21.71.49l-.53-.09c.26.09.43.17.14.14l-.15-.04c.38.14.14.14.33.21l-.15-.04.05.07-.21-.06c.4.18.41.27.2.3l.63.15c-.74-.02.55.36-.32.3l-.15-.04c1.62.58-1.2,0,.33.57-.19-.07-.33-.07-.48-.11.16.13.23.24,1.47.54-.03.06-.4-.04-.88-.15.54.13.75.24.78.29l-.2-.07.15.18,1.03.22c-.31,0-1.25-.29-1.02-.16l.85.21c-.19.06-1.49-.19-2.14-.25-.46.32,1.6,1.28.01,1.29l-.64-.14c-.93-.22,1.35.44.49.24l.41.15c-.17-.03-.35-.04-.56-.12-.05.03.11.07.38.17l-.59-.1c-.49.05.6.46.33.57-1.23-.08-.24.56.34.93,1.32.65-2.48.1-.96.8-.13-.02.16.08.26.1l-.2.26s-.7,1.31,7.28,2.12l.2.06c.53-.04.67-.11-.33-.47,1.25.29.16-.1.57-.04l.1.03c-.94-.33.85,0,0-.31.1.03.44.11.46.14-.14-.11-.4-.27.33-.09-.15-.21.24-.35-.9-.74l.2.06c-.77-.25-.1-.1-.48-.27.1.02.15.03.19.04-.76-.25-.08-.22-.39-.35l.48.11-.08-.16-.12.02c-1.32-.34.86.1.02-.2.19-.05-2.72-.85-2.05-.78-.61-.19,1,.28.54.1.69.17.43.14.99.25-.31-.14.73.07.28-.12l.54.13c-.96-.34.76-.02-.17-.31-.42-.21,1.62.32.59-.05l.74.14c.13-.02-.89-.25-.52-.22.46.11.38.02.81.16.75.06-.96-.49.29-.34-.89-.25-.33-.2-1-.39.39.09.1-.14.93.15.07.02.05.03-.1,0l.53.14c1.02.15-.51-.29-.34-.34-.18-.02-.14.03-.5-.08l.09-.06.44.12.29-.06-.56-.12c.3,0,1.25.22.47-.04-.43-.14-.76-.12-.92-.23.4.01.99.03,1.18-.03-.63-.14-.6-.16-.72-.22l.54.13c-.72-.29,1.2.25.63,0l.38.1-1.12-.3c-1.05-.36,1.13.22-.3-.24.08.06-1.2-.27-.95-.26l.52.14c-.1-.06-.32-.12-.21-.11.28.09.76.19.68.13l.65.19-.94-.31c.57.07-.1-.19.64-.04,0,0,.39-.04-.41-.27.49.15.7.12,1.29.28-.56-.17-1-.39-.38-.28l.07.02c.65,0-.78-.46,0-.41-.63-.15-.27-.14-1.08-.31-.76-.33,1.69.14-.78-.51-.12-.1.6.07.74.06l.13.05c-.17-.17-.19-.21-.11-.28-.23-.1-1.38-.39-1.08-.4.45.14.37.08.38.05.07.04.23.08.55.12-.14-.04-.22-.07-.3-.1.04,0,.06.01.11.03-.15-.09-.29-.12-.36-.11-.07-.02-.16-.04-.29-.06.6.09,0-.15.78.03-.15-.19-.93-.49-1.21-.69.41.08.76.2.91.27l-.13-.12c.58.14.32.13.43.19.97.12-.89-.44,0-.35l-.45-.14h.08c-.24-.05-.57-.15-.64-.19.51.1,1.17.28,1.15.22.5.07-.21-.19-.47-.32-.09.01-.37-.07-.55-.12-.01-.03.5.07.29,0l.69.16c-.65-.14-.68-.25-.95-.33.51.11.43.15.81.25-.03-.14-.02-.07-.05-.2-.5-.19-.65-.15-1.24-.32-.12-.09-.58-.26-.16-.23l-.61-.13c-.45-.22-.36-.27.27-.19-4.75-2-6.72-1.81-6.72-1.81-1.42-.01.31.58.69,1.07"/>
  <path class="cls-1" d="M15.91,38.35l.08.31c.04-.11.04-.23-.08-.31"/>
  <path class="cls-1" d="M43.81,73.38s.04.02.07.03c-.03-.03-.05-.03-.07-.03"/>
  <path class="cls-1" d="M17.7,49.09h0s-.04.02-.07.03l.07-.03Z"/>
  <path class="cls-1" d="M11.29,45.24c.84.44,1.27,1.02,1.72,1.51.46.5.95.9,1.94,1.17.8.55,1.87.73,2.73,1.16.89-.55,1.06.67,1.97.31l-.13.55c.3-.11.59-.12.57.23l-.1.12c.46-.16.57.23.8.16l-.11.12.31.15-.18.14c.65-.04,1.08.25,1.31.67l.39-.52c.24,1.2,1.4.44,1.47,1.66l-.12.11c2.05-.5.4,2.05,2.36,1.74-.25.03-.2.27-.33.37.49.26.96.6,1.92-.22.24.32-.1.51-.44.87.42-.36.81-.24,1.04-.02l-.25.03.7.57.71-.79c.07.56-.93.89-.44,1.09l.68-.54c.29.63-.52,1.72-.71,2.6.56,1.16,1.72,1.96,2.62,2.97.46.49.93.99,1.2,1.57.27.59.41,1.22.32,1.92l-.55.37c-.85.44,1.58,0,.81.45l.51.08c-.13.14-.24.37-.49.32.06.25.2.2.54.26l-.45.48c-.09,1.1,1.38,1.46,1.44,2.58-.4.8-.14,1.66.32,2.5.4.85,1.04,1.67,1.51,2.3.91.83.43,2.03.03,3.13-.43,1.12-.97,2.16-.07,3.11-.13.07.18.23.29.22-.02.6-.11,1.21-.16,1.81,0,0-.04.54.04,1.27.05.72.12,1.61.5,2.36.37.74,1.01,1.35,2.09,1.39,1.08.03,2.61-.46,4.81-2.28l.2.07c.67-1.15.71-1.95-.29-2.79,1.29-.1.16-.98.58-1.26l.11.03c-.95-.71.76-1.54-.15-2.21.1.02.46.02.49.18-.19-.51-.52-1.19.22-1.29-.07-.31-.1-.65-.14-1-.06-.35-.12-.7-.21-1.04-.18-.67-.48-1.27-1.13-1.56l.21.02c-.86-.31-.2-.55-.68-.97.09-.04.13-.09.17-.09-.89-.32-.43-1.35-.84-1.65l.48-.13-.32-.91-.03.38c-1.36.21.69-.92-.36-1.37-.03-.69-3.11-.45-2.66-1.25-.7-.1,1.07-.05.47-.35.67-.23.49.07,1-.21-.46-.34.47-.96-.16-1.36l.52-.21c-1.23-.36.16-1.6-.93-1.72-.71-.55,1.33-1.12.03-1.46l.57-.6c-.03-.38-.95.14-.78-.36.44-.17.13-.61.64-.58.27-1.14-1.73-1.18-1.14-2.81-.94.21-.75-.56-1.46-.39.34-.22-.54-1.06.55-.91.09.01.13.11,0,.18l.51-.2c.55-1.11-1.12-.79-1.31-1.45-.05.27.12.47-.29.51l-.25-.57.46-.13c-.07-.32-.18-.62-.28-.93l-.41.42c0-.53.71-1.21-.26-1.18-.5.06-.39.78-.81.49-.02-.71-.04-1.81-.37-2.54-.47.44-.58.26-.82.17l.43-.35c-1.13-.17.78-.99-.23-1.26l.35-.18-1.05.55c-1.32.12.64-1.05-1.03-.72.28.19-.85.9-.9.45l.47-.27c-.22-.1-.44,0-.44-.19.3-.09.64-.46.36-.65l.65-.27c-.37.05-.77.13-1.15.19.11-.73-.94-.79-.52-1.44,0,0-.44-1.01-1.19-.59.51-.21.26-.76.8-1.07-.59.2-1.49.02-1.3-.64h.09c-.45-1.27-2.06-.71-2.33-1.99-.38.52-.59-.08-1,.64-1.33,0-.53-2.53-2.36-.72-.46-.18-.1-.83-.22-1.08l.17-.04c-.85-.37-1.11-.46-1.63-.88-.42.03-1.1,1-1.44.44.41-.3.16-.35-.03-.47.16.01.29-.11.2-.54-.11.1-.21.14-.3.18.02-.03.02-.06.05-.1-.4-.06-.42.1-.31.25-.04.06-.08.14-.1.28,0-.74-.93-.52-.57-1.23-1.09-.37-2.18,0-3.12-.13.09-.42.44-.66.75-.68l-.65-.17c.26-.54.49-.13.72-.15-.29-1.26-1.86.17-2.36-1.01l-.36.36-.02-.09c-.09.23-.41.47-.57.5.07-.53.45-1.12,0-1.25-.17-.61-1.09-.13-1.63,0,.22.16.05.41-.11.55-.22-.05-.19-.59-.43-.43l.18-.68c-.11.66-.8.51-.95.77.01-.54.47-.33.64-.69-.94-.2-.47-.1-1.42-.27-.62.41-.06.67-.43,1.22-.46.04-.95.44-1.36-.06l.05.64c-.86.36-1.27.24-1.76-.43-1.58,1.17-2.19,2.34-2.43,3.24-.24.91-.17,1.62.1,2.15.41,1.07,1.08,1.51,1.08,1.51.68.7,1.15.64,1.81.39.65-.24,1.46-.66,2.55-.57"/>
  <path class="cls-1" d="M44.63,91.75l-.24.17c.12-.02.21-.07.24-.17"/>
  <path class="cls-1" d="M63.85,116.14s.03-.02.05-.04c-.03,0-.04.02-.05.04"/>
  <path class="cls-1" d="M37.29,99.14h0s-.05-.02-.08-.03l.08.03Z"/>
  <path class="cls-1" d="M36.42,91.15c-.05,2.03-1.17,2.79-.25,4.88.13,1.06.67,2.12,1.12,3.11,1.04.2.44,1.34,1.39,1.65l-.42.4c.33.1.58.26.39.56l-.15.04c.48.14.41.56.65.62l-.15.05.21.32-.23.03c.6.34.87.82.92,1.35l.56-.33c-.17,1.27,1.19.95.91,2.17l-.14.07c2.04.09,0,2.21,2.03,2.28-.25,0-.24.24-.37.33.47.34.89.74,1.91-.02.22.31-.13.49-.49.83.44-.34.83-.22,1.04-.01l-.25.03.69.54.71-.79c.05.53-.92.9-.45,1.07l.67-.56c.25.58-.52,1.72-.58,2.6.72,1.09,1.99,1.73,3.15,2.38,1.16.66,2.21,1.32,2.64,2.67l-.33.58c-.55.78,1.4-.72.92.04l.49-.18c-.04.18-.02.43-.26.52.18.19.28.06.6-.06l-.14.65c.57.96,1.91.53,2.67,1.27.41,1.74,3.13,1.99,4.62,1.99,1.17-.22,1.83.75,2.58,1.67.74.94,1.59,1.83,2.8,1.38.02.15.27-.08.31-.19.56.24,1.13.45,1.69.67,0,0,.52.19,1.25.27.72.1,1.64.11,2.39-.2.75-.3,1.32-.9,1.41-1.99.1-1.09-.31-2.65-1.22-4.9l.09-.19c-.68-.71-1.13-.91-1.97-.08.28-1.26-.61-.33-.68-.78l.05-.1c-.8.8-.71-1.12-1.46-.43.05-.09.18-.42.29-.4-.38.04-.94.14-.69-.57-.85-.12-1.76-.88-2.75-.04l.12-.17c-.62.6-.41-.06-.91.17.02-.1.03-.15.05-.19-.66.56-.94-.34-1.34-.17l.22-.45c-.22-.07-.44-.14-.65-.22l.17.22c-.74,1.15-.03-1.01-.89-.48-.3-.36-2.28,1.97-2.36,1.11-.54.41.73-.77.17-.54.37-.61.38-.29.6-.82-.47.1-.08-.91-.69-.73l.29-.47c-1.01.53-.41-1.18-1.26-.59-.73.05.67-1.55-.43-1.02l.28-.73c-.12-.24-.7.63-.69.18.3-.37-.04-.5.37-.76,0-.93-1.61.03-1.41-1.42-.73.57-.66-.1-1.22.32.25-.31-.55-.59.37-.93.08-.03.12.03,0,.14l.41-.37c.38-1.05-.98-.12-1.18-.56-.04.22.12.31-.22.5l-.24-.35.38-.27-.24-.62-.35.46c0-.42.62-1.15-.19-.85-.43.19-.37.74-.71.62,0-.57.03-1.4-.17-1.89-.46.46-.52.33-.71.31l.41-.37c-.93.08.81-.94,0-.95l.33-.21-.99.63c-1.17.31.73-.91-.78-.4.21.11-.9.83-.88.47l.47-.27c-.18-.05-.39.05-.36-.1.29-.1.65-.44.45-.55l.62-.29-1.03.27c.28-.59-.59-.57-.04-1.11,0,0-.05-.74-.83-.41.5-.17.47-.58,1.04-.82-.58.19-1.25.01-.81-.47h.08c.19-.92-1.36-.63-.96-1.55-.57.31-.4-.14-1.1.29-1.05-.28,1.06-1.76-1.4-1.01-.24-.25.42-.57.49-.77l.15.02c-.4-.46-.47-.63-.56-1.06-.31-.13-1.45.19-1.29-.29.49,0,.36-.14.31-.29.1.07.27.05.52-.23-.15.01-.25,0-.33-.02.03-.01.06-.03.11-.04-.23-.2-.36-.12-.39.02-.07.01-.16.05-.27.12.51-.42-.23-.71.54-.94-.37-.69-1.3-1.05-1.74-1.65.39-.15.79-.07.98.08l-.24-.42c.59-.11.39.19.54.31.84-.71-1.16-.94-.39-1.74l-.49-.06.07-.05c-.25.04-.61-.05-.7-.14.5-.17,1.19-.17,1.11-.49.47-.33-.35-.69-.67-.99-.07.19-.36.17-.55.12-.04-.16.47-.32.23-.42l.7-.1c-.65.15-.76-.34-1.06-.37.51-.15.48.21.87.2-.14-.65-.07-.33-.21-.98-.57-.3-.66.13-1.29.03-.17-.3-.69-.57-.3-.98l-.61.18c-.54-.56-.5-.93.09-1.4-2.72-2.06-4.47-2.17-5.55-1.75-1.07.42-1.46,1.36-1.46,1.36-1.22,1.95.67,2.78,1.42,4.97"/>
  <path class="cls-1" d="M203.41,39.74l.37.1c-.06-.1-.17-.16-.37-.1"/>
  <path class="cls-1" d="M216.87,43.06s-.01,0-.01,0c-.01.03-.03.05-.04.09l.05-.09Z"/>
  <path class="cls-1" d="M204.3,48.42c3.31-1.47,4.69-.82,7.79-2.87,1.63-.66,3.23-1.69,4.77-2.48.4-1.19,2.09-.87,2.71-1.96l.54.36c.21-.38.52-.68.94-.53l.03.15c.33-.55.94-.52,1.11-.8l.03.15.55-.27-.03.25c.68-.69,1.53-1.02,2.35-1.08l-.27-.6c1.83.17,2.07-1.34,3.61-.85l.02.16c.6-1.04,1.32-.86,1.89-.62.6.25.98.54,1.63-.19-.16.18.02.34-.02.49.49-.11,1.04-.03,1.52-1.21.44.21.2.52.06.99.22-.52.69-.55,1.06-.38-.09.03-.17.06-.26.1.35.13.7.27,1.06.46.14-.33.28-.66.41-1,.38.65-.62,1.12.03,1.31l.54-.68c.65.77.14,2.11.26,3.21,1.12,1.51,2.72,3.03,4.3,4.83,1.57,1.74,2.96,3.57,3.46,5.77l-.45.51c-.76.58,1.82.22,1.16.83l.63.18c-.07.21-.07.55-.38.46.21.4.35.33.77.45l-.25.73c.55,1.77,2.34,2.46,3.11,4.21.13,2.56,3.23,5.68,5,7.52,2.96,2.35,1.5,7.7,4.55,10.08-.07.17.34.29.43.24l1.34,2.96s1.66,3.56,3.5,5.39c1.84,1.82,4.01,1.95,4.98-5.27l.22-.02c-.33-1.86-.74-2.95-2.24-3.61,1.07-.75-.55-1.4-.37-1.96h.11c-1.38-.55-.3-2.43-1.59-2.98.11-.01.43-.15.57.06-.5-.62-1.25-1.43-.61-1.83-1.04-1.56-1.98-4.03-3.61-4.5l.22-.03c-1.03-.21-.53-.72-1.26-1.18.07-.08.08-.15.12-.17-1.06-.26-1.16-1.83-1.76-2.18l.41-.28-.84-1.22.18.53c-1.28.52.19-1.4-1.12-1.88-.36-.95-3.47-.31-3.42-1.53-.8-.09,1.12-.16.31-.54.6-.39.56.07.95-.39-.66-.45.01-1.4-.86-1.92l.46-.32c-1.47-.47-.53-2.27-1.76-2.42-1.02-.78.97-1.56-.62-2.05l.38-.81c-.18-.52-.98.16-1-.54.42-.23-.09-.84.48-.79-.12-1.54-2.37-1.75-2.31-3.92-.98.18-1.02-.87-1.76-.73.31-.26-.95-1.53.34-1.18.11.03.18.17.05.25l.52-.2c.28-1.43-1.5-1.21-1.95-2.15.03.36.28.66-.17.65l-.48-.84.49-.1-.64-1.37-.34.5c-.19-.76.42-1.57-.75-1.76-.59-.03-.17,1.03-.79.52-.31-1.02-.88-2.62-1.83-3.76-.35.56-.6.27-.99.1l.34-.44c-1.69-.45.37-1.33-1.34-1.88l.35-.22c-.36.22-.7.45-1.05.68-.91.02-.93-.3-1-.63-.06-.32-.2-.64-1.32-.36.64.23-.29,1.22-.87.67l.41-.4c-.46-.08-.69.07-.92-.15.35-.16.44-.68-.26-.83.23-.16.45-.32.68-.46-.54.13-1.09.32-1.59.5-.41-.41-1.08-.53-1.66-.6-.59-.08-1.08-.12-1.27-.51,0,0-.55-.13-1.15-.1-.6.02-1.23.19-1.41.62.35-.56-.78-.63-.54-1.26-.5.63-1.81,1.37-2.48.9l.09-.09c-2.23-.12-2.94,1.74-4.68,1.49.27.59-.64.52-.18,1.24-1.27,1.29-3.39-.6-3.07,2.01-.65.38-1.03-.26-1.44-.25l.12-.19c-1.23.69-1.59.87-2.58,1.19-.39.43-.01,1.56-.97,1.64.09-.55-.22-.32-.54-.19.17-.15.17-.34-.37-.46,0,.16-.06.28-.12.38-.02-.03-.04-.05-.06-.1-.46.38-.31.48-.04.43.02.07.07.15.2.23-.79-.32-1.5.7-1.9-.01-1.51.88-2.28,2.16-3.42,3.06-.33-.3-.19-.78.12-1.11l-.85.58c-.26-.54.38-.56.61-.81-1.53-.35-1.82,1.97-3.49,1.83l-.04.56-.11-.03c.12.22,0,.67-.15.84-.42-.37-.55-1.07-1.16-.71-.74-.19-1.27.99-1.77,1.58.39-.11.42.2.36.44-.3.19-.73-.17-.86.16l-.38-.6c.45.51-.44,1.08-.41,1.4-.43-.35.25-.66.13-1.05-1.19.77-.59.38-1.78,1.15-.37.85.46.5.47,1.22-.49.46-.79,1.21-1.65,1.25l.53.4c-.78,1.07-1.44,1.39-2.48,1.32-2.41,4.65-1.69,6.35-.55,6.87,1.16.54,2.83-.04,2.83-.04,3.59-.72,4.06-3.19,7.39-5.65"/>
  <path class="cls-1" d="M254.9,88.78l.06-.56c-.08.12-.12.29-.06.56"/>
  <path class="cls-1" d="M219.4,60.89s-.02.05-.02.08c.02-.04.02-.06.02-.08"/>
  <path class="cls-1" d="M260.74,81.44s-.12-.02-.09-.18c.05-.46.24-.87.38-1.09.07-.11.14-.18.15-.21,0-.01,0-.02-.01-.02h-.02s.04.1,0,.02l-.06-.11c-.09-.14-.18-.29-.28-.44-.56-1.47-1.56-2.84-2.39-4.12-1.17-.19-.95-1.76-2.07-2.11l.3-.55c-.38-.12-.71-.33-.6-.73l.14-.06c-.57-.17-.62-.72-.9-.8l.14-.06-.33-.42.24-.04c-.76-.43-1.21-1.07-1.41-1.77l-.52.4c-.2-1.63-1.61-1.34-1.65-2.91l.14-.07c-2.35-.38-.6-2.86-2.95-3.28.29.05.21-.28.34-.36-.64-.52-1.24-1.13-2.24-.34-.35-.46.02-.61.35-.98-.43.35-.93.11-1.24-.21l.3.02-.97-.87-.64.88c-.21-.72.87-.97.24-1.3l-.65.58c-.49-.82.11-2.13-.11-3.29-1.3-1.61-3.31-2.78-5.39-3.73-2.11-.96-4.21-1.68-6.29-2.83l-.09-.68c.04-.48-.36-.2-.73.13-.38.32-.73.66-.78.21-.19.12-.37.26-.55.4-.13-.18-.43-.37-.16-.58-.48-.05-.5.09-.84.39l-.52-.59c-1.97-.4-3.32,1.02-5.07,1.24-1.2-.31-2.71.17-4.01.94-1.31.77-2.43,1.8-3.2,2.55-.97,1.29-2.61,1.49-4.28,1.8-1.66.3-3.34.7-4.15,2.21-.16-.06-.2.34-.14.43-.79.47-1.57.94-2.33,1.44,0,0-.69.46-1.51,1.18-.82.73-1.75,1.71-2.26,2.71-.51,1-.58,1.98.25,2.69.83.73,2.56,1.14,5.59,1.3l.08.2c1.39-.43,2.12-.82,2.28-2.23.86.96.99-.53,1.49-.37l.03.1c.14-1.29,1.86-.25,2.05-1.42.03.1.2.41.06.53.4-.44.92-1.11,1.35-.49,1.07-.89,2.9-1.52,3.12-2.98l.04.21c.07-.95.53-.41.84-1.04.07.07.13.1.14.14.14-.96,1.39-.84,1.64-1.33l.24.44.92-.55-.41.06c-.42-1.31,1.08.45,1.43-.64.69-.08.4-3.2,1.38-2.79.17-.72,0,1.09.37.46.22.68-.11.5.18,1.01.4-.47.98.47,1.45-.12l.14.54c.27-.58.67-.46,1.02-.33.35.15.64.3.84-.2.75-.51.54,1.62,1.25.53.09.25.16.51.24.76.27.13.28-.9.57-.51-.07.46.34.42.1.84.27.42.61.22,1.02.12.4-.09.88-.07,1.04.69.57-.75.78-.04,1.25-.56-.16.35.88.6-.07,1.04-.08.04-.14-.02-.06-.15l-.33.44c-.08,1.16,1.15.04,1.57.56-.03-.25-.26-.36.09-.57l.42.41-.38.29.49.74.28-.51c.15.52-.4,1.31.51,1.05.48-.17.21-.86.68-.66.19.69.41,1.76.82,2.46.42-.49.55-.31.8-.23l-.4.39c1.15.14-.71,1.04.31,1.29l-.34.19,1.03-.58c1.36-.1-.61,1.07,1.12.81-.3-.22.84-.91.94-.41l-.49.25c.24.12.47.04.49.24-.32.07-.65.43-.36.65l-.67.23,1.19-.08c-.13.77.95.98.48,1.62,0,0,.38,1.11,1.2.84-.55.12-.35.74-.94.95.64-.11,1.54.31,1.22.96h-.09c.2,1.38,1.94,1.3,1.92,2.68.52-.39.54.31,1.16-.26,1.34.59-.3,2.71,2.11,1.78.4.4-.19.86-.16,1.17l-.18-.04c.69.78.86,1.03,1.16,1.72.4.21,1.48-.29,1.54.45-.52.02-.31.23-.2.46-.14-.11-.32-.07-.44.37.15-.03.26,0,.36.02-.03.02-.05.04-.1.06.34.3.44.17.41-.04.07-.02.14-.08.23-.19-.33.67.6,1.08-.1,1.5.36.53.84.91,1.3,1.27.23.18.46.36.69.54.11.09.22.18.32.28l.08.08c.05.07.07.09.1.13l.17.23c-.29.38-.78.15-1.1-.15.17.25.4.66.59.97-.52.3-.57-.47-.83-.77-.14.89.4,1.54.91,2.1.53.57.99,1.07.98,2.25.16-.03.32-.06.47-.1l-.02.16c.18-.23.55-.23.69-.1-.28.73-.83,1.18-.5,1.95-.05.68.26,1.12.6,1.4l.31-.12c.1-.05.24-.15.35-.22.23-.15.46-.29.65-.41-.39.01-.1-.36.16-.62.36-.11.36.42.74.09l-.22.79c.11-.72,1.23-1.08,1.43-1.44.08.52-.68.66-.91,1.13,1.56-.52.78-.26,2.34-.77.83-.81-.09-.67.31-1.44.66-.36,1.16-1.05,1.92-.88-.11-.18-.22-.36-.32-.54.95-.87,1.49-1.03,2.36-.72,1.17-1.91,1.52-3.32,1.51-4.32-.01-1-.37-1.62-.86-1.98-.94-.74-2.24-.62-2.24-.62-.7-.05-1.25.04-1.71.22l-.17.07c-.07.03-.12.06-.09.05,0,0,.01.02.02.05.02.04.04.11.05.2.06.35-.13,1.04-.61,1.44"/>
  <path class="cls-1" d="M86.68,154.78l.44.25c0-.12-.12-.22-.44-.25"/>
  <path class="cls-1" d="M197.06,153.11s.07-.04.1-.06c-.07.02-.09.04-.1.06"/>
  <path class="cls-1" d="M103.75,163.31h-.02s-.08.04-.11.07l.14-.07Z"/>
  <path class="cls-1" d="M81.49,162.91c5.84.23,7.41,1.43,13.46.85,2.89.06,5.97-.26,8.79-.45,1.33-.96,3.71-.06,5.28-.88l.62.53c.54-.28,1.18-.47,1.73-.19l-.03.16c.81-.42,1.73-.19,2.14-.4l-.03.16.99-.08-.17.23c1.42-.45,2.88-.5,4.18-.32l-.12-.65c2.77.69,3.76-.67,6.27.15l-.03.16c3.13-1.75,5,1.1,8.23-.57-.4.21.18.33.15.49,1.49-.21,3.09-.32,3.1-1.6,1.09,0,.89.39,1.04.88-.01-.56.93-.8,1.78-.85l-.39.22,2.44-.22-.49-1.05c1.3.28.35,1.28,1.58,1.01l-.03-.87c1.79.15,2.86,1.46,4.6,2.08,7.2.27,14.91-2.06,21.63-.61l.3.65c.14.96,1.83-1.44,2.1-.56l.77-.45c.22.17.68.35.3.57.72.03.74-.13,1.25-.43l.78.58c2.85.42,5.25-.76,8.24-.57,3.6,1.16,10.37-.03,14.3-.8,2.74-.79,5.75-.32,8.83.06,3.07.37,6.23.64,9.01-.54.2.11.65-.25.63-.36,1.76-.18,3.52-.4,5.28-.67,0,0,1.6-.25,3.66-.78.51-.14,1.06-.3,1.61-.45.58-.17,1.34-.42,1.99-.72,1.35-.61,2.7-1.45,3.77-2.72.52-.62.95-1.37,1.18-2.11.24-.73.25-1.46.14-1.97-.09-.53-.34-.86-.55-1.03-.23-.16-.48-.12-.74-.04-.53.23-1.15,1.1-2.27,1.43-1.09.31-2.56.24-4.58-.21l.04-.23c-.47,0-1.17.04-1.73.1-.57.06-1.08.15-1.57.26-.97.23-1.79.64-2.63,1.3-.5-1.21-2.22.24-2.92-.09l.04-.11c-1.51,1.23-3.49-.37-4.98.68.05-.11.05-.46.41-.52-1.14.3-2.72.71-2.87-.02-2.77.45-6.7.3-8.47,1.57l.12-.21c-1,.85-1.33.18-2.48.62-.07-.1-.15-.14-.14-.19-1.11.84-3.3.22-4.21.57l-.07-.5-2.26.16.85.09c-.27,1.38-1.73-.83-3.36.08-1.54-.15-3.09,2.89-4.71,2.24-.76.65.66-1.05-.48-.54-.05-.71.53-.46.23-1.02-1.12.35-1.85-.7-3.23-.2l-.06-.56c-1.79,1.04-3.42-.68-4.61.3-1.86.48-1.27-1.63-3.2-.52l-.76-.74c-.83-.11-.58.93-1.51.58.05-.48-1.17-.36-.64-.82-2.1-.71-4.22,1.11-6.98-.1-.58.93-1.97.4-2.41,1.1-.08-.4-2.77-.03-1.23-.92.13-.07.37-.06.35.09l.18-.55c-1.58-1.01-2.84.61-4.39.47.46.17,1.07.12.67.5l-1.44-.06.29-.46-2.15-.24.3.57c-1.05-.28-1.44-1.24-2.61-.42-.53.46,1,.75-.1.95-1.41-.37-3.52-.92-5.31-1.07.18.64-.31.62-.8.76l-.07-.56c-1.89.8-.71-1.21-2.59-.57l.16-.39-.48,1.17c-1.69,1.13-.93-1.14-2.8.39.75-.1.37,1.22-.55.99l.23-.54c-.51.12-.68.35-1.01.24.3-.29.15-.78-.6-.68l.49-.68-1.4,1.01c-1.1-.56-2.82.19-3.28-.56,0,0-2.36-.34-2.88.5.46-.52-.83-.7-.47-1.31-.6.59-2.39,1.09-3.12.48l.14-.07c-2.67-.6-4.54.93-6.94.19.12.64-1.15.31-.83,1.13-2.46.85-4.53-1.62-5.39.95-1.12.15-1.34-.58-1.92-.7l.27-.14c-2.11.24-2.72.27-4.28.23-.78.26-.88,1.44-2.29,1.18.45-.48-.12-.38-.65-.37.33-.08.43-.25-.26-.56-.1.15-.24.24-.38.31,0-.04-.03-.06-.02-.12-.87.18-.72.32-.31.38-.02.07.02.16.14.29-.92-.6-2.53.08-2.65-.73-2.63.22-4.49,1.08-6.68,1.43-.25-.41.26-.79.89-.96l-1.55.17c0-.6.89-.36,1.36-.48-1.86-.94-3.8,1.02-5.98.16l-.44.48-.13-.08c0,.25-.47.6-.79.68-.31-.52,0-1.2-1.07-1.16-.86-.49-2.41.29-3.51.58.6.08.41.37.16.56-.54.02-.85-.49-1.26-.26l-.06-.7c.22.66-1.39.73-1.58,1.03-.31-.52.83-.46.95-.86-2.15.09-1.07.05-3.22.14-1.14.55.22.66-.32,1.29-1.01.15-1.99.67-3.02.17l.3.64c-1.79.4-3-.05-3.54-1.13-1.58-.21-2.61-1.32-3.21-2.27-.61-.99-.75-1.88-.93-2.43-.04-.14-.09-.27-.14-.38-.04-.13-.19-.16-.27-.23-.2-.12-.4-.19-.58-.23-.38-.08-.73-.03-1.05.11-.97.61-1.78,2.39-1.77,4.06-.01.82.1,1.58.24,2.12.13.54.26.86.26.86.87,2.69,2.81,4.53,4.95,5.49,2.12.96,3.97,1.05,5.48.98,1.55-.08,2.75-.37,4.01-.6,1.29-.23,2.71-.46,4.37-.6"/>
  <path class="cls-1" d="M225.68,149.87l.26-.03c-.12,0-.22,0-.26.03"/>
  <path class="cls-1" d="M224.95,140.82s-.03,0-.06,0c.02,0,.04,0,.06,0"/>
  <path class="cls-1" d="M234.45,148.39h0s.04,0,.07.01h-.07Z"/>
  <path class="cls-1" d="M233.72,150.52c.33-.55,1.54-.68,1.05-1.28.1-.28-.18-.58-.33-.85-.94-.12-.02-.36-.81-.5l.53-.07c-.27-.05-.46-.1-.17-.16h.15c-.41-.07-.17-.16-.37-.2h.16s-.07-.09-.07-.09h.22c-.43-.12-.47-.25-.27-.38l-.65.03c.71-.29-.63-.33.22-.6h.16c-1.72-.22,1.14-.54-.5-.76.21.03.33-.03.49-.04-.19-.13-.3-.28-1.57-.2.01-.1.39-.11.88-.15-.56.04-.79-.04-.83-.11l.22.02-.2-.21-1.05.12c.29-.14,1.28-.12,1.02-.21l-.87.06c.16-.17,1.47-.37,2.1-.58.32-.73-1.97-1.22-.51-2l.65-.1c.95-.12-1.43-.01-.55-.14l-.44-.02c.17-.04.35-.1.56-.09.03-.07-.13-.06-.42-.07l.58-.15c.43-.33-.74-.41-.55-.72,1.16-.5-.04-.99-.74-1.24-1.49-.26,2.16-1.5.45-1.74.13-.04-.18-.03-.29,0l.04-.5s-.03-.6-.98-.76c-.96-.18-2.82.16-6.54,1.75l-.2.03c-.45.33-.53.49.53.44-1.26.27-.09.21-.49.34l-.1.02c1-.05-.75.43.14.4-.1.01-.45.07-.48.05.18.07.48.15-.25.29.23.19-.05.57,1.15.52l-.21.02c.81-.05.13.09.55.12-.1.02-.14.03-.18.04.8-.03.17.25.51.28l-.49.08.14.17.1-.08c1.36-.18-.83.27.07.27-.15.15,2.85-.14,2.21.09.64-.02-1.04.08-.54.11-.71.1-.45.02-1.01.12.35.05-.7.25-.21.3l-.55.08c1.03.02-.69.37.28.35.47.1-1.63.3-.53.33l-.74.15c-.11.08.92-.06.57.06-.47.05-.36.14-.82.15-.72.25,1.08.22-.14.58.92-.05.39.12,1.08.09-.4.05-.04.23-.92.19-.07,0-.06-.02.1-.04l-.55.04c-1.01.22.59.17.44.31.18-.05.12-.1.5-.1l-.06.12-.46.02-.25.19.56-.07c-.28.11-1.25.22-.43.25.45,0,.76-.14.94-.07-.38.15-.95.36-1.11.51.64-.06.62-.02.75,0l-.56.04c.78.1-1.22.14-.59.25h-.39s1.16-.03,1.16-.03c1.11.06-1.15.15.37.2-.1-.05,1.22-.11.98-.02l-.54.02c.12.03.34.03.23.07-.29,0-.78.04-.69.09h-.67s.99.05.99.05c-.57.12.16.22-.6.3,0,0-.36.21.47.21-.52-.01-.71.1-1.31.1.58.02,1.07.14.45.23h-.07c-.63.23.88.32.12.54.64-.03.3.08,1.12.03.82.18-1.67.41.88.42.14.09-.6.12-.73.17l-.13-.02c.21.17.24.22.18.35.25.06,1.44.06,1.15.18-.47-.03-.38.01-.38.06-.07-.03-.25-.03-.56.02.15,0,.24.02.31.03-.04,0-.07,0-.12,0,.17.07.31.06.38.02.07,0,.16,0,.29-.01-.61.08.04.21-.77.22.19.21,1.03.37,1.34.56-.42.02-.79-.03-.95-.08l.15.13c-.6,0-.34-.08-.46-.12-.97.14.96.32.07.49l.47.04h-.08c.25.01.59.06.67.09-.52.02-1.2-.02-1.17.06-.5.06.25.2.53.3.09-.05.38-.02.56,0,.01.04-.51.06-.28.1l-.7-.02c.66,0,.71.14,1,.16-.52,0-.45-.08-.84-.11.06.18.03.09.09.27.53.11.67,0,1.28.07.14.09.62.19.2.28h.62c.48.18.4.27-.24.35,2.51.73,4.24.92,5.35.89,1.1-.03,1.58-.28,1.58-.28,1.41-.48-.4-.85-.87-1.49"/>
  <path class="cls-1" d="M199.95,83.01l-.17.24c.11-.05.19-.12.17-.24"/>
  <path class="cls-1" d="M205.45,120.96s.03.02.06.04c-.02-.02-.04-.03-.06-.04"/>
  <path class="cls-1" d="M193.61,91.24h0s-.05-.01-.07-.02l.08.02Z"/>
  <path class="cls-1" d="M191.88,84.71c.22.87.11,1.52.07,2.14-.06.63-.03,1.22.52,1.97.21.84.72,1.65,1.14,2.41,1.04.12.31,1.09,1.2,1.35l-.47.32c.31.09.54.24.3.48l-.15.03c.46.15.3.48.52.56l-.15.02.13.29h-.23c.51.33.64.78.53,1.22l.63-.17c-.52.99.86,1.05.14,1.99l-.16.02c1.85.71-.86,1.73.87,2.52-.22-.1-.32.1-.48.11.25.45.41.94,1.68.79.03.35-.36.34-.84.44.55-.07.83.2.89.48l-.23-.1.27.77,1.03-.27c-.26.46-1.27.25-.97.63l.87-.1c-.11.61-1.39,1.08-1.97,1.7-.17,2.33,2.22,4.75.75,7.04l-.65.12c-.96.08,1.44.56.56.67l.45.24c-.17.08-.35.24-.57.12-.03.24.13.24.42.4l-.59.27c-.44.95.73,1.73.52,2.73-1.2,1.21-.06,3.45.6,4.77.4.63.4.76.21,1-.19.22-.58.34-.93.36-.6.06-.92-.16-.59.52-.11-.1.06.17.13.25l-.29.09-.15.04-.37.15s-.47.21-1.2.72c-.7.49-1.8,1.47-2.25,2.73-.23.62-.25,1.21-.07,1.67.17.46.54.71,1.06.88.53.16,1.22.19,2,.37.8.17,1.63.57,2.54,1.15l.1.18c.7.14,1.21,0,1.31-1.23.37.53.49.51.78.27.26-.23.47-.56.74-.47l.03.1c.11-.66.61-.71,1.13-.85.52-.11,1.06-.3,1.04-.91.06.09.32.34.18.5.19-.29.34-.67.55-.9.19-.25.42-.39.75-.21.23-.41.42-.89.65-1.35.49-1.24.56-2.73-.29-3.52l.21.09c-.39-.33-.42-.49-.4-.68.02-.15.09-.44-.12-.6.1-.02.15-.05.19-.05-.8-.38-.13-1.13-.47-1.44l.5-.02-.12-.77-.11.29c-1.37-.09.86-.59-.04-1.15.17-.53-2.86-1.03-2.19-1.58-.64-.25,1.04.21.55-.17.71-.02.45.17,1.02.06-.34-.38.72-.64.23-1.1l.56-.03c-1.03-.6.7-1.18-.27-1.57-.48-.62,1.64-.47.53-1.11l.74-.28c.11-.29-.93-.17-.58-.5.47,0,.36-.42.82-.25.71-.76-1.09-1.42.1-2.43-.93-.16-.41-.67-1.11-.79.4-.05.01-.96.91-.48.07.04.07.12-.09.13l.55.03c.99-.61-.62-.96-.5-1.51-.17.17-.1.38-.49.27l.04-.51.47.07.21-.77-.56.15c.26-.39,1.22-.6.38-.95-.46-.15-.74.41-.95.04.35-.52.87-1.31.97-1.96-.63.12-.62-.05-.77-.21l.55-.08c-.84-.59,1.19-.38.51-.98l.39.02-1.17-.05c-1.16-.47,1.12-.46-.46-.95.13.25-1.2.27-1-.08h.54c-.14-.15-.37-.18-.27-.31.3.07.78-.04.65-.3l.69.09-1.05-.37c.52-.46-.28-.97.45-1.24,0,0,.25-.89-.61-.95.54.09.65-.4,1.27-.37-.61-.13-1.19-.68-.63-1.04l.08.04c.46-1.07-1.13-1.46-.57-2.45-.62.17-.38-.35-1.16-.06-.99-.68,1.3-1.97-1.27-1.68-.23-.35.46-.6.53-.84l.15.06c-.4-.68-.48-.89-.56-1.45-.32-.2-1.45.08-1.33-.47.5.02.36-.15.3-.33.11.09.29.08.51-.25-.15,0-.25-.02-.34-.04.04-.01.06-.03.11-.04-.25-.25-.38-.15-.4,0-.07.01-.15.05-.27.13.48-.49-.31-.84.45-1.13-.46-.85-1.47-1.21-2.05-1.81.36-.23.77-.19,1-.03l-.34-.47c.56-.21.44.18.61.3.66-.98-1.39-.93-.85-1.99l-.5.04.05-.07c-.23.1-.61.07-.74,0,.43-.31,1.11-.47.92-.81.33-.49-.59-.7-1.01-.94.01.23-.28.29-.49.29-.09-.17.33-.49.07-.53l.63-.32c-.57.36-.85-.15-1.15-.08.42-.33.54.07.91-.06-.4-.67-.21-.33-.63-1-.67-.12-.55.37-1.2.49-.29-.25-.88-.32-.71-.88l-.49.41c-.73-.35-.85-.71-.55-1.41-1.75-.39-2.97-.33-3.88-.09-.9.24-1.49.66-1.84,1.11-.74.89-.71,1.82-.71,1.82-.16,1.05.26,1.48.85,1.9.59.42,1.49.74,2.11,1.56"/>
</svg>